<svg width="1024" height="1024" viewBox="0 0 1024 1024" fill="none" xmlns="http://www.w3.org/2000/svg">
<path opacity="0.04" d="M502.55 759.02C666.584 759.02 799.56 626.044 799.56 462.01C799.56 297.976 666.584 165 502.55 165C338.516 165 205.54 297.976 205.54 462.01C205.54 626.044 338.516 759.02 502.55 759.02Z" fill="black"/>
<path d="M502.84 316.7C501.52 316.31 500.08 316.18 498.6 316.36C494.13 316.9 490.42 320.39 489.64 324.83C489.01 328.43 490.22 331.77 492.5 334.06C493.44 335.01 493.69 336.44 493.08 337.63C489.92 343.79 485.1 351.7 480.08 363.1C465.43 396.38 455.53 432.07 415.09 441.35C380.03 449.4 356.82 415.91 373.22 384.9C387.19 358.49 417.06 352.36 435.86 331.38C452.99 312.27 455.45 282.8 480.01 269.45C487.1 265.6 495.39 264.24 503.17 266.39C521.44 271.42 524.05 290.87 515.49 305.06C512.32 310.31 508.84 313.88 506.15 316.01C505.21 316.75 503.97 317.04 502.84 316.7Z" fill="black"/>
<path d="M516.78 289.1C520.79 294.4 525.11 299.54 528.44 305.31C531.63 310.83 533.97 316.82 535.59 322.98C535.9 324.15 536.18 325.33 536.44 326.51C537.54 331.59 538.69 338.81 534.48 342.83C526.2 350.74 497.65 352.74 497.65 352.74" stroke="black" stroke-width="3" stroke-miterlimit="10" stroke-linecap="round" stroke-linejoin="round"/>
<path d="M513.38 350.68L508.34 377.96" stroke="black" stroke-width="3" stroke-miterlimit="10" stroke-linecap="round" stroke-linejoin="round"/>
<path d="M525.7 347.56L570.49 330L614.91 274.05L630.12 287.13L583.51 354L517.53 402.22" stroke="black" stroke-width="3" stroke-miterlimit="10" stroke-linecap="round" stroke-linejoin="round"/>
<path d="M617.15 275.98L630.12 241.26L632.72 243.85C634.57 245.69 635.28 248.38 634.58 250.89L632.42 258.63L634.35 260.37C638.45 264.05 639.1 270.23 635.87 274.7L628.11 285.42" stroke="black" stroke-width="3" stroke-miterlimit="10" stroke-linecap="round" stroke-linejoin="round"/>
<path d="M474.1 377.13C476.43 375.99 478.96 374.99 481.68 374.25C484.8 373.39 489.52 372.21 495.44 373.3C496.72 373.55 507.4 375.67 513.24 384.92C513.24 384.92 515.67 388.78 516.55 393.7C519.77 411.47 507.47 479.39 506.83 482.9C536 485.75 565.18 488.6 594.37 491.44C594.91 494.34 595.71 500.68 593.18 508.05C590.47 515.94 585.48 520.63 583.22 522.52C570.81 523.91 551.43 526.12 527.64 529.05C479.44 534.99 473 536.5 465.97 533.06C440.73 520.62 453.83 464.15 455.4 413.92" stroke="black" stroke-width="3" stroke-miterlimit="10" stroke-linecap="round" stroke-linejoin="round"/>
<path d="M594.93 494.27L612.71 491.39L623.75 480.95L625.28 485.74C626.55 489.71 625.46 494.05 622.46 496.95L618.28 501C616.67 502.56 615.42 504.45 614.61 506.55C612.64 511.65 607.94 515.18 602.49 515.64L586.86 518.95" stroke="black" stroke-width="3" stroke-miterlimit="10" stroke-linecap="round" stroke-linejoin="round"/>
<path d="M385.99 437.77L345.17 547.34C341.1 558.26 346.92 570.43 358.02 573.99C389.56 584.11 452.1 595.53 497.64 548.62V532.81" stroke="black" stroke-width="3" stroke-miterlimit="10" stroke-linecap="round" stroke-linejoin="round"/>
<path d="M351.53 570.5C348.72 581.01 347.03 596.19 353.49 611.75C368.59 648.16 413.82 651.79 417.66 652.03C427.89 652.68 436.17 651.09 448.1 647.82C469.37 641.99 500 631.45 536.17 611.27C535.18 677.76 532.82 744.23 531.82 810.7C541.03 815.65 550.24 820.59 559.44 825.54C570.19 757.53 579.14 718.41 587.74 663.94" stroke="black" stroke-width="3" stroke-miterlimit="10" stroke-linecap="round" stroke-linejoin="round"/>
<path d="M497.64 546.65L518.45 553.62L630.12 731.41L656.48 718.11L570.28 524" stroke="black" stroke-width="3" stroke-miterlimit="10" stroke-linecap="round" stroke-linejoin="round"/>
<path d="M583.78 490.28L612.72 447.78L638.16 456.13L619.97 484.54" stroke="black" stroke-width="3" stroke-miterlimit="10" stroke-linecap="round" stroke-linejoin="round"/>
<path d="M611 254.87C609.12 251.43 608.04 247.49 608.04 243.29C608.04 229.97 618.84 219.18 632.15 219.18C645.46 219.18 656.26 229.98 656.26 243.29C656.26 251.44 652.22 258.64 646.03 263.01" stroke="black" stroke-width="3" stroke-miterlimit="10" stroke-linecap="round" stroke-linejoin="round"/>
<path d="M531.83 808.92L530.67 833.83L585.26 859.84L585.73 855.99C586.77 847.41 582.84 839 575.6 834.28L559.45 823.76L531.83 808.92Z" fill="black" stroke="black" stroke-width="3" stroke-miterlimit="10" stroke-linecap="round" stroke-linejoin="round"/>
<path d="M629.55 731.88L639.57 747.31L695.08 720.71C690.09 712.81 680.24 709.49 671.49 712.76L655.91 718.58L629.55 731.88Z" fill="black" stroke="black" stroke-width="3" stroke-miterlimit="10" stroke-linecap="round" stroke-linejoin="round"/>
<path d="M581.09 548.33L592.26 551.18C605.81 554.64 614.19 568.2 611.21 581.87L606.2 604.88" stroke="black" stroke-width="3" stroke-miterlimit="10" stroke-linecap="round" stroke-linejoin="round"/>
<path d="M384.29 514.5C384.75 518.47 386.25 526.57 392.23 534.35C402.02 547.09 416.37 549.32 419.53 549.74" stroke="black" stroke-width="3" stroke-miterlimit="10" stroke-linecap="round" stroke-linejoin="round"/>
<path d="M400.69 479.84C399.49 483.66 397.56 491.66 399.86 501.21C403.62 516.83 415.81 524.71 418.53 526.38" stroke="black" stroke-width="3" stroke-miterlimit="10" stroke-linecap="round" stroke-linejoin="round"/>
<path d="M507.49 651.24H317.79V682.81H507.49V651.24Z" fill="black"/>
<path d="M599.22 267.41C594.26 260.65 591.34 252.31 591.34 243.29C591.34 220.74 609.62 202.47 632.16 202.47C654.7 202.47 672.98 220.75 672.98 243.29C672.98 258.32 664.86 271.45 652.77 278.54" stroke="black" stroke-width="3" stroke-miterlimit="10" stroke-linecap="round" stroke-linejoin="round"/>
<path d="M255.7 423.46H178.82C149.09 423.46 125 399.36 125 369.64C125 339.91 149.1 315.82 178.82 315.82H201.88C231.61 315.82 255.7 339.92 255.7 369.64V423.46Z" stroke="black" stroke-width="3" stroke-miterlimit="10" stroke-linecap="round" stroke-linejoin="round"/>
<path d="M169.46 354.88H211.24" stroke="black" stroke-width="3" stroke-miterlimit="10" stroke-linecap="round" stroke-linejoin="round"/>
<path d="M169.46 380.8H211.24" stroke="black" stroke-width="3" stroke-miterlimit="10" stroke-linecap="round" stroke-linejoin="round"/>
<path d="M278.6 395.37H255.54C225.81 395.37 201.72 419.47 201.72 449.19V503.01H278.6C308.33 503.01 332.42 478.91 332.42 449.19C332.43 419.47 308.33 395.37 278.6 395.37ZM244.82 456.24C240.93 456.24 237.78 453.09 237.78 449.2C237.78 445.31 240.93 442.16 244.82 442.16C248.71 442.16 251.86 445.31 251.86 449.2C251.86 453.09 248.71 456.24 244.82 456.24ZM267.08 456.24C263.19 456.24 260.04 453.09 260.04 449.2C260.04 445.31 263.19 442.16 267.08 442.16C270.97 442.16 274.12 445.31 274.12 449.2C274.12 453.09 270.97 456.24 267.08 456.24ZM289.33 456.24C285.44 456.24 282.29 453.09 282.29 449.2C282.29 445.31 285.44 442.16 289.33 442.16C293.22 442.16 296.37 445.31 296.37 449.2C296.38 453.09 293.22 456.24 289.33 456.24Z" fill="black"/>
<path d="M781.32 344.3H714.59C707.1 344.3 701.02 338.23 701.02 330.73C701.02 323.24 707.09 317.16 714.59 317.16H781.32C788.81 317.16 794.89 323.23 794.89 330.73C794.89 338.22 788.81 344.3 781.32 344.3Z" stroke="black" stroke-width="3" stroke-miterlimit="10" stroke-linecap="round" stroke-linejoin="round"/>
<path d="M781.32 506.66H714.59C707.1 506.66 701.02 500.59 701.02 493.09C701.02 485.6 707.09 479.52 714.59 479.52H781.32C788.81 479.52 794.89 485.59 794.89 493.09C794.89 500.59 788.81 506.66 781.32 506.66Z" stroke="black" stroke-width="3" stroke-miterlimit="10" stroke-linecap="round" stroke-linejoin="round"/>
<path d="M848.61 344.3H826.96C819.47 344.3 813.39 338.23 813.39 330.73C813.39 323.24 819.46 317.16 826.96 317.16H848.61C856.1 317.16 862.18 323.23 862.18 330.73C862.17 338.22 856.1 344.3 848.61 344.3Z" fill="black" stroke="black" stroke-width="3" stroke-miterlimit="10" stroke-linecap="round" stroke-linejoin="round"/>
<path d="M809.63 452.54H714.59C707.1 452.54 701.02 446.47 701.02 438.97C701.02 431.48 707.09 425.4 714.59 425.4H809.63C817.12 425.4 823.2 431.47 823.2 438.97C823.19 446.47 817.12 452.54 809.63 452.54Z" fill="black" stroke="black" stroke-width="3" stroke-miterlimit="10" stroke-linecap="round" stroke-linejoin="round"/>
<path d="M886.14 398.42H801.06C793.57 398.42 787.49 392.35 787.49 384.85C787.49 377.36 793.56 371.28 801.06 371.28H886.14C893.63 371.28 899.71 377.35 899.71 384.85C899.71 392.35 893.64 398.42 886.14 398.42Z" stroke="black" stroke-width="3" stroke-miterlimit="10" stroke-linecap="round" stroke-linejoin="round"/>
<path d="M752.39 398.42H712.39C704.9 398.42 698.82 392.35 698.82 384.85C698.82 377.36 704.89 371.28 712.39 371.28H752.39C759.88 371.28 765.96 377.35 765.96 384.85C765.96 392.35 759.88 398.42 752.39 398.42Z" fill="black" stroke="black" stroke-width="3" stroke-miterlimit="10" stroke-linecap="round" stroke-linejoin="round"/>
<path d="M517.55 239.48H529.39L535.38 222.44L537.46 252.73L545.36 235.08L550.69 239.48H561.01L567.33 224.43L571.66 251.05L578.91 237.58" stroke="black" stroke-width="3" stroke-miterlimit="10" stroke-linecap="round" stroke-linejoin="round"/>
<path d="M683.73 239.48L689.46 248.51L693.27 221.86L698.5 239.48H705.17L708.02 227.57L713.97 248.51L717.01 239.48H721.84L726.85 221.86L730.78 248.51L733.64 239.48H741.51" stroke="black" stroke-width="3" stroke-miterlimit="10" stroke-linecap="round" stroke-linejoin="round"/>
<path d="M625.8 398.42C615.96 398.42 607.98 406.4 607.98 416.24C607.98 426.08 615.96 434.06 625.8 434.06C635.64 434.06 643.62 426.08 643.62 416.24C643.62 406.4 635.64 398.42 625.8 398.42ZM629.61 419.16C625.9 419.16 622.89 416.15 622.89 412.44C622.89 408.73 625.9 405.72 629.61 405.72C633.32 405.72 636.33 408.73 636.33 412.44C636.33 416.15 633.32 419.16 629.61 419.16Z" fill="black"/>
<path d="M732.44 594.41L747.27 609.25L732.44 624.08L702.77 594.41L732.44 564.74L747.27 579.58L732.44 594.41Z" fill="black" stroke="black" stroke-width="3" stroke-miterlimit="10" stroke-linecap="round" stroke-linejoin="round"/>
<path d="M747.27 609.25L762.1 624.08L776.94 609.25L762.1 594.41" stroke="black" stroke-width="3" stroke-miterlimit="10" stroke-linecap="round" stroke-linejoin="round"/>
<path d="M747.27 579.58L762.1 564.74L776.94 579.58L762.1 594.41" stroke="black" stroke-width="3" stroke-miterlimit="10" stroke-linecap="round" stroke-linejoin="round"/>
<path d="M776.94 609.25L791.77 624.08L821.44 594.41L791.77 564.74L776.94 579.58" stroke="black" stroke-width="3" stroke-miterlimit="10" stroke-linecap="round" stroke-linejoin="round"/>
<path d="M639.18 445.41C633.05 445.41 628.09 450.38 628.09 456.5C628.09 462.62 633.06 467.59 639.18 467.59C645.31 467.59 650.27 462.62 650.27 456.5C650.27 450.38 645.31 445.41 639.18 445.41ZM643.62 457.39C641.96 457.39 640.62 456.05 640.62 454.39C640.62 452.73 641.96 451.39 643.62 451.39C645.28 451.39 646.62 452.73 646.62 454.39C646.62 456.05 645.28 457.39 643.62 457.39Z" fill="black"/>
<path d="M590.87 428.38C586.95 428.38 583.78 431.56 583.78 435.47C583.78 439.38 586.96 442.56 590.87 442.56C594.78 442.56 597.96 439.38 597.96 435.47C597.96 431.56 594.79 428.38 590.87 428.38ZM588.09 435.47C587.11 435.47 586.32 434.68 586.32 433.7C586.32 432.72 587.11 431.93 588.09 431.93C589.07 431.93 589.86 432.72 589.86 433.7C589.86 434.67 589.07 435.47 588.09 435.47Z" fill="black"/>
<path d="M176.14 512.52C152.69 536.62 138.72 572 143.78 605.71C148.61 637.89 174.19 666.98 207.1 671.96C242.1 677.26 281.9 648.17 277.65 610.36C274.8 584.98 246.26 577.19 224.8 583.29C204.4 589.09 187.49 604.62 177.75 623.46C157.31 662.98 172.65 709.91 200.18 741.77C232.63 779.32 283.75 794.9 332.34 788.62C372.17 783.47 409.3 763 435.94 733.14" stroke="black" stroke-width="3" stroke-miterlimit="10" stroke-linecap="round" stroke-linejoin="round"/>
<path d="M732.1 740.23C732.09 740.07 732.09 739.89 732.09 739.73C732.09 718.27 749.49 700.87 770.96 700.87C786 700.87 799.04 709.42 805.51 721.92C808.27 727.26 809.83 733.31 809.83 739.73C809.83 743.14 809.39 746.45 808.56 749.6" stroke="black" stroke-width="3" stroke-miterlimit="10" stroke-linecap="round" stroke-linejoin="round"/>
<path d="M805.51 721.92C806.98 721.69 808.47 721.57 810.01 721.57C825.76 721.57 838.53 734.34 838.53 750.09C838.53 765.84 825.77 778.61 810.01 778.61" stroke="black" stroke-width="3" stroke-miterlimit="10" stroke-linecap="round" stroke-linejoin="round"/>
<path d="M732.1 740.23C722.1 740.91 714.21 749.22 714.21 759.39C714.21 770.01 722.81 778.6 733.41 778.6" stroke="black" stroke-width="3" stroke-miterlimit="10" stroke-linecap="round" stroke-linejoin="round"/>
<path d="M752.95 769.61V792.14" stroke="black" stroke-width="3" stroke-miterlimit="10" stroke-linecap="round" stroke-linejoin="round"/>
<path d="M771.77 769.61V806.33" stroke="black" stroke-width="3" stroke-miterlimit="10" stroke-linecap="round" stroke-linejoin="round"/>
<path d="M790.59 769.61V792.14" stroke="black" stroke-width="3" stroke-miterlimit="10" stroke-linecap="round" stroke-linejoin="round"/>
<path d="M321.1 263.39C308.56 263.39 298.4 253.22 298.4 240.68C298.4 228.13 308.56 217.97 321.1 217.97C323.43 217.97 325.68 218.32 327.8 218.98" stroke="black" stroke-width="3" stroke-miterlimit="10" stroke-linecap="round" stroke-linejoin="round"/>
<path d="M384.55 225.96C392.25 228.46 397.81 235.69 397.81 244.21C397.81 254.8 389.22 263.39 378.63 263.39C373.63 263.39 369.08 261.48 365.67 258.35" stroke="black" stroke-width="3" stroke-miterlimit="10" stroke-linecap="round" stroke-linejoin="round"/>
<path d="M327.8 218.97C328.66 203.92 341.13 191.97 356.4 191.97C372.22 191.97 385.05 204.8 385.05 220.62C385.05 222.44 384.88 224.24 384.55 225.96" stroke="black" stroke-width="3" stroke-miterlimit="10" stroke-linecap="round" stroke-linejoin="round"/>
<path d="M321.1 263.39H325.01" stroke="black" stroke-width="3" stroke-miterlimit="10" stroke-linecap="round" stroke-linejoin="round"/>
<path d="M337.03 247.3V284.96" stroke="black" stroke-width="3" stroke-miterlimit="10" stroke-linecap="round" stroke-linejoin="round"/>
<path d="M353.39 234.06V271.72" stroke="black" stroke-width="3" stroke-miterlimit="10" stroke-linecap="round" stroke-linejoin="round"/>
<path d="M612.08 460.05L623.57 464" stroke="black" stroke-width="3" stroke-miterlimit="10" stroke-linecap="round" stroke-linejoin="round"/>
<path d="M606.33 468.02L617.82 471.97" stroke="black" stroke-width="3" stroke-miterlimit="10" stroke-linecap="round" stroke-linejoin="round"/>
</svg>
