<svg width="1024" height="1024" viewBox="0 0 1024 1024" fill="none" xmlns="http://www.w3.org/2000/svg">
<path opacity="0.04" d="M512.09 799.02C676.124 799.02 809.1 666.044 809.1 502.01C809.1 337.976 676.124 205 512.09 205C348.056 205 215.08 337.976 215.08 502.01C215.08 666.044 348.056 799.02 512.09 799.02Z" fill="black"/>
<path d="M431.2 611.54V625.24" stroke="black" stroke-width="4" stroke-miterlimit="10" stroke-linecap="round" stroke-linejoin="round"/>
<path d="M611.62 623.86H346.35V661.43H611.62V623.86Z" fill="black"/>
<path d="M735.7 391.46H576.64V429.03H735.7V391.46Z" fill="black"/>
<path d="M620.44 397.1C615.82 392.37 606.77 381.75 603.41 365.6C601.77 357.71 601.96 350.81 602.56 345.73H679.04C679.64 350.81 679.83 357.71 678.19 365.6C674.83 381.75 665.78 392.38 661.16 397.1" stroke="black" stroke-width="3" stroke-miterlimit="10" stroke-linecap="round" stroke-linejoin="round"/>
<path d="M611.08 345.73C608.5 341.68 606.4 338.07 604.74 335.05C601.11 328.48 597.65 321.58 595.51 314.37C593.95 309.09 593.23 303.47 594.27 298.07C594.5 296.88 594.83 295.67 595.57 294.71C597.34 292.45 599.91 293.45 601.83 294.88C613.56 303.64 621.16 319.5 625.89 332.95C627.25 336.83 628.54 341.09 629.69 345.73" stroke="black" stroke-width="3" stroke-miterlimit="10" stroke-linecap="round" stroke-linejoin="round"/>
<path d="M643.35 345.73C644.64 328.8 645.51 311.84 644.36 294.87C644.06 290.4 643.76 282.09 638.77 280.08C633.73 278.05 629.79 287.05 628.59 290.47C623.86 303.91 624.99 318.98 625.9 332.95" stroke="black" stroke-width="3" stroke-miterlimit="10" stroke-linecap="round" stroke-linejoin="round"/>
<path d="M661.91 329.33C664.31 326.87 667.07 324.74 670.06 323.03C672.52 321.63 677.45 319.57 678.87 323.42C679.28 324.5 679.21 325.72 679.05 326.87C678.63 329.67 677.7 332.38 676.63 334.99C675.1 338.71 673.26 342.33 671.1 345.72" stroke="black" stroke-width="3" stroke-miterlimit="10" stroke-linecap="round" stroke-linejoin="round"/>
<path d="M657.59 341.67C657.63 341.55 657.68 341.44 657.72 341.32C658.44 339.27 659.18 337.21 659.9 335.17C660.58 333.24 661.25 331.29 661.9 329.33C664.88 320.26 667.28 310.83 666.71 301.29C666.6 299.46 666.4 296.76 664.88 295.5C661.95 293.07 658.03 297.88 656.42 299.88C654.14 302.7 652.38 305.9 650.77 309.14C648.47 313.76 646.46 318.5 644.57 323.31" stroke="black" stroke-width="3" stroke-miterlimit="10" stroke-linecap="round" stroke-linejoin="round"/>
<path d="M677.79 363.54L670.39 359.54L663 363.54L655.6 359.54L648.21 363.54L640.81 359.54L633.41 363.54L626.01 359.54L618.61 363.54L611.2 359.54L603.8 363.54" stroke="black" stroke-width="3" stroke-miterlimit="10" stroke-linecap="round" stroke-linejoin="round"/>
<path d="M673.94 377.27L667.32 373.27L660.69 377.27L654.07 373.27L647.44 377.27L640.81 373.27L634.18 377.27L627.56 373.27L620.92 377.27L614.29 373.27L607.65 377.27" stroke="black" stroke-width="3" stroke-miterlimit="10" stroke-linecap="round" stroke-linejoin="round"/>
<path d="M284.18 373.45C298.539 373.45 310.18 361.809 310.18 347.45C310.18 333.091 298.539 321.45 284.18 321.45C269.821 321.45 258.18 333.091 258.18 347.45C258.18 361.809 269.821 373.45 284.18 373.45Z" fill="black"/>
<path d="M223.13 321.43C230.382 321.43 236.26 315.552 236.26 308.3C236.26 301.049 230.382 295.17 223.13 295.17C215.879 295.17 210 301.049 210 308.3C210 315.552 215.879 321.43 223.13 321.43Z" fill="black"/>
<path d="M347.08 308.16C354.332 308.16 360.21 302.282 360.21 295.03C360.21 287.779 354.332 281.9 347.08 281.9C339.829 281.9 333.95 287.779 333.95 295.03C333.95 302.282 339.829 308.16 347.08 308.16Z" fill="black"/>
<path d="M245.03 437.25C252.282 437.25 258.16 431.372 258.16 424.12C258.16 416.869 252.282 410.99 245.03 410.99C237.779 410.99 231.9 416.869 231.9 424.12C231.9 431.372 237.779 437.25 245.03 437.25Z" fill="black"/>
<path d="M341.61 400.04C348.862 400.04 354.74 394.162 354.74 386.91C354.74 379.659 348.862 373.78 341.61 373.78C334.359 373.78 328.48 379.659 328.48 386.91C328.48 394.162 334.359 400.04 341.61 400.04Z" fill="black"/>
<path d="M245.03 424.12L284.18 347.45L223.13 308.3" stroke="black" stroke-width="4" stroke-miterlimit="10" stroke-linecap="round" stroke-linejoin="round"/>
<path d="M347.08 295.03L284.18 347.45L341.61 386.91" stroke="black" stroke-width="4" stroke-miterlimit="10" stroke-linecap="round" stroke-linejoin="round"/>
<path d="M777.05 550.91C763.1 575.04 737 591.27 707.12 591.27C677.23 591.27 651.15 575.04 637.2 550.91C651.13 526.76 677.23 510.53 707.12 510.53C737.02 510.53 763.1 526.76 777.05 550.91Z" stroke="black" stroke-width="3" stroke-miterlimit="10" stroke-linecap="round" stroke-linejoin="round"/>
<path d="M827.35 550.9H809.85" stroke="black" stroke-width="3" stroke-miterlimit="10" stroke-linecap="round" stroke-linejoin="round"/>
<path d="M804.04 510.53L795.29 525.69" stroke="black" stroke-width="3" stroke-miterlimit="10" stroke-linecap="round" stroke-linejoin="round"/>
<path d="M804.04 591.27L795.29 576.11" stroke="black" stroke-width="3" stroke-miterlimit="10" stroke-linecap="round" stroke-linejoin="round"/>
<path d="M405.99 320.92V238.08C405.99 225.99 415.79 216.18 427.89 216.18H685.6C697.69 216.18 707.5 225.98 707.5 238.08V368.65" stroke="black" stroke-width="3" stroke-miterlimit="10" stroke-linecap="round" stroke-linejoin="round"/>
<path d="M537.35 246.18H576.13" stroke="black" stroke-width="3" stroke-miterlimit="10" stroke-linecap="round" stroke-linejoin="round"/>
<path d="M707.5 616.39V796.34C707.5 808.43 697.7 818.24 685.6 818.24H427.89C415.8 818.24 405.99 808.44 405.99 796.34V697.51" stroke="black" stroke-width="3" stroke-miterlimit="10" stroke-linecap="round" stroke-linejoin="round"/>
<path d="M537.35 788.24H576.13" stroke="black" stroke-width="3" stroke-miterlimit="10" stroke-linecap="round" stroke-linejoin="round"/>
<path d="M707.12 449.01V490.83" stroke="black" stroke-width="3" stroke-miterlimit="10" stroke-linecap="round" stroke-linejoin="round"/>
<path d="M707.12 526.53C693.66 526.53 682.75 537.44 682.75 550.9C682.75 564.36 693.66 575.27 707.12 575.27C720.58 575.27 731.49 564.36 731.49 550.9C731.49 537.44 720.58 526.53 707.12 526.53ZM719.06 552.23C715.41 552.23 712.45 549.27 712.45 545.62C712.45 541.97 715.41 539.01 719.06 539.01C722.71 539.01 725.67 541.97 725.67 545.62C725.67 549.27 722.71 552.23 719.06 552.23Z" fill="black"/>
<path d="M766.94 789.73C781.299 789.73 792.94 778.089 792.94 763.73C792.94 749.371 781.299 737.73 766.94 737.73C752.581 737.73 740.94 749.371 740.94 763.73C740.94 778.089 752.581 789.73 766.94 789.73Z" fill="black"/>
<path d="M773.17 706.89C780.422 706.89 786.3 701.012 786.3 693.76C786.3 686.509 780.422 680.63 773.17 680.63C765.919 680.63 760.04 686.509 760.04 693.76C760.04 701.012 765.919 706.89 773.17 706.89Z" fill="black"/>
<path d="M834.71 760.7C841.961 760.7 847.84 754.822 847.84 747.57C847.84 740.319 841.961 734.44 834.71 734.44C827.458 734.44 821.58 740.319 821.58 747.57C821.58 754.822 827.458 760.7 834.71 760.7Z" fill="black"/>
<path d="M773.17 693.76L766.94 763.73L834.71 747.57" stroke="black" stroke-width="4" stroke-miterlimit="10" stroke-linecap="round" stroke-linejoin="round"/>
<path d="M399.45 418.17C390.87 426.17 391.67 440.49 400.21 448.23C412.58 459.44 435.66 451.2 438.67 434.84C438.77 434.31 438.84 433.78 438.89 433.24C439.7 424.33 433.92 416.03 435.21 407.17C435.62 404.35 437.42 401.96 439.11 399.67C442.89 394.55 448.16 387.35 446.93 380.58C446.26 376.9 443.64 373.9 440.9 371.36C437.31 368.04 428.45 361.23 433.95 355.67C434.78 354.83 435.95 354.22 437.1 353.95C438.05 353.73 439.1 353.8 439.93 354.29C442.68 355.93 443.39 359.22 447.17 359.33C449.11 359.39 451.04 358.46 452.22 356.92C454.01 354.57 453.88 351.26 453.14 348.4C452.73 346.81 452.16 345.16 452.56 343.57C453.19 341.09 456.02 339.73 458.58 339.77C461.14 339.81 463.56 340.87 466.01 341.63C472.82 343.73 480.57 343.34 486.67 339.64C489.89 337.69 492.73 334.52 492.9 330.76C493.05 327.55 491.25 324.56 489.06 322.21C483.41 316.15 475.09 313.2 466.86 312.24C458.76 311.3 450.4 312.13 442.82 315.13C435.24 318.13 428.47 323.34 424.07 330.2C420.36 335.98 418.46 342.77 418.1 349.6C417.73 356.57 419.39 363.12 420.59 369.9C421.56 375.41 419.38 381.63 415.46 385.55C412.49 388.52 408.92 390.85 405.87 393.74C402.67 396.78 400.06 400.69 399.82 405.21C399.65 408.39 401.1 410.11 402.15 412.86C403 415.09 401.07 416.69 399.6 418.03C399.54 418.08 399.5 418.12 399.45 418.17Z" fill="black"/>
<path d="M487.64 339C489.63 347.97 489.74 355.48 489.46 360.61C489.11 367.25 488.3 379.51 480.45 390.93C476.06 397.31 472.46 399.09 471.43 399.57C463.03 403.43 454.2 399.45 452.05 398.42" stroke="black" stroke-width="3" stroke-miterlimit="10" stroke-linecap="round" stroke-linejoin="round"/>
<path d="M462.71 401.2C463.43 405.86 463.47 412.89 459.26 419.42C458.3 420.92 454.91 426 448.1 428.73C444.74 430.07 441.56 430.44 438.92 430.38" stroke="black" stroke-width="3" stroke-miterlimit="10" stroke-linecap="round" stroke-linejoin="round"/>
<path d="M380.33 535.28C376.67 519.48 373.67 501.84 372.04 482.62C370.45 464.13 368.56 448.15 371.21 431.37C371.83 427.45 373.96 423.69 378.18 421.32C381.33 419.55 384.74 417.74 388.37 415.96C392.72 413.82 396.94 411.93 400.97 410.26" stroke="black" stroke-width="3" stroke-miterlimit="10" stroke-linecap="round" stroke-linejoin="round"/>
<path d="M462.84 402.12C468.19 403.97 472.17 405.08 478.5 407.36C486.76 410.35 489.76 411.55 493.85 414.68C501.54 420.57 504.38 428.9 506.29 434.75C515.87 464.05 523.92 494.03 525.72 500.83C529.45 505.68 533.42 510.63 537.63 515.65C542.29 521.22 546.93 526.48 551.47 531.44" stroke="black" stroke-width="3" stroke-miterlimit="10" stroke-linecap="round" stroke-linejoin="round"/>
<path d="M399.46 603.71C388.67 596.08 376.08 587.4 366.83 577.9C358.94 569.8 350.07 558.36 353.04 546.31C354.57 540.13 359.65 535.81 365.76 534.45C377.69 531.8 391.49 539.5 402.19 544.01C423.3 552.92 444.72 561.06 466.5 568.15" stroke="black" stroke-width="3" stroke-miterlimit="10" stroke-linecap="round" stroke-linejoin="round"/>
<path d="M372.29 628.02C365.78 623.14 364.27 612.65 370.2 606.68C373.46 603.4 378.98 602.59 383.4 602.37C388.87 602.11 394.6 603.82 400.06 603.5C405.64 603.16 410.74 600.64 416.31 600.24C419.18 600.03 422.17 600.23 424.71 601.57C426.78 602.66 428.4 604.42 429.77 606.32C430.57 607.43 432.45 610.22 431.19 611.55C430.69 612.08 429.85 613.07 429.14 612.95C425.66 612.37 422.23 611.73 418.61 611C415.17 610.3 411.7 609.77 408.18 609.54C403.56 609.24 397.54 609.41 394.91 613.88C392.03 618.77 395.06 624.3 399.51 626.93" fill="black"/>
<path d="M417.66 550.37L466.5 557.93L469.07 546.04C448.6 535.53 428.13 525.01 407.66 514.5C407.1 502.16 406.54 489.83 405.98 477.49" stroke="black" stroke-width="3" stroke-miterlimit="10" stroke-linecap="round" stroke-linejoin="round"/>
<path d="M469.08 546.04L486.52 549.21L502.08 560.32" stroke="black" stroke-width="3" stroke-miterlimit="10" stroke-linecap="round" stroke-linejoin="round"/>
<path d="M466.5 557.93L484.25 561.77L493.15 572.59" stroke="black" stroke-width="3" stroke-miterlimit="10" stroke-linecap="round" stroke-linejoin="round"/>
<path d="M484.46 562.66L442.03 576.42L490.84 588.84L522.28 539.79L606.08 517.71L584.79 553.43" stroke="black" stroke-width="3" stroke-miterlimit="10" stroke-linecap="round" stroke-linejoin="round"/>
<path d="M431.57 609.84L492.1 589.16L571.81 569.74" stroke="black" stroke-width="3" stroke-miterlimit="10" stroke-linecap="round" stroke-linejoin="round"/>
<path d="M502.08 549.8L491.74 516.67V471.56L500.49 516.67L528.68 538.1" stroke="black" stroke-width="3" stroke-miterlimit="10" stroke-linecap="round" stroke-linejoin="round"/>
<path d="M572.45 623.86C573.64 622.76 585.27 611.68 582.7 597.82C581.65 592.15 578.62 588.24 577.44 586.74C570.26 577.67 560.85 575.7 549.96 575.06" stroke="black" stroke-width="3" stroke-miterlimit="10" stroke-linecap="round" stroke-linejoin="round"/>
<path d="M579.66 573.23C585.509 573.23 590.25 568.489 590.25 562.64C590.25 556.791 585.509 552.05 579.66 552.05C573.811 552.05 569.07 556.791 569.07 562.64C569.07 568.489 573.811 573.23 579.66 573.23Z" stroke="black" stroke-width="3" stroke-miterlimit="10" stroke-linecap="round" stroke-linejoin="round"/>
<path d="M442.03 576.42V583.8L481.13 592.91" stroke="black" stroke-width="3" stroke-miterlimit="10" stroke-linecap="round" stroke-linejoin="round"/>
<path d="M565.38 577.86L571.59 576.21L573.96 571.57" stroke="black" stroke-width="3" stroke-miterlimit="10" stroke-linecap="round" stroke-linejoin="round"/>
<path d="M463.19 401.48C461.61 401.53 459.4 401.45 456.87 400.89C454.08 400.28 451.95 399.31 450.55 398.54C450.81 400.8 451.49 403.99 453.29 407.53C455.48 411.83 458.41 414.81 460.45 416.59C461.38 415.03 462.46 412.81 463.07 410.05C463.87 406.48 463.57 403.45 463.19 401.48Z" fill="black"/>
<path d="M299 641.52H229.41V657.41H299V641.52Z" stroke="black" stroke-width="3" stroke-miterlimit="10" stroke-linecap="round" stroke-linejoin="round"/>
<path d="M294.14 657.42L299.21 731.95L300.39 749.21L305.09 818.24H223.31L228.01 749.21L229.19 731.95L234.26 657.42" stroke="black" stroke-width="3" stroke-miterlimit="10" stroke-linecap="round" stroke-linejoin="round"/>
<path d="M243.17 636.78C237.52 633.12 232.59 628.23 230.79 621.66C228.49 613.27 233.31 609.42 230.87 599.93C228.76 591.75 222.97 586.05 219.82 582.95C213.25 576.48 209.85 576.93 206.22 571.08C203.52 566.73 200.72 558.95 203.97 555.19C208.08 550.42 219.6 554.75 220.54 555.12C235.33 560.85 247.74 579.56 246.81 597.34C246.36 605.91 243.07 609.35 244.88 617.73C246.66 625.96 251.84 631.93 256.1 635.77" stroke="black" stroke-width="3" stroke-miterlimit="10" stroke-linecap="round" stroke-linejoin="round"/>
<path d="M256.63 610.27C258.65 604.1 259.5 597.51 259.36 591.02C259.16 581.93 256.56 573.4 253.19 565.03C250.11 557.38 243.92 549.83 244.56 541.18C245.14 533.4 250.66 526.79 252.26 519.19C253.9 511.37 252.96 503.14 250.63 495.56C249.51 491.89 248.06 488.3 247.4 484.52C246.73 480.74 246.91 476.65 248.87 473.34C252.61 467.02 262.14 465.87 268.24 469.95C274.35 474.02 277.1 481.89 276.67 489.22C276.24 496.55 273.08 503.43 269.45 509.81C265.58 516.6 260.92 523.9 262.33 531.58C263.05 535.49 265.28 538.93 267.1 542.47C271.25 550.59 273.28 559.79 272.95 568.91C272.58 578.87 269.47 588.5 267.33 598.23C264.43 611.37 265.78 622.96 269.03 635.84" stroke="black" stroke-width="3" stroke-miterlimit="10" stroke-linecap="round" stroke-linejoin="round"/>
<path d="M277.98 631.95C271.72 622.18 276.2 610.44 282.09 601.65C286.95 594.4 293.03 587.9 296.69 579.98C302.36 567.74 301.67 553.48 305.96 540.68C307.76 535.33 310.61 530.06 315.31 526.93C320.01 523.81 326.87 523.46 331.01 527.3C336.22 532.16 335.41 541.25 333.06 547.3C329.23 557.18 323.52 566.27 316.88 574.53C310.61 582.33 303.5 589.42 297.25 597.23C288.91 607.67 278.61 620.35 285.92 636.77" stroke="black" stroke-width="3" stroke-miterlimit="10" stroke-linecap="round" stroke-linejoin="round"/>
<path d="M177 499.34C195.4 492.05 212.71 495.81 218.66 505.67C221.84 510.94 222.83 519.69 218.99 526.33C218.36 527.42 214.47 534.17 208.33 533.99C205.54 533.91 201.43 532.38 200.33 528.66C199.31 525.2 201.41 521.6 204 520C207.61 517.76 211.97 519.52 214 520.33C224.53 524.58 227.73 538.19 228.33 540.99" stroke="black" stroke-width="3" stroke-miterlimit="10" stroke-linecap="round" stroke-linejoin="round"/>
<path d="M284.94 544.7C284.62 540.01 284.63 530.37 289.96 520.25C299.4 502.31 317.86 497.5 321 496.74" stroke="black" stroke-width="3" stroke-miterlimit="10" stroke-linecap="round" stroke-linejoin="round"/>
<path d="M300.39 749.21H228.01L229.19 729.37H299.21L300.39 749.21Z" fill="black"/>
<path d="M245.36 720.68C248.392 720.68 250.85 718.222 250.85 715.19C250.85 712.158 248.392 709.7 245.36 709.7C242.328 709.7 239.87 712.158 239.87 715.19C239.87 718.222 242.328 720.68 245.36 720.68Z" fill="black"/>
<path d="M264.2 720.68C267.232 720.68 269.69 718.222 269.69 715.19C269.69 712.158 267.232 709.7 264.2 709.7C261.168 709.7 258.71 712.158 258.71 715.19C258.71 718.222 261.168 720.68 264.2 720.68Z" fill="black"/>
<path d="M283.05 720.68C286.082 720.68 288.54 718.222 288.54 715.19C288.54 712.158 286.082 709.7 283.05 709.7C280.018 709.7 277.56 712.158 277.56 715.19C277.56 718.222 280.018 720.68 283.05 720.68Z" fill="black"/>
<path d="M245.36 804.59C248.392 804.59 250.85 802.132 250.85 799.1C250.85 796.068 248.392 793.61 245.36 793.61C242.328 793.61 239.87 796.068 239.87 799.1C239.87 802.132 242.328 804.59 245.36 804.59Z" fill="black"/>
<path d="M264.2 804.59C267.232 804.59 269.69 802.132 269.69 799.1C269.69 796.068 267.232 793.61 264.2 793.61C261.168 793.61 258.71 796.068 258.71 799.1C258.71 802.132 261.168 804.59 264.2 804.59Z" fill="black"/>
<path d="M283.05 804.59C286.082 804.59 288.54 802.132 288.54 799.1C288.54 796.068 286.082 793.61 283.05 793.61C280.018 793.61 277.56 796.068 277.56 799.1C277.56 802.132 280.018 804.59 283.05 804.59Z" fill="black"/>
<path d="M301.65 778.73L294.16 774.73L286.67 778.73L279.19 774.73L271.7 778.73L264.21 774.73L256.73 778.73L249.23 774.73L241.75 778.73L234.25 774.73L226.76 778.73" stroke="black" stroke-width="3" stroke-miterlimit="10" stroke-linecap="round" stroke-linejoin="round"/>
<path d="M295.65 689.76L289.36 685.76L283.08 689.76L276.79 685.76L270.5 689.76L264.22 685.76L257.93 689.76L251.64 685.76L245.35 689.76L239.05 685.76L232.76 689.76" stroke="black" stroke-width="3" stroke-miterlimit="10" stroke-linecap="round" stroke-linejoin="round"/>
</svg>
