<svg width="1024" height="1024" viewBox="0 0 1024 1024" fill="none" xmlns="http://www.w3.org/2000/svg">
<path opacity="0.04" d="M535.706 771.18C705.859 771.18 843.796 633.243 843.796 463.09C843.796 292.936 705.859 155 535.706 155C365.553 155 227.616 292.936 227.616 463.09C227.616 633.243 365.553 771.18 535.706 771.18Z" fill="black"/>
<path d="M702.262 200.108L683.129 216L663.997 200.108C657.028 194.325 653 185.731 653 176.678V151.135L683.139 133L713.278 151.135V176.678C713.259 185.741 709.231 194.325 702.262 200.108Z" stroke="black" stroke-width="3" stroke-miterlimit="10" stroke-linecap="round" stroke-linejoin="round"/>
<path d="M667.297 172.462L676.988 182.152L699.5 159.65" stroke="black" stroke-width="3" stroke-miterlimit="10" stroke-linecap="round" stroke-linejoin="round"/>
<path d="M742.916 273H648.552V325.205H742.916V273Z" stroke="black" stroke-width="3" stroke-miterlimit="10" stroke-linecap="round" stroke-linejoin="round"/>
<path d="M724.365 291.552H630V343.758H724.365V291.552Z" fill="black"/>
<path d="M682.4 306.968C675.861 302.367 671.492 307.636 671.631 310.502C671.714 312.154 674.126 313.684 677.669 315.92C680.87 317.942 682.372 318.266 682.873 319.88C683.411 321.587 682.474 323.619 681.204 324.676C679.079 326.448 674.274 326.16 671.315 323.424" stroke="white" stroke-width="4" stroke-miterlimit="10"/>
<path d="M677.178 299.103V305.16" stroke="white" stroke-width="4" stroke-miterlimit="10"/>
<path d="M677.178 325.772V331.829" stroke="white" stroke-width="4" stroke-miterlimit="10"/>
<path d="M496.537 248.861C508.432 248.861 518.074 239.218 518.074 227.324C518.074 215.429 508.432 205.786 496.537 205.786C484.643 205.786 475 215.429 475 227.324C475 239.218 484.643 248.861 496.537 248.861Z" fill="black"/>
<path d="M501.427 219.369C495.304 215.061 491.214 219.994 491.344 222.677C491.422 224.223 493.68 225.656 496.998 227.749C499.994 229.642 501.401 229.946 501.869 231.457C502.373 233.055 501.496 234.957 500.306 235.947C498.318 237.606 493.819 237.336 491.049 234.775" stroke="white" stroke-width="4" stroke-miterlimit="10"/>
<path d="M496.537 212.004V217.675" stroke="white" stroke-width="4" stroke-miterlimit="10"/>
<path d="M496.537 236.972V242.643" stroke="white" stroke-width="4" stroke-miterlimit="10"/>
<path d="M499.577 182.773V195.313" stroke="black" stroke-width="3" stroke-miterlimit="10" stroke-linecap="round" stroke-linejoin="round"/>
<path d="M529.32 182.773V214.297" stroke="black" stroke-width="3" stroke-miterlimit="10" stroke-linecap="round" stroke-linejoin="round"/>
<path d="M559.056 182.773V214.297" stroke="black" stroke-width="3" stroke-miterlimit="10" stroke-linecap="round" stroke-linejoin="round"/>
<path d="M573.116 223.346H524.735V236.772H573.116V223.346Z" fill="black"/>
<path d="M529.32 142L484.631 171.292H574.01L529.32 142Z" stroke="black" stroke-width="3" stroke-miterlimit="10" stroke-linecap="round" stroke-linejoin="round"/>
<path d="M691.666 862.76C693.786 857.04 693.366 850.21 692.436 844.33C690.216 830.41 689.636 816.18 691.426 802.17C692.326 795.14 693.696 787.98 695.976 781.25C698.186 774.75 700.726 768.34 702.016 761.57C702.286 760.17 702.496 758.76 702.646 757.34C703.956 744.8 697.266 732.76 705.376 721.68C711.316 713.56 719.656 710.84 722.696 710C723.016 714.02 723.346 718.04 723.666 722.07C724.416 722.11 727.016 722.33 729.116 724.41C730.256 725.54 730.806 726.77 731.066 727.52C731.906 726.77 738.056 724.93 740.426 724.78C742.876 724.62 744.956 724.86 746.046 725.41C746.366 727.02 744.976 732.7 744.586 733.9C743.696 736.63 740.386 742.94 739.056 744.19C737.776 748.53 737.136 753.14 739.036 760.21C740.646 766.2 743.546 769.19 747.796 775.2C755.646 786.32 761.196 798.97 764.056 812.28C765.556 819.25 766.326 826.38 766.446 833.51C766.536 839.32 764.756 847.71 767.656 853.06C768.166 854 769.486 856.43 771.546 856.76C775.106 857.32 778.666 851.29 779.916 849.17C781.996 845.64 784.636 839.78 785.556 826.4C786.126 818.16 785.266 818.32 785.746 807.33C786.046 800.59 786.296 795.39 787.696 788.64C790.286 776.1 795.946 764.12 809.946 761.57C810.906 766.74 806.486 771.12 803.446 775.42C793.886 788.97 797.006 807.24 796.636 823.83C796.286 839.77 790.996 867.7 773.726 874.44C769.546 876.07 764.806 876.97 760.316 876.94C736.176 876.79 712.166 875.84 688.026 875.9C687.356 875.9 686.656 875.9 686.036 875.62C684.566 874.95 684.176 872.92 684.806 871.43C685.436 869.94 686.756 868.89 688.046 867.92C689.716 866.64 690.876 864.87 691.666 862.76Z" stroke="black" stroke-width="3" stroke-miterlimit="10" stroke-linecap="round" stroke-linejoin="round"/>
<path d="M741.667 805.08C738.487 806.46 728.817 811.15 723.057 822.18C714.687 838.21 721.627 854.1 722.557 856.13C715.687 859.23 708.807 862.33 701.937 865.44" stroke="black" stroke-width="3" stroke-miterlimit="10" stroke-linecap="round" stroke-linejoin="round"/>
<path d="M707.066 798.99L705.676 840.03" stroke="black" stroke-width="3" stroke-miterlimit="10" stroke-linecap="round" stroke-linejoin="round"/>
<path d="M712.826 739.38L689.876 727.35" stroke="black" stroke-width="3" stroke-miterlimit="10" stroke-linecap="round" stroke-linejoin="round"/>
<path d="M712.826 745.98H682.616" stroke="black" stroke-width="3" stroke-miterlimit="10" stroke-linecap="round" stroke-linejoin="round"/>
<path d="M726.847 741.65H756.497" stroke="black" stroke-width="3" stroke-miterlimit="10" stroke-linecap="round" stroke-linejoin="round"/>
<path d="M726.386 748.34L756.946 759.41" stroke="black" stroke-width="3" stroke-miterlimit="10" stroke-linecap="round" stroke-linejoin="round"/>
<path d="M737.386 866.49C739.436 865.81 745.036 863.67 749.286 857.9C754.246 851.17 754.036 844.03 753.916 842.03" stroke="black" stroke-width="3" stroke-miterlimit="10" stroke-linecap="round" stroke-linejoin="round"/>
<path d="M317 877L365.087 610H383L336.471 877H317Z" fill="black"/>
<path d="M515.616 877L487.116 697.5L474.616 730.5L496.145 877H515.616Z" fill="black"/>
<path d="M333.616 604.51L461.616 604L450.349 627.469L333.616 629V604.51Z" fill="black"/>
<path d="M613.784 855.74C619.586 855.891 630.329 854.128 626.881 845.858C623.433 837.588 616.713 849 613.784 855.74ZM613.784 855.74C615.248 851.072 616.522 841.491 609.906 840.512C603.29 839.533 609.734 850.256 613.784 855.74Z" stroke="black" stroke-width="3" stroke-linecap="round" stroke-linejoin="round"/>
<path d="M472.55 861.935C477.758 862.792 487.655 862.537 485.575 854.659C483.496 846.781 476.026 856.227 472.55 861.935ZM472.55 861.935C474.449 857.912 476.787 849.44 470.948 847.736C465.11 846.032 469.584 856.492 472.55 861.935Z" stroke="black" stroke-width="3" stroke-linecap="round" stroke-linejoin="round"/>
<path d="M409.102 328.936C399.879 329.706 389.626 323.345 386.513 320.863C386.513 320.863 389.234 329.469 395.701 334.147C402.169 338.825 409.102 339.002 409.102 339.002L409.102 328.936Z" fill="black"/>
<path d="M379.484 344.488H343.229C336.709 344.649 323.96 350.027 325.121 370.256C325.981 385.249 328.283 423.964 330.128 454.881C331.074 470.725 344.199 483.08 360.071 483.08H443.955C438.989 476.937 432.035 462.142 443.955 452.104L387.654 450.392C382.9 450.247 378.906 446.775 378.102 442.088L367.103 377.997" stroke="black" stroke-width="3" stroke-linecap="round" stroke-linejoin="round"/>
<path d="M379.348 344.04C380.83 348.706 387.003 363.446 401.657 362.922C416.31 362.399 420.788 349.765 420.788 346.058H440.673C443.766 345.775 451.302 348.751 456.7 362.922C462.099 377.094 474.321 408.942 479.757 423.095" stroke="black" stroke-width="3" stroke-linecap="round" stroke-linejoin="round"/>
<path d="M471.773 459.289L482.562 409.218C484.717 412.03 493.921 416.81 513.491 413.436V454.543" stroke="black" stroke-width="3" stroke-linecap="round" stroke-linejoin="round"/>
<path d="M487.165 412.553L491.136 388.726L483.402 353.612C484.726 351.87 488.126 349.432 491.136 353.612C494.146 357.792 495.455 362.321 495.734 364.062L507.021 338.354C508.066 335.149 512.455 329.701 521.651 333.547C530.848 337.393 530.36 350.477 528.967 356.538L510.365 390.607V414.016" stroke="black" stroke-width="3" stroke-linecap="round" stroke-linejoin="round"/>
<path d="M500.629 361.514C503.207 364.343 507.835 371.474 505.722 377.36" stroke="black" stroke-width="3" stroke-linecap="round" stroke-linejoin="round"/>
<path d="M506.043 354.079C508.738 353.993 515.256 355.31 519.773 361.264" stroke="black" stroke-width="3" stroke-linecap="round" stroke-linejoin="round"/>
<path d="M511.561 354.848L517.977 339.835" stroke="black" stroke-width="3" stroke-linecap="round" stroke-linejoin="round"/>
<path d="M516.052 357.287L521.826 349.203" stroke="black" stroke-width="3" stroke-linecap="round" stroke-linejoin="round"/>
<path d="M437.618 383.441L446.088 401.816C450.67 411.754 443.41 423.095 432.466 423.095H431.49" stroke="black" stroke-width="3" stroke-linecap="round" stroke-linejoin="round"/>
<path d="M439.479 459.929H471.256L491.116 452.912C498.363 450.473 514.948 449.818 523.311 466.709C531.673 483.601 532.37 485.594 531.673 484.479" stroke="black" stroke-width="3" stroke-linecap="round" stroke-linejoin="round"/>
<path d="M468.492 483.434C473.047 484.539 491.185 474.375 494.252 471.936C497.248 473.26 503.91 477.413 506.586 483.434" stroke="black" stroke-width="3" stroke-linecap="round" stroke-linejoin="round"/>
<path d="M504.859 470.416C507.189 471.869 512.345 476.082 514.329 481.313" stroke="black" stroke-width="3" stroke-linecap="round" stroke-linejoin="round"/>
<path d="M513.491 470.416C515.821 471.869 520.977 476.082 522.961 481.313" stroke="black" stroke-width="3" stroke-linecap="round" stroke-linejoin="round"/>
<path d="M262.658 483.434H836.495" stroke="black" stroke-width="3" stroke-linecap="round" stroke-linejoin="round"/>
<path d="M766.577 483.1H743.426C739.667 483.1 736.616 480.049 736.616 476.29V442.38H773.387V476.284C773.387 480.049 770.336 483.1 766.577 483.1Z" fill="black"/>
<path d="M776.533 466.56H773.387V450.735H776.533C780.904 450.735 784.445 454.276 784.445 458.647C784.445 463.019 780.904 466.56 776.533 466.56Z" stroke="black" stroke-width="3" stroke-miterlimit="10"/>
<path d="M744.787 466.56L756.704 454.644" stroke="white" stroke-width="3" stroke-miterlimit="10"/>
<path d="M750.746 473.663L762.663 461.746" stroke="white" stroke-width="3" stroke-miterlimit="10"/>
<path d="M749.186 410.853C746.435 413.692 744.896 417.648 747.994 420.815C749.138 421.986 750.528 422.953 751.413 424.335C753.796 428.06 751.147 432.132 748.723 435.026" stroke="black" stroke-width="3" stroke-miterlimit="10"/>
<path d="M757.194 423.232C761.008 425.867 761.368 428.713 761.375 430.096C761.389 432.785 759.898 434.828 757.194 437.961" stroke="black" stroke-width="3" stroke-miterlimit="10"/>
<path d="M688.344 482.55H558.004C551.384 482.55 546.594 476.24 548.374 469.86L572.784 382.31C573.994 377.99 577.924 375 582.414 375H712.754C719.374 375 724.164 381.31 722.384 387.69L697.964 475.24C696.774 479.56 692.834 482.55 688.344 482.55Z" stroke="black" stroke-width="3" stroke-miterlimit="10"/>
<path d="M635.385 443.11C643.305 443.11 649.725 436.69 649.725 428.77C649.725 420.85 643.305 414.43 635.385 414.43C627.465 414.43 621.045 420.85 621.045 428.77C621.045 436.69 627.465 443.11 635.385 443.11Z" fill="black"/>
<path d="M262.658 500.971L836.495 500.971" stroke="black" stroke-width="3" stroke-linecap="round" stroke-linejoin="round"/>
<path d="M342.265 501.02L332.138 538.873C323.232 572.162 348.581 604.75 383.038 604.308L462.126 603.294L368.911 767.907L450.209 795.08L526.685 590.865C531.459 578.118 524.178 564.036 511.017 560.561L387.675 527.999" stroke="black" stroke-width="3" stroke-linecap="round" stroke-linejoin="round"/>
<path d="M448.906 501.537L443.494 525.589L532.328 541.159C545.995 543.555 556.237 555.011 557.091 568.861L570.075 779.203L491.316 773.416L503.97 651.962" stroke="black" stroke-width="3" stroke-linecap="round" stroke-linejoin="round"/>
<path d="M393 851.559L406.211 822L425.697 842.661C441.285 859.19 461.688 859.597 469.5 859.5L485.394 867.274C488.825 868.952 491 872.438 491 876.257V877H447.816L393 851.559Z" fill="black"/>
<path d="M418 784.5L406 826.5" stroke="black" stroke-width="3" stroke-linecap="round" stroke-linejoin="round"/>
<path d="M450.388 794.697L438.904 826.336L468.55 859.518" stroke="black" stroke-width="3" stroke-linecap="round" stroke-linejoin="round"/>
<path d="M535.341 776.788L545.269 856.659C564.404 859.475 602.977 865.947 612.5 857.5L577.946 841.775L569.749 776.926" stroke="black" stroke-width="3" stroke-linecap="round" stroke-linejoin="round"/>
<path d="M544.5 877L543.007 849C547.624 849.571 563.675 858.976 583.385 858.976C594.378 858.976 604.532 858.016 607.374 855.118L646.887 868.48C650.54 869.715 653 873.143 653 877H544.5Z" fill="black"/>
<path d="M379.364 310.347L379.364 344.501M387.278 320.212C390.277 323.704 398.74 330.343 408.6 328.963C420.925 327.238 426.719 311.015 426.719 305.307C426.719 300.74 425.913 286.674 425.913 282.271M409.406 328.828V350.134" stroke="black" stroke-width="3" stroke-linecap="round" stroke-linejoin="round"/>
<path d="M380.893 309.001V315.907C368.932 303.332 365.863 295.56 367.387 281.074C368.607 269.485 374.976 263.623 379.509 262.141C358.542 256.295 360.017 286.03 362.559 294.162C364.592 300.668 360.864 307.123 358.747 309.537C353.791 313.646 343.244 315.535 340.703 290.223C337.526 258.583 358.747 247.273 371.454 248.036C379.03 248.49 387.747 251.227 389.497 254.87C397.111 248.078 410.653 250.966 414.592 257.234C423.105 256.853 431.952 271.358 431.47 277.198C431.207 280.387 428.381 283.869 423.171 283.869C419.003 283.869 416.436 279.803 415.674 277.77C410.972 282.472 404.11 283.996 395.47 283.869C388.557 283.768 384.487 293.186 383.316 297.908C382.417 296.452 379.453 296.249 378.194 296.616C377.14 296.924 374.8 298.417 374.8 301.664C374.8 305.069 378.741 308.211 380.893 309.001Z" fill="black"/>
<path d="M409.397 346.048L421.343 346.048" stroke="black" stroke-width="2" stroke-linecap="round" stroke-linejoin="round"/>
<path d="M262.658 483.434V500.774" stroke="black" stroke-width="3" stroke-linecap="round" stroke-linejoin="round"/>
<path d="M836.495 483.434V500.774" stroke="black" stroke-width="3" stroke-linecap="round" stroke-linejoin="round"/>
<path d="M228 877.183L291.038 501.537H308.938L247.456 877.183H228Z" stroke="black" stroke-width="3"/>
<path d="M863.58 877.183L800.542 501.537H782.642L844.124 877.183H863.58Z" stroke="black" stroke-width="3"/>
<path d="M74 877L950 877" stroke="black" stroke-width="3.10138"/>
<path d="M202.507 861.55C203.872 860.592 205.164 859.503 206.34 858.327C211.597 853.07 214.849 845.81 214.849 837.795C214.849 829.736 211.568 822.446 206.253 817.175C204.786 815.709 204.844 813.357 206.311 811.89C206.326 811.875 206.326 811.875 206.34 811.861C211.597 806.604 214.849 799.344 214.849 791.329C214.849 783.27 211.568 775.981 206.253 770.71C204.786 769.243 204.844 766.891 206.311 765.424C206.326 765.41 206.326 765.41 206.34 765.395C211.669 760.066 214.936 752.69 214.849 744.544C214.747 734.96 209.854 726.596 202.507 721.398V704.206H163.301V721.107C161.936 722.066 160.644 723.155 159.468 724.331C154.211 729.587 150.959 736.848 150.959 744.863C150.959 752.922 154.24 760.211 159.555 765.482C161.021 766.949 160.963 769.301 159.497 770.768C159.482 770.782 159.482 770.782 159.468 770.797C154.211 776.053 150.959 783.314 150.959 791.329C150.959 799.388 154.24 806.677 159.555 811.948C161.021 813.415 160.963 815.767 159.497 817.234C159.482 817.248 159.482 817.248 159.468 817.263C154.139 822.592 150.872 829.968 150.959 838.114C151.06 847.698 155.954 856.061 163.301 861.26" stroke="black" stroke-width="3" stroke-miterlimit="10"/>
<path d="M202.507 861.55V877H163.302V861.26C168.253 864.774 174.323 866.836 180.799 866.836H185.809C192.023 866.836 197.788 864.876 202.507 861.55Z" fill="black" stroke="black" stroke-width="3" stroke-miterlimit="10"/>
<path d="M193.068 703.712L242.438 598.206" stroke="black" stroke-width="3" stroke-miterlimit="10"/>
<path d="M174.554 704.931L133.055 610.548" stroke="black" stroke-width="3" stroke-miterlimit="10"/>
<path d="M223.561 638.544L192.705 574.581" stroke="black" stroke-width="3" stroke-miterlimit="10"/>
<path d="M108.979 650.959L156.679 664.274" stroke="black" stroke-width="3" stroke-miterlimit="10"/>
<path d="M211.616 664L254.616 655" stroke="black" stroke-width="3" stroke-miterlimit="10"/>
<path d="M273.603 657.973C278.013 657.973 281.589 654.397 281.589 649.986C281.589 645.576 278.013 642 273.603 642C269.192 642 265.616 645.576 265.616 649.986C265.616 654.397 269.192 657.973 273.603 657.973Z" fill="black"/>
<path d="M205.411 643.219C209.822 643.219 213.397 639.644 213.397 635.233C213.397 630.822 209.822 627.247 205.411 627.247C201 627.247 197.425 630.822 197.425 635.233C197.425 639.644 201 643.219 205.411 643.219Z" fill="black"/>
<path d="M196.698 670.808C201.109 670.808 204.685 667.233 204.685 662.822C204.685 658.411 201.109 654.836 196.698 654.836C192.288 654.836 188.712 658.411 188.712 662.822C188.712 667.233 192.288 670.808 196.698 670.808Z" fill="black"/>
<path d="M167.657 653.383C172.068 653.383 175.644 649.808 175.644 645.397C175.644 640.986 172.068 637.411 167.657 637.411C163.246 637.411 159.671 640.986 159.671 645.397C159.671 649.808 163.246 653.383 167.657 653.383Z" fill="black"/>
<path d="M218.479 696.945C222.89 696.945 226.466 693.37 226.466 688.959C226.466 684.548 222.89 680.973 218.479 680.973C214.069 680.973 210.493 684.548 210.493 688.959C210.493 693.37 214.069 696.945 218.479 696.945Z" fill="black"/>
<path d="M205.411 574.973C209.822 574.973 213.397 571.397 213.397 566.986C213.397 562.576 209.822 559 205.411 559C201 559 197.425 562.576 197.425 566.986C197.425 571.397 201 574.973 205.411 574.973Z" fill="black"/>
<path d="M254.78 618.534C259.191 618.534 262.767 614.959 262.767 610.548C262.767 606.137 259.191 602.562 254.78 602.562C250.37 602.562 246.794 606.137 246.794 610.548C246.794 614.959 250.37 618.534 254.78 618.534Z" fill="black"/>
<path d="M246.068 650.479C250.479 650.479 254.055 646.904 254.055 642.493C254.055 638.082 250.479 634.507 246.068 634.507C241.658 634.507 238.082 638.082 238.082 642.493C238.082 646.904 241.658 650.479 246.068 650.479Z" fill="black"/>
<path d="M257.685 676.616C262.095 676.616 265.671 673.041 265.671 668.63C265.671 664.219 262.095 660.644 257.685 660.644C253.274 660.644 249.698 664.219 249.698 668.63C249.698 673.041 253.274 676.616 257.685 676.616Z" fill="black"/>
<path d="M93.6025 660.644C98.0132 660.644 101.589 657.068 101.589 652.657C101.589 648.247 98.0132 644.671 93.6025 644.671C89.1918 644.671 85.6162 648.247 85.6162 652.657C85.6162 657.068 89.1918 660.644 93.6025 660.644Z" fill="black"/>
<path d="M138.616 682.425C143.027 682.425 146.602 678.849 146.602 674.438C146.602 670.028 143.027 666.452 138.616 666.452C134.205 666.452 130.63 670.028 130.63 674.438C130.63 678.849 134.205 682.425 138.616 682.425Z" fill="black"/>
<path d="M138.616 601.11C143.027 601.11 146.602 597.534 146.602 593.123C146.602 588.713 143.027 585.137 138.616 585.137C134.205 585.137 130.63 588.713 130.63 593.123C130.63 597.534 134.205 601.11 138.616 601.11Z" fill="black"/>
<path d="M156.041 624.342C160.452 624.342 164.027 620.767 164.027 616.356C164.027 611.945 160.452 608.37 156.041 608.37C151.63 608.37 148.055 611.945 148.055 616.356C148.055 620.767 151.63 624.342 156.041 624.342Z" fill="black"/>
<path d="M119.739 615.63C124.15 615.63 127.726 612.054 127.726 607.644C127.726 603.233 124.15 599.657 119.739 599.657C115.329 599.657 111.753 603.233 111.753 607.644C111.753 612.054 115.329 615.63 119.739 615.63Z" fill="black"/>
<path d="M115.384 682.425C119.794 682.425 123.37 678.849 123.37 674.438C123.37 670.028 119.794 666.452 115.384 666.452C110.973 666.452 107.397 670.028 107.397 674.438C107.397 678.849 110.973 682.425 115.384 682.425Z" fill="black"/>
<path d="M115.384 646.123C119.794 646.123 123.37 642.548 123.37 638.137C123.37 633.726 119.794 630.151 115.384 630.151C110.973 630.151 107.397 633.726 107.397 638.137C107.397 642.548 110.973 646.123 115.384 646.123Z" fill="black"/>
<path d="M227.191 611.274C231.602 611.274 235.178 607.698 235.178 603.288C235.178 598.877 231.602 595.301 227.191 595.301C222.781 595.301 219.205 598.877 219.205 603.288C219.205 607.698 222.781 611.274 227.191 611.274Z" fill="black"/>
<path d="M244.616 590.945C249.027 590.945 252.602 587.37 252.602 582.959C252.602 578.548 249.027 574.973 244.616 574.973C240.205 574.973 236.63 578.548 236.63 582.959C236.63 587.37 240.205 590.945 244.616 590.945Z" fill="black"/>
<path d="M184.298 650.959V704.22" stroke="black" stroke-width="3" stroke-miterlimit="10"/>
<path d="M174.555 669.356L184.298 678.925" stroke="black" stroke-width="3" stroke-miterlimit="10"/>
<path d="M164.027 747.767L174.206 737.603L183.63 747.041L193.068 737.603L203.581 748.116" stroke="black" stroke-width="3" stroke-miterlimit="10"/>
<path d="M164.027 794.233L174.206 784.069L183.63 793.507L193.068 784.069L203.581 794.581" stroke="black" stroke-width="3" stroke-miterlimit="10"/>
<path d="M164.027 840.699L174.206 830.534L183.63 839.973L193.068 830.534L203.581 841.047" stroke="black" stroke-width="3" stroke-miterlimit="10"/>
</svg>
