<svg width="1024" height="1024" viewBox="0 0 1024 1024" fill="none" xmlns="http://www.w3.org/2000/svg">
<path opacity="0.04" d="M500.594 772.02C662.26 772.02 793.316 639.044 793.316 475.01C793.316 310.976 662.26 178 500.594 178C338.928 178 207.872 310.976 207.872 475.01C207.872 639.044 338.928 772.02 500.594 772.02Z" fill="black"/>
<path d="M452.39 401.21C452.39 401.21 446.23 410.7 443.707 422.65C442.633 427.75 441.204 434.2 444.081 441.2C444.771 442.89 448.329 451.85 456.746 454.24C467.291 457.23 476.782 447.46 478.763 445.42C484.923 439.07 486.628 431.88 488.225 425.15C489.033 421.75 492.315 407.91 488.363 392.45C487.525 389.16 486.175 385.09 485.771 378.8C485.436 373.7 485.199 369.24 487.427 364.91C489.536 360.81 491.605 361.18 497.479 355.69C500.761 352.62 506.054 347.67 509.02 340.32C511.149 335.05 509.562 334.8 512.361 325.51C514.421 318.67 515.456 315.25 518.196 312.81C522.513 308.99 526.987 310.09 528.83 306.46C529.894 304.37 527.992 303.4 528.258 298.58C528.387 296.16 528.534 293.53 530.417 291.39C531.925 289.68 534.655 288.15 537.03 288.84C539.031 289.42 539.228 291.1 540.864 291.99C543.515 293.43 547.004 291.27 551.971 288.29C557.096 285.22 557.096 285.15 560.999 283.21C566.262 280.59 567.957 280.63 569.435 278.88C572.737 274.96 568.588 264.58 563.423 257.89C554.603 246.47 539.031 240.88 524.701 241.96C504.861 243.46 492.965 257.31 490.393 260.47C481.967 270.86 479.808 282.39 478.714 288.24C475.955 302.99 480.202 306.14 476.162 319.34C474.585 324.49 471.943 333.1 464.847 341.19C459.407 347.39 454.735 349.42 451.71 357.11C450.921 359.1 449.305 363.36 449.709 368.76C449.965 372.22 451.158 375.52 453.553 382.12C455.79 388.28 456.628 389.44 456.48 392.14C456.243 395.9 454.341 398.19 452.39 401.21Z" fill="black"/>
<path d="M533.482 333.09L530.969 345.27L529.934 350.28C526.938 351.53 521.557 353.31 514.727 353.01C509.966 352.8 505.916 351.65 502.732 350.33" stroke="black" stroke-width="3" stroke-miterlimit="10" stroke-linecap="round" stroke-linejoin="round"/>
<path d="M567.356 273.74C569.366 291.61 567.04 305.99 562.418 316.89C558.555 325.99 551.951 332.74 543.722 334.25C542.864 334.41 541.859 334.45 540.765 334.39C538.577 334.28 536.015 333.78 533.482 333.09C529.313 331.97 527.519 331.52 524.287 330.47" stroke="black" stroke-width="3" stroke-miterlimit="10" stroke-linecap="round" stroke-linejoin="round"/>
<path d="M479.207 444.93C481.188 456.55 482.932 468.73 484.352 481.44C488.018 514.43 488.777 544.79 487.919 571.76C490.925 569.09 494.227 566.36 497.824 563.62C500.337 561.71 502.801 559.95 505.196 558.32" stroke="black" stroke-width="3" stroke-miterlimit="10" stroke-linecap="round" stroke-linejoin="round"/>
<path d="M500.594 498.12C501.382 508.85 502.811 520.76 505.226 533.59C507.897 547.77 511.297 560.49 514.855 571.59C522.651 570.52 530.446 569.44 538.242 568.37C534.822 555.16 531.629 541.28 528.771 526.73C522.375 494.13 518.758 463.6 516.934 435.77" stroke="black" stroke-width="3" stroke-miterlimit="10" stroke-linecap="round" stroke-linejoin="round"/>
<path d="M529.52 350.45C532.575 355.93 535.414 360.26 537.592 363.39C543.121 371.31 546.087 373.9 557.884 388.38C566.469 398.9 570.756 404.16 571.958 406.5C577.339 416.98 575.733 424.51 575.201 446.58C575.201 446.58 574.56 473.4 576.827 500.67C577.793 512.26 579.232 522.09 580.513 529.41C574.422 530.65 567.977 532.22 561.235 534.19C553.439 536.47 546.274 538.99 539.78 541.57" stroke="black" stroke-width="3" stroke-miterlimit="10" stroke-linecap="round" stroke-linejoin="round"/>
<path d="M574.107 530.81V692.05L552.966 821.08" stroke="black" stroke-width="3" stroke-miterlimit="10" stroke-linecap="round" stroke-linejoin="round"/>
<path d="M519.418 603.32L527.894 694.86L523.656 840.71" stroke="black" stroke-width="3" stroke-miterlimit="10" stroke-linecap="round" stroke-linejoin="round"/>
<path d="M519.418 821.08H562.27L597.376 829.61C602.343 830.82 605.842 835.32 605.842 840.49V846.47L519.418 845.42V821.08Z" fill="black"/>
<path d="M450.921 773.88L430.264 796.76L487.978 846.17H505.512V840.91L492.187 831.36L479.67 796.09L450.921 773.88Z" fill="black"/>
<path d="M453.661 778.01L527.066 685.92" stroke="black" stroke-width="3" stroke-miterlimit="10" stroke-linecap="round" stroke-linejoin="round"/>
<path d="M475.639 794.5L526.317 749.31" stroke="black" stroke-width="3" stroke-miterlimit="10" stroke-linecap="round" stroke-linejoin="round"/>
<path d="M535.295 568.78C536.33 570.59 537.424 572.55 538.577 574.64C548.039 591.92 547.92 594.71 547.201 596.75C544.895 603.3 534.99 606.36 527.677 605.5C525.873 605.29 518.965 604.47 515.88 599.21C514.441 596.76 514.244 594.04 515.574 586C516.225 582.03 517.22 576.95 518.807 571.05" stroke="black" stroke-width="3" stroke-miterlimit="10" stroke-linecap="round" stroke-linejoin="round"/>
<path d="M497.144 564.15C499.135 570.63 501.786 577.79 505.364 585.34C509.996 595.13 515.141 603.39 520.059 610.18" stroke="black" stroke-width="3" stroke-miterlimit="10" stroke-linecap="round" stroke-linejoin="round"/>
<path d="M325.567 723.81C344.924 729.24 368.972 724.47 386.052 713.74C386.298 713.58 386.554 713.42 386.801 713.26C412.11 697.07 429.643 671.83 448.97 649.28C466.71 628.59 487.663 610.17 510.41 595.12C511.849 594.16 513.298 593.22 514.746 592.3" stroke="black" stroke-width="3" stroke-miterlimit="10" stroke-linecap="round" stroke-linejoin="round"/>
<path d="M330.111 683.55C331.915 706.01 327.716 728.16 313.199 745.86C299.066 763.09 279.552 775.98 270.248 796.99C263.241 812.84 263.891 830.66 270.199 846.47" stroke="black" stroke-width="3" stroke-miterlimit="10" stroke-linecap="round" stroke-linejoin="round"/>
<path d="M368.538 846.47C377.408 824.09 379.882 805.41 380.562 792.96C381.814 769.89 377.999 748.26 375.92 736.51C375.516 734.21 373.16 719.81 368.449 691.03C366.656 680.04 365.778 674.47 366.813 670.68C371.032 655.25 387.471 651.32 390.999 640.29C391.245 639.52 391.433 638.72 391.531 637.87C391.62 637.34 391.659 636.79 391.669 636.22C391.748 632.36 390.437 626.92 386.929 625.24C386.12 624.85 383.716 623.95 376.679 627.55C374.166 628.84 372.224 630.1 370.578 631.35C368.706 632.76 367.227 634.13 365.749 635.46C363.807 637.21 361.856 638.88 359.027 640.45C353.193 643.69 351.005 642.39 344.224 644.5C326.642 649.96 317.092 666.22 315.761 668.57C308.034 682.14 306.438 699.87 310.636 701.88C314.125 703.55 321.773 694.43 325.055 690.52C327.046 688.15 328.721 685.78 330.111 683.55C332.358 679.95 333.886 676.67 334.93 674.15" stroke="black" stroke-width="3" stroke-miterlimit="10" stroke-linecap="round" stroke-linejoin="round"/>
<path d="M360.21 773.88C360.713 781.99 360.496 792.54 357.894 804.46C353.784 823.26 345.525 837.38 338.892 846.47" stroke="black" stroke-width="3" stroke-miterlimit="10" stroke-linecap="round" stroke-linejoin="round"/>
<path d="M309.986 846.47C310.774 845.73 311.602 844.93 312.46 844.07C314.066 842.43 315.751 840.57 317.466 838.46C321.95 832.92 326.523 825.73 329.815 816.75C334.083 805.1 334.635 794.72 334.447 788" stroke="black" stroke-width="3" stroke-miterlimit="10" stroke-linecap="round" stroke-linejoin="round"/>
<path d="M871.53 846.47H321.389H312.203H309.986H152" stroke="black" stroke-width="3" stroke-miterlimit="10" stroke-linecap="round" stroke-linejoin="round"/>
<path d="M328.554 515.57L276.073 556.12L223.591 515.57L276.073 475.01L328.554 515.57Z" stroke="black" stroke-width="3" stroke-miterlimit="10" stroke-linecap="round" stroke-linejoin="round"/>
<path d="M328.554 515.57V574.57L276.073 615.12L223.591 574.57V515.57" stroke="black" stroke-width="3" stroke-miterlimit="10" stroke-linecap="round" stroke-linejoin="round"/>
<path d="M276.073 615.12V556.12" stroke="black" stroke-width="3" stroke-miterlimit="10" stroke-linecap="round" stroke-linejoin="round"/>
<path d="M276.073 556.12L328.554 515.57V574.57L276.073 615.12V556.12Z" fill="black"/>
<path d="M297.538 282.37L350.019 322.92L402.501 282.37L350.019 241.81L297.538 282.37Z" stroke="black" stroke-width="3" stroke-miterlimit="10" stroke-linecap="round" stroke-linejoin="round"/>
<path d="M297.538 282.37V341.37L350.019 381.92L402.501 341.37V282.37" stroke="black" stroke-width="3" stroke-miterlimit="10" stroke-linecap="round" stroke-linejoin="round"/>
<path d="M350.019 381.92V322.92" stroke="black" stroke-width="3" stroke-miterlimit="10" stroke-linecap="round" stroke-linejoin="round"/>
<path d="M350.019 322.92L297.538 282.37V341.37L350.019 381.92V322.92Z" fill="black"/>
<path d="M694.04 363.48L746.521 404.04L799.002 363.48L746.521 322.92L694.04 363.48Z" stroke="black" stroke-width="3" stroke-miterlimit="10" stroke-linecap="round" stroke-linejoin="round"/>
<path d="M694.04 363.48L746.521 404.04L799.002 363.48L746.521 322.92L694.04 363.48Z" fill="black"/>
<path d="M694.04 363.48V422.48L746.521 463.03L799.002 422.48V363.48" stroke="black" stroke-width="3" stroke-miterlimit="10" stroke-linecap="round" stroke-linejoin="round"/>
<path d="M746.521 463.03V404.04" stroke="black" stroke-width="3" stroke-miterlimit="10" stroke-linecap="round" stroke-linejoin="round"/>
<path d="M575.161 448.86L589.905 448.43L602.038 453.51C605.743 455.07 610.001 454.42 613.106 451.84L627.8 439.61" stroke="black" stroke-width="3" stroke-miterlimit="10" stroke-linecap="round" stroke-linejoin="round"/>
<path d="M575.723 431.01H586.229L600.727 423.87C602.609 422.94 604.807 422.94 606.69 423.87L618.102 429.5" stroke="black" stroke-width="3" stroke-miterlimit="10" stroke-linecap="round" stroke-linejoin="round"/>
<path d="M606.01 446.29L655.317 410.71" stroke="black" stroke-width="3" stroke-miterlimit="10" stroke-linecap="round" stroke-linejoin="round"/>
<path d="M593.246 368.34C621.552 333.98 658.747 299.74 696.504 324.01" stroke="black" stroke-width="3" stroke-miterlimit="10" stroke-linecap="round" stroke-linejoin="round"/>
<path d="M364.517 538.28C400.214 537.63 435.97 523.14 465.665 503.37" stroke="black" stroke-width="3" stroke-miterlimit="10" stroke-linecap="round" stroke-linejoin="round"/>
<path d="M270.642 311.01C222.931 336.49 208.798 398.86 229.524 448.26" stroke="black" stroke-width="3" stroke-miterlimit="10" stroke-linecap="round" stroke-linejoin="round"/>
<path d="M641.017 571.46V595.14V618.81V642.49V666.16V689.84" stroke="black" stroke-width="3" stroke-miterlimit="10" stroke-linecap="round" stroke-linejoin="round"/>
<path d="M682.184 571.46V595.14V618.81V642.49V666.16V689.84" stroke="black" stroke-width="3" stroke-miterlimit="10" stroke-linecap="round" stroke-linejoin="round"/>
<path d="M723.351 571.46V595.14V618.81V642.49V666.16V689.84" stroke="black" stroke-width="3" stroke-miterlimit="10" stroke-linecap="round" stroke-linejoin="round"/>
<path d="M764.518 571.46V595.14V618.81V642.49V666.16V689.84" stroke="black" stroke-width="3" stroke-miterlimit="10" stroke-linecap="round" stroke-linejoin="round"/>
<path d="M805.685 571.46V595.14V618.81V642.49V666.16V689.84" stroke="black" stroke-width="3" stroke-miterlimit="10" stroke-linecap="round" stroke-linejoin="round"/>
<path d="M846.852 571.46V595.14V618.81V642.49V666.16V689.84" stroke="black" stroke-width="3" stroke-miterlimit="10" stroke-linecap="round" stroke-linejoin="round"/>
<path d="M846.852 571.46H805.685H764.518H723.351H682.184H641.017" stroke="black" stroke-width="3" stroke-miterlimit="10" stroke-linecap="round" stroke-linejoin="round"/>
<path d="M846.852 595.14H805.685H764.518H723.351H682.184H641.017" stroke="black" stroke-width="3" stroke-miterlimit="10" stroke-linecap="round" stroke-linejoin="round"/>
<path d="M846.852 618.81H805.685H764.518H723.351H682.184H641.017" stroke="black" stroke-width="3" stroke-miterlimit="10" stroke-linecap="round" stroke-linejoin="round"/>
<path d="M846.852 642.49H805.685H764.518H723.351H682.184H641.017" stroke="black" stroke-width="3" stroke-miterlimit="10" stroke-linecap="round" stroke-linejoin="round"/>
<path d="M846.852 666.16H805.685H764.518H723.351H682.184H641.017" stroke="black" stroke-width="3" stroke-miterlimit="10" stroke-linecap="round" stroke-linejoin="round"/>
<path d="M846.852 689.84H805.685H764.518H723.351H682.184H641.017" stroke="black" stroke-width="3" stroke-miterlimit="10" stroke-linecap="round" stroke-linejoin="round"/>
<path d="M723.351 595.14H682.184V618.81H723.351V595.14Z" fill="black"/>
<path d="M805.685 618.81H764.518V642.48H805.685V618.81Z" fill="black"/>
<path d="M682.184 666.16H641.017V689.83H682.184V666.16Z" fill="black"/>
<path d="M848.596 714.44H639.42V760.37H848.596V714.44Z" fill="black"/>
<path d="M668.898 733.33V730.58C670.15 730.52 671.027 730.44 671.53 730.32C672.328 730.14 672.979 729.78 673.481 729.24C673.826 728.87 674.082 728.38 674.26 727.77C674.358 727.4 674.408 727.13 674.408 726.95H677.729V747.49H673.649V733.32H668.898V733.33Z" fill="#F5F5F5"/>
<path d="M699.835 729.57C700.87 731.41 701.392 734.03 701.392 737.42C701.392 740.81 700.87 743.42 699.835 745.25C698.8 747.08 696.987 748 694.414 748C691.832 748 690.029 747.08 688.994 745.25C687.959 743.42 687.437 740.81 687.437 737.42C687.437 734.03 687.959 731.41 688.994 729.57C690.029 727.73 691.842 726.81 694.414 726.81C696.987 726.81 698.8 727.73 699.835 729.57ZM692.069 742.84C692.453 744.09 693.232 744.72 694.414 744.72C695.597 744.72 696.366 744.09 696.74 742.84C697.105 741.59 697.292 739.78 697.292 737.42C697.292 734.95 697.105 733.11 696.74 731.92C696.376 730.73 695.597 730.13 694.414 730.13C693.232 730.13 692.453 730.73 692.069 731.92C691.684 733.11 691.497 734.94 691.497 737.42C691.497 739.78 691.684 741.59 692.069 742.84Z" fill="#F5F5F5"/>
<path d="M708.143 733.33V730.58C709.395 730.52 710.272 730.44 710.775 730.32C711.573 730.14 712.224 729.78 712.726 729.24C713.071 728.87 713.328 728.38 713.505 727.77C713.603 727.4 713.653 727.13 713.653 726.95H716.974V747.49H712.894V733.32H708.143V733.33Z" fill="#F5F5F5"/>
<path d="M739.07 729.57C740.105 731.41 740.628 734.03 740.628 737.42C740.628 740.81 740.105 743.42 739.07 745.25C738.036 747.08 736.222 748 733.65 748C731.068 748 729.264 747.08 728.229 745.25C727.194 743.42 726.672 740.81 726.672 737.42C726.672 734.03 727.194 731.41 728.229 729.57C729.264 727.73 731.077 726.81 733.65 726.81C736.222 726.81 738.036 727.73 739.07 729.57ZM731.304 742.84C731.689 744.09 732.467 744.72 733.65 744.72C734.832 744.72 735.601 744.09 735.976 742.84C736.34 741.59 736.528 739.78 736.528 737.42C736.528 734.95 736.34 733.11 735.976 731.92C735.611 730.73 734.832 730.13 733.65 730.13C732.467 730.13 731.689 730.73 731.304 731.92C730.92 733.11 730.733 734.94 730.733 737.42C730.733 739.78 730.92 741.59 731.304 742.84Z" fill="#F5F5F5"/>
<path d="M747.379 733.33V730.58C748.63 730.52 749.507 730.44 750.01 730.32C750.808 730.14 751.459 729.78 751.962 729.24C752.307 728.87 752.563 728.38 752.74 727.77C752.839 727.4 752.888 727.13 752.888 726.95H756.209V747.49H752.129V733.32H747.379V733.33Z" fill="#F5F5F5"/>
<path d="M778.306 729.57C779.34 731.41 779.863 734.03 779.863 737.42C779.863 740.81 779.34 743.42 778.306 745.25C777.271 747.08 775.457 748 772.885 748C770.303 748 768.499 747.08 767.464 745.25C766.43 743.42 765.907 740.81 765.907 737.42C765.907 734.03 766.43 731.41 767.464 729.57C768.499 727.73 770.313 726.81 772.885 726.81C775.457 726.81 777.271 727.73 778.306 729.57ZM770.539 742.84C770.924 744.09 771.702 744.72 772.885 744.72C774.068 744.72 774.836 744.09 775.211 742.84C775.576 741.59 775.763 739.78 775.763 737.42C775.763 734.95 775.576 733.11 775.211 731.92C774.846 730.73 774.068 730.13 772.885 730.13C771.702 730.13 770.924 730.73 770.539 731.92C770.155 733.11 769.968 734.94 769.968 737.42C769.968 739.78 770.155 741.59 770.539 742.84Z" fill="#F5F5F5"/>
<path d="M786.614 733.33V730.58C787.866 730.52 788.743 730.44 789.245 730.32C790.044 730.14 790.694 729.78 791.197 729.24C791.542 728.87 791.798 728.38 791.975 727.77C792.074 727.4 792.123 727.13 792.123 726.95H795.445V747.49H791.364V733.32H786.614V733.33Z" fill="#F5F5F5"/>
<path d="M817.541 729.57C818.576 731.41 819.098 734.03 819.098 737.42C819.098 740.81 818.576 743.42 817.541 745.25C816.506 747.08 814.693 748 812.12 748C809.538 748 807.735 747.08 806.7 745.25C805.665 743.42 805.142 740.81 805.142 737.42C805.142 734.03 805.665 731.41 806.7 729.57C807.735 727.73 809.548 726.81 812.12 726.81C814.702 726.81 816.506 727.73 817.541 729.57ZM809.775 742.84C810.159 744.09 810.938 744.72 812.12 744.72C813.303 744.72 814.072 744.09 814.446 742.84C814.811 741.59 814.998 739.78 814.998 737.42C814.998 734.95 814.811 733.11 814.446 731.92C814.082 730.73 813.303 730.13 812.12 730.13C810.938 730.13 810.159 730.73 809.775 731.92C809.39 733.11 809.203 734.94 809.203 737.42C809.203 739.78 809.39 741.59 809.775 742.84Z" fill="#F5F5F5"/>
<path d="M257.485 728.45L247.757 716.45L238.04 728.45L228.322 716.45L218.604 728.45L208.887 716.45L199.159 728.45L189.442 716.45L179.714 728.45L169.987 716.45" stroke="black" stroke-width="3" stroke-miterlimit="10" stroke-linecap="round" stroke-linejoin="round"/>
<path d="M257.485 753L247.757 741L238.04 753L228.322 741L218.604 753L208.887 741L199.159 753L189.442 741L179.714 753L169.987 741" stroke="black" stroke-width="3" stroke-miterlimit="10" stroke-linecap="round" stroke-linejoin="round"/>
<path d="M685.889 845.46V844.96V844.95V815.73" stroke="black" stroke-width="3" stroke-miterlimit="10" stroke-linecap="round" stroke-linejoin="round"/>
<path d="M685.889 845.97L686.057 845.67L686.155 845.47L695.715 827.9" stroke="black" stroke-width="3" stroke-miterlimit="10" stroke-linecap="round" stroke-linejoin="round"/>
<path d="M685.889 846.46L685.732 846.26L685.722 846.25L672.062 828.69" stroke="black" stroke-width="3" stroke-miterlimit="10" stroke-linecap="round" stroke-linejoin="round"/>
<path d="M198.144 845.46V844.96V844.95L204.333 813.99" stroke="black" stroke-width="3" stroke-miterlimit="10" stroke-linecap="round" stroke-linejoin="round"/>
<path d="M198.144 845.97L198.312 845.67L198.41 845.47L210.533 835.07" stroke="black" stroke-width="3" stroke-miterlimit="10" stroke-linecap="round" stroke-linejoin="round"/>
<path d="M198.144 846.46L197.986 846.26L197.977 846.25L184.317 828.69" stroke="black" stroke-width="3" stroke-miterlimit="10" stroke-linecap="round" stroke-linejoin="round"/>
<path d="M812.712 344.01L834.098 314.66" stroke="black" stroke-width="3" stroke-miterlimit="10" stroke-linecap="round" stroke-linejoin="round"/>
<path d="M854.884 386.09L821.217 373.24" stroke="black" stroke-width="3" stroke-miterlimit="10" stroke-linecap="round" stroke-linejoin="round"/>
<path d="M822.705 356.9L860.472 345.59" stroke="black" stroke-width="3" stroke-miterlimit="10" stroke-linecap="round" stroke-linejoin="round"/>
<path d="M201.84 523.04L166.261 528.45" stroke="black" stroke-width="3" stroke-miterlimit="10" stroke-linecap="round" stroke-linejoin="round"/>
<path d="M201.347 463.03L216.19 496.28" stroke="black" stroke-width="3" stroke-miterlimit="10" stroke-linecap="round" stroke-linejoin="round"/>
<path d="M203.762 506.76L169.168 487.66" stroke="black" stroke-width="3" stroke-miterlimit="10" stroke-linecap="round" stroke-linejoin="round"/>
<path d="M345.338 657.41C346.922 657.41 348.206 656.107 348.206 654.5C348.206 652.893 346.922 651.59 345.338 651.59C343.754 651.59 342.47 652.893 342.47 654.5C342.47 656.107 343.754 657.41 345.338 657.41Z" fill="black"/>
<path d="M391.669 636.22C391.659 636.79 391.62 637.34 391.531 637.87C389.905 638.18 388.161 638.34 386.337 638.34C378.542 638.34 372.047 635.34 370.578 631.35C372.224 630.1 374.166 628.84 376.679 627.55C383.716 623.95 386.121 624.85 386.929 625.24C390.437 626.92 391.748 632.36 391.669 636.22Z" fill="black"/>
<path d="M322.246 846.47H312.203C312.292 845.6 312.391 844.72 312.479 843.85C314.234 842.06 316.077 840.02 317.959 837.71C319.23 838.73 320.472 840.14 321.31 842.07C321.99 843.66 322.226 845.18 322.246 846.47Z" fill="black"/>
<path d="M349.655 846.47H339.612C339.701 845.6 339.799 844.72 339.888 843.85C341.642 842.06 343.485 840.02 345.368 837.71C346.639 838.73 347.881 840.14 348.718 842.07C349.398 843.66 349.635 845.18 349.655 846.47Z" fill="black"/>
<path d="M377.595 846.47H367.552C369.563 842.58 370.756 840.04 372.313 836.87C373.584 837.89 375.821 840.14 376.659 842.08C377.339 843.66 377.576 845.18 377.595 846.47Z" fill="black"/>
<path d="M533.147 333C531.373 332.58 529.5 332.08 527.559 331.48C526.149 331.05 524.809 330.59 523.538 330.12C523.685 331.78 524.277 334.53 525.45 336.72C527.391 340.36 529.944 341.99 531.314 343.32C532.23 338.51 532.24 337.26 533.147 333Z" fill="black" stroke="black" stroke-width="3" stroke-miterlimit="10" stroke-linecap="round" stroke-linejoin="round"/>
</svg>
