<svg width="1024" height="1024" viewBox="0 0 1024 1024" fill="none" xmlns="http://www.w3.org/2000/svg">
<path opacity="0.04" d="M488.596 794.18C658.75 794.18 796.686 656.243 796.686 486.09C796.686 315.936 658.75 178 488.596 178C318.443 178 180.507 315.936 180.507 486.09C180.507 656.243 318.443 794.18 488.596 794.18Z" fill="black"/>
<path d="M279.09 521H122V571.86H279.09V521Z" stroke="black" stroke-width="3" stroke-miterlimit="10" stroke-linecap="round" stroke-linejoin="round"/>
<path d="M143.67 521V571.86" stroke="black" stroke-width="3" stroke-miterlimit="10" stroke-linecap="round" stroke-linejoin="round"/>
<path d="M166.42 521V571.86" stroke="black" stroke-width="3" stroke-miterlimit="10" stroke-linecap="round" stroke-linejoin="round"/>
<path d="M189.17 521V571.86" stroke="black" stroke-width="3" stroke-miterlimit="10" stroke-linecap="round" stroke-linejoin="round"/>
<path d="M211.92 521V571.86" stroke="black" stroke-width="3" stroke-miterlimit="10" stroke-linecap="round" stroke-linejoin="round"/>
<path d="M234.67 521V571.86" stroke="black" stroke-width="3" stroke-miterlimit="10" stroke-linecap="round" stroke-linejoin="round"/>
<path d="M257.42 521V571.86" stroke="black" stroke-width="3" stroke-miterlimit="10" stroke-linecap="round" stroke-linejoin="round"/>
<path d="M122 546.43H279.09" stroke="black" stroke-width="3" stroke-miterlimit="10" stroke-linecap="round" stroke-linejoin="round"/>
<path d="M211.92 521H189.17V546.43H211.92V521Z" fill="black"/>
<path d="M257.42 546.43H234.67V571.86H257.42V546.43Z" fill="black"/>
<path d="M166.42 546.43H143.67V571.86H166.42V546.43Z" fill="black"/>
<path d="M763.378 313.008H820.17V332.586H775.38" stroke="black" stroke-width="3" stroke-miterlimit="10" stroke-linecap="round" stroke-linejoin="round"/>
<path d="M775.381 332.586H820.171V348.493C820.171 350.531 818.536 352.175 816.511 352.175H773.844" stroke="black" stroke-width="3" stroke-miterlimit="10" stroke-linecap="round" stroke-linejoin="round"/>
<path d="M742.105 305.423V293.419H820.171V313.008H763.378" stroke="black" stroke-width="3" stroke-miterlimit="10" stroke-linecap="round" stroke-linejoin="round"/>
<path d="M820.171 293.431H742.105V278.751C742.105 276.038 744.289 273.841 746.985 273.841H815.292C817.987 273.841 820.171 276.038 820.171 278.751V293.431Z" stroke="black" stroke-width="3" stroke-miterlimit="10" stroke-linecap="round" stroke-linejoin="round"/>
<path d="M741.984 374.159C760.846 374.159 776.137 358.772 776.137 339.791C776.137 320.81 760.846 305.423 741.984 305.423C723.121 305.423 707.83 320.81 707.83 339.791C707.83 358.772 723.121 374.159 741.984 374.159Z" stroke="black" stroke-width="3" stroke-miterlimit="10" stroke-linecap="round" stroke-linejoin="round"/>
<path d="M733.811 323.687H729.127" stroke="black" stroke-width="3" stroke-miterlimit="10" stroke-linecap="round" stroke-linejoin="round"/>
<path d="M733.811 355.895H729.127" stroke="black" stroke-width="3" stroke-miterlimit="10" stroke-linecap="round" stroke-linejoin="round"/>
<path d="M737.116 317.979V323.687" stroke="black" stroke-width="3" stroke-miterlimit="10" stroke-linecap="round" stroke-linejoin="round"/>
<path d="M744.154 317.979V323.687" stroke="black" stroke-width="3" stroke-miterlimit="10" stroke-linecap="round" stroke-linejoin="round"/>
<path d="M737.116 355.895V361.59" stroke="black" stroke-width="3" stroke-miterlimit="10" stroke-linecap="round" stroke-linejoin="round"/>
<path d="M744.154 355.895V361.59" stroke="black" stroke-width="3" stroke-miterlimit="10" stroke-linecap="round" stroke-linejoin="round"/>
<path d="M744.423 339.791H733.811V323.687H744.423C748.228 323.687 751.314 326.792 751.314 330.622V332.856C751.314 336.685 748.228 339.791 744.423 339.791Z" stroke="black" stroke-width="3" stroke-miterlimit="10" stroke-linecap="round" stroke-linejoin="round"/>
<path d="M747.545 355.894H733.811V339.791H747.557C751.363 339.791 754.449 342.896 754.449 346.725V348.959C754.437 352.789 751.351 355.894 747.545 355.894Z" stroke="black" stroke-width="3" stroke-miterlimit="10" stroke-linecap="round" stroke-linejoin="round"/>
<path d="M314.46 341.18C329.626 341.18 341.92 328.885 341.92 313.72C341.92 298.554 329.626 286.26 314.46 286.26C299.294 286.26 287 298.554 287 313.72C287 328.885 299.294 341.18 314.46 341.18Z" stroke="black" stroke-width="3" stroke-miterlimit="10" stroke-linecap="round" stroke-linejoin="round"/>
<path d="M308.05 300.86H304.29" stroke="black" stroke-width="3" stroke-miterlimit="10" stroke-linecap="round" stroke-linejoin="round"/>
<path d="M308.05 326.59H304.29" stroke="black" stroke-width="3" stroke-miterlimit="10" stroke-linecap="round" stroke-linejoin="round"/>
<path d="M310.71 296.3V300.86" stroke="black" stroke-width="3" stroke-miterlimit="10" stroke-linecap="round" stroke-linejoin="round"/>
<path d="M316.37 296.3V300.86" stroke="black" stroke-width="3" stroke-miterlimit="10" stroke-linecap="round" stroke-linejoin="round"/>
<path d="M310.71 326.59V331.15" stroke="black" stroke-width="3" stroke-miterlimit="10" stroke-linecap="round" stroke-linejoin="round"/>
<path d="M316.37 326.59V331.15" stroke="black" stroke-width="3" stroke-miterlimit="10" stroke-linecap="round" stroke-linejoin="round"/>
<path d="M316.47 313.72H308.04V300.86H316.47C319.59 300.86 322.12 303.39 322.12 306.51V308.08C322.12 311.19 319.59 313.72 316.47 313.72Z" stroke="black" stroke-width="3" stroke-miterlimit="10" stroke-linecap="round" stroke-linejoin="round"/>
<path d="M318.99 326.59H308.05V313.73H318.99C322.11 313.73 324.64 316.26 324.64 319.38V320.95C324.63 324.06 322.11 326.59 318.99 326.59Z" stroke="black" stroke-width="3" stroke-miterlimit="10" stroke-linecap="round" stroke-linejoin="round"/>
<path d="M257.83 286.27V268.84H341.6C352.65 268.84 361.6 277.79 361.6 288.84V338.61C361.6 349.66 352.65 358.61 341.6 358.61H257.83V341.18" stroke="black" stroke-width="3" stroke-miterlimit="10" stroke-linecap="round" stroke-linejoin="round"/>
<path d="M227.46 277.38L248.29 298.21H290.82" stroke="black" stroke-width="3" stroke-miterlimit="10" stroke-linecap="round" stroke-linejoin="round"/>
<path d="M219.55 280.54C225.498 280.54 230.32 275.718 230.32 269.77C230.32 263.822 225.498 259 219.55 259C213.602 259 208.78 263.822 208.78 269.77C208.78 275.718 213.602 280.54 219.55 280.54Z" stroke="black" stroke-width="3" stroke-miterlimit="10" stroke-linecap="round" stroke-linejoin="round"/>
<path d="M227.46 350.07L248.29 329.24H290.82" stroke="black" stroke-width="3" stroke-miterlimit="10" stroke-linecap="round" stroke-linejoin="round"/>
<path d="M219.55 368.45C225.498 368.45 230.32 363.628 230.32 357.68C230.32 351.732 225.498 346.91 219.55 346.91C213.602 346.91 208.78 351.732 208.78 357.68C208.78 363.628 213.602 368.45 219.55 368.45Z" stroke="black" stroke-width="3" stroke-miterlimit="10" stroke-linecap="round" stroke-linejoin="round"/>
<path d="M208.77 324.49C214.718 324.49 219.54 319.668 219.54 313.72C219.54 307.772 214.718 302.95 208.77 302.95C202.822 302.95 198 307.772 198 313.72C198 319.668 202.822 324.49 208.77 324.49Z" stroke="black" stroke-width="3" stroke-miterlimit="10" stroke-linecap="round" stroke-linejoin="round"/>
<path d="M219.55 313.72H272.92" stroke="black" stroke-width="3" stroke-miterlimit="10" stroke-linecap="round" stroke-linejoin="round"/>
<path d="M795.252 548.512C808.61 548.512 819.438 537.683 819.438 524.325C819.438 510.966 808.61 500.137 795.252 500.137C781.893 500.137 771.064 510.966 771.064 524.325C771.064 537.683 781.893 548.512 795.252 548.512Z" fill="white" stroke="black" stroke-width="3" stroke-miterlimit="10" stroke-linecap="round" stroke-linejoin="round"/>
<path d="M785.465 524.621L795.252 508.39V530.419L785.465 524.621Z" stroke="black" stroke-width="3" stroke-miterlimit="10" stroke-linecap="round" stroke-linejoin="round"/>
<path d="M805.047 524.621L795.252 508.39V530.418L805.047 524.621Z" stroke="black" stroke-width="3" stroke-miterlimit="10" stroke-linecap="round" stroke-linejoin="round"/>
<path d="M785.465 524.621L795.252 540.26L805.047 524.621" stroke="black" stroke-width="3" stroke-miterlimit="10" stroke-linecap="round" stroke-linejoin="round"/>
<path d="M739.343 496.374C752.701 496.374 763.53 485.545 763.53 472.187C763.53 458.829 752.701 448 739.343 448C725.985 448 715.156 458.829 715.156 472.187C715.156 485.545 725.985 496.374 739.343 496.374Z" stroke="black" stroke-width="3" stroke-miterlimit="10" stroke-linecap="round" stroke-linejoin="round"/>
<path d="M733.687 460.849H730.375" stroke="black" stroke-width="3" stroke-miterlimit="10" stroke-linecap="round" stroke-linejoin="round"/>
<path d="M733.687 483.517H730.375" stroke="black" stroke-width="3" stroke-miterlimit="10" stroke-linecap="round" stroke-linejoin="round"/>
<path d="M736.032 456.836V460.849" stroke="black" stroke-width="3" stroke-miterlimit="10" stroke-linecap="round" stroke-linejoin="round"/>
<path d="M741.019 456.836V460.849" stroke="black" stroke-width="3" stroke-miterlimit="10" stroke-linecap="round" stroke-linejoin="round"/>
<path d="M736.032 483.517V487.538" stroke="black" stroke-width="3" stroke-miterlimit="10" stroke-linecap="round" stroke-linejoin="round"/>
<path d="M741.019 483.517V487.537" stroke="black" stroke-width="3" stroke-miterlimit="10" stroke-linecap="round" stroke-linejoin="round"/>
<path d="M742.437 472.187H733.687V460.857H742.437C744.455 460.857 746.092 462.493 746.092 464.511V468.54C746.092 470.55 744.455 472.187 742.437 472.187Z" stroke="black" stroke-width="3" stroke-miterlimit="10" stroke-linecap="round" stroke-linejoin="round"/>
<path d="M744.65 483.517H733.687V472.179H744.65C746.668 472.179 748.305 473.815 748.305 475.834V479.862C748.305 481.888 746.668 483.517 744.65 483.517Z" stroke="black" stroke-width="3" stroke-miterlimit="10" stroke-linecap="round" stroke-linejoin="round"/>
<path d="M677.122 460.327V632.971" stroke="black" stroke-width="3" stroke-miterlimit="10" stroke-linecap="round" stroke-linejoin="round"/>
<path d="M665.028 620.878H923.761" stroke="black" stroke-width="3" stroke-miterlimit="10" stroke-linecap="round" stroke-linejoin="round"/>
<path d="M661 476.457L677.122 460.327L693.252 476.457" stroke="black" stroke-width="3" stroke-miterlimit="10" stroke-linecap="round" stroke-linejoin="round"/>
<path d="M907.639 604.756L923.761 620.878L907.639 637" stroke="black" stroke-width="3" stroke-miterlimit="10" stroke-linecap="round" stroke-linejoin="round"/>
<path d="M753.05 511.312H725.621V620.878H753.05V511.312Z" fill="black"/>
<path d="M808.967 560.254H781.538V620.87H808.967V560.254Z" fill="black"/>
<path d="M867.524 524.028H840.096V620.878H867.524V524.028Z" fill="black"/>
<path d="M853.81 506.971C867.168 506.971 877.997 496.142 877.997 482.784C877.997 469.426 867.168 458.597 853.81 458.597C840.452 458.597 829.623 469.426 829.623 482.784C829.623 496.142 840.452 506.971 853.81 506.971Z" fill="white" stroke="black" stroke-width="3" stroke-miterlimit="10" stroke-linecap="round" stroke-linejoin="round"/>
<path d="M857.309 492.212H848.651V473.067H857.309C861.321 473.067 864.579 476.324 864.579 480.337V484.934C864.579 488.955 861.321 492.212 857.309 492.212Z" stroke="black" stroke-width="3" stroke-miterlimit="10" stroke-linecap="round" stroke-linejoin="round"/>
<path d="M843.033 482.635H856.615" stroke="black" stroke-width="3" stroke-miterlimit="10" stroke-linecap="round" stroke-linejoin="round"/>
<path d="M481.932 846.599L479.832 813.604C475.922 814.038 469.227 819.861 463.712 819.118C454.487 817.876 451.377 816.551 448.971 814.346L401.535 828.489C397.154 829.795 394.151 833.824 394.151 838.396V846.599L481.932 846.599Z" fill="black"/>
<path d="M558.054 846.599L555.954 813.604C552.044 814.038 545.349 819.861 539.834 819.118C530.609 817.876 527.499 816.551 525.093 814.346L477.657 828.489C473.276 829.795 470.273 833.824 470.273 838.396V846.599L558.054 846.599Z" fill="black"/>
<path d="M475.584 285.973L478.696 271.735H529.73L532.842 285.973H475.584Z" stroke="black" stroke-width="3.10138"/>
<path d="M477.125 277.872C468.482 277.872 445.251 280.75 436.46 290.893C430.233 298.078 396.141 361.058 378.926 396.89L278.634 417.959L286.571 482.87C322.132 481.438 398.272 453.489 412.541 442.655C426.81 431.821 432.33 421.813 435.192 415.317L457.244 370.44" stroke="black" stroke-width="3.10138"/>
<path d="M426.921 428.901L406.128 701.218H602.764L580.593 382.516" stroke="black" stroke-width="3.10138"/>
<path d="M470.273 593.3L516.937 466.182" stroke="black" stroke-width="3.10138"/>
<path d="M501.491 636.911L536.178 542.789" stroke="black" stroke-width="3.10138"/>
<path d="M582.991 418.389C592 429.457 614.031 451.283 630.092 450.047C646.153 448.812 654.114 433.232 656.088 425.596L665.886 307.343H606.741L612.688 360.906" stroke="black" stroke-width="3.10138"/>
<path d="M531.311 278.899C537.577 278.786 555.326 283.433 568.875 302.943C582.424 322.454 617.426 366.624 633.233 386.27" stroke="black" stroke-width="3.10138"/>
<path d="M433.854 700.871L437.67 784.748H490.712L494.384 700.871" stroke="black" stroke-width="3.10138"/>
<path d="M447.446 784.749L449.549 822.302H478.77L480.793 784.749" stroke="black" stroke-width="3.10138"/>
<path d="M523.568 784.749L525.671 822.302H554.892L556.915 784.749" stroke="black" stroke-width="3.10138"/>
<path d="M514.164 700.871L517.98 784.748H571.022L574.695 700.871" stroke="black" stroke-width="3.10138"/>
<path d="M617.819 307.351C614.315 294.975 610.795 278.724 623.31 276.5V253.94C623.194 252.359 623.828 249.15 627.289 248.96C630.75 248.771 631.968 253.044 632.145 255.204L632.763 272.276C641.645 271.418 659.209 273.466 658.406 288.526C657.604 303.586 656.935 307.351 656.701 307.351" stroke="black" stroke-width="3.10138"/>
<path d="M279.696 424.815C255.893 428.782 261.081 435.954 244.432 430.036C223.321 422.531 218.716 441.751 228.567 452.9C236.026 461.342 246.503 462.907 257.478 462.05C266.259 461.364 278.434 457.42 283.424 455.534" stroke="black" stroke-width="3.10138"/>
<path d="M231.643 438.716C234.673 441.133 243.846 444.939 256.304 440.824" stroke="black" stroke-width="3.10138"/>
<path d="M234.108 449.106C237.079 451.595 246.158 455.62 258.711 451.805" stroke="black" stroke-width="3.10138"/>
<path d="M489.719 217.469C482.303 226.299 473.497 247.096 478.297 254.824C483.098 262.551 498.605 262.056 503.337 261.275" stroke="black" stroke-width="3.10138"/>
<path d="M512.632 260.587C514.987 260.849 519.923 260.452 520.82 256.773C521.718 253.094 521.194 244.247 520.82 240.284" stroke="black" stroke-width="3.10138"/>
<path d="M489.061 261.217V271.735" stroke="black" stroke-width="3.10138"/>
<path d="M516.378 260.315L516.378 271.735" stroke="black" stroke-width="3.10138"/>
<path d="M489.39 206.877C496.318 201.172 507.16 200.471 511.715 200.834C523.733 201.532 530.037 210.543 531.687 214.962C534.484 222.454 537.919 241.968 524.675 249.341C511.431 256.715 501.675 240.115 500.404 233.903C490.16 235.78 485.195 228.727 483.993 224.965C482.905 221.313 482.462 212.582 489.39 206.877Z" fill="black"/>
<circle cx="531.782" cy="204.137" r="19.1505" fill="black"/>
<path d="M489.061 261.718V267.793L503.446 261.223C495.374 261.42 493.383 261.544 489.061 261.718Z" fill="black"/>
<path d="M100 845.741H836.939" stroke="black" stroke-width="3.10138"/>
<path d="M229.938 739.062C227.56 736.823 219.993 730.522 223.651 726.211C224.375 725.362 225.348 724.889 226.28 724.43C230.48 722.344 234.375 719.743 237.129 715.292C237.81 714.18 238.436 712.886 238.339 711.523C238.241 710.146 237.421 708.964 236.419 708.241C234.472 706.836 231.969 706.516 229.855 705.556C225.821 703.72 221.412 702.218 217.573 699.854C213.47 697.323 214.722 692.343 217.796 689.45C221.843 685.639 227.852 684.235 232.887 684.638C234.597 684.777 236.892 684.68 237.296 682.691C237.435 682.037 237.296 681.342 237.129 680.702C235.877 675.764 233.262 671.341 229.785 668.281C224.416 663.539 216.933 661.87 213.095 654.846C212.065 652.968 211.495 650.618 211.968 648.434C212.608 645.569 214.931 643.622 217.337 642.871C221.537 641.563 225.793 642.231 229.855 643.914C232.511 645.012 235.209 644.943 236.878 641.758C238.144 639.338 238.116 636.236 237.449 633.51C236.322 628.934 233.526 625.234 232.595 620.575C232.038 617.793 232.233 614.664 233.638 612.341C235.293 609.629 238.561 608.544 241.148 609.838C242.817 610.672 244.111 612.313 245.293 613.955C247.797 617.418 251.802 625.276 256.378 624.386C257.894 624.08 259.118 622.787 260.314 621.632C262.846 619.184 265.669 617.154 268.659 615.61C270.162 614.831 271.789 614.177 273.402 614.469C276.253 614.984 277.394 618.934 277.31 621.98C277.227 624.623 276.365 627.154 275.349 629.504C272.512 636.097 268.367 641.911 266.323 648.907C263.207 659.519 277.116 659.338 282.582 659.644C284.32 659.742 286.129 659.867 287.686 660.799C292.081 663.427 293.027 671.258 290.106 675.695C288.326 678.407 285.461 679.798 282.637 680.535C279.814 681.272 276.893 681.495 274.112 682.482C272.971 682.885 271.817 683.456 271.038 684.513C265.725 691.703 285.809 702.357 288.924 705.431C290.746 707.225 292.415 709.534 292.721 712.33C293.403 718.561 287.589 724.416 284.237 728.269C280.037 733.081 275.322 737.282 270.245 740.689" stroke="black" stroke-width="3" stroke-miterlimit="10"/>
<path d="M283.249 659.672C283.374 656.404 284.028 653.233 286.156 652.05C287.7 651.188 289.494 652.12 291.052 652.982C293.055 654.081 295.127 655.096 297.324 655.458C299.508 655.833 301.831 655.527 303.722 654.164C306.379 652.259 307.074 649.004 306.852 645.555C306.643 642.3 305.837 639.143 305.697 635.902C305.489 631.174 308.437 623.037 313.611 625.694C317.367 627.613 316.685 634.025 317.478 637.905C317.826 639.588 318.41 641.452 319.745 642.092C320.691 642.551 321.762 642.273 322.735 641.911C325.809 640.77 328.201 639.143 330.705 636.737C332.318 635.193 334.252 633.747 336.31 634.067C337.673 634.261 338.925 635.277 339.69 636.654C340.552 638.253 340.789 640.311 340.302 642.12C339.732 644.234 338.299 645.819 336.853 647.196C334.307 649.616 331.414 651.814 329.898 655.249C329.217 656.779 328.855 658.657 329.453 660.215C330.163 662.106 331.943 662.969 333.542 663.761C336.171 665.083 337.826 667.085 337.256 670.632C336.129 677.795 327.965 678.546 323.167 678.699C321.261 678.769 318.98 678.894 318.048 680.869C317.339 682.399 317.867 684.388 318.897 685.612C319.926 686.849 321.345 687.489 322.722 688.046C325.754 689.27 329.272 691.425 328.466 696.057C328.048 698.407 326.463 700.341 324.557 701.189C322.666 702.024 320.524 701.843 318.632 700.994C317.019 700.285 315.545 699.089 313.862 698.616C310.301 697.615 306.143 700.494 305.461 704.875C305.044 707.504 308.382 720.244 308.284 722.942C308.09 728.005 296.198 737.657 292.79 740.69" stroke="black" stroke-width="3" stroke-miterlimit="10"/>
<path d="M316.866 661.898C312.137 667.141 306.643 674.235 301.567 683.47C298.674 688.741 296.393 693.804 294.612 698.408" stroke="black" stroke-width="3" stroke-miterlimit="10"/>
<path d="M248.715 645.304C252.136 656.487 255.878 672.357 257.06 691.773C258.256 711.537 256.378 728.144 254.278 739.897" stroke="black" stroke-width="3" stroke-miterlimit="10"/>
<path d="M240.369 661.898C242.414 662.524 244.82 663.539 247.323 665.222C254.792 670.243 255.822 678.505 256.42 683.776" stroke="black" stroke-width="3" stroke-miterlimit="10"/>
<path d="M273.93 671.342C272.956 671.397 264.305 672.023 259.66 680.563C257.212 685.07 257.031 689.645 257.059 691.773" stroke="black" stroke-width="3" stroke-miterlimit="10"/>
<path d="M240.258 695.612C241.913 696.183 243.707 697.045 245.515 698.338C253.707 704.166 256.378 714.584 257.171 718.242" stroke="black" stroke-width="3" stroke-miterlimit="10"/>
<path d="M200.619 741.023C203.624 738.061 206.336 734.5 205.39 731.635C203.679 726.447 191.662 728.659 188.783 722.511C186.196 716.989 193.707 710.661 190.995 706.78C188.046 702.58 176.126 699.798 171.745 697.1C167.447 694.444 167.225 690.438 170.855 686.919C174.29 683.609 184.777 688.546 186.586 685.918C190.466 680.285 182.385 671.884 185.682 667.767C188.004 664.874 195.07 665.222 199.159 668.866C203.79 672.969 195.988 682.19 199.98 686.321C202.33 688.755 206.948 688.115 207.615 688.032" stroke="black" stroke-width="3" stroke-miterlimit="10"/>
<path d="M197.671 698.505C199.771 699.59 205.39 702.858 208.937 709.771C211.788 715.334 211.872 720.494 211.746 722.914" stroke="black" stroke-width="3" stroke-miterlimit="10"/>
<path d="M300.775 832.75H203.847C197.699 832.75 192.72 827.771 192.72 821.623V751.163C192.72 745.015 197.699 740.036 203.847 740.036H300.775C306.923 740.036 311.902 745.015 311.902 751.163V821.623C311.902 827.757 306.909 832.75 300.775 832.75Z" stroke="black" stroke-width="3" stroke-miterlimit="10"/>
<path d="M311.902 773.778H192.72V798.994H311.902V773.778Z" fill="black"/>
<path d="M294.6 833.126H210.008V845.741H294.6V833.126Z" fill="black"/>
<path d="M217.296 761.803L225.126 753.958L233.221 762.053L242.401 752.873L251.525 761.983L260.51 753.012L269.203 761.719L278.174 752.748L287.325 761.886" stroke="black" stroke-width="3" stroke-miterlimit="10"/>
<path d="M217.296 818.939L225.126 811.094L233.221 819.189L242.401 809.996L251.525 819.12L260.51 810.149L269.203 818.841L278.174 809.87L287.325 819.022" stroke="black" stroke-width="3" stroke-miterlimit="10"/>
<path d="M663.058 832.418C665.178 826.698 664.758 819.868 663.828 813.988C661.608 800.068 661.028 785.838 662.818 771.828C663.718 764.798 665.088 757.638 667.368 750.908C669.578 744.408 672.118 737.998 673.408 731.228C673.678 729.828 673.888 728.418 674.038 726.998C675.348 714.458 668.658 702.418 676.768 691.338C682.708 683.218 691.048 680.498 694.088 679.658C694.408 683.678 694.738 687.698 695.058 691.728C695.808 691.768 698.408 691.988 700.508 694.068C701.648 695.198 702.198 696.428 702.458 697.178C703.298 696.428 709.448 694.588 711.818 694.438C714.268 694.278 716.348 694.518 717.438 695.068C717.758 696.678 716.368 702.358 715.978 703.558C715.088 706.288 711.778 712.598 710.448 713.848C709.168 718.188 708.528 722.798 710.428 729.868C712.038 735.858 714.938 738.848 719.188 744.858C727.038 755.978 732.588 768.628 735.448 781.938C736.948 788.908 737.718 796.038 737.838 803.168C737.928 808.978 736.148 817.368 739.048 822.718C739.558 823.658 740.878 826.088 742.938 826.418C746.498 826.978 750.058 820.948 751.308 818.828C753.388 815.298 756.028 809.438 756.948 796.058C757.518 787.818 756.658 787.978 757.138 776.988C757.438 770.248 757.688 765.048 759.088 758.298C761.678 745.758 767.338 733.778 781.338 731.228C782.298 736.398 777.878 740.778 774.838 745.078C765.278 758.628 768.398 776.898 768.028 793.488C767.678 809.428 762.388 837.358 745.118 844.098C740.938 845.728 736.198 846.628 731.708 846.598C707.568 846.448 683.558 845.498 659.418 845.558C658.748 845.558 658.048 845.558 657.428 845.278C655.958 844.608 655.568 842.578 656.198 841.088C656.828 839.598 658.148 838.548 659.438 837.578C661.108 836.298 662.268 834.528 663.058 832.418Z" stroke="black" stroke-width="3" stroke-miterlimit="10" stroke-linecap="round" stroke-linejoin="round"/>
<path d="M713.058 774.738C709.878 776.118 700.208 780.808 694.448 791.838C686.078 807.868 693.018 823.758 693.948 825.788C687.078 828.888 680.198 831.988 673.328 835.098" stroke="black" stroke-width="3" stroke-miterlimit="10" stroke-linecap="round" stroke-linejoin="round"/>
<path d="M678.457 768.648L677.067 809.688" stroke="black" stroke-width="3" stroke-miterlimit="10" stroke-linecap="round" stroke-linejoin="round"/>
<path d="M684.218 709.038L661.268 697.008" stroke="black" stroke-width="3" stroke-miterlimit="10" stroke-linecap="round" stroke-linejoin="round"/>
<path d="M684.218 715.638H654.008" stroke="black" stroke-width="3" stroke-miterlimit="10" stroke-linecap="round" stroke-linejoin="round"/>
<path d="M698.238 711.308H727.888" stroke="black" stroke-width="3" stroke-miterlimit="10" stroke-linecap="round" stroke-linejoin="round"/>
<path d="M697.777 717.998L728.337 729.068" stroke="black" stroke-width="3" stroke-miterlimit="10" stroke-linecap="round" stroke-linejoin="round"/>
<path d="M708.777 836.148C710.827 835.468 716.427 833.328 720.677 827.558C725.637 820.828 725.427 813.688 725.307 811.688" stroke="black" stroke-width="3" stroke-miterlimit="10" stroke-linecap="round" stroke-linejoin="round"/>
</svg>
