<svg width="1024" height="1024" viewBox="0 0 1024 1024" fill="none" xmlns="http://www.w3.org/2000/svg">
<path opacity="0.04" d="M516.09 776.18C686.243 776.18 824.18 638.243 824.18 468.09C824.18 297.936 686.243 160 516.09 160C345.936 160 208 297.936 208 468.09C208 638.243 345.936 776.18 516.09 776.18Z" fill="black"/>
<path d="M209.948 467.241C207.878 462.516 206.725 457.279 206.725 451.785C206.725 430.36 224.085 413 245.51 413C266.917 413 284.277 430.36 284.277 451.785C284.277 457.279 283.142 462.498 281.054 467.241" stroke="black" stroke-width="3" stroke-miterlimit="10" stroke-linecap="round" stroke-linejoin="round"/>
<path d="M236.445 433.619H231.135" stroke="black" stroke-width="3" stroke-miterlimit="10" stroke-linecap="round" stroke-linejoin="round"/>
<path d="M240.198 427.192V433.619" stroke="black" stroke-width="3" stroke-miterlimit="10" stroke-linecap="round" stroke-linejoin="round"/>
<path d="M248.183 427.191V433.619" stroke="black" stroke-width="3" stroke-miterlimit="10" stroke-linecap="round" stroke-linejoin="round"/>
<path d="M247.231 451.785H236.445V433.619H247.231C252.249 433.619 256.314 437.684 256.314 442.702C256.314 447.72 252.249 451.785 247.231 451.785Z" stroke="black" stroke-width="3" stroke-miterlimit="10" stroke-linecap="round" stroke-linejoin="round"/>
<path d="M236.445 467.24V451.785H248.348H251.901C256.314 451.785 259.885 455.356 259.885 459.769V461.966C259.885 463.981 259.134 465.83 257.889 467.24" stroke="black" stroke-width="3" stroke-miterlimit="10" stroke-linecap="round" stroke-linejoin="round"/>
<path d="M317 467.24H174V488.666H317V467.24Z" fill="black" stroke="black" stroke-width="3" stroke-miterlimit="10" stroke-linecap="round" stroke-linejoin="round"/>
<path d="M261.386 565.596L317 488.667H174L229.614 565.596H261.386Z" stroke="black" stroke-width="3" stroke-miterlimit="10" stroke-linecap="round" stroke-linejoin="round"/>
<path d="M261.367 624.909L229.632 605.059V565.596H261.367V624.909Z" stroke="black" stroke-width="3" stroke-miterlimit="10" stroke-linecap="round" stroke-linejoin="round"/>
<path d="M748.57 283.88C760.963 283.88 771.01 273.833 771.01 261.44C771.01 249.047 760.963 239 748.57 239C736.177 239 726.13 249.047 726.13 261.44C726.13 273.833 736.177 283.88 748.57 283.88Z" stroke="black" stroke-width="3" stroke-miterlimit="10" stroke-linecap="round" stroke-linejoin="round"/>
<path d="M743.32 250.93H740.25" stroke="black" stroke-width="3" stroke-miterlimit="10" stroke-linecap="round" stroke-linejoin="round"/>
<path d="M743.32 271.95H740.25" stroke="black" stroke-width="3" stroke-miterlimit="10" stroke-linecap="round" stroke-linejoin="round"/>
<path d="M745.5 247.2V250.93" stroke="black" stroke-width="3" stroke-miterlimit="10" stroke-linecap="round" stroke-linejoin="round"/>
<path d="M750.12 247.2V250.93" stroke="black" stroke-width="3" stroke-miterlimit="10" stroke-linecap="round" stroke-linejoin="round"/>
<path d="M745.5 271.95V275.68" stroke="black" stroke-width="3" stroke-miterlimit="10" stroke-linecap="round" stroke-linejoin="round"/>
<path d="M750.12 271.95V275.68" stroke="black" stroke-width="3" stroke-miterlimit="10" stroke-linecap="round" stroke-linejoin="round"/>
<path d="M749.57 261.44H743.32V250.93H749.57C752.47 250.93 754.83 253.28 754.83 256.19C754.83 259.09 752.47 261.44 749.57 261.44Z" stroke="black" stroke-width="3" stroke-miterlimit="10" stroke-linecap="round" stroke-linejoin="round"/>
<path d="M751.62 271.95H743.32V261.44H751.62C754.52 261.44 756.88 263.79 756.88 266.7C756.88 269.6 754.53 271.95 751.62 271.95Z" stroke="black" stroke-width="3" stroke-miterlimit="10" stroke-linecap="round" stroke-linejoin="round"/>
<path d="M665.33 243.09V385.83" stroke="black" stroke-width="3" stroke-miterlimit="10" stroke-linecap="round" stroke-linejoin="round"/>
<path d="M655.33 375.83H869.24" stroke="black" stroke-width="3" stroke-miterlimit="10" stroke-linecap="round" stroke-linejoin="round"/>
<path d="M652 256.42L665.33 243.09L678.66 256.42" stroke="black" stroke-width="3" stroke-miterlimit="10" stroke-linecap="round" stroke-linejoin="round"/>
<path d="M855.91 362.5L869.24 375.83L855.91 389.16" stroke="black" stroke-width="3" stroke-miterlimit="10" stroke-linecap="round" stroke-linejoin="round"/>
<path d="M823.15 257.84L833.99 256.42L774.3 336.84L740.64 305.57L718.64 327.26L686.78 317.69L665.33 336.84" stroke="black" stroke-width="3" stroke-miterlimit="10" stroke-linecap="round" stroke-linejoin="round"/>
<path d="M835.79 267.32L833.99 256.42" stroke="black" stroke-width="3" stroke-miterlimit="10" stroke-linecap="round" stroke-linejoin="round"/>
<path d="M704.03 359.72C710.348 359.72 715.47 354.598 715.47 348.28C715.47 341.962 710.348 336.84 704.03 336.84C697.712 336.84 692.59 341.962 692.59 348.28C692.59 354.598 697.712 359.72 704.03 359.72Z" fill="black"/>
<path d="M834.32 341.54C844.957 341.54 853.58 332.917 853.58 322.28C853.58 311.643 844.957 303.02 834.32 303.02C823.683 303.02 815.06 311.643 815.06 322.28C815.06 332.917 823.683 341.54 834.32 341.54Z" fill="black"/>
<path d="M837.402 635.108C857.374 635.108 873.565 618.918 873.565 598.946C873.565 578.973 857.374 562.783 837.402 562.783C817.43 562.783 801.239 578.973 801.239 598.946C801.239 618.918 817.43 635.108 837.402 635.108Z" stroke="black" stroke-width="3" stroke-miterlimit="10" stroke-linecap="round" stroke-linejoin="round"/>
<path d="M828.948 582.01H823.996" stroke="black" stroke-width="3" stroke-miterlimit="10" stroke-linecap="round" stroke-linejoin="round"/>
<path d="M828.948 615.894H823.996" stroke="black" stroke-width="3" stroke-miterlimit="10" stroke-linecap="round" stroke-linejoin="round"/>
<path d="M832.464 576.005V582.01" stroke="black" stroke-width="3" stroke-miterlimit="10" stroke-linecap="round" stroke-linejoin="round"/>
<path d="M839.904 576.004V582.009" stroke="black" stroke-width="3" stroke-miterlimit="10" stroke-linecap="round" stroke-linejoin="round"/>
<path d="M832.464 615.895V621.9" stroke="black" stroke-width="3" stroke-miterlimit="10" stroke-linecap="round" stroke-linejoin="round"/>
<path d="M839.904 615.894V621.9" stroke="black" stroke-width="3" stroke-miterlimit="10" stroke-linecap="round" stroke-linejoin="round"/>
<path d="M840.05 598.945H828.948V582.01H840.05C844.159 582.01 847.491 585.341 847.491 589.45V591.518C847.491 595.613 844.159 598.945 840.05 598.945Z" stroke="black" stroke-width="3" stroke-miterlimit="10" stroke-linecap="round" stroke-linejoin="round"/>
<path d="M843.355 615.895H828.948V598.959H843.355C847.464 598.959 850.796 602.291 850.796 606.399V608.467C850.796 612.563 847.464 615.895 843.355 615.895Z" stroke="black" stroke-width="3" stroke-miterlimit="10" stroke-linecap="round" stroke-linejoin="round"/>
<path d="M751.302 622.427L753.488 617.133L766.038 622.308L763.852 627.602" stroke="black" stroke-width="3" stroke-miterlimit="10" stroke-linecap="round" stroke-linejoin="round"/>
<path d="M755.74 647.291L728.585 709.621L718.55 705.486L743.19 642.115" stroke="black" stroke-width="3" stroke-miterlimit="10" stroke-linecap="round" stroke-linejoin="round"/>
<path d="M767.41 629.087L747.721 620.974L739.607 640.663L759.297 648.776L767.41 629.087Z" stroke="black" stroke-width="3" stroke-miterlimit="10" stroke-linecap="round" stroke-linejoin="round"/>
<path d="M760.968 644.736L805.098 662.923L796.749 652.374C793.048 647.699 788.347 643.919 782.987 641.312L765.814 632.976L760.968 644.736Z" fill="black" stroke="black" stroke-width="3" stroke-miterlimit="10" stroke-linecap="round" stroke-linejoin="round"/>
<path d="M741.28 636.61L697.149 618.423L710.516 616.817C716.429 616.105 722.434 616.738 728.071 618.66L746.139 624.837L741.28 636.61Z" fill="black" stroke="black" stroke-width="3" stroke-miterlimit="10" stroke-linecap="round" stroke-linejoin="round"/>
<path d="M720.867 663.659H672.352C657.8 663.659 646 651.86 646 637.308C646 622.756 657.8 610.956 672.352 610.956C673.932 610.956 675.486 611.101 676.987 611.364" stroke="black" stroke-width="3" stroke-miterlimit="10" stroke-linecap="round" stroke-linejoin="round"/>
<path d="M683.427 621.386C680.701 618.502 678.502 615.104 676.987 611.351C675.473 607.624 674.63 603.529 674.63 599.262C674.63 581.457 689.05 567.036 706.855 567.036C723.817 567.036 737.711 580.127 738.988 596.76C743.229 594.929 747.891 593.915 752.803 593.915C772.056 593.915 787.675 609.534 787.675 628.787" stroke="black" stroke-width="3" stroke-miterlimit="10" stroke-linecap="round" stroke-linejoin="round"/>
<path d="M757.188 569.13C765.232 569.13 771.753 562.609 771.753 554.565C771.753 546.521 765.232 540 757.188 540C749.144 540 742.623 546.521 742.623 554.565C742.623 562.609 749.144 569.13 757.188 569.13Z" stroke="black" stroke-width="3" stroke-miterlimit="10" stroke-linecap="round" stroke-linejoin="round"/>
<path d="M776.6 691.012C782.724 691.012 787.689 686.048 787.689 679.924C787.689 673.8 782.724 668.835 776.6 668.835C770.476 668.835 765.512 673.8 765.512 679.924C765.512 686.048 770.476 691.012 776.6 691.012Z" fill="black"/>
<path d="M505.388 313.811H481.116C469.667 313.811 456.766 316.722 441.139 335.206L410.585 370.323L437.744 412.611" stroke="black" stroke-width="3" stroke-linecap="round" stroke-linejoin="round"/>
<path d="M536.655 314.01L565.561 314.264C573.276 315.421 590.788 321.67 599.12 337.408C602.63 344.038 609.413 358.705 617.01 375.595M617.01 375.595C626.418 396.51 637.076 420.832 644.318 437.524C645.715 440.745 645.314 444.458 643.27 447.312L599.352 508.614C594.369 515.57 595.177 525.137 595.205 533.693C595.214 536.372 594.793 539.178 593.846 542.018C591.069 550.349 584.93 554.507 580.302 554.507L576.553 504.836L609.535 442.713L575.976 401.053L617.01 375.595ZM574.122 379.278L575.976 499.415" stroke="black" stroke-width="3" stroke-linecap="round" stroke-linejoin="round"/>
<path d="M454.471 365.885L447.528 494.334H575.286" stroke="black" stroke-width="3" stroke-linecap="round" stroke-linejoin="round"/>
<path d="M447.528 495.491L431.413 806.93L496.822 811.26L512.331 547.565L530.543 812.562L601.132 807.933L575.977 498.962" stroke="black" stroke-width="3" stroke-linecap="round" stroke-linejoin="round"/>
<path d="M415.304 377.922L403.554 386.714L382.725 316.126L391.749 292.97C391.364 288.341 387.585 283.03 379.253 294.139C381.182 285.267 377.978 261.236 367.794 261.236C355.065 261.236 345.358 280.356 350.323 296.453L361.895 320.754L372.31 412.173C372.31 418.967 380.013 431.297 387.32 434.006C394.736 436.756 399.801 434.006 407.519 428.341L434.537 408.054" stroke="black" stroke-width="3" stroke-linecap="round" stroke-linejoin="round"/>
<path d="M366.56 269.89C368.448 274.297 372.295 284.828 372.569 291.697" stroke="black" stroke-width="3"/>
<path d="M357.55 278.864C359.439 283.272 363.285 293.803 363.56 300.671" stroke="black" stroke-width="3"/>
<path d="M493.242 314.093C493.368 320.693 500.117 339.014 519.405 339.014C538.789 339.014 545.219 321.3 547.54 314.093" stroke="black" stroke-width="3" stroke-linecap="round" stroke-linejoin="round"/>
<path d="M505.407 313.756L506.254 284.397" stroke="black" stroke-width="3" stroke-linecap="round" stroke-linejoin="round"/>
<path d="M536.618 313.46L535.765 284.13" stroke="black" stroke-width="3" stroke-linecap="round" stroke-linejoin="round"/>
<path d="M493.151 251.578C494.33 259.699 495.874 287.454 520.535 288.32C545.197 289.187 549.117 257.897 550.738 250.85" stroke="black" stroke-width="3" stroke-linecap="round" stroke-linejoin="round"/>
<path d="M437.824 412.689L452.875 400.059" stroke="black" stroke-width="3" stroke-linecap="round" stroke-linejoin="round"/>
<path d="M496.464 218.947C481.795 219.925 488.056 242.379 493.02 253.484C496.587 248.263 495.261 241.698 496.464 232.88C497.426 225.825 502.884 223.557 505.493 223.305C511.439 227.663 520.98 231.998 528.447 232.88C534.42 233.585 541.906 231.494 544.902 230.36C547.805 232.754 547.193 240.186 547.193 244.721C547.193 248.349 549.722 252.075 550.986 253.484C551.8 251.865 554.51 247.067 556.759 239.307C559.008 231.547 555.303 222.401 553.429 218.988L558.36 214.368C558.36 214.368 549.536 207.694 544.541 204.591C539.546 201.489 532.845 197 519.346 197C505.225 197 498.526 212.556 496.464 218.947Z" fill="black"/>
<path d="M535.809 284.13C528.928 287.68 526.029 288.634 520.465 287.68L536.467 305.156L535.809 284.13Z" fill="black"/>
<path d="M446.753 508.665H576.954" stroke="black" stroke-width="3" stroke-linecap="round" stroke-linejoin="round"/>
<path d="M498.632 494.935V508.525" stroke="black" stroke-width="3" stroke-linecap="round" stroke-linejoin="round"/>
<path d="M522.405 494.935V508.525" stroke="black" stroke-width="3" stroke-linecap="round" stroke-linejoin="round"/>
<path d="M472.146 508.707L471.185 523.614C470.573 533.093 465.509 541.722 457.532 546.878L443.783 555.764" stroke="black" stroke-width="3" stroke-linecap="round" stroke-linejoin="round"/>
<path d="M553.871 508.707L554.83 523.577C555.443 533.077 560.528 541.722 568.534 546.873L580.576 554.623" stroke="black" stroke-width="3" stroke-linecap="round" stroke-linejoin="round"/>
<path d="M616.604 840.233C634.418 840.629 643.325 855.573 645.552 862.996H544.605V840.233C561.182 840.068 598.79 839.837 616.604 840.233Z" fill="black"/>
<path d="M617.33 840.654V848.522" stroke="white" stroke-width="2" stroke-linecap="round" stroke-linejoin="round"/>
<path d="M608.441 840.654V848.522" stroke="white" stroke-width="2" stroke-linecap="round" stroke-linejoin="round"/>
<path d="M599.554 840.654V848.522" stroke="white" stroke-width="2" stroke-linecap="round" stroke-linejoin="round"/>
<path d="M590.666 840.654V848.522" stroke="white" stroke-width="2" stroke-linecap="round" stroke-linejoin="round"/>
<path d="M581.494 809.348L587.168 840.654" stroke="black" stroke-width="3" stroke-linecap="round" stroke-linejoin="round"/>
<path d="M548.411 811.417L549.431 840.654" stroke="black" stroke-width="3" stroke-linecap="round" stroke-linejoin="round"/>
<path d="M608.501 840.654C615.702 837.746 627.945 829.852 619.303 821.542C610.661 813.233 608.501 830.821 608.501 840.654ZM608.501 840.654C607.808 834.145 604.263 821.708 595.621 824.035C586.979 826.362 600.607 836.084 608.501 840.654Z" stroke="black" stroke-width="3" stroke-linecap="round" stroke-linejoin="round"/>
<path d="M418.845 840.233C401.03 840.629 392.123 855.573 389.896 862.996H490.843V840.233C474.266 840.068 436.659 839.837 418.845 840.233Z" fill="black"/>
<path d="M418.118 840.654V848.522" stroke="white" stroke-width="2" stroke-linecap="round" stroke-linejoin="round"/>
<path d="M427.007 840.654V848.522" stroke="white" stroke-width="2" stroke-linecap="round" stroke-linejoin="round"/>
<path d="M435.895 840.654V848.522" stroke="white" stroke-width="2" stroke-linecap="round" stroke-linejoin="round"/>
<path d="M444.782 840.654V848.522" stroke="white" stroke-width="2" stroke-linecap="round" stroke-linejoin="round"/>
<path d="M453.954 809.348L448.28 840.654" stroke="black" stroke-width="3" stroke-linecap="round" stroke-linejoin="round"/>
<path d="M487.038 811.417L486.018 840.654" stroke="black" stroke-width="3" stroke-linecap="round" stroke-linejoin="round"/>
<path d="M426.948 840.654C419.746 837.746 407.503 829.852 416.145 821.542C424.787 813.233 426.948 830.821 426.948 840.654ZM426.948 840.654C427.64 834.145 431.185 821.708 439.827 824.035C448.469 826.362 434.842 836.084 426.948 840.654Z" stroke="black" stroke-width="3" stroke-linecap="round" stroke-linejoin="round"/>
<path d="M95 863H930" stroke="black" stroke-width="3.10138"/>
<path d="M888.369 778.001H689V842.549H888.369V778.001Z" stroke="black" stroke-width="3" stroke-miterlimit="10" stroke-linecap="round" stroke-linejoin="round"/>
<path d="M716.502 778V842.549" stroke="black" stroke-width="3" stroke-miterlimit="10" stroke-linecap="round" stroke-linejoin="round"/>
<path d="M745.375 778V842.548" stroke="black" stroke-width="3" stroke-miterlimit="10" stroke-linecap="round" stroke-linejoin="round"/>
<path d="M774.248 778V842.548" stroke="black" stroke-width="3" stroke-miterlimit="10" stroke-linecap="round" stroke-linejoin="round"/>
<path d="M803.121 778V842.548" stroke="black" stroke-width="3" stroke-miterlimit="10" stroke-linecap="round" stroke-linejoin="round"/>
<path d="M831.994 778V842.548" stroke="black" stroke-width="3" stroke-miterlimit="10" stroke-linecap="round" stroke-linejoin="round"/>
<path d="M860.866 778V842.548" stroke="black" stroke-width="3" stroke-miterlimit="10" stroke-linecap="round" stroke-linejoin="round"/>
<path d="M689 810.274H888.369" stroke="black" stroke-width="3" stroke-miterlimit="10" stroke-linecap="round" stroke-linejoin="round"/>
<path d="M747.114 862.88L759.806 843.209" stroke="black" stroke-width="3" stroke-miterlimit="10" stroke-linecap="round" stroke-linejoin="round"/>
<path d="M830.243 862.88L817.552 843.208" stroke="black" stroke-width="3" stroke-miterlimit="10" stroke-linecap="round" stroke-linejoin="round"/>
<path d="M803.121 778H774.248V810.274H803.121V778Z" fill="black"/>
<path d="M860.867 810.274H831.994V842.548H860.867V810.274Z" fill="black"/>
<path d="M745.375 810.274H716.502V842.548H745.375V810.274Z" fill="black"/>
<path d="M237.376 710.295H168.982V824.923H237.376V710.295Z" stroke="black" stroke-width="3" stroke-miterlimit="10" stroke-linecap="round" stroke-linejoin="round"/>
<path d="M203.178 761.823C212.336 761.823 219.761 754.399 219.761 745.241C219.761 736.083 212.336 728.658 203.178 728.658C194.02 728.658 186.596 736.083 186.596 745.241C186.596 754.399 194.02 761.823 203.178 761.823Z" stroke="black" stroke-width="3" stroke-miterlimit="10" stroke-linecap="round" stroke-linejoin="round"/>
<path d="M185.974 762.446L220.392 728.027" stroke="black" stroke-width="3" stroke-miterlimit="10" stroke-linecap="round" stroke-linejoin="round"/>
<path d="M185.974 728.027L220.392 762.446" stroke="black" stroke-width="3" stroke-miterlimit="10" stroke-linecap="round" stroke-linejoin="round"/>
<path d="M203.179 811.128C212.337 811.128 219.762 803.704 219.762 794.545C219.762 785.387 212.337 777.963 203.179 777.963C194.021 777.963 186.597 785.387 186.597 794.545C186.597 803.704 194.021 811.128 203.179 811.128Z" stroke="black" stroke-width="3" stroke-miterlimit="10" stroke-linecap="round" stroke-linejoin="round"/>
<path d="M185.974 811.758L220.392 777.332" stroke="black" stroke-width="3" stroke-miterlimit="10" stroke-linecap="round" stroke-linejoin="round"/>
<path d="M185.974 777.332L220.392 811.758" stroke="black" stroke-width="3" stroke-miterlimit="10" stroke-linecap="round" stroke-linejoin="round"/>
<path d="M320.826 744.397H252.433V824.923H320.826V744.397Z" stroke="black" stroke-width="3" stroke-miterlimit="10" stroke-linecap="round" stroke-linejoin="round"/>
<path d="M342.763 744.397H320.826V824.923H342.763V744.397Z" fill="black" stroke="black" stroke-width="3" stroke-miterlimit="10" stroke-linecap="round" stroke-linejoin="round"/>
<path d="M286.629 801.247C295.788 801.247 303.212 793.823 303.212 784.665C303.212 775.506 295.788 768.082 286.629 768.082C277.471 768.082 270.047 775.506 270.047 784.665C270.047 793.823 277.471 801.247 286.629 801.247Z" stroke="black" stroke-width="3" stroke-miterlimit="10" stroke-linecap="round" stroke-linejoin="round"/>
<path d="M269.416 801.878L303.843 767.451" stroke="black" stroke-width="3" stroke-miterlimit="10" stroke-linecap="round" stroke-linejoin="round"/>
<path d="M269.416 767.451L303.843 801.878" stroke="black" stroke-width="3" stroke-miterlimit="10" stroke-linecap="round" stroke-linejoin="round"/>
<path d="M237.376 710.294H264.871V744.397" stroke="black" stroke-width="3" stroke-miterlimit="10" stroke-linecap="round" stroke-linejoin="round"/>
<path d="M237.376 824.931H252.432" stroke="black" stroke-width="3" stroke-miterlimit="10" stroke-linecap="round" stroke-linejoin="round"/>
<path d="M264.87 727.346H292.979L311.531 708.794" stroke="black" stroke-width="3" stroke-miterlimit="10" stroke-linecap="round" stroke-linejoin="round"/>
<path d="M117.614 735.445L144.769 754.082H167.225" stroke="black" stroke-width="3" stroke-miterlimit="10" stroke-linecap="round" stroke-linejoin="round"/>
<path d="M113.147 737.108C116.542 737.108 119.294 734.356 119.294 730.961C119.294 727.566 116.542 724.814 113.147 724.814C109.752 724.814 107 727.566 107 730.961C107 734.356 109.752 737.108 113.147 737.108Z" fill="black"/>
<path d="M316.221 710.294C319.616 710.294 322.368 707.542 322.368 704.147C322.368 700.752 319.616 698 316.221 698C312.826 698 310.074 700.752 310.074 704.147C310.074 707.542 312.826 710.294 316.221 710.294Z" fill="black"/>
<path d="M342.762 771.756H367.273L391.64 747.389" stroke="black" stroke-width="3" stroke-miterlimit="10" stroke-linecap="round" stroke-linejoin="round"/>
<path d="M395.783 748.702C399.178 748.702 401.93 745.95 401.93 742.555C401.93 739.16 399.178 736.408 395.783 736.408C392.388 736.408 389.636 739.16 389.636 742.555C389.636 745.95 392.388 748.702 395.783 748.702Z" fill="black"/>
<path d="M117.614 807.811L144.769 789.174H167.225" stroke="black" stroke-width="3" stroke-miterlimit="10" stroke-linecap="round" stroke-linejoin="round"/>
<path d="M113.147 818.442C116.542 818.442 119.294 815.69 119.294 812.295C119.294 808.9 116.542 806.148 113.147 806.148C109.752 806.148 107 808.9 107 812.295C107 815.69 109.752 818.442 113.147 818.442Z" fill="black"/>
<path d="M113.147 777.945C116.542 777.945 119.294 775.193 119.294 771.798C119.294 768.403 116.542 765.651 113.147 765.651C109.752 765.651 107 768.403 107 771.798C107 775.193 109.752 777.945 113.147 777.945Z" fill="black"/>
<path d="M168.803 771.799H119.294" stroke="black" stroke-width="3" stroke-miterlimit="10" stroke-linecap="round" stroke-linejoin="round"/>
<path d="M395.783 800.692C399.178 800.692 401.93 797.94 401.93 794.545C401.93 791.15 399.178 788.398 395.783 788.398C392.388 788.398 389.636 791.15 389.636 794.545C389.636 797.94 392.388 800.692 395.783 800.692Z" fill="black"/>
<path d="M342.762 794.545H389.636" stroke="black" stroke-width="3" stroke-miterlimit="10" stroke-linecap="round" stroke-linejoin="round"/>
<path d="M264.87 710.294H252.431H249.038H237.375V824.931H252.431V744.397H264.87V710.294Z" fill="black"/>
<path d="M190 826V863" stroke="black" stroke-width="3"/>
<path d="M231 826V863" stroke="black" stroke-width="3"/>
<path d="M272 825V863" stroke="black" stroke-width="3"/>
<path d="M313 825V862" stroke="black" stroke-width="3"/>
<rect x="186" y="291" width="24" height="24" fill="black"/>
<rect x="234" y="291" width="24" height="24" fill="black"/>
<rect x="234" y="339" width="24" height="24" fill="black"/>
<rect x="234" y="243" width="24" height="24" fill="black"/>
<rect x="282" y="243" width="24" height="24" fill="black"/>
<rect x="186" y="243" width="24" height="24" fill="black"/>
<path d="M695.554 478C704.697 478 712.108 470.588 712.108 461.446C712.108 452.303 704.697 444.892 695.554 444.892C686.412 444.892 679 452.303 679 461.446C679 470.588 686.412 478 695.554 478Z" stroke="black" stroke-width="3" stroke-miterlimit="10" stroke-linecap="round" stroke-linejoin="round"/>
<path d="M766.5 478C775.643 478 783.054 470.588 783.054 461.446C783.054 452.303 775.643 444.892 766.5 444.892C757.358 444.892 749.946 452.303 749.946 461.446C749.946 470.588 757.358 478 766.5 478Z" stroke="black" stroke-width="3" stroke-miterlimit="10" stroke-linecap="round" stroke-linejoin="round"/>
<path d="M837.446 478C846.588 478 854 470.588 854 461.446C854 452.303 846.588 444.892 837.446 444.892C828.303 444.892 820.892 452.303 820.892 461.446C820.892 470.588 828.303 478 837.446 478Z" stroke="black" stroke-width="3" stroke-miterlimit="10" stroke-linecap="round" stroke-linejoin="round"/>
<path d="M712.108 462.234H749.946" stroke="black" stroke-width="3"/>
<path d="M784.631 462.234H822.469" stroke="black" stroke-width="3"/>
</svg>
