<svg width="1024" height="1024" viewBox="0 0 1024 1024" fill="none" xmlns="http://www.w3.org/2000/svg">
<path opacity="0.04" d="M481.397 794.051C669.188 794.051 821.423 641.816 821.423 454.025C821.423 266.235 669.188 114 481.397 114C293.606 114 141.372 266.235 141.372 454.025C141.372 641.816 293.606 794.051 481.397 794.051Z" fill="black"/>
<path d="M794.578 355.421C808.766 355.421 820.268 343.919 820.268 329.731C820.268 315.543 808.766 304.041 794.578 304.041C780.389 304.041 768.888 315.543 768.888 329.731C768.888 343.919 780.389 355.421 794.578 355.421Z" stroke="black" stroke-width="3" stroke-miterlimit="10" stroke-linecap="round" stroke-linejoin="round"/>
<path d="M788.567 317.699H785.053" stroke="black" stroke-width="3" stroke-miterlimit="10" stroke-linecap="round" stroke-linejoin="round"/>
<path d="M788.567 341.763H785.053" stroke="black" stroke-width="3" stroke-miterlimit="10" stroke-linecap="round" stroke-linejoin="round"/>
<path d="M791.062 313.43V317.7" stroke="black" stroke-width="3" stroke-miterlimit="10" stroke-linecap="round" stroke-linejoin="round"/>
<path d="M796.352 313.429V317.7" stroke="black" stroke-width="3" stroke-miterlimit="10" stroke-linecap="round" stroke-linejoin="round"/>
<path d="M791.062 341.764V346.034" stroke="black" stroke-width="3" stroke-miterlimit="10" stroke-linecap="round" stroke-linejoin="round"/>
<path d="M796.352 341.764V346.034" stroke="black" stroke-width="3" stroke-miterlimit="10" stroke-linecap="round" stroke-linejoin="round"/>
<path d="M795.723 329.731H788.567V317.699H795.723C799.043 317.699 801.744 320.39 801.744 323.721C801.744 327.041 799.043 329.731 795.723 329.731Z" stroke="black" stroke-width="3" stroke-miterlimit="10" stroke-linecap="round" stroke-linejoin="round"/>
<path d="M798.069 341.764H788.567V329.732H798.069C801.389 329.732 804.091 332.422 804.091 335.754C804.091 339.074 801.401 341.764 798.069 341.764Z" stroke="black" stroke-width="3" stroke-miterlimit="10" stroke-linecap="round" stroke-linejoin="round"/>
<path d="M699.282 308.723V472.136" stroke="black" stroke-width="3" stroke-miterlimit="10" stroke-linecap="round" stroke-linejoin="round"/>
<path d="M687.834 460.688H932.724" stroke="black" stroke-width="3" stroke-miterlimit="10" stroke-linecap="round" stroke-linejoin="round"/>
<path d="M684.021 323.984L699.282 308.723L714.543 323.984" stroke="black" stroke-width="3" stroke-miterlimit="10" stroke-linecap="round" stroke-linejoin="round"/>
<path d="M917.464 445.427L932.725 460.688L917.464 475.949" stroke="black" stroke-width="3" stroke-miterlimit="10" stroke-linecap="round" stroke-linejoin="round"/>
<path d="M879.959 325.61L892.369 323.984L824.034 416.051L785.499 380.252L760.313 405.084L723.839 394.128L699.282 416.051" stroke="black" stroke-width="3" stroke-miterlimit="10" stroke-linecap="round" stroke-linejoin="round"/>
<path d="M894.43 336.463L892.369 323.984" stroke="black" stroke-width="3" stroke-miterlimit="10" stroke-linecap="round" stroke-linejoin="round"/>
<path d="M743.586 442.245C750.819 442.245 756.683 436.381 756.683 429.148C756.683 421.915 750.819 416.051 743.586 416.051C736.353 416.051 730.489 421.915 730.489 429.148C730.489 436.381 736.353 442.245 743.586 442.245Z" fill="black"/>
<path d="M892.747 421.432C904.924 421.432 914.796 411.56 914.796 399.383C914.796 387.205 904.924 377.333 892.747 377.333C880.569 377.333 870.697 387.205 870.697 399.383C870.697 411.56 880.569 421.432 892.747 421.432Z" fill="black"/>
<path d="M208.917 749.38C227.463 749.38 227.463 772.276 246.021 772.276C264.567 772.276 264.567 749.38 283.125 749.38C301.671 749.38 301.671 772.276 320.229 772.276C338.786 772.276 338.786 749.38 357.332 749.38C375.879 749.38 375.89 772.276 394.436 772.276" stroke="black" stroke-width="3" stroke-miterlimit="10" stroke-linecap="round" stroke-linejoin="round"/>
<path d="M208.917 789.597C227.463 789.597 227.463 812.494 246.021 812.494C264.567 812.494 264.567 789.597 283.125 789.597C301.671 789.597 301.671 812.494 320.229 812.494C338.786 812.494 338.786 789.597 357.332 789.597C375.879 789.597 375.89 812.494 394.436 812.494" stroke="black" stroke-width="3" stroke-miterlimit="10" stroke-linecap="round" stroke-linejoin="round"/>
<path d="M201.899 552.927H97.869C94.0796 552.927 91 549.847 91 546.058V494.083C91 490.294 94.0796 487.214 97.869 487.214H201.899C205.689 487.214 208.768 490.294 208.768 494.083V546.058C208.768 549.847 205.689 552.927 201.899 552.927Z" fill="white" stroke="black" stroke-width="3" stroke-miterlimit="10" stroke-linecap="round" stroke-linejoin="round"/>
<path d="M149.878 543.951C163.067 543.951 173.759 533.259 173.759 520.07C173.759 506.881 163.067 496.189 149.878 496.189C136.689 496.189 125.997 506.881 125.997 520.07C125.997 533.259 136.689 543.951 149.878 543.951Z" stroke="black" stroke-width="3" stroke-miterlimit="10" stroke-linecap="round" stroke-linejoin="round"/>
<path d="M144.303 508.885H141.029" stroke="black" stroke-width="3" stroke-miterlimit="10" stroke-linecap="round" stroke-linejoin="round"/>
<path d="M144.303 531.255H141.029" stroke="black" stroke-width="3" stroke-miterlimit="10" stroke-linecap="round" stroke-linejoin="round"/>
<path d="M146.616 504.914V508.886" stroke="black" stroke-width="3" stroke-miterlimit="10" stroke-linecap="round" stroke-linejoin="round"/>
<path d="M151.539 504.912V508.885" stroke="black" stroke-width="3" stroke-miterlimit="10" stroke-linecap="round" stroke-linejoin="round"/>
<path d="M146.616 531.255V535.227" stroke="black" stroke-width="3" stroke-miterlimit="10" stroke-linecap="round" stroke-linejoin="round"/>
<path d="M151.539 531.255V535.227" stroke="black" stroke-width="3" stroke-miterlimit="10" stroke-linecap="round" stroke-linejoin="round"/>
<path d="M152.031 520.07H144.304V508.885H152.031C154.527 508.885 156.542 510.911 156.542 513.395V515.548C156.542 518.043 154.527 520.07 152.031 520.07Z" stroke="black" stroke-width="3" stroke-miterlimit="10" stroke-linecap="round" stroke-linejoin="round"/>
<path d="M154.218 531.255H144.304V520.07H154.218C156.714 520.07 158.729 522.097 158.729 524.581V526.733C158.729 529.24 156.714 531.255 154.218 531.255Z" stroke="black" stroke-width="3" stroke-miterlimit="10" stroke-linecap="round" stroke-linejoin="round"/>
<path d="M224.349 507.992V561.238C224.349 564.684 221.556 567.478 218.11 567.478H112.82" stroke="black" stroke-width="3" stroke-miterlimit="10" stroke-linecap="round" stroke-linejoin="round"/>
<path d="M228.688 256.466L193.096 278.717L157.503 256.466L193.096 234.23L228.688 256.466Z" stroke="black" stroke-width="3" stroke-miterlimit="10" stroke-linecap="round" stroke-linejoin="round"/>
<path d="M193.096 319.037V278.717L228.688 256.466V296.786L193.096 319.037ZM193.096 319.037L157.503 296.786V256.466" stroke="black" stroke-width="3" stroke-miterlimit="10" stroke-linecap="round" stroke-linejoin="round"/>
<path d="M193.096 319.067L157.503 341.303L121.91 319.067L157.503 296.816L193.096 319.067Z" stroke="black" stroke-width="3" stroke-miterlimit="10" stroke-linecap="round" stroke-linejoin="round"/>
<path d="M157.503 381.624V341.303L193.096 319.067V359.373L157.503 381.624ZM157.503 381.624L121.91 359.373V319.067" stroke="black" stroke-width="3" stroke-miterlimit="10" stroke-linecap="round" stroke-linejoin="round"/>
<path d="M264.281 358.649L228.688 380.885L193.096 358.649L228.688 336.398L264.281 358.649Z" stroke="black" stroke-width="3" stroke-miterlimit="10" stroke-linecap="round" stroke-linejoin="round"/>
<path d="M228.688 421.206V380.885L264.281 358.649V398.955L228.688 421.206ZM228.688 421.206L193.096 398.955V358.649" stroke="black" stroke-width="3" stroke-miterlimit="10" stroke-linecap="round" stroke-linejoin="round"/>
<path d="M299.875 295.25L264.282 317.501L228.689 295.25L264.282 272.999L299.875 295.25Z" stroke="black" stroke-width="3" stroke-miterlimit="10" stroke-linecap="round" stroke-linejoin="round"/>
<path d="M228.688 295.25V335.571L264.281 357.807L299.874 335.571V295.25L264.281 317.501V357.807" stroke="black" stroke-width="3" stroke-miterlimit="10" stroke-linecap="round" stroke-linejoin="round"/>
<path d="M228.688 255.314L193.096 277.55L157.503 255.314L193.096 233.063L228.688 255.314Z" fill="black"/>
<path d="M264.282 358.649L228.689 380.885L193.097 358.649L228.689 336.398L264.282 358.649Z" fill="black"/>
<path d="M481.203 287.671C479.692 287.224 478.043 287.076 476.349 287.282C471.231 287.9 466.984 291.895 466.091 296.978C465.37 301.1 466.755 304.923 469.365 307.545C470.442 308.633 470.728 310.27 470.029 311.632C466.412 318.684 460.894 327.74 455.147 340.791C438.375 378.891 427.041 419.75 380.744 430.374C340.607 439.59 314.035 401.249 332.81 365.748C348.804 335.513 383 328.495 404.522 304.477C424.133 282.599 426.95 248.861 455.067 233.578C463.183 229.17 472.674 227.613 481.581 230.074C502.497 235.833 505.485 258.1 495.685 274.345C492.056 280.355 488.072 284.442 484.992 286.881C483.916 287.728 482.497 288.06 481.203 287.671Z" fill="black"/>
<path d="M497.162 256.073C501.753 262.141 506.699 268.025 510.511 274.631C514.163 280.95 516.842 287.808 518.696 294.86C519.051 296.199 519.372 297.55 519.67 298.901C520.929 304.717 522.245 312.983 517.426 317.585C507.947 326.641 475.262 328.93 475.262 328.93" stroke="black" stroke-width="3" stroke-miterlimit="10" stroke-linecap="round" stroke-linejoin="round"/>
<path d="M493.27 326.571L487.5 357.802" stroke="black" stroke-width="3" stroke-miterlimit="10" stroke-linecap="round" stroke-linejoin="round"/>
<path d="M507.374 322.999L558.651 302.896L609.504 238.843L626.917 253.817L573.556 330.372L498.021 385.576" stroke="black" stroke-width="3" stroke-miterlimit="10" stroke-linecap="round" stroke-linejoin="round"/>
<path d="M612.068 241.053L626.917 201.304L629.893 204.27C632.011 206.376 632.824 209.455 632.023 212.329L629.55 221.19L631.76 223.182C636.453 227.395 637.197 234.47 633.5 239.587L624.616 251.86" stroke="black" stroke-width="3" stroke-miterlimit="10" stroke-linecap="round" stroke-linejoin="round"/>
<path d="M448.301 356.853C450.968 355.547 453.865 354.403 456.979 353.556C460.55 352.571 465.954 351.22 472.731 352.468C474.197 352.754 486.424 355.181 493.109 365.771C493.109 365.771 495.891 370.19 496.899 375.822C500.585 396.166 486.504 473.923 485.771 477.941C519.166 481.204 552.572 484.467 585.989 487.718C586.607 491.038 587.523 498.296 584.627 506.734C581.524 515.766 575.812 521.136 573.224 523.299C559.017 524.891 536.83 527.421 509.595 530.775C454.414 537.575 447.041 539.304 438.993 535.366C410.098 521.124 425.095 456.476 426.893 398.971" stroke="black" stroke-width="3" stroke-miterlimit="10" stroke-linecap="round" stroke-linejoin="round"/>
<path d="M586.629 490.958L606.985 487.661L619.623 475.709L621.375 481.193C622.829 485.737 621.581 490.706 618.147 494.026L613.361 498.663C611.518 500.449 610.087 502.612 609.16 505.016C606.904 510.855 601.524 514.896 595.284 515.423L577.391 519.212" stroke="black" stroke-width="3" stroke-miterlimit="10" stroke-linecap="round" stroke-linejoin="round"/>
<path d="M347.43 426.275L300.698 551.714C296.038 564.215 302.701 578.148 315.409 582.223C351.517 593.809 423.114 606.883 475.25 553.179V535.079" stroke="black" stroke-width="3" stroke-miterlimit="10" stroke-linecap="round" stroke-linejoin="round"/>
<path d="M307.979 578.228C304.762 590.26 302.827 607.638 310.223 625.452C327.509 667.135 379.29 671.291 383.686 671.566C395.398 672.31 404.877 670.49 418.535 666.746C442.885 660.072 477.951 648.005 519.36 624.903C518.226 701.022 515.525 777.119 514.38 853.215C524.924 858.882 535.467 864.538 546 870.205C558.307 792.345 568.553 747.559 578.399 685.201" stroke="black" stroke-width="3" stroke-miterlimit="10" stroke-linecap="round" stroke-linejoin="round"/>
<path d="M475.25 550.924L499.074 558.903L626.917 762.442L657.094 747.216L558.41 524.993" stroke="black" stroke-width="3" stroke-miterlimit="10" stroke-linecap="round" stroke-linejoin="round"/>
<path d="M573.865 486.39L606.996 437.735L636.121 447.294L615.296 479.819" stroke="black" stroke-width="3" stroke-miterlimit="10" stroke-linecap="round" stroke-linejoin="round"/>
<path d="M605.028 216.885C602.876 212.947 601.64 208.437 601.64 203.628C601.64 188.379 614.004 176.026 629.241 176.026C644.479 176.026 656.843 188.391 656.843 203.628C656.843 212.959 652.218 221.201 645.132 226.204" stroke="black" stroke-width="3" stroke-miterlimit="10" stroke-linecap="round" stroke-linejoin="round"/>
<path d="M514.392 851.178L513.063 879.696L575.56 909.473L576.098 905.065C577.288 895.242 572.789 885.614 564.501 880.211L546.012 868.167L514.392 851.178Z" fill="black" stroke="black" stroke-width="3" stroke-miterlimit="10" stroke-linecap="round" stroke-linejoin="round"/>
<path d="M626.265 762.98L637.736 780.645L701.285 750.193C695.573 741.149 684.296 737.348 674.279 741.091L656.442 747.754L626.265 762.98Z" fill="black" stroke="black" stroke-width="3" stroke-miterlimit="10" stroke-linecap="round" stroke-linejoin="round"/>
<path d="M570.785 552.847L583.573 556.11C599.085 560.071 608.679 575.595 605.267 591.244L599.532 617.587" stroke="black" stroke-width="3" stroke-miterlimit="10" stroke-linecap="round" stroke-linejoin="round"/>
<path d="M345.483 514.117C346.01 518.662 347.727 527.935 354.573 536.842C365.781 551.427 382.209 553.98 385.827 554.461" stroke="black" stroke-width="3" stroke-miterlimit="10" stroke-linecap="round" stroke-linejoin="round"/>
<path d="M364.259 474.438C362.885 478.811 360.676 487.969 363.309 498.902C367.613 516.785 381.569 525.806 384.683 527.718" stroke="black" stroke-width="3" stroke-miterlimit="10" stroke-linecap="round" stroke-linejoin="round"/>
<path d="M486.526 670.662H269.353V706.804H486.526V670.662Z" fill="black"/>
<path d="M591.542 231.242C585.863 223.503 582.521 213.955 582.521 203.628C582.521 177.813 603.448 156.897 629.252 156.897C655.057 156.897 675.984 177.824 675.984 203.628C675.984 220.835 666.688 235.867 652.847 243.984" stroke="black" stroke-width="3" stroke-miterlimit="10" stroke-linecap="round" stroke-linejoin="round"/>
<path d="M621.971 381.226C610.706 381.226 601.57 390.362 601.57 401.627C601.57 412.892 610.706 422.028 621.971 422.028C633.236 422.028 642.372 412.892 642.372 401.627C642.372 390.362 633.236 381.226 621.971 381.226ZM626.333 404.97C622.085 404.97 618.64 401.524 618.64 397.276C618.64 393.029 622.085 389.583 626.333 389.583C630.58 389.583 634.026 393.029 634.026 397.276C634.026 401.524 630.58 404.97 626.333 404.97Z" fill="black"/>
<path d="M744.055 605.601L761.033 622.591L744.055 639.568L710.088 605.601L744.055 571.634L761.033 588.624L744.055 605.601Z" fill="black" stroke="black" stroke-width="3" stroke-miterlimit="10" stroke-linecap="round" stroke-linejoin="round"/>
<path d="M761.033 622.591L778.011 639.569L795 622.591L778.011 605.601" stroke="black" stroke-width="3" stroke-miterlimit="10" stroke-linecap="round" stroke-linejoin="round"/>
<path d="M761.033 588.624L778.011 571.634L795 588.624L778.011 605.601" stroke="black" stroke-width="3" stroke-miterlimit="10" stroke-linecap="round" stroke-linejoin="round"/>
<path d="M795 622.591L811.978 639.568L845.945 605.601L811.978 571.634L795 588.624" stroke="black" stroke-width="3" stroke-miterlimit="10" stroke-linecap="round" stroke-linejoin="round"/>
<path d="M637.289 435.021C630.271 435.021 624.593 440.711 624.593 447.718C624.593 454.724 630.282 460.414 637.289 460.414C644.307 460.414 649.985 454.724 649.985 447.718C649.985 440.711 644.307 435.021 637.289 435.021ZM642.372 448.736C640.471 448.736 638.937 447.202 638.937 445.302C638.937 443.401 640.471 441.867 642.372 441.867C644.272 441.867 645.806 443.401 645.806 445.302C645.806 447.202 644.272 448.736 642.372 448.736Z" fill="black"/>
<path d="M581.982 415.525C577.494 415.525 573.865 419.165 573.865 423.642C573.865 428.118 577.506 431.759 581.982 431.759C586.458 431.759 590.099 428.118 590.099 423.642C590.099 419.165 586.47 415.525 581.982 415.525ZM578.8 423.642C577.678 423.642 576.773 422.737 576.773 421.615C576.773 420.493 577.678 419.589 578.8 419.589C579.921 419.589 580.826 420.493 580.826 421.615C580.826 422.726 579.921 423.642 578.8 423.642Z" fill="black"/>
<path d="M606.264 451.781L619.418 456.303" stroke="black" stroke-width="3" stroke-miterlimit="10" stroke-linecap="round" stroke-linejoin="round"/>
<path d="M599.682 460.906L612.836 465.428" stroke="black" stroke-width="3" stroke-miterlimit="10" stroke-linecap="round" stroke-linejoin="round"/>
</svg>
