<svg width="1024" height="1024" viewBox="0 0 1024 1024" fill="none" xmlns="http://www.w3.org/2000/svg">
<path opacity="0.04" d="M516.09 776.18C686.243 776.18 824.18 638.243 824.18 468.09C824.18 297.936 686.243 160 516.09 160C345.936 160 208 297.936 208 468.09C208 638.243 345.936 776.18 516.09 776.18Z" fill="black"/>
<path d="M856.402 597.108C876.374 597.108 892.565 580.918 892.565 560.946C892.565 540.973 876.374 524.783 856.402 524.783C836.43 524.783 820.239 540.973 820.239 560.946C820.239 580.918 836.43 597.108 856.402 597.108Z" stroke="black" stroke-width="3" stroke-miterlimit="10" stroke-linecap="round" stroke-linejoin="round"/>
<path d="M847.948 544.01H842.996" stroke="black" stroke-width="3" stroke-miterlimit="10" stroke-linecap="round" stroke-linejoin="round"/>
<path d="M847.948 577.894H842.996" stroke="black" stroke-width="3" stroke-miterlimit="10" stroke-linecap="round" stroke-linejoin="round"/>
<path d="M851.464 538.005V544.01" stroke="black" stroke-width="3" stroke-miterlimit="10" stroke-linecap="round" stroke-linejoin="round"/>
<path d="M858.904 538.004V544.01" stroke="black" stroke-width="3" stroke-miterlimit="10" stroke-linecap="round" stroke-linejoin="round"/>
<path d="M851.464 577.895V583.9" stroke="black" stroke-width="3" stroke-miterlimit="10" stroke-linecap="round" stroke-linejoin="round"/>
<path d="M858.904 577.895V583.9" stroke="black" stroke-width="3" stroke-miterlimit="10" stroke-linecap="round" stroke-linejoin="round"/>
<path d="M859.05 560.945H847.948V544.01H859.05C863.159 544.01 866.491 547.341 866.491 551.45V553.518C866.491 557.613 863.159 560.945 859.05 560.945Z" stroke="black" stroke-width="3" stroke-miterlimit="10" stroke-linecap="round" stroke-linejoin="round"/>
<path d="M862.355 577.895H847.948V560.959H862.355C866.464 560.959 869.796 564.291 869.796 568.4V570.467C869.796 574.563 866.464 577.895 862.355 577.895Z" stroke="black" stroke-width="3" stroke-miterlimit="10" stroke-linecap="round" stroke-linejoin="round"/>
<path d="M770.302 584.427L772.488 579.133L785.038 584.308L782.852 589.602" stroke="black" stroke-width="3" stroke-miterlimit="10" stroke-linecap="round" stroke-linejoin="round"/>
<path d="M774.74 609.291L747.585 671.621L737.55 667.486L762.19 604.115" stroke="black" stroke-width="3" stroke-miterlimit="10" stroke-linecap="round" stroke-linejoin="round"/>
<path d="M786.41 591.087L766.721 582.974L758.607 602.663L778.297 610.776L786.41 591.087Z" stroke="black" stroke-width="3" stroke-miterlimit="10" stroke-linecap="round" stroke-linejoin="round"/>
<path d="M779.968 606.736L824.098 624.923L815.749 614.374C812.048 609.699 807.347 605.919 801.987 603.312L784.814 594.976L779.968 606.736Z" stroke="black" stroke-width="3" stroke-miterlimit="10" stroke-linecap="round" stroke-linejoin="round"/>
<path d="M760.28 598.61L716.149 580.423L729.516 578.817C735.429 578.105 741.434 578.738 747.071 580.66L765.139 586.837L760.28 598.61Z" stroke="black" stroke-width="3" stroke-miterlimit="10" stroke-linecap="round" stroke-linejoin="round"/>
<path d="M739.867 625.659H691.352C676.8 625.659 665 613.86 665 599.308C665 584.756 676.8 572.956 691.352 572.956C692.932 572.956 694.486 573.101 695.987 573.364" stroke="black" stroke-width="3" stroke-miterlimit="10" stroke-linecap="round" stroke-linejoin="round"/>
<path d="M702.427 583.386C699.701 580.502 697.502 577.104 695.987 573.351C694.473 569.624 693.63 565.528 693.63 561.262C693.63 543.457 708.05 529.036 725.855 529.036C742.817 529.036 756.711 542.127 757.988 558.759C762.229 556.929 766.891 555.915 771.803 555.915C791.056 555.915 806.675 571.534 806.675 590.787" stroke="black" stroke-width="3" stroke-miterlimit="10" stroke-linecap="round" stroke-linejoin="round"/>
<path d="M776.188 531.13C784.232 531.13 790.753 524.609 790.753 516.565C790.753 508.521 784.232 502 776.188 502C768.144 502 761.623 508.521 761.623 516.565C761.623 524.609 768.144 531.13 776.188 531.13Z" stroke="black" stroke-width="3" stroke-miterlimit="10" stroke-linecap="round" stroke-linejoin="round"/>
<path d="M795.6 653.012C801.724 653.012 806.689 648.048 806.689 641.924C806.689 635.8 801.724 630.835 795.6 630.835C789.476 630.835 784.512 635.8 784.512 641.924C784.512 648.048 789.476 653.012 795.6 653.012Z" fill="black"/>
<path d="M732.065 205L724.214 212.865L732.092 220.743" stroke="black" stroke-width="3" stroke-miterlimit="10" stroke-linecap="round" stroke-linejoin="round"/>
<path d="M724.214 212.865H740.218C749.126 212.865 756.346 220.085 756.346 228.993V242.458" stroke="black" stroke-width="3" stroke-miterlimit="10" stroke-linecap="round" stroke-linejoin="round"/>
<path d="M670.875 335.587L678.74 327.722L670.861 319.844" stroke="black" stroke-width="3" stroke-miterlimit="10" stroke-linecap="round" stroke-linejoin="round"/>
<path d="M678.741 327.722H662.736C653.828 327.722 646.608 320.503 646.608 311.595V298.13" stroke="black" stroke-width="3" stroke-miterlimit="10" stroke-linecap="round" stroke-linejoin="round"/>
<path d="M713.754 253.617C718.023 251.97 722.662 251.077 727.507 251.077C748.727 251.077 765.94 268.29 765.94 289.51C765.94 310.743 748.727 327.942 727.507 327.942C706.274 327.942 689.075 310.743 689.075 289.51C689.075 288.659 689.103 287.808 689.171 286.97" stroke="black" stroke-width="3" stroke-miterlimit="10" stroke-linecap="round" stroke-linejoin="round"/>
<path d="M675.432 289.509C696.658 289.509 713.864 272.303 713.864 251.077C713.864 229.852 696.658 212.645 675.432 212.645C654.207 212.645 637 229.852 637 251.077C637 272.303 654.207 289.509 675.432 289.509Z" stroke="black" stroke-width="3" stroke-miterlimit="10" stroke-linecap="round" stroke-linejoin="round"/>
<path d="M666.455 233.069H661.185" stroke="black" stroke-width="3" stroke-miterlimit="10" stroke-linecap="round" stroke-linejoin="round"/>
<path d="M666.455 269.086H661.185" stroke="black" stroke-width="3" stroke-miterlimit="10" stroke-linecap="round" stroke-linejoin="round"/>
<path d="M670.175 226.687V233.069" stroke="black" stroke-width="3" stroke-miterlimit="10" stroke-linecap="round" stroke-linejoin="round"/>
<path d="M678.094 226.687V233.069" stroke="black" stroke-width="3" stroke-miterlimit="10" stroke-linecap="round" stroke-linejoin="round"/>
<path d="M670.175 269.086V275.469" stroke="black" stroke-width="3" stroke-miterlimit="10" stroke-linecap="round" stroke-linejoin="round"/>
<path d="M678.094 269.086V275.468" stroke="black" stroke-width="3" stroke-miterlimit="10" stroke-linecap="round" stroke-linejoin="round"/>
<path d="M678.397 251.077H666.455V233.069H678.397C682.679 233.069 686.152 236.542 686.152 240.824V243.322C686.152 247.605 682.679 251.077 678.397 251.077Z" stroke="black" stroke-width="3" stroke-miterlimit="10" stroke-linecap="round" stroke-linejoin="round"/>
<path d="M681.924 269.086H666.455V251.078H681.924C686.207 251.078 689.679 254.55 689.679 258.833V261.331C689.665 265.613 686.193 269.086 681.924 269.086Z" stroke="black" stroke-width="3" stroke-miterlimit="10" stroke-linecap="round" stroke-linejoin="round"/>
<path d="M710.049 289.908L727.508 267.933V297.745L710.049 289.908Z" stroke="black" stroke-width="3" stroke-miterlimit="10" stroke-linecap="round" stroke-linejoin="round"/>
<path d="M744.981 289.908L727.508 267.933V297.745L744.981 289.908Z" stroke="black" stroke-width="3" stroke-miterlimit="10" stroke-linecap="round" stroke-linejoin="round"/>
<path d="M710.049 289.907L727.508 311.072L744.981 289.907" stroke="black" stroke-width="3" stroke-miterlimit="10" stroke-linecap="round" stroke-linejoin="round"/>
<path d="M727.508 311.073V297.745" stroke="black" stroke-width="3" stroke-miterlimit="10" stroke-linecap="round" stroke-linejoin="round"/>
<path d="M297.462 552.549H194.022C191.203 552.549 188.921 550.267 188.921 547.449V444.008C188.921 441.19 191.203 438.908 194.022 438.908H297.462C300.28 438.908 302.563 441.19 302.563 444.008V547.449C302.563 550.267 300.28 552.549 297.462 552.549Z" stroke="black" stroke-width="3" stroke-miterlimit="10" stroke-linecap="round" stroke-linejoin="round"/>
<path d="M220.085 410V438.908" stroke="black" stroke-width="3" stroke-miterlimit="10" stroke-linecap="round" stroke-linejoin="round"/>
<path d="M245.741 410V438.908" stroke="black" stroke-width="3" stroke-miterlimit="10" stroke-linecap="round" stroke-linejoin="round"/>
<path d="M271.385 410V438.908" stroke="black" stroke-width="3" stroke-miterlimit="10" stroke-linecap="round" stroke-linejoin="round"/>
<path d="M220.085 552.55V581.47" stroke="black" stroke-width="3" stroke-miterlimit="10" stroke-linecap="round" stroke-linejoin="round"/>
<path d="M245.741 552.55V581.47" stroke="black" stroke-width="3" stroke-miterlimit="10" stroke-linecap="round" stroke-linejoin="round"/>
<path d="M271.385 552.55V581.47" stroke="black" stroke-width="3" stroke-miterlimit="10" stroke-linecap="round" stroke-linejoin="round"/>
<path d="M331.47 470.085H302.562" stroke="black" stroke-width="3" stroke-miterlimit="10" stroke-linecap="round" stroke-linejoin="round"/>
<path d="M331.47 495.729H302.562" stroke="black" stroke-width="3" stroke-miterlimit="10" stroke-linecap="round" stroke-linejoin="round"/>
<path d="M331.47 521.385H302.562" stroke="black" stroke-width="3" stroke-miterlimit="10" stroke-linecap="round" stroke-linejoin="round"/>
<path d="M188.921 470.085H160" stroke="black" stroke-width="3" stroke-miterlimit="10" stroke-linecap="round" stroke-linejoin="round"/>
<path d="M188.921 495.729H160" stroke="black" stroke-width="3" stroke-miterlimit="10" stroke-linecap="round" stroke-linejoin="round"/>
<path d="M188.921 521.385H160" stroke="black" stroke-width="3" stroke-miterlimit="10" stroke-linecap="round" stroke-linejoin="round"/>
<path d="M222.814 495.116L245.525 461.337L268.656 495.728L222.814 495.116Z" stroke="black" stroke-width="3" stroke-miterlimit="10" stroke-linecap="round" stroke-linejoin="round"/>
<path d="M268.656 496.353L245.946 530.132L222.814 495.729L268.656 496.353Z" fill="black" stroke="black" stroke-width="3" stroke-miterlimit="10" stroke-linecap="round" stroke-linejoin="round"/>
<path d="M505.388 313.811H481.116C469.667 313.811 456.766 316.722 441.139 335.206L410.585 370.323L437.744 412.611" stroke="black" stroke-width="3" stroke-linecap="round" stroke-linejoin="round"/>
<path d="M536.655 314.01L565.561 314.264C573.276 315.421 590.788 321.67 599.12 337.408C602.63 344.038 609.413 358.705 617.01 375.595M617.01 375.595C626.418 396.51 637.076 420.833 644.318 437.524C645.715 440.745 645.314 444.458 643.27 447.312L599.352 508.614C594.369 515.57 595.177 525.137 595.205 533.693C595.214 536.372 594.793 539.178 593.846 542.018C591.069 550.349 584.93 554.507 580.302 554.507L576.553 504.836L609.535 442.713L575.976 401.054L617.01 375.595ZM574.122 379.278L575.976 499.415" stroke="black" stroke-width="3" stroke-linecap="round" stroke-linejoin="round"/>
<path d="M454.471 365.885L447.528 494.333H575.286" stroke="black" stroke-width="3" stroke-linecap="round" stroke-linejoin="round"/>
<path d="M447.528 495.491L431.413 806.93L496.822 811.26L512.331 547.565L530.543 812.562L601.132 807.933L575.977 498.962" stroke="black" stroke-width="3" stroke-linecap="round" stroke-linejoin="round"/>
<path d="M415.304 377.922L403.554 386.714L382.725 316.126L391.749 292.97C391.364 288.341 387.585 283.03 379.253 294.139C381.182 285.267 377.978 261.236 367.794 261.236C355.065 261.236 345.358 280.356 350.323 296.453L361.895 320.754L372.31 412.173C372.31 418.967 380.013 431.297 387.32 434.006C394.736 436.756 399.801 434.006 407.519 428.341L434.537 408.054" stroke="black" stroke-width="3" stroke-linecap="round" stroke-linejoin="round"/>
<path d="M366.56 269.89C368.448 274.297 372.295 284.828 372.569 291.697" stroke="black" stroke-width="3"/>
<path d="M357.55 278.865C359.439 283.272 363.285 293.803 363.56 300.671" stroke="black" stroke-width="3"/>
<path d="M493.242 314.093C493.368 320.693 500.117 339.014 519.405 339.014C538.789 339.014 545.219 321.3 547.54 314.093" stroke="black" stroke-width="3" stroke-linecap="round" stroke-linejoin="round"/>
<path d="M505.407 313.756L506.254 284.397" stroke="black" stroke-width="3" stroke-linecap="round" stroke-linejoin="round"/>
<path d="M536.618 313.46L535.765 284.13" stroke="black" stroke-width="3" stroke-linecap="round" stroke-linejoin="round"/>
<path d="M493.151 251.578C494.33 259.699 495.874 287.454 520.535 288.32C545.197 289.187 549.117 257.897 550.738 250.85" stroke="black" stroke-width="3" stroke-linecap="round" stroke-linejoin="round"/>
<path d="M437.824 412.688L452.875 400.059" stroke="black" stroke-width="3" stroke-linecap="round" stroke-linejoin="round"/>
<path d="M496.464 218.947C481.795 219.925 488.056 242.379 493.02 253.484C496.587 248.263 495.261 241.698 496.464 232.88C497.426 225.825 502.884 223.557 505.493 223.305C511.439 227.663 520.98 231.998 528.447 232.88C534.42 233.585 541.906 231.494 544.902 230.36C547.805 232.754 547.193 240.186 547.193 244.721C547.193 248.349 549.722 252.075 550.986 253.484C551.8 251.865 554.51 247.067 556.759 239.307C559.008 231.547 555.303 222.401 553.429 218.988L558.36 214.368C558.36 214.368 549.536 207.694 544.541 204.591C539.546 201.489 532.845 197 519.346 197C505.225 197 498.526 212.556 496.464 218.947Z" fill="black"/>
<path d="M535.809 284.13C528.928 287.68 526.029 288.633 520.465 287.68L536.467 305.156L535.809 284.13Z" fill="black"/>
<path d="M446.753 508.665H576.954" stroke="black" stroke-width="3" stroke-linecap="round" stroke-linejoin="round"/>
<path d="M498.632 494.936V508.525" stroke="black" stroke-width="3" stroke-linecap="round" stroke-linejoin="round"/>
<path d="M522.405 494.936V508.525" stroke="black" stroke-width="3" stroke-linecap="round" stroke-linejoin="round"/>
<path d="M472.146 508.708L471.185 523.614C470.573 533.093 465.509 541.722 457.532 546.878L443.783 555.765" stroke="black" stroke-width="3" stroke-linecap="round" stroke-linejoin="round"/>
<path d="M553.871 508.708L554.83 523.577C555.443 533.077 560.528 541.722 568.534 546.873L580.576 554.623" stroke="black" stroke-width="3" stroke-linecap="round" stroke-linejoin="round"/>
<path d="M616.604 840.233C634.418 840.629 643.325 855.573 645.552 862.996H544.605V840.233C561.182 840.068 598.79 839.837 616.604 840.233Z" fill="black"/>
<path d="M617.33 840.654V848.522" stroke="white" stroke-width="2" stroke-linecap="round" stroke-linejoin="round"/>
<path d="M608.441 840.654V848.522" stroke="white" stroke-width="2" stroke-linecap="round" stroke-linejoin="round"/>
<path d="M599.554 840.654V848.522" stroke="white" stroke-width="2" stroke-linecap="round" stroke-linejoin="round"/>
<path d="M590.666 840.654V848.522" stroke="white" stroke-width="2" stroke-linecap="round" stroke-linejoin="round"/>
<path d="M581.494 809.348L587.168 840.654" stroke="black" stroke-width="3" stroke-linecap="round" stroke-linejoin="round"/>
<path d="M548.411 811.417L549.431 840.654" stroke="black" stroke-width="3" stroke-linecap="round" stroke-linejoin="round"/>
<path d="M608.501 840.654C615.702 837.746 627.945 829.852 619.303 821.542C610.661 813.233 608.501 830.821 608.501 840.654ZM608.501 840.654C607.808 834.145 604.263 821.708 595.621 824.035C586.979 826.362 600.607 836.084 608.501 840.654Z" stroke="black" stroke-width="3" stroke-linecap="round" stroke-linejoin="round"/>
<path d="M418.845 840.233C401.03 840.629 392.123 855.573 389.896 862.996H490.843V840.233C474.266 840.068 436.659 839.837 418.845 840.233Z" fill="black"/>
<path d="M418.118 840.654V848.522" stroke="white" stroke-width="2" stroke-linecap="round" stroke-linejoin="round"/>
<path d="M427.007 840.654V848.522" stroke="white" stroke-width="2" stroke-linecap="round" stroke-linejoin="round"/>
<path d="M435.895 840.654V848.522" stroke="white" stroke-width="2" stroke-linecap="round" stroke-linejoin="round"/>
<path d="M444.782 840.654V848.522" stroke="white" stroke-width="2" stroke-linecap="round" stroke-linejoin="round"/>
<path d="M453.954 809.348L448.28 840.654" stroke="black" stroke-width="3" stroke-linecap="round" stroke-linejoin="round"/>
<path d="M487.038 811.417L486.018 840.654" stroke="black" stroke-width="3" stroke-linecap="round" stroke-linejoin="round"/>
<path d="M426.948 840.654C419.746 837.746 407.503 829.852 416.145 821.542C424.787 813.233 426.948 830.821 426.948 840.654ZM426.948 840.654C427.64 834.145 431.185 821.708 439.827 824.035C448.469 826.362 434.842 836.084 426.948 840.654Z" stroke="black" stroke-width="3" stroke-linecap="round" stroke-linejoin="round"/>
<path d="M95 863H930" stroke="black" stroke-width="3.10138"/>
<path d="M846.09 796H689V846.86H846.09V796Z" stroke="black" stroke-width="3" stroke-miterlimit="10" stroke-linecap="round" stroke-linejoin="round"/>
<path d="M710.67 796V846.86" stroke="black" stroke-width="3" stroke-miterlimit="10" stroke-linecap="round" stroke-linejoin="round"/>
<path d="M733.42 796V846.86" stroke="black" stroke-width="3" stroke-miterlimit="10" stroke-linecap="round" stroke-linejoin="round"/>
<path d="M756.17 796V846.86" stroke="black" stroke-width="3" stroke-miterlimit="10" stroke-linecap="round" stroke-linejoin="round"/>
<path d="M778.92 796V846.86" stroke="black" stroke-width="3" stroke-miterlimit="10" stroke-linecap="round" stroke-linejoin="round"/>
<path d="M801.67 796V846.86" stroke="black" stroke-width="3" stroke-miterlimit="10" stroke-linecap="round" stroke-linejoin="round"/>
<path d="M824.42 796V846.86" stroke="black" stroke-width="3" stroke-miterlimit="10" stroke-linecap="round" stroke-linejoin="round"/>
<path d="M689 821.43H846.09" stroke="black" stroke-width="3" stroke-miterlimit="10" stroke-linecap="round" stroke-linejoin="round"/>
<path d="M734.79 862.88L744.79 847.38" stroke="black" stroke-width="3" stroke-miterlimit="10" stroke-linecap="round" stroke-linejoin="round"/>
<path d="M800.29 862.88L790.29 847.38" stroke="black" stroke-width="3" stroke-miterlimit="10" stroke-linecap="round" stroke-linejoin="round"/>
<path d="M778.92 796H756.17V821.43H778.92V796Z" fill="black"/>
<path d="M824.42 821.43H801.67V846.86H824.42V821.43Z" fill="black"/>
<path d="M733.42 821.43H710.67V846.86H733.42V821.43Z" fill="black"/>
<path d="M328.09 796H171V846.86H328.09V796Z" stroke="black" stroke-width="3" stroke-miterlimit="10" stroke-linecap="round" stroke-linejoin="round"/>
<path d="M192.67 796V846.86" stroke="black" stroke-width="3" stroke-miterlimit="10" stroke-linecap="round" stroke-linejoin="round"/>
<path d="M215.42 796V846.86" stroke="black" stroke-width="3" stroke-miterlimit="10" stroke-linecap="round" stroke-linejoin="round"/>
<path d="M238.17 796V846.86" stroke="black" stroke-width="3" stroke-miterlimit="10" stroke-linecap="round" stroke-linejoin="round"/>
<path d="M260.92 796V846.86" stroke="black" stroke-width="3" stroke-miterlimit="10" stroke-linecap="round" stroke-linejoin="round"/>
<path d="M283.67 796V846.86" stroke="black" stroke-width="3" stroke-miterlimit="10" stroke-linecap="round" stroke-linejoin="round"/>
<path d="M306.42 796V846.86" stroke="black" stroke-width="3" stroke-miterlimit="10" stroke-linecap="round" stroke-linejoin="round"/>
<path d="M171 821.43H328.09" stroke="black" stroke-width="3" stroke-miterlimit="10" stroke-linecap="round" stroke-linejoin="round"/>
<path d="M216.79 862.88L226.79 847.38" stroke="black" stroke-width="3" stroke-miterlimit="10" stroke-linecap="round" stroke-linejoin="round"/>
<path d="M282.29 862.88L272.29 847.38" stroke="black" stroke-width="3" stroke-miterlimit="10" stroke-linecap="round" stroke-linejoin="round"/>
<path d="M260.92 796H238.17V821.43H260.92V796Z" fill="black"/>
<path d="M306.42 821.43H283.67V846.86H306.42V821.43Z" fill="black"/>
<path d="M215.42 821.43H192.67V846.86H215.42V821.43Z" fill="black"/>
<path d="M328.09 729H171V779.86H328.09V729Z" stroke="black" stroke-width="3" stroke-miterlimit="10" stroke-linecap="round" stroke-linejoin="round"/>
<path d="M192.67 729V779.86" stroke="black" stroke-width="3" stroke-miterlimit="10" stroke-linecap="round" stroke-linejoin="round"/>
<path d="M215.42 729V779.86" stroke="black" stroke-width="3" stroke-miterlimit="10" stroke-linecap="round" stroke-linejoin="round"/>
<path d="M238.17 729V779.86" stroke="black" stroke-width="3" stroke-miterlimit="10" stroke-linecap="round" stroke-linejoin="round"/>
<path d="M260.92 729V779.86" stroke="black" stroke-width="3" stroke-miterlimit="10" stroke-linecap="round" stroke-linejoin="round"/>
<path d="M283.67 729V779.86" stroke="black" stroke-width="3" stroke-miterlimit="10" stroke-linecap="round" stroke-linejoin="round"/>
<path d="M306.42 729V779.86" stroke="black" stroke-width="3" stroke-miterlimit="10" stroke-linecap="round" stroke-linejoin="round"/>
<path d="M171 754.43H328.09" stroke="black" stroke-width="3" stroke-miterlimit="10" stroke-linecap="round" stroke-linejoin="round"/>
<path d="M216.79 795.88L226.79 780.38" stroke="black" stroke-width="3" stroke-miterlimit="10" stroke-linecap="round" stroke-linejoin="round"/>
<path d="M282.29 795.88L272.29 780.38" stroke="black" stroke-width="3" stroke-miterlimit="10" stroke-linecap="round" stroke-linejoin="round"/>
<path d="M260.92 729H238.17V754.43H260.92V729Z" fill="black"/>
<path d="M306.42 754.43H283.67V779.86H306.42V754.43Z" fill="black"/>
<path d="M215.42 754.43H192.67V779.86H215.42V754.43Z" fill="black"/>
</svg>
