<svg width="1024" height="1024" viewBox="0 0 1024 1024" fill="none" xmlns="http://www.w3.org/2000/svg">
<path d="M95 845H930" stroke="black" stroke-width="3.10138"/>
<path d="M719 776.68V845.36H872.61L846.24 814.58L825.05 813.27L815.72 790L785.81 796.06L770.14 764L719 751V776.68Z" stroke="black" stroke-width="3" stroke-miterlimit="10" stroke-linecap="round" stroke-linejoin="round"/>
<path d="M744.86 831.1L762.12 825.71V809.03" stroke="black" stroke-width="3" stroke-miterlimit="10" stroke-linecap="round" stroke-linejoin="round"/>
<path d="M762.12 819.1L774.65 816.55" stroke="black" stroke-width="3" stroke-miterlimit="10" stroke-linecap="round" stroke-linejoin="round"/>
<path d="M719 776.68L735.51 776.56L742.58 786.72" stroke="black" stroke-width="3" stroke-miterlimit="10" stroke-linecap="round" stroke-linejoin="round"/>
<path d="M836.57 845.36L831.01 833.55L833.79 827.72" stroke="black" stroke-width="3" stroke-miterlimit="10" stroke-linecap="round" stroke-linejoin="round"/>
<path d="M798.5 832C804.851 832 810 826.851 810 820.5C810 814.149 804.851 809 798.5 809C792.149 809 787 814.149 787 820.5C787 826.851 792.149 832 798.5 832Z" fill="black"/>
<path d="M738.6 813.8C742.913 813.8 746.41 810.303 746.41 805.99C746.41 801.677 742.913 798.18 738.6 798.18C734.287 798.18 730.79 801.677 730.79 805.99C730.79 810.303 734.287 813.8 738.6 813.8Z" fill="black"/>
<path d="M188.01 791.39L182.98 801.43L155.34 817.69L124.99 820.79L113 845.57H148.66H252.95H331.88V720.21L312.38 729.59L298.15 736.43L291.02 735.56" stroke="black" stroke-width="3" stroke-miterlimit="10" stroke-linecap="round" stroke-linejoin="round"/>
<path d="M206.75 778.62L230.77 779.89L242.24 749.81" stroke="black" stroke-width="3" stroke-miterlimit="10" stroke-linecap="round" stroke-linejoin="round"/>
<path d="M255.5 812C262.956 812 269 805.956 269 798.5C269 791.044 262.956 785 255.5 785C248.044 785 242 791.044 242 798.5C242 805.956 248.044 812 255.5 812Z" fill="black"/>
<path d="M208.5 841C212.642 841 216 837.642 216 833.5C216 829.358 212.642 826 208.5 826C204.358 826 201 829.358 201 833.5C201 837.642 204.358 841 208.5 841Z" fill="black"/>
<path d="M176 819.26H198.23L211.33 801" stroke="black" stroke-width="3" stroke-miterlimit="10" stroke-linecap="round" stroke-linejoin="round"/>
<path d="M203.82 811.461L219.66 817.681" stroke="black" stroke-width="3" stroke-miterlimit="10" stroke-linecap="round" stroke-linejoin="round"/>
<path d="M274.33 772.28L289.23 774.87L292.47 764.83" stroke="black" stroke-width="3" stroke-miterlimit="10" stroke-linecap="round" stroke-linejoin="round"/>
<path d="M289.23 774.87V784.91" stroke="black" stroke-width="3" stroke-miterlimit="10" stroke-linecap="round" stroke-linejoin="round"/>
<path d="M286.32 829.29L295.71 820.79L286.32 812.77" stroke="black" stroke-width="3" stroke-miterlimit="10" stroke-linecap="round" stroke-linejoin="round"/>
<path d="M295.71 820.79L305.76 821.03" stroke="black" stroke-width="3" stroke-miterlimit="10" stroke-linecap="round" stroke-linejoin="round"/>
<path d="M246.15 825.48L255.22 833.83L252.95 845.57" stroke="black" stroke-width="3" stroke-miterlimit="10" stroke-linecap="round" stroke-linejoin="round"/>
<path d="M312.38 729.59L318.81 745.39L312.38 755.8" stroke="black" stroke-width="3" stroke-miterlimit="10" stroke-linecap="round" stroke-linejoin="round"/>
<path d="M138.33 835.53L148.66 845.57" stroke="black" stroke-width="3" stroke-miterlimit="10" stroke-linecap="round" stroke-linejoin="round"/>
<path d="M183.3 791.8C198.466 791.8 210.76 779.506 210.76 764.34C210.76 749.174 198.466 736.88 183.3 736.88C168.134 736.88 155.84 749.174 155.84 764.34C155.84 779.506 168.134 791.8 183.3 791.8Z" stroke="black" stroke-width="3" stroke-miterlimit="10" stroke-linecap="round" stroke-linejoin="round"/>
<path d="M176.89 751.47H173.13" stroke="black" stroke-width="3" stroke-miterlimit="10" stroke-linecap="round" stroke-linejoin="round"/>
<path d="M176.89 777.2H173.13" stroke="black" stroke-width="3" stroke-miterlimit="10" stroke-linecap="round" stroke-linejoin="round"/>
<path d="M179.55 746.91V751.47" stroke="black" stroke-width="3" stroke-miterlimit="10" stroke-linecap="round" stroke-linejoin="round"/>
<path d="M185.21 746.91V751.47" stroke="black" stroke-width="3" stroke-miterlimit="10" stroke-linecap="round" stroke-linejoin="round"/>
<path d="M179.55 777.2V781.76" stroke="black" stroke-width="3" stroke-miterlimit="10" stroke-linecap="round" stroke-linejoin="round"/>
<path d="M185.21 777.2V781.76" stroke="black" stroke-width="3" stroke-miterlimit="10" stroke-linecap="round" stroke-linejoin="round"/>
<path d="M185.31 764.34H176.88V751.47H185.31C188.43 751.47 190.96 754 190.96 757.12V758.69C190.96 761.81 188.43 764.34 185.31 764.34Z" stroke="black" stroke-width="3" stroke-miterlimit="10" stroke-linecap="round" stroke-linejoin="round"/>
<path d="M187.82 777.2H176.88V764.34H187.82C190.94 764.34 193.47 766.87 193.47 769.99V771.56C193.47 774.67 190.94 777.2 187.82 777.2Z" stroke="black" stroke-width="3" stroke-miterlimit="10" stroke-linecap="round" stroke-linejoin="round"/>
<path d="M259.49 754.19C279.372 754.19 295.49 738.072 295.49 718.19C295.49 698.308 279.372 682.19 259.49 682.19C239.608 682.19 223.49 698.308 223.49 718.19C223.49 738.072 239.608 754.19 259.49 754.19Z" stroke="black" stroke-width="3" stroke-miterlimit="10" stroke-linecap="round" stroke-linejoin="round"/>
<path d="M244.92 718.63L259.49 694.47V727.25L244.92 718.63Z" stroke="black" stroke-width="3" stroke-miterlimit="10" stroke-linecap="round" stroke-linejoin="round"/>
<path d="M274.06 718.63L259.49 694.47V727.25L274.06 718.63Z" stroke="black" stroke-width="3" stroke-miterlimit="10" stroke-linecap="round" stroke-linejoin="round"/>
<path d="M244.92 718.63L259.49 741.9L274.06 718.63" stroke="black" stroke-width="3" stroke-miterlimit="10" stroke-linecap="round" stroke-linejoin="round"/>
<path d="M259.49 741.9V727.25" stroke="black" stroke-width="3" stroke-miterlimit="10" stroke-linecap="round" stroke-linejoin="round"/>
<path d="M183.5 706C191.508 706 198 699.508 198 691.5C198 683.492 191.508 677 183.5 677C175.492 677 169 683.492 169 691.5C169 699.508 175.492 706 183.5 706Z" fill="black"/>
<path opacity="0.04" d="M511.09 770.18C681.243 770.18 819.18 632.243 819.18 462.09C819.18 291.936 681.243 154 511.09 154C340.936 154 203 291.936 203 462.09C203 632.243 340.936 770.18 511.09 770.18Z" fill="black"/>
<path d="M155 474C164.697 474 164.697 486 174.4 486C184.097 486 184.097 474 193.8 474C203.497 474 203.497 486 213.2 486C222.903 486 222.903 474 232.6 474C242.297 474 242.303 486 252 486" stroke="black" stroke-width="3" stroke-miterlimit="10" stroke-linecap="round" stroke-linejoin="round"/>
<path d="M155 446C164.697 446 164.697 458 174.4 458C184.097 458 184.097 446 193.8 446C203.497 446 203.497 458 213.2 458C222.903 458 222.903 446 232.6 446C242.297 446 242.303 458 252 458" stroke="black" stroke-width="3" stroke-miterlimit="10" stroke-linecap="round" stroke-linejoin="round"/>
<path d="M155 502C164.697 502 164.697 514 174.4 514C184.097 514 184.097 502 193.8 502C203.497 502 203.497 514 213.2 514C222.903 514 222.903 502 232.6 502C242.297 502 242.303 514 252 514" stroke="black" stroke-width="3" stroke-miterlimit="10" stroke-linecap="round" stroke-linejoin="round"/>
<path d="M737 387C746.697 387 746.697 399 756.4 399C766.097 399 766.097 387 775.8 387C785.497 387 785.497 399 795.2 399C804.903 399 804.903 387 814.6 387C824.297 387 824.303 399 834 399" stroke="black" stroke-width="3" stroke-miterlimit="10" stroke-linecap="round" stroke-linejoin="round"/>
<path d="M737 359C746.697 359 746.697 371 756.4 371C766.097 371 766.097 359 775.8 359C785.497 359 785.497 371 795.2 371C804.903 371 804.903 359 814.6 359C824.297 359 824.303 371 834 371" stroke="black" stroke-width="3" stroke-miterlimit="10" stroke-linecap="round" stroke-linejoin="round"/>
<path d="M737 415C746.697 415 746.697 427 756.4 427C766.097 427 766.097 415 775.8 415C785.497 415 785.497 427 795.2 427C804.903 427 804.903 415 814.6 415C824.297 415 824.303 427 834 427" stroke="black" stroke-width="3" stroke-miterlimit="10" stroke-linecap="round" stroke-linejoin="round"/>
<path d="M324.47 305.48C339.635 305.48 351.93 293.186 351.93 278.02C351.93 262.854 339.635 250.56 324.47 250.56C309.304 250.56 297.01 262.854 297.01 278.02C297.01 293.186 309.304 305.48 324.47 305.48Z" stroke="black" stroke-width="3" stroke-miterlimit="10" stroke-linecap="round" stroke-linejoin="round"/>
<path d="M318.06 265.15H314.3" stroke="black" stroke-width="3" stroke-miterlimit="10" stroke-linecap="round" stroke-linejoin="round"/>
<path d="M318.06 290.88H314.3" stroke="black" stroke-width="3" stroke-miterlimit="10" stroke-linecap="round" stroke-linejoin="round"/>
<path d="M320.72 260.59V265.15" stroke="black" stroke-width="3" stroke-miterlimit="10" stroke-linecap="round" stroke-linejoin="round"/>
<path d="M326.38 260.59V265.15" stroke="black" stroke-width="3" stroke-miterlimit="10" stroke-linecap="round" stroke-linejoin="round"/>
<path d="M320.72 290.88V295.44" stroke="black" stroke-width="3" stroke-miterlimit="10" stroke-linecap="round" stroke-linejoin="round"/>
<path d="M326.38 290.88V295.44" stroke="black" stroke-width="3" stroke-miterlimit="10" stroke-linecap="round" stroke-linejoin="round"/>
<path d="M326.49 278.02H318.06V265.15H326.49C329.61 265.15 332.14 267.68 332.14 270.8V272.37C332.14 275.49 329.61 278.02 326.49 278.02Z" stroke="black" stroke-width="3" stroke-miterlimit="10" stroke-linecap="round" stroke-linejoin="round"/>
<path d="M329 290.88H318.06V278.02H329C332.12 278.02 334.65 280.55 334.65 283.67V285.24C334.65 288.35 332.12 290.88 329 290.88Z" stroke="black" stroke-width="3" stroke-miterlimit="10" stroke-linecap="round" stroke-linejoin="round"/>
<path d="M334.77 303.47V339.24C334.77 350.29 325.82 359.24 314.77 359.24H241C235.48 359.24 231 354.76 231 349.24V279.47C231 273.95 235.48 269.47 241 269.47H298.38" stroke="black" stroke-width="3" stroke-miterlimit="10" stroke-linecap="round" stroke-linejoin="round"/>
<path d="M231.01 334.47H251.39C258.97 334.47 265.11 328.33 265.11 320.75V307.97C265.11 300.39 258.97 294.25 251.39 294.25H231.01" stroke="black" stroke-width="3" stroke-miterlimit="10" stroke-linecap="round" stroke-linejoin="round"/>
<path d="M248.06 321.29C251.887 321.29 254.99 318.187 254.99 314.36C254.99 310.533 251.887 307.43 248.06 307.43C244.233 307.43 241.13 310.533 241.13 314.36C241.13 318.187 244.233 321.29 248.06 321.29Z" fill="black"/>
<path d="M279.39 250.56C287.277 250.56 293.67 244.167 293.67 236.28C293.67 228.393 287.277 222 279.39 222C271.504 222 265.11 228.393 265.11 236.28C265.11 244.167 271.504 250.56 279.39 250.56Z" fill="black"/>
<path d="M346.44 229.03V243.34" stroke="black" stroke-width="3" stroke-miterlimit="10" stroke-linecap="round" stroke-linejoin="round"/>
<path d="M378.44 284.45L366.04 277.29" stroke="black" stroke-width="3" stroke-miterlimit="10" stroke-linecap="round" stroke-linejoin="round"/>
<path d="M378.44 247.5L366.04 254.65" stroke="black" stroke-width="3" stroke-miterlimit="10" stroke-linecap="round" stroke-linejoin="round"/>
<path d="M703.24 251.37H623.68V263.29H703.24V251.37Z" fill="black" stroke="black" stroke-width="3" stroke-miterlimit="10" stroke-linecap="round" stroke-linejoin="round"/>
<path d="M672.3 306.09L703.24 263.29H623.68L654.62 306.09H672.3Z" stroke="black" stroke-width="3" stroke-miterlimit="10" stroke-linecap="round" stroke-linejoin="round"/>
<path d="M672.291 339.09L654.641 328.05V306.09H672.291V339.09Z" stroke="black" stroke-width="3" stroke-miterlimit="10" stroke-linecap="round" stroke-linejoin="round"/>
<path d="M626.03 242.65C625.22 242.07 624.59 241.27 624.14 240.25C623.7 239.23 623.47 238.08 623.47 236.8C623.47 235.52 623.69 234.37 624.14 233.35C624.58 232.33 625.21 231.53 626.03 230.95C626.84 230.37 627.79 230.08 628.87 230.08C629.95 230.08 630.89 230.37 631.71 230.95C632.52 231.53 633.15 232.33 633.6 233.35C634.04 234.37 634.27 235.52 634.27 236.8C634.27 238.08 634.05 239.23 633.6 240.25C633.15 241.27 632.53 242.07 631.71 242.65C630.9 243.23 629.95 243.52 628.87 243.52C627.79 243.52 626.84 243.24 626.03 242.65ZM630.43 240.64C630.87 240.26 631.21 239.73 631.44 239.06C631.67 238.39 631.79 237.64 631.79 236.8C631.79 235.5 631.53 234.44 631 233.62C630.47 232.8 629.76 232.39 628.86 232.39C627.97 232.39 627.26 232.8 626.74 233.63C626.21 234.46 625.95 235.52 625.95 236.8C625.95 237.64 626.07 238.39 626.3 239.06C626.53 239.73 626.87 240.26 627.31 240.64C627.75 241.02 628.27 241.21 628.86 241.21C629.46 241.22 629.99 241.03 630.43 240.64Z" fill="black"/>
<path d="M639.06 233.59L637.13 235L635.89 233.1L639.67 230.38H641.53V243.23H639.07V233.59H639.06Z" fill="black"/>
<path d="M646.669 242.65C645.859 242.07 645.229 241.27 644.779 240.25C644.339 239.23 644.109 238.08 644.109 236.8C644.109 235.52 644.329 234.37 644.779 233.35C645.219 232.33 645.849 231.53 646.669 230.95C647.479 230.37 648.429 230.08 649.509 230.08C650.589 230.08 651.529 230.37 652.349 230.95C653.159 231.53 653.789 232.33 654.239 233.35C654.679 234.37 654.909 235.52 654.909 236.8C654.909 238.08 654.689 239.23 654.239 240.25C653.789 241.27 653.169 242.07 652.349 242.65C651.539 243.23 650.589 243.52 649.509 243.52C648.429 243.52 647.479 243.24 646.669 242.65ZM651.069 240.64C651.509 240.26 651.849 239.73 652.079 239.06C652.309 238.39 652.429 237.64 652.429 236.8C652.429 235.5 652.169 234.44 651.639 233.62C651.109 232.8 650.399 232.39 649.499 232.39C648.609 232.39 647.899 232.8 647.379 233.63C646.859 234.46 646.589 235.52 646.589 236.8C646.589 237.64 646.709 238.39 646.939 239.06C647.169 239.73 647.509 240.26 647.949 240.64C648.389 241.02 648.909 241.21 649.499 241.21C650.109 241.22 650.629 241.03 651.069 240.64Z" fill="black"/>
<path d="M659.71 233.59L657.78 235L656.54 233.1L660.32 230.38H662.18V243.23H659.72V233.59H659.71Z" fill="black"/>
<path d="M667.31 242.65C666.5 242.07 665.87 241.27 665.42 240.25C664.98 239.23 664.75 238.08 664.75 236.8C664.75 235.52 664.97 234.37 665.42 233.35C665.86 232.33 666.49 231.53 667.31 230.95C668.12 230.37 669.07 230.08 670.15 230.08C671.23 230.08 672.17 230.37 672.99 230.95C673.8 231.53 674.43 232.33 674.88 233.35C675.32 234.37 675.55 235.52 675.55 236.8C675.55 238.08 675.33 239.23 674.88 240.25C674.43 241.27 673.81 242.07 672.99 242.65C672.18 243.23 671.23 243.52 670.15 243.52C669.07 243.52 668.13 243.24 667.31 242.65ZM671.72 240.64C672.16 240.26 672.5 239.73 672.73 239.06C672.96 238.39 673.08 237.64 673.08 236.8C673.08 235.5 672.82 234.44 672.29 233.62C671.76 232.8 671.05 232.39 670.15 232.39C669.26 232.39 668.55 232.8 668.03 233.63C667.5 234.46 667.24 235.52 667.24 236.8C667.24 237.64 667.36 238.39 667.59 239.06C667.82 239.73 668.16 240.26 668.6 240.64C669.04 241.02 669.56 241.21 670.15 241.21C670.75 241.22 671.27 241.03 671.72 240.64Z" fill="black"/>
<path d="M680.35 233.59L678.42 235L677.18 233.1L680.96 230.38H682.82V243.23H680.36V233.59H680.35Z" fill="black"/>
<path d="M687.959 242.65C687.149 242.07 686.519 241.27 686.069 240.25C685.629 239.23 685.399 238.08 685.399 236.8C685.399 235.52 685.619 234.37 686.069 233.35C686.509 232.33 687.139 231.53 687.959 230.95C688.769 230.37 689.719 230.08 690.799 230.08C691.879 230.08 692.819 230.37 693.639 230.95C694.449 231.53 695.079 232.33 695.529 233.35C695.969 234.37 696.199 235.52 696.199 236.8C696.199 238.08 695.979 239.23 695.529 240.25C695.079 241.27 694.459 242.07 693.639 242.65C692.829 243.23 691.879 243.52 690.799 243.52C689.719 243.52 688.769 243.24 687.959 242.65ZM692.359 240.64C692.799 240.26 693.139 239.73 693.369 239.06C693.599 238.39 693.719 237.64 693.719 236.8C693.719 235.5 693.459 234.44 692.929 233.62C692.399 232.8 691.689 232.39 690.789 232.39C689.899 232.39 689.189 232.8 688.669 233.63C688.139 234.46 687.879 235.52 687.879 236.8C687.879 237.64 687.999 238.39 688.229 239.06C688.459 239.73 688.799 240.26 689.239 240.64C689.679 241.02 690.199 241.21 690.789 241.21C691.389 241.22 691.919 241.03 692.359 240.64Z" fill="black"/>
<path d="M700.99 233.59L699.06 235L697.82 233.1L701.6 230.38H703.46V243.23H701V233.59H700.99Z" fill="black"/>
<path d="M626.17 212.5L624.24 213.91L623 212.01L626.78 209.29H628.64V222.14H626.18V212.5H626.17Z" fill="black"/>
<path d="M633.77 221.57C632.96 220.99 632.33 220.19 631.88 219.17C631.44 218.15 631.21 217 631.21 215.72C631.21 214.44 631.43 213.29 631.88 212.27C632.32 211.25 632.95 210.45 633.77 209.87C634.58 209.29 635.53 209 636.61 209C637.69 209 638.63 209.29 639.45 209.87C640.26 210.45 640.89 211.25 641.34 212.27C641.78 213.29 642.01 214.44 642.01 215.72C642.01 217 641.79 218.15 641.34 219.17C640.9 220.19 640.27 220.99 639.45 221.57C638.64 222.15 637.69 222.44 636.61 222.44C635.53 222.44 634.59 222.15 633.77 221.57ZM638.18 219.56C638.62 219.18 638.96 218.65 639.19 217.98C639.42 217.31 639.54 216.56 639.54 215.72C639.54 214.42 639.28 213.36 638.75 212.54C638.22 211.72 637.51 211.31 636.61 211.31C635.72 211.31 635.01 211.72 634.49 212.55C633.96 213.38 633.7 214.44 633.7 215.72C633.7 216.56 633.82 217.31 634.05 217.98C634.28 218.65 634.62 219.18 635.06 219.56C635.5 219.94 636.02 220.13 636.61 220.13C637.21 220.13 637.73 219.94 638.18 219.56Z" fill="black"/>
<path d="M646.81 212.5L644.88 213.91L643.64 212.01L647.42 209.29H649.28V222.14H646.82V212.5H646.81Z" fill="black"/>
<path d="M654.42 221.57C653.61 220.99 652.98 220.19 652.53 219.17C652.09 218.15 651.86 217 651.86 215.72C651.86 214.44 652.08 213.29 652.53 212.27C652.97 211.25 653.6 210.45 654.42 209.87C655.23 209.29 656.18 209 657.26 209C658.34 209 659.28 209.29 660.1 209.87C660.91 210.45 661.54 211.25 661.99 212.27C662.43 213.29 662.66 214.44 662.66 215.72C662.66 217 662.44 218.15 661.99 219.17C661.55 220.19 660.92 220.99 660.1 221.57C659.29 222.15 658.34 222.44 657.26 222.44C656.18 222.44 655.23 222.15 654.42 221.57ZM658.82 219.56C659.26 219.18 659.6 218.65 659.83 217.98C660.06 217.31 660.18 216.56 660.18 215.72C660.18 214.42 659.92 213.36 659.39 212.54C658.86 211.72 658.15 211.31 657.25 211.31C656.36 211.31 655.65 211.72 655.13 212.55C654.6 213.38 654.34 214.44 654.34 215.72C654.34 216.56 654.46 217.31 654.69 217.98C654.92 218.65 655.26 219.18 655.7 219.56C656.14 219.94 656.66 220.13 657.25 220.13C657.85 220.13 658.38 219.94 658.82 219.56Z" fill="black"/>
<path d="M667.45 212.5L665.52 213.91L664.28 212.01L668.06 209.29H669.92V222.14H667.46V212.5H667.45Z" fill="black"/>
<path d="M675.06 221.57C674.25 220.99 673.62 220.19 673.17 219.17C672.73 218.15 672.5 217 672.5 215.72C672.5 214.44 672.72 213.29 673.17 212.27C673.61 211.25 674.24 210.45 675.06 209.87C675.87 209.29 676.82 209 677.9 209C678.98 209 679.92 209.29 680.74 209.87C681.55 210.45 682.18 211.25 682.63 212.27C683.07 213.29 683.3 214.44 683.3 215.72C683.3 217 683.08 218.15 682.63 219.17C682.19 220.19 681.56 220.99 680.74 221.57C679.93 222.15 678.98 222.44 677.9 222.44C676.82 222.44 675.87 222.15 675.06 221.57ZM679.47 219.56C679.91 219.18 680.25 218.65 680.48 217.98C680.71 217.31 680.83 216.56 680.83 215.72C680.83 214.42 680.57 213.36 680.04 212.54C679.51 211.72 678.8 211.31 677.9 211.31C677.01 211.31 676.3 211.72 675.78 212.55C675.25 213.38 674.99 214.44 674.99 215.72C674.99 216.56 675.11 217.31 675.34 217.98C675.57 218.65 675.91 219.18 676.35 219.56C676.79 219.94 677.31 220.13 677.9 220.13C678.5 220.13 679.02 219.94 679.47 219.56Z" fill="black"/>
<path d="M688.1 212.5L686.17 213.91L684.93 212.01L688.71 209.29H690.57V222.14H688.11V212.5H688.1Z" fill="black"/>
<path d="M695.7 221.57C694.89 220.99 694.26 220.19 693.81 219.17C693.37 218.15 693.14 217 693.14 215.72C693.14 214.44 693.36 213.29 693.81 212.27C694.25 211.25 694.88 210.45 695.7 209.87C696.51 209.29 697.46 209 698.54 209C699.62 209 700.56 209.29 701.38 209.87C702.19 210.45 702.82 211.25 703.27 212.27C703.71 213.29 703.94 214.44 703.94 215.72C703.94 217 703.72 218.15 703.27 219.17C702.83 220.19 702.2 220.99 701.38 221.57C700.57 222.15 699.62 222.44 698.54 222.44C697.46 222.44 696.52 222.15 695.7 221.57ZM700.11 219.56C700.55 219.18 700.89 218.65 701.12 217.98C701.35 217.31 701.47 216.56 701.47 215.72C701.47 214.42 701.21 213.36 700.68 212.54C700.15 211.72 699.44 211.31 698.54 211.31C697.65 211.31 696.94 211.72 696.42 212.55C695.89 213.38 695.63 214.44 695.63 215.72C695.63 216.56 695.75 217.31 695.98 217.98C696.21 218.65 696.55 219.18 696.99 219.56C697.43 219.94 697.95 220.13 698.54 220.13C699.14 220.13 699.66 219.94 700.11 219.56Z" fill="black"/>
<path d="M716.59 618.22C736.472 618.22 752.59 602.102 752.59 582.22C752.59 562.337 736.472 546.22 716.59 546.22C696.708 546.22 680.59 562.337 680.59 582.22C680.59 602.102 696.708 618.22 716.59 618.22Z" stroke="black" stroke-width="3" stroke-miterlimit="10" stroke-linecap="round" stroke-linejoin="round"/>
<path d="M702.02 582.67L716.59 558.51V591.29L702.02 582.67Z" stroke="black" stroke-width="3" stroke-miterlimit="10" stroke-linecap="round" stroke-linejoin="round"/>
<path d="M731.16 582.67L716.59 558.51V591.29L731.16 582.67Z" stroke="black" stroke-width="3" stroke-miterlimit="10" stroke-linecap="round" stroke-linejoin="round"/>
<path d="M702.02 582.67L716.59 605.94L731.16 582.67" stroke="black" stroke-width="3" stroke-miterlimit="10" stroke-linecap="round" stroke-linejoin="round"/>
<path d="M716.59 605.94V591.29" stroke="black" stroke-width="3" stroke-miterlimit="10" stroke-linecap="round" stroke-linejoin="round"/>
<path d="M650.46 566.23C665.626 566.23 677.92 553.936 677.92 538.77C677.92 523.604 665.626 511.31 650.46 511.31C635.294 511.31 623 523.604 623 538.77C623 553.936 635.294 566.23 650.46 566.23Z" stroke="black" stroke-width="3" stroke-miterlimit="10" stroke-linecap="round" stroke-linejoin="round"/>
<path d="M644.05 525.9H640.29" stroke="black" stroke-width="3" stroke-miterlimit="10" stroke-linecap="round" stroke-linejoin="round"/>
<path d="M644.05 551.63H640.29" stroke="black" stroke-width="3" stroke-miterlimit="10" stroke-linecap="round" stroke-linejoin="round"/>
<path d="M646.71 521.34V525.9" stroke="black" stroke-width="3" stroke-miterlimit="10" stroke-linecap="round" stroke-linejoin="round"/>
<path d="M652.37 521.34V525.9" stroke="black" stroke-width="3" stroke-miterlimit="10" stroke-linecap="round" stroke-linejoin="round"/>
<path d="M646.71 551.63V556.19" stroke="black" stroke-width="3" stroke-miterlimit="10" stroke-linecap="round" stroke-linejoin="round"/>
<path d="M652.37 551.63V556.19" stroke="black" stroke-width="3" stroke-miterlimit="10" stroke-linecap="round" stroke-linejoin="round"/>
<path d="M652.47 538.77H644.04V525.91H652.47C655.59 525.91 658.12 528.44 658.12 531.56V533.13C658.12 536.24 655.59 538.77 652.47 538.77Z" stroke="black" stroke-width="3" stroke-miterlimit="10" stroke-linecap="round" stroke-linejoin="round"/>
<path d="M654.99 551.63H644.05V538.77H654.99C658.11 538.77 660.64 541.3 660.64 544.42V545.99C660.63 549.1 658.11 551.63 654.99 551.63Z" stroke="black" stroke-width="3" stroke-miterlimit="10" stroke-linecap="round" stroke-linejoin="round"/>
<path d="M722.47 519.16L709.31 530.09L696.15 519.16C691.36 515.18 688.58 509.27 688.58 503.05V485.48L709.31 473L730.04 485.48V503.05C730.03 509.28 727.26 515.18 722.47 519.16Z" fill="black"/>
<path d="M700.16 501.55L707.23 508.61L720.91 494.94" stroke="white" stroke-width="3" stroke-miterlimit="10" stroke-linecap="round" stroke-linejoin="round"/>
<path d="M298 551.51L339.91 482V576.31L298 551.51Z" stroke="black" stroke-width="3" stroke-miterlimit="10" stroke-linecap="round" stroke-linejoin="round"/>
<path d="M298 562.87L339.91 588.29V622.47L298 562.87Z" fill="black" stroke="black" stroke-width="3" stroke-miterlimit="10" stroke-linecap="round" stroke-linejoin="round"/>
<path d="M381.82 551.51L339.91 482V576.31L381.82 551.51Z" stroke="black" stroke-width="3" stroke-miterlimit="10" stroke-linecap="round" stroke-linejoin="round"/>
<path d="M381.82 562.87L339.91 588.29V622.47L381.82 562.87Z" fill="black" stroke="black" stroke-width="3" stroke-miterlimit="10" stroke-linecap="round" stroke-linejoin="round"/>
<path d="M516.369 267.588L516.369 277.17L505.531 263.302C510.445 266.55 512.209 267.293 516.369 267.588Z" fill="black"/>
<path d="M493.688 259.103L504.396 243.851C501.687 239.274 497.394 229.322 501.895 226.124C506.396 222.926 513.345 229.529 516.257 233.231C517.145 224.94 520.906 208.683 528.842 209.986C536.777 211.289 537.381 206.696 538.226 203.771L534.962 199.9L530.56 196.181C524.391 190.721 505.605 183.754 486.681 200.608C467.757 217.462 483.467 246.627 493.688 259.103Z" fill="black"/>
<path d="M505.769 262.501C508.251 265.031 515.766 269.605 525.964 267.657C528.143 267.24 530.066 266.759 531.759 266.247C539.215 263.989 543.829 257.037 545.262 249.379C546.479 242.874 547.119 235.124 545.299 228.126C542.32 216.668 538.665 209.24 536.612 206.566" stroke="black" stroke-width="3"/>
<path d="M493.671 253.747L491.432 278.159" stroke="black" stroke-width="3"/>
<path d="M515.992 267.639V281.129" stroke="black" stroke-width="3"/>
<path d="M452.631 383.699L448.421 422.175" stroke="black" stroke-width="3"/>
<path d="M566.994 403.302L606.675 382.361L623.412 405.858L562.739 452.369" stroke="#333333" stroke-width="3"/>
<path d="M610.136 387.124C612.514 386.972 616.494 382.84 618.259 379.407C623.079 370.027 631.409 357.98 643.1 370.885C652.452 381.209 645.988 389.456 641.788 392.695C635.947 396.311 629.98 394.371 625.487 398.136C620.993 401.901 621.592 401.148 620.63 401.856" stroke="black" stroke-width="3"/>
<path d="M479.477 478.175L495.157 483.156L503.377 488.19C504.048 491.209 506.565 497.551 511.263 498.759C515.96 499.967 522.503 497.585 525.187 496.243C528.431 494.677 534.046 490.136 530.556 484.499C527.066 478.862 522.839 475.998 521.161 475.271L508.243 470.741L489.004 464.428" stroke="black" stroke-width="3"/>
<path d="M542.61 643.149L475.027 537.425H561.667L628.5 789L596.827 797.424C563.37 739.878 545.733 667.35 542.61 643.149Z" stroke="black" stroke-width="3"/>
<path d="M450.975 537.561L430.605 659.101L377.794 776.124L409.5 788.941L481.2 676.641L505.485 584.221" stroke="black" stroke-width="3"/>
<path d="M634.764 812.116L602.933 824.011L608.423 838.851C609.95 842.978 614.523 845.097 618.658 843.594L678.615 821.811C682.163 817.495 677.136 815.586 674.179 815.171L634.764 812.116Z" fill="black"/>
<path d="M602.5 795L613 824" stroke="black" stroke-width="3"/>
<path d="M621.5 790.5L629 818" stroke="black" stroke-width="3"/>
<path d="M401.99 808.684L370.539 795.817L364.5 810.443C362.821 814.51 364.741 819.169 368.798 820.872L427.617 845.564C433.152 844.803 430.755 839.989 428.865 837.677L401.99 808.684Z" fill="black"/>
<path d="M383.41 778.226L375.499 802.647" stroke="black" stroke-width="3"/>
<path d="M401.287 785.348L390.081 809.61" stroke="black" stroke-width="3"/>
<path d="M627.749 377.377C628.955 375.162 632.676 371.141 637.915 372.783" stroke="black" stroke-width="3"/>
<path d="M631.854 383.727C633.06 381.511 636.781 377.49 642.021 379.132" stroke="black" stroke-width="3"/>
<path fill-rule="evenodd" clip-rule="evenodd" d="M425.661 467.211C420.73 463.208 419.978 455.965 423.981 451.034L427.9 446.208L430.221 448.109L426.311 452.925C423.352 456.57 423.907 461.923 427.552 464.882L480.366 507.76C484.011 510.719 489.364 510.163 492.323 506.519L504.019 492.112C504.097 492.571 504.335 493.006 504.724 493.325L504.866 493.441C505.329 493.82 505.911 493.957 506.459 493.867L494.652 508.41C490.649 513.34 483.406 514.092 478.475 510.089L425.661 467.211ZM520.874 476.111L568.489 417.463C572.492 412.532 571.74 405.29 566.809 401.286L513.995 358.408C509.064 354.405 501.822 355.157 497.818 360.088L447.018 422.659L449.339 424.56L500.148 361.979C503.106 358.334 508.46 357.778 512.104 360.737L564.918 403.615C568.563 406.574 569.119 411.927 566.16 415.572L518.55 474.214C519.058 474.164 519.585 474.308 520.011 474.657L520.152 474.773C520.576 475.12 520.821 475.606 520.874 476.111Z" fill="black"/>
<path fill-rule="evenodd" clip-rule="evenodd" d="M428.181 350.475L477.967 286.617C480.29 283.959 486.753 280.136 495.363 279.152C503.906 278.175 514.474 280.009 524.976 288.542C527.378 290.494 529.915 294.563 532.482 300.643C535.024 306.663 537.512 314.439 539.922 323.57C544.741 341.826 549.213 365.348 553.201 390.732C553.265 391.141 553.329 391.55 553.393 391.959L556.8 394.356C556.59 392.988 556.378 391.625 556.165 390.267C552.17 364.842 547.679 341.205 542.822 322.804C540.394 313.606 537.865 305.679 535.246 299.476C532.653 293.336 529.883 288.664 526.868 286.214C515.7 277.14 504.316 275.108 495.022 276.171C485.826 277.223 478.582 281.323 475.675 284.682L475.65 284.711L475.626 284.741L425.8 348.65L425.786 348.669L425.772 348.688L387.806 400.733L387.744 400.817L387.695 400.909C385.45 405.101 384.325 415.275 395.03 424.853L395.089 424.907L395.155 424.953L476.025 483.053L477.276 483.952L478.142 482.677L492.665 461.283L493.416 460.177L492.403 459.304L429.308 404.967L465.32 375.121L463.406 372.811L426.026 403.79L424.659 404.923L426.005 406.081L489.432 460.705L476.525 479.718L396.971 422.564C387.436 413.993 388.737 405.435 390.294 402.412L428.181 350.475ZM561.125 424.477L558.509 427.549C563.751 467.052 567.751 507.028 570.058 535.925H438.285L444.096 479.244L441.112 478.938L435.131 537.272L434.962 538.925H436.623H571.682H573.304L573.177 537.307C570.838 507.612 566.651 465.653 561.125 424.477Z" fill="black"/>
<circle cx="496.235" cy="434.249" r="11.3209" fill="black"/>
</svg>
