<svg width="1024" height="1024" viewBox="0 0 1024 1024" fill="none" xmlns="http://www.w3.org/2000/svg">
<path opacity="0.04" d="M505.596 794.18C675.749 794.18 813.686 656.243 813.686 486.09C813.686 315.936 675.749 178 505.596 178C335.443 178 197.506 315.936 197.506 486.09C197.506 656.243 335.443 794.18 505.596 794.18Z" fill="black"/>
<path d="M288.109 310.207C302.512 301.82 295.978 291.06 293.81 289.112C291.533 287.039 286.836 284.337 276.783 285.704C276.705 284.604 276.014 276.939 269.291 272.085C261.311 266.32 252.185 269.807 251.588 270.043C250.489 268.865 245.698 263.964 238.645 263.917C230.587 263.87 222.844 270.169 220.252 279.578" stroke="black" stroke-width="3" stroke-miterlimit="10"/>
<path d="M297.172 298.065C299.449 299.039 302.308 300.736 304.57 303.72C308.843 309.312 310.618 318.862 305.685 323.967C303.046 326.7 299.339 327.203 297.455 327.297L176.475 327.643C164.128 328.271 160.547 311.747 163.076 302.652C165.511 293.95 174.197 290.274 175.438 289.772C175.454 283.661 178.752 278.148 183.951 275.603C189.873 272.697 195.638 274.959 196.565 275.336C199.47 268.189 206.178 263.289 213.827 262.723C219.152 262.315 224.351 264.074 228.357 267.451" stroke="black" stroke-width="3" stroke-miterlimit="10"/>
<path d="M257.856 283.206C251.259 282.248 244.819 285.138 241.63 290.416C237.687 296.966 239.4 306.155 246.138 311.448" stroke="black" stroke-width="3" stroke-miterlimit="10"/>
<path d="M201.072 287.117C203.915 292.803 203.46 299.605 199.879 304.835C196.266 310.113 190.03 313.003 183.653 312.344" stroke="black" stroke-width="3" stroke-miterlimit="10"/>
<path d="M202.722 297.704C206.288 297.814 211.629 298.819 215.493 303.327C219.404 307.883 219.435 313.239 219.404 314.731" stroke="black" stroke-width="3" stroke-miterlimit="10"/>
<path d="M271.522 294.327C273.579 298.176 273.438 302.809 271.145 306.391C268.537 310.459 263.589 312.517 258.689 311.558" stroke="black" stroke-width="3" stroke-miterlimit="10"/>
<path d="M283.538 327.658L283.538 350.544L299.418 380.562" stroke="black" stroke-width="3" stroke-miterlimit="10"/>
<path d="M252.122 327.658L252.122 350.544L268.002 380.562" stroke="black" stroke-width="3" stroke-miterlimit="10"/>
<path d="M189.292 327.658L189.292 350.544L173.411 380.562" stroke="black" stroke-width="3" stroke-miterlimit="10"/>
<path d="M220.707 327.658L220.707 350.544L204.827 380.562" stroke="black" stroke-width="3" stroke-miterlimit="10"/>
<path d="M289.993 380.562C289.993 385.767 294.213 389.986 299.418 389.986C304.623 389.986 308.842 385.767 308.842 380.562C308.842 375.357 304.623 371.137 299.418 371.137C294.213 371.137 289.993 375.357 289.993 380.562Z" fill="black"/>
<path d="M258.578 380.561C258.578 385.766 262.797 389.986 268.002 389.986C273.207 389.986 277.427 385.766 277.427 380.561C277.427 375.356 273.207 371.137 268.002 371.137C262.797 371.137 258.578 375.356 258.578 380.561Z" fill="black"/>
<path d="M195.402 380.561C195.402 385.766 199.621 389.986 204.826 389.986C210.031 389.986 214.251 385.766 214.251 380.561C214.251 375.356 210.031 371.137 204.826 371.137C199.621 371.137 195.402 375.356 195.402 380.561Z" fill="black"/>
<path d="M163.987 380.561C163.987 385.766 168.207 389.986 173.412 389.986C178.617 389.986 182.836 385.766 182.836 380.561C182.836 375.356 178.617 371.137 173.412 371.137C168.207 371.137 163.987 375.356 163.987 380.561Z" fill="black"/>
<path d="M498.932 846.599L496.832 813.604C492.922 814.038 486.227 819.861 480.712 819.118C471.487 817.876 468.377 816.551 465.971 814.346L418.535 828.489C414.154 829.795 411.151 833.824 411.151 838.396V846.599L498.932 846.599Z" fill="black"/>
<path d="M575.054 846.599L572.955 813.604C569.045 814.038 562.35 819.861 556.835 819.118C547.61 817.876 544.5 816.551 542.094 814.346L494.658 828.489C490.277 829.795 487.274 833.824 487.274 838.396V846.599L575.054 846.599Z" fill="black"/>
<path d="M492.584 285.973L495.696 271.735H546.73L549.842 285.973H492.584Z" stroke="black" stroke-width="3.10138"/>
<path d="M494.125 277.872C485.483 277.872 462.251 280.75 453.46 290.893C447.234 298.078 413.142 361.058 395.927 396.89L295.634 417.959L303.571 482.87C339.133 481.438 415.273 453.489 429.541 442.655C443.81 431.821 449.33 421.813 452.193 415.317L474.245 370.44" stroke="black" stroke-width="3.10138"/>
<path d="M443.922 428.901L423.128 701.218H619.764L597.594 382.516" stroke="black" stroke-width="3.10138"/>
<path d="M487.274 593.3L533.937 466.182" stroke="black" stroke-width="3.10138"/>
<path d="M518.492 636.911L553.178 542.789" stroke="black" stroke-width="3.10138"/>
<path d="M599.992 418.389C609 429.457 631.032 451.283 647.093 450.047C663.153 448.812 671.115 433.232 673.088 425.596L682.886 307.343H623.741L629.689 360.906" stroke="black" stroke-width="3.10138"/>
<path d="M548.311 278.899C554.578 278.786 572.327 283.433 585.876 302.943C599.425 322.454 634.427 366.624 650.234 386.27" stroke="black" stroke-width="3.10138"/>
<path d="M450.854 700.871L454.67 784.748H507.712L511.385 700.871" stroke="black" stroke-width="3.10138"/>
<path d="M464.446 784.749L466.549 822.302H495.77L497.793 784.749" stroke="black" stroke-width="3.10138"/>
<path d="M540.568 784.749L542.671 822.302H571.892L573.915 784.749" stroke="black" stroke-width="3.10138"/>
<path d="M531.164 700.871L534.98 784.748H588.022L591.695 700.871" stroke="black" stroke-width="3.10138"/>
<path d="M634.819 307.351C631.314 294.975 627.795 278.724 640.31 276.5V253.94C640.194 252.359 640.827 249.15 644.288 248.96C647.749 248.771 648.968 253.044 649.144 255.204L649.762 272.276C658.644 271.418 676.208 273.466 675.406 288.526C674.604 303.586 673.935 307.351 673.7 307.351" stroke="black" stroke-width="3.10138"/>
<path d="M296.697 424.815C272.894 428.782 278.081 435.954 261.432 430.036C240.322 422.531 235.717 441.751 245.567 452.9C253.026 461.342 263.503 462.907 274.479 462.05C283.26 461.364 295.434 457.42 300.424 455.534" stroke="black" stroke-width="3.10138"/>
<path d="M248.643 438.716C251.672 441.133 260.845 444.939 273.303 440.824" stroke="black" stroke-width="3.10138"/>
<path d="M251.109 449.106C254.079 451.595 263.158 455.62 275.711 451.805" stroke="black" stroke-width="3.10138"/>
<path d="M506.718 217.469C499.303 226.299 490.496 247.096 495.297 254.824C500.097 262.551 515.605 262.056 520.337 261.275" stroke="black" stroke-width="3.10138"/>
<path d="M529.632 260.587C531.987 260.849 536.923 260.452 537.82 256.773C538.718 253.094 538.194 244.247 537.82 240.284" stroke="black" stroke-width="3.10138"/>
<path d="M506.061 261.217V271.735" stroke="black" stroke-width="3.10138"/>
<path d="M533.378 260.315L533.378 271.735" stroke="black" stroke-width="3.10138"/>
<path d="M506.39 206.877C513.318 201.172 524.16 200.471 528.715 200.834C540.733 201.532 547.037 210.543 548.687 214.962C551.484 222.454 554.919 241.968 541.675 249.341C528.431 256.715 518.675 240.115 517.404 233.903C507.16 235.78 502.195 228.727 500.993 224.965C499.905 221.313 499.462 212.582 506.39 206.877Z" fill="black"/>
<circle cx="548.782" cy="204.137" r="19.1505" fill="black"/>
<path d="M506.061 261.718V267.793L520.446 261.223C512.374 261.42 510.383 261.544 506.061 261.718Z" fill="black"/>
<path d="M117 845.741H853.939" stroke="black" stroke-width="3.10138"/>
<path d="M246.939 739.062C244.561 736.823 236.994 730.522 240.652 726.211C241.376 725.362 242.349 724.889 243.281 724.43C247.481 722.344 251.376 719.743 254.13 715.292C254.811 714.18 255.437 712.886 255.34 711.523C255.242 710.146 254.422 708.964 253.42 708.241C251.473 706.836 248.97 706.516 246.855 705.556C242.822 703.72 238.413 702.218 234.574 699.854C230.471 697.323 231.723 692.343 234.797 689.45C238.844 685.639 244.853 684.235 249.888 684.638C251.598 684.777 253.893 684.68 254.297 682.691C254.436 682.037 254.297 681.342 254.13 680.702C252.878 675.764 250.263 671.341 246.786 668.281C241.417 663.539 233.934 661.87 230.096 654.846C229.066 652.968 228.496 650.618 228.969 648.434C229.609 645.569 231.932 643.622 234.338 642.871C238.538 641.563 242.794 642.231 246.855 643.914C249.512 645.012 252.21 644.943 253.879 641.758C255.145 639.338 255.117 636.236 254.45 633.51C253.323 628.934 250.527 625.234 249.596 620.575C249.039 617.793 249.234 614.664 250.639 612.341C252.294 609.629 255.562 608.544 258.149 609.838C259.818 610.672 261.112 612.313 262.294 613.955C264.798 617.418 268.803 625.276 273.379 624.386C274.895 624.08 276.119 622.787 277.315 621.632C279.847 619.184 282.67 617.154 285.66 615.61C287.163 614.831 288.79 614.177 290.403 614.469C293.254 614.984 294.395 618.934 294.311 621.98C294.228 624.623 293.366 627.154 292.35 629.504C289.513 636.097 285.368 641.911 283.324 648.907C280.208 659.519 294.117 659.338 299.583 659.644C301.321 659.742 303.13 659.867 304.687 660.799C309.082 663.427 310.028 671.258 307.107 675.695C305.327 678.407 302.462 679.798 299.638 680.535C296.815 681.272 293.894 681.495 291.113 682.482C289.972 682.885 288.818 683.456 288.039 684.513C282.726 691.703 302.81 702.357 305.925 705.431C307.747 707.225 309.416 709.534 309.722 712.33C310.404 718.561 304.59 724.416 301.238 728.269C297.038 733.081 292.323 737.282 287.246 740.689" stroke="black" stroke-width="3" stroke-miterlimit="10"/>
<path d="M300.25 659.672C300.376 656.404 301.029 653.233 303.157 652.05C304.701 651.188 306.495 652.12 308.053 652.982C310.056 654.081 312.128 655.096 314.326 655.458C316.51 655.833 318.832 655.527 320.724 654.164C323.38 652.259 324.076 649.004 323.853 645.555C323.645 642.3 322.838 639.143 322.699 635.902C322.49 631.174 325.439 623.037 330.613 625.694C334.368 627.613 333.687 634.025 334.479 637.905C334.827 639.588 335.411 641.452 336.747 642.092C337.692 642.551 338.763 642.273 339.737 641.911C342.811 640.77 345.203 639.143 347.706 636.737C349.32 635.193 351.253 633.747 353.312 634.067C354.675 634.261 355.926 635.277 356.691 636.654C357.554 638.253 357.79 640.311 357.303 642.12C356.733 644.234 355.301 645.819 353.854 647.196C351.309 649.616 348.416 651.814 346.9 655.249C346.218 656.779 345.857 658.657 346.455 660.215C347.164 662.106 348.944 662.969 350.544 663.761C353.173 665.083 354.828 667.085 354.257 670.632C353.131 677.795 344.967 678.546 340.168 678.699C338.263 678.769 335.982 678.894 335.05 680.869C334.34 682.399 334.869 684.388 335.898 685.612C336.927 686.849 338.346 687.489 339.723 688.046C342.755 689.27 346.274 691.425 345.467 696.057C345.05 698.407 343.464 700.341 341.559 701.189C339.667 702.024 337.525 701.843 335.634 700.994C334.02 700.285 332.546 699.089 330.863 698.616C327.303 697.615 323.144 700.494 322.462 704.875C322.045 707.504 325.383 720.244 325.286 722.942C325.091 728.005 313.199 737.657 309.792 740.69" stroke="black" stroke-width="3" stroke-miterlimit="10"/>
<path d="M333.867 661.898C329.139 667.141 323.645 674.235 318.568 683.47C315.675 688.741 313.394 693.804 311.614 698.408" stroke="black" stroke-width="3" stroke-miterlimit="10"/>
<path d="M265.715 645.304C269.137 656.487 272.878 672.357 274.06 691.773C275.257 711.537 273.379 728.144 271.279 739.897" stroke="black" stroke-width="3" stroke-miterlimit="10"/>
<path d="M257.37 661.898C259.415 662.524 261.821 663.539 264.324 665.222C271.793 670.243 272.823 678.505 273.421 683.776" stroke="black" stroke-width="3" stroke-miterlimit="10"/>
<path d="M290.932 671.342C289.958 671.397 281.307 672.023 276.661 680.563C274.213 685.07 274.033 689.645 274.06 691.773" stroke="black" stroke-width="3" stroke-miterlimit="10"/>
<path d="M257.259 695.612C258.914 696.183 260.708 697.045 262.516 698.338C270.708 704.166 273.379 714.584 274.172 718.242" stroke="black" stroke-width="3" stroke-miterlimit="10"/>
<path d="M217.62 741.023C220.624 738.061 223.336 734.5 222.39 731.635C220.68 726.447 208.663 728.659 205.784 722.511C203.197 716.989 210.707 710.661 207.995 706.78C205.046 702.58 193.127 699.798 188.746 697.1C184.448 694.444 184.225 690.438 187.856 686.919C191.291 683.609 201.778 688.546 203.586 685.918C207.467 680.285 199.386 671.884 202.682 667.767C205.005 664.874 212.07 665.222 216.159 668.866C220.791 672.969 212.988 682.19 216.98 686.321C219.331 688.755 223.948 688.115 224.616 688.032" stroke="black" stroke-width="3" stroke-miterlimit="10"/>
<path d="M214.671 698.505C216.772 699.59 222.391 702.858 225.937 709.771C228.789 715.334 228.872 720.494 228.747 722.914" stroke="black" stroke-width="3" stroke-miterlimit="10"/>
<path d="M317.775 832.75H220.847C214.699 832.75 209.72 827.771 209.72 821.623V751.163C209.72 745.015 214.699 740.036 220.847 740.036H317.775C323.923 740.036 328.902 745.015 328.902 751.163V821.623C328.902 827.757 323.909 832.75 317.775 832.75Z" stroke="black" stroke-width="3" stroke-miterlimit="10"/>
<path d="M328.902 773.778H209.72V798.994H328.902V773.778Z" fill="black"/>
<path d="M311.6 833.126H227.008V845.741H311.6V833.126Z" fill="black"/>
<path d="M234.296 761.803L242.126 753.958L250.221 762.053L259.401 752.873L268.525 761.983L277.51 753.012L286.203 761.719L295.174 752.748L304.325 761.886" stroke="black" stroke-width="3" stroke-miterlimit="10"/>
<path d="M234.296 818.939L242.126 811.094L250.221 819.189L259.401 809.996L268.525 819.12L277.51 810.149L286.203 818.841L295.174 809.87L304.325 819.022" stroke="black" stroke-width="3" stroke-miterlimit="10"/>
<path d="M789.095 396.867C810.075 400.253 829.829 385.991 833.215 365.01C836.602 344.03 822.339 324.276 801.359 320.89C780.378 317.503 760.625 331.766 757.238 352.746C753.852 373.727 768.114 393.48 789.095 396.867Z" fill="black"/>
<path d="M873.29 385.988C883.413 387.622 892.943 380.741 894.577 370.618C896.211 360.496 889.33 350.966 879.207 349.332C869.085 347.698 859.554 354.579 857.92 364.702C856.287 374.824 863.168 384.354 873.29 385.988Z" stroke="black" stroke-width="3" stroke-miterlimit="10"/>
<path d="M815.757 357.896L857.92 364.702" stroke="black" stroke-width="3" stroke-miterlimit="10"/>
<path d="M738.271 432.341C748.394 433.975 757.924 427.093 759.558 416.971C761.192 406.849 754.311 397.318 744.188 395.684C734.066 394.05 724.535 400.932 722.901 411.054C721.267 421.177 728.149 430.707 738.271 432.341Z" stroke="black" stroke-width="3" stroke-miterlimit="10"/>
<path d="M772.666 377.429L753.668 400.04" stroke="black" stroke-width="3" stroke-miterlimit="10"/>
<path d="M769.738 302.395L770.414 303.858L780.205 325.156" stroke="black" stroke-width="3" stroke-miterlimit="10"/>
<path d="M760.314 305.17C770.064 306.744 779.244 300.116 780.818 290.366C782.392 280.616 775.764 271.436 766.014 269.862C756.263 268.288 747.084 274.916 745.51 284.666C743.936 294.417 750.564 303.597 760.314 305.17Z" stroke="black" stroke-width="3" stroke-miterlimit="10"/>
<path d="M680.058 832.418C682.178 826.698 681.758 819.868 680.828 813.988C678.608 800.068 678.028 785.838 679.818 771.828C680.718 764.798 682.088 757.638 684.368 750.908C686.578 744.408 689.118 737.998 690.408 731.228C690.678 729.828 690.888 728.418 691.038 726.998C692.348 714.458 685.658 702.418 693.768 691.338C699.708 683.218 708.048 680.498 711.088 679.658C711.408 683.678 711.738 687.698 712.058 691.728C712.808 691.768 715.408 691.988 717.508 694.068C718.648 695.198 719.198 696.428 719.458 697.178C720.298 696.428 726.448 694.588 728.818 694.438C731.268 694.278 733.348 694.518 734.438 695.068C734.758 696.678 733.368 702.358 732.978 703.558C732.088 706.288 728.778 712.598 727.448 713.848C726.168 718.188 725.528 722.798 727.428 729.868C729.038 735.858 731.938 738.848 736.188 744.858C744.038 755.978 749.588 768.628 752.448 781.938C753.948 788.908 754.718 796.038 754.838 803.168C754.928 808.978 753.148 817.368 756.048 822.718C756.558 823.658 757.878 826.088 759.938 826.418C763.498 826.978 767.058 820.948 768.308 818.828C770.388 815.298 773.028 809.438 773.948 796.058C774.518 787.818 773.658 787.978 774.138 776.988C774.438 770.248 774.688 765.048 776.088 758.298C778.678 745.758 784.338 733.778 798.338 731.228C799.298 736.398 794.878 740.778 791.838 745.078C782.278 758.628 785.398 776.898 785.028 793.488C784.678 809.428 779.388 837.358 762.118 844.098C757.938 845.728 753.198 846.628 748.708 846.598C724.568 846.448 700.558 845.498 676.418 845.558C675.748 845.558 675.048 845.558 674.428 845.278C672.958 844.608 672.568 842.578 673.198 841.088C673.828 839.598 675.148 838.548 676.438 837.578C678.108 836.298 679.268 834.528 680.058 832.418Z" stroke="black" stroke-width="3" stroke-miterlimit="10" stroke-linecap="round" stroke-linejoin="round"/>
<path d="M730.058 774.738C726.878 776.118 717.208 780.808 711.448 791.838C703.078 807.868 710.018 823.758 710.948 825.788C704.078 828.888 697.198 831.988 690.328 835.098" stroke="black" stroke-width="3" stroke-miterlimit="10" stroke-linecap="round" stroke-linejoin="round"/>
<path d="M695.458 768.648L694.068 809.688" stroke="black" stroke-width="3" stroke-miterlimit="10" stroke-linecap="round" stroke-linejoin="round"/>
<path d="M701.218 709.038L678.268 697.008" stroke="black" stroke-width="3" stroke-miterlimit="10" stroke-linecap="round" stroke-linejoin="round"/>
<path d="M701.218 715.638H671.008" stroke="black" stroke-width="3" stroke-miterlimit="10" stroke-linecap="round" stroke-linejoin="round"/>
<path d="M715.238 711.308H744.888" stroke="black" stroke-width="3" stroke-miterlimit="10" stroke-linecap="round" stroke-linejoin="round"/>
<path d="M714.778 717.998L745.338 729.068" stroke="black" stroke-width="3" stroke-miterlimit="10" stroke-linecap="round" stroke-linejoin="round"/>
<path d="M725.778 836.148C727.828 835.468 733.428 833.328 737.678 827.558C742.638 820.828 742.428 813.688 742.308 811.688" stroke="black" stroke-width="3" stroke-miterlimit="10" stroke-linecap="round" stroke-linejoin="round"/>
<rect x="701.313" y="498.665" width="24.5902" height="102" fill="black"/>
<rect x="784.919" y="498.665" width="24.5902" height="102" fill="black"/>
<rect x="826.723" y="542.465" width="24.5902" height="58.2" fill="black"/>
<rect x="743.116" y="542.465" width="24.5902" height="58.2" fill="black"/>
<path d="M157.313 562.665V523.665H236.813V562.665H335.313V523.665H280.813" stroke="black" stroke-width="4"/>
<circle cx="157.313" cy="562.665" r="15" fill="black"/>
<circle cx="282.313" cy="523.665" r="15" fill="black"/>
</svg>
