<svg width="1024" height="1024" viewBox="0 0 1024 1024" fill="none" xmlns="http://www.w3.org/2000/svg">
<path opacity="0.04" d="M516.09 776.18C686.243 776.18 824.18 638.243 824.18 468.09C824.18 297.936 686.243 160 516.09 160C345.936 160 208 297.936 208 468.09C208 638.243 345.936 776.18 516.09 776.18Z" fill="black"/>
<path d="M505.388 313.811H481.116C469.667 313.811 456.766 316.722 441.139 335.206L410.585 370.323L437.744 412.611" stroke="black" stroke-width="3" stroke-linecap="round" stroke-linejoin="round"/>
<path d="M536.655 314.01L565.561 314.264C573.276 315.421 590.788 321.67 599.12 337.408C602.63 344.038 609.413 358.705 617.01 375.595M617.01 375.595C626.418 396.51 637.076 420.832 644.318 437.524C645.715 440.745 645.314 444.458 643.27 447.312L599.352 508.614C594.369 515.57 595.177 525.137 595.205 533.693C595.214 536.372 594.793 539.178 593.846 542.018C591.069 550.349 584.93 554.507 580.302 554.507L576.553 504.836L609.535 442.713L575.976 401.053L617.01 375.595ZM574.122 379.278L575.976 499.415" stroke="black" stroke-width="3" stroke-linecap="round" stroke-linejoin="round"/>
<path d="M454.471 365.885L447.528 494.334H575.286" stroke="black" stroke-width="3" stroke-linecap="round" stroke-linejoin="round"/>
<path d="M447.528 495.491L431.413 806.93L496.822 811.26L512.331 547.565L530.543 812.562L601.132 807.933L575.977 498.962" stroke="black" stroke-width="3" stroke-linecap="round" stroke-linejoin="round"/>
<path d="M415.304 377.922L403.554 386.714L382.725 316.126L391.749 292.97C391.364 288.341 387.585 283.03 379.253 294.139C381.182 285.267 377.978 261.236 367.794 261.236C355.065 261.236 345.358 280.356 350.323 296.453L361.895 320.754L372.31 412.173C372.31 418.967 380.013 431.297 387.32 434.006C394.736 436.756 399.801 434.006 407.519 428.341L434.537 408.054" stroke="black" stroke-width="3" stroke-linecap="round" stroke-linejoin="round"/>
<path d="M366.56 269.89C368.448 274.297 372.295 284.828 372.569 291.697" stroke="black" stroke-width="3"/>
<path d="M357.55 278.864C359.439 283.272 363.285 293.803 363.56 300.671" stroke="black" stroke-width="3"/>
<path d="M493.242 314.093C493.368 320.693 500.117 339.014 519.405 339.014C538.789 339.014 545.219 321.3 547.54 314.093" stroke="black" stroke-width="3" stroke-linecap="round" stroke-linejoin="round"/>
<path d="M505.407 313.756L506.254 284.397" stroke="black" stroke-width="3" stroke-linecap="round" stroke-linejoin="round"/>
<path d="M536.618 313.46L535.765 284.13" stroke="black" stroke-width="3" stroke-linecap="round" stroke-linejoin="round"/>
<path d="M493.151 251.578C494.33 259.699 495.874 287.454 520.535 288.32C545.197 289.187 549.117 257.897 550.738 250.85" stroke="black" stroke-width="3" stroke-linecap="round" stroke-linejoin="round"/>
<path d="M437.824 412.689L452.875 400.059" stroke="black" stroke-width="3" stroke-linecap="round" stroke-linejoin="round"/>
<path d="M496.464 218.947C481.795 219.925 488.056 242.379 493.02 253.484C496.587 248.263 495.261 241.698 496.464 232.88C497.426 225.825 502.884 223.557 505.493 223.305C511.439 227.663 520.98 231.998 528.447 232.88C534.42 233.585 541.906 231.494 544.902 230.36C547.805 232.754 547.193 240.186 547.193 244.721C547.193 248.349 549.722 252.075 550.986 253.484C551.8 251.865 554.51 247.067 556.759 239.307C559.008 231.547 555.303 222.401 553.429 218.988L558.36 214.368C558.36 214.368 549.536 207.694 544.541 204.591C539.546 201.489 532.845 197 519.346 197C505.225 197 498.526 212.556 496.464 218.947Z" fill="black"/>
<path d="M535.809 284.13C528.928 287.68 526.029 288.634 520.465 287.68L536.467 305.156L535.809 284.13Z" fill="black"/>
<path d="M446.753 508.665H576.954" stroke="black" stroke-width="3" stroke-linecap="round" stroke-linejoin="round"/>
<path d="M498.632 494.935V508.525" stroke="black" stroke-width="3" stroke-linecap="round" stroke-linejoin="round"/>
<path d="M522.405 494.935V508.525" stroke="black" stroke-width="3" stroke-linecap="round" stroke-linejoin="round"/>
<path d="M472.146 508.707L471.185 523.614C470.573 533.093 465.509 541.722 457.532 546.878L443.783 555.764" stroke="black" stroke-width="3" stroke-linecap="round" stroke-linejoin="round"/>
<path d="M553.871 508.707L554.83 523.577C555.443 533.077 560.528 541.722 568.534 546.873L580.576 554.623" stroke="black" stroke-width="3" stroke-linecap="round" stroke-linejoin="round"/>
<path d="M616.604 840.233C634.418 840.629 643.325 855.573 645.552 862.996H544.605V840.233C561.182 840.068 598.79 839.837 616.604 840.233Z" fill="black"/>
<path d="M617.33 840.654V848.522" stroke="white" stroke-width="2" stroke-linecap="round" stroke-linejoin="round"/>
<path d="M608.441 840.654V848.522" stroke="white" stroke-width="2" stroke-linecap="round" stroke-linejoin="round"/>
<path d="M599.554 840.654V848.522" stroke="white" stroke-width="2" stroke-linecap="round" stroke-linejoin="round"/>
<path d="M590.666 840.654V848.522" stroke="white" stroke-width="2" stroke-linecap="round" stroke-linejoin="round"/>
<path d="M581.494 809.348L587.168 840.654" stroke="black" stroke-width="3" stroke-linecap="round" stroke-linejoin="round"/>
<path d="M548.411 811.417L549.431 840.654" stroke="black" stroke-width="3" stroke-linecap="round" stroke-linejoin="round"/>
<path d="M608.501 840.654C615.702 837.746 627.945 829.852 619.303 821.542C610.661 813.233 608.501 830.821 608.501 840.654ZM608.501 840.654C607.808 834.145 604.263 821.708 595.621 824.035C586.979 826.362 600.607 836.084 608.501 840.654Z" stroke="black" stroke-width="3" stroke-linecap="round" stroke-linejoin="round"/>
<path d="M418.845 840.233C401.03 840.629 392.123 855.573 389.896 862.996H490.843V840.233C474.266 840.068 436.659 839.837 418.845 840.233Z" fill="black"/>
<path d="M418.118 840.654V848.522" stroke="white" stroke-width="2" stroke-linecap="round" stroke-linejoin="round"/>
<path d="M427.007 840.654V848.522" stroke="white" stroke-width="2" stroke-linecap="round" stroke-linejoin="round"/>
<path d="M435.895 840.654V848.522" stroke="white" stroke-width="2" stroke-linecap="round" stroke-linejoin="round"/>
<path d="M444.782 840.654V848.522" stroke="white" stroke-width="2" stroke-linecap="round" stroke-linejoin="round"/>
<path d="M453.954 809.348L448.28 840.654" stroke="black" stroke-width="3" stroke-linecap="round" stroke-linejoin="round"/>
<path d="M487.038 811.417L486.018 840.654" stroke="black" stroke-width="3" stroke-linecap="round" stroke-linejoin="round"/>
<path d="M426.948 840.654C419.746 837.746 407.503 829.852 416.145 821.542C424.787 813.233 426.948 830.821 426.948 840.654ZM426.948 840.654C427.64 834.145 431.185 821.708 439.827 824.035C448.469 826.362 434.842 836.084 426.948 840.654Z" stroke="black" stroke-width="3" stroke-linecap="round" stroke-linejoin="round"/>
<path d="M95 863H930" stroke="black" stroke-width="3.10138"/>
<path d="M184 582.934C193.413 546.136 226.781 518.929 266.499 518.929C306.241 518.929 339.597 546.136 349.01 582.934" fill="black"/>
<path d="M339.039 502.442H193.971C208.963 478.108 235.838 461.904 266.499 461.904C297.172 461.893 324.059 478.096 339.039 502.442Z" fill="black"/>
<path d="M310.811 445.405H222.199C235.102 437.534 250.272 433 266.499 433C282.738 433 297.896 437.534 310.811 445.405Z" fill="black"/>
<path d="M254.819 599.434V641.111C254.819 647.854 249.347 653.326 242.604 653.326C235.862 653.326 230.39 647.854 230.39 641.111V640.625" stroke="black" stroke-width="3" stroke-miterlimit="10" stroke-linecap="round" stroke-linejoin="round"/>
<path d="M291.747 599.434V641.111C291.747 647.854 286.275 653.326 279.532 653.326C272.79 653.326 267.318 647.854 267.318 641.111V640.625" stroke="black" stroke-width="3" stroke-miterlimit="10" stroke-linecap="round" stroke-linejoin="round"/>
<path d="M767.976 324.458H790.6V449.563H691V324.458H713.632" stroke="black" stroke-width="3" stroke-miterlimit="10" stroke-linecap="round" stroke-linejoin="round"/>
<path d="M767.976 316H713.632V332.24H767.976V316Z" stroke="black" stroke-width="3" stroke-miterlimit="10" stroke-linecap="round" stroke-linejoin="round"/>
<path d="M805.964 342.895H706.364V468H805.964V342.895Z" fill="black"/>
<path d="M722.43 368H789.495" stroke="white" stroke-width="3" stroke-miterlimit="10"/>
<path d="M722.43 387.912H789.495" stroke="white" stroke-width="3" stroke-miterlimit="10"/>
<path d="M722.849 406.41H768.243" stroke="white" stroke-width="3" stroke-miterlimit="10"/>
<path d="M722 433.694C725.795 436.997 730.619 438.387 733.339 437.151C738.225 434.931 735.72 424.521 733.016 424.106C731.541 423.883 729.283 426.518 729.129 428.9C728.76 434.569 740.268 439.67 744.033 437.681C748.388 435.376 742.419 423.561 745.008 422.777C747.344 422.063 753.781 431.266 754.726 432.626C756.539 435.222 757.807 437.473 758.613 439.01" stroke="white" stroke-width="3" stroke-miterlimit="10"/>
<path d="M754.849 433.034C754.849 433.034 763.763 422.911 773.326 431.811" stroke="white" stroke-width="3" stroke-miterlimit="10"/>
<path d="M750.806 425.006C752.289 425.006 752.289 422.701 750.806 422.701C749.324 422.701 749.316 425.006 750.806 425.006Z" fill="white"/>
<path d="M292.77 336.3L262.18 361.7L231.59 336.3C220.45 327.05 214 313.32 214 298.84V258L262.18 229L310.36 258V298.83C310.36 313.32 303.91 327.05 292.77 336.3Z" stroke="black" stroke-width="3" stroke-miterlimit="10" stroke-linecap="round" stroke-linejoin="round"/>
<path d="M232.21 291.49H248L256.56 272.49L268.6 308.61L275.29 290.55H292.15" stroke="black" stroke-width="3" stroke-miterlimit="10" stroke-linecap="round" stroke-linejoin="round"/>
<path d="M739.198 722.518V726.989C739.198 736.671 743.039 745.963 749.874 752.811L765.692 768.656C772.527 775.504 776.367 784.796 776.367 794.478V848.056H677V794.478C677 784.796 680.84 775.504 687.675 768.656L703.493 752.811C710.328 745.963 714.169 736.671 714.169 726.989V722.518H739.198V722.518Z" stroke="black" stroke-width="3" stroke-miterlimit="10"/>
<path d="M700.579 785.441C695.974 792.733 697.451 802.038 703.265 806.926C710.059 812.633 721.594 811.317 727.435 802.898" fill="white"/>
<path d="M700.579 785.441C695.974 792.733 697.451 802.038 703.265 806.926C710.059 812.633 721.594 811.317 727.435 802.898" stroke="black" stroke-width="3" stroke-miterlimit="10" stroke-linecap="round" stroke-linejoin="round"/>
<path d="M738.178 825.725C743.992 823.939 749.82 822.14 755.634 820.354L738.178 825.725Z" fill="white"/>
<path d="M738.178 825.725C743.992 823.939 749.82 822.14 755.634 820.354" stroke="black" stroke-width="3" stroke-miterlimit="10" stroke-linecap="round" stroke-linejoin="round"/>
<path d="M732.807 772.013C739.091 768.83 746.248 771.086 748.92 776.041C750.854 779.64 750.29 784.393 747.577 788.126" fill="white"/>
<path d="M732.807 772.013C739.091 768.83 746.248 771.086 748.92 776.041C750.854 779.64 750.29 784.393 747.577 788.126" stroke="black" stroke-width="3" stroke-miterlimit="10" stroke-linecap="round" stroke-linejoin="round"/>
<path d="M691.18 824.382L704.608 836.468" stroke="black" stroke-width="3" stroke-miterlimit="10" stroke-linecap="round" stroke-linejoin="round"/>
<path d="M719.379 758.585L732.807 750.166" stroke="black" stroke-width="3" stroke-miterlimit="10" stroke-linecap="round" stroke-linejoin="round"/>
<path d="M726.093 734.415C725.14 729.836 724.213 721.752 727.436 712.93C735.385 691.217 761.006 673.989 791.89 686.074" stroke="black" stroke-width="3" stroke-miterlimit="10"/>
<path d="M700.58 676.675C704.756 679.387 711.779 684.825 716.694 694.131C718.762 698.052 719.984 701.771 720.722 704.873" stroke="black" stroke-width="3" stroke-miterlimit="10"/>
<path d="M709.979 699.502C706.3 699.247 698.942 698.173 692.523 692.788C681.579 683.603 677.51 665.368 684.466 657.875C692.496 649.228 716.103 653.968 724.75 668.618C729.839 677.239 728.215 686.665 727.436 690.103" stroke="black" stroke-width="3" stroke-miterlimit="10"/>
<path d="M744.892 679.36C746.194 677.507 756.399 663.488 773.09 663.247C788.398 663.032 804.727 674.472 803.975 684.731C803.276 694.171 788.21 700.993 777.119 702.188C767.33 703.249 759.488 700.066 755.634 698.159" stroke="black" stroke-width="3" stroke-miterlimit="10"/>
<path d="M731.464 659.218C728.241 654.236 722.306 643.4 723.407 629.677C725.085 608.85 742.448 588.251 754.291 590.735C764.402 592.857 770.029 611.683 769.062 625.648C767.639 646.166 751.834 658.386 748.92 660.561" stroke="black" stroke-width="3" stroke-miterlimit="10"/>
<path d="M747.577 612.22C746.248 619.364 744.905 626.535 743.549 633.705C741.763 643.131 739.977 652.531 738.178 661.904" stroke="black" stroke-width="3" stroke-miterlimit="10"/>
<path d="M720.05 792.827C723.016 792.827 725.421 790.422 725.421 787.455C725.421 784.489 723.016 782.084 720.05 782.084C717.083 782.084 714.679 784.489 714.679 787.455C714.679 790.422 717.083 792.827 720.05 792.827Z" fill="black"/>
<path d="M722.735 837.139C725.702 837.139 728.107 834.734 728.107 831.768C728.107 828.801 725.702 826.397 722.735 826.397C719.769 826.397 717.364 828.801 717.364 831.768C717.364 834.734 719.769 837.139 722.735 837.139Z" fill="black"/>
<path d="M758.991 808.94C761.958 808.94 764.362 806.535 764.362 803.569C764.362 800.603 761.958 798.198 758.991 798.198C756.025 798.198 753.62 800.603 753.62 803.569C753.62 806.535 756.025 808.94 758.991 808.94Z" fill="black"/>
<path d="M776.367 847.881H677V862.652H776.367V847.881Z" fill="black" stroke="black" stroke-width="3" stroke-miterlimit="10"/>
<path d="M726.551 515.723C726.551 516.439 726.421 517.083 726.16 517.656C725.913 518.216 725.555 518.691 725.086 519.082C724.617 519.486 724.044 519.792 723.367 520C722.69 520.208 721.928 520.312 721.082 520.312C720.418 520.312 719.76 520.221 719.109 520.039C718.458 519.857 717.879 519.551 717.371 519.121C716.85 518.691 716.427 518.118 716.102 517.402C715.776 516.673 715.613 515.762 715.613 514.668H712C712 516.139 712.215 517.402 712.645 518.457C713.074 519.512 713.647 520.384 714.363 521.074C715.079 521.777 715.9 522.311 716.824 522.676C717.762 523.04 718.738 523.275 719.754 523.379V527.109H722.664V523.359C723.797 523.242 724.826 522.988 725.75 522.598C726.688 522.207 727.482 521.686 728.133 521.035C728.784 520.397 729.285 519.629 729.637 518.73C730.001 517.832 730.184 516.816 730.184 515.684C730.184 514.525 730.001 513.509 729.637 512.637C729.285 511.764 728.771 510.996 728.094 510.332C727.417 509.668 726.59 509.089 725.613 508.594C724.637 508.099 723.536 507.65 722.312 507.246C721.31 506.908 720.451 506.562 719.734 506.211C719.031 505.846 718.458 505.456 718.016 505.039C717.56 504.622 717.228 504.16 717.02 503.652C716.811 503.145 716.707 502.565 716.707 501.914C716.707 501.25 716.798 500.651 716.98 500.117C717.176 499.57 717.456 499.102 717.82 498.711C718.211 498.281 718.712 497.949 719.324 497.715C719.949 497.48 720.678 497.363 721.512 497.363C722.28 497.363 722.964 497.513 723.562 497.812C724.161 498.112 724.669 498.522 725.086 499.043C725.49 499.577 725.796 500.215 726.004 500.957C726.225 501.686 726.336 502.487 726.336 503.359H729.93C729.917 501.862 729.715 500.54 729.324 499.395C728.934 498.236 728.367 497.266 727.625 496.484C727.052 495.898 726.375 495.423 725.594 495.059C724.812 494.681 723.947 494.427 722.996 494.297V490H720.086V494.297C719.031 494.427 718.068 494.694 717.195 495.098C716.336 495.501 715.607 496.029 715.008 496.68C714.396 497.344 713.921 498.118 713.582 499.004C713.257 499.889 713.094 500.879 713.094 501.973C713.094 503.132 713.283 504.154 713.66 505.039C714.038 505.924 714.578 506.706 715.281 507.383C715.971 508.073 716.805 508.665 717.781 509.16C718.758 509.655 719.852 510.091 721.062 510.469C722.026 510.781 722.859 511.126 723.562 511.504C724.266 511.868 724.839 512.266 725.281 512.695C725.724 513.125 726.043 513.594 726.238 514.102C726.447 514.596 726.551 515.137 726.551 515.723Z" fill="black"/>
<path d="M750.574 515.723C750.574 516.439 750.444 517.083 750.184 517.656C749.936 518.216 749.578 518.691 749.109 519.082C748.641 519.486 748.068 519.792 747.391 520C746.714 520.208 745.952 520.312 745.105 520.312C744.441 520.312 743.784 520.221 743.133 520.039C742.482 519.857 741.902 519.551 741.395 519.121C740.874 518.691 740.451 518.118 740.125 517.402C739.799 516.673 739.637 515.762 739.637 514.668H736.023C736.023 516.139 736.238 517.402 736.668 518.457C737.098 519.512 737.671 520.384 738.387 521.074C739.103 521.777 739.923 522.311 740.848 522.676C741.785 523.04 742.762 523.275 743.777 523.379V527.109H746.688V523.359C747.82 523.242 748.849 522.988 749.773 522.598C750.711 522.207 751.505 521.686 752.156 521.035C752.807 520.397 753.309 519.629 753.66 518.73C754.025 517.832 754.207 516.816 754.207 515.684C754.207 514.525 754.025 513.509 753.66 512.637C753.309 511.764 752.794 510.996 752.117 510.332C751.44 509.668 750.613 509.089 749.637 508.594C748.66 508.099 747.56 507.65 746.336 507.246C745.333 506.908 744.474 506.562 743.758 506.211C743.055 505.846 742.482 505.456 742.039 505.039C741.583 504.622 741.251 504.16 741.043 503.652C740.835 503.145 740.73 502.565 740.73 501.914C740.73 501.25 740.822 500.651 741.004 500.117C741.199 499.57 741.479 499.102 741.844 498.711C742.234 498.281 742.736 497.949 743.348 497.715C743.973 497.48 744.702 497.363 745.535 497.363C746.303 497.363 746.987 497.513 747.586 497.812C748.185 498.112 748.693 498.522 749.109 499.043C749.513 499.577 749.819 500.215 750.027 500.957C750.249 501.686 750.359 502.487 750.359 503.359H753.953C753.94 501.862 753.738 500.54 753.348 499.395C752.957 498.236 752.391 497.266 751.648 496.484C751.076 495.898 750.398 495.423 749.617 495.059C748.836 494.681 747.97 494.427 747.02 494.297V490H744.109V494.297C743.055 494.427 742.091 494.694 741.219 495.098C740.359 495.501 739.63 496.029 739.031 496.68C738.419 497.344 737.944 498.118 737.605 499.004C737.28 499.889 737.117 500.879 737.117 501.973C737.117 503.132 737.306 504.154 737.684 505.039C738.061 505.924 738.602 506.706 739.305 507.383C739.995 508.073 740.828 508.665 741.805 509.16C742.781 509.655 743.875 510.091 745.086 510.469C746.049 510.781 746.883 511.126 747.586 511.504C748.289 511.868 748.862 512.266 749.305 512.695C749.747 513.125 750.066 513.594 750.262 514.102C750.47 514.596 750.574 515.137 750.574 515.723Z" fill="black"/>
<path d="M774.598 515.723C774.598 516.439 774.467 517.083 774.207 517.656C773.96 518.216 773.602 518.691 773.133 519.082C772.664 519.486 772.091 519.792 771.414 520C770.737 520.208 769.975 520.312 769.129 520.312C768.465 520.312 767.807 520.221 767.156 520.039C766.505 519.857 765.926 519.551 765.418 519.121C764.897 518.691 764.474 518.118 764.148 517.402C763.823 516.673 763.66 515.762 763.66 514.668H760.047C760.047 516.139 760.262 517.402 760.691 518.457C761.121 519.512 761.694 520.384 762.41 521.074C763.126 521.777 763.947 522.311 764.871 522.676C765.809 523.04 766.785 523.275 767.801 523.379V527.109H770.711V523.359C771.844 523.242 772.872 522.988 773.797 522.598C774.734 522.207 775.529 521.686 776.18 521.035C776.831 520.397 777.332 519.629 777.684 518.73C778.048 517.832 778.23 516.816 778.23 515.684C778.23 514.525 778.048 513.509 777.684 512.637C777.332 511.764 776.818 510.996 776.141 510.332C775.464 509.668 774.637 509.089 773.66 508.594C772.684 508.099 771.583 507.65 770.359 507.246C769.357 506.908 768.497 506.562 767.781 506.211C767.078 505.846 766.505 505.456 766.062 505.039C765.607 504.622 765.275 504.16 765.066 503.652C764.858 503.145 764.754 502.565 764.754 501.914C764.754 501.25 764.845 500.651 765.027 500.117C765.223 499.57 765.503 499.102 765.867 498.711C766.258 498.281 766.759 497.949 767.371 497.715C767.996 497.48 768.725 497.363 769.559 497.363C770.327 497.363 771.01 497.513 771.609 497.812C772.208 498.112 772.716 498.522 773.133 499.043C773.536 499.577 773.842 500.215 774.051 500.957C774.272 501.686 774.383 502.487 774.383 503.359H777.977C777.964 501.862 777.762 500.54 777.371 499.395C776.98 498.236 776.414 497.266 775.672 496.484C775.099 495.898 774.422 495.423 773.641 495.059C772.859 494.681 771.993 494.427 771.043 494.297V490H768.133V494.297C767.078 494.427 766.115 494.694 765.242 495.098C764.383 495.501 763.654 496.029 763.055 496.68C762.443 497.344 761.967 498.118 761.629 499.004C761.303 499.889 761.141 500.879 761.141 501.973C761.141 503.132 761.329 504.154 761.707 505.039C762.085 505.924 762.625 506.706 763.328 507.383C764.018 508.073 764.852 508.665 765.828 509.16C766.805 509.655 767.898 510.091 769.109 510.469C770.073 510.781 770.906 511.126 771.609 511.504C772.312 511.868 772.885 512.266 773.328 512.695C773.771 513.125 774.09 513.594 774.285 514.102C774.493 514.596 774.598 515.137 774.598 515.723Z" fill="black"/>
<path d="M798.621 515.723C798.621 516.439 798.491 517.083 798.23 517.656C797.983 518.216 797.625 518.691 797.156 519.082C796.688 519.486 796.115 519.792 795.438 520C794.76 520.208 793.999 520.312 793.152 520.312C792.488 520.312 791.831 520.221 791.18 520.039C790.529 519.857 789.949 519.551 789.441 519.121C788.921 518.691 788.497 518.118 788.172 517.402C787.846 516.673 787.684 515.762 787.684 514.668H784.07C784.07 516.139 784.285 517.402 784.715 518.457C785.145 519.512 785.717 520.384 786.434 521.074C787.15 521.777 787.97 522.311 788.895 522.676C789.832 523.04 790.809 523.275 791.824 523.379V527.109H794.734V523.359C795.867 523.242 796.896 522.988 797.82 522.598C798.758 522.207 799.552 521.686 800.203 521.035C800.854 520.397 801.355 519.629 801.707 518.73C802.072 517.832 802.254 516.816 802.254 515.684C802.254 514.525 802.072 513.509 801.707 512.637C801.355 511.764 800.841 510.996 800.164 510.332C799.487 509.668 798.66 509.089 797.684 508.594C796.707 508.099 795.607 507.65 794.383 507.246C793.38 506.908 792.521 506.562 791.805 506.211C791.102 505.846 790.529 505.456 790.086 505.039C789.63 504.622 789.298 504.16 789.09 503.652C788.882 503.145 788.777 502.565 788.777 501.914C788.777 501.25 788.868 500.651 789.051 500.117C789.246 499.57 789.526 499.102 789.891 498.711C790.281 498.281 790.783 497.949 791.395 497.715C792.02 497.48 792.749 497.363 793.582 497.363C794.35 497.363 795.034 497.513 795.633 497.812C796.232 498.112 796.74 498.522 797.156 499.043C797.56 499.577 797.866 500.215 798.074 500.957C798.296 501.686 798.406 502.487 798.406 503.359H802C801.987 501.862 801.785 500.54 801.395 499.395C801.004 498.236 800.438 497.266 799.695 496.484C799.122 495.898 798.445 495.423 797.664 495.059C796.883 494.681 796.017 494.427 795.066 494.297V490H792.156V494.297C791.102 494.427 790.138 494.694 789.266 495.098C788.406 495.501 787.677 496.029 787.078 496.68C786.466 497.344 785.991 498.118 785.652 499.004C785.327 499.889 785.164 500.879 785.164 501.973C785.164 503.132 785.353 504.154 785.73 505.039C786.108 505.924 786.648 506.706 787.352 507.383C788.042 508.073 788.875 508.665 789.852 509.16C790.828 509.655 791.922 510.091 793.133 510.469C794.096 510.781 794.93 511.126 795.633 511.504C796.336 511.868 796.909 512.266 797.352 512.695C797.794 513.125 798.113 513.594 798.309 514.102C798.517 514.596 798.621 515.137 798.621 515.723Z" fill="black"/>
<path d="M179 756V810.87H261.01V756H179Z" stroke="black" stroke-width="3" stroke-miterlimit="10" stroke-linecap="round" stroke-linejoin="round"/>
<path d="M220 795.626C226.732 795.626 232.19 790.168 232.19 783.436C232.19 776.704 226.732 771.246 220 771.246C213.268 771.246 207.81 776.704 207.81 783.436C207.81 790.168 213.268 795.626 220 795.626Z" fill="black"/>
<path d="M200.29 764.436H186.67V778.056L200.29 764.436Z" fill="black"/>
<path d="M253.33 778.056V764.436H239.72L253.33 778.056Z" fill="black"/>
<path d="M239.72 802.436H253.33V788.826L239.72 802.436Z" fill="black"/>
<path d="M186.67 788.826V802.436H200.29L186.67 788.826Z" fill="black"/>
<path d="M179.06 820.256V836.256H261.06V820.256H179.06Z" fill="black" stroke="black" stroke-width="3" stroke-miterlimit="10" stroke-linecap="round" stroke-linejoin="round"/>
<path d="M179.06 845.256V861.256H261.06V845.256H179.06Z" fill="black" stroke="black" stroke-width="3" stroke-miterlimit="10" stroke-linecap="round" stroke-linejoin="round"/>
<path d="M285 706V760.87H367.01V706H285Z" stroke="black" stroke-width="3" stroke-miterlimit="10" stroke-linecap="round" stroke-linejoin="round"/>
<path d="M326 745.626C332.732 745.626 338.19 740.168 338.19 733.436C338.19 726.704 332.732 721.246 326 721.246C319.268 721.246 313.81 726.704 313.81 733.436C313.81 740.168 319.268 745.626 326 745.626Z" fill="black"/>
<path d="M306.29 714.436H292.67V728.056L306.29 714.436Z" fill="black"/>
<path d="M359.33 728.056V714.436H345.72L359.33 728.056Z" fill="black"/>
<path d="M345.72 752.436H359.33V738.826L345.72 752.436Z" fill="black"/>
<path d="M292.67 738.826V752.436H306.29L292.67 738.826Z" fill="black"/>
<path d="M285.06 769.87V785.87H367.06V769.87H285.06Z" fill="black" stroke="black" stroke-width="3" stroke-miterlimit="10" stroke-linecap="round" stroke-linejoin="round"/>
<path d="M285.06 819.87V835.87H367.06V819.87H285.06Z" fill="black" stroke="black" stroke-width="3" stroke-miterlimit="10" stroke-linecap="round" stroke-linejoin="round"/>
<path d="M285.06 794.87V810.87H367.06V794.87H285.06Z" fill="black" stroke="black" stroke-width="3" stroke-miterlimit="10" stroke-linecap="round" stroke-linejoin="round"/>
<path d="M285.06 844.87V860.87H367.06V844.87H285.06Z" fill="black" stroke="black" stroke-width="3" stroke-miterlimit="10" stroke-linecap="round" stroke-linejoin="round"/>
</svg>
