<svg width="1024" height="1024" viewBox="0 0 1024 1024" fill="none" xmlns="http://www.w3.org/2000/svg">
<path opacity="0.04" d="M532.596 794.18C702.749 794.18 840.686 656.243 840.686 486.09C840.686 315.936 702.749 178 532.596 178C362.443 178 224.506 315.936 224.506 486.09C224.506 656.243 362.443 794.18 532.596 794.18Z" fill="black"/>
<path d="M525.932 846.598L523.832 813.603C519.922 814.038 513.227 819.86 507.712 819.118C498.487 817.876 495.377 816.551 492.971 814.346L445.535 828.488C441.154 829.794 438.151 833.823 438.151 838.395V846.598L525.932 846.598Z" fill="black"/>
<path d="M602.054 846.598L599.955 813.603C596.045 814.038 589.35 819.86 583.835 819.118C574.61 817.876 571.5 816.551 569.094 814.346L521.658 828.488C517.277 829.794 514.274 833.823 514.274 838.395V846.598L602.054 846.598Z" fill="black"/>
<path d="M519.584 285.973L522.696 271.735H573.73L576.842 285.973H519.584Z" stroke="black" stroke-width="3.10138"/>
<path d="M521.125 277.872C512.483 277.872 489.251 280.75 480.46 290.893C474.234 298.078 440.142 361.058 422.927 396.89L322.634 417.959L330.571 482.869C366.133 481.438 442.273 453.488 456.541 442.655C470.81 431.821 476.33 421.812 479.193 415.317L501.245 370.44" stroke="black" stroke-width="3.10138"/>
<path d="M470.922 428.901L450.128 701.218H646.764L624.594 382.516" stroke="black" stroke-width="3.10138"/>
<path d="M514.274 593.3L560.937 466.182" stroke="black" stroke-width="3.10138"/>
<path d="M545.492 636.911L580.178 542.789" stroke="black" stroke-width="3.10138"/>
<path d="M626.992 418.389C636 429.456 658.032 451.282 674.093 450.047C690.153 448.811 698.115 433.231 700.088 425.596L709.886 307.343H650.741L656.689 360.906" stroke="black" stroke-width="3.10138"/>
<path d="M575.311 278.899C581.578 278.786 599.327 283.432 612.876 302.943C626.425 322.454 661.427 366.623 677.234 386.27" stroke="black" stroke-width="3.10138"/>
<path d="M477.854 700.871L481.67 784.748H534.712L538.385 700.871" stroke="black" stroke-width="3.10138"/>
<path d="M491.446 784.748L493.549 822.302H522.77L524.793 784.748" stroke="black" stroke-width="3.10138"/>
<path d="M567.568 784.748L569.671 822.302H598.892L600.915 784.748" stroke="black" stroke-width="3.10138"/>
<path d="M558.164 700.871L561.98 784.748H615.022L618.695 700.871" stroke="black" stroke-width="3.10138"/>
<path d="M661.819 307.35C658.314 294.975 654.795 278.724 667.31 276.5V253.939C667.194 252.359 667.827 249.15 671.288 248.96C674.749 248.77 675.968 253.044 676.144 255.204L676.762 272.276C685.644 271.418 703.208 273.466 702.406 288.526C701.604 303.585 700.935 307.35 700.7 307.35" stroke="black" stroke-width="3.10138"/>
<path d="M323.697 424.815C299.894 428.782 305.081 435.954 288.432 430.035C267.322 422.531 262.717 441.75 272.567 452.9C280.026 461.342 290.503 462.906 301.479 462.049C310.26 461.364 322.434 457.42 327.424 455.534" stroke="black" stroke-width="3.10138"/>
<path d="M275.643 438.716C278.672 441.133 287.845 444.939 300.303 440.824" stroke="black" stroke-width="3.10138"/>
<path d="M278.109 449.105C281.079 451.595 290.158 455.62 302.711 451.805" stroke="black" stroke-width="3.10138"/>
<path d="M533.718 217.468C526.303 226.299 517.496 247.096 522.297 254.823C527.097 262.551 542.605 262.056 547.337 261.275" stroke="black" stroke-width="3.10138"/>
<path d="M556.632 260.587C558.987 260.848 563.923 260.452 564.82 256.773C565.718 253.094 565.194 244.247 564.82 240.284" stroke="black" stroke-width="3.10138"/>
<path d="M533.061 261.217V271.735" stroke="black" stroke-width="3.10138"/>
<path d="M560.378 260.315L560.378 271.735" stroke="black" stroke-width="3.10138"/>
<path d="M533.39 206.877C540.318 201.172 551.16 200.471 555.715 200.834C567.733 201.532 574.037 210.543 575.687 214.962C578.484 222.453 581.919 241.967 568.675 249.341C555.431 256.715 545.675 240.115 544.404 233.903C534.16 235.78 529.195 228.727 527.993 224.965C526.905 221.313 526.462 212.582 533.39 206.877Z" fill="black"/>
<circle cx="575.782" cy="204.136" r="19.1505" fill="black"/>
<path d="M533.061 261.718V267.793L547.446 261.222C539.374 261.42 537.383 261.544 533.061 261.718Z" fill="black"/>
<path d="M322.645 356.711C339.929 356.711 353.941 325.757 353.941 287.574C353.941 249.391 339.929 218.438 322.645 218.438C305.361 218.438 291.35 249.391 291.35 287.574C291.35 325.757 305.361 356.711 322.645 356.711Z" stroke="black" stroke-width="3.10138" stroke-miterlimit="10"/>
<path d="M382.513 322.155C391.155 307.187 371.356 279.577 338.289 260.485C305.223 241.394 271.411 238.051 262.769 253.019C254.127 267.987 273.927 295.598 306.994 314.689C340.06 333.781 373.871 337.123 382.513 322.155Z" stroke="black" stroke-width="3.10138" stroke-miterlimit="10"/>
<path d="M338.274 314.67C371.34 295.579 391.14 267.968 382.498 253C373.856 238.032 340.045 241.375 306.979 260.466C273.912 279.558 254.112 307.168 262.754 322.136C271.396 337.104 305.208 333.761 338.274 314.67Z" stroke="black" stroke-width="3.10138" stroke-miterlimit="10"/>
<path d="M321.307 270.884V305.032" stroke="black" stroke-width="3.10138" stroke-miterlimit="10"/>
<path d="M338.38 287.958H304.232" stroke="black" stroke-width="3.10138" stroke-miterlimit="10"/>
<path d="M333.381 275.884L309.243 300.032" stroke="black" stroke-width="3.10138" stroke-miterlimit="10"/>
<path d="M333.381 300.032L309.243 275.884" stroke="black" stroke-width="3.10138" stroke-miterlimit="10"/>
<path d="M144 845.741H880.939" stroke="black" stroke-width="3.10138"/>
<path d="M274.394 553.882V608.52L233.881 681.196C231.534 690.688 238.71 699.865 248.489 699.865H352.409C362.188 699.865 369.363 690.688 367.017 681.196L326.504 608.52V553.882H274.394Z" stroke="black" stroke-width="3.10138" stroke-miterlimit="10"/>
<path d="M277.688 679.104C286.029 679.104 292.791 672.342 292.791 664C292.791 655.659 286.029 648.897 277.688 648.897C269.346 648.897 262.584 655.659 262.584 664C262.584 672.342 269.346 679.104 277.688 679.104Z" stroke="black" stroke-width="3.10138" stroke-miterlimit="10"/>
<path d="M303.473 632.575C309.372 632.575 314.154 627.793 314.154 621.894C314.154 615.995 309.372 611.213 303.473 611.213C297.574 611.213 292.792 615.995 292.792 621.894C292.792 627.793 297.574 632.575 303.473 632.575Z" stroke="black" stroke-width="3.10138" stroke-miterlimit="10"/>
<path d="M327.166 674.681C333.065 674.681 337.847 669.899 337.847 664.001C337.847 658.102 333.065 653.32 327.166 653.32C321.267 653.32 316.485 658.102 316.485 664.001C316.485 669.899 321.267 674.681 327.166 674.681Z" fill="black"/>
<path d="M263.021 553.882H337.862" stroke="black" stroke-width="3.10138" stroke-miterlimit="10"/>
<path d="M240.603 701.04L187.936 845.741" stroke="black" stroke-width="3.10138"/>
<path d="M260.603 701.04L207.936 845.741" stroke="black" stroke-width="3.10138"/>
<path d="M360.294 701.04L412.961 845.741" stroke="black" stroke-width="3.10138"/>
<path d="M340.294 701.04L392.961 845.741" stroke="black" stroke-width="3.10138"/>
<path d="M286.805 792.695C286.163 793.621 282.804 798.657 284.439 805.137C285.722 810.223 289.352 813.299 291.758 814.851C292.74 815.488 294.104 815.01 294.355 813.926C296.31 805.545 300.781 798.866 307.088 792.397C311.429 787.948 316.011 783.578 318.959 778.253C327.1 763.533 315.059 750.912 301.814 743.517C300.581 742.83 299.057 743.815 299.308 745.119C299.879 748.065 300.07 751.848 300.11 752.972C300.23 756.705 299.528 760.676 297.483 763.951C293.452 770.38 285.692 774.521 280.408 780.005C275.555 785.051 272.086 791.302 271.034 797.971C267.474 820.564 295.056 838.868 316.703 826.626C326.579 821.042 331.773 810.402 330.9 799.902" stroke="black" stroke-width="3.10138" stroke-miterlimit="10"/>
<path d="M319.801 801.892C319.801 801.892 317.485 790.287 330.98 786.923" stroke="black" stroke-width="3.10138" stroke-miterlimit="10"/>
<path d="M297.422 783.17C298.345 782.782 306.255 779.259 308.291 770.689C309.634 765.026 307.659 760.387 306.927 758.884" stroke="black" stroke-width="3.10138" stroke-miterlimit="10"/>
<rect x="212.327" y="698.312" width="176.244" height="28" fill="black"/>
<path d="M741.656 735.942V739.396C741.656 746.875 744.623 754.054 749.902 759.344L762.122 771.584C767.402 776.874 770.368 784.052 770.368 791.531V832.92H693.608V791.531C693.608 784.052 696.575 776.874 701.854 771.584L714.074 759.344C719.354 754.054 722.32 746.875 722.32 739.396V735.942H741.656Z" stroke="black" stroke-width="3.10138" stroke-miterlimit="10"/>
<path d="M711.823 784.54C708.265 790.172 709.406 797.361 713.898 801.137C719.146 805.545 728.057 804.529 732.569 798.025" fill="white"/>
<path d="M711.823 784.54C708.265 790.172 709.406 797.361 713.898 801.137C719.146 805.545 728.057 804.529 732.569 798.025" stroke="black" stroke-width="3.10138" stroke-miterlimit="10" stroke-linecap="round" stroke-linejoin="round"/>
<path d="M740.868 815.659C745.359 814.279 749.861 812.89 754.353 811.51L740.868 815.659Z" fill="white"/>
<path d="M740.868 815.659C745.359 814.279 749.861 812.89 754.353 811.51" stroke="black" stroke-width="3.10138" stroke-miterlimit="10" stroke-linecap="round" stroke-linejoin="round"/>
<path d="M736.718 774.167C741.573 771.708 747.102 773.451 749.166 777.279C750.66 780.059 750.224 783.731 748.129 786.614" fill="white"/>
<path d="M736.718 774.167C741.573 771.708 747.102 773.451 749.166 777.279C750.66 780.059 750.224 783.731 748.129 786.614" stroke="black" stroke-width="3.10138" stroke-miterlimit="10" stroke-linecap="round" stroke-linejoin="round"/>
<path d="M704.562 814.622L714.935 823.958" stroke="black" stroke-width="3.10138" stroke-miterlimit="10" stroke-linecap="round" stroke-linejoin="round"/>
<path d="M726.345 763.794L736.718 757.29" stroke="black" stroke-width="3.10138" stroke-miterlimit="10" stroke-linecap="round" stroke-linejoin="round"/>
<path d="M731.532 745.122C730.795 741.585 730.079 735.341 732.569 728.525C738.71 711.752 758.501 698.444 782.359 707.779" stroke="black" stroke-width="3.10138" stroke-miterlimit="10"/>
<path d="M711.823 700.518C715.049 702.614 720.474 706.815 724.27 714.003C725.868 717.032 726.812 719.905 727.382 722.302" stroke="black" stroke-width="3.10138" stroke-miterlimit="10"/>
<path d="M719.084 718.153C716.242 717.955 710.557 717.126 705.599 712.966C697.145 705.871 694.002 691.784 699.375 685.996C705.578 679.316 723.814 682.978 730.494 694.295C734.426 700.954 733.171 708.236 732.569 710.891" stroke="black" stroke-width="3.10138" stroke-miterlimit="10"/>
<path d="M746.054 702.593C747.06 701.161 754.943 690.332 767.837 690.145C779.662 689.979 792.276 698.817 791.695 706.742C791.156 714.034 779.517 719.304 770.949 720.227C763.387 721.047 757.329 718.588 754.352 717.115" stroke="black" stroke-width="3.10138" stroke-miterlimit="10"/>
<path d="M735.681 687.033C733.191 683.185 728.606 674.814 729.457 664.213C730.753 648.124 744.166 632.212 753.315 634.131C761.126 635.77 765.472 650.313 764.725 661.101C763.626 676.951 751.417 686.39 749.166 688.071" stroke="black" stroke-width="3.10138" stroke-miterlimit="10"/>
<path d="M748.129 650.728C747.102 656.246 746.065 661.785 745.017 667.324C743.637 674.606 742.258 681.867 740.868 689.108" stroke="black" stroke-width="3.10138" stroke-miterlimit="10"/>
<path d="M726.864 790.245C729.155 790.245 731.013 788.388 731.013 786.096C731.013 783.804 729.155 781.947 726.864 781.947C724.572 781.947 722.714 783.804 722.714 786.096C722.714 788.388 724.572 790.245 726.864 790.245Z" fill="black"/>
<path d="M728.938 824.476C731.23 824.476 733.087 822.619 733.087 820.327C733.087 818.035 731.23 816.178 728.938 816.178C726.647 816.178 724.789 818.035 724.789 820.327C724.789 822.619 726.647 824.476 728.938 824.476Z" fill="black"/>
<path d="M756.946 802.693C759.237 802.693 761.095 800.835 761.095 798.544C761.095 796.252 759.237 794.394 756.946 794.394C754.654 794.394 752.796 796.252 752.796 798.544C752.796 800.835 754.654 802.693 756.946 802.693Z" fill="black"/>
<path d="M770.368 832.775H693.608V844.185H770.368V832.775Z" fill="black" stroke="black" stroke-width="3.10138" stroke-miterlimit="10"/>
<rect x="698.134" y="491.711" width="173.052" height="66.0773" fill="black"/>
<path d="M711.657 524.44H732.779L743.404 507.473L758.648 542.027L768.95 524.44H791.715" stroke="white" stroke-width="3"/>
<path d="M777.605 524.44H798.728L809.352 507.473L824.597 542.027L834.899 524.44H857.664" stroke="white" stroke-width="3"/>
<path d="M779.66 431.975V410.318L761.342 399.493L743.016 410.318V431.975L761.342 442.807L779.66 431.975Z" stroke="black" stroke-width="3.10138" stroke-miterlimit="10"/>
<path d="M826.304 431.975V410.318L807.986 399.493L789.66 410.318V431.975L807.986 442.807L826.304 431.975Z" stroke="black" stroke-width="3.10138" stroke-miterlimit="10"/>
<path d="M802.982 391.623V369.966L784.663 359.141L766.338 369.966V391.623L784.663 402.455L802.982 391.623Z" stroke="black" stroke-width="3.10138" stroke-miterlimit="10"/>
</svg>
