<svg width="1024" height="1024" viewBox="0 0 1024 1024" fill="none" xmlns="http://www.w3.org/2000/svg">
<path opacity="0.04" d="M532.596 794.18C702.749 794.18 840.686 656.243 840.686 486.09C840.686 315.936 702.749 178 532.596 178C362.443 178 224.506 315.936 224.506 486.09C224.506 656.243 362.443 794.18 532.596 794.18Z" fill="black"/>
<path d="M831 449.22L831 333.22L770 333.22L770 449.22L831 449.22Z" stroke="black" stroke-width="3" stroke-miterlimit="10"/>
<path d="M847.61 449.7L753 449.7" stroke="black" stroke-width="3" stroke-miterlimit="10"/>
<path d="M796.3 357.34L770.08 357.34" stroke="black" stroke-width="3" stroke-miterlimit="10"/>
<path d="M785.97 378.58L770.08 378.58" stroke="black" stroke-width="3" stroke-miterlimit="10"/>
<path d="M796.3 399.82L770.08 399.82" stroke="black" stroke-width="3" stroke-miterlimit="10"/>
<path d="M785.97 421.07L770.08 421.07" stroke="black" stroke-width="3" stroke-miterlimit="10"/>
<path d="M819 333.221L819 319.561L781.9 319.561L781.9 333.221L819 333.221Z" fill="black"/>
<path d="M800 267.771L800 319.561" stroke="black" stroke-width="3" stroke-miterlimit="10"/>
<path d="M816.16 506.22L816.16 449.7L784.45 449.7L784.45 506.22L816.16 506.22Z" fill="black"/>
<path d="M826.09 506.22L774.52 506.22" stroke="black" stroke-width="3" stroke-miterlimit="10"/>
<path d="M525.932 846.599L523.832 813.604C519.922 814.038 513.227 819.861 507.712 819.118C498.487 817.876 495.377 816.551 492.971 814.346L445.535 828.489C441.154 829.795 438.151 833.824 438.151 838.396V846.599L525.932 846.599Z" fill="black"/>
<path d="M602.054 846.599L599.955 813.604C596.045 814.038 589.35 819.861 583.835 819.118C574.61 817.876 571.5 816.551 569.094 814.346L521.658 828.489C517.277 829.795 514.274 833.824 514.274 838.396V846.599L602.054 846.599Z" fill="black"/>
<path d="M519.584 285.973L522.696 271.735H573.73L576.842 285.973H519.584Z" stroke="black" stroke-width="3.10138"/>
<path d="M521.125 277.872C512.483 277.872 489.251 280.75 480.46 290.893C474.234 298.078 440.142 361.058 422.927 396.89L322.634 417.959L330.571 482.87C366.133 481.438 442.273 453.489 456.541 442.655C470.81 431.821 476.33 421.813 479.193 415.317L501.245 370.44" stroke="black" stroke-width="3.10138"/>
<path d="M470.922 428.901L450.128 701.218H646.764L624.594 382.516" stroke="black" stroke-width="3.10138"/>
<path d="M514.274 593.3L560.937 466.182" stroke="black" stroke-width="3.10138"/>
<path d="M545.492 636.911L580.178 542.789" stroke="black" stroke-width="3.10138"/>
<path d="M626.992 418.389C636 429.457 658.032 451.283 674.093 450.047C690.153 448.812 698.115 433.232 700.088 425.596L709.886 307.343H650.741L656.689 360.906" stroke="black" stroke-width="3.10138"/>
<path d="M575.311 278.899C581.578 278.786 599.327 283.433 612.876 302.943C626.425 322.454 661.427 366.624 677.234 386.27" stroke="black" stroke-width="3.10138"/>
<path d="M477.854 700.871L481.67 784.748H534.712L538.385 700.871" stroke="black" stroke-width="3.10138"/>
<path d="M491.446 784.749L493.549 822.302H522.77L524.793 784.749" stroke="black" stroke-width="3.10138"/>
<path d="M567.568 784.749L569.671 822.302H598.892L600.915 784.749" stroke="black" stroke-width="3.10138"/>
<path d="M558.164 700.871L561.98 784.748H615.022L618.695 700.871" stroke="black" stroke-width="3.10138"/>
<path d="M661.819 307.351C658.314 294.975 654.795 278.724 667.31 276.5V253.94C667.194 252.359 667.827 249.15 671.288 248.96C674.749 248.771 675.968 253.044 676.144 255.204L676.762 272.276C685.644 271.418 703.208 273.466 702.406 288.526C701.604 303.586 700.935 307.351 700.7 307.351" stroke="black" stroke-width="3.10138"/>
<path d="M323.697 424.815C299.894 428.782 305.081 435.954 288.432 430.036C267.322 422.531 262.717 441.751 272.567 452.9C280.026 461.342 290.503 462.907 301.479 462.05C310.26 461.364 322.434 457.42 327.424 455.534" stroke="black" stroke-width="3.10138"/>
<path d="M275.643 438.716C278.672 441.133 287.845 444.939 300.303 440.824" stroke="black" stroke-width="3.10138"/>
<path d="M278.109 449.106C281.079 451.595 290.158 455.62 302.711 451.805" stroke="black" stroke-width="3.10138"/>
<path d="M533.718 217.469C526.303 226.299 517.496 247.096 522.297 254.824C527.097 262.551 542.605 262.056 547.337 261.275" stroke="black" stroke-width="3.10138"/>
<path d="M556.632 260.587C558.987 260.849 563.923 260.452 564.82 256.773C565.718 253.094 565.194 244.247 564.82 240.284" stroke="black" stroke-width="3.10138"/>
<path d="M533.061 261.217V271.735" stroke="black" stroke-width="3.10138"/>
<path d="M560.378 260.315L560.378 271.735" stroke="black" stroke-width="3.10138"/>
<path d="M533.39 206.877C540.318 201.172 551.16 200.471 555.715 200.834C567.733 201.532 574.037 210.543 575.687 214.962C578.484 222.454 581.919 241.968 568.675 249.341C555.431 256.715 545.675 240.115 544.404 233.903C534.16 235.78 529.195 228.727 527.993 224.965C526.905 221.313 526.462 212.582 533.39 206.877Z" fill="black"/>
<circle cx="575.782" cy="204.137" r="19.1505" fill="black"/>
<path d="M533.061 261.718V267.793L547.446 261.223C539.374 261.42 537.383 261.544 533.061 261.718Z" fill="black"/>
<path d="M144 845.741H880.939" stroke="black" stroke-width="3.10138"/>
<path d="M350.773 786.931H245.443V845.741H350.773V786.931Z" stroke="black" stroke-width="3" stroke-miterlimit="10" stroke-linecap="round" stroke-linejoin="round"/>
<path d="M318.358 776.921C319.93 774.994 321.63 772.778 323.379 770.263C328.175 763.364 333.317 754.249 337.04 742.917C339.869 734.294 341.215 726.428 341.827 719.924C337.886 723.252 334.509 728.16 330.02 733.657C325.676 738.976 317.673 752.903 315.223 757.32C316.222 753.548 319.325 739.678 319.841 734.858C320.84 725.509 321.558 717.554 320.51 711.308C315.763 717.627 309.42 727.757 305.664 741.483C303.464 749.518 302.707 756.756 302.545 762.559C301.062 755.458 298.87 747.342 295.606 738.606C291.617 727.959 286.998 718.997 282.67 711.783C282.259 719.456 282.219 728.144 282.912 737.646C283.646 747.842 285.08 757.005 286.741 764.952C284.17 759.262 280.438 752.331 275.006 745.077C268.8 736.792 262.328 730.691 257.041 726.395C258.484 733.407 260.708 741.652 264.222 750.582C267.462 758.819 271.089 765.863 274.522 771.658C271.339 767.66 266.374 762.341 259.193 757.529C253.197 753.508 247.523 751.098 243.146 749.623C245.814 756.506 250.271 765.742 257.758 775.244C261.401 779.862 265.109 783.731 268.607 786.931" stroke="black" stroke-width="3" stroke-miterlimit="10" stroke-linecap="round" stroke-linejoin="round"/>
<path d="M323.379 770.263C327.038 767.757 336.267 761.857 341.473 759.407C348.67 756.022 355.335 754.007 360.808 752.766C357.036 758.158 352.289 764.114 346.349 770.15C339.498 777.122 332.616 782.619 326.337 786.93" stroke="black" stroke-width="3" stroke-miterlimit="10" stroke-linecap="round" stroke-linejoin="round"/>
<path d="M256.993 811.512C259.436 811.512 261.417 809.531 261.417 807.088C261.417 804.644 259.436 802.663 256.993 802.663C254.549 802.663 252.568 804.644 252.568 807.088C252.568 809.531 254.549 811.512 256.993 811.512Z" fill="black"/>
<path d="M277.552 811.512C279.996 811.512 281.977 809.531 281.977 807.088C281.977 804.644 279.996 802.663 277.552 802.663C275.108 802.663 273.127 804.644 273.127 807.088C273.127 809.531 275.108 811.512 277.552 811.512Z" fill="black"/>
<path d="M298.112 811.512C300.556 811.512 302.537 809.531 302.537 807.088C302.537 804.644 300.556 802.663 298.112 802.663C295.668 802.663 293.688 804.644 293.688 807.088C293.688 809.531 295.668 811.512 298.112 811.512Z" fill="black"/>
<path d="M318.664 811.512C321.108 811.512 323.089 809.531 323.089 807.088C323.089 804.644 321.108 802.663 318.664 802.663C316.22 802.663 314.239 804.644 314.239 807.088C314.239 809.531 316.22 811.512 318.664 811.512Z" fill="black"/>
<path d="M339.224 811.512C341.668 811.512 343.649 809.531 343.649 807.088C343.649 804.644 341.668 802.663 339.224 802.663C336.78 802.663 334.799 804.644 334.799 807.088C334.799 809.531 336.78 811.512 339.224 811.512Z" fill="black"/>
<path d="M245.443 827.244H350.773" stroke="black" stroke-width="3" stroke-miterlimit="10" stroke-linecap="round" stroke-linejoin="round"/>
<path d="M350.773 827.244H245.443V845.741H350.773V827.244Z" fill="black"/>
<path d="M707.058 832.418C709.178 826.698 708.758 819.868 707.828 813.988C705.608 800.068 705.028 785.838 706.818 771.828C707.718 764.798 709.088 757.638 711.368 750.908C713.578 744.408 716.118 737.998 717.408 731.228C717.678 729.828 717.888 728.418 718.038 726.998C719.348 714.458 712.658 702.418 720.768 691.338C726.708 683.218 735.048 680.498 738.088 679.658C738.408 683.678 738.738 687.698 739.058 691.728C739.808 691.768 742.408 691.988 744.508 694.068C745.648 695.198 746.198 696.428 746.458 697.178C747.298 696.428 753.448 694.588 755.818 694.438C758.268 694.278 760.348 694.518 761.438 695.068C761.758 696.678 760.368 702.358 759.978 703.558C759.088 706.288 755.778 712.598 754.448 713.848C753.168 718.188 752.528 722.798 754.428 729.868C756.038 735.858 758.938 738.848 763.188 744.858C771.038 755.978 776.588 768.628 779.448 781.938C780.948 788.908 781.718 796.038 781.838 803.168C781.928 808.978 780.148 817.368 783.048 822.718C783.558 823.658 784.878 826.088 786.938 826.418C790.498 826.978 794.058 820.948 795.308 818.828C797.388 815.298 800.028 809.438 800.948 796.058C801.518 787.818 800.658 787.978 801.138 776.988C801.438 770.248 801.688 765.048 803.088 758.298C805.678 745.758 811.338 733.778 825.338 731.228C826.298 736.398 821.878 740.778 818.838 745.078C809.278 758.628 812.398 776.898 812.028 793.488C811.678 809.428 806.388 837.358 789.118 844.098C784.938 845.728 780.198 846.628 775.708 846.598C751.568 846.448 727.558 845.498 703.418 845.558C702.748 845.558 702.048 845.558 701.428 845.278C699.958 844.608 699.568 842.578 700.198 841.088C700.828 839.598 702.148 838.548 703.438 837.578C705.108 836.298 706.268 834.528 707.058 832.418Z" stroke="black" stroke-width="3" stroke-miterlimit="10" stroke-linecap="round" stroke-linejoin="round"/>
<path d="M757.058 774.738C753.878 776.118 744.208 780.808 738.448 791.838C730.078 807.868 737.018 823.758 737.948 825.788C731.078 828.888 724.198 831.988 717.328 835.098" stroke="black" stroke-width="3" stroke-miterlimit="10" stroke-linecap="round" stroke-linejoin="round"/>
<path d="M722.458 768.648L721.068 809.688" stroke="black" stroke-width="3" stroke-miterlimit="10" stroke-linecap="round" stroke-linejoin="round"/>
<path d="M728.218 709.038L705.268 697.008" stroke="black" stroke-width="3" stroke-miterlimit="10" stroke-linecap="round" stroke-linejoin="round"/>
<path d="M728.218 715.638H698.008" stroke="black" stroke-width="3" stroke-miterlimit="10" stroke-linecap="round" stroke-linejoin="round"/>
<path d="M742.238 711.308H771.888" stroke="black" stroke-width="3" stroke-miterlimit="10" stroke-linecap="round" stroke-linejoin="round"/>
<path d="M741.778 717.998L772.338 729.068" stroke="black" stroke-width="3" stroke-miterlimit="10" stroke-linecap="round" stroke-linejoin="round"/>
<path d="M752.778 836.148C754.828 835.468 760.428 833.328 764.678 827.558C769.638 820.828 769.428 813.688 769.308 811.688" stroke="black" stroke-width="3" stroke-miterlimit="10" stroke-linecap="round" stroke-linejoin="round"/>
<path d="M264.504 594.931C262.691 587.704 259.565 580.677 261.979 572.987C263.854 566.986 268.868 562.184 274.757 559.984C290.986 553.92 303.652 565.66 316.581 573.137C321.42 575.926 327.084 577.889 332.548 576.763C350.865 573 334.636 552.207 338.212 540.578C340.612 532.764 348.29 527.225 356.379 526.149C382.549 522.699 396.478 552.832 385.987 574C382.099 581.84 377.56 590.117 378.723 598.782C379.548 604.983 383.224 610.435 387.438 615.061C395.152 623.538 406.618 631.603 406.405 644.407C406.18 658.048 390.951 666.037 378.723 664.525C366.094 662.974 355.516 654.447 346.326 645.632C334.723 634.516 323.52 640.918 311.342 648.77C297.226 657.873 280.471 665.237 264.017 657.198C249.825 650.258 248.537 635.904 256.452 623.601C260.153 617.849 264.617 612.185 265.479 605.409C265.93 601.833 265.367 598.357 264.504 594.931Z" stroke="black" stroke-width="3" stroke-miterlimit="10"/>
<path d="M295.863 609.872C300.945 609.872 305.065 605.752 305.065 600.67C305.065 595.587 300.945 591.467 295.863 591.467C290.78 591.467 286.66 595.587 286.66 600.67C286.66 605.752 290.78 609.872 295.863 609.872Z" fill="black"/>
<path d="M347.714 623.376C356.525 623.376 363.668 616.233 363.668 607.422C363.668 598.61 356.525 591.467 347.714 591.467C338.903 591.467 331.76 598.61 331.76 607.422C331.76 616.233 338.903 623.376 347.714 623.376Z" fill="black"/>
<path d="M284.56 641.981C288.082 641.981 290.937 639.126 290.937 635.604C290.937 632.082 288.082 629.227 284.56 629.227C281.038 629.227 278.183 632.082 278.183 635.604C278.183 639.126 281.038 641.981 284.56 641.981Z" fill="black"/>
<path d="M278.183 582.727L286.66 575.813" stroke="black" stroke-width="3" stroke-miterlimit="10" stroke-linecap="round" stroke-linejoin="round"/>
<path d="M305.053 625.952L315.043 630.428" stroke="black" stroke-width="3" stroke-miterlimit="10" stroke-linecap="round" stroke-linejoin="round"/>
<path d="M370.208 633.004L375.409 623.376" stroke="black" stroke-width="3" stroke-miterlimit="10" stroke-linecap="round" stroke-linejoin="round"/>
<path d="M393.789 647.545L384.599 641.618" stroke="black" stroke-width="3" stroke-miterlimit="10" stroke-linecap="round" stroke-linejoin="round"/>
<path d="M368.257 565.235L359.067 559.296" stroke="black" stroke-width="3" stroke-miterlimit="10" stroke-linecap="round" stroke-linejoin="round"/>
<path d="M257.433 320.538L301.165 368.492C308.233 376.243 307.68 388.251 299.937 395.312C296.065 398.843 291.12 400.47 286.267 400.254C281.415 400.023 276.64 397.949 273.109 394.077L229.378 346.123C222.316 338.38 222.869 326.372 230.62 319.303C234.492 315.772 239.422 314.145 244.282 314.369C249.142 314.592 253.902 316.666 257.433 320.538Z" stroke="black" stroke-width="3" stroke-miterlimit="10"/>
<path d="M251.251 370.093L279.307 344.508" stroke="black" stroke-width="3" stroke-miterlimit="10"/>
<path d="M279.299 344.515L301.165 368.492C308.233 376.243 307.68 388.251 299.937 395.312C296.065 398.843 291.12 400.47 286.267 400.254C281.415 400.023 276.64 397.949 273.109 394.077L251.244 370.1L279.299 344.515Z" fill="black"/>
<path d="M368.847 278.122L336.397 334.327C331.152 343.412 319.541 346.523 310.465 341.283C305.927 338.663 302.878 334.443 301.614 329.753C300.364 325.059 300.894 319.88 303.514 315.342L335.964 259.137C341.204 250.061 352.815 246.95 361.9 252.195C366.438 254.815 369.483 259.021 370.742 263.72C372.001 268.419 371.467 273.584 368.847 278.122Z" stroke="black" stroke-width="3" stroke-miterlimit="10"/>
<path d="M319.748 287.244L352.631 306.229" stroke="black" stroke-width="3" stroke-miterlimit="10"/>
<path d="M352.622 306.225L336.397 334.327C331.152 343.412 319.541 346.523 310.465 341.283C305.927 338.663 302.878 334.443 301.614 329.753C300.364 325.059 300.894 319.88 303.514 315.342L319.739 287.24L352.622 306.225Z" fill="black"/>
<path d="M741.392 608.512C752.631 608.512 761.742 599.401 761.742 588.162C761.742 576.923 752.631 567.812 741.392 567.812C730.153 567.812 721.042 576.923 721.042 588.162C721.042 599.401 730.153 608.512 741.392 608.512Z" fill="black"/>
<path d="M803.923 600.942C810.981 600.942 816.703 595.22 816.703 588.162C816.703 581.103 810.981 575.382 803.923 575.382C796.864 575.382 791.143 581.103 791.143 588.162C791.143 595.22 796.864 600.942 803.923 600.942Z" stroke="black" stroke-width="3" stroke-miterlimit="10"/>
<path d="M761.743 588.162H791.143" stroke="black" stroke-width="3" stroke-miterlimit="10"/>
<path d="M715.213 647.582C722.271 647.582 727.993 641.86 727.993 634.802C727.993 627.744 722.271 622.022 715.213 622.022C708.154 622.022 702.433 627.744 702.433 634.802C702.433 641.86 708.154 647.582 715.213 647.582Z" stroke="black" stroke-width="3" stroke-miterlimit="10"/>
<path d="M732.563 606.492L722.133 623.942" stroke="black" stroke-width="3" stroke-miterlimit="10"/>
<path d="M722.343 555.822L722.963 556.742L731.953 570.142" stroke="black" stroke-width="3" stroke-miterlimit="10"/>
<path d="M716.243 558.742C723.041 558.742 728.553 553.23 728.553 546.432C728.553 539.633 723.041 534.122 716.243 534.122C709.444 534.122 703.933 539.633 703.933 546.432C703.933 553.23 709.444 558.742 716.243 558.742Z" stroke="black" stroke-width="3" stroke-miterlimit="10"/>
</svg>
