<svg width="1024" height="1024" viewBox="0 0 1024 1024" fill="none" xmlns="http://www.w3.org/2000/svg">
<path d="M95 845H930" stroke="black" stroke-width="3.10138"/>
<path opacity="0.04" d="M511.09 770.18C681.243 770.18 819.18 632.243 819.18 462.09C819.18 291.936 681.243 154 511.09 154C340.936 154 203 291.936 203 462.09C203 632.243 340.936 770.18 511.09 770.18Z" fill="black"/>
<path d="M516.369 267.588L516.368 277.17L505.531 263.302C510.445 266.55 512.209 267.293 516.369 267.588Z" fill="black"/>
<path d="M493.687 259.103L504.395 243.851C501.686 239.274 497.393 229.322 501.894 226.124C506.395 222.926 513.344 229.529 516.256 233.231C517.144 224.94 520.905 208.683 528.841 209.986C536.776 211.289 537.38 206.696 538.225 203.771L534.961 199.9L530.559 196.181C524.39 190.721 505.604 183.754 486.68 200.608C467.756 217.462 483.466 246.627 493.687 259.103Z" fill="black"/>
<path d="M505.768 262.501C508.251 265.031 515.765 269.605 525.963 267.657C528.142 267.24 530.066 266.759 531.758 266.247C539.215 263.989 543.829 257.037 545.262 249.379C546.479 242.874 547.118 235.124 545.299 228.126C542.32 216.668 538.664 209.24 536.611 206.566" stroke="black" stroke-width="3"/>
<path d="M493.67 253.747L491.431 278.159" stroke="black" stroke-width="3"/>
<path d="M515.992 267.639V281.129" stroke="black" stroke-width="3"/>
<path d="M452.63 383.699L448.42 422.175" stroke="black" stroke-width="3"/>
<path d="M566.994 403.302L606.675 382.361L623.412 405.858L562.739 452.369" stroke="#333333" stroke-width="3"/>
<path d="M610.135 387.124C612.514 386.972 616.494 382.84 618.258 379.407C623.078 370.027 631.409 357.98 643.099 370.885C652.451 381.209 645.988 389.456 641.787 392.695C635.947 396.311 629.98 394.371 625.486 398.136C620.992 401.901 621.591 401.148 620.63 401.856" stroke="black" stroke-width="3"/>
<path d="M479.477 478.175L495.157 483.156L503.377 488.19C504.048 491.209 506.565 497.551 511.263 498.759C515.96 499.967 522.503 497.585 525.187 496.243C528.431 494.677 534.046 490.136 530.556 484.499C527.066 478.862 522.839 475.998 521.161 475.271L508.243 470.741L489.004 464.428" stroke="black" stroke-width="3"/>
<path d="M542.61 643.149L475.027 537.425H561.667L628.5 789L596.827 797.424C563.37 739.878 545.733 667.35 542.61 643.149Z" stroke="black" stroke-width="3"/>
<path d="M450.974 537.561L430.605 659.101L377.793 776.124L409.5 788.941L481.199 676.641L505.485 584.221" stroke="black" stroke-width="3"/>
<path d="M634.764 812.116L602.932 824.011L608.423 838.851C609.95 842.978 614.522 845.097 618.658 843.594L678.615 821.811C682.163 817.495 677.136 815.586 674.179 815.171L634.764 812.116Z" fill="black"/>
<path d="M602.5 795L613 824" stroke="black" stroke-width="3"/>
<path d="M621.5 790.5L629 818" stroke="black" stroke-width="3"/>
<path d="M401.989 808.684L370.538 795.817L364.499 810.443C362.82 814.51 364.74 819.169 368.797 820.872L427.616 845.564C433.151 844.803 430.754 839.989 428.864 837.677L401.989 808.684Z" fill="black"/>
<path d="M383.409 778.226L375.498 802.647" stroke="black" stroke-width="3"/>
<path d="M401.287 785.348L390.081 809.61" stroke="black" stroke-width="3"/>
<path d="M627.749 377.377C628.955 375.162 632.676 371.141 637.915 372.783" stroke="black" stroke-width="3"/>
<path d="M631.854 383.727C633.06 381.511 636.781 377.49 642.021 379.132" stroke="black" stroke-width="3"/>
<path fill-rule="evenodd" clip-rule="evenodd" d="M425.661 467.211C420.73 463.208 419.978 455.965 423.981 451.034L427.899 446.208L430.22 448.109L426.31 452.925C423.351 456.57 423.907 461.923 427.552 464.882L480.366 507.76C484.01 510.719 489.363 510.163 492.322 506.519L504.019 492.112C504.097 492.571 504.334 493.006 504.724 493.325L504.865 493.441C505.328 493.82 505.911 493.957 506.458 493.867L494.651 508.41C490.648 513.34 483.406 514.092 478.475 510.089L425.661 467.211ZM520.874 476.111L568.488 417.463C572.491 412.532 571.739 405.29 566.809 401.286L513.994 358.408C509.064 354.405 501.821 355.157 497.818 360.088L447.018 422.659L449.339 424.56L500.147 361.979C503.106 358.334 508.459 357.778 512.104 360.737L564.918 403.615C568.562 406.574 569.118 411.927 566.159 415.572L518.549 474.214C519.057 474.164 519.584 474.308 520.01 474.657L520.152 474.773C520.576 475.12 520.82 475.606 520.874 476.111Z" fill="black"/>
<path fill-rule="evenodd" clip-rule="evenodd" d="M428.181 350.475L477.967 286.617C480.29 283.959 486.752 280.136 495.363 279.152C503.906 278.175 514.473 280.009 524.976 288.542C527.378 290.494 529.914 294.563 532.482 300.643C535.024 306.663 537.511 314.439 539.921 323.57C544.74 341.826 549.212 365.348 553.2 390.732C553.265 391.141 553.329 391.55 553.393 391.959L556.8 394.356C556.589 392.988 556.377 391.625 556.164 390.267C552.17 364.842 547.679 341.205 542.822 322.804C540.394 313.606 537.865 305.679 535.246 299.476C532.652 293.336 529.883 288.664 526.867 286.214C515.7 277.14 504.315 275.108 495.022 276.171C485.826 277.223 478.582 281.323 475.674 284.682L475.649 284.711L475.626 284.741L425.8 348.65L425.785 348.669L425.771 348.688L387.805 400.733L387.744 400.817L387.695 400.909C385.449 405.101 384.324 415.275 395.029 424.853L395.089 424.907L395.154 424.953L476.025 483.053L477.276 483.952L478.141 482.677L492.664 461.283L493.415 460.177L492.402 459.304L429.307 404.967L465.32 375.121L463.405 372.811L426.026 403.79L424.659 404.923L426.004 406.081L489.431 460.705L476.524 479.718L396.97 422.564C387.435 413.993 388.737 405.435 390.294 402.412L428.181 350.475ZM561.125 424.477L558.508 427.549C563.75 467.052 567.751 507.028 570.057 535.925H438.285L444.095 479.244L441.111 478.938L435.131 537.272L434.961 538.925H436.623H571.681H573.304L573.176 537.307C570.837 507.612 566.651 465.653 561.125 424.477Z" fill="black"/>
<circle cx="496.235" cy="434.249" r="11.3209" fill="black"/>
<path d="M317.28 378.56C347.258 378.56 371.56 354.258 371.56 324.28C371.56 294.302 347.258 270 317.28 270C287.302 270 263 294.302 263 324.28C263 354.258 287.302 378.56 317.28 378.56Z" stroke="black" stroke-width="3" stroke-miterlimit="10" stroke-linecap="round" stroke-linejoin="round"/>
<path d="M263.29 330C278.61 340.64 297.22 346.88 317.28 346.88C337.34 346.88 355.95 340.64 371.27 330" stroke="black" stroke-width="3" stroke-miterlimit="10" stroke-linecap="round" stroke-linejoin="round"/>
<path d="M371.26 330C355.94 319.36 337.33 313.12 317.27 313.12C297.21 313.12 278.6 319.36 263.28 330" stroke="black" stroke-width="3" stroke-miterlimit="10" stroke-linecap="round" stroke-linejoin="round" stroke-dasharray="18 18"/>
<path d="M323.67 378.27C334.31 362.95 340.55 344.34 340.55 324.28C340.55 304.22 334.31 285.61 323.67 270.29" stroke="black" stroke-width="3" stroke-miterlimit="10" stroke-linecap="round" stroke-linejoin="round"/>
<path d="M313.66 270.29C303.02 285.61 296.78 304.22 296.78 324.28C296.78 344.34 303.02 362.95 313.66 378.27" stroke="black" stroke-width="3" stroke-miterlimit="10" stroke-linecap="round" stroke-linejoin="round" stroke-dasharray="18 18"/>
<mask id="path-30-outside-1" maskUnits="userSpaceOnUse" x="764" y="330" width="59" height="59" fill="black">
<rect fill="white" x="764" y="330" width="59" height="59"/>
<path d="M820 385.5C820 378.606 818.642 371.779 816.004 365.409C813.365 359.04 809.498 353.252 804.623 348.377C799.748 343.502 793.96 339.635 787.591 336.996C781.221 334.358 774.394 333 767.5 333L767.5 385.5H820Z"/>
</mask>
<path d="M820 385.5C820 378.606 818.642 371.779 816.004 365.409C813.365 359.04 809.498 353.252 804.623 348.377C799.748 343.502 793.96 339.635 787.591 336.996C781.221 334.358 774.394 333 767.5 333L767.5 385.5H820Z" stroke="black" stroke-width="6" mask="url(#path-30-outside-1)"/>
<path d="M772 347L794 324" stroke="black" stroke-width="4"/>
<path d="M777 374L820 329" stroke="black" stroke-width="4"/>
<path d="M794 387L825 356" stroke="black" stroke-width="4"/>
<mask id="path-34-inside-2" fill="white">
<path d="M756.5 339C745.325 339 734.402 342.314 725.11 348.522C715.819 354.73 708.577 363.554 704.301 373.878C700.024 384.202 698.906 395.563 701.086 406.523C703.266 417.483 708.647 427.55 716.548 435.452C724.45 443.353 734.517 448.734 745.477 450.914C756.437 453.094 767.798 451.976 778.122 447.699C788.446 443.423 797.27 436.181 803.478 426.89C809.686 417.598 813 406.675 813 395.5L756.5 395.5L756.5 339Z"/>
</mask>
<path d="M756.5 339C745.325 339 734.402 342.314 725.11 348.522C715.819 354.73 708.577 363.554 704.301 373.878C700.024 384.202 698.906 395.563 701.086 406.523C703.266 417.483 708.647 427.55 716.548 435.452C724.45 443.353 734.517 448.734 745.477 450.914C756.437 453.094 767.798 451.976 778.122 447.699C788.446 443.423 797.27 436.181 803.478 426.89C809.686 417.598 813 406.675 813 395.5L756.5 395.5L756.5 339Z" fill="black" stroke="black" stroke-width="6" mask="url(#path-34-inside-2)"/>
<path d="M208.179 484.927L171.619 548.253" stroke="black" stroke-width="3" stroke-miterlimit="10" stroke-linecap="round" stroke-linejoin="round"/>
<path d="M164.977 576.862C174.42 576.862 182.075 569.207 182.075 559.764C182.075 550.321 174.42 542.666 164.977 542.666C155.534 542.666 147.879 550.321 147.879 559.764C147.879 569.207 155.534 576.862 164.977 576.862Z" fill="black"/>
<path d="M239.771 484.927V549.604" stroke="black" stroke-width="3" stroke-miterlimit="10" stroke-linecap="round" stroke-linejoin="round"/>
<path d="M239.771 580C249.214 580 256.869 572.345 256.869 562.902C256.869 553.459 249.214 545.804 239.771 545.804C230.328 545.804 222.673 553.459 222.673 562.902C222.673 572.345 230.328 580 239.771 580Z" fill="black"/>
<path d="M292.599 484.927V549.604" stroke="black" stroke-width="3" stroke-miterlimit="10" stroke-linecap="round" stroke-linejoin="round"/>
<path d="M292.599 580C302.042 580 309.697 572.345 309.697 562.902C309.697 553.459 302.042 545.804 292.599 545.804C283.156 545.804 275.501 553.459 275.501 562.902C275.501 572.345 283.156 580 292.599 580Z" fill="black"/>
<path d="M345.426 484.927V549.604" stroke="black" stroke-width="3" stroke-miterlimit="10" stroke-linecap="round" stroke-linejoin="round"/>
<path d="M345.427 580C354.869 580 362.524 572.345 362.524 562.902C362.524 553.459 354.869 545.804 345.427 545.804C335.984 545.804 328.329 553.459 328.329 562.902C328.329 572.345 335.984 580 345.427 580Z" fill="black"/>
<path d="M366 466H180.246V494.145H366V466Z" fill="black"/>
<path d="M618.703 314H621.749L630.433 286H626.706L620.614 306.865L620.198 308.269L619.8 306.904L613.746 286H610L618.703 314Z" fill="black"/>
<path d="M652.096 299V295.904H635.201V299H652.096ZM652.096 306.981V303.904H635.201V306.981H652.096Z" fill="black"/>
<path d="M658.491 286V289.096H664.942V310.923H658.491V314H675.14V310.923H668.537V289.096H675.14V286H658.491Z" fill="black"/>
<path d="M690.881 302.577L696.292 314H699.981L700 313.769L694.154 301.808C694.911 301.474 695.604 301.071 696.235 300.596C696.866 300.122 697.408 299.577 697.862 298.962C698.316 298.346 698.669 297.66 698.922 296.904C699.186 296.147 699.319 295.314 699.319 294.404C699.319 292.994 699.073 291.769 698.581 290.731C698.102 289.679 697.44 288.808 696.594 288.115C695.737 287.423 694.74 286.904 693.605 286.558C692.47 286.212 691.259 286.026 689.973 286H681.894V314H685.375V302.577H690.881ZM685.375 299.654V288.923H689.973C690.818 288.936 691.593 289.058 692.3 289.288C693.019 289.519 693.637 289.859 694.154 290.308C694.671 290.769 695.075 291.34 695.365 292.019C695.655 292.686 695.8 293.468 695.8 294.365C695.8 295.212 695.649 295.962 695.346 296.615C695.043 297.256 694.633 297.801 694.116 298.25C693.586 298.699 692.975 299.045 692.281 299.288C691.587 299.519 690.849 299.641 690.067 299.654H685.375Z" fill="black"/>
<path d="M652.33 506V648.74" stroke="black" stroke-width="3" stroke-miterlimit="10" stroke-linecap="round" stroke-linejoin="round"/>
<path d="M642.33 638.74H856.24" stroke="black" stroke-width="3" stroke-miterlimit="10" stroke-linecap="round" stroke-linejoin="round"/>
<path d="M639 519.34L652.33 506L665.66 519.34" stroke="black" stroke-width="3" stroke-miterlimit="10" stroke-linecap="round" stroke-linejoin="round"/>
<path d="M842.91 625.41L856.24 638.74L842.91 652.07" stroke="black" stroke-width="3" stroke-miterlimit="10" stroke-linecap="round" stroke-linejoin="round"/>
<path d="M652.33 562.82C654.32 559.26 656.64 555.91 659.42 552.88C666.66 544.98 679.41 538.41 690.39 541.25C701.94 544.24 710.5 556.87 715.54 566.81C722.47 580.5 728.14 610.7 746.37 613.99C755.46 615.63 763.95 608.6 768.79 600.73C775.65 589.59 778.11 576.21 784.74 564.94C788.51 558.53 794.74 552.4 802.16 552.94C806.41 553.24 810.21 555.73 813.31 558.66C821.85 566.7 826.32 578.04 830.53 588.98" stroke="black" stroke-width="3" stroke-miterlimit="10" stroke-linecap="round" stroke-linejoin="round"/>
<path d="M690.56 543.26V549.26" stroke="black" stroke-width="3" stroke-linecap="round" stroke-linejoin="round"/>
<path d="M690.56 561.19V626.78" stroke="black" stroke-width="3" stroke-linecap="round" stroke-linejoin="round" stroke-dasharray="11.93 11.93"/>
<path d="M690.56 632.74V638.74" stroke="black" stroke-width="3" stroke-linecap="round" stroke-linejoin="round"/>
<path d="M800.11 552.96V558.96" stroke="black" stroke-width="3" stroke-linecap="round" stroke-linejoin="round"/>
<path d="M800.11 569.5V627.47" stroke="black" stroke-width="3" stroke-linecap="round" stroke-linejoin="round" stroke-dasharray="10.54 10.54"/>
<path d="M800.11 632.74V638.74" stroke="black" stroke-width="3" stroke-linecap="round" stroke-linejoin="round"/>
<path d="M876.406 636.922L871.562 628H868.172L874.781 639.281L868 650.75H871.422L876.469 641.656L881.5 650.75H884.875L878.109 639.281L884.719 628H881.312L876.406 636.922Z" fill="black"/>
<path d="M652.469 485.422L647.297 474H644L651.078 488.266L651.125 496.75H653.812L653.859 488.266L660.938 474H657.656L652.469 485.422Z" fill="black"/>
<g clip-path="url(#clip0)">
<path d="M221.481 714.176C221.481 740.235 242.534 761.361 268.506 761.361C294.477 761.361 315.53 740.235 315.53 714.176C315.53 688.117 294.477 666.992 268.506 666.992C242.534 666.992 221.481 688.117 221.481 714.176Z" stroke="black" stroke-width="3" stroke-miterlimit="10" stroke-linecap="round" stroke-linejoin="round"/>
<path d="M268.505 634.639L268.505 687.584" stroke="black" stroke-width="3" stroke-miterlimit="10" stroke-linecap="round" stroke-linejoin="round"/>
<path d="M288.646 687.584L248.354 687.584" stroke="black" stroke-width="3" stroke-miterlimit="10" stroke-linecap="round" stroke-linejoin="round"/>
<path d="M280.139 687.584L307.992 739.796L340.366 739.796" stroke="black" stroke-width="3" stroke-miterlimit="10" stroke-linecap="round" stroke-linejoin="round"/>
<path d="M252.297 696.754L229.335 740.288L196.634 740.288" stroke="black" stroke-width="3" stroke-miterlimit="10" stroke-linecap="round" stroke-linejoin="round"/>
<path d="M251.5 717.5L235.5 708.5L257.351 687.584L251.5 717.5Z" fill="black"/>
</g>
<path d="M723.535 699H720.039L719.98 718.258C719.954 719.104 719.818 719.918 719.57 720.699C719.323 721.48 718.965 722.171 718.496 722.77C718.014 723.382 717.422 723.87 716.719 724.234C716.016 724.586 715.202 724.762 714.277 724.762C713.353 724.762 712.533 724.579 711.816 724.215C711.113 723.85 710.527 723.368 710.059 722.77C709.577 722.171 709.206 721.48 708.945 720.699C708.698 719.918 708.568 719.104 708.555 718.258L708.477 699H705.039L705 718.258C705.013 719.586 705.247 720.836 705.703 722.008C706.159 723.167 706.79 724.176 707.598 725.035C708.405 725.908 709.375 726.591 710.508 727.086C711.641 727.581 712.897 727.828 714.277 727.828C715.632 727.828 716.875 727.581 718.008 727.086C719.141 726.578 720.117 725.888 720.938 725.016C721.758 724.156 722.402 723.147 722.871 721.988C723.34 720.829 723.574 719.586 723.574 718.258L723.535 699Z" fill="black"/>
<path d="M747.129 712.203V709.059H729.688V712.203H747.129ZM747.129 720.309V717.184H729.688V720.309H747.129Z" fill="black"/>
<path d="M753.73 699V702.145H760.391V724.312H753.73V727.438H770.918V724.312H764.102V702.145H770.918V699H753.73Z" fill="black"/>
<path d="M784.844 709.566L779.746 715.953L782.598 718.023L786.738 711.109L790.918 718.199L793.77 716.051L788.77 709.723L796.23 707.887L795.176 704.41L788.086 707.34L788.652 699H785.176L785.664 707.223L778.535 704.273L777.48 707.691L784.844 709.566Z" fill="black"/>
<path d="M811.191 715.836L816.777 727.438H820.586L820.605 727.203L814.57 715.055C815.352 714.716 816.068 714.306 816.719 713.824C817.37 713.342 817.93 712.789 818.398 712.164C818.867 711.539 819.232 710.842 819.492 710.074C819.766 709.306 819.902 708.46 819.902 707.535C819.902 706.103 819.648 704.859 819.141 703.805C818.646 702.737 817.962 701.852 817.09 701.148C816.204 700.445 815.176 699.918 814.004 699.566C812.832 699.215 811.582 699.026 810.254 699H801.914V727.438H805.508V715.836H811.191ZM805.508 712.867V701.969H810.254C811.126 701.982 811.927 702.105 812.656 702.34C813.398 702.574 814.036 702.919 814.57 703.375C815.104 703.844 815.521 704.423 815.82 705.113C816.12 705.79 816.27 706.585 816.27 707.496C816.27 708.355 816.113 709.117 815.801 709.781C815.488 710.432 815.065 710.986 814.531 711.441C813.984 711.897 813.353 712.249 812.637 712.496C811.921 712.73 811.159 712.854 810.352 712.867H805.508Z" fill="black"/>
<path d="M230.363 788.566L225.266 794.953L228.117 797.023L232.258 790.109L236.438 797.199L239.289 795.051L234.289 788.723L241.75 786.887L240.695 783.41L233.605 786.34L234.172 778H230.695L231.184 786.223L224.055 783.273L223 786.691L230.363 788.566Z" fill="black"/>
<path d="M254.387 788.566L249.289 794.953L252.141 797.023L256.281 790.109L260.461 797.199L263.312 795.051L258.312 788.723L265.773 786.887L264.719 783.41L257.629 786.34L258.195 778H254.719L255.207 786.223L248.078 783.273L247.023 786.691L254.387 788.566Z" fill="black"/>
<path d="M278.41 788.566L273.312 794.953L276.164 797.023L280.305 790.109L284.484 797.199L287.336 795.051L282.336 788.723L289.797 786.887L288.742 783.41L281.652 786.34L282.219 778H278.742L279.23 786.223L272.102 783.273L271.047 786.691L278.41 788.566Z" fill="black"/>
<path d="M302.434 788.566L297.336 794.953L300.188 797.023L304.328 790.109L308.508 797.199L311.359 795.051L306.359 788.723L313.82 786.887L312.766 783.41L305.676 786.34L306.242 778H302.766L303.254 786.223L296.125 783.273L295.07 786.691L302.434 788.566Z" fill="black"/>
<path d="M849.02 768.99H828.62V760.73C828.62 752.32 821.8 745.49 813.38 745.49C804.97 745.49 798.14 752.31 798.14 760.73V768.99H777.74V760.73C777.74 752.32 770.92 745.49 762.5 745.49C754.09 745.49 747.26 752.31 747.26 760.73V768.99H726.86V760.73C726.86 752.32 720.04 745.49 711.62 745.49C703.21 745.49 696.38 752.31 696.38 760.73V768.99H676" stroke="black" stroke-width="3" stroke-miterlimit="10" stroke-linecap="round" stroke-linejoin="round"/>
<rect x="675" y="767" width="176" height="24" fill="black"/>
<defs>
<clipPath id="clip0">
<rect width="130" height="147" fill="white" transform="translate(342 633) rotate(90)"/>
</clipPath>
</defs>
</svg>
