<svg width="1024" height="1024" viewBox="0 0 1024 1024" fill="none" xmlns="http://www.w3.org/2000/svg">
<path opacity="0.04" d="M466.06 794.411C630.094 794.411 763.07 661.435 763.07 497.401C763.07 333.366 630.094 200.391 466.06 200.391C302.026 200.391 169.05 333.366 169.05 497.401C169.05 661.435 302.026 794.411 466.06 794.411Z" fill="black"/>
<path d="M452.05 201.09C452.09 201.03 452.13 200.971 452.17 200.901C455.45 195.961 460.84 196.32 466.06 196.07C472.57 195.76 479.08 195.11 485.24 192.86C495.26 189.21 505.33 183.9 516.34 185.2C524.73 186.19 529.59 191.971 529.39 200.411C529.38 200.821 529.36 201.231 529.33 201.631C529.31 201.981 533.33 204.751 533.75 205.141C535.66 206.941 537.52 209.061 538.75 211.391C544.55 222.371 539.22 235.49 533.2 245.09C532.9 245.56 529.69 250.201 529.75 250.261C527.36 247.931 526.18 247.231 522.74 241.411C525.44 239.291 526.48 235.63 526.15 233.47C525.7 230.59 524.09 228.191 517.23 230.141C516.05 228.831 514.62 225.07 513.53 221.95C512.86 220.04 512.59 218.32 512.49 216.97C504.61 221.08 497.7 223.14 492.97 224.24C478.6 227.58 455.48 229.77 450.75 211.1C449.89 207.75 450.2 204.01 452.05 201.09Z" fill="black"/>
<path d="M487.24 279.87V293.521L501.46 305.641L516.79 293.521V271.931C519.3 270.111 525.14 265.381 528.51 256.921C530.25 252.561 530.82 248.5 530.9 245.26" stroke="black" stroke-width="3" stroke-miterlimit="10" stroke-linecap="round" stroke-linejoin="round"/>
<path d="M487.23 293.521L479.41 318.19L501.46 305.641L523.76 318.19L516.78 293.521" stroke="black" stroke-width="3" stroke-miterlimit="10" stroke-linecap="round" stroke-linejoin="round"/>
<path d="M487.24 289.891C478.99 294.001 455.51 304.721 445.51 309.501C441.83 314.961 417.2 345.171 405.5 359.991C409.06 364.401 412.88 368.921 416.98 373.521C421.42 378.501 425.81 383.141 430.1 387.461C434.41 382.071 438.71 376.671 443.02 371.271C440.52 419.631 438.03 468.001 435.54 516.371C465.9 516.371 496.26 516.371 526.62 516.371" stroke="black" stroke-width="3" stroke-miterlimit="10" stroke-linecap="round" stroke-linejoin="round"/>
<path d="M516.79 287.781L560.89 307.521L592.68 369.521L589.65 371.82V371.83L567.38 388.75L564.75 390.75L548.63 364.021L554.17 462.21V462.22V462.23" stroke="black" stroke-width="3" stroke-miterlimit="10" stroke-linecap="round" stroke-linejoin="round"/>
<path d="M567.38 388.75L578.64 407.931L554.17 462.21V462.22L541.53 490.23L526.47 496.161C525.26 496.631 524.47 497.8 524.47 499.09C524.47 500.83 525.88 502.24 527.62 502.24H534.42L526.95 517.94C526.09 519.75 526.87 521.92 528.68 522.76L529.71 523.24C534.78 525.61 540.82 523.7 543.6 518.84L602.88 415.37C604.67 412.25 604.91 408.471 603.52 405.141L589.64 371.811V371.801" stroke="black" stroke-width="3" stroke-miterlimit="10" stroke-linecap="round" stroke-linejoin="round"/>
<path d="M408.3 363.421L398.24 373.481L366.15 316.821C365.1 314.961 363.27 313.671 361.16 313.301L325.37 306.621L322.54 312.281L355.7 326.501L384.96 394.591C389.7 405.611 404.12 408.281 412.49 399.681L427.24 384.541" stroke="black" stroke-width="3" stroke-miterlimit="10" stroke-linecap="round" stroke-linejoin="round"/>
<path d="M441.68 516.37L423.25 651.641V794.411H450.63L462.06 656.83L488.3 550.99L498.04 794.411H524.47L550.23 507.311" stroke="black" stroke-width="3" stroke-miterlimit="10" stroke-linecap="round" stroke-linejoin="round"/>
<path d="M518.89 794.411V812.051L529.77 827.631V838.871H490.27V827.631L503.46 812.781V794.411" stroke="black" stroke-width="3" stroke-miterlimit="10" stroke-linecap="round" stroke-linejoin="round"/>
<path d="M490.26 827.63H529.76" stroke="black" stroke-width="3" stroke-miterlimit="10" stroke-linecap="round" stroke-linejoin="round"/>
<path d="M443.7 794.411V812.051L454.58 827.631V838.871H415.08V827.631L427.27 812.781V794.411" stroke="black" stroke-width="3" stroke-miterlimit="10" stroke-linecap="round" stroke-linejoin="round"/>
<path d="M415.07 827.63H454.58" stroke="black" stroke-width="3" stroke-miterlimit="10" stroke-linecap="round" stroke-linejoin="round"/>
<path d="M471.43 221.301C467.76 234.831 466.64 250.53 471.83 263.84C474.13 269.73 478.15 275.22 483.72 278.38C490 281.94 498.01 280.991 504.57 278.671" stroke="black" stroke-width="3" stroke-miterlimit="10" stroke-linecap="round" stroke-linejoin="round"/>
<path d="M810.85 764.931V837.901H553.57C555.79 835.451 575.53 807.421 600.99 807.421C626.72 807.421 640.12 823.471 661.66 806.561C669.11 800.711 680.56 792.541 689.79 792.541C698.7 792.541 707.06 796.531 715.56 799.171C724.54 801.961 733 801.901 741.93 798.621C749.11 795.981 755.85 791.901 762.57 787.871C777.94 778.631 793.83 768.911 810.85 764.931Z" fill="black"/>
<path d="M718.55 781.021C725.96 790.741 737.66 797.011 750.83 797.011C773.24 797.011 791.4 778.841 791.4 756.431C791.4 734.021 773.24 715.851 750.83 715.851C730.29 715.851 713.33 731.101 710.63 750.881" stroke="black" stroke-width="3" stroke-miterlimit="10" stroke-linecap="round" stroke-linejoin="round"/>
<path d="M637.23 777.94L611.07 773.9L591.82 770.92L579.2 818.77L576.27 829.86" stroke="black" stroke-width="3" stroke-miterlimit="10" stroke-linecap="round" stroke-linejoin="round"/>
<path d="M691.01 750.88L702.37 710.97L644.46 672.061L589.56 715.12L611.07 773.901L637.23 777.94" stroke="black" stroke-width="3" stroke-miterlimit="10" stroke-linecap="round" stroke-linejoin="round"/>
<path d="M718.55 750.871H637.23V821.481H718.55V750.871Z" stroke="black" stroke-width="3" stroke-miterlimit="10" stroke-linecap="round" stroke-linejoin="round"/>
<path d="M810.85 597.511H542.13L548.71 531.931H810.85V597.511Z" fill="black"/>
<path d="M310.14 502.34C319.203 502.34 326.55 494.994 326.55 485.931C326.55 476.868 319.203 469.521 310.14 469.521C301.077 469.521 293.73 476.868 293.73 485.931C293.73 494.994 301.077 502.34 310.14 502.34Z" fill="black"/>
<path d="M310.14 322.711C319.203 322.711 326.55 315.364 326.55 306.301C326.55 297.238 319.203 289.891 310.14 289.891C301.077 289.891 293.73 297.238 293.73 306.301C293.73 315.364 301.077 322.711 310.14 322.711Z" fill="black"/>
<path d="M348.21 565.081H316.07V597.221H348.21V565.081Z" fill="black"/>
<path d="M326.54 403.371H201.5V425.251H326.54V403.371Z" fill="black"/>
<path d="M222.19 500.641L239.65 470.791L256.87 500.641H222.19Z" fill="black"/>
<path d="M310.14 306.301H249.3V367.69H346.81V524.431H276.23V448.83H202.5V581.141H332.14" stroke="black" stroke-width="3" stroke-miterlimit="10" stroke-linecap="round" stroke-linejoin="round"/>
<path d="M308.47 275.45V253.2" stroke="black" stroke-width="3" stroke-miterlimit="10" stroke-linecap="round" stroke-linejoin="round"/>
<path d="M324.58 282.5L342.64 264.431" stroke="black" stroke-width="3" stroke-miterlimit="10" stroke-linecap="round" stroke-linejoin="round"/>
<path d="M550.23 264.431H718.54V305.641H590.23" stroke="black" stroke-width="3" stroke-miterlimit="10" stroke-linecap="round" stroke-linejoin="round"/>
<path d="M595.04 462.231H718.54V305.641" stroke="black" stroke-width="3" stroke-miterlimit="10" stroke-linecap="round" stroke-linejoin="round"/>
<path d="M689.55 278.101L702.33 290.871" stroke="black" stroke-width="3" stroke-miterlimit="10" stroke-linecap="round" stroke-linejoin="round"/>
<path d="M702.33 278.101L689.55 290.871" stroke="black" stroke-width="3" stroke-miterlimit="10" stroke-linecap="round" stroke-linejoin="round"/>
<path d="M665.76 355.46C669.4 355.46 672.35 352.51 672.35 348.87C672.35 345.231 669.4 342.281 665.76 342.281C662.121 342.281 659.17 345.231 659.17 348.87C659.17 352.51 662.121 355.46 665.76 355.46Z" fill="black"/>
<path d="M632.51 355.46C636.15 355.46 639.1 352.51 639.1 348.87C639.1 345.231 636.15 342.281 632.51 342.281C628.871 342.281 625.92 345.231 625.92 348.87C625.92 352.51 628.871 355.46 632.51 355.46Z" fill="black"/>
<path d="M599.27 355.46C602.91 355.46 605.86 352.51 605.86 348.87C605.86 345.231 602.91 342.281 599.27 342.281C595.631 342.281 592.68 345.231 592.68 348.87C592.68 352.51 595.631 355.46 599.27 355.46Z" fill="black"/>
<path d="M665.76 388.19C669.4 388.19 672.35 385.24 672.35 381.6C672.35 377.961 669.4 375.01 665.76 375.01C662.121 375.01 659.17 377.961 659.17 381.6C659.17 385.24 662.121 388.19 665.76 388.19Z" fill="black"/>
<path d="M632.51 388.19C636.15 388.19 639.1 385.24 639.1 381.6C639.1 377.961 636.15 375.01 632.51 375.01C628.871 375.01 625.92 377.961 625.92 381.6C625.92 385.24 628.871 388.19 632.51 388.19Z" fill="black"/>
<path d="M599.27 388.19C602.91 388.19 605.86 385.24 605.86 381.6C605.86 377.961 602.91 375.01 599.27 375.01C595.631 375.01 592.68 377.961 592.68 381.6C592.68 385.24 595.631 388.19 599.27 388.19Z" fill="black"/>
<path d="M665.76 420.911C669.4 420.911 672.35 417.96 672.35 414.32C672.35 410.681 669.4 407.73 665.76 407.73C662.12 407.73 659.17 410.681 659.17 414.32C659.17 417.96 662.12 420.911 665.76 420.911Z" fill="black"/>
<path d="M632.51 420.911C636.15 420.911 639.1 417.96 639.1 414.32C639.1 410.681 636.15 407.73 632.51 407.73C628.87 407.73 625.92 410.681 625.92 414.32C625.92 417.96 628.87 420.911 632.51 420.911Z" fill="black"/>
<path d="M694.03 345.47C710.23 345.47 710.23 365.47 726.44 365.47C742.64 365.47 742.64 345.47 758.85 345.47C775.05 345.47 775.05 365.47 791.26 365.47C807.47 365.47 807.47 345.47 823.67 345.47C839.87 345.47 839.88 365.47 856.08 365.47" stroke="black" stroke-width="3" stroke-miterlimit="10" stroke-linecap="round" stroke-linejoin="round"/>
<path d="M694.03 380.601C710.23 380.601 710.23 400.601 726.44 400.601C742.64 400.601 742.64 380.601 758.85 380.601C775.05 380.601 775.05 400.601 791.26 400.601C807.47 400.601 807.47 380.601 823.67 380.601C839.87 380.601 839.88 400.601 856.08 400.601" stroke="black" stroke-width="3" stroke-miterlimit="10" stroke-linecap="round" stroke-linejoin="round"/>
<path d="M167 838.871H851.17" stroke="black" stroke-width="3" stroke-miterlimit="10" stroke-linecap="round" stroke-linejoin="round"/>
<path d="M336.91 765.9H206.22V838.87H336.91V765.9Z" stroke="black" stroke-width="3" stroke-miterlimit="10" stroke-linecap="round" stroke-linejoin="round"/>
<path d="M296.69 753.48C298.64 751.09 300.75 748.34 302.92 745.22C308.87 736.66 315.25 725.35 319.87 711.29C323.38 700.59 325.05 690.83 325.81 682.76C320.92 686.89 316.73 692.98 311.16 699.8C305.77 706.4 295.84 723.68 292.8 729.16C294.04 724.48 297.89 707.27 298.53 701.29C299.77 689.69 300.66 679.82 299.36 672.07C293.47 679.91 285.6 692.48 280.94 709.51C278.21 719.48 277.27 728.46 277.07 735.66C275.23 726.85 272.51 716.78 268.46 705.94C263.51 692.73 257.78 681.61 252.41 672.66C251.9 682.18 251.85 692.96 252.71 704.75C253.62 717.4 255.4 728.77 257.46 738.63C254.27 731.57 249.64 722.97 242.9 713.97C235.2 703.69 227.17 696.12 220.61 690.79C222.4 699.49 225.16 709.72 229.52 720.8C233.54 731.02 238.04 739.76 242.3 746.95C238.35 741.99 232.19 735.39 223.28 729.42C215.84 724.43 208.8 721.44 203.37 719.61C206.68 728.15 212.21 739.61 221.5 751.4C226.02 757.13 230.62 761.93 234.96 765.9" stroke="black" stroke-width="3" stroke-miterlimit="10" stroke-linecap="round" stroke-linejoin="round"/>
<path d="M302.92 745.22C307.46 742.11 318.91 734.79 325.37 731.75C334.3 727.55 342.57 725.05 349.36 723.51C344.68 730.2 338.79 737.59 331.42 745.08C322.92 753.73 314.38 760.55 306.59 765.9" stroke="black" stroke-width="3" stroke-miterlimit="10" stroke-linecap="round" stroke-linejoin="round"/>
<path d="M220.55 796.4C223.582 796.4 226.04 793.942 226.04 790.91C226.04 787.878 223.582 785.42 220.55 785.42C217.518 785.42 215.06 787.878 215.06 790.91C215.06 793.942 217.518 796.4 220.55 796.4Z" fill="black"/>
<path d="M246.06 796.4C249.092 796.4 251.55 793.942 251.55 790.91C251.55 787.878 249.092 785.42 246.06 785.42C243.028 785.42 240.57 787.878 240.57 790.91C240.57 793.942 243.028 796.4 246.06 796.4Z" fill="black"/>
<path d="M271.57 796.4C274.602 796.4 277.06 793.942 277.06 790.91C277.06 787.878 274.602 785.42 271.57 785.42C268.538 785.42 266.08 787.878 266.08 790.91C266.08 793.942 268.538 796.4 271.57 796.4Z" fill="black"/>
<path d="M297.07 796.4C300.102 796.4 302.56 793.942 302.56 790.91C302.56 787.878 300.102 785.42 297.07 785.42C294.038 785.42 291.58 787.878 291.58 790.91C291.58 793.942 294.038 796.4 297.07 796.4Z" fill="black"/>
<path d="M322.58 796.4C325.612 796.4 328.07 793.942 328.07 790.91C328.07 787.878 325.612 785.42 322.58 785.42C319.548 785.42 317.09 787.878 317.09 790.91C317.09 793.942 319.548 796.4 322.58 796.4Z" fill="black"/>
<path d="M206.22 815.92H336.91" stroke="black" stroke-width="3" stroke-miterlimit="10" stroke-linecap="round" stroke-linejoin="round"/>
<path d="M336.91 815.92H206.22V838.87H336.91V815.92Z" fill="black"/>
<path d="M454.57 827.63H415.07V838.87H454.57V827.63Z" fill="black"/>
<path d="M529.76 827.63H490.26V838.87H529.76V827.63Z" fill="black"/>
<path d="M576 556.72L590.83 572.72L605.67 556.72L620.5 572.72L635.33 556.72L650.17 572.72L665 556.72L679.84 572.72L694.67 556.72L709.5 572.72L724.35 556.72L739.19 572.72" stroke="#F5F5F5" stroke-width="3" stroke-miterlimit="10" stroke-linecap="round" stroke-linejoin="round"/>
<path d="M753.53 572.621H773.36" stroke="#F5F5F5" stroke-width="3" stroke-miterlimit="10" stroke-linecap="round" stroke-linejoin="round"/>
<path d="M487.52 279.95C489.66 280.45 492.89 280.93 496.8 280.52C500.28 280.15 503.07 279.2 504.97 278.38C504.18 280.1 502.08 284.08 497.52 287.11C493.28 289.92 489.13 290.43 487.24 290.55C487.33 287.02 487.43 283.49 487.52 279.95Z" fill="black" stroke="black" stroke-width="3" stroke-miterlimit="10" stroke-linecap="round" stroke-linejoin="round"/>
</svg>
