<svg width="1024" height="1024" viewBox="0 0 1024 1024" fill="none" xmlns="http://www.w3.org/2000/svg">
<path opacity="0.04" d="M487.25 764.42C651.284 764.42 784.26 631.444 784.26 467.41C784.26 303.376 651.284 170.4 487.25 170.4C323.216 170.4 190.24 303.376 190.24 467.41C190.24 631.444 323.216 764.42 487.25 764.42Z" fill="black"/>
<path d="M523.49 828.45L547.67 836.2C553 837.03 556.93 841.62 556.93 847.01H502.76L502.94 828.46L523.49 828.45Z" fill="black"/>
<path d="M425.5 827.39L447.68 835.14C453.01 835.97 456.94 840.56 456.94 845.95H402.77L402.95 827.4L425.5 827.39Z" fill="black"/>
<path d="M467.12 371.95L522.72 413.52L588.29 421.93V436.97L513.1 434.06L454.27 402.31" stroke="black" stroke-width="3" stroke-miterlimit="10" stroke-linecap="round" stroke-linejoin="round"/>
<path d="M521.81 412.86C521.96 408.67 522.19 404.3 522.51 399.8C523.37 387.61 524.79 376.18 526.54 365.56L600.4 355.13L654.83 315.72L648.99 304.8L595.1 333.85L487.35 335.49C486.82 344.34 479.33 351.42 470.52 351.27C462.04 351.13 454.98 344.35 454.27 335.89C446.7 336.53 434.74 340.03 429.29 345.39C423.1 351.45 423.02 364.74 425.01 379.08C426.23 387.87 428.25 397.06 430.11 405.22C432.04 413.64 433.83 420.96 434.43 425.6C437.22 446.95 433.05 473.37 431.01 508.62L531.51 508.18C529.79 500.66 525.81 482.83 524.11 469.48C523.42 464.11 521.97 451.64 521.62 434.39" stroke="black" stroke-width="3" stroke-miterlimit="10" stroke-linecap="round" stroke-linejoin="round"/>
<path d="M588.29 421.93L602.15 402.93H602.83C606.03 402.93 608.31 406.05 607.33 409.1L606.08 412.98L620.02 405.67C622.59 404.32 625.56 406.56 624.98 409.4L623.13 418.44L608.07 432.08L588.29 436.97" stroke="black" stroke-width="3" stroke-miterlimit="10" stroke-linecap="round" stroke-linejoin="round"/>
<path d="M648.86 304.95L644.17 283.05L645.04 282.47C647.04 281.14 649.73 281.6 651.17 283.52L655.68 289.53L671.7 276.69C673.56 275.2 676.35 275.98 677.15 278.23L680.48 287.53L673.08 302.68L654.7 315.86" stroke="black" stroke-width="3" stroke-miterlimit="10" stroke-linecap="round" stroke-linejoin="round"/>
<path d="M431.02 508.61L431.55 661.63L404.56 827.42H425.49L465.87 669.81L484.79 562.94L519.04 669.3L504.56 828.45H523.13L552.78 670.84L531.52 508.17" stroke="black" stroke-width="3" stroke-miterlimit="10" stroke-linecap="round" stroke-linejoin="round"/>
<path d="M487.35 335.49L485.44 324.6" stroke="black" stroke-width="3" stroke-miterlimit="10" stroke-linecap="round" stroke-linejoin="round"/>
<path d="M454.27 335.89L456.18 313.44" stroke="black" stroke-width="3" stroke-miterlimit="10" stroke-linecap="round" stroke-linejoin="round"/>
<path d="M466.45 322.44C469.17 323.63 473.86 325.27 479.82 325.25C479.82 325.25 490.61 325.22 499.52 318.69C506.26 313.74 510.17 304.11 511.06 293.18" stroke="black" stroke-width="3" stroke-miterlimit="10" stroke-linecap="round" stroke-linejoin="round"/>
<path d="M455.43 282.1C458.68 282.91 465.23 284.49 470.01 279.71C473.17 276.55 475.15 271.65 478.7 270.73C483.47 269.48 485.95 273.18 492.15 274.69C498.17 276.17 507.27 275.48 512.66 269.86C517.45 264.87 518.02 256.9 516.36 250.47C515 245.19 510.9 238.24 506.88 234.56C503.56 231.52 499.06 229.05 494.43 230.05C490.96 230.8 488.29 233.29 485.34 235.08C481.88 237.18 477.85 237.79 473.86 238C469.53 238.23 465.2 237.87 460.87 237.96C456.36 238.05 451.8 238.65 447.65 240.42C443.85 242.04 438.69 247.14 436.96 251.04C434.9 255.69 435.18 261.07 434.49 265.94C433.81 270.74 431.02 275.14 428.94 279.52C422.36 293.35 431.28 311.92 444.91 317.55C447.69 318.7 450.88 319.4 453.86 318.69C456.96 317.95 457.87 315.17 457.94 312.23C458.03 308.38 456.84 304.58 455.1 301.15C453.77 298.53 452.11 296.09 450.39 293.71C448.74 291.42 447.11 288.77 448.39 285.87C449.56 283.2 452.46 281.63 455.43 282.1Z" fill="black"/>
<path d="M444.49 508.55L443.46 529.21L431.13 543.6" stroke="black" stroke-width="3" stroke-miterlimit="10" stroke-linecap="round" stroke-linejoin="round"/>
<path d="M290.83 689.25H247.41L243.11 649.06H295.12L290.83 689.25Z" stroke="black" stroke-width="3" stroke-miterlimit="10" stroke-linecap="round" stroke-linejoin="round"/>
<path d="M255.01 680.44C256.893 680.44 258.42 678.913 258.42 677.03C258.42 675.146 256.893 673.62 255.01 673.62C253.127 673.62 251.6 675.146 251.6 677.03C251.6 678.913 253.127 680.44 255.01 680.44Z" fill="black"/>
<path d="M269.12 680.44C271.003 680.44 272.53 678.913 272.53 677.03C272.53 675.146 271.003 673.62 269.12 673.62C267.237 673.62 265.71 675.146 265.71 677.03C265.71 678.913 267.237 680.44 269.12 680.44Z" fill="black"/>
<path d="M283.22 680.44C285.103 680.44 286.63 678.913 286.63 677.03C286.63 675.146 285.103 673.62 283.22 673.62C281.337 673.62 279.81 675.146 279.81 677.03C279.81 678.913 281.337 680.44 283.22 680.44Z" fill="black"/>
<path d="M244.89 664.69H293.35" stroke="black" stroke-width="3" stroke-miterlimit="10" stroke-linecap="round" stroke-linejoin="round"/>
<path d="M269.12 591.15V649.06" stroke="black" stroke-width="3" stroke-miterlimit="10" stroke-linecap="round" stroke-linejoin="round"/>
<path d="M269.12 632.15L285.44 615.83" stroke="black" stroke-width="3" stroke-miterlimit="10" stroke-linecap="round" stroke-linejoin="round"/>
<path d="M269.12 603.23C275.792 603.23 281.2 597.822 281.2 591.15C281.2 584.478 275.792 579.07 269.12 579.07C262.448 579.07 257.04 584.478 257.04 591.15C257.04 597.822 262.448 603.23 269.12 603.23Z" stroke="black" stroke-width="3" stroke-miterlimit="10" stroke-linecap="round" stroke-linejoin="round"/>
<path d="M285.44 622.67C289.218 622.67 292.28 619.607 292.28 615.83C292.28 612.052 289.218 608.99 285.44 608.99C281.662 608.99 278.6 612.052 278.6 615.83C278.6 619.607 281.662 622.67 285.44 622.67Z" stroke="black" stroke-width="3" stroke-miterlimit="10" stroke-linecap="round" stroke-linejoin="round"/>
<path d="M243.69 625.91C248.754 625.91 252.86 621.804 252.86 616.74C252.86 611.676 248.754 607.57 243.69 607.57C238.626 607.57 234.52 611.676 234.52 616.74C234.52 621.804 238.626 625.91 243.69 625.91Z" stroke="black" stroke-width="3" stroke-miterlimit="10" stroke-linecap="round" stroke-linejoin="round"/>
<path d="M269.12 642.17L243.69 616.74" stroke="black" stroke-width="3" stroke-miterlimit="10" stroke-linecap="round" stroke-linejoin="round"/>
<path d="M602.15 831.78C604.27 826.06 603.85 819.23 602.92 813.35C600.7 799.43 600.12 785.2 601.91 771.19C602.81 764.16 604.18 757 606.46 750.27C608.67 743.77 611.21 737.36 612.5 730.59C612.77 729.19 612.98 727.78 613.13 726.36C614.44 713.82 607.75 701.78 615.86 690.7C621.8 682.58 630.14 679.86 633.18 679.02C633.5 683.04 633.83 687.06 634.15 691.09C634.9 691.13 637.5 691.35 639.6 693.43C640.74 694.56 641.29 695.79 641.55 696.54C642.39 695.79 648.54 693.95 650.91 693.8C653.36 693.64 655.44 693.88 656.53 694.43C656.85 696.04 655.46 701.72 655.07 702.92C654.18 705.65 650.87 711.96 649.54 713.21C648.26 717.55 647.62 722.16 649.52 729.23C651.13 735.22 654.03 738.21 658.28 744.22C666.13 755.34 671.68 767.99 674.54 781.3C676.04 788.27 676.81 795.4 676.93 802.53C677.02 808.34 675.24 816.73 678.14 822.08C678.65 823.02 679.97 825.45 682.03 825.78C685.59 826.34 689.15 820.31 690.4 818.19C692.48 814.66 695.12 808.8 696.04 795.42C696.61 787.18 695.75 787.34 696.23 776.35C696.53 769.61 696.78 764.41 698.18 757.66C700.77 745.12 706.43 733.14 720.43 730.59C721.39 735.76 716.97 740.14 713.93 744.44C704.37 757.99 707.49 776.26 707.12 792.85C706.77 808.79 701.48 836.72 684.21 843.46C680.03 845.09 675.29 845.99 670.8 845.96C646.66 845.81 622.65 844.86 598.51 844.92C597.84 844.92 597.14 844.92 596.52 844.64C595.05 843.97 594.66 841.94 595.29 840.45C595.92 838.96 597.24 837.91 598.53 836.94C600.2 835.66 601.36 833.89 602.15 831.78Z" stroke="black" stroke-width="3" stroke-miterlimit="10" stroke-linecap="round" stroke-linejoin="round"/>
<path d="M652.15 774.1C648.97 775.48 639.3 780.17 633.54 791.2C625.17 807.23 632.11 823.12 633.04 825.15C626.17 828.25 619.29 831.35 612.42 834.46" stroke="black" stroke-width="3" stroke-miterlimit="10" stroke-linecap="round" stroke-linejoin="round"/>
<path d="M617.55 768.01L616.16 809.05" stroke="black" stroke-width="3" stroke-miterlimit="10" stroke-linecap="round" stroke-linejoin="round"/>
<path d="M623.31 708.4L600.36 696.37" stroke="black" stroke-width="3" stroke-miterlimit="10" stroke-linecap="round" stroke-linejoin="round"/>
<path d="M623.31 715H593.1" stroke="black" stroke-width="3" stroke-miterlimit="10" stroke-linecap="round" stroke-linejoin="round"/>
<path d="M637.33 710.67H666.98" stroke="black" stroke-width="3" stroke-miterlimit="10" stroke-linecap="round" stroke-linejoin="round"/>
<path d="M636.87 717.36L667.43 728.43" stroke="black" stroke-width="3" stroke-miterlimit="10" stroke-linecap="round" stroke-linejoin="round"/>
<path d="M647.87 835.51C649.92 834.83 655.52 832.69 659.77 826.92C664.73 820.19 664.52 813.05 664.4 811.05" stroke="black" stroke-width="3" stroke-miterlimit="10" stroke-linecap="round" stroke-linejoin="round"/>
<path d="M175.46 845.95H833.8" stroke="black" stroke-width="3" stroke-miterlimit="10" stroke-linecap="round" stroke-linejoin="round"/>
<path d="M360.63 763.17H216.78V836.69H360.63V763.17Z" stroke="black" stroke-width="3" stroke-miterlimit="10" stroke-linecap="round" stroke-linejoin="round"/>
<path d="M348.09 774.59H229.32V825.28H348.09V774.59Z" stroke="black" stroke-width="3" stroke-miterlimit="10" stroke-linecap="round" stroke-linejoin="round"/>
<path d="M288.7 809.09C293.759 809.09 297.86 804.989 297.86 799.93C297.86 794.871 293.759 790.77 288.7 790.77C283.641 790.77 279.54 794.871 279.54 799.93C279.54 804.989 283.641 809.09 288.7 809.09Z" fill="black"/>
<path d="M360.63 689.45H216.78V762.97H360.63V689.45Z" stroke="black" stroke-width="3" stroke-miterlimit="10" stroke-linecap="round" stroke-linejoin="round"/>
<path d="M348.09 700.87H229.32V751.56H348.09V700.87Z" stroke="black" stroke-width="3" stroke-miterlimit="10" stroke-linecap="round" stroke-linejoin="round"/>
<path d="M288.7 735.37C293.759 735.37 297.86 731.269 297.86 726.21C297.86 721.151 293.759 717.05 288.7 717.05C283.641 717.05 279.54 721.151 279.54 726.21C279.54 731.269 283.641 735.37 288.7 735.37Z" fill="black"/>
<path d="M247.31 836.69H234.7V845.95H247.31V836.69Z" fill="black"/>
<path d="M342.7 836.69H330.09V845.95H342.7V836.69Z" fill="black"/>
<path d="M287.11 314.03H204.48V348.12H287.11V314.03Z" stroke="black" stroke-width="3" stroke-miterlimit="10" stroke-linecap="round" stroke-linejoin="round"/>
<path d="M369.73 313.96H287.1V348.05H369.73V313.96Z" stroke="black" stroke-width="3" stroke-miterlimit="10" stroke-linecap="round" stroke-linejoin="round"/>
<path d="M387.9 348.04H369.73V313.96H405.08" stroke="black" stroke-width="3" stroke-miterlimit="10" stroke-linecap="round" stroke-linejoin="round"/>
<path d="M328.42 348.02H245.79V382.11H328.42V348.02Z" stroke="black" stroke-width="3" stroke-miterlimit="10" stroke-linecap="round" stroke-linejoin="round"/>
<path d="M328.42 279.94H245.79V314.03H328.42V279.94Z" stroke="black" stroke-width="3" stroke-miterlimit="10" stroke-linecap="round" stroke-linejoin="round"/>
<path d="M204.48 348.12H147" stroke="black" stroke-width="3" stroke-miterlimit="10" stroke-linecap="round" stroke-linejoin="round"/>
<path d="M184.72 314.03H208.06" stroke="black" stroke-width="3" stroke-miterlimit="10" stroke-linecap="round" stroke-linejoin="round"/>
<path d="M287.1 279.94V250.4" stroke="black" stroke-width="3" stroke-miterlimit="10" stroke-linecap="round" stroke-linejoin="round"/>
<path d="M258.39 250.4H308.11" stroke="black" stroke-width="3" stroke-miterlimit="10" stroke-linecap="round" stroke-linejoin="round"/>
<path d="M328.41 279.94H387.52" stroke="black" stroke-width="3" stroke-miterlimit="10" stroke-linecap="round" stroke-linejoin="round"/>
<path d="M245.79 382.11H221.72" stroke="black" stroke-width="3" stroke-miterlimit="10" stroke-linecap="round" stroke-linejoin="round"/>
<path d="M328.41 382.11H351.89" stroke="black" stroke-width="3" stroke-miterlimit="10" stroke-linecap="round" stroke-linejoin="round"/>
<path d="M752.31 598.22H669.68V632.31H752.31V598.22Z" stroke="black" stroke-width="3" stroke-miterlimit="10" stroke-linecap="round" stroke-linejoin="round"/>
<path d="M834.94 598.14H752.31V632.23H834.94V598.14Z" stroke="black" stroke-width="3" stroke-miterlimit="10" stroke-linecap="round" stroke-linejoin="round"/>
<path d="M853.1 632.23H834.93V598.14H870.29" stroke="black" stroke-width="3" stroke-miterlimit="10" stroke-linecap="round" stroke-linejoin="round"/>
<path d="M793.62 632.23V666.32" stroke="black" stroke-width="3" stroke-miterlimit="10" stroke-linecap="round" stroke-linejoin="round"/>
<path d="M876.24 598.22H793.62V564.13" stroke="black" stroke-width="3" stroke-miterlimit="10" stroke-linecap="round" stroke-linejoin="round"/>
<path d="M669.68 632.31H633.69" stroke="black" stroke-width="3" stroke-miterlimit="10" stroke-linecap="round" stroke-linejoin="round"/>
<path d="M649.92 598.22H673.26" stroke="black" stroke-width="3" stroke-miterlimit="10" stroke-linecap="round" stroke-linejoin="round"/>
<path d="M342.85 629.01H316.34V689.45H342.85V629.01Z" stroke="black" stroke-width="3" stroke-miterlimit="10" stroke-linecap="round" stroke-linejoin="round"/>
<path d="M342.85 629.01H316.34L320.63 618.27H338.55L342.85 629.01Z" stroke="black" stroke-width="3" stroke-miterlimit="10" stroke-linecap="round" stroke-linejoin="round"/>
<path d="M334.43 611.27H324.76V618.26H334.43V611.27Z" stroke="black" stroke-width="3" stroke-miterlimit="10" stroke-linecap="round" stroke-linejoin="round"/>
<path d="M333.44 646.41L323.89 655.95" stroke="black" stroke-width="3" stroke-miterlimit="10" stroke-linecap="round" stroke-linejoin="round"/>
<path d="M333.44 659.92L329.59 663.77" stroke="black" stroke-width="3" stroke-miterlimit="10" stroke-linecap="round" stroke-linejoin="round"/>
<path d="M749.93 845.5C762.207 845.5 772.16 835.547 772.16 823.27C772.16 810.992 762.207 801.04 749.93 801.04C737.653 801.04 727.7 810.992 727.7 823.27C727.7 835.547 737.653 845.5 749.93 845.5Z" stroke="black" stroke-width="3" stroke-miterlimit="10" stroke-linecap="round" stroke-linejoin="round"/>
<path d="M729.73 832.55C735.72 830.81 740.95 826.57 743.75 820.45C746.55 814.33 746.33 807.6 743.73 801.93" stroke="black" stroke-width="3" stroke-miterlimit="10" stroke-linecap="round" stroke-linejoin="round"/>
<path d="M756.15 844.62C753.54 838.95 753.33 832.22 756.13 826.1C758.93 819.98 764.15 815.74 770.15 814" stroke="black" stroke-width="3" stroke-miterlimit="10" stroke-linecap="round" stroke-linejoin="round"/>
<path d="M596.46 193.82C595.66 193.51 594.82 193.39 593.96 193.46C592.71 193.55 591.39 194.05 590.11 194.9C589.22 195.5 588.44 196.33 587.86 197.3C586.92 198.86 586.55 200.67 586.83 202.27C587.2 204.27 588.51 206.21 590.85 208.18C592.15 209.27 593.52 210.35 594.84 211.39C596.77 212.91 598.75 214.48 600.62 216.16C601.8 214.81 603.14 213.65 604.59 212.75C605.71 212.07 606.86 211.58 608.03 211.24C606.35 206.39 604.35 201.4 600.88 197.3C599.35 195.52 597.94 194.41 596.46 193.82ZM597.52 207.03C596.14 207.03 595.03 205.92 595.03 204.54C595.03 203.16 596.15 202.05 597.52 202.05C598.9 202.05 600.01 203.17 600.01 204.54C600.01 205.91 598.89 207.03 597.52 207.03Z" fill="black"/>
<path d="M637.81 200.34C633.54 198.72 628.63 199.81 624.69 203.27C621.93 205.68 619.69 208.99 618.3 212.65C621.28 214.24 623.59 216.56 625.17 219.6C627.53 219.2 629.85 218.57 632.04 217.67C634.66 216.6 637.06 215.21 639.19 213.52C641.2 211.92 642.36 210.46 642.85 208.92C644.09 205.07 641.18 201.62 637.81 200.34ZM631.02 210.86C629.64 210.86 628.53 209.74 628.53 208.37C628.53 206.99 629.65 205.88 631.02 205.88C632.4 205.88 633.51 207 633.51 208.37C633.51 209.74 632.4 210.86 631.02 210.86Z" fill="black"/>
<path d="M610.33 165C582.55 165 560.04 187.52 560.04 215.29C560.04 243.06 582.56 265.58 610.33 265.58C638.11 265.58 660.62 243.06 660.62 215.29C660.62 187.52 638.11 165 610.33 165ZM603.82 225.72C603.82 224.34 604.94 223.23 606.31 223.23C607.69 223.23 608.8 224.35 608.8 225.72C608.8 227.09 607.68 228.21 606.31 228.21C604.93 228.21 603.82 227.09 603.82 225.72ZM609.32 244.45C607.94 244.45 606.83 243.33 606.83 241.96C606.83 240.59 607.95 239.47 609.32 239.47C610.7 239.47 611.81 240.59 611.81 241.96C611.81 243.33 610.69 244.45 609.32 244.45ZM617.25 235.58C615.87 235.58 614.76 234.46 614.76 233.09C614.76 231.71 615.88 230.6 617.25 230.6C618.62 230.6 619.74 231.71 619.74 233.09C619.74 234.47 618.63 235.58 617.25 235.58ZM648.42 201.82L644.39 203.76C645.19 205.48 645.43 207.45 644.76 209.52C643.95 212.06 641.91 213.91 640.44 215.08C638.63 216.51 636.64 217.73 634.51 218.74L637.52 220.68C637.98 220.98 638.12 221.6 637.82 222.06C637.63 222.36 637.31 222.52 636.98 222.52C636.79 222.52 636.61 222.47 636.44 222.36L632.3 219.7C630.28 220.49 628.18 221.08 626.03 221.47C626.03 221.48 626.04 221.49 626.04 221.5C627.94 226.37 628.03 232.19 627.09 237.69L631.34 234.97C631.81 234.67 632.42 234.81 632.72 235.27C633.02 235.73 632.88 236.35 632.42 236.65L626.53 240.42C625.7 243.93 624.49 247.21 623.11 249.89C622.93 250.23 622.58 250.43 622.22 250.43C622.07 250.43 621.91 250.39 621.76 250.32C621.27 250.07 621.08 249.46 621.33 248.97C622.7 246.32 623.9 243.06 624.69 239.59C624.69 239.58 624.7 239.56 624.7 239.55C626.01 233.77 626.2 227.4 624.18 222.23C622.51 217.95 619.5 215 615.25 213.45C611.98 212.26 608.65 212.61 605.63 214.47C601.51 216.99 598.32 222.18 597.69 227.37C596.87 234.13 598.44 241.55 601.9 247.23C602.19 247.7 602.04 248.32 601.57 248.6C601.1 248.89 600.48 248.74 600.2 248.27C597.34 243.58 595.69 237.76 595.51 232.03L589.62 229.1C589.13 228.85 588.92 228.25 589.17 227.76C589.42 227.27 590.02 227.06 590.51 227.31L595.51 229.8C595.54 228.9 595.61 228.01 595.72 227.13C596.13 223.77 597.45 220.48 599.39 217.75C597.77 216.3 596.06 214.91 594.36 213.57L589 216.08C588.86 216.14 588.72 216.17 588.58 216.17C588.2 216.17 587.84 215.96 587.67 215.59C587.44 215.09 587.65 214.49 588.15 214.26L592.61 212.18C591.59 211.37 590.57 210.56 589.57 209.72C586.86 207.43 585.32 205.11 584.87 202.64C584.86 202.61 584.86 202.57 584.86 202.54L576.63 203.93C576.57 203.94 576.52 203.94 576.46 203.94C575.98 203.94 575.56 203.59 575.47 203.11C575.38 202.57 575.75 202.05 576.29 201.96L584.77 200.53C584.85 199.43 585.14 198.34 585.62 197.29L576.05 193.11C575.54 192.89 575.31 192.3 575.53 191.79C575.75 191.28 576.34 191.05 576.85 191.27L586.64 195.55C587.11 194.9 587.66 194.31 588.27 193.81L583.33 184.8C583.06 184.32 583.24 183.71 583.73 183.44C584.21 183.17 584.82 183.35 585.09 183.84L589.94 192.7C591.22 191.99 592.52 191.57 593.81 191.48C593.86 191.48 593.9 191.48 593.95 191.48L594.39 181.76C594.42 181.21 594.89 180.78 595.43 180.81C595.98 180.84 596.41 181.3 596.38 181.85L595.94 191.62C596.36 191.71 596.78 191.82 597.19 191.98C599 192.69 600.65 193.98 602.41 196.04C603.2 196.97 603.89 197.94 604.54 198.93L606.8 194.59C607.05 194.1 607.66 193.91 608.15 194.17C608.64 194.42 608.83 195.03 608.57 195.52L605.75 200.94C607.55 204.14 608.85 207.54 610 210.87C611.96 210.64 613.96 210.88 615.94 211.6C616.13 211.67 616.3 211.75 616.48 211.83C617.99 207.91 620.41 204.37 623.37 201.79C625.2 200.19 627.22 199.05 629.3 198.37L630.44 191.13C630.53 190.58 631.03 190.21 631.58 190.3C632.13 190.39 632.5 190.9 632.41 191.44L631.4 197.84C633.8 197.43 636.23 197.63 638.51 198.5C640.37 199.21 642.11 200.47 643.34 202.08L647.54 200.06C648.04 199.82 648.64 200.03 648.87 200.53C649.13 200.98 648.92 201.58 648.42 201.82Z" fill="black"/>
<path d="M328.48 472.07C332.38 475.88 338.03 478.52 344.46 479.23C339.24 481.76 334.95 481.6 332.12 480.91C329.72 480.32 327.42 479.21 325.4 477.67C326.42 476.72 327.21 475.62 327.76 474.39C328.07 473.68 328.31 472.89 328.48 472.07ZM328.53 447.16C333.12 442.71 340.11 439.86 347.93 439.86C349.6 439.86 351.22 440 352.81 440.25C350.24 438.06 346.75 435.88 342.3 434.9C339.82 434.35 334.65 433.21 329.31 435.91C327.33 436.91 325.58 438.31 324.11 440.08C325.82 441.68 327.18 443.64 328.06 445.79C328.23 446.23 328.39 446.69 328.53 447.16ZM323.07 457.36C318.26 456.53 316.04 452.86 315.08 450.45C313.88 452.5 312.75 455.31 312.55 458.77C312.28 463.49 313.93 467.28 315.33 469.59C315.85 468.18 316.79 466.49 318.49 465.14C319.14 464.63 321.12 463.2 323.26 462.96C323.03 461.88 322.9 460.77 322.9 459.64C322.9 458.87 322.96 458.11 323.07 457.36ZM362.03 469.33C362.58 470.45 363 471.64 363.28 472.86C359.05 475.8 353.63 477.42 347.93 477.42C335.24 477.42 324.91 469.44 324.91 459.63C324.91 449.82 335.24 441.84 347.93 441.84C357.31 441.84 365.57 446.19 369.12 452.69C367.23 451.9 365.32 451.68 363.57 452.15C360.51 452.97 357.83 456.03 357.32 456.64C356.27 457.89 355.42 459.31 354.8 460.84C354.61 461.3 354.79 461.83 355.23 462.08C356.92 463.08 360.06 465.32 362.03 469.33ZM346.57 467.35C346.57 466.8 346.12 466.36 345.57 466.36C345.57 466.36 345.57 466.36 345.56 466.36C343.64 466.41 341.76 465.58 340.45 464.18C339.23 462.89 338.6 461.21 338.71 459.58C338.92 456.56 341.64 453.99 344.9 453.73C345.45 453.69 345.86 453.21 345.82 452.65C345.78 452.1 345.29 451.69 344.74 451.73C340.45 452.07 337 455.38 336.71 459.43C336.56 461.62 337.39 463.84 338.98 465.54C340.66 467.33 343.03 468.35 345.5 468.35C345.52 468.35 345.55 468.35 345.57 468.35C346.13 468.36 346.58 467.91 346.57 467.35ZM375.34 461.02C374.21 464.32 372.54 467.36 370.37 470.06C368.97 471.79 367.38 473.36 365.63 474.75C365.57 474.19 365.49 473.64 365.38 473.09C365.38 473.08 365.38 473.08 365.38 473.07C365.07 471.46 364.55 469.9 363.84 468.45C361.98 464.64 359.23 462.25 357.01 460.84C357.51 459.79 358.13 458.82 358.87 457.94C359.14 457.62 361.57 454.78 364.1 454.1C367.6 453.15 372.28 456.05 375.34 461.02ZM368.27 459.29C368.27 458.25 367.43 457.4 366.38 457.4C365.33 457.4 364.49 458.24 364.49 459.29C364.49 460.34 365.33 461.18 366.38 461.18C367.43 461.18 368.27 460.33 368.27 459.29ZM390.26 457.77C390.26 483.97 369.02 505.21 342.82 505.21C316.62 505.21 295.38 483.97 295.38 457.77C295.38 431.57 316.62 410.33 342.82 410.33C369.03 410.33 390.26 431.57 390.26 457.77ZM370.92 440.49C370.92 441.37 371.63 442.08 372.51 442.08C373.39 442.08 374.1 441.37 374.1 440.49C374.1 439.61 373.39 438.9 372.51 438.9C371.63 438.9 370.92 439.61 370.92 440.49ZM377.29 460.39C375.82 457.88 374 455.84 372.04 454.39C369.87 448.1 364 443.23 356.56 441.07C353.79 438.1 349.19 434.36 342.72 432.94C340.22 432.39 334.37 431.09 328.39 434.12C325.87 435.4 323.7 437.24 321.92 439.59C321.6 440.02 321.67 440.62 322.08 440.96C323.34 442.01 325.08 443.83 326.19 446.54C326.5 447.3 326.73 448.1 326.91 448.91C325.31 450.86 324.14 453.05 323.48 455.39C317.58 454.42 316.44 448.24 316.4 447.96C316.33 447.56 316.04 447.25 315.65 447.15C315.26 447.05 314.85 447.2 314.61 447.53C312.92 449.82 310.84 453.6 310.55 458.65C310.16 465.6 313.5 470.71 314.96 472.58C315.15 472.83 315.45 472.97 315.75 472.97C315.84 472.97 315.92 472.96 316.01 472.94C316.4 472.84 316.69 472.51 316.74 472.11C316.88 471.08 317.46 468.5 319.73 466.71C320.82 465.85 322.46 464.95 323.81 464.93C324.46 466.78 325.44 468.53 326.71 470.12C326.65 471.34 326.38 472.56 325.92 473.58C325.35 474.86 324.44 475.97 323.21 476.88C322.97 477.06 322.82 477.34 322.81 477.65C322.8 477.95 322.93 478.24 323.16 478.44C325.63 480.57 328.56 482.1 331.64 482.85C332.83 483.14 334.25 483.35 335.87 483.35C339.24 483.35 343.46 482.43 348.23 479.41C353.88 479.36 359.27 477.81 363.63 475.03C363.68 475.57 363.73 476.11 363.73 476.66C363.73 477.03 363.94 477.37 364.27 477.54C364.42 477.62 364.57 477.65 364.73 477.65C364.93 477.65 365.13 477.59 365.3 477.47C367.8 475.74 370.03 473.66 371.92 471.31C374.34 468.3 376.18 464.9 377.38 461.2C377.47 460.93 377.44 460.64 377.29 460.39ZM380.48 449.48C380.48 448.06 379.33 446.91 377.91 446.91C376.49 446.91 375.34 448.06 375.34 449.48C375.34 450.9 376.49 452.05 377.91 452.05C379.33 452.05 380.48 450.9 380.48 449.48Z" fill="black"/>
<path d="M688.38 431.71C651.35 431.71 621.33 461.73 621.33 498.76C621.33 535.79 651.35 565.81 688.38 565.81C725.41 565.81 755.43 535.79 755.43 498.76C755.43 461.73 725.41 431.71 688.38 431.71ZM695.79 512.65C700.89 516.46 703.8 521.55 704.68 527.84C705.01 530.19 704.86 532.56 704.89 534.92C704.91 536.79 704.89 538.67 704.89 540.55C704.89 541.03 704.71 541.43 704.23 541.56C703.7 541.7 703.28 541.5 703 541.02C702.8 540.69 702.8 540.33 702.8 539.96C702.8 536.99 702.81 534.02 702.8 531.05C702.78 523.78 699.93 517.96 693.99 513.69C693.36 513.24 692.79 513.07 691.98 513.29C683.22 515.65 674.45 517.97 665.68 520.3C662.07 521.26 658.82 519.51 657.61 516C657.16 514.69 657.39 513.5 658.36 512.57C658.91 512.04 659.01 511.51 659 510.83C658.98 509.05 658.99 507.27 658.99 505.5C658.99 504.88 659.27 504.46 659.93 504.42C660.47 504.39 660.85 504.82 660.9 505.48C660.91 505.63 660.9 505.77 660.9 505.92C660.9 507.48 660.93 509.04 660.89 510.6C660.87 511.22 661.09 511.3 661.61 511.12C662.21 510.91 662.8 510.7 663.41 510.53C663.82 510.42 663.93 510.19 663.92 509.79C663.9 508.43 663.91 507.06 663.91 505.7C663.91 505.21 663.9 504.72 663.94 504.24C663.99 503.7 664.34 503.39 664.86 503.38C665.38 503.38 665.72 503.68 665.79 504.22C665.82 504.44 665.82 504.66 665.82 504.88C665.82 506.24 665.84 507.61 665.81 508.97C665.8 509.54 665.97 509.58 666.43 509.34C667.16 508.94 667.9 508.57 668.65 508.22C669.09 508.02 669.23 507.72 669.22 507.24C669.19 505.8 669.21 504.37 669.21 502.93C669.21 502.52 669.2 502.1 669.23 501.69C669.27 501.16 669.56 500.82 670.11 500.79C670.65 500.76 670.98 501.06 671.08 501.58C671.13 501.84 671.12 502.11 671.12 502.38C671.12 503.76 671.12 505.13 671.12 506.49C671.38 506.54 671.48 506.41 671.59 506.33C673.79 504.78 675.77 503 677.52 500.94C678.92 499.28 679.72 497.39 679.81 495.22C679.86 493.88 679.83 492.54 679.86 491.2C679.87 490.48 680.23 490.03 680.78 490.01C681.36 489.99 681.76 490.44 681.76 491.2C681.76 492.64 681.77 494.07 681.71 495.51C681.64 497.42 681.11 499.21 680.02 500.8C678.79 502.6 677.22 504.1 675.59 505.54C672.16 508.58 668.26 510.82 663.93 512.32C662.85 512.69 661.75 513.01 660.64 513.29C659.44 513.6 659.05 514.43 659.5 515.57C660.44 517.99 662.56 519.09 665.07 518.42C676.33 515.44 687.59 512.44 698.85 509.46C699.19 509.37 699.5 509.25 699.76 509.02C700.86 508.04 701.82 506.96 702.49 505.63C703.7 503.24 703.84 500.74 703.3 498.16C703.13 497.37 703.4 496.88 703.97 496.76C704.54 496.64 704.95 496.99 705.13 497.78C705.91 501.18 705.55 504.42 703.66 507.4C702.33 509.49 700.78 511.32 698.09 511.7C697.23 511.82 696.4 512.14 695.45 512.4C695.64 512.54 695.71 512.6 695.79 512.65ZM733.64 502.38C733.15 502.77 732.62 502.56 731.98 501.72C729.36 498.24 726.75 494.75 724.14 491.26C721.45 487.67 719.39 483.79 718.51 479.35C718.28 478.2 717.96 477.08 717.48 476.01C716.02 472.73 713.73 470.29 710.36 468.95C706.8 467.53 703.12 467.55 699.44 468.3C695.12 469.18 690.82 470.07 686.38 470.14C681.92 470.21 677.53 469.8 673.31 468.22C671.99 467.73 670.77 467 669.38 466.66C664.89 465.56 660.58 465.83 656.57 468.31C653.38 470.28 651.24 473.17 649.65 476.51C649.44 476.96 649.47 477.22 649.8 477.58C652.03 479.99 654.7 481.79 657.59 483.28C660.35 484.71 663.29 485.67 666.31 486.36C670.37 487.3 674.5 487.44 678.65 487.39C681.23 487.36 683.75 487.75 686.07 488.96C687.15 489.52 688.27 489.56 689.4 489.22C690.12 489 690.83 488.74 691.52 488.45C694.21 487.3 696.76 485.87 699.32 484.47C699.95 484.13 700.52 484.25 700.8 484.74C701.08 485.23 700.89 485.77 700.26 486.12C697.43 487.7 694.59 489.24 691.61 490.53C689.17 491.58 686.8 491.77 684.41 490.34C683.36 489.72 682.13 489.52 680.91 489.4C679.13 489.23 677.36 489.34 675.58 489.28C674.98 489.26 674.79 489.43 674.81 490.04C674.85 491.69 674.83 493.35 674.82 495.01C674.82 495.61 674.52 496.01 673.91 496.03C673.29 496.06 673 495.65 672.92 495.08C672.9 494.91 672.91 494.74 672.91 494.57C672.91 492.96 672.9 491.36 672.92 489.75C672.92 489.36 672.82 489.16 672.4 489.16C671.3 489.15 670.21 489.01 669.14 488.81C668.63 488.71 668.58 488.94 668.58 489.35C668.6 490.81 668.59 492.27 668.58 493.73C668.58 493.95 668.58 494.17 668.55 494.39C668.48 494.91 668.19 495.25 667.65 495.26C667.1 495.27 666.8 494.95 666.7 494.43C666.66 494.22 666.66 493.99 666.66 493.78C666.66 492.2 666.64 490.61 666.67 489.03C666.68 488.5 666.49 488.32 665.99 488.22C665.11 488.05 664.23 487.83 663.37 487.57C662.85 487.41 662.76 487.56 662.77 488.05C662.8 489.36 662.78 490.68 662.78 492C662.78 492.32 662.8 492.64 662.75 492.95C662.67 493.47 662.36 493.81 661.82 493.8C661.25 493.79 660.94 493.44 660.89 492.88C660.87 492.69 660.88 492.49 660.88 492.3C660.88 490.67 660.86 489.04 660.89 487.41C660.9 486.94 660.75 486.71 660.3 486.58C659.44 486.32 658.61 485.96 657.82 485.53C657.23 485.2 657.11 485.37 657.12 485.99C657.15 487.35 657.14 488.72 657.12 490.08C657.11 490.74 656.71 491.2 656.17 491.15C655.57 491.1 655.28 490.71 655.22 490.13C655.2 489.96 655.22 489.79 655.22 489.62C655.22 487.99 655.22 486.36 655.22 484.72C655.22 484.49 655.27 484.24 655.01 484.07C654.03 483.45 653.06 482.82 651.96 482.11C651.96 483.48 651.96 484.72 651.96 485.96C651.96 486.2 651.97 486.45 651.96 486.69C651.92 487.42 651.58 487.83 650.99 487.83C650.4 487.83 650.06 487.44 650.05 486.68C650.04 484.83 650.03 482.98 650.05 481.13C650.06 480.68 649.92 480.36 649.58 480.05C648.87 479.42 648.23 478.72 647.65 477.96C647.35 477.57 647.29 477.16 647.48 476.73C648.81 473.78 650.4 470.97 652.85 468.81C658.73 463.6 665.41 463.08 672.48 465.82C674.93 466.77 677.38 467.59 679.97 467.93C685.36 468.63 690.71 468.27 696.01 467.1C699.54 466.32 703.07 465.79 706.72 466.16C713.31 466.82 718.93 471.72 720.18 478.23C720.93 482.14 722.46 485.66 724.68 488.9C727.44 492.92 730.55 496.67 733.46 500.57C734.06 501.32 734.12 501.98 733.64 502.38ZM695.03 478.53C695.03 480.66 693.31 482.38 691.18 482.38C689.05 482.38 687.33 480.66 687.33 478.53C687.33 476.4 689.05 474.68 691.18 474.68C693.3 474.68 695.03 476.41 695.03 478.53ZM659.05 471.83C658.2 472.31 657.56 472.96 657.05 473.78C656.79 474.2 656.3 474.23 655.87 474.09C655.52 473.98 655.41 473.63 655.39 473.39C655.36 472.13 657.39 470.14 658.51 470.2C658.9 470.22 659.21 470.4 659.34 470.79C659.46 471.2 659.42 471.63 659.05 471.83Z" fill="black"/>
<path d="M487.67 299.99L475.65 300.63C467.44 301.07 460.42 294.79 459.98 286.58C459.76 282.48 461.23 278.67 463.76 275.83C466.32 273 469.95 271.13 474.05 270.91L487.38 270.19V270.2L486.21 270.26C482.11 270.49 478.49 272.35 475.94 275.18C473.39 278.02 471.93 281.82 472.15 285.92C472.59 294.01 479.39 300.22 487.43 299.99C487.51 300 487.59 299.99 487.67 299.99Z" fill="black" stroke="black" stroke-width="3" stroke-miterlimit="10" stroke-linecap="round" stroke-linejoin="round"/>
<path d="M487.67 299.99H487.81L499.05 299.38C500.99 299.28 502.8 298.41 504.1 296.96L506.6 294.18C508.06 292.56 510.55 292.42 512.16 293.88L514.95 296.38C516.39 297.68 518.29 298.35 520.23 298.24L522.14 298.14C526.24 297.92 529.86 296.05 532.42 293.22C534.95 290.39 536.42 286.6 536.2 282.51C535.78 274.31 528.29 268 520.1 268.44L499.36 269.56L487.38 270.2" stroke="black" stroke-width="3" stroke-miterlimit="10" stroke-linecap="round" stroke-linejoin="round"/>
<path d="M486.15 324.46C483.72 325.05 479.57 325.71 474.56 324.84C470.6 324.15 467.54 322.74 465.56 321.63C466.73 323.99 468.7 327.2 471.91 330.28C477.57 335.7 483.86 337.57 486.96 338.26C487.08 336.35 487.12 334.23 487.01 331.92C486.88 329.14 486.55 326.64 486.15 324.46Z" fill="black" stroke="black" stroke-width="3" stroke-miterlimit="10" stroke-linecap="round" stroke-linejoin="round"/>
</svg>
