<svg width="1386" height="98" viewBox="0 0 1386 98" fill="none" xmlns="http://www.w3.org/2000/svg">
<g filter="url(#filter0_i_209_36)">
<path d="M0.389915 96V1.45454H39.8146C46.8932 1.45454 52.8177 2.45478 57.5881 4.45525C62.3892 6.45572 65.9901 9.25639 68.3906 12.8572C70.822 16.4581 72.0376 20.6283 72.0376 25.3679C72.0376 28.9688 71.2836 32.1849 69.7756 35.0163C68.2675 37.817 66.1901 40.1406 63.5433 41.9872C60.8965 43.8338 57.8343 45.1264 54.3565 45.8651V46.7883C58.1728 46.973 61.6967 48.004 64.9283 49.8814C68.1906 51.7588 70.8066 54.3748 72.7763 57.7294C74.746 61.0533 75.7308 64.9927 75.7308 69.5476C75.7308 74.6257 74.4382 79.1652 71.853 83.1662C69.2678 87.1364 65.5284 90.2756 60.6349 92.5838C55.7415 94.8613 49.8016 96 42.8153 96H0.389915ZM23.2415 77.5803H37.3679C42.3229 77.5803 45.9699 76.6416 48.309 74.7642C50.6787 72.8868 51.8636 70.2708 51.8636 66.9162C51.8636 64.4848 51.2943 62.392 50.1555 60.6378C49.0168 58.8527 47.401 57.4832 45.3082 56.5291C43.2154 55.5443 40.7072 55.0518 37.7834 55.0518H23.2415V77.5803ZM23.2415 40.3253H35.8906C38.3835 40.3253 40.5994 39.9098 42.5384 39.0788C44.4773 38.2479 45.9853 37.0476 47.0625 35.478C48.1705 33.9084 48.7244 32.0156 48.7244 29.7997C48.7244 26.6297 47.6011 24.1368 45.3544 22.321C43.1077 20.5052 40.0762 19.5973 36.2599 19.5973H23.2415V40.3253ZM143.916 1.45454H166.722V62.4382C166.722 69.486 165.044 75.6259 161.69 80.858C158.335 86.0592 153.657 90.0909 147.656 92.9531C141.654 95.7846 134.683 97.2003 126.743 97.2003C118.71 97.2003 111.693 95.7846 105.692 92.9531C99.6903 90.0909 95.0277 86.0592 91.7038 80.858C88.38 75.6259 86.718 69.486 86.718 62.4382V1.45454H109.57V60.4531C109.57 63.7154 110.277 66.6238 111.693 69.1783C113.14 71.7327 115.156 73.7332 117.741 75.1797C120.326 76.6262 123.327 77.3494 126.743 77.3494C130.159 77.3494 133.144 76.6262 135.699 75.1797C138.284 73.7332 140.3 71.7327 141.746 69.1783C143.193 66.6238 143.916 63.7154 143.916 60.4531V1.45454ZM232.149 29.7997C231.841 26.4143 230.471 23.7829 228.04 21.9055C225.639 19.9974 222.208 19.0433 217.745 19.0433C214.791 19.0433 212.329 19.428 210.359 20.1974C208.389 20.9669 206.912 22.0286 205.927 23.3828C204.942 24.7062 204.434 26.2296 204.404 27.9531C204.342 29.3688 204.619 30.6153 205.235 31.6925C205.881 32.7696 206.804 33.7237 208.004 34.5547C209.236 35.3549 210.713 36.0627 212.436 36.6783C214.16 37.2938 216.099 37.8324 218.253 38.294L226.378 40.1406C231.056 41.1562 235.18 42.5104 238.75 44.2031C242.351 45.8958 245.367 47.9117 247.798 50.2507C250.261 52.5897 252.123 55.2827 253.384 58.3295C254.646 61.3764 255.293 64.7926 255.323 68.5781C255.293 74.5488 253.785 79.6731 250.799 83.951C247.814 88.2289 243.521 91.5066 237.919 93.7841C232.349 96.0616 225.624 97.2003 217.745 97.2003C209.836 97.2003 202.942 96.0154 197.063 93.6456C191.185 91.2758 186.615 87.675 183.352 82.843C180.09 78.0111 178.413 71.902 178.32 64.5156H200.203C200.387 67.5625 201.203 70.1016 202.649 72.1328C204.096 74.1641 206.081 75.7029 208.605 76.7493C211.159 77.7957 214.114 78.3189 217.468 78.3189C220.546 78.3189 223.162 77.9034 225.316 77.0724C227.501 76.2415 229.179 75.0874 230.348 73.6101C231.518 72.1328 232.118 70.4401 232.149 68.532C232.118 66.7469 231.564 65.2235 230.487 63.9616C229.41 62.669 227.748 61.5611 225.501 60.6378C223.285 59.6837 220.454 58.8066 217.007 58.0064L207.127 55.6982C198.941 53.8208 192.493 50.7893 187.784 46.6037C183.075 42.3873 180.736 36.6937 180.767 29.5227C180.736 23.6752 182.306 18.5509 185.476 14.1499C188.646 9.74881 193.032 6.31723 198.633 3.85511C204.234 1.39299 210.62 0.161928 217.791 0.161928C225.116 0.161928 231.472 1.40838 236.857 3.90127C242.274 6.3634 246.475 9.82576 249.46 14.2884C252.446 18.7509 253.969 23.9214 254.031 29.7997H232.149ZM289.716 1.45454V96H266.865V1.45454H289.716ZM384.527 1.45454V96H365.138L327.513 41.4332H326.913V96H304.062V1.45454H323.728L360.937 55.929H361.722V1.45454H384.527ZM398.896 96V1.45454H464.819V20.0128H421.747V39.402H461.449V58.0064H421.747V77.4418H464.819V96H398.896ZM530.235 29.7997C529.927 26.4143 528.557 23.7829 526.126 21.9055C523.725 19.9974 520.294 19.0433 515.831 19.0433C512.877 19.0433 510.414 19.428 508.445 20.1974C506.475 20.9669 504.998 22.0286 504.013 23.3828C503.028 24.7062 502.52 26.2296 502.49 27.9531C502.428 29.3688 502.705 30.6153 503.32 31.6925C503.967 32.7696 504.89 33.7237 506.09 34.5547C507.321 35.3549 508.799 36.0627 510.522 36.6783C512.246 37.2938 514.185 37.8324 516.339 38.294L524.464 40.1406C529.142 41.1562 533.266 42.5104 536.836 44.2031C540.437 45.8958 543.453 47.9117 545.884 50.2507C548.347 52.5897 550.209 55.2827 551.47 58.3295C552.732 61.3764 553.378 64.7926 553.409 68.5781C553.378 74.5488 551.87 79.6731 548.885 83.951C545.9 88.2289 541.606 91.5066 536.005 93.7841C530.435 96.0616 523.71 97.2003 515.831 97.2003C507.922 97.2003 501.028 96.0154 495.149 93.6456C489.271 91.2758 484.701 87.675 481.438 82.843C478.176 78.0111 476.499 71.902 476.406 64.5156H498.289C498.473 67.5625 499.289 70.1016 500.735 72.1328C502.182 74.1641 504.167 75.7029 506.691 76.7493C509.245 77.7957 512.2 78.3189 515.554 78.3189C518.632 78.3189 521.248 77.9034 523.402 77.0724C525.587 76.2415 527.265 75.0874 528.434 73.6101C529.604 72.1328 530.204 70.4401 530.235 68.532C530.204 66.7469 529.65 65.2235 528.573 63.9616C527.495 62.669 525.834 61.5611 523.587 60.6378C521.371 59.6837 518.539 58.8066 515.093 58.0064L505.213 55.6982C497.027 53.8208 490.579 50.7893 485.87 46.6037C481.161 42.3873 478.822 36.6937 478.853 29.5227C478.822 23.6752 480.392 18.5509 483.562 14.1499C486.732 9.74881 491.118 6.31723 496.719 3.85511C502.32 1.39299 508.706 0.161928 515.877 0.161928C523.202 0.161928 529.557 1.40838 534.943 3.90127C540.36 6.3634 544.561 9.82576 547.546 14.2884C550.532 18.7509 552.055 23.9214 552.117 29.7997H530.235ZM616.055 29.7997C615.747 26.4143 614.378 23.7829 611.946 21.9055C609.546 19.9974 606.114 19.0433 601.651 19.0433C598.697 19.0433 596.235 19.428 594.265 20.1974C592.295 20.9669 590.818 22.0286 589.833 23.3828C588.848 24.7062 588.341 26.2296 588.31 27.9531C588.248 29.3688 588.525 30.6153 589.141 31.6925C589.787 32.7696 590.71 33.7237 591.911 34.5547C593.142 35.3549 594.619 36.0627 596.343 36.6783C598.066 37.2938 600.005 37.8324 602.159 38.294L610.284 40.1406C614.962 41.1562 619.086 42.5104 622.656 44.2031C626.257 45.8958 629.273 47.9117 631.705 50.2507C634.167 52.5897 636.029 55.2827 637.291 58.3295C638.553 61.3764 639.199 64.7926 639.23 68.5781C639.199 74.5488 637.691 79.6731 634.705 83.951C631.72 88.2289 627.427 91.5066 621.825 93.7841C616.255 96.0616 609.53 97.2003 601.651 97.2003C593.742 97.2003 586.848 96.0154 580.97 93.6456C575.091 91.2758 570.521 87.675 567.259 82.843C563.996 78.0111 562.319 71.902 562.227 64.5156H584.109C584.294 67.5625 585.109 70.1016 586.556 72.1328C588.002 74.1641 589.987 75.7029 592.511 76.7493C595.065 77.7957 598.02 78.3189 601.374 78.3189C604.452 78.3189 607.068 77.9034 609.222 77.0724C611.408 76.2415 613.085 75.0874 614.254 73.6101C615.424 72.1328 616.024 70.4401 616.055 68.532C616.024 66.7469 615.47 65.2235 614.393 63.9616C613.316 62.669 611.654 61.5611 609.407 60.6378C607.191 59.6837 604.36 58.8066 600.913 58.0064L591.034 55.6982C582.847 53.8208 576.399 50.7893 571.691 46.6037C566.982 42.3873 564.643 36.6937 564.673 29.5227C564.643 23.6752 566.212 18.5509 569.382 14.1499C572.552 9.74881 576.938 6.31723 582.539 3.85511C588.141 1.39299 594.527 0.161928 601.698 0.161928C609.022 0.161928 615.378 1.40838 620.764 3.90127C626.18 6.3634 630.381 9.82576 633.367 14.2884C636.352 18.7509 637.875 23.9214 637.937 29.7997H616.055ZM678.7 96V1.45454H717.756C724.834 1.45454 730.944 2.83949 736.083 5.60938C741.254 8.34848 745.239 12.1802 748.04 17.1044C750.841 21.9979 752.241 27.6915 752.241 34.1854C752.241 40.71 750.81 46.419 747.948 51.3125C745.116 56.1752 741.069 59.9453 735.806 62.6229C730.544 65.3004 724.296 66.6392 717.063 66.6392H692.965V48.6349H712.816C716.263 48.6349 719.141 48.0348 721.449 46.8345C723.788 45.6342 725.558 43.9569 726.758 41.8026C727.958 39.6174 728.558 37.0784 728.558 34.1854C728.558 31.2616 727.958 28.7379 726.758 26.6143C725.558 24.46 723.788 22.7981 721.449 21.6286C719.11 20.459 716.232 19.8743 712.816 19.8743H701.552V96H678.7ZM763.505 96V1.45454H786.357V77.4418H825.689V96H763.505ZM859.239 96H834.68L866.58 1.45454H897.002L928.902 96H904.342L882.137 25.2756H881.398L859.239 96ZM855.962 58.7912H907.297V76.1491H855.962V58.7912ZM924.182 20.0128V1.45454H1004.09V20.0128H975.425V96H952.896V20.0128H924.182ZM1015.25 96V1.45454H1079.79V20.0128H1038.1V39.402H1075.68V58.0064H1038.1V96H1015.25ZM1180.53 48.7273C1180.53 59.1297 1178.53 67.9472 1174.53 75.1797C1170.53 82.4122 1165.12 87.9058 1158.28 91.6605C1151.48 95.4152 1143.85 97.2926 1135.39 97.2926C1126.89 97.2926 1119.24 95.3999 1112.44 91.6143C1105.64 87.8288 1100.24 82.3352 1096.24 75.1335C1092.27 67.901 1090.28 59.099 1090.28 48.7273C1090.28 38.3248 1092.27 29.5073 1096.24 22.2749C1100.24 15.0424 1105.64 9.54877 1112.44 5.79403C1119.24 2.0393 1126.89 0.161928 1135.39 0.161928C1143.85 0.161928 1151.48 2.0393 1158.28 5.79403C1165.12 9.54877 1170.53 15.0424 1174.53 22.2749C1178.53 29.5073 1180.53 38.3248 1180.53 48.7273ZM1157.18 48.7273C1157.18 42.572 1156.3 37.3707 1154.54 33.1236C1152.82 28.8764 1150.33 25.6603 1147.07 23.4751C1143.83 21.29 1139.94 20.1974 1135.39 20.1974C1130.86 20.1974 1126.97 21.29 1123.71 23.4751C1120.44 25.6603 1117.94 28.8764 1116.18 33.1236C1114.46 37.3707 1113.6 42.572 1113.6 48.7273C1113.6 54.8826 1114.46 60.0838 1116.18 64.331C1117.94 68.5781 1120.44 71.7943 1123.71 73.9794C1126.97 76.1645 1130.86 77.2571 1135.39 77.2571C1139.94 77.2571 1143.83 76.1645 1147.07 73.9794C1150.33 71.7943 1152.82 68.5781 1154.54 64.331C1156.3 60.0838 1157.18 54.8826 1157.18 48.7273ZM1193.88 96V1.45454H1232.93C1240.01 1.45454 1246.12 2.73177 1251.26 5.28622C1256.43 7.80989 1260.42 11.4415 1263.22 16.1811C1266.02 20.8899 1267.42 26.4758 1267.42 32.9389C1267.42 39.4943 1265.99 45.0649 1263.12 49.6506C1260.26 54.2055 1256.2 57.6832 1250.94 60.0838C1245.67 62.4536 1239.44 63.6385 1232.24 63.6385H1207.54V45.6342H1227.99C1231.44 45.6342 1234.32 45.188 1236.62 44.2955C1238.96 43.3722 1240.73 41.9872 1241.93 40.1406C1243.13 38.2633 1243.73 35.8627 1243.73 32.9389C1243.73 30.0151 1243.13 27.5992 1241.93 25.6911C1240.73 23.7521 1238.96 22.3056 1236.62 21.3516C1234.29 20.3667 1231.41 19.8743 1227.99 19.8743H1216.73V96H1193.88ZM1247.1 52.7898L1270.65 96H1245.72L1222.64 52.7898H1247.1ZM1279.95 1.45454H1308.25L1332.26 59.9915H1333.36L1357.37 1.45454H1385.67V96H1363.42V37.9247H1362.63L1339.92 95.3999H1325.7L1302.99 37.6016H1302.2V96H1279.95V1.45454Z" fill="white"/>
</g>
<defs>
<filter id="filter0_i_209_36" x="0.390137" y="0.161926" width="1385.28" height="97.1307" filterUnits="userSpaceOnUse" color-interpolation-filters="sRGB">
<feFlood flood-opacity="0" result="BackgroundImageFix"/>
<feBlend mode="normal" in="SourceGraphic" in2="BackgroundImageFix" result="shape"/>
<feColorMatrix in="SourceAlpha" type="matrix" values="0 0 0 0 0 0 0 0 0 0 0 0 0 0 0 0 0 0 127 0" result="hardAlpha"/>
<feOffset/>
<feGaussianBlur stdDeviation="1.5"/>
<feComposite in2="hardAlpha" operator="arithmetic" k2="-1" k3="1"/>
<feColorMatrix type="matrix" values="0 0 0 0 0 0 0 0 0 0 0 0 0 0 0 0 0 0 0.25 0"/>
<feBlend mode="normal" in2="shape" result="effect1_innerShadow_209_36"/>
</filter>
</defs>
</svg>
