<svg width="977" height="531" viewBox="0 0 977 531" fill="none" xmlns="http://www.w3.org/2000/svg">
<g filter="url(#filter0_d_316_34)">
<ellipse cx="519.5" cy="259.5" rx="427.5" ry="235.5" fill="#EEEEEE"/>
</g>
<g filter="url(#filter1_d_316_34)">
<ellipse cx="427" cy="316.994" rx="132" ry="102.994" fill="#D9D9D9"/>
<path d="M391.814 281.065H389.6V293.485H391.814V281.065ZM374.642 287.329C374.642 285.223 376.397 283.738 378.746 283.738C381.122 283.738 382.85 285.223 382.85 287.329C382.85 289.408 381.122 290.893 378.746 290.893C376.397 290.893 374.642 289.408 374.642 287.329ZM385.01 287.329C385.01 284.116 382.364 281.929 378.746 281.929C375.128 281.929 372.509 284.116 372.509 287.329C372.509 290.515 375.128 292.675 378.746 292.675C382.364 292.675 385.01 290.515 385.01 287.329ZM378.368 303.205V300.532H391.814V294.673H376.127V296.428H389.627V298.885H376.181V304.96H392.624V303.205H378.368ZM406.257 282.847C402.504 282.847 399.777 285.142 399.777 288.544C399.777 291.919 402.504 294.241 406.257 294.241C410.037 294.241 412.737 291.919 412.737 288.544C412.737 285.142 410.037 282.847 406.257 282.847ZM406.257 284.737C408.768 284.737 410.577 286.276 410.577 288.544C410.577 290.785 408.768 292.351 406.257 292.351C403.773 292.351 401.937 290.785 401.937 288.544C401.937 286.276 403.773 284.737 406.257 284.737ZM415.923 281.065V305.338H418.137V281.065H415.923ZM398.832 300.019C403.206 300.019 409.065 299.965 414.519 298.966L414.33 297.319C409.038 298.129 402.963 298.156 398.562 298.156L398.832 300.019ZM434.92 283.657V285.493H443.803C443.29 291.217 439.969 295.861 433.786 298.966L435.001 300.694C442.831 296.779 445.99 290.542 445.99 283.657H434.92ZM456.142 290.893H452.254V281.065H450.04V305.284H452.254V292.729H456.142V290.893ZM468.992 287.032H474.527V285.25H469.019V281.497H466.778V285.25H461.189V287.032H466.805V288.895C466.805 293.134 464.132 297.211 460.541 298.912L461.783 300.586C464.564 299.236 466.859 296.482 467.939 293.107C469.046 296.293 471.341 298.912 474.122 300.181L475.337 298.453C471.746 296.887 468.992 292.945 468.992 288.895V287.032ZM477.686 281.038V305.257H479.927V281.038H477.686ZM388.394 337.468C388.394 335.065 388.711 332.853 389.344 330.833C389.976 328.813 390.9 326.95 392.115 325.244H394.742C394.269 325.876 393.828 326.653 393.419 327.573C393.009 328.494 392.652 329.504 392.345 330.603C392.038 331.696 391.798 332.831 391.626 334.007C391.453 335.177 391.367 336.331 391.367 337.468C391.367 338.99 391.517 340.53 391.817 342.09C392.118 343.649 392.524 345.097 393.035 346.433C393.546 347.769 394.115 348.859 394.742 349.703H392.115C390.9 347.996 389.976 346.133 389.344 344.113C388.711 342.093 388.394 339.878 388.394 337.468ZM415.924 334.036H412.932C412.817 333.397 412.603 332.834 412.29 332.348C411.977 331.862 411.593 331.45 411.139 331.111C410.685 330.773 410.177 330.517 409.615 330.344C409.059 330.172 408.467 330.086 407.841 330.086C406.71 330.086 405.696 330.37 404.802 330.939C403.913 331.508 403.21 332.342 402.692 333.441C402.181 334.541 401.925 335.883 401.925 337.468C401.925 339.066 402.181 340.415 402.692 341.514C403.21 342.614 403.916 343.445 404.811 344.007C405.706 344.57 406.713 344.851 407.831 344.851C408.451 344.851 409.04 344.768 409.596 344.602C410.158 344.429 410.666 344.177 411.12 343.844C411.574 343.512 411.958 343.106 412.271 342.627C412.59 342.141 412.811 341.585 412.932 340.958L415.924 340.968C415.764 341.933 415.454 342.822 414.994 343.633C414.54 344.439 413.955 345.136 413.239 345.724C412.53 346.305 411.718 346.756 410.804 347.076C409.89 347.395 408.893 347.555 407.812 347.555C406.112 347.555 404.597 347.152 403.268 346.347C401.938 345.535 400.89 344.375 400.123 342.866C399.362 341.358 398.982 339.559 398.982 337.468C398.982 335.372 399.365 333.572 400.132 332.07C400.899 330.562 401.948 329.405 403.277 328.599C404.607 327.788 406.118 327.382 407.812 327.382C408.854 327.382 409.826 327.532 410.727 327.832C411.635 328.126 412.45 328.561 413.172 329.136C413.894 329.705 414.492 330.402 414.965 331.226C415.438 332.045 415.758 332.981 415.924 334.036ZM422.616 347.286H419.471L426.537 327.65H429.96L437.027 347.286H433.882L428.33 331.217H428.177L422.616 347.286ZM423.143 339.597H433.345V342.09H423.143V339.597ZM452.034 332.809C451.932 331.901 451.51 331.198 450.768 330.699C450.027 330.194 449.094 329.942 447.969 329.942C447.163 329.942 446.467 330.07 445.879 330.325C445.29 330.574 444.833 330.92 444.507 331.361C444.188 331.795 444.028 332.291 444.028 332.847C444.028 333.313 444.137 333.716 444.354 334.055C444.578 334.394 444.869 334.678 445.227 334.908C445.591 335.132 445.981 335.321 446.396 335.474C446.812 335.621 447.211 335.742 447.595 335.838L449.512 336.337C450.139 336.49 450.781 336.698 451.44 336.96C452.098 337.222 452.708 337.567 453.271 337.996C453.833 338.424 454.287 338.954 454.632 339.587C454.984 340.22 455.16 340.978 455.16 341.86C455.16 342.972 454.872 343.959 454.297 344.822C453.728 345.685 452.9 346.366 451.814 346.865C450.733 347.363 449.426 347.612 447.892 347.612C446.422 347.612 445.15 347.379 444.076 346.913C443.002 346.446 442.162 345.784 441.554 344.928C440.947 344.065 440.611 343.042 440.548 341.86H443.52C443.577 342.569 443.807 343.16 444.21 343.633C444.619 344.1 445.14 344.448 445.773 344.679C446.412 344.902 447.112 345.014 447.873 345.014C448.71 345.014 449.455 344.883 450.107 344.621C450.765 344.353 451.283 343.982 451.66 343.509C452.037 343.029 452.226 342.47 452.226 341.831C452.226 341.249 452.06 340.773 451.727 340.402C451.401 340.032 450.957 339.725 450.394 339.482C449.838 339.239 449.209 339.025 448.506 338.839L446.185 338.207C444.613 337.778 443.366 337.149 442.446 336.318C441.532 335.487 441.075 334.387 441.075 333.019C441.075 331.888 441.382 330.9 441.995 330.057C442.609 329.213 443.44 328.558 444.488 328.091C445.537 327.618 446.719 327.382 448.036 327.382C449.365 327.382 450.538 327.615 451.555 328.082C452.577 328.548 453.383 329.191 453.971 330.009C454.559 330.821 454.866 331.754 454.891 332.809H452.034ZM465.603 337.468C465.603 339.878 465.287 342.093 464.654 344.113C464.021 346.133 463.098 347.996 461.883 349.703H459.256C459.729 349.07 460.17 348.293 460.579 347.373C460.988 346.452 461.346 345.446 461.653 344.353C461.96 343.253 462.199 342.115 462.372 340.939C462.545 339.763 462.631 338.606 462.631 337.468C462.631 335.953 462.481 334.416 462.18 332.856C461.88 331.297 461.474 329.849 460.963 328.513C460.451 327.177 459.882 326.087 459.256 325.244H461.883C463.098 326.95 464.021 328.813 464.654 330.833C465.287 332.853 465.603 335.065 465.603 337.468Z" fill="black"/>
</g>
<g filter="url(#filter2_d_316_34)">
<ellipse cx="162.5" cy="156.994" rx="132.5" ry="102.994" fill="#D9D9D9"/>
<path d="M79.2558 148.544H84.6288V146.708H71.5338V148.544H77.0688V151.622C77.0688 155.726 74.1528 160.316 70.6968 162.044L71.9928 163.799C74.7198 162.395 77.0688 159.317 78.1758 155.78C79.2828 159.02 81.5508 161.855 84.2508 163.205L85.5198 161.423C82.0098 159.776 79.2558 155.483 79.2558 151.622V148.544ZM93.7278 153.998H89.7318V144.251H87.5178V168.443H89.7318V155.861H93.7278V153.998ZM98.9907 146.843V148.625H108.09C107.631 154.376 104.391 159.02 97.8837 162.125L99.0717 163.934C107.118 159.992 110.331 153.836 110.331 146.843H98.9907ZM115.218 144.224V168.443H117.432V144.224H115.218ZM150.495 149.462V152.351H144.177V154.079H150.495V156.59H152.736V144.224H150.495V147.734H145.014C145.176 146.978 145.257 146.222 145.257 145.412H134.43V147.221H142.854C142.449 151.055 139.074 153.944 133.161 155.321L133.971 157.13C139.317 155.861 143.016 153.269 144.528 149.462H150.495ZM139.371 166.445V163.637H152.736V157.697H137.13V159.479H150.522V161.963H137.184V168.2H153.546V166.445H139.371ZM172.174 150.515V152.324H176.953V158.669H179.194V144.251H176.953V150.515H172.174ZM173.524 156.023C170.014 154.781 167.638 151.73 167.638 148.625V147.788H172.957V146.006H160.024V147.788H165.424V148.625C165.424 152.108 162.94 155.375 159.322 156.698L160.483 158.453C163.318 157.373 165.559 155.105 166.585 152.297C167.638 154.781 169.717 156.779 172.417 157.751L173.524 156.023ZM171.202 166.715C167.557 166.715 165.343 165.689 165.343 163.934C165.343 162.179 167.557 161.126 171.202 161.126C174.847 161.126 177.061 162.179 177.061 163.934C177.061 165.689 174.847 166.715 171.202 166.715ZM171.202 159.425C166.234 159.425 163.129 161.072 163.129 163.934C163.129 166.796 166.234 168.443 171.202 168.443C176.17 168.443 179.275 166.796 179.275 163.934C179.275 161.072 176.17 159.425 171.202 159.425ZM199.324 161.288H211.501V166.337H199.324V161.288ZM197.164 168.119H213.688V159.506H197.164V168.119ZM212.959 154.43C213.607 151.406 213.607 149.192 213.607 147.302V145.52H197.245V147.302H211.42C211.42 149.192 211.42 151.406 210.718 154.43H194.437V156.212H216.442V154.43H212.959ZM223.163 151.46C223.163 149.219 224.648 147.599 226.673 147.599C228.671 147.599 230.156 149.219 230.156 151.46C230.156 153.701 228.671 155.321 226.673 155.321C224.648 155.321 223.163 153.701 223.163 151.46ZM232.181 151.46C232.181 148.058 229.832 145.736 226.673 145.736C223.487 145.736 221.165 148.058 221.165 151.46C221.165 154.835 223.487 157.157 226.673 157.157C229.832 157.157 232.181 154.835 232.181 151.46ZM225.08 161.801H239.147V168.47H241.361V160.019H225.08V161.801ZM239.228 144.224V150.461H236.15V144.683H234.071V158.507H236.15V152.27H239.228V158.642H241.361V144.224H239.228Z" fill="black"/>
</g>
<g filter="url(#filter3_d_316_34)">
<ellipse cx="750.5" cy="213.994" rx="132.5" ry="102.994" fill="#D9D9D9"/>
<path d="M703.612 191.11C699.373 190.354 694.756 186.79 694.756 182.767V180.904H692.434V182.767C692.434 186.79 687.844 190.354 683.605 191.11L684.523 192.946C688.249 192.163 692.029 189.652 693.595 186.196C695.161 189.652 698.968 192.163 702.667 192.946L703.612 191.11ZM694.702 198.535V192.649H692.488V198.535H682.714V200.344H704.692V198.535H694.702ZM720.106 201.802C716.218 201.802 714.031 201.046 714.031 199.588C714.031 198.157 716.218 197.374 720.106 197.374C724.021 197.374 726.181 198.157 726.181 199.588C726.181 201.046 724.021 201.802 720.106 201.802ZM720.106 195.727C714.841 195.727 711.817 197.077 711.817 199.588C711.817 202.126 714.841 203.476 720.106 203.476C725.371 203.476 728.395 202.126 728.395 199.588C728.395 197.077 725.371 195.727 720.106 195.727ZM721.213 192.109V189.733H728.503V188.005H714.247V185.629H727.72V183.955H714.247V181.714H728.368V179.986H712.033V189.733H718.999V192.109H709.144V193.891H731.068V192.109H721.213ZM743.486 181.066C739.733 181.066 737.006 183.361 737.006 186.763C737.006 190.138 739.733 192.46 743.486 192.46C747.266 192.46 749.966 190.138 749.966 186.763C749.966 183.361 747.266 181.066 743.486 181.066ZM743.486 182.956C745.997 182.956 747.806 184.495 747.806 186.763C747.806 189.004 745.997 190.57 743.486 190.57C741.002 190.57 739.166 189.004 739.166 186.763C739.166 184.495 741.002 182.956 743.486 182.956ZM753.152 179.284V203.557H755.366V179.284H753.152ZM736.061 198.238C740.435 198.238 746.294 198.184 751.748 197.185L751.559 195.538C746.267 196.348 740.192 196.375 735.791 196.375L736.061 198.238ZM772.149 181.876V183.712H781.032C780.519 189.436 777.198 194.08 771.015 197.185L772.23 198.913C780.06 194.998 783.219 188.761 783.219 181.876H772.149ZM793.371 189.112H789.483V179.284H787.269V203.503H789.483V190.948H793.371V189.112ZM806.221 185.251H811.756V183.469H806.248V179.716H804.007V183.469H798.418V185.251H804.034V187.114C804.034 191.353 801.361 195.43 797.77 197.131L799.012 198.805C801.793 197.455 804.088 194.701 805.168 191.326C806.275 194.512 808.57 197.131 811.351 198.4L812.566 196.672C808.975 195.106 806.221 191.164 806.221 187.114V185.251ZM814.915 179.257V203.476H817.156V179.257H814.915ZM719.197 235.687C719.197 233.284 719.514 231.072 720.146 229.052C720.779 227.032 721.703 225.169 722.917 223.463H725.544C725.071 224.095 724.63 224.872 724.221 225.792C723.812 226.713 723.454 227.723 723.147 228.822C722.841 229.915 722.601 231.05 722.428 232.226C722.256 233.396 722.169 234.55 722.169 235.687C722.169 237.209 722.32 238.749 722.62 240.309C722.921 241.868 723.326 243.316 723.838 244.652C724.349 245.988 724.918 247.078 725.544 247.922H722.917C721.703 246.215 720.779 244.352 720.146 242.332C719.514 240.312 719.197 238.097 719.197 235.687ZM729.449 228.42V225.869H744.646V228.42H738.519V245.505H735.566V228.42H729.449ZM752.587 225.869V245.505H749.624V225.869H752.587ZM769.231 231.028C769.129 230.12 768.707 229.417 767.966 228.918C767.224 228.413 766.291 228.161 765.166 228.161C764.361 228.161 763.664 228.289 763.076 228.544C762.488 228.793 762.031 229.139 761.705 229.58C761.385 230.014 761.225 230.51 761.225 231.066C761.225 231.532 761.334 231.935 761.551 232.274C761.775 232.613 762.066 232.897 762.424 233.127C762.788 233.351 763.178 233.54 763.594 233.693C764.009 233.84 764.409 233.961 764.792 234.057L766.71 234.556C767.336 234.709 767.978 234.917 768.637 235.179C769.295 235.441 769.906 235.786 770.468 236.215C771.031 236.643 771.485 237.173 771.83 237.806C772.181 238.439 772.357 239.197 772.357 240.079C772.357 241.191 772.069 242.178 771.494 243.041C770.925 243.904 770.097 244.585 769.011 245.084C767.931 245.582 766.623 245.831 765.089 245.831C763.619 245.831 762.347 245.598 761.273 245.132C760.199 244.665 759.359 244.003 758.752 243.147C758.144 242.284 757.809 241.261 757.745 240.079H760.717C760.775 240.788 761.005 241.379 761.407 241.852C761.817 242.319 762.338 242.667 762.97 242.898C763.61 243.121 764.309 243.233 765.07 243.233C765.907 243.233 766.652 243.102 767.304 242.84C767.963 242.572 768.48 242.201 768.857 241.728C769.235 241.248 769.423 240.689 769.423 240.05C769.423 239.468 769.257 238.992 768.925 238.621C768.599 238.251 768.154 237.944 767.592 237.701C767.036 237.458 766.406 237.244 765.703 237.058L763.383 236.426C761.81 235.997 760.564 235.368 759.643 234.537C758.729 233.706 758.272 232.606 758.272 231.238C758.272 230.107 758.579 229.119 759.193 228.276C759.806 227.432 760.637 226.777 761.686 226.31C762.734 225.837 763.916 225.601 765.233 225.601C766.563 225.601 767.736 225.834 768.752 226.301C769.775 226.767 770.58 227.41 771.168 228.228C771.756 229.04 772.063 229.973 772.089 231.028H769.231ZM782.8 235.687C782.8 238.097 782.484 240.312 781.851 242.332C781.218 244.352 780.295 246.215 779.08 247.922H776.453C776.926 247.289 777.367 246.512 777.776 245.592C778.185 244.671 778.543 243.665 778.85 242.572C779.157 241.472 779.397 240.334 779.569 239.158C779.742 237.982 779.828 236.825 779.828 235.687C779.828 234.172 779.678 232.635 779.378 231.075C779.077 229.516 778.671 228.068 778.16 226.732C777.648 225.396 777.08 224.306 776.453 223.463H779.08C780.295 225.169 781.218 227.032 781.851 229.052C782.484 231.072 782.8 233.284 782.8 235.687Z" fill="black"/>
</g>
<defs>
<filter id="filter0_d_316_34" x="62" y="0" width="915" height="531" filterUnits="userSpaceOnUse" color-interpolation-filters="sRGB">
<feFlood flood-opacity="0" result="BackgroundImageFix"/>
<feColorMatrix in="SourceAlpha" type="matrix" values="0 0 0 0 0 0 0 0 0 0 0 0 0 0 0 0 0 0 127 0" result="hardAlpha"/>
<feOffset dy="6"/>
<feGaussianBlur stdDeviation="15"/>
<feComposite in2="hardAlpha" operator="out"/>
<feColorMatrix type="matrix" values="0 0 0 0 0 0 0 0 0 0 0 0 0 0 0 0 0 0 0.25 0"/>
<feBlend mode="normal" in2="BackgroundImageFix" result="effect1_dropShadow_316_34"/>
<feBlend mode="normal" in="SourceGraphic" in2="effect1_dropShadow_316_34" result="shape"/>
</filter>
<filter id="filter1_d_316_34" x="265" y="190" width="324" height="265.988" filterUnits="userSpaceOnUse" color-interpolation-filters="sRGB">
<feFlood flood-opacity="0" result="BackgroundImageFix"/>
<feColorMatrix in="SourceAlpha" type="matrix" values="0 0 0 0 0 0 0 0 0 0 0 0 0 0 0 0 0 0 127 0" result="hardAlpha"/>
<feOffset dy="6"/>
<feGaussianBlur stdDeviation="15"/>
<feComposite in2="hardAlpha" operator="out"/>
<feColorMatrix type="matrix" values="0 0 0 0 0 0 0 0 0 0 0 0 0 0 0 0 0 0 0.25 0"/>
<feBlend mode="normal" in2="BackgroundImageFix" result="effect1_dropShadow_316_34"/>
<feBlend mode="normal" in="SourceGraphic" in2="effect1_dropShadow_316_34" result="shape"/>
</filter>
<filter id="filter2_d_316_34" x="0" y="30" width="325" height="265.988" filterUnits="userSpaceOnUse" color-interpolation-filters="sRGB">
<feFlood flood-opacity="0" result="BackgroundImageFix"/>
<feColorMatrix in="SourceAlpha" type="matrix" values="0 0 0 0 0 0 0 0 0 0 0 0 0 0 0 0 0 0 127 0" result="hardAlpha"/>
<feOffset dy="6"/>
<feGaussianBlur stdDeviation="15"/>
<feComposite in2="hardAlpha" operator="out"/>
<feColorMatrix type="matrix" values="0 0 0 0 0 0 0 0 0 0 0 0 0 0 0 0 0 0 0.25 0"/>
<feBlend mode="normal" in2="BackgroundImageFix" result="effect1_dropShadow_316_34"/>
<feBlend mode="normal" in="SourceGraphic" in2="effect1_dropShadow_316_34" result="shape"/>
</filter>
<filter id="filter3_d_316_34" x="588" y="87" width="325" height="265.988" filterUnits="userSpaceOnUse" color-interpolation-filters="sRGB">
<feFlood flood-opacity="0" result="BackgroundImageFix"/>
<feColorMatrix in="SourceAlpha" type="matrix" values="0 0 0 0 0 0 0 0 0 0 0 0 0 0 0 0 0 0 127 0" result="hardAlpha"/>
<feOffset dy="6"/>
<feGaussianBlur stdDeviation="15"/>
<feComposite in2="hardAlpha" operator="out"/>
<feColorMatrix type="matrix" values="0 0 0 0 0 0 0 0 0 0 0 0 0 0 0 0 0 0 0.25 0"/>
<feBlend mode="normal" in2="BackgroundImageFix" result="effect1_dropShadow_316_34"/>
<feBlend mode="normal" in="SourceGraphic" in2="effect1_dropShadow_316_34" result="shape"/>
</filter>
</defs>
</svg>
