<svg width="861" height="546" viewBox="0 0 861 546" fill="none" xmlns="http://www.w3.org/2000/svg">
<g filter="url(#filter0_d_316_33)">
<rect x="17" y="13" width="139.029" height="438" rx="15" fill="#F4F4E5"/>
<path d="M75.6076 117.79V119.8H83.6776C83.3176 125.38 80.7676 130.24 74.5876 133.69L76.0276 135.46C83.6776 131.14 86.1076 124.72 86.1076 117.79H75.6076ZM95.0476 114.31V125.14H91.3876V115.03H89.0776V139.87H91.3876V127.15H95.0476V141.22H97.4176V114.31H95.0476ZM96.6676 183.34H94.2076V202.99H96.6676V183.34ZM77.6176 191.8C77.6176 189.19 79.5976 187.33 82.2076 187.33C84.8776 187.33 86.8576 189.19 86.8576 191.8C86.8576 194.47 84.8776 196.33 82.2076 196.33C79.5976 196.33 77.6176 194.47 77.6176 191.8ZM89.2576 191.8C89.2576 187.93 86.2276 185.2 82.2076 185.2C78.2176 185.2 75.2176 187.93 75.2176 191.8C75.2176 195.7 78.2176 198.46 82.2076 198.46C86.2276 198.46 89.2576 195.7 89.2576 191.8ZM81.8176 207.61V200.98H79.3576V209.62H97.4776V207.61H81.8176ZM94.2676 268.24H96.7576V252.34H94.2676V258.04H88.4176V260.05H94.2676V268.24ZM90.3676 265.06C86.4376 263.68 83.8276 260.35 83.8276 256.51V253.84H81.3676V256.6C81.3676 260.71 78.6976 264.31 74.5576 265.78L75.8476 267.79C79.0876 266.56 81.5176 264.13 82.6576 260.95C83.8276 263.74 86.1076 265.87 89.0476 266.98L90.3676 265.06ZM87.8776 277.24C83.8276 277.24 81.3676 276.07 81.3676 274.12C81.3676 272.14 83.8276 270.97 87.8776 270.97C91.9276 270.97 94.3876 272.14 94.3876 274.12C94.3876 276.07 91.9276 277.24 87.8776 277.24ZM87.8776 269.05C82.3576 269.05 78.9076 270.88 78.9076 274.12C78.9076 277.33 82.3576 279.19 87.8776 279.19C93.3976 279.19 96.8476 277.33 96.8476 274.12C96.8476 270.88 93.3976 269.05 87.8776 269.05ZM88.6276 336.4C89.3776 331.39 89.3776 327.88 89.3776 325.72V324.25H75.7876V326.26H86.9776C86.9776 328.42 86.9176 331.69 86.1676 336.16L88.6276 336.4ZM82.4476 331.93H80.0176V340.21C78.0076 340.27 76.0276 340.3 74.3176 340.3L74.5876 342.34C79.3576 342.34 85.6876 342.22 91.2676 341.32L91.1176 339.52C88.3876 339.85 85.3876 340.03 82.4476 340.15V331.93ZM99.5176 332.56H95.2276V321.31H92.7676V348.22H95.2276V334.63H99.5176V332.56Z" fill="black"/>
<path d="M192 392C192 383.716 198.716 377 207 377H817C825.284 377 832 383.716 832 392V436C832 444.284 825.284 451 817 451H207C198.716 451 192 444.284 192 436V392Z" fill="#EBEEF8"/>
<path d="M192 28C192 19.7157 198.716 13 207 13H817C825.284 13 832 19.7157 832 28V214C832 222.284 825.284 229 817 229H207C198.716 229 192 222.284 192 214V28Z" fill="#F8E8E8"/>
<rect x="192" y="254" width="640" height="97" rx="15" fill="#F8E8E8"/>
<path d="M263.858 412.795C263.858 410.111 264.206 407.643 264.902 405.391C265.605 403.133 266.607 401.055 267.906 399.159H270.122C269.611 399.862 269.132 400.729 268.684 401.759C268.244 402.781 267.857 403.907 267.523 405.136C267.189 406.357 266.926 407.621 266.735 408.928C266.55 410.235 266.458 411.524 266.458 412.795C266.458 414.486 266.621 416.201 266.948 417.941C267.274 419.681 267.715 421.297 268.269 422.788C268.823 424.28 269.441 425.494 270.122 426.432H267.906C266.607 424.536 265.605 422.462 264.902 420.21C264.206 417.952 263.858 415.48 263.858 412.795ZM283.207 411.474V413.818H273.662V411.474H283.207ZM293.001 412.795C293.001 415.48 292.649 417.952 291.946 420.21C291.25 422.462 290.252 424.536 288.952 426.432H286.736C287.248 425.729 287.724 424.862 288.164 423.832C288.611 422.81 289.002 421.687 289.336 420.466C289.67 419.237 289.929 417.969 290.113 416.663C290.305 415.349 290.401 414.06 290.401 412.795C290.401 411.105 290.238 409.39 289.911 407.65C289.584 405.91 289.144 404.294 288.59 402.803C288.036 401.311 287.418 400.097 286.736 399.159H288.952C290.252 401.055 291.25 403.133 291.946 405.391C292.649 407.643 293.001 410.111 293.001 412.795ZM324.677 397.22V413.12H327.167V397.22H324.677ZM326.477 404.06V406.16H331.187V404.06H326.477ZM317.177 398.96V400.04C317.177 405.05 313.097 408.98 306.077 410.9L307.097 412.85C315.017 410.69 319.787 405.8 319.787 398.96H317.177ZM307.277 398.96V400.97H318.557V398.96H307.277ZM309.557 414.38V416.39H324.677V424.34H327.167V414.38H309.557ZM355.702 406.4V408.44H363.262V406.4H355.702ZM349.162 399.56V404.39C349.162 409.43 346.102 414.65 342.112 416.63L343.702 418.61C347.992 416.3 351.202 410.48 351.202 404.39V399.56H349.162ZM349.642 399.56V404.39C349.642 410.33 352.792 415.91 357.172 418.13L358.642 416.12C354.712 414.26 351.652 409.34 351.652 404.39V399.56H349.642ZM362.032 397.19V424.37H364.492V397.19H362.032ZM389.45 397.19V424.37H391.94V397.19H389.45ZM371.3 399.5V417.83H384.08V399.5H381.59V406.67H373.76V399.5H371.3ZM373.76 408.65H381.59V415.79H373.76V408.65ZM408.227 399.08V401.15C408.227 405.77 403.127 409.91 398.357 410.81L399.467 412.88C404.897 411.65 410.387 407.06 410.387 401.15V399.08H408.227ZM408.677 399.08V401.15C408.677 407.09 414.197 411.65 419.597 412.88L420.707 410.81C415.967 409.91 410.837 405.8 410.837 401.15V399.08H408.677ZM397.367 418.64V420.68H421.937V418.64H397.367ZM453.082 397.19V424.37H455.572V397.19H453.082ZM441.262 399.29C437.272 399.29 434.392 402.98 434.392 408.74C434.392 414.53 437.272 418.22 441.262 418.22C445.282 418.22 448.162 414.53 448.162 408.74C448.162 402.98 445.282 399.29 441.262 399.29ZM441.262 401.54C443.932 401.54 445.762 404.36 445.762 408.74C445.762 413.15 443.932 416.03 441.262 416.03C438.622 416.03 436.762 413.15 436.762 408.74C436.762 404.36 438.622 401.54 441.262 401.54ZM467.03 406.4V411.53H469.49V406.4H467.03ZM476.99 406.4V411.53H479.45V406.4H476.99ZM460.97 410.63V412.64H485.48V410.63H460.97ZM473.21 414.68C467.39 414.68 463.91 416.39 463.91 419.48C463.91 422.57 467.39 424.31 473.21 424.31C479.03 424.31 482.51 422.57 482.51 419.48C482.51 416.39 479.03 414.68 473.21 414.68ZM473.21 416.6C477.47 416.6 479.99 417.65 479.99 419.48C479.99 421.34 477.47 422.36 473.21 422.36C468.98 422.36 466.43 421.34 466.43 419.48C466.43 417.65 468.98 416.6 473.21 416.6ZM473.24 397.7C467.33 397.7 463.7 399.59 463.7 402.77C463.7 405.92 467.33 407.78 473.24 407.78C479.12 407.78 482.78 405.92 482.78 402.77C482.78 399.59 479.12 397.7 473.24 397.7ZM473.24 399.65C477.56 399.65 480.23 400.79 480.23 402.77C480.23 404.72 477.56 405.86 473.24 405.86C468.92 405.86 466.25 404.72 466.25 402.77C466.25 400.79 468.92 399.65 473.24 399.65ZM495.438 413.12V419.78H497.898V413.12H495.438ZM504.108 413.06V419.75H506.538V413.06H504.108ZM488.598 418.94V421.01H513.168V418.94H488.598ZM491.568 399.23V401.24H507.678V405.44H491.658V412.88H494.118V407.42H510.138V399.23H491.568ZM491.658 411.77V413.81H510.768V411.77H491.658ZM526.329 412.795C526.329 410.111 526.677 407.643 527.373 405.391C528.076 403.133 529.077 401.055 530.377 399.159H532.593C532.082 399.862 531.602 400.729 531.155 401.759C530.714 402.781 530.327 403.907 529.994 405.136C529.66 406.357 529.397 407.621 529.205 408.928C529.021 410.235 528.928 411.524 528.928 412.795C528.928 414.486 529.092 416.201 529.418 417.941C529.745 419.681 530.185 421.297 530.739 422.788C531.293 424.28 531.911 425.494 532.593 426.432H530.377C529.077 424.536 528.076 422.462 527.373 420.21C526.677 417.952 526.329 415.48 526.329 412.795ZM546.482 407.75V409.82H551.612V407.75H546.482ZM556.142 397.22V424.34H558.542V397.22H556.142ZM550.772 397.79V422.99H553.142V397.79H550.772ZM541.592 399.47C538.082 399.47 535.832 403.1 535.832 408.92C535.832 414.74 538.082 418.37 541.592 418.37C545.102 418.37 547.382 414.74 547.382 408.92C547.382 403.1 545.102 399.47 541.592 399.47ZM541.592 401.78C543.752 401.78 545.102 404.54 545.102 408.92C545.102 413.3 543.752 416.06 541.592 416.06C539.462 416.06 538.112 413.3 538.112 408.92C538.112 404.54 539.462 401.78 541.592 401.78ZM582.78 397.19V424.37H585.27V397.19H582.78ZM570.96 399.29C566.97 399.29 564.09 402.98 564.09 408.74C564.09 414.53 566.97 418.22 570.96 418.22C574.98 418.22 577.86 414.53 577.86 408.74C577.86 402.98 574.98 399.29 570.96 399.29ZM570.96 401.54C573.63 401.54 575.46 404.36 575.46 408.74C575.46 413.15 573.63 416.03 570.96 416.03C568.32 416.03 566.46 413.15 566.46 408.74C566.46 404.36 568.32 401.54 570.96 401.54ZM605.067 404.69V406.73H611.907V404.69H605.067ZM610.497 397.25V417.11H612.987V397.25H610.497ZM595.677 421.7V423.74H613.737V421.7H595.677ZM595.677 415.37V422.75H598.167V415.37H595.677ZM597.597 400.61V402.8C597.597 406.64 594.807 410.24 590.757 411.68L592.047 413.66C596.577 411.98 599.637 407.72 599.637 402.8V400.61H597.597ZM598.077 400.61V402.77C598.077 407.36 600.987 411.44 605.397 413.03L606.657 411.08C602.727 409.7 600.087 406.28 600.087 402.77V400.61H598.077ZM591.537 399.44V401.45H606.027V399.44H591.537ZM621.445 411.83V413.84H640.075V411.83H621.445ZM618.295 418.79V420.86H642.865V418.79H618.295ZM621.445 399.53V412.46H623.965V401.57H639.775V399.53H621.445ZM623.155 405.59V407.57H639.205V405.59H623.155ZM650.444 419.017L650.273 420.168C650.153 420.977 649.968 421.844 649.719 422.767C649.478 423.69 649.226 424.56 648.963 425.377C648.7 426.194 648.483 426.844 648.313 427.327H646.395C646.488 426.872 646.608 426.272 646.758 425.526C646.907 424.781 647.056 423.946 647.205 423.023C647.361 422.107 647.489 421.169 647.589 420.21L647.716 419.017H650.444ZM662.708 411.47V413.51H687.218V411.47H662.708ZM665.888 421.7V423.74H684.518V421.7H665.888ZM665.888 415.88V422.33H668.378V415.88H665.888ZM674.978 398.12C669.158 398.12 665.438 400.16 665.438 403.55C665.438 406.91 669.158 408.95 674.978 408.95C680.768 408.95 684.518 406.91 684.518 403.55C684.518 400.16 680.768 398.12 674.978 398.12ZM674.978 400.16C679.238 400.16 681.968 401.42 681.968 403.55C681.968 405.68 679.238 406.94 674.978 406.94C670.718 406.94 667.988 405.68 667.988 403.55C667.988 401.42 670.718 400.16 674.978 400.16ZM710.796 397.22V414.38H713.166V397.22H710.796ZM706.386 404.57V406.64H711.516V404.57H706.386ZM705.006 397.76V413.42H707.346V397.76H705.006ZM690.186 400.46V402.44H703.926V400.46H690.186ZM697.086 403.82C693.666 403.82 691.296 405.68 691.296 408.47C691.296 411.29 693.666 413.12 697.086 413.12C700.476 413.12 702.846 411.29 702.846 408.47C702.846 405.68 700.476 403.82 697.086 403.82ZM697.086 405.68C699.186 405.68 700.626 406.79 700.626 408.47C700.626 410.18 699.186 411.26 697.086 411.26C694.956 411.26 693.516 410.18 693.516 408.47C693.516 406.79 694.956 405.68 697.086 405.68ZM695.856 397.43V401.57H698.286V397.43H695.856ZM704.286 414.86C698.586 414.86 695.226 416.54 695.226 419.57C695.226 422.57 698.586 424.28 704.286 424.28C709.926 424.28 713.316 422.57 713.316 419.57C713.316 416.54 709.926 414.86 704.286 414.86ZM704.286 416.78C708.396 416.78 710.856 417.77 710.856 419.57C710.856 421.37 708.396 422.39 704.286 422.39C700.116 422.39 697.686 421.37 697.686 419.57C697.686 417.77 700.116 416.78 704.286 416.78ZM726.371 410.12V412.19H750.881V410.12H726.371ZM729.461 405.53V407.54H748.031V405.53H729.461ZM729.461 398.3V406.49H731.921V400.34H747.821V398.3H729.461ZM738.581 414.53C732.791 414.53 729.281 416.3 729.281 419.42C729.281 422.54 732.791 424.28 738.581 424.28C744.371 424.28 747.881 422.54 747.881 419.42C747.881 416.3 744.371 414.53 738.581 414.53ZM738.581 416.45C742.841 416.45 745.361 417.53 745.361 419.42C745.361 421.28 742.841 422.33 738.581 422.33C734.351 422.33 731.801 421.28 731.801 419.42C731.801 417.53 734.351 416.45 738.581 416.45ZM760.139 412.795C760.139 415.48 759.788 417.952 759.085 420.21C758.388 422.462 757.391 424.536 756.091 426.432H753.875C754.386 425.729 754.862 424.862 755.303 423.832C755.75 422.81 756.141 421.687 756.474 420.466C756.808 419.237 757.067 417.969 757.252 416.663C757.444 415.349 757.54 414.06 757.54 412.795C757.54 411.105 757.376 409.39 757.05 407.65C756.723 405.91 756.283 404.294 755.729 402.803C755.175 401.311 754.557 400.097 753.875 399.159H756.091C757.391 401.055 758.388 403.133 759.085 405.391C759.788 407.643 760.139 410.111 760.139 412.795Z" fill="black"/>
<path d="M381.99 127.795C381.99 125.111 382.338 122.643 383.034 120.391C383.737 118.133 384.739 116.055 386.038 114.159H388.254C387.743 114.862 387.263 115.729 386.816 116.759C386.376 117.781 385.989 118.907 385.655 120.136C385.321 121.357 385.058 122.621 384.866 123.928C384.682 125.235 384.589 126.524 384.589 127.795C384.589 129.486 384.753 131.201 385.079 132.941C385.406 134.681 385.847 136.297 386.4 137.788C386.954 139.28 387.572 140.494 388.254 141.432H386.038C384.739 139.536 383.737 137.462 383.034 135.21C382.338 132.952 381.99 130.48 381.99 127.795ZM398.356 135.509V121.446H400.743V135.509H398.356ZM392.518 129.67V127.284H406.581V129.67H392.518ZM417.109 127.795C417.109 130.48 416.757 132.952 416.054 135.21C415.358 137.462 414.36 139.536 413.061 141.432H410.845C411.356 140.729 411.832 139.862 412.272 138.832C412.72 137.81 413.11 136.687 413.444 135.466C413.778 134.237 414.037 132.969 414.222 131.663C414.414 130.349 414.509 129.06 414.509 127.795C414.509 126.105 414.346 124.39 414.019 122.65C413.693 120.91 413.252 119.294 412.698 117.803C412.144 116.311 411.527 115.097 410.845 114.159H413.061C414.36 116.055 415.358 118.133 416.054 120.391C416.757 122.643 417.109 125.111 417.109 127.795ZM436.935 116.09V120.5C436.935 125.09 433.665 130.25 429.795 132.14L431.235 134.12C435.465 131.96 438.915 126.14 438.915 120.5V116.09H436.935ZM437.385 116.09V120.5C437.385 125.87 440.655 131.33 444.945 133.46L446.355 131.48C442.425 129.62 439.365 124.79 439.365 120.5V116.09H437.385ZM430.755 114.98V117.08H445.365V114.98H430.755ZM448.575 112.22V139.34H451.095V112.22H448.575ZM450.495 123.17V125.27H455.535V123.17H450.495ZM477.583 112.22V139.34H480.073V112.22H477.583ZM469.633 115.13V115.55C469.633 122.75 466.003 128.51 458.173 132.29L459.493 134.3C468.553 129.86 472.093 122.99 472.093 115.13H469.633ZM459.403 115.13V117.17H470.713V115.13H459.403ZM513.678 112.22V126.05H516.168V112.22H513.678ZM505.098 113.54V114.77C505.098 119.45 501.318 123.02 494.298 124.64L495.168 126.68C503.088 124.76 507.798 120.38 507.798 113.54H505.098ZM495.708 113.54V115.58H506.238V113.54H495.708ZM506.838 116.12V118.1H514.098V116.12H506.838ZM506.598 121.31V123.26H513.948V121.31H506.598ZM498.708 127.31V129.32H513.708V132.05H498.798V138.29H501.258V133.97H516.168V127.31H498.708ZM498.798 137.09V139.07H517.068V137.09H498.798ZM535.936 119.24V121.31H542.056V119.24H535.936ZM541.276 112.22V128.39H543.766V112.22H541.276ZM534.856 129.2C529.246 129.2 525.796 131.09 525.796 134.27C525.796 137.48 529.246 139.31 534.856 139.31C540.436 139.31 543.886 137.48 543.886 134.27C543.886 131.09 540.436 129.2 534.856 129.2ZM534.856 131.15C538.936 131.15 541.426 132.29 541.426 134.27C541.426 136.22 538.936 137.36 534.856 137.36C530.776 137.36 528.286 136.22 528.286 134.27C528.286 132.29 530.776 131.15 534.856 131.15ZM528.376 114.95V117.14C528.376 121.04 525.586 124.67 521.566 126.14L522.856 128.12C527.356 126.44 530.416 122.15 530.416 117.14V114.95H528.376ZM528.856 114.95V117.14C528.856 121.7 531.766 125.78 536.176 127.37L537.436 125.39C533.506 124.01 530.866 120.65 530.866 117.14V114.95H528.856ZM522.316 114.2V116.24H536.806V114.2H522.316ZM560.631 113.63V115.67H578.091V113.63H560.631ZM557.511 123.62V125.66H582.081V123.62H557.511ZM576.471 113.63V115.64C576.471 117.89 576.471 120.5 575.571 124.22L578.001 124.34C578.901 120.59 578.901 117.95 578.901 115.64V113.63H576.471ZM560.511 129.35V138.98H578.991V129.35H560.511ZM576.561 131.33V136.97H562.941V131.33H576.561ZM591.528 113.93C587.928 113.93 585.348 116.54 585.348 120.35C585.348 124.1 587.928 126.71 591.528 126.71C595.068 126.71 597.678 124.1 597.678 120.35C597.678 116.54 595.068 113.93 591.528 113.93ZM591.528 116.03C593.748 116.03 595.428 117.83 595.428 120.35C595.428 122.84 593.748 124.64 591.528 124.64C589.278 124.64 587.628 122.84 587.628 120.35C587.628 117.83 589.278 116.03 591.528 116.03ZM605.568 112.25V128.36H607.938V112.25H605.568ZM601.188 119.18V121.25H606.318V119.18H601.188ZM599.778 112.73V128.21H602.148V112.73H599.778ZM589.758 129.86V131.9H605.478V139.34H607.938V129.86H589.758Z" fill="black"/>
<path d="M413.806 301.795C413.806 299.111 414.154 296.643 414.85 294.391C415.554 292.133 416.555 290.055 417.855 288.159H420.071C419.559 288.862 419.08 289.729 418.632 290.759C418.192 291.781 417.805 292.907 417.471 294.136C417.137 295.357 416.875 296.621 416.683 297.928C416.498 299.235 416.406 300.524 416.406 301.795C416.406 303.486 416.569 305.201 416.896 306.941C417.223 308.681 417.663 310.297 418.217 311.788C418.771 313.28 419.389 314.494 420.071 315.432H417.855C416.555 313.536 415.554 311.462 414.85 309.21C414.154 306.952 413.806 304.48 413.806 301.795ZM430.173 309.509V295.446H432.559V309.509H430.173ZM424.335 303.67V301.284H438.397V303.67H424.335ZM448.925 301.795C448.925 304.48 448.574 306.952 447.871 309.21C447.175 311.462 446.177 313.536 444.877 315.432H442.661C443.172 314.729 443.648 313.862 444.089 312.832C444.536 311.81 444.927 310.687 445.261 309.466C445.594 308.237 445.854 306.969 446.038 305.663C446.23 304.349 446.326 303.06 446.326 301.795C446.326 300.105 446.163 298.39 445.836 296.65C445.509 294.91 445.069 293.294 444.515 291.803C443.961 290.311 443.343 289.097 442.661 288.159H444.877C446.177 290.055 447.175 292.133 447.871 294.391C448.574 296.643 448.925 299.111 448.925 301.795ZM473.072 303.47V313.37H475.532V303.47H473.072ZM462.062 302.6V304.67H486.572V302.6H462.062ZM473.042 290.87V291.56C473.042 294.95 468.482 297.92 463.592 298.58L464.462 300.56C470.162 299.69 475.232 296.24 475.232 291.56V290.87H473.042ZM473.372 290.87V291.56C473.372 296.18 478.412 299.72 484.082 300.56L484.982 298.58C480.122 297.92 475.532 294.92 475.532 291.56V290.87H473.372ZM464.432 289.55V291.59H484.202V289.55H464.432ZM473.072 286.22V290.27H475.532V286.22H473.072ZM507.989 286.19V313.34H510.509V286.19H507.989ZM509.819 297.2V299.27H514.829V297.2H509.819ZM501.059 289.13V289.52C501.059 296.69 497.309 302.48 489.809 306.29L491.189 308.21C499.949 303.8 503.489 296.84 503.489 289.13H501.059ZM491.069 289.13V291.17H502.349V289.13H491.069ZM532.504 287.75V290.54C532.504 294.68 529.804 298.31 525.664 299.78L526.954 301.82C531.604 300.08 534.574 295.79 534.574 290.54V287.75H532.504ZM532.954 287.75V290.45C532.954 295.37 535.864 299.36 540.244 301.01L541.594 299.06C537.634 297.68 534.994 294.29 534.994 290.45V287.75H532.954ZM545.494 286.22V302.27H547.984V286.22H545.494ZM539.074 303.05C533.464 303.05 530.014 304.94 530.014 308.18C530.014 311.42 533.464 313.28 539.074 313.28C544.654 313.28 548.104 311.42 548.104 308.18C548.104 304.94 544.654 303.05 539.074 303.05ZM539.074 305.03C543.154 305.03 545.644 306.2 545.644 308.18C545.644 310.16 543.154 311.33 539.074 311.33C534.994 311.33 532.504 310.16 532.504 308.18C532.504 306.2 534.994 305.03 539.074 305.03ZM539.614 291.95V294.02H546.034V291.95H539.614ZM554.492 289.19V291.2H566.762V289.19H554.492ZM558.722 296.93V306.11H561.182V296.93H558.722ZM565.742 289.19V290.63C565.742 292.82 565.742 296.3 564.932 301.19L567.392 301.43C568.172 296.39 568.172 292.85 568.172 290.63V289.19H565.742ZM571.592 286.22V313.34H574.052V286.22H571.592ZM573.392 297.56V299.66H578.402V297.56H573.392ZM553.292 307.43C558.092 307.4 564.452 307.28 570.062 306.38L569.942 304.55C564.452 305.24 557.912 305.33 552.992 305.33L553.292 307.43Z" fill="black"/>
</g>
<path d="M635.445 524.682L635.576 521.088L632.538 523.016L631.753 521.643L634.955 519.977L631.753 518.311L632.538 516.939L635.576 518.866L635.445 515.273H637.013L636.883 518.866L639.921 516.939L640.705 518.311L637.503 519.977L640.705 521.643L639.921 523.016L636.883 521.088L637.013 524.682H635.445ZM651.294 513.968C648.212 513.968 646.004 515.693 646.004 518.246C646.004 520.776 648.212 522.547 651.294 522.547C654.399 522.547 656.607 520.776 656.607 518.246C656.607 515.693 654.399 513.968 651.294 513.968ZM651.294 515.555C653.318 515.555 654.767 516.659 654.767 518.246C654.767 519.856 653.318 520.937 651.294 520.937C649.27 520.937 647.821 519.856 647.821 518.246C647.821 516.659 649.27 515.555 651.294 515.555ZM650.443 524.847V533.15H652.352V524.847H650.443ZM659.643 513.002V533.817H661.529V513.002H659.643ZM644.716 525.882C648.511 525.882 653.617 525.813 658.309 524.962L658.171 523.536C653.594 524.226 648.327 524.272 644.463 524.272L644.716 525.882ZM676.92 515.21V516.751H690.306V515.21H676.92ZM674.896 529.171V530.758H693.687V529.171H674.896ZM689.294 515.21V517.28C689.294 519.856 689.294 522.961 688.466 527.216L690.375 527.4C691.157 522.915 691.157 519.948 691.157 517.28V515.21H689.294ZM712.545 513.002V525.33H714.477V513.002H712.545ZM698.492 522.777V524.364H700.171C704.035 524.364 706.841 524.249 710.268 523.674L710.061 522.133C706.726 522.662 703.943 522.777 700.171 522.777H698.492ZM698.446 514.244V515.808H706.013V518.453H698.492V523.72H700.355V519.925H707.876V514.244H698.446ZM701.045 526.48V533.518H714.477V526.48H701.045ZM712.591 527.998V531.977H702.908V527.998H712.591ZM719.95 523.927V525.491H738.741V523.927H719.95ZM722.388 531.77V533.334H736.671V531.77H722.388ZM722.388 527.308V532.253H724.297V527.308H722.388ZM729.357 513.692C724.895 513.692 722.043 515.256 722.043 517.855C722.043 520.431 724.895 521.995 729.357 521.995C733.796 521.995 736.671 520.431 736.671 517.855C736.671 515.256 733.796 513.692 729.357 513.692ZM729.357 515.256C732.623 515.256 734.716 516.222 734.716 517.855C734.716 519.488 732.623 520.454 729.357 520.454C726.091 520.454 723.998 519.488 723.998 517.855C723.998 516.222 726.091 515.256 729.357 515.256ZM758.64 518.016V519.603H762.688V518.016H758.64ZM758.64 524.341V525.928H762.688V524.341H758.64ZM766.184 513.002V533.794H768.024V513.002H766.184ZM762.113 513.439V532.759H763.907V513.439H762.113ZM755.029 514.727C752.338 514.727 750.613 517.51 750.613 521.972C750.613 526.434 752.338 529.217 755.029 529.217C757.72 529.217 759.468 526.434 759.468 521.972C759.468 517.51 757.72 514.727 755.029 514.727ZM755.029 516.498C756.685 516.498 757.72 518.614 757.72 521.972C757.72 525.33 756.685 527.446 755.029 527.446C753.396 527.446 752.338 525.33 752.338 521.972C752.338 518.614 753.396 516.498 755.029 516.498ZM778.372 514.796V518.522C778.372 522.455 775.865 526.434 772.783 527.906L773.956 529.47C777.36 527.745 779.936 523.306 779.936 518.522V514.796H778.372ZM778.694 514.796V518.522C778.694 523.145 781.293 527.423 784.674 529.079L785.824 527.561C782.742 526.135 780.258 522.317 780.258 518.522V514.796H778.694ZM787.986 512.979V533.817H789.895V512.979H787.986ZM810.547 513.002V524.157H812.479V513.002H810.547ZM799.07 525.192V533.518H812.479V525.192H810.593V527.722H800.956V525.192H799.07ZM800.956 529.24H810.593V531.977H800.956V529.24ZM801.324 513.991C798.173 513.991 795.896 515.946 795.896 518.775C795.896 521.627 798.173 523.582 801.324 523.582C804.475 523.582 806.729 521.627 806.729 518.775C806.729 515.946 804.475 513.991 801.324 513.991ZM801.324 515.578C803.394 515.578 804.889 516.889 804.889 518.775C804.889 520.661 803.394 521.972 801.324 521.972C799.254 521.972 797.759 520.661 797.759 518.775C797.759 516.889 799.254 515.578 801.324 515.578ZM833.085 513.002V533.794H834.994V513.002H833.085ZM819.285 515.026V527.906H821.171V515.026H819.285ZM819.285 526.779V528.435H820.987C824.276 528.435 827.565 528.182 831.176 527.446L830.946 525.813C827.427 526.549 824.138 526.779 820.987 526.779H819.285ZM854.565 512.979V533.817H856.497V512.979H854.565ZM856.037 521.19V522.8H859.901V521.19H856.037ZM841.386 527.032V528.642H843.019C846.929 528.642 849.666 528.527 852.863 527.929L852.656 526.319C849.551 526.894 846.86 527.032 843.019 527.032H841.386ZM841.386 515.003V527.745H843.272V516.567H851.046V515.003H841.386Z" fill="#A5A4A4"/>
<defs>
<filter id="filter0_d_316_33" x="0" y="0" width="849" height="472" filterUnits="userSpaceOnUse" color-interpolation-filters="sRGB">
<feFlood flood-opacity="0" result="BackgroundImageFix"/>
<feColorMatrix in="SourceAlpha" type="matrix" values="0 0 0 0 0 0 0 0 0 0 0 0 0 0 0 0 0 0 127 0" result="hardAlpha"/>
<feOffset dy="4"/>
<feGaussianBlur stdDeviation="8.5"/>
<feComposite in2="hardAlpha" operator="out"/>
<feColorMatrix type="matrix" values="0 0 0 0 0 0 0 0 0 0 0 0 0 0 0 0 0 0 0.25 0"/>
<feBlend mode="normal" in2="BackgroundImageFix" result="effect1_dropShadow_316_33"/>
<feBlend mode="normal" in="SourceGraphic" in2="effect1_dropShadow_316_33" result="shape"/>
</filter>
</defs>
</svg>
