<svg width="647" height="571" viewBox="0 0 647 571" fill="none" xmlns="http://www.w3.org/2000/svg">
<path d="M383.949 351.179C378.673 349.766 390.199 337.444 390.199 337.444L393.994 343.736L397.983 348.97L383.949 351.179Z" fill="#313131"/>
<path d="M383.949 351.984C383.859 351.996 383.768 351.996 383.677 351.984C383.231 351.879 382.82 351.673 382.49 351.388C382.16 351.102 381.918 350.748 381.785 350.357C380.549 346.751 387.983 338.58 389.487 336.958C389.584 336.853 389.707 336.773 389.85 336.722C389.989 336.67 390.144 336.65 390.296 336.664C390.448 336.676 390.597 336.719 390.726 336.793C390.856 336.867 390.963 336.97 391.037 337.09L394.809 343.351L398.775 348.584C398.859 348.695 398.911 348.827 398.924 348.961C398.937 349.098 398.914 349.232 398.853 349.358C398.795 349.483 398.701 349.592 398.581 349.678C398.461 349.763 398.319 349.82 398.167 349.846L384.098 351.984H383.949ZM390.044 338.903C386.877 342.46 382.882 347.87 383.558 349.832C383.59 349.937 383.648 350.037 383.729 350.117C383.813 350.2 383.917 350.263 384.033 350.303L396.417 348.341L393.224 344.147L393.172 344.076L390.044 338.903Z" fill="#313131"/>
<path d="M588.786 414.575C594.716 414.403 598.85 418.183 598.85 418.183C599.792 420.676 590.578 422.843 587.622 423.254C584.665 423.665 585.318 412.219 585.318 412.219L588.786 414.575Z" fill="#313131"/>
<path d="M587.466 424.079C586.994 424.076 586.538 423.919 586.192 423.633C583.966 421.855 584.302 413.775 584.396 412.173C584.406 412.025 584.458 411.879 584.551 411.757C584.649 411.634 584.778 411.537 584.93 411.474C585.085 411.411 585.257 411.388 585.425 411.405C585.593 411.423 585.752 411.48 585.888 411.571L589.09 413.749C595.221 413.749 599.342 417.458 599.517 417.621C599.617 417.709 599.688 417.815 599.733 417.929C599.84 418.217 599.872 418.52 599.824 418.82C599.779 419.12 599.656 419.405 599.465 419.656C597.724 422.189 589.666 423.796 587.764 424.059C587.664 424.073 587.567 424.079 587.466 424.079ZM586.185 413.835C586.088 418.232 586.651 422.143 587.482 422.449C590.446 422.037 596.806 420.382 597.857 418.806C597.906 418.74 597.941 418.669 597.961 418.591C597.103 417.898 593.516 415.254 588.786 415.391C588.569 415.4 588.356 415.34 588.184 415.223L586.185 413.835Z" fill="#313131"/>
<path d="M337.142 180.544C336.906 182.54 326.589 184.064 313.298 182.827C300.008 181.591 289.209 177.594 289.453 175.632C289.698 173.669 300.653 173.015 313.913 174.271C327.175 175.527 337.381 178.556 337.142 180.544Z" fill="#313131"/>
<path d="M322.711 184.09C319.534 184.084 316.36 183.934 313.201 183.639C301.475 182.546 288.141 178.766 288.526 175.527C288.652 174.514 289.69 173.297 296.746 172.911C302.517 172.681 308.3 172.858 314.039 173.441C323.555 174.33 338.498 177.065 338.071 180.637C337.779 182.998 330.915 184.09 322.711 184.09ZM290.387 175.711C290.957 177.019 300.186 180.78 313.364 182.01C327.204 183.318 335.551 181.533 336.188 180.466C335.712 179.276 327.528 176.339 313.816 175.063C299.629 173.735 291.298 174.749 290.387 175.711Z" fill="#313131"/>
<path d="M563.896 320.971C563.776 314.05 552.289 255.203 548.456 243.559C546.492 237.776 544.059 231.922 540.125 226.931C534.438 219.584 524.306 216.569 514.87 219.735C512.405 220.539 510.063 221.618 507.905 222.947C505.834 224.204 503.932 225.663 502.234 227.297C502.101 227.438 502.027 227.613 502.017 227.796C502.011 227.978 502.072 228.158 502.192 228.307C502.311 228.456 502.483 228.566 502.68 228.62C502.881 228.674 503.091 228.669 503.285 228.605C511.492 226.283 524.329 224.478 526.813 233.708C526.907 234.094 527.066 234.682 527.169 235.068C527.354 235.938 527.599 237.247 527.693 238.136C528.094 241.805 528.208 245.495 528.026 249.178C527.434 262.699 514.53 306.881 514.381 307.541L563.896 320.971Z" fill="#313131"/>
<path d="M563.896 321.79C563.802 321.787 563.708 321.776 563.621 321.75L514.106 308.34C513.889 308.28 513.702 308.149 513.585 307.975C513.469 307.803 513.427 307.595 513.469 307.398C513.469 307.332 513.634 306.821 513.886 305.939C522.038 277.123 526.761 256.956 527.101 249.165C527.279 245.523 527.169 241.875 526.774 238.247C526.677 237.397 526.448 236.134 526.257 235.231C526.16 234.885 526.005 234.29 525.907 233.923C525.678 232.876 525.196 231.885 524.494 231.018C523.789 230.15 522.883 229.428 521.831 228.899C516.642 226.322 508.17 228.121 503.567 229.423C503.185 229.554 502.761 229.566 502.37 229.456C501.978 229.347 501.638 229.123 501.412 228.821C501.163 228.518 501.04 228.148 501.066 227.775C501.092 227.402 501.263 227.048 501.551 226.774C503.292 225.092 505.249 223.593 507.377 222.305C509.6 220.933 512.013 219.82 514.559 218.996C524.3 215.725 534.885 218.727 540.889 226.492C545.136 231.876 547.64 238.326 549.339 243.343C553.178 255 564.711 314.227 564.821 320.979C564.821 321.105 564.789 321.23 564.724 321.345C564.66 321.459 564.566 321.556 564.452 321.633C564.291 321.736 564.093 321.79 563.896 321.79ZM515.494 307.004L562.893 319.84C561.887 309.322 551.221 254.889 547.566 243.788C545.803 238.555 543.444 232.569 539.362 227.395C533.846 220.265 524.144 217.498 515.206 220.507C512.802 221.285 510.525 222.336 508.429 223.634C506.42 224.85 504.569 226.266 502.923 227.853H503.004C508.933 226.165 517.244 224.726 522.744 227.46C524.015 228.101 525.118 228.976 525.975 230.026C526.833 231.075 527.425 232.275 527.709 233.544C527.813 233.943 527.968 234.519 528.072 234.898C528.272 235.879 528.518 237.194 528.612 238.084C529.02 241.779 529.133 245.495 528.955 249.204C528.605 257.113 523.892 277.392 515.678 306.313C515.604 306.593 515.546 306.847 515.494 307.004Z" fill="#313131"/>
<path d="M502.745 236.18C506.491 236.18 509.529 233.5 509.529 230.194C509.529 226.889 506.491 224.209 502.745 224.209C498.999 224.209 495.964 226.889 495.964 230.194C495.964 233.5 498.999 236.18 502.745 236.18Z" fill="#FFA620"/>
<path d="M502.729 236.998C500.742 236.996 498.834 236.317 497.397 235.103C495.964 233.889 495.117 232.233 495.029 230.481C494.945 228.729 495.628 227.015 496.938 225.697C498.251 224.378 500.086 223.557 502.066 223.404C504.045 223.252 506.015 223.779 507.568 224.876C509.118 225.974 510.127 227.557 510.389 229.296C510.648 231.035 510.14 232.795 508.966 234.21C507.792 235.626 506.045 236.587 504.087 236.893C503.638 236.964 503.185 236.999 502.729 236.998ZM502.729 225.027C501.787 225.027 500.859 225.227 500.024 225.611C499.186 225.994 498.468 226.55 497.928 227.231C497.177 228.178 496.809 229.319 496.88 230.472C496.954 231.625 497.462 232.724 498.326 233.592C499.186 234.46 500.354 235.048 501.642 235.261C502.929 235.474 504.259 235.3 505.42 234.767C506.578 234.234 507.504 233.373 508.047 232.322C508.587 231.27 508.713 230.088 508.403 228.966C508.092 227.844 507.364 226.846 506.336 226.132C505.31 225.418 504.039 225.029 502.729 225.027Z" fill="#313131"/>
<path d="M464.824 307.926L462.919 359.644L500.798 314.024L501.034 267.88L465.617 266.716L464.824 307.926Z" fill="white"/>
<path d="M462.922 360.489C462.819 360.487 462.718 360.469 462.625 360.444C462.437 360.387 462.275 360.278 462.165 360.133C462.052 359.99 461.997 359.818 462 359.644L463.899 307.966L464.692 266.755C464.695 266.646 464.721 266.538 464.769 266.439C464.821 266.339 464.892 266.249 464.983 266.174C465.07 266.099 465.177 266.04 465.293 266.002C465.41 265.964 465.533 265.946 465.656 265.951L501.063 267.063C501.302 267.07 501.532 267.159 501.697 267.312C501.862 267.464 501.956 267.669 501.952 267.88L501.723 314.044C501.719 314.216 501.655 314.384 501.538 314.521L463.669 360.141C463.585 360.247 463.472 360.332 463.343 360.392C463.21 360.452 463.068 360.487 462.922 360.489ZM466.529 267.599L465.788 307.98L463.98 357.041L499.908 313.77L500.144 268.678L466.529 267.599Z" fill="#313131"/>
<path d="M500.794 273.336L500.098 288.943C500.098 288.943 494.169 284.829 476.907 279.635L500.794 273.336Z" fill="#313131"/>
<path d="M500.098 289.763C499.898 289.763 499.704 289.705 499.542 289.597C499.477 289.56 492.917 285.307 476.024 280.224C475.829 280.166 475.665 280.054 475.551 279.904C475.438 279.754 475.383 279.575 475.399 279.396C475.412 279.216 475.493 279.045 475.626 278.91C475.762 278.775 475.943 278.683 476.143 278.648L500.529 274.376C500.668 274.353 500.81 274.357 500.946 274.389C501.082 274.421 501.208 274.479 501.315 274.559C501.422 274.639 501.506 274.74 501.561 274.853C501.616 274.967 501.642 275.09 501.632 275.213L501.027 288.952C501.017 289.1 500.965 289.243 500.872 289.369C500.781 289.491 500.652 289.591 500.5 289.657C500.377 289.717 500.241 289.754 500.098 289.763ZM479.828 279.668C490.746 283.142 496.734 286.08 499.238 287.459L499.736 276.182L479.828 279.668Z" fill="#313131"/>
<path d="M461.557 250.591C457.992 264.184 459.978 275.861 478.278 279.936C491.018 282.775 504.346 273.656 507.927 260.07C511.505 246.483 504.006 233.341 491.206 230.725C478.405 228.108 465.122 236.991 461.557 250.591Z" fill="white"/>
<path d="M482.911 281.232C481.274 281.232 479.644 281.061 478.056 280.721C461.913 277.215 456.219 267.292 460.651 250.395C462.262 243.87 466.397 238.043 472.349 233.917C478.175 229.992 484.949 228.592 491.403 229.913C497.86 231.235 503.263 235.147 506.517 240.903C509.81 246.917 510.622 253.755 508.817 260.24C506.808 267.894 501.723 274.416 494.865 278.131C491.283 280.122 487.143 281.196 482.911 281.232ZM486.615 231.071C481.828 231.139 477.198 232.596 473.446 235.219C467.833 239.112 463.938 244.611 462.43 250.768C458.212 266.827 463.314 275.841 478.47 279.132C481.09 279.665 483.807 279.73 486.454 279.322C489.103 278.914 491.633 278.042 493.894 276.757C500.335 273.264 505.116 267.115 507.015 259.887C508.723 253.774 507.963 247.327 504.864 241.656C501.833 236.331 496.906 232.739 490.983 231.529C489.562 231.23 488.107 231.077 486.644 231.071H486.615Z" fill="#313131"/>
<path d="M464.09 244.226C464.09 244.226 467.056 235.192 473.313 230.652C480.679 225.295 490.277 224.111 499.099 228.212C509.551 233.105 518.467 243.441 512.44 259.958C509.215 268.646 500.38 274.795 500.38 274.795L504.227 268.305C504.227 268.305 500.522 267.252 500.833 265.604C500.833 265.604 510.868 258.5 506.475 254.241C502.441 250.316 499.018 256.432 499.018 256.432C494.806 253.822 490.766 251.005 486.913 247.994C482.827 244.62 479.048 240.97 475.61 237.076L464.09 244.226Z" fill="#313131"/>
<path d="M500.38 275.638C500.166 275.64 499.959 275.573 499.794 275.449C499.629 275.331 499.516 275.165 499.474 274.981C499.432 274.798 499.464 274.606 499.565 274.441L502.932 268.763C501.612 268.24 499.581 267.141 499.921 265.492C499.959 265.299 500.076 265.124 500.247 265.002C500.315 264.956 506.332 260.652 506.646 257.06C506.695 256.655 506.643 256.246 506.497 255.86C506.349 255.473 506.109 255.12 505.792 254.823C504.977 254.038 504.213 253.705 503.427 253.803C501.784 253.999 500.286 256.053 499.849 256.825C499.791 256.932 499.707 257.026 499.604 257.1C499.5 257.175 499.377 257.229 499.248 257.257C499.122 257.283 498.989 257.286 498.863 257.265C498.733 257.243 498.614 257.198 498.507 257.132C494.259 254.504 490.186 251.665 486.304 248.628C482.393 245.403 478.76 241.922 475.438 238.214L464.64 244.893C464.478 244.994 464.284 245.046 464.086 245.042C463.889 245.038 463.698 244.978 463.54 244.872C463.384 244.765 463.271 244.617 463.216 244.449C463.161 244.281 463.171 244.102 463.239 243.938C463.401 243.546 467.36 234.335 472.704 230.051C480.051 224.163 490.338 223.176 499.552 227.486C513.307 233.936 518.46 246.169 513.317 260.194C510.091 269.018 501.344 275.194 500.975 275.449C500.807 275.571 500.597 275.638 500.38 275.638ZM501.803 266.003C502.056 266.559 503.456 267.246 504.54 267.553C504.67 267.591 504.786 267.652 504.886 267.734C504.987 267.815 505.064 267.914 505.119 268.024C505.174 268.131 505.203 268.249 505.203 268.367C505.203 268.486 505.174 268.603 505.119 268.711L503.896 270.772C506.585 268.155 509.936 264.289 511.612 259.71C518.586 240.648 504.941 231.836 498.73 228.932C490.225 224.948 480.753 225.844 474.002 231.261C470.66 233.943 467.797 238.895 466.257 241.93L475.15 236.435C475.344 236.312 475.587 236.261 475.823 236.293C476.059 236.325 476.273 236.437 476.418 236.605C479.825 240.457 483.568 244.071 487.611 247.412C491.176 250.202 494.913 252.823 498.795 255.261C499.536 254.182 501.137 252.429 503.243 252.167C504.65 251.991 505.993 252.514 507.232 253.711C507.72 254.171 508.095 254.719 508.325 255.317C508.558 255.915 508.642 256.549 508.571 257.178C508.163 260.946 503.191 264.936 501.803 266.003Z" fill="#313131"/>
<path d="M471.035 259.645C470.935 259.643 470.832 259.627 470.734 259.599C467.131 258.493 466.907 257.904 466.797 257.636C466.687 257.368 466.487 256.832 470.505 249.132C470.618 248.961 470.802 248.834 471.016 248.773C471.233 248.713 471.466 248.724 471.673 248.804C471.876 248.885 472.045 249.029 472.138 249.21C472.232 249.39 472.252 249.596 472.187 249.786C470.702 252.671 469.065 255.922 468.664 257.015C469.525 257.403 470.411 257.736 471.326 258.009C471.534 258.073 471.708 258.199 471.818 258.365C471.928 258.531 471.97 258.727 471.935 258.917C471.899 259.107 471.786 259.28 471.618 259.405C471.453 259.53 471.239 259.598 471.022 259.599L471.035 259.645Z" fill="#313131"/>
<path d="M483.021 255.47C482.808 255.47 482.601 255.405 482.436 255.286C482.267 255.167 482.154 255.001 482.109 254.816C482.067 254.62 481.064 250.401 476.047 249.688C475.804 249.653 475.587 249.535 475.442 249.359C475.299 249.183 475.241 248.963 475.28 248.749C475.319 248.535 475.454 248.343 475.652 248.216C475.852 248.089 476.101 248.037 476.344 248.072C482.672 248.975 483.917 254.45 483.933 254.509C483.956 254.615 483.956 254.723 483.93 254.828C483.904 254.933 483.856 255.033 483.788 255.122C483.72 255.211 483.629 255.287 483.529 255.345C483.426 255.404 483.312 255.444 483.193 255.464L483.021 255.47Z" fill="#313131"/>
<path d="M470.376 247.013C470.149 247.014 469.929 246.939 469.761 246.803C469.651 246.712 467.034 244.73 464.174 246.287C463.964 246.4 463.712 246.436 463.472 246.385C463.233 246.335 463.026 246.203 462.9 246.018C462.77 245.834 462.728 245.611 462.786 245.4C462.841 245.189 462.993 245.007 463.2 244.893C466.442 243.134 469.716 244.572 471 245.587C471.139 245.697 471.236 245.843 471.282 246.004C471.327 246.165 471.314 246.334 471.246 246.489C471.178 246.644 471.058 246.777 470.903 246.87C470.748 246.964 470.563 247.013 470.376 247.013Z" fill="#313131"/>
<path d="M502.923 260.999C502.816 260.999 502.712 260.984 502.612 260.953L501.234 260.521C501.092 260.477 500.962 260.403 500.859 260.305C500.758 260.206 500.684 260.088 500.648 259.959C500.606 259.83 500.603 259.694 500.639 259.563C500.674 259.433 500.745 259.312 500.846 259.213L503.071 256.93C503.236 256.783 503.46 256.696 503.696 256.689C503.932 256.682 504.162 256.753 504.336 256.89C504.514 257.026 504.627 257.217 504.65 257.424C504.673 257.631 504.608 257.838 504.466 258.003L503.107 259.383H503.198C503.405 259.447 503.576 259.573 503.689 259.739C503.799 259.905 503.841 260.101 503.806 260.291C503.767 260.481 503.657 260.654 503.489 260.779C503.324 260.904 503.11 260.972 502.894 260.973L502.923 260.999Z" fill="#313131"/>
<path d="M475.662 255.811C476.215 255.811 476.661 255.416 476.661 254.928C476.661 254.44 476.215 254.045 475.662 254.045C475.109 254.045 474.662 254.44 474.662 254.928C474.662 255.416 475.109 255.811 475.662 255.811Z" fill="#313131"/>
<path d="M465.656 251.676C466.209 251.676 466.655 251.281 466.655 250.793C466.655 250.306 466.209 249.91 465.656 249.91C465.103 249.91 464.653 250.306 464.653 250.793C464.653 251.281 465.103 251.676 465.656 251.676Z" fill="#313131"/>
<path d="M497.754 265.213L499.212 267.18C499.879 268.081 501.251 268.333 502.273 267.743L504.502 266.455C505.521 265.865 505.809 264.656 505.139 263.755L503.68 261.788C503.01 260.886 501.642 260.634 500.62 261.224L498.391 262.512C497.369 263.103 497.084 264.311 497.754 265.213Z" fill="#FFA620"/>
<path d="M501.257 271.04C501.008 271.043 500.758 271.021 500.513 270.975C500.073 270.894 499.655 270.737 499.283 270.513C498.911 270.288 498.594 270 498.348 269.666L497.229 268.155C496.98 267.823 496.809 267.451 496.724 267.06C496.64 266.669 496.647 266.268 496.741 265.879C496.831 265.489 497.009 265.118 497.265 264.789C497.52 264.461 497.844 264.179 498.222 263.962L499.937 262.974C500.312 262.756 500.736 262.606 501.179 262.532C501.622 262.459 502.075 262.462 502.518 262.544C502.958 262.625 503.376 262.783 503.751 263.007C504.123 263.231 504.44 263.518 504.686 263.851L505.805 265.355C506.054 265.688 506.222 266.061 506.306 266.452C506.391 266.842 506.387 267.244 506.294 267.633C506.203 268.023 506.022 268.392 505.77 268.721C505.514 269.049 505.19 269.331 504.812 269.548L503.107 270.536C502.557 270.858 501.913 271.033 501.257 271.04ZM498.808 267.265L499.927 268.776C500.157 269.084 500.513 269.3 500.92 269.378C501.127 269.416 501.338 269.417 501.541 269.382C501.745 269.347 501.942 269.277 502.114 269.176L503.819 268.188C503.993 268.088 504.142 267.958 504.262 267.807C504.378 267.656 504.459 267.486 504.501 267.307C504.547 267.128 504.547 266.943 504.511 266.763C504.472 266.583 504.391 266.411 504.278 266.258L503.159 264.753C503.046 264.596 502.9 264.459 502.725 264.353C502.551 264.246 502.353 264.172 502.146 264.134C501.939 264.097 501.726 264.096 501.515 264.133C501.308 264.169 501.111 264.242 500.936 264.348L499.225 265.336C499.05 265.436 498.902 265.565 498.782 265.716C498.665 265.867 498.585 266.038 498.542 266.217C498.5 266.397 498.5 266.582 498.539 266.762C498.578 266.942 498.656 267.113 498.772 267.265H498.808Z" fill="#313131"/>
<path d="M473.29 264.982C472.475 264.981 471.673 264.818 470.942 264.505C470.718 264.407 470.553 264.235 470.476 264.029C470.398 263.822 470.417 263.597 470.527 263.402C470.641 263.208 470.835 263.061 471.068 262.993C471.301 262.924 471.556 262.941 471.776 263.039C472.074 263.17 474.743 264.217 476.367 261.41C476.415 261.308 476.49 261.217 476.583 261.141C476.677 261.065 476.784 261.007 476.904 260.97C477.023 260.932 477.15 260.917 477.276 260.924C477.402 260.932 477.525 260.962 477.638 261.013C477.748 261.064 477.848 261.134 477.929 261.221C478.01 261.306 478.068 261.406 478.104 261.513C478.139 261.62 478.149 261.732 478.133 261.843C478.117 261.954 478.075 262.06 478.01 262.156C476.745 264.328 474.882 264.982 473.29 264.982Z" fill="#313131"/>
<path d="M205.791 309.085L197.066 340.15L159.316 318.341L157.671 262.444L204.153 261.509L205.791 309.085Z" fill="white"/>
<path d="M197.067 340.97C196.886 340.967 196.709 340.921 196.556 340.838L158.813 319.02C158.687 318.952 158.583 318.855 158.509 318.741C158.435 318.626 158.395 318.498 158.39 318.367L156.745 262.47C156.741 262.363 156.761 262.257 156.805 262.157C156.848 262.057 156.913 261.965 156.997 261.888C157.169 261.731 157.402 261.64 157.649 261.633L204.131 260.697C204.376 260.694 204.612 260.776 204.788 260.925C204.964 261.075 205.067 261.28 205.072 261.496L206.718 309.065C206.729 309.139 206.729 309.214 206.718 309.288L197.994 340.353C197.957 340.479 197.887 340.596 197.789 340.696C197.691 340.793 197.568 340.867 197.43 340.915C197.315 340.955 197.191 340.975 197.067 340.97ZM160.229 317.89L196.482 338.823L204.858 308.988L203.249 262.366L158.62 263.242L160.229 317.89Z" fill="#313131"/>
<path d="M204.709 283.161C204.709 283.161 198.112 278.746 181.731 279.373C172.688 279.72 185.771 270.941 185.771 270.941L204.383 270.569L204.709 283.161Z" fill="#313131"/>
<path d="M204.708 283.952C204.542 283.951 204.379 283.913 204.234 283.841C204.152 283.795 195.569 279.458 179.7 280.06C178.906 280.093 176.46 280.184 175.942 278.752C175.111 276.449 181.427 272.42 185.266 270.248C185.409 270.163 185.576 270.116 185.748 270.11L204.36 269.737C204.605 269.734 204.842 269.816 205.02 269.965C205.197 270.114 205.301 270.319 205.309 270.536L205.635 283.128C205.638 283.237 205.616 283.345 205.571 283.447C205.526 283.548 205.458 283.641 205.372 283.719C205.285 283.797 205.182 283.859 205.068 283.901C204.954 283.944 204.832 283.965 204.708 283.965V283.952ZM182.783 278.392C193.827 278.392 200.891 280.675 203.745 281.82L203.478 271.406L186.052 271.759C181.501 274.375 177.632 277.417 177.713 278.3C178.179 278.437 178.669 278.495 179.158 278.471H179.626C180.708 278.418 181.76 278.392 182.783 278.392Z" fill="#313131"/>
<path d="M203.434 235.088L209.468 251.572C210.366 254.025 210.709 256.611 210.475 259.18C210.241 261.75 209.436 264.254 208.105 266.549C206.775 268.844 204.945 270.886 202.72 272.556C200.496 274.227 197.92 275.494 195.14 276.286L185.437 279.054C182.657 279.848 179.727 280.15 176.815 279.945C173.902 279.739 171.064 279.029 168.462 277.854C165.861 276.68 163.548 275.065 161.654 273.101C159.76 271.137 158.324 268.863 157.427 266.409L151.393 249.937C149.466 244.667 149.988 238.938 152.846 234.008C155.703 229.078 160.662 225.351 166.632 223.647L173.645 221.652C179.614 219.948 186.105 220.406 191.692 222.926C197.278 225.446 201.502 229.82 203.434 235.088Z" fill="white"/>
<path d="M180.626 280.106C178.524 280.11 176.428 279.89 174.385 279.452C174.146 279.4 173.941 279.266 173.813 279.08C173.686 278.894 173.648 278.671 173.707 278.461C173.766 278.25 173.918 278.068 174.128 277.956C174.339 277.844 174.591 277.81 174.83 277.862C179.237 278.813 183.856 278.663 188.172 277.43L194.91 275.507C200.268 273.972 204.718 270.626 207.285 266.2C209.853 261.775 210.328 256.633 208.607 251.899L203.419 237.717C202.39 234.9 200.741 232.29 198.568 230.036C196.395 227.781 193.74 225.927 190.755 224.579C187.769 223.231 184.512 222.415 181.169 222.179C177.826 221.943 174.463 222.29 171.272 223.201L169.59 223.679C163.151 225.522 157.803 229.545 154.72 234.863C151.636 240.181 151.069 246.362 153.142 252.049L157.337 263.516C159.143 268.458 162.906 272.659 167.937 275.35C168.147 275.463 168.298 275.645 168.356 275.856C168.415 276.067 168.376 276.29 168.248 276.475C168.12 276.661 167.914 276.794 167.675 276.846C167.436 276.897 167.183 276.863 166.973 276.75C161.568 273.849 157.522 269.332 155.573 264.02L151.37 252.553C149.138 246.451 149.74 239.817 153.045 234.107C156.349 228.396 162.087 224.077 168.997 222.096L170.687 221.618C174.109 220.641 177.715 220.269 181.3 220.524C184.885 220.777 188.377 221.652 191.579 223.098C194.78 224.544 197.628 226.532 199.958 228.95C202.289 231.367 204.057 234.166 205.161 237.187L210.349 251.369C212.224 256.517 211.71 262.112 208.918 266.926C206.127 271.74 201.286 275.381 195.458 277.051L188.72 278.974C186.106 279.721 183.375 280.102 180.626 280.106Z" fill="#313131"/>
<path d="M204.294 237.436C204.294 237.436 201.663 231.549 197.72 229.835C193.776 228.121 166.092 236.644 164.083 238.391C162.349 239.909 161.259 242.44 160.911 247.301C160.526 252.645 153.41 255.425 153.41 255.425L152.253 252.279L144.493 231.287C144.439 231.143 144.417 230.99 144.43 230.839C144.443 230.687 144.489 230.539 144.567 230.404C144.645 230.268 144.753 230.147 144.884 230.048C145.015 229.95 145.166 229.875 145.33 229.828L192.472 213.304C192.783 213.213 193.122 213.23 193.419 213.352C193.716 213.473 193.95 213.69 194.073 213.958L204.294 237.436Z" fill="#313131"/>
<path d="M153.432 256.242C153.235 256.246 153.043 256.193 152.884 256.091C152.725 255.99 152.607 255.846 152.549 255.68L151.371 252.553L143.611 231.562C143.518 231.316 143.481 231.056 143.503 230.798C143.525 230.54 143.604 230.288 143.736 230.057C143.87 229.825 144.055 229.618 144.281 229.45C144.506 229.281 144.767 229.154 145.048 229.076L192.131 212.572C192.677 212.404 193.277 212.431 193.802 212.647C194.326 212.863 194.735 213.252 194.94 213.729L205.161 237.168C205.206 237.268 205.227 237.374 205.225 237.482C205.222 237.589 205.196 237.695 205.147 237.793C205.098 237.892 205.028 237.981 204.94 238.055C204.852 238.13 204.748 238.188 204.635 238.227C204.522 238.266 204.401 238.285 204.279 238.283C204.157 238.281 204.037 238.258 203.925 238.215C203.814 238.171 203.713 238.109 203.629 238.032C203.545 237.954 203.478 237.863 203.434 237.763C203.434 237.71 200.884 232.17 197.312 230.567C193.946 229.082 166.574 237.364 164.735 238.973C163.038 240.458 162.141 243.042 161.83 247.353C161.422 253.122 154.091 256.053 153.78 256.177C153.67 256.219 153.551 256.241 153.432 256.242ZM192.887 214.076C192.85 214.07 192.812 214.07 192.775 214.076L145.693 230.574C145.576 230.6 145.475 230.665 145.411 230.757C145.375 230.839 145.375 230.93 145.411 231.012L153.951 254.254C155.781 253.331 159.717 250.924 159.984 247.248C160.325 242.505 161.385 239.594 163.431 237.809C165.35 236.14 193.687 227.146 198.135 229.108C198.909 229.452 199.623 229.893 200.254 230.417L193.213 214.259C193.18 214.203 193.131 214.155 193.069 214.123C193.007 214.09 192.936 214.074 192.864 214.076H192.887Z" fill="#313131"/>
<path d="M188.187 250.918C187.991 250.919 187.8 250.865 187.642 250.764C187.483 250.663 187.365 250.52 187.305 250.355C187.23 250.149 187.25 249.925 187.361 249.731C187.472 249.538 187.665 249.391 187.898 249.322L194.532 247.431C193.369 244.891 192.058 242.407 190.603 239.987C190.548 239.892 190.513 239.787 190.503 239.68C190.493 239.574 190.506 239.466 190.543 239.363C190.58 239.261 190.639 239.166 190.717 239.084C190.796 239.002 190.892 238.934 191 238.885C191.108 238.835 191.226 238.805 191.347 238.796C191.469 238.787 191.59 238.799 191.707 238.832C191.822 238.864 191.93 238.916 192.023 238.985C192.116 239.055 192.193 239.139 192.249 239.235C196.792 246.993 196.57 247.876 196.503 248.164C196.468 248.303 196.392 248.432 196.282 248.537C196.173 248.643 196.035 248.722 195.881 248.766L188.469 250.879C188.377 250.904 188.283 250.917 188.187 250.918Z" fill="#313131"/>
<path d="M177.572 244.592H177.424C177.187 244.553 176.977 244.432 176.838 244.258C176.7 244.083 176.644 243.867 176.683 243.657C177.461 239.222 182.176 237.37 184.555 237.011C184.677 236.986 184.804 236.984 184.927 237.005C185.05 237.025 185.167 237.067 185.271 237.129C185.376 237.19 185.465 237.27 185.533 237.363C185.601 237.455 185.648 237.559 185.669 237.668C185.691 237.777 185.687 237.888 185.658 237.996C185.63 238.104 185.576 238.205 185.502 238.294C185.428 238.383 185.334 238.458 185.226 238.514C185.118 238.57 184.998 238.606 184.874 238.62C184.629 238.659 179.277 239.542 178.514 243.905C178.478 244.101 178.363 244.279 178.19 244.405C178.016 244.531 177.797 244.598 177.572 244.592Z" fill="#313131"/>
<path d="M199.742 238.437C199.613 238.437 199.486 238.413 199.369 238.367C199.251 238.321 199.146 238.253 199.06 238.169C196.496 235.709 191.937 236.697 191.893 236.71C191.654 236.764 191.4 236.731 191.189 236.62C190.976 236.51 190.823 236.329 190.762 236.118C190.701 235.907 190.738 235.684 190.863 235.496C190.989 235.309 191.194 235.174 191.433 235.12C191.67 235.068 197.125 233.89 200.424 237.083C200.544 237.2 200.624 237.345 200.652 237.501C200.681 237.657 200.658 237.817 200.586 237.962C200.514 238.106 200.396 238.229 200.246 238.316C200.096 238.403 199.921 238.449 199.742 238.45V238.437Z" fill="#313131"/>
<path d="M184.377 245.659C185.036 245.659 185.57 245.187 185.57 244.605C185.57 244.024 185.036 243.552 184.377 243.552C183.718 243.552 183.184 244.024 183.184 244.605C183.184 245.187 183.718 245.659 184.377 245.659Z" fill="#313131"/>
<path d="M196.534 242.675C197.193 242.675 197.727 242.204 197.727 241.622C197.727 241.041 197.193 240.569 196.534 240.569C195.875 240.569 195.34 241.041 195.34 241.622C195.34 242.204 195.875 242.675 196.534 242.675Z" fill="#313131"/>
<path d="M162.477 266.22C165.698 264.54 165.953 259.66 163.047 255.322C160.141 250.984 155.174 248.829 151.953 250.509C148.733 252.19 148.477 257.069 151.383 261.407C154.289 265.746 159.256 267.901 162.477 266.22Z" fill="white"/>
<path d="M160.006 267.599C156.685 267.599 152.927 265.336 150.57 261.816C147.405 257.1 147.813 251.71 151.467 249.806C154.128 248.413 157.878 249.191 161.021 251.769C161.116 251.84 161.194 251.929 161.25 252.028C161.305 252.127 161.337 252.235 161.344 252.346C161.351 252.456 161.332 252.566 161.289 252.67C161.246 252.774 161.18 252.869 161.094 252.95C161.008 253.03 160.905 253.095 160.79 253.139C160.675 253.183 160.552 253.207 160.426 253.207C160.301 253.208 160.177 253.187 160.061 253.144C159.946 253.102 159.841 253.038 159.754 252.959C157.226 250.872 154.343 250.172 152.408 251.186C149.681 252.606 149.569 257.074 152.164 260.959C154.336 264.23 157.908 266.284 160.68 265.892C160.918 265.859 161.162 265.909 161.359 266.031C161.557 266.153 161.694 266.337 161.74 266.546C161.779 266.756 161.724 266.972 161.585 267.147C161.447 267.321 161.236 267.441 160.999 267.481C160.672 267.545 160.34 267.585 160.006 267.599Z" fill="#313131"/>
<path d="M155.447 259.893C155.267 259.893 155.09 259.846 154.938 259.759C154.787 259.672 154.668 259.548 154.595 259.402C154.546 259.304 154.52 259.198 154.517 259.091C154.515 258.984 154.537 258.877 154.582 258.777C154.627 258.677 154.694 258.586 154.778 258.509C154.863 258.433 154.965 258.372 155.077 258.33L155.699 258.087L152.831 256.066C152.729 256.001 152.644 255.919 152.58 255.824C152.515 255.729 152.473 255.623 152.457 255.514C152.44 255.404 152.448 255.293 152.482 255.186C152.515 255.079 152.573 254.98 152.651 254.894C152.73 254.807 152.827 254.736 152.937 254.683C153.048 254.631 153.169 254.599 153.294 254.59C153.419 254.58 153.545 254.593 153.664 254.628C153.783 254.662 153.893 254.717 153.987 254.791L158.056 257.649C158.183 257.736 158.282 257.85 158.343 257.98C158.404 258.111 158.425 258.253 158.405 258.393C158.385 258.533 158.324 258.666 158.227 258.779C158.131 258.892 158.003 258.98 157.856 259.036L155.818 259.828C155.701 259.871 155.574 259.894 155.447 259.893Z" fill="#313131"/>
<path d="M184.386 259.899C183.899 259.899 183.415 259.84 182.948 259.723C182.35 259.602 181.789 259.366 181.306 259.033C180.823 258.699 180.429 258.276 180.153 257.793C178.945 255.667 180.212 252.775 180.264 252.651C180.334 252.496 180.456 252.363 180.613 252.271C180.771 252.178 180.957 252.131 181.146 252.134C181.335 252.138 181.518 252.192 181.671 252.29C181.823 252.389 181.938 252.526 181.999 252.684C182.202 253.111 182.504 253.495 182.888 253.81C183.271 254.126 183.726 254.366 184.222 254.516C185.101 254.787 186.036 254.889 186.963 254.813C187.891 254.737 188.789 254.486 189.596 254.077C189.765 253.997 189.957 253.965 190.147 253.986C190.338 254.007 190.516 254.08 190.656 254.195C190.796 254.31 190.893 254.46 190.934 254.625C190.975 254.789 190.958 254.961 190.886 255.117C190.812 255.333 188.566 259.899 184.386 259.899ZM181.532 254.921C181.393 255.645 181.491 256.39 181.813 257.067C181.976 257.34 182.206 257.579 182.485 257.765C182.764 257.952 183.087 258.082 183.429 258.146C185.386 258.617 186.928 257.492 187.928 256.34C186.475 256.605 184.967 256.5 183.577 256.04C182.82 255.787 182.126 255.407 181.532 254.921Z" fill="#313131"/>
<path d="M329.692 187.138C329.692 187.138 330.381 174.768 332.222 169.293C334.059 163.818 336.311 162.326 335.622 148.36C334.933 134.394 334.024 118.086 330.976 117.707C328.463 117.386 328.75 120.48 328.75 120.48C328.75 120.48 327.004 109.17 322.77 109.36C319.805 109.491 319.516 112.218 319.516 112.218C319.516 112.218 316.915 105.638 312.934 106.593C310.362 107.207 310.822 112.342 310.822 112.342C310.822 112.342 308.339 107.037 304.151 108.895C300.319 110.609 306.449 138.705 306.449 138.705C306.449 138.705 293.803 126.799 288.763 132.163C285.976 135.14 297.376 142.074 297.05 148.968C296.669 155.738 297.357 162.521 299.096 169.123C300.385 174.513 297.302 184.234 297.302 184.234L329.692 187.138Z" fill="white"/>
<path d="M329.695 187.943H329.598L297.228 184.999C297.093 184.988 296.963 184.95 296.847 184.889C296.73 184.828 296.63 184.745 296.554 184.646C296.481 184.551 296.433 184.444 296.411 184.331C296.389 184.218 296.395 184.103 296.428 183.992C296.428 183.894 299.43 174.402 298.207 169.274C296.454 162.603 295.758 155.75 296.139 148.91C296.294 145.639 293.478 142.244 290.995 139.248C288.512 136.252 286.258 133.551 288.067 131.621C288.542 131.1 289.142 130.679 289.824 130.388C290.506 130.097 291.253 129.944 292.01 129.94C296.383 129.822 302.024 133.864 305.026 136.291C304.485 133.583 303.625 129.096 302.958 124.516C301.023 111.231 302.276 108.817 303.758 108.163C304.325 107.899 304.948 107.744 305.587 107.709C306.226 107.674 306.866 107.76 307.464 107.96C308.435 108.319 309.29 108.882 309.955 109.602C310.2 108.039 310.874 106.331 312.638 105.814C315.989 104.853 318.412 108.163 319.591 110.295C319.922 109.809 320.377 109.397 320.92 109.092C321.463 108.788 322.079 108.6 322.719 108.542H322.86C326.292 108.542 328.158 113.723 329.048 117.328C329.339 117.136 329.669 116.999 330.022 116.927C330.374 116.855 330.74 116.849 331.096 116.909C334.444 117.334 335.476 126.943 336.534 148.308C337.09 159.632 335.757 162.869 334.214 166.624C333.846 167.534 333.474 168.469 333.095 169.548C331.309 174.867 330.614 187.079 330.604 187.211C330.594 187.421 330.494 187.62 330.319 187.765C330.148 187.911 329.918 187.991 329.679 187.989L329.695 187.943ZM298.511 183.469L328.818 186.223C329.019 183.292 329.747 173.794 331.332 169.045C331.717 167.913 332.112 166.958 332.487 166.029C333.972 162.444 335.237 159.357 334.713 148.367C334.363 141.407 333.972 134.126 333.325 128.428C332.302 119.499 331.102 118.577 330.834 118.485C330.391 118.426 330.229 118.564 330.167 118.616C329.782 119.14 329.617 119.768 329.702 120.389C329.727 120.605 329.656 120.821 329.501 120.991C329.346 121.16 329.122 121.268 328.88 121.292C328.634 121.315 328.388 121.252 328.197 121.116C328.003 120.979 327.883 120.782 327.854 120.565C327.194 116.3 325.114 110.04 322.838 110.138C321.296 110.204 320.428 112.408 320.421 112.434C320.359 112.597 320.241 112.738 320.084 112.838C319.926 112.938 319.737 112.992 319.543 112.992C319.349 112.992 319.159 112.938 319.002 112.838C318.844 112.738 318.726 112.597 318.664 112.434C318.664 112.376 316.218 106.469 313.246 107.319C311.763 107.738 311.615 110.799 311.763 112.219C311.784 112.413 311.724 112.608 311.595 112.767C311.466 112.926 311.277 113.039 311.062 113.086C310.847 113.133 310.62 113.11 310.422 113.021C310.225 112.933 310.069 112.785 309.985 112.605C309.985 112.605 308.777 110.086 306.82 109.438C306.459 109.319 306.074 109.27 305.69 109.295C305.306 109.32 304.933 109.418 304.596 109.582C302.906 110.492 304.188 123.738 307.405 138.502C307.442 138.676 307.414 138.856 307.326 139.015C307.238 139.174 307.094 139.304 306.916 139.385C306.737 139.466 306.533 139.493 306.335 139.462C306.137 139.432 305.956 139.345 305.819 139.215C305.738 139.137 297.458 131.366 292.099 131.549C291.604 131.549 291.115 131.647 290.669 131.836C290.222 132.025 289.83 132.3 289.52 132.641C288.638 133.583 290.52 135.853 292.522 138.254C295.049 141.309 298.199 145.103 298.022 148.956C297.635 155.657 298.316 162.373 300.045 168.907C301.135 173.493 299.259 180.865 298.511 183.469Z" fill="#313131"/>
<path d="M320.539 152.252C320.326 152.253 320.119 152.187 319.954 152.068C319.789 151.949 319.676 151.783 319.635 151.598C318.664 147.169 313.787 144.265 309.866 141.929C308.435 141.141 307.086 140.244 305.833 139.247C305.739 139.174 305.663 139.084 305.61 138.983C305.556 138.882 305.527 138.773 305.523 138.662C305.519 138.55 305.541 138.44 305.587 138.336C305.634 138.233 305.703 138.139 305.792 138.06C305.881 137.981 305.987 137.919 306.104 137.877C306.221 137.836 306.346 137.816 306.472 137.819C306.598 137.822 306.722 137.847 306.837 137.894C306.951 137.94 307.054 138.007 307.138 138.09C308.311 139.009 309.571 139.838 310.903 140.569C314.884 142.944 320.339 146.195 321.451 151.29C321.474 151.396 321.474 151.505 321.449 151.61C321.425 151.716 321.376 151.816 321.307 151.905C321.238 151.994 321.15 152.07 321.047 152.128C320.945 152.187 320.83 152.227 320.71 152.245C320.653 152.253 320.596 152.256 320.539 152.252Z" fill="#313131"/>
<path d="M318.449 140.111C318.235 140.112 318.028 140.047 317.863 139.928C317.698 139.808 317.585 139.642 317.544 139.457C317.396 138.862 317.248 138.208 317.077 137.495C315.921 132.569 313.994 124.32 309.947 112.526C309.883 112.321 309.912 112.102 310.028 111.915C310.145 111.729 310.339 111.589 310.569 111.527C310.8 111.465 311.049 111.485 311.264 111.582C311.478 111.679 311.641 111.847 311.718 112.048C315.787 123.921 317.737 132.209 318.893 137.168C319.064 137.874 319.212 138.529 319.353 139.13C319.378 139.237 319.378 139.347 319.354 139.454C319.33 139.56 319.282 139.662 319.213 139.752C319.144 139.842 319.055 139.919 318.952 139.979C318.848 140.038 318.733 140.079 318.612 140.099L318.449 140.111Z" fill="#313131"/>
<path d="M324.6 139.47C324.377 139.47 324.157 139.398 323.989 139.267C323.82 139.136 323.71 138.955 323.681 138.758C323.681 138.574 321.125 120.69 318.634 112.376C318.593 112.269 318.577 112.157 318.587 112.045C318.597 111.933 318.633 111.824 318.693 111.725C318.753 111.626 318.835 111.539 318.935 111.469C319.035 111.399 319.149 111.348 319.273 111.319C319.396 111.29 319.524 111.284 319.65 111.301C319.776 111.318 319.896 111.358 320.004 111.418C320.112 111.477 320.204 111.556 320.276 111.649C320.348 111.742 320.397 111.847 320.421 111.957C322.948 120.376 325.499 138.372 325.519 138.555C325.535 138.661 325.529 138.769 325.496 138.872C325.464 138.975 325.409 139.072 325.334 139.156C325.26 139.241 325.166 139.312 325.063 139.365C324.956 139.417 324.839 139.451 324.72 139.464L324.6 139.47Z" fill="#313131"/>
<path d="M330.507 140.111C330.261 140.111 330.025 140.025 329.854 139.872C329.679 139.719 329.582 139.511 329.582 139.294C329.582 136.186 328.708 124.974 327.848 120.578C327.822 120.371 327.887 120.163 328.029 119.997C328.171 119.83 328.378 119.718 328.611 119.683C328.844 119.648 329.084 119.693 329.281 119.808C329.478 119.923 329.617 120.1 329.669 120.303C330.546 124.765 331.435 136.141 331.435 139.274C331.439 139.383 331.416 139.491 331.371 139.593C331.325 139.694 331.258 139.787 331.17 139.865C331.086 139.943 330.983 140.005 330.866 140.047C330.753 140.089 330.63 140.111 330.507 140.111Z" fill="#313131"/>
<path d="M385.078 172.093C387.21 166.549 388.459 160.77 388.782 154.921C389.154 148.969 400.761 141.269 399.063 139.156C395.831 135.127 382.015 145.044 382.015 145.044C382.015 145.044 389.264 117.942 386.159 116.634C384.137 115.777 380.423 122.397 380.423 122.397C380.423 122.397 382.839 112.899 380.801 112.304C378.081 111.512 372.957 121.638 372.957 121.638C372.957 121.638 374.58 114.6 372.957 114.338C369.993 113.86 364.235 128.075 364.235 128.075C364.235 128.075 365.361 121.534 363.174 121.645C360.521 121.749 357.606 139.562 355.688 151.54C353.767 163.517 355.562 164.963 356.62 169.81C357.681 174.657 345.11 242.303 352.337 264.217C361.715 292.737 400.651 354.602 400.651 354.602L434.693 307.078C434.693 307.078 401.755 267.658 393.392 242.055C387.181 223.005 383.461 176.672 385.078 172.093Z" fill="white"/>
<path d="M400.648 355.393C400.489 355.387 400.331 355.345 400.195 355.27C400.056 355.196 399.943 355.09 399.865 354.968C399.477 354.351 360.78 292.726 351.47 264.472C346.281 248.773 351.13 210.217 354.019 187.184C355.132 178.294 356.015 171.275 355.733 169.993C355.523 169.032 355.28 168.201 355.051 167.377C354.08 164.034 353.233 161.142 354.792 151.428C358.496 128.088 360.489 120.945 363.151 120.84C363.416 120.827 363.685 120.868 363.928 120.96C364.173 121.052 364.393 121.192 364.568 121.37C365.031 121.914 365.306 122.563 365.367 123.241C367.674 118.302 370.711 113.154 373.144 113.546C373.341 113.58 373.529 113.649 373.697 113.749C373.862 113.849 374.005 113.978 374.115 114.129C374.545 114.685 374.655 115.757 374.609 116.942C376.554 113.906 379.058 110.936 381.112 111.545C382.72 112.009 382.788 114.815 382.296 118.086C383.655 116.49 385.194 115.352 386.582 115.934C387.485 116.32 389.161 117.026 386.181 131.516C385.262 136.003 384.172 140.458 383.512 143.035C386.893 140.824 393.424 136.971 397.345 137.436C397.834 137.48 398.309 137.616 398.736 137.834C399.163 138.053 399.532 138.35 399.82 138.705C401.004 140.184 399.079 142.251 396.113 145.39C393.334 148.341 389.888 152.017 389.694 154.98C389.374 160.897 388.129 166.746 385.987 172.361C384.505 176.535 387.954 222.345 394.304 241.812C402.479 266.945 435.094 306.193 435.434 306.561C435.541 306.695 435.599 306.855 435.599 307.021C435.599 307.186 435.541 307.346 435.434 307.483L401.392 355.008C401.311 355.119 401.204 355.213 401.075 355.282C400.946 355.347 400.8 355.387 400.648 355.393ZM363.196 122.541C360.971 124.366 357.888 143.474 356.568 151.677C355.086 161.07 355.827 163.818 356.785 166.991C357.021 167.821 357.273 168.678 357.525 169.679C357.846 171.138 357.163 176.744 355.827 187.341C352.951 210.236 348.141 248.602 353.22 263.995C361.75 289.885 395.233 344.162 400.703 352.958L433.613 307.084C429.905 302.61 400.367 266.232 392.541 242.257C386.469 223.666 382.49 176.75 384.23 171.864C386.336 166.383 387.559 160.669 387.863 154.889C388.086 151.383 391.749 147.477 394.699 144.337C396.226 142.708 398.536 140.249 398.316 139.634C398.173 139.466 397.992 139.327 397.782 139.227C397.575 139.126 397.345 139.066 397.106 139.052C393.402 138.613 385.411 143.709 382.629 145.711C382.48 145.818 382.296 145.88 382.102 145.89C381.911 145.9 381.72 145.856 381.555 145.765C381.393 145.675 381.267 145.541 381.193 145.384C381.118 145.226 381.105 145.052 381.147 144.887C384.366 132.87 387.012 119.054 385.757 117.412C385.062 117.458 382.985 119.767 381.312 122.796C381.212 122.976 381.041 123.117 380.83 123.192C380.62 123.267 380.384 123.272 380.17 123.205C379.957 123.138 379.779 123.004 379.669 122.829C379.559 122.653 379.527 122.449 379.575 122.253C380.643 118.06 381.06 113.847 380.504 113.095C379.504 113.023 376.492 116.797 373.833 121.998C373.739 122.183 373.574 122.331 373.367 122.415C373.157 122.498 372.921 122.51 372.704 122.449C372.487 122.389 372.3 122.259 372.186 122.085C372.07 121.911 372.031 121.705 372.077 121.507C372.698 118.799 372.95 116.006 372.662 115.208C371.284 115.738 367.842 121.704 365.137 128.376C365.066 128.575 364.911 128.742 364.707 128.844C364.5 128.946 364.258 128.974 364.028 128.923C363.798 128.872 363.601 128.746 363.475 128.57C363.345 128.394 363.3 128.182 363.345 127.977C363.721 125.583 363.678 123.09 363.196 122.541Z" fill="#313131"/>
<path d="M368.382 156.171C368.295 156.172 368.208 156.162 368.124 156.139C367.887 156.078 367.69 155.937 367.57 155.746C367.454 155.556 367.425 155.333 367.496 155.124C368.978 150.761 374.167 148.19 378.007 146.32C379.21 145.775 380.362 145.148 381.452 144.442C381.643 144.304 381.885 144.239 382.131 144.259C382.251 144.27 382.367 144.301 382.477 144.351C382.584 144.402 382.678 144.47 382.756 144.553C382.833 144.636 382.891 144.732 382.927 144.834C382.963 144.937 382.975 145.045 382.963 145.152C382.953 145.259 382.917 145.363 382.859 145.458C382.801 145.552 382.723 145.636 382.629 145.705C381.462 146.475 380.222 147.157 378.925 147.746C375.218 149.584 370.54 151.867 369.288 155.595C369.23 155.765 369.107 155.913 368.945 156.017C368.784 156.121 368.586 156.175 368.382 156.171Z" fill="#313131"/>
<path d="M374.316 144.887H374.18C373.94 144.854 373.72 144.74 373.575 144.567C373.429 144.395 373.364 144.178 373.397 143.964C374.345 138.156 376.182 131.647 379.524 122.188C379.598 121.98 379.763 121.807 379.98 121.707C380.2 121.606 380.456 121.586 380.689 121.651C380.925 121.716 381.119 121.861 381.235 122.054C381.348 122.247 381.371 122.471 381.297 122.678C377.978 132.046 376.166 138.483 375.234 144.193C375.199 144.386 375.085 144.562 374.917 144.689C374.749 144.816 374.536 144.886 374.316 144.887Z" fill="#313131"/>
<path d="M367.535 144.337H367.376C367.14 144.296 366.93 144.175 366.791 143.999C366.652 143.823 366.597 143.607 366.636 143.395C366.636 143.251 369.395 128.932 372.093 121.442C372.122 121.334 372.177 121.232 372.255 121.144C372.333 121.055 372.426 120.981 372.54 120.927C372.65 120.872 372.769 120.838 372.895 120.827C373.022 120.815 373.148 120.827 373.271 120.86C373.39 120.894 373.5 120.949 373.597 121.022C373.691 121.095 373.769 121.184 373.824 121.284C373.879 121.385 373.911 121.494 373.918 121.606C373.921 121.717 373.902 121.829 373.856 121.933C371.194 129.312 368.489 143.52 368.467 143.67C368.428 143.861 368.311 144.033 368.14 144.156C367.968 144.278 367.755 144.342 367.535 144.337Z" fill="#313131"/>
<path d="M361.796 144.337H361.712C361.592 144.327 361.475 144.297 361.365 144.246C361.259 144.196 361.165 144.128 361.084 144.045C361.006 143.963 360.948 143.867 360.913 143.765C360.877 143.662 360.864 143.555 360.877 143.447C361.21 140.465 362.359 132.327 363.323 127.957C363.368 127.744 363.507 127.555 363.711 127.433C363.915 127.311 364.167 127.266 364.406 127.306C364.649 127.347 364.862 127.471 365.002 127.651C365.141 127.83 365.192 128.051 365.144 128.265C364.196 132.563 363.048 140.654 362.721 143.605C362.698 143.807 362.592 143.995 362.42 144.13C362.249 144.266 362.025 144.34 361.796 144.337Z" fill="#313131"/>
<path d="M159.317 318.341C159.317 318.341 101.376 333.21 88.205 343.083C76.7233 351.685 45.481 429.364 47.905 457.491C50.3286 485.621 101.636 481.964 101.636 481.964L97.6036 499.3H256.706C256.706 499.3 253.645 387.918 261.895 359.762C270.144 331.608 300.623 304.16 316.004 277.869C331.384 251.579 337.158 180.545 337.158 180.545C337.158 180.545 327.314 184.777 312.068 183.305C296.02 181.761 289.327 175.612 289.327 175.612C289.327 175.612 280.225 236.854 269.114 251.801C258.003 266.748 226.731 299.555 205.792 309.085L197.068 340.151L159.317 318.341Z" fill="white"/>
<path d="M97.6028 500.116C97.5388 500.125 97.4741 500.125 97.41 500.116C97.289 500.099 97.1735 500.059 97.0703 499.999C96.9671 499.942 96.8785 499.865 96.8093 499.773C96.7401 499.685 96.6922 499.585 96.6679 499.476C96.644 499.371 96.6443 499.262 96.6689 499.157L100.471 482.8C92.0758 482.743 83.7214 481.761 75.6035 479.871C58.1478 475.586 48.3784 467.044 47.363 455.164C44.9762 427.448 75.5961 351.428 87.5814 342.46C100.753 332.587 156.663 318.164 159.035 317.556C159.159 317.524 159.29 317.519 159.418 317.536C159.545 317.553 159.667 317.593 159.776 317.656L196.437 338.837L204.842 308.888C204.875 308.777 204.935 308.668 205.018 308.577C205.102 308.486 205.206 308.411 205.324 308.36C225.782 299.05 257.209 266.297 268.29 251.35C279.164 236.71 288.259 176.122 288.348 175.507C288.376 175.358 288.45 175.219 288.561 175.104C288.672 174.989 288.816 174.902 288.978 174.853C289.143 174.804 289.321 174.798 289.49 174.835C289.66 174.872 289.814 174.951 289.934 175.063C290.001 175.122 296.605 181.016 312.111 182.507C326.877 183.933 336.573 179.89 336.699 179.825C336.844 179.762 337.006 179.734 337.165 179.744C337.326 179.755 337.482 179.803 337.617 179.884C337.75 179.964 337.86 180.074 337.931 180.202C338.002 180.331 338.035 180.474 338.025 180.616C337.964 181.33 332.095 252.096 316.766 278.255C310.837 288.401 302.868 298.462 294.426 309.111C281.314 325.661 267.742 342.774 262.724 359.978C254.623 387.709 257.535 498.18 257.587 499.311C257.591 499.528 257.499 499.739 257.33 499.893C257.16 500.05 256.928 500.142 256.683 500.15C256.561 500.153 256.439 500.136 256.325 500.099C256.21 500.062 256.105 500.002 256.017 499.928C255.929 499.853 255.858 499.765 255.809 499.665C255.761 499.565 255.735 499.459 255.734 499.351C255.734 498.24 252.769 387.538 260.923 359.593C266.037 342.1 279.691 324.865 292.899 308.194C301.304 297.591 309.206 287.57 315.136 277.522C329.106 253.639 335.185 191.73 336.074 181.853C332.778 182.971 324.076 185.326 311.926 184.155C299.592 182.965 292.691 179.131 289.971 177.261C288.489 186.975 280.113 238.463 269.855 252.279C258.418 267.69 227.605 299.895 206.562 309.673L197.934 340.379C197.898 340.507 197.828 340.624 197.73 340.721C197.632 340.818 197.51 340.895 197.372 340.944C197.235 340.99 197.086 341.01 196.939 340.995C196.792 340.984 196.65 340.941 196.526 340.87L159.139 319.283C153.95 320.636 101.072 334.546 88.7674 343.756C83.4083 347.77 72.9424 368.095 63.8922 392.077C53.6337 419.245 48.1413 442.799 49.2011 455.093C51.5287 482.121 101.087 481.213 101.576 481.199C101.716 481.196 101.857 481.219 101.985 481.27C102.113 481.322 102.227 481.399 102.317 481.493C102.408 481.587 102.473 481.696 102.508 481.815C102.543 481.935 102.546 482.061 102.517 482.181L98.4847 499.516C98.4316 499.688 98.3168 499.836 98.1579 499.948C97.9988 500.056 97.8037 500.116 97.6028 500.116Z" fill="#313131"/>
<path d="M288.452 491.994L222.231 490.769L252.229 401.636L315.988 412.199L288.452 491.994Z" fill="#21A2FF"/>
<path d="M288.452 492.81L222.238 491.585C222.094 491.585 221.953 491.554 221.824 491.494C221.696 491.437 221.584 491.354 221.497 491.254C221.413 491.151 221.357 491.034 221.333 490.912C221.308 490.786 221.316 490.66 221.356 490.54L251.354 401.404C251.419 401.21 251.564 401.048 251.76 400.942C251.955 400.836 252.188 400.799 252.413 400.836L316.158 411.394C316.289 411.414 316.413 411.457 316.523 411.523C316.633 411.585 316.726 411.671 316.796 411.771C316.866 411.868 316.912 411.979 316.929 412.096C316.947 412.211 316.937 412.328 316.9 412.442L289.356 492.248C289.294 492.413 289.172 492.559 289.009 492.662C288.846 492.762 288.651 492.813 288.452 492.81ZM223.469 490.009L287.77 491.194L314.802 412.822L252.881 402.564L223.469 490.009Z" fill="#313131"/>
<path d="M300.246 409.59L270.745 404.702L272.161 400.542L301.602 405.638L300.246 409.59Z" fill="#21A2FF"/>
<path d="M300.244 410.406C300.188 410.412 300.131 410.412 300.074 410.406L270.544 405.507C270.416 405.487 270.293 405.441 270.186 405.376C270.078 405.313 269.988 405.227 269.921 405.127C269.856 405.03 269.813 404.922 269.797 404.81C269.78 404.696 269.79 404.582 269.825 404.473L271.241 400.314C271.306 400.117 271.452 399.951 271.65 399.846C271.847 399.74 272.082 399.706 272.308 399.743L301.749 404.839C301.876 404.865 301.996 404.91 302.102 404.976C302.208 405.042 302.297 405.127 302.364 405.224C302.43 405.324 302.471 405.433 302.487 405.544C302.502 405.658 302.491 405.773 302.453 405.881L301.097 409.804C301.046 409.972 300.936 410.121 300.783 410.229C300.629 410.338 300.441 410.4 300.244 410.406ZM271.93 404.068L299.6 408.647L300.415 406.258L272.805 401.479L271.93 404.068Z" fill="#313131"/>
<path d="M296.338 405.547H296.16L277.696 402.355C277.569 402.332 277.449 402.287 277.343 402.221C277.237 402.155 277.148 402.072 277.081 401.975C277.014 401.878 276.971 401.77 276.954 401.656C276.937 401.544 276.948 401.43 276.985 401.322L278.534 396.742C278.601 396.545 278.748 396.38 278.947 396.274C279.146 396.168 279.381 396.131 279.609 396.171L298.035 399.52C298.165 399.54 298.289 399.58 298.399 399.646C298.509 399.709 298.602 399.791 298.672 399.888C298.743 399.988 298.788 400.097 298.806 400.211C298.824 400.328 298.814 400.445 298.777 400.556L297.227 404.97C297.168 405.139 297.05 405.284 296.89 405.387C296.73 405.493 296.536 405.547 296.338 405.547ZM279.053 400.902L295.693 403.78L296.672 400.928L280.068 397.913L279.053 400.902Z" fill="#313131"/>
<path d="M203.686 441.506C203.686 441.506 229.296 440.524 241.674 433.001C241.674 433.001 234.506 446.999 240.347 447.89C246.188 448.777 286.688 442.105 287.866 448.178C288.934 453.697 256.461 457.491 256.461 457.491C256.461 457.491 292.195 452.769 292.195 458.624C292.195 464.668 257.269 465.668 257.269 465.668C257.269 465.668 287.866 463.646 287.866 468.757C287.866 473.864 255.861 473.656 255.861 473.656C255.861 473.656 279.802 473.073 279.802 478.235C279.802 484.862 201.07 480.591 201.07 480.591L203.686 441.506Z" fill="white"/>
<path d="M247.313 482.815C227.404 482.815 205.153 481.664 201.009 481.436C200.888 481.427 200.769 481.401 200.659 481.356C200.55 481.307 200.452 481.242 200.372 481.162C200.291 481.082 200.229 480.987 200.19 480.888C200.15 480.785 200.134 480.679 200.142 480.571L202.759 441.46C202.773 441.257 202.872 441.066 203.037 440.926C203.201 440.783 203.419 440.701 203.648 440.695C203.9 440.695 229.131 439.641 241.146 432.347C241.313 432.247 241.512 432.195 241.714 432.204C241.916 432.213 242.11 432.278 242.265 432.392C242.42 432.507 242.529 432.661 242.574 432.835C242.62 433.009 242.6 433.192 242.518 433.355C241.109 436.101 237.818 443.821 239.382 446.391C239.49 446.582 239.649 446.747 239.845 446.87C240.042 446.996 240.269 447.076 240.509 447.104C242.281 447.373 247.869 446.862 254.348 446.268C273.953 444.475 287.903 443.553 288.777 448.061C288.84 448.42 288.817 448.786 288.71 449.137C288.603 449.488 288.413 449.817 288.155 450.099C286.539 452.029 281.706 453.665 276.295 454.961C283.218 454.719 289.807 455.018 292.098 456.766C292.417 456.991 292.676 457.277 292.855 457.602C293.035 457.928 293.13 458.282 293.135 458.644C293.135 460.417 291.534 462.91 278.615 464.76C282.803 465.099 286.361 465.773 287.865 467.009C288.156 467.229 288.39 467.498 288.552 467.803C288.715 468.109 288.802 468.44 288.807 468.777C288.799 469.113 288.713 469.445 288.555 469.75C288.397 470.056 288.17 470.33 287.888 470.555C285.798 472.38 279.697 473.367 273.36 473.898C276.11 474.401 278.444 475.129 279.682 476.188C280.011 476.451 280.275 476.771 280.457 477.127C280.64 477.484 280.737 477.87 280.742 478.261C280.74 478.532 280.673 478.801 280.545 479.049C280.418 479.294 280.232 479.514 280.001 479.694C277.058 482.101 262.901 482.815 247.313 482.815ZM202.047 479.851C230.74 481.376 274.175 482.252 278.697 478.504C278.748 478.458 278.874 478.341 278.874 478.261C278.869 478.09 278.821 477.918 278.734 477.764C278.647 477.61 278.523 477.473 278.37 477.364C275.843 475.195 266.289 474.587 259.914 474.495C257.89 474.495 256.416 474.495 255.852 474.495C255.609 474.489 255.378 474.404 255.206 474.252C255.035 474.101 254.937 473.896 254.933 473.681C254.931 473.467 255.025 473.262 255.194 473.108C255.363 472.953 255.594 472.865 255.837 472.859C256.349 472.859 257.913 472.814 260.01 472.859C268.905 472.728 283.611 471.983 286.568 469.399C286.677 469.325 286.766 469.233 286.83 469.128C286.894 469.019 286.931 468.902 286.939 468.782C286.932 468.671 286.898 468.562 286.838 468.463C286.777 468.365 286.693 468.28 286.59 468.214C283.959 466.061 271.907 465.95 263.405 466.253C259.81 466.467 257.342 466.538 257.298 466.547C257.052 466.558 256.811 466.481 256.628 466.336C256.445 466.19 256.336 465.987 256.323 465.77C256.31 465.553 256.396 465.342 256.56 465.179C256.725 465.019 256.956 464.922 257.201 464.911C258.009 464.86 260.752 464.688 264.302 464.583C277.214 463.726 291.297 461.685 291.297 458.61C291.296 458.481 291.259 458.353 291.189 458.242C291.119 458.127 291.019 458.03 290.897 457.956C287.354 455.255 268.431 456.857 258.965 457.956L256.616 458.245C256.381 458.262 256.148 458.196 255.965 458.067C255.782 457.936 255.662 457.751 255.629 457.545C255.596 457.339 255.652 457.128 255.787 456.96C255.923 456.788 256.126 456.671 256.356 456.629C256.757 456.577 257.557 456.472 258.661 456.34C267.23 455.204 283.915 452.417 286.687 449.06C286.8 448.954 286.885 448.829 286.935 448.692C286.985 448.552 286.999 448.406 286.976 448.263C286.857 447.655 285.56 446.259 276.102 446.371C269.624 446.445 261.626 447.176 254.607 447.824C247.721 448.478 242.281 448.949 240.257 448.643C239.739 448.572 239.247 448.392 238.822 448.124C238.397 447.852 238.051 447.495 237.811 447.084C236.136 444.298 238.307 438.339 239.783 434.971C227.953 440.766 208.844 442.054 204.575 442.257L202.047 479.851Z" fill="#313131"/>
<path d="M159.034 308.914L149.339 321.016C149.339 321.016 173.918 352.415 176.764 366.042L197.044 340.15L226.07 348.059L210.586 306.598L205.516 300.811L205.805 309.065L197.081 340.13L159.034 308.914Z" fill="white"/>
<path d="M176.787 366.859C176.724 366.867 176.659 366.867 176.595 366.859C176.41 366.83 176.24 366.753 176.107 366.636C175.975 366.519 175.886 366.368 175.854 366.205C173.059 352.881 148.807 321.801 148.562 321.493C148.453 321.356 148.395 321.19 148.395 321.022C148.395 320.853 148.453 320.691 148.562 320.551L158.257 308.457C158.333 308.36 158.432 308.28 158.548 308.22C158.663 308.163 158.792 308.126 158.924 308.117C159.058 308.103 159.194 308.114 159.322 308.151C159.45 308.189 159.567 308.251 159.666 308.331L196.541 338.62L204.85 309.014L204.576 300.857C204.567 300.683 204.621 300.511 204.731 300.369C204.84 300.223 204.999 300.115 205.184 300.058C205.368 299.998 205.57 299.992 205.758 300.043C205.946 300.092 206.111 300.195 206.229 300.332L211.299 306.122C211.362 306.193 211.409 306.276 211.44 306.364L226.931 347.825C226.987 347.967 226.996 348.121 226.957 348.267C226.92 348.416 226.836 348.55 226.716 348.655C226.595 348.764 226.444 348.841 226.277 348.875C226.111 348.909 225.937 348.904 225.775 348.858L197.431 341.107L177.551 366.508C177.465 366.613 177.351 366.702 177.218 366.765C177.085 366.825 176.938 366.859 176.787 366.859ZM150.467 321.022C153.521 324.947 173.089 350.511 177.21 364.052L195.837 340.267L159.176 310.178L150.467 321.022ZM198.164 339.594L224.589 346.828L209.764 307.004L206.54 303.329L206.74 309.059C206.752 309.134 206.752 309.208 206.74 309.282L198.164 339.594Z" fill="#313131"/>
<path d="M101.628 481.964C115.229 482.161 201.07 484.776 201.07 484.776C201.07 484.776 207.103 475.82 207.103 460.697C207.103 446.188 203.849 438.063 203.849 438.063L106.876 434.525L101.628 481.964Z" fill="white"/>
<path d="M201.069 485.575C200.209 485.575 115.088 482.957 101.65 482.78C101.403 482.778 101.168 482.689 100.996 482.535C100.824 482.378 100.729 482.169 100.73 481.952C100.73 481.844 100.755 481.736 100.803 481.638C100.85 481.539 100.92 481.447 101.008 481.373C101.096 481.299 101.2 481.239 101.314 481.199C101.428 481.162 101.55 481.142 101.672 481.147C114.547 481.316 193.049 483.691 200.558 483.92C201.699 482.004 206.206 473.584 206.206 460.677C206.206 448.532 203.878 440.838 203.189 438.836L106.831 435.316C106.599 435.29 106.387 435.19 106.236 435.033C106.086 434.876 106.007 434.674 106.018 434.468C106.028 434.263 106.126 434.068 106.292 433.923C106.457 433.78 106.679 433.694 106.912 433.689L203.886 437.226C204.071 437.232 204.25 437.289 204.399 437.386C204.548 437.483 204.661 437.614 204.723 437.768C204.857 438.111 208.029 446.196 208.029 460.666C208.029 475.84 202.1 484.79 201.862 485.164C201.783 485.287 201.668 485.393 201.529 485.464C201.39 485.536 201.231 485.575 201.069 485.575Z" fill="#313131"/>
<path d="M112.115 435.325C112.022 435.325 111.929 435.31 111.841 435.285C111.724 435.253 111.616 435.199 111.523 435.131C111.429 435.062 111.352 434.976 111.295 434.882C111.239 434.788 111.204 434.682 111.194 434.574C111.183 434.468 111.196 434.36 111.233 434.257L123.923 398.278C123.959 398.175 124.017 398.081 124.095 397.998C124.173 397.916 124.268 397.847 124.376 397.796C124.484 397.747 124.602 397.716 124.723 397.707C124.844 397.696 124.966 397.707 125.083 397.739C125.199 397.77 125.307 397.821 125.401 397.893C125.494 397.961 125.572 398.044 125.629 398.138C125.685 398.235 125.721 398.338 125.732 398.447C125.743 398.552 125.73 398.661 125.694 398.764L112.997 434.742C112.94 434.908 112.824 435.056 112.665 435.162C112.506 435.265 112.313 435.322 112.115 435.325Z" fill="#313131"/>
<path d="M155.763 372.994L146.689 375.301L158.583 411.742L167.657 409.436L155.763 372.994Z" fill="#FFA620"/>
<path d="M158.62 412.553C158.419 412.55 158.224 412.493 158.064 412.385C157.903 412.276 157.787 412.128 157.731 411.957L145.871 375.521C145.804 375.313 145.833 375.09 145.951 374.899C146.069 374.71 146.267 374.57 146.501 374.507L155.581 372.203C155.698 372.172 155.82 372.164 155.941 372.172C156.062 372.183 156.179 372.218 156.285 372.269C156.392 372.321 156.485 372.392 156.56 372.475C156.635 372.56 156.69 372.657 156.723 372.76L168.582 409.196C168.649 409.404 168.619 409.63 168.5 409.818C168.38 410.009 168.181 410.149 167.945 410.209L158.872 412.519C158.79 412.539 158.706 412.55 158.62 412.553ZM147.88 375.855L159.258 410.72L166.551 408.862L155.136 374.002L147.88 375.855Z" fill="#313131"/>
<path d="M154.255 368.384L145.181 370.69L146.687 375.304L155.761 372.997L154.255 368.384Z" fill="white"/>
<path d="M150.646 362.919L144.962 364.364L146.884 370.253L152.568 368.809L150.646 362.919Z" fill="white"/>
<path d="M146.693 376.115C146.535 376.115 146.38 376.078 146.241 376.012C146.135 375.958 146.041 375.889 145.966 375.804C145.891 375.721 145.836 375.624 145.803 375.521L144.321 370.907C144.287 370.807 144.276 370.699 144.29 370.593C144.303 370.485 144.34 370.382 144.399 370.291C144.457 370.197 144.536 370.114 144.631 370.048C144.726 369.98 144.834 369.931 144.951 369.902L154.031 367.593C154.266 367.533 154.517 367.559 154.731 367.664C154.945 367.767 155.104 367.941 155.173 368.149L156.655 372.726C156.724 372.934 156.696 373.16 156.578 373.348C156.46 373.54 156.261 373.68 156.025 373.742L146.945 376.049C146.864 376.081 146.78 376.104 146.693 376.115ZM146.33 371.241L147.323 374.285L154.616 372.426L153.631 369.391L146.33 371.241Z" fill="#313131"/>
<path d="M146.886 371.073C146.728 371.07 146.573 371.033 146.434 370.967C146.328 370.916 146.235 370.845 146.16 370.762C146.085 370.676 146.029 370.579 145.997 370.476L144.07 364.589C144.003 364.381 144.033 364.158 144.153 363.97C144.272 363.781 144.472 363.641 144.707 363.582L150.385 362.137C150.502 362.106 150.624 362.097 150.745 362.108C150.866 362.12 150.983 362.154 151.09 362.205C151.196 362.257 151.291 362.325 151.367 362.411C151.443 362.494 151.5 362.591 151.534 362.694L153.454 368.581C153.494 368.689 153.508 368.803 153.494 368.915C153.479 369.029 153.438 369.137 153.372 369.234C153.315 369.329 153.237 369.411 153.143 369.48C153.048 369.546 152.94 369.597 152.824 369.626L147.138 371.073C147.055 371.082 146.97 371.082 146.886 371.073ZM146.145 364.923L147.554 369.24L151.452 368.247L150.044 363.936L146.145 364.923Z" fill="#313131"/>
<path d="M163.415 383.318C163.215 383.318 163.02 383.261 162.859 383.155C162.699 383.05 162.582 382.898 162.526 382.73L158.575 370.627L155.269 371.464C155.038 371.512 154.794 371.481 154.588 371.375C154.382 371.27 154.231 371.099 154.165 370.896C154.099 370.693 154.124 370.476 154.235 370.291C154.345 370.105 154.532 369.962 154.758 369.894L158.953 368.829C159.07 368.797 159.193 368.789 159.315 368.8C159.436 368.815 159.553 368.846 159.66 368.9C159.767 368.952 159.861 369.023 159.937 369.106C160.012 369.191 160.069 369.288 160.102 369.391L164.312 382.279C164.378 382.487 164.349 382.71 164.229 382.898C164.109 383.087 163.91 383.227 163.675 383.287C163.591 383.309 163.503 383.321 163.415 383.318Z" fill="#313131"/>
<path d="M139.259 386.875H181.731V414.306L160.495 432.307L139.259 415.816V386.875Z" fill="white"/>
<path d="M160.496 433.098C160.268 433.098 160.049 433.024 159.88 432.889L138.645 416.399C138.546 416.322 138.468 416.23 138.414 416.125C138.36 416.019 138.333 415.905 138.333 415.791V386.875C138.333 386.661 138.431 386.453 138.604 386.299C138.778 386.145 139.014 386.059 139.26 386.059H181.732C181.977 386.059 182.213 386.145 182.387 386.299C182.56 386.453 182.658 386.661 182.658 386.875V414.306C182.658 414.415 182.632 414.526 182.583 414.626C182.533 414.729 182.46 414.817 182.369 414.894L161.133 432.895C160.958 433.032 160.73 433.106 160.496 433.098ZM140.186 415.437L160.466 431.188L180.805 413.952V387.695H140.186V415.437Z" fill="#313131"/>
<path d="M181.731 395.506H139.26C139.014 395.506 138.778 395.42 138.604 395.266C138.431 395.112 138.333 394.904 138.333 394.687C138.333 394.47 138.431 394.264 138.604 394.11C138.778 393.956 139.014 393.87 139.26 393.87H181.731C181.977 393.87 182.213 393.956 182.387 394.11C182.56 394.264 182.658 394.47 182.658 394.687C182.658 394.904 182.56 395.112 182.387 395.266C182.213 395.42 181.977 395.506 181.731 395.506Z" fill="#313131"/>
<path d="M184.236 485.065C184.103 485.067 183.972 485.042 183.851 484.993C183.628 484.905 183.455 484.739 183.369 484.536C183.283 484.334 183.291 484.111 183.391 483.914C183.436 483.823 187.927 474.932 188.647 460.828C189.188 450.082 186.808 437.717 186.786 437.594C186.743 437.38 186.797 437.163 186.936 436.986C187.075 436.809 187.288 436.689 187.527 436.652C187.768 436.615 188.015 436.664 188.216 436.786C188.417 436.906 188.555 437.095 188.602 437.306C188.602 437.429 191.033 449.971 190.477 460.854C189.736 475.298 185.289 484.168 185.066 484.542C185 484.691 184.887 484.819 184.74 484.913C184.592 485.005 184.417 485.059 184.236 485.065Z" fill="#313131"/>
<path d="M195.31 481.664C194.561 481.664 193.829 481.467 193.206 481.099C192.583 480.733 192.098 480.211 191.811 479.6C191.524 478.989 191.449 478.318 191.595 477.67C191.742 477.019 192.102 476.425 192.632 475.957C193.162 475.489 193.836 475.172 194.571 475.043C195.306 474.912 196.068 474.981 196.76 475.232C197.452 475.486 198.043 475.914 198.46 476.462C198.876 477.013 199.098 477.659 199.098 478.321C199.096 479.206 198.696 480.057 197.986 480.682C197.276 481.31 196.314 481.661 195.31 481.664ZM195.31 476.619C194.927 476.619 194.553 476.719 194.235 476.908C193.916 477.096 193.668 477.362 193.522 477.676C193.376 477.987 193.338 478.332 193.413 478.663C193.489 478.995 193.673 479.297 193.945 479.537C194.216 479.774 194.561 479.937 194.937 480.003C195.313 480.068 195.702 480.034 196.056 479.903C196.409 479.771 196.711 479.551 196.922 479.272C197.134 478.989 197.246 478.658 197.245 478.321C197.243 477.87 197.038 477.436 196.676 477.119C196.313 476.799 195.822 476.619 195.31 476.619Z" fill="#313131"/>
<path d="M192.449 353.717C192.277 353.714 192.107 353.672 191.96 353.595C191.854 353.535 191.762 353.457 191.691 353.366C191.62 353.275 191.57 353.172 191.545 353.064L190.3 347.79C190.269 347.679 190.267 347.562 190.292 347.451C190.318 347.336 190.371 347.231 190.448 347.137L196.303 339.659C196.415 339.517 196.576 339.408 196.763 339.351C196.95 339.294 197.153 339.294 197.341 339.345L206.058 341.752C206.223 341.798 206.37 341.883 206.482 342C206.595 342.115 206.669 342.257 206.695 342.409L208.015 349.643C208.051 349.846 208 350.051 207.871 350.223C207.741 350.394 207.544 350.517 207.318 350.565L192.664 353.692C192.594 353.709 192.522 353.717 192.449 353.717ZM192.197 347.83L193.168 351.933L206.058 349.152L204.968 343.165L197.438 341.107L192.197 347.83Z" fill="#313131"/>
<path d="M527.509 485.43V323.666L500.827 314.024L462.948 359.644L464.853 307.926C464.853 307.926 449.756 312.226 437.799 304.003C425.842 295.781 413.815 279.262 413.815 279.262C413.815 279.262 416.548 287.464 413.815 291.693C411.078 295.918 405.446 299.45 404.275 305.083C403.104 310.713 408.661 314.239 404.275 319.86C399.885 325.479 396.245 327.303 395.068 333.438C393.89 339.574 397.061 348.804 383.949 351.179C383.949 351.179 395.527 354.791 398.649 372.989C401.768 391.186 399.425 485.43 399.425 485.43H527.509Z" fill="white"/>
<path d="M399.425 486.269C399.306 486.266 399.186 486.241 399.073 486.198C398.963 486.155 398.862 486.092 398.778 486.015C398.694 485.938 398.629 485.847 398.584 485.747C398.539 485.644 398.519 485.538 398.523 485.43C398.523 484.488 400.826 391.029 397.782 373.114C394.815 355.687 383.794 351.984 383.697 351.95C383.506 351.89 383.344 351.776 383.234 351.628C383.121 351.476 383.069 351.299 383.082 351.119C383.098 350.942 383.176 350.774 383.312 350.64C383.444 350.506 383.625 350.417 383.823 350.383C393.46 348.635 393.66 343.043 393.861 337.632C393.877 336.182 394 334.737 394.23 333.301C395.084 328.808 397.196 326.518 399.901 323.62C401.014 322.424 402.272 321.068 403.608 319.4C405.934 316.411 405.171 314.136 404.287 311.498C403.65 309.596 402.926 307.449 403.459 304.957C404.275 301.117 406.934 298.299 409.509 295.57C410.832 294.251 412.029 292.832 413.08 291.33C415.584 287.464 413.022 279.622 412.99 279.556C412.944 279.371 412.97 279.176 413.067 279.006C413.164 278.836 413.326 278.7 413.523 278.623C413.721 278.546 413.944 278.532 414.151 278.583C414.361 278.633 414.542 278.747 414.665 278.902C414.785 279.066 426.732 295.427 438.43 303.441C449.852 311.289 464.491 307.252 464.633 307.207C464.775 307.167 464.924 307.158 465.073 307.181C465.219 307.204 465.358 307.255 465.477 307.335C465.597 307.415 465.691 307.518 465.756 307.638C465.82 307.758 465.853 307.886 465.846 308.017L464.038 357.081L500.144 313.593C500.267 313.445 500.441 313.339 500.639 313.291C500.836 313.239 501.05 313.251 501.24 313.316L527.923 322.96C528.094 323.02 528.24 323.126 528.34 323.263C528.443 323.397 528.495 323.557 528.495 323.717V485.43C528.495 485.647 528.398 485.855 528.224 486.01C528.049 486.164 527.813 486.249 527.57 486.249C527.324 486.249 527.088 486.164 526.913 486.01C526.739 485.855 526.642 485.647 526.642 485.43V324.217L501.172 315.058L463.727 360.193C463.611 360.332 463.446 360.435 463.258 360.487C463.071 360.535 462.867 360.532 462.682 360.475C462.498 360.418 462.336 360.312 462.223 360.17C462.113 360.027 462.055 359.856 462.058 359.684L463.912 309.079C459.968 309.936 447.607 311.82 437.229 304.743C428.498 298.756 419.877 288.563 415.675 283.246C416.111 286.051 416.231 289.697 414.62 292.181C413.517 293.765 412.258 295.261 410.864 296.657C408.448 299.227 405.941 301.891 405.216 305.297C404.763 307.424 405.365 309.222 405.992 311.101C406.927 313.879 407.898 316.759 405.067 320.388C403.718 322.115 402.437 323.503 401.302 324.725C398.684 327.54 396.795 329.573 396.016 333.635C395.802 335 395.689 336.373 395.676 337.749C395.491 342.806 395.262 349.001 386.521 351.488C390.183 353.54 397.232 359.179 399.59 372.917C402.689 390.972 400.47 481.67 400.383 485.521C400.36 485.73 400.25 485.924 400.072 486.061C399.894 486.201 399.665 486.275 399.425 486.269Z" fill="#313131"/>
<path d="M219.399 440.686C219.276 440.689 219.153 440.666 219.04 440.624C218.926 440.581 218.824 440.518 218.739 440.438L190.573 415.006C190.488 414.929 190.422 414.837 190.377 414.737C190.332 414.637 190.311 414.532 190.314 414.423L191.551 352.887C191.559 352.704 191.636 352.527 191.771 352.384C191.905 352.241 192.088 352.141 192.293 352.101L206.946 348.975C207.142 348.932 207.348 348.95 207.533 349.018C207.718 349.089 207.871 349.212 207.969 349.369L241.235 401.236C241.339 401.399 241.376 401.587 241.339 401.773L234.742 436.632C234.718 436.767 234.655 436.892 234.561 437.001C234.466 437.106 234.342 437.192 234.201 437.246C230.154 438.785 219.984 440.595 219.555 440.675L219.399 440.686ZM192.144 414.129L219.681 438.988C221.697 438.614 229.383 437.169 233.022 435.919L239.412 401.793L206.658 350.708L193.382 353.549L192.144 414.129Z" fill="#313131"/>
<path d="M191.574 397.253C191.435 397.253 191.298 397.225 191.174 397.168C191.064 397.122 190.965 397.056 190.883 396.976C190.802 396.896 190.739 396.802 190.698 396.702C190.657 396.599 190.64 396.491 190.646 396.385C190.653 396.277 190.684 396.171 190.737 396.074L211.646 357.8C211.753 357.606 211.944 357.455 212.176 357.383C212.408 357.312 212.663 357.326 212.884 357.42C213.105 357.514 213.275 357.683 213.355 357.889C213.436 358.094 213.421 358.317 213.314 358.514L192.404 396.788C192.329 396.925 192.211 397.042 192.065 397.125C191.918 397.208 191.748 397.25 191.574 397.253Z" fill="#313131"/>
<path d="M198.171 421.541C198.033 421.538 197.896 421.512 197.77 421.461C197.661 421.415 197.562 421.352 197.48 421.272C197.399 421.192 197.336 421.101 197.295 420.998C197.255 420.898 197.237 420.79 197.244 420.684C197.25 420.576 197.28 420.473 197.333 420.376L222.06 374.048C222.165 373.854 222.355 373.702 222.586 373.628C222.817 373.557 223.072 373.565 223.294 373.66C223.517 373.751 223.688 373.919 223.771 374.122C223.853 374.328 223.84 374.553 223.735 374.747L199.008 421.07C198.934 421.21 198.815 421.329 198.667 421.412C198.519 421.495 198.347 421.541 198.171 421.541Z" fill="#313131"/>
<path d="M210.994 433.098C210.858 433.098 210.724 433.072 210.601 433.021C210.379 432.927 210.207 432.761 210.124 432.555C210.041 432.35 210.052 432.124 210.156 431.927L232.393 390.173C232.445 390.076 232.518 389.987 232.609 389.916C232.699 389.845 232.805 389.787 232.92 389.75C233.035 389.716 233.157 389.699 233.279 389.705C233.401 389.708 233.52 389.736 233.631 389.782C233.741 389.827 233.84 389.893 233.923 389.97C234.004 390.05 234.068 390.144 234.109 390.247C234.151 390.347 234.169 390.456 234.163 390.564C234.157 390.67 234.127 390.775 234.075 390.872L211.839 432.627C211.764 432.77 211.644 432.889 211.494 432.972C211.345 433.055 211.171 433.101 210.994 433.098Z" fill="#313131"/>
<path d="M225.129 439.562C224.979 439.564 224.831 439.533 224.699 439.47C224.591 439.422 224.495 439.353 224.417 439.27C224.338 439.188 224.279 439.093 224.243 438.991C224.206 438.888 224.193 438.779 224.204 438.671C224.215 438.565 224.25 438.46 224.306 438.365L235.966 418.806C236.081 418.615 236.278 418.469 236.513 418.406C236.749 418.34 237.004 418.36 237.222 418.463C237.44 418.563 237.604 418.737 237.677 418.946C237.75 419.154 237.726 419.38 237.611 419.571L225.945 439.131C225.866 439.262 225.749 439.37 225.605 439.447C225.461 439.522 225.297 439.562 225.129 439.562Z" fill="#313131"/>
<path d="M500.794 314.044C500.794 314.044 549.633 330.677 558.002 337.475C572.65 349.375 598.851 418.212 598.851 418.212C596.149 416.424 592.947 415.322 589.589 415.026C586.231 414.729 582.844 415.245 579.796 416.522C568.898 420.893 570.751 424.144 562.978 425.138C553.26 426.38 546.068 419.16 539.844 424.15C533.617 429.141 527.509 426.38 527.509 426.38L500.794 314.044Z" fill="white"/>
<path d="M531.705 427.95C530.116 427.967 528.541 427.676 527.095 427.094C526.985 427.045 526.888 426.979 526.807 426.897C526.729 426.817 526.668 426.723 526.629 426.62C526.59 426.517 526.574 426.409 526.584 426.3C526.593 426.194 526.626 426.089 526.681 425.992C526.736 425.897 526.813 425.812 526.907 425.74C526.998 425.672 527.108 425.618 527.224 425.583C527.337 425.552 527.46 425.538 527.583 425.546C527.706 425.555 527.823 425.586 527.933 425.635C528.162 425.735 533.565 428.05 539.22 423.522C543.208 420.33 548.019 421.658 552.674 422.94C556.003 423.856 559.442 424.804 562.829 424.313C567.031 423.699 568.276 422.68 570.153 421.141C572.834 418.857 575.972 417.03 579.411 415.756C582.187 414.583 585.241 414.012 588.317 414.089C591.394 414.166 594.405 414.891 597.103 416.202C592.419 404.271 570.143 348.675 557.397 338.052C548.892 330.98 500.982 314.952 500.493 314.789C500.377 314.752 500.273 314.692 500.186 314.621C500.095 314.547 500.024 314.458 499.976 314.358C499.924 314.261 499.898 314.156 499.895 314.047C499.892 313.941 499.911 313.833 499.953 313.733C499.998 313.633 500.063 313.542 500.147 313.462C500.231 313.385 500.332 313.322 500.442 313.276C500.552 313.233 500.675 313.208 500.794 313.205C500.917 313.202 501.037 313.219 501.153 313.259C503.14 313.913 549.895 329.567 558.662 336.861C573.258 348.995 598.689 415.117 599.763 417.929C599.83 418.1 599.83 418.283 599.766 418.454C599.701 418.623 599.575 418.771 599.403 418.871C599.235 418.971 599.035 419.02 598.831 419.011C598.627 419 598.436 418.931 598.281 418.811C595.719 417.115 592.678 416.071 589.491 415.796C586.302 415.52 583.089 416.022 580.204 417.25C576.949 418.449 573.976 420.176 571.44 422.337C569.464 423.953 567.907 425.229 563.155 425.923C559.338 426.486 555.676 425.478 552.14 424.504C547.605 423.248 543.69 422.169 540.488 424.733C538.136 426.757 534.991 427.91 531.705 427.95Z" fill="#313131"/>
<path d="M527.509 429.789C527.269 429.786 527.036 429.703 526.865 429.555C526.693 429.406 526.59 429.204 526.583 428.989L525.176 381.12C525.173 381.011 525.192 380.906 525.238 380.806C525.28 380.706 525.348 380.614 525.432 380.537C525.516 380.457 525.616 380.395 525.726 380.352C525.839 380.309 525.959 380.286 526.079 380.283C526.321 380.283 526.554 380.366 526.726 380.514C526.9 380.663 527.001 380.868 527.007 381.08L528.414 428.944C528.418 429.052 528.398 429.158 528.356 429.258C528.311 429.358 528.246 429.452 528.162 429.529C528.081 429.606 527.981 429.669 527.868 429.712C527.758 429.757 527.638 429.78 527.518 429.783L527.509 429.789Z" fill="#313131"/>
<path d="M464.892 304.232C464.892 304.232 447.407 310.119 447.724 315.946C448.044 321.776 453.654 326.269 453.359 331.568C453.062 336.867 444.56 342.446 445.204 347.745C445.851 353.044 451.874 353.92 452.159 359.624C452.44 365.329 451.467 379.761 455.737 381.08C460.007 382.402 471.119 370.345 474.267 367.553C477.418 364.761 488.812 361.634 493.865 354.554C498.921 347.476 492.681 341.635 495.958 337.435C499.231 333.236 511.35 332.125 514.145 327.383C516.94 322.638 500.804 305.625 500.804 305.625L462.883 359.624L464.892 304.232Z" fill="white"/>
<path d="M456.404 382.016C456.07 382.019 455.734 381.97 455.42 381.873C451.713 380.728 451.364 373.12 451.305 364.047C451.305 362.319 451.305 360.829 451.224 359.684C451.076 357.021 449.549 355.522 447.931 353.934C446.317 352.344 444.612 350.662 444.272 347.856C443.907 344.77 446.243 341.726 448.504 338.788C450.38 336.35 452.321 333.832 452.431 331.554C452.551 329.056 451.231 326.689 449.837 324.182C448.442 321.678 446.961 319.04 446.799 316.006C446.456 309.719 462.498 304.46 464.329 303.883C464.472 303.838 464.624 303.823 464.773 303.843C464.925 303.86 465.067 303.912 465.19 303.989C465.313 304.066 465.41 304.169 465.478 304.289C465.546 304.409 465.578 304.543 465.575 304.677L463.941 356.635L500.047 305.214C500.128 305.1 500.238 305.008 500.364 304.94C500.493 304.874 500.639 304.834 500.788 304.825C500.93 304.82 501.069 304.845 501.199 304.897C501.328 304.948 501.441 305.025 501.529 305.119C503.221 306.907 517.956 322.698 514.96 327.78C513.33 330.54 509.076 332.105 504.971 333.615C501.597 334.851 498.113 336.133 496.712 337.921C495.473 339.511 495.838 341.421 496.304 343.808C496.906 346.908 497.647 350.774 494.645 354.973C491.19 359.816 484.868 362.882 480.259 365.126C477.923 366.265 475.907 367.244 474.914 368.121C474.342 368.626 473.429 369.477 472.459 370.456C466.442 376.357 460.295 382.016 456.404 382.016ZM463.676 305.848C458.487 307.658 448.436 311.977 448.653 315.928C448.792 318.624 450.17 321.082 451.496 323.463C452.936 326.041 454.463 328.696 454.285 331.62C454.152 334.369 452.062 337.081 450.037 339.714C448.015 342.343 445.819 345.187 446.116 347.679C446.391 349.977 447.805 351.37 449.303 352.841C450.985 354.488 452.89 356.361 453.078 359.604C453.136 360.783 453.149 362.294 453.159 364.032C453.159 369.431 453.253 379.472 456.035 380.329C458.814 381.185 467.458 372.931 471.103 369.391C472.155 368.338 473.015 367.527 473.636 367.03C474.817 365.991 476.943 364.955 479.405 363.758C484.082 361.477 489.915 358.642 493.111 354.163C495.735 350.485 495.088 347.117 494.518 344.142C494.02 341.578 493.554 339.157 495.259 337.018C496.964 334.877 500.545 333.524 504.33 332.131C508.118 330.737 512.072 329.284 513.388 327.054C515.138 324.085 507.028 313.593 501.005 307.069L463.773 360.101C463.663 360.252 463.501 360.367 463.31 360.429C463.12 360.492 462.912 360.498 462.715 360.447C462.521 360.395 462.353 360.287 462.233 360.144C462.113 359.998 462.049 359.824 462.052 359.644L463.676 305.848Z" fill="#313131"/>
<path d="M435.836 409.812C427.764 409.812 423.672 401.099 423.666 383.906C423.666 375.932 431.818 369.443 441.885 369.443C451.949 369.443 460.101 375.926 460.111 383.9C460.088 395.035 446.249 409.812 435.836 409.812ZM441.885 375.378C435.548 375.378 430.394 379.204 430.394 383.88C430.394 398.535 433.649 403.851 435.836 403.851C442.031 403.851 453.379 392.077 453.379 383.88C453.356 379.198 448.2 375.378 441.862 375.378H441.885Z" fill="#FFA620"/>
<path d="M354.355 409.824C347.342 409.824 340.723 403.406 338.203 400.665C333.111 395.101 330.051 388.845 330.051 383.94C330.051 375.966 338.203 369.477 348.267 369.477C358.334 369.477 366.487 375.958 366.496 383.932C366.519 401.105 362.456 409.824 354.355 409.824ZM348.29 375.395C341.952 375.395 336.802 379.215 336.802 383.901C336.802 391.749 348.461 403.866 354.355 403.866C356.542 403.866 359.787 398.547 359.787 383.895C359.787 379.215 354.627 375.395 348.29 375.395Z" fill="#FFA620"/>
<path d="M435.835 410.629C431.387 410.629 428.052 408.274 425.865 403.617C423.791 399.2 422.737 392.568 422.737 383.906C422.737 375.481 431.322 368.626 441.885 368.626C452.447 368.626 461.03 375.475 461.036 383.9C461.036 395.389 446.673 410.623 435.835 410.629ZM441.885 370.262C432.345 370.262 424.59 376.383 424.59 383.906C424.59 392.351 425.6 398.775 427.557 402.995C429.453 407.032 432.16 408.993 435.813 408.993C445.634 408.993 459.163 394.453 459.163 383.9C459.153 376.378 451.402 370.262 441.862 370.262H441.885ZM435.835 404.691C432.869 404.691 429.469 399.246 429.469 383.9C429.488 382.619 429.831 381.36 430.472 380.209C431.112 379.058 432.037 378.051 433.173 377.254C435.632 375.481 438.718 374.527 441.891 374.559C445.065 374.525 448.151 375.475 450.606 377.248C451.745 378.045 452.667 379.056 453.308 380.206C453.948 381.357 454.291 382.619 454.314 383.9C454.314 387.826 451.823 392.908 447.643 397.487C444.457 400.968 439.688 404.691 435.835 404.691ZM441.862 376.189C439.129 376.161 436.473 376.98 434.354 378.505C433.425 379.15 432.671 379.966 432.147 380.9C431.62 381.833 431.335 382.858 431.313 383.9C431.313 398.515 434.619 403.055 435.829 403.055C438.436 403.055 442.609 400.405 446.204 396.46C450.111 392.169 452.447 387.472 452.447 383.9C452.424 382.858 452.14 381.833 451.612 380.9C451.088 379.969 450.335 379.15 449.406 378.505C447.278 376.974 444.605 376.155 441.862 376.189Z" fill="#313131"/>
<path d="M354.352 410.643C346.941 410.643 340.086 404.008 337.475 401.165C332.286 395.446 329.145 389.002 329.145 383.921C329.161 381.865 329.676 379.838 330.649 377.971C331.623 376.104 333.037 374.442 334.793 373.094C338.514 370.188 343.321 368.601 348.29 368.638C353.255 368.598 358.063 370.182 361.78 373.089C363.54 374.433 364.953 376.095 365.93 377.962C366.904 379.829 367.418 381.859 367.438 383.915C367.438 401.647 363.035 410.643 354.346 410.643H354.352ZM348.299 370.299C343.787 370.262 339.419 371.695 336.039 374.331C334.473 375.527 333.215 377.003 332.348 378.659C331.481 380.318 331.021 382.119 331.005 383.946C331.005 388.668 333.972 394.732 338.928 400.163C341.367 402.832 347.75 409.033 354.362 409.033C361.819 409.033 365.597 400.588 365.597 383.941C365.578 382.113 365.118 380.312 364.251 378.656C363.381 377 362.123 375.524 360.557 374.331C357.176 371.695 352.809 370.262 348.299 370.299ZM354.352 404.728C350.648 404.728 345.883 400.933 342.651 397.382C338.41 392.72 335.874 387.695 335.874 383.946C335.874 378.79 341.441 374.605 348.29 374.605C351.463 374.573 354.549 375.524 357.008 377.294C358.144 378.091 359.066 379.098 359.706 380.249C360.347 381.4 360.693 382.659 360.712 383.941C360.712 390.533 360.046 395.969 358.778 399.64C357.652 402.909 356.08 404.708 354.333 404.708L354.352 404.728ZM348.29 375.424V376.189C342.464 376.189 337.727 379.641 337.727 383.895C337.727 387.238 340.167 391.992 344.094 396.323C347.756 400.351 351.884 403.06 354.352 403.06C354.718 403.06 355.902 402.361 357.008 399.135C357.852 396.668 358.862 392.017 358.862 383.895C358.839 382.853 358.554 381.828 358.027 380.894C357.503 379.961 356.749 379.141 355.821 378.496C353.699 376.974 351.036 376.155 348.299 376.189L348.29 375.424Z" fill="#313131"/>
<path d="M420.434 487.009V490.089H369.097V487.009C369.097 485.076 369.968 483.22 371.514 481.856C373.063 480.488 375.163 479.72 377.353 479.72H389.591V434.794C367.668 430.097 348.312 406.86 348.312 378.91C348.287 371.895 349.367 364.915 351.528 358.166H438.647C440.811 364.915 441.898 371.895 441.878 378.91C441.878 406.86 421.863 430.097 399.94 434.799V479.734H412.175C413.258 479.731 414.332 479.92 415.335 480.285C416.335 480.651 417.244 481.187 418.011 481.861C418.777 482.538 419.385 483.34 419.803 484.222C420.217 485.105 420.434 486.052 420.434 487.009Z" fill="#FFA620"/>
<path d="M369.127 490.92C368.881 490.92 368.645 490.834 368.47 490.68C368.298 490.526 368.201 490.318 368.201 490.101V487.02C368.195 484.873 369.159 482.809 370.873 481.284C372.588 479.763 374.92 478.9 377.353 478.889H388.666V435.422C377.806 432.895 367.635 426.029 359.965 416.019C351.706 405.013 347.323 392.097 347.365 378.896C347.339 371.807 348.439 364.746 350.626 357.923C350.681 357.754 350.8 357.606 350.959 357.497C351.121 357.392 351.315 357.335 351.515 357.335H438.631C438.831 357.332 439.028 357.389 439.19 357.494C439.352 357.6 439.468 357.751 439.52 357.923C441.71 364.746 442.81 371.804 442.787 378.896C442.787 408.333 421.598 430.574 400.852 435.422V478.903H412.162C413.368 478.901 414.562 479.112 415.675 479.517C416.791 479.923 417.804 480.519 418.654 481.273C419.508 482.024 420.185 482.917 420.647 483.9C421.107 484.885 421.346 485.938 421.346 487V490.081C421.346 490.298 421.249 490.506 421.074 490.66C420.899 490.814 420.663 490.9 420.417 490.9L369.127 490.92ZM352.211 358.99C350.211 365.483 349.215 372.186 349.247 378.916C349.247 404.93 367.082 429.135 389.827 434.008C390.038 434.046 390.225 434.143 390.358 434.288C390.494 434.431 390.568 434.614 390.571 434.799V479.726C390.571 479.943 390.471 480.151 390.3 480.305C390.125 480.459 389.889 480.545 389.643 480.545H377.353C375.409 480.545 373.546 481.227 372.174 482.441C370.799 483.654 370.026 485.299 370.023 487.014V489.278H419.528V487.009C419.528 486.158 419.34 485.319 418.971 484.533C418.603 483.748 418.062 483.035 417.383 482.435C416.7 481.835 415.892 481.359 415.002 481.033C414.116 480.711 413.161 480.545 412.197 480.545H399.94C399.694 480.545 399.458 480.459 399.283 480.305C399.109 480.151 399.011 479.943 399.011 479.726V434.794C399.015 434.605 399.089 434.425 399.222 434.28C399.358 434.137 399.545 434.037 399.752 434.003C420.02 429.652 440.989 407.837 440.979 378.901C441.011 372.172 440.015 365.471 438.016 358.976L352.211 358.99Z" fill="#313131"/>
<path d="M395.074 360.415C419.101 360.415 438.579 359.407 438.579 358.166C438.579 356.924 419.101 355.916 395.074 355.916C371.051 355.916 351.573 356.924 351.573 358.166C351.573 359.407 371.051 360.415 395.074 360.415Z" fill="#FFA620"/>
<path d="M394.935 361.229C383.35 361.229 372.461 360.998 364.254 360.572C350.638 359.873 350.638 359.051 350.638 358.174C350.638 357.298 350.638 356.467 364.254 355.764C372.491 355.333 383.431 355.111 395.074 355.111H395.21C406.801 355.111 417.69 355.339 425.888 355.764C439.542 356.452 439.542 357.283 439.542 358.154C439.542 359.022 439.542 359.853 425.926 360.561C417.69 360.986 406.749 361.215 395.113 361.215L394.935 361.229ZM354.575 358.174C359.971 358.874 374.16 359.593 394.929 359.593H395.074C415.927 359.593 430.158 358.859 435.57 358.16C430.174 357.46 415.985 356.732 395.216 356.732H395.068C374.225 356.741 359.987 357.466 354.575 358.174Z" fill="#313131"/>
<path d="M588.786 414.574C587.243 429.369 581.886 459.389 563.582 466.907C544.793 474.658 438.058 476.437 428.498 476.776C423.523 476.959 412.116 478.778 401.997 479.726C395.246 480.382 389.07 480.611 385.78 479.726C384.541 479.394 383.713 478.903 383.415 478.215C381.652 474.147 383.81 472.186 383.81 472.186C383.81 472.186 378.961 473.493 377.301 469.896C375.855 466.741 380.045 463.452 380.045 463.452C380.045 463.452 375.114 463.001 375.655 458.539C376.091 454.961 380.442 453.168 380.442 453.168C379.766 453.051 379.126 452.814 378.556 452.469C377.99 452.123 377.512 451.678 377.149 451.158C376.787 450.642 376.551 450.065 376.454 449.463C376.357 448.86 376.405 448.246 376.59 447.661C377.211 444.912 383.519 443.735 389.581 443.179C393.667 442.833 397.633 442.788 399.694 442.788L399.93 436.244C399.93 436.244 413.753 445.594 427.661 447.313C447.116 449.708 527.561 430.822 527.561 430.822L527.515 426.329C527.515 426.329 533.616 429.075 539.844 424.084C546.068 419.094 554.453 426.329 562.977 425.078C571.502 423.83 568.907 420.833 579.793 416.464C582.62 415.317 585.677 414.674 588.786 414.574Z" fill="white"/>
<path d="M391.888 481.122C389.74 481.185 387.592 480.979 385.505 480.511C383.913 480.088 382.943 479.432 382.542 478.51C381.717 476.862 381.571 475.012 382.128 473.276C380.096 473.342 377.583 472.734 376.434 470.23C375.286 467.723 377.033 465.257 378.31 463.909C377.356 463.592 376.509 463.064 375.855 462.373C375.373 461.822 375.024 461.188 374.83 460.514C374.635 459.838 374.597 459.135 374.723 458.447C374.904 457.414 375.325 456.423 375.965 455.541C376.602 454.656 377.44 453.899 378.427 453.32C377.644 452.932 376.971 452.389 376.463 451.735C376.02 451.11 375.726 450.411 375.596 449.68C375.47 448.952 375.512 448.207 375.722 447.49C376.337 444.795 380.85 443.122 389.533 442.362C392.971 442.068 396.359 441.977 398.84 441.963L399.047 436.253C399.053 436.101 399.105 435.956 399.196 435.83C399.289 435.705 399.422 435.605 399.574 435.539C399.729 435.476 399.901 435.45 400.069 435.465C400.24 435.479 400.402 435.533 400.538 435.625C400.671 435.716 414.339 444.86 427.838 446.528C445.938 448.76 518.748 432.059 526.671 430.22V426.363C526.668 426.22 526.706 426.08 526.781 425.958C526.858 425.835 526.968 425.729 527.104 425.655C527.24 425.581 527.395 425.538 527.554 425.532C527.712 425.526 527.871 425.558 528.013 425.624C528.243 425.721 533.655 428.036 539.3 423.511C543.282 420.316 548.093 421.646 552.748 422.928C556.077 423.842 559.516 424.793 562.909 424.302C567.112 423.685 568.35 422.666 570.233 421.13C572.912 418.843 576.053 417.016 579.492 415.745C582.423 414.54 585.596 413.861 588.831 413.744C588.967 413.735 589.106 413.752 589.232 413.798C589.362 413.841 589.478 413.909 589.572 413.998C589.663 414.086 589.731 414.189 589.773 414.301C589.815 414.415 589.831 414.535 589.815 414.652C588.097 431.208 582.462 460.103 564.119 467.638C552.865 472.271 509.393 475.56 434.9 477.419C431.84 477.49 429.676 477.55 428.644 477.582C426.007 477.679 421.485 478.235 416.25 478.889C411.857 479.44 406.869 480.068 402.207 480.505C398.782 480.868 395.336 481.073 391.888 481.122ZM383.8 471.375C383.981 471.375 384.159 471.423 384.311 471.512C384.46 471.6 384.58 471.726 384.651 471.872C384.722 472.02 384.745 472.183 384.712 472.34C384.683 472.497 384.599 472.642 384.476 472.76C384.408 472.82 382.778 474.455 384.282 477.927C384.499 478.438 385.366 478.766 386.049 478.949C388.759 479.674 393.948 479.663 401.903 478.909C406.536 478.478 411.502 477.85 415.882 477.299C421.158 476.645 425.726 476.063 428.482 475.991C429.514 475.951 431.685 475.9 434.761 475.823C509.001 473.97 552.227 470.733 563.249 466.199C580.98 458.893 586.279 429.018 587.786 415.471C585.16 415.685 582.594 416.296 580.204 417.275C576.949 418.477 573.973 420.205 571.433 422.366C569.463 423.982 567.904 425.255 563.155 425.949C559.338 426.511 555.676 425.504 552.14 424.524C547.604 423.274 543.684 422.195 540.487 424.758C535.58 428.684 530.763 428.162 528.473 427.571V430.882C528.473 431.062 528.405 431.239 528.282 431.385C528.156 431.528 527.981 431.633 527.784 431.679C524.691 432.398 456.248 448.406 431.759 448.406C430.342 448.418 428.925 448.344 427.518 448.184C415.985 446.765 404.705 440.335 400.784 437.88L400.606 442.845C400.596 443.059 400.493 443.259 400.321 443.404C400.15 443.553 399.917 443.636 399.678 443.639C397.203 443.639 393.453 443.704 389.656 444.03C379.281 444.932 377.673 447.007 377.479 447.85C376.635 451.578 380.2 452.323 380.607 452.429C380.798 452.46 380.976 452.546 381.112 452.672C381.245 452.797 381.332 452.957 381.355 453.129C381.38 453.3 381.342 453.474 381.245 453.625C381.148 453.777 381.002 453.897 380.821 453.968C380.821 453.968 376.929 455.621 376.56 458.684C376.47 459.158 376.489 459.644 376.625 460.109C376.758 460.574 377 461.011 377.337 461.391C377.673 461.768 378.097 462.079 378.579 462.305C379.061 462.53 379.588 462.664 380.132 462.699C380.303 462.724 380.465 462.79 380.594 462.893C380.727 462.993 380.821 463.124 380.873 463.27C380.928 463.418 380.931 463.581 380.882 463.732C380.837 463.883 380.74 464.02 380.607 464.126C380.607 464.126 376.9 467.075 378.11 469.648C379.42 472.525 383.299 471.503 383.483 471.458C383.583 471.418 383.69 471.386 383.8 471.375Z" fill="#313131"/>
<path d="M598.85 419.008C598.705 419.003 598.559 418.968 598.43 418.903C598.304 418.84 598.194 418.751 598.11 418.643C596.437 416.43 590.698 415.183 588.935 415.371C588.689 415.4 588.443 415.343 588.249 415.211C588.052 415.077 587.926 414.883 587.893 414.669C587.861 414.452 587.926 414.235 588.075 414.064C588.227 413.889 588.447 413.778 588.689 413.75C590.802 413.507 597.459 414.823 599.653 417.721C599.788 417.901 599.837 418.121 599.792 418.332C599.743 418.543 599.604 418.731 599.4 418.851C599.242 418.954 599.048 419.011 598.85 419.008Z" fill="#313131"/>
<path d="M347.963 99.7959C347.717 99.7959 347.485 99.7097 347.31 99.5564C347.135 99.4031 347.038 99.1952 347.038 98.9782V71.6216C347.038 71.4046 347.135 71.1968 347.31 71.0435C347.485 70.8902 347.717 70.804 347.963 70.804C348.209 70.804 348.445 70.8902 348.62 71.0435C348.795 71.1968 348.892 71.4046 348.892 71.6216V98.9782C348.892 99.1952 348.795 99.4031 348.62 99.5564C348.445 99.7097 348.209 99.7959 347.963 99.7959Z" fill="#313131"/>
<path d="M359.179 106.357C358.965 106.358 358.758 106.293 358.593 106.174C358.5 106.106 358.422 106.023 358.364 105.928C358.305 105.833 358.27 105.73 358.257 105.623C358.244 105.516 358.257 105.408 358.289 105.305C358.325 105.202 358.383 105.106 358.461 105.023L373.232 88.8783C373.309 88.7923 373.403 88.7204 373.513 88.667C373.62 88.6133 373.74 88.5791 373.863 88.5659C373.986 88.5531 374.108 88.5613 374.228 88.5908C374.348 88.6202 374.458 88.6701 374.555 88.7375C374.652 88.8049 374.736 88.8885 374.794 88.9839C374.856 89.079 374.895 89.1837 374.911 89.2922C374.924 89.4007 374.914 89.5106 374.882 89.6157C374.849 89.7211 374.791 89.8193 374.717 89.9052L359.897 106.023C359.816 106.124 359.706 106.206 359.583 106.263C359.457 106.321 359.321 106.353 359.179 106.357Z" fill="#313131"/>
<path d="M336.751 109.7C336.605 109.7 336.463 109.67 336.333 109.612C336.204 109.554 336.094 109.469 336.01 109.366L321.925 92.4628C321.839 92.378 321.773 92.2783 321.732 92.1699C321.692 92.0614 321.678 91.9469 321.691 91.8332C321.703 91.7196 321.743 91.6097 321.807 91.5106C321.871 91.4113 321.958 91.3251 322.061 91.2571C322.165 91.1892 322.284 91.1412 322.41 91.1164C322.537 91.0915 322.667 91.0901 322.794 91.1126C322.921 91.1349 323.041 91.1803 323.147 91.2463C323.252 91.3119 323.341 91.3964 323.407 91.4944L337.491 108.398C337.598 108.518 337.663 108.663 337.679 108.816C337.695 108.968 337.663 109.121 337.585 109.258C337.508 109.395 337.388 109.509 337.242 109.588C337.093 109.668 336.922 109.709 336.751 109.706V109.7Z" fill="#313131"/>
<path d="M124.464 399.494L116.844 434.819L112.115 434.505L124.464 399.494Z" fill="#313131"/>
<path d="M191.931 350.697L176.788 366.042L191.212 347.628L191.931 350.697Z" fill="#313131"/>
<path d="M205.791 342.54L206.302 345.372L226.056 348.079L205.791 342.54Z" fill="#313131"/>
<path d="M191.212 347.628L192.45 352.901L191.212 414.435L190.367 353.549L189.529 349.772L191.212 347.628Z" fill="#313131"/>
<path d="M191.211 414.435L215.79 440.392L219.37 439.87L191.211 414.435Z" fill="#313131"/>
<path d="M176.551 483.965L101.629 481.964L100.754 485.758L176.551 483.965Z" fill="#313131"/>
<path d="M527.509 472.434V477.085L440.824 476.457L489.708 474.755L527.509 472.434Z" fill="#313131"/>
<path d="M526.102 382.37L522.136 432.104L527.564 430.862L526.102 382.37Z" fill="#313131"/>
<path d="M510.58 317.556C510.58 317.556 515.963 325.407 514.151 327.369C509.907 332.156 499.07 333.844 495.964 337.424C493.37 340.424 497.378 350.074 494.324 353.863C486.699 363.322 479.243 362.785 474.312 367.541C469.382 372.295 460.127 379.838 460.127 379.838C460.127 379.838 472.63 370.111 476.619 367.75C480.604 365.389 490.798 362.045 496.424 354.542C499.827 350.003 495.563 341.512 497.951 338.64C500.988 334.977 513.514 334.138 515.895 328.767C516.736 327.049 516.969 325.145 516.558 323.309C516.147 321.47 515.115 319.786 513.598 318.478L510.58 317.556Z" fill="#313131"/>
</svg>
