<svg width="1220" height="920" viewBox="0 0 1220 920" fill="none" xmlns="http://www.w3.org/2000/svg">
<path d="M982.6 578H642V770H982.6V578Z" stroke="#CCCCCC" stroke-width="1.5" stroke-linecap="round" stroke-linejoin="round"/>
<path d="M642.51 702.59H983.1" stroke="#CCCCCC" stroke-width="1.5" stroke-linecap="round" stroke-linejoin="round"/>
<path d="M661.571 769.15L656.101 801.79C656.016 802.298 656.044 802.818 656.181 803.314C656.318 803.81 656.562 804.27 656.895 804.662C657.228 805.055 657.643 805.369 658.11 805.585C658.577 805.8 659.086 805.912 659.601 805.91H664.931C665.597 805.911 666.249 805.723 666.814 805.37C667.378 805.016 667.831 804.51 668.121 803.91L684.521 769.67" stroke="#CCCCCC" stroke-width="1.5" stroke-linecap="round" stroke-linejoin="round"/>
<path d="M962.101 769.15L967.541 801.79C967.627 802.297 967.601 802.817 967.465 803.313C967.329 803.809 967.086 804.27 966.754 804.662C966.422 805.054 966.007 805.37 965.54 805.585C965.074 805.801 964.565 805.912 964.051 805.91H958.721C958.053 805.913 957.398 805.726 956.832 805.372C956.266 805.018 955.811 804.512 955.521 803.91L939.131 769.67" stroke="#CCCCCC" stroke-width="1.5" stroke-linecap="round" stroke-linejoin="round"/>
<path d="M833.318 735.28H804.378C802.688 735.28 801.318 736.65 801.318 738.34V738.35C801.318 740.04 802.688 741.41 804.378 741.41H833.318C835.008 741.41 836.378 740.04 836.378 738.35V738.34C836.378 736.65 835.008 735.28 833.318 735.28Z" stroke="#CCCCCC" stroke-width="1.5" stroke-linecap="round" stroke-linejoin="round"/>
<path d="M732.211 578V702.25" stroke="#CCCCCC" stroke-width="1.5" stroke-linecap="round" stroke-linejoin="round"/>
<path d="M732.551 638.93H983.781" stroke="#CCCCCC" stroke-width="1.5" stroke-linecap="round" stroke-linejoin="round"/>
<path d="M856.119 676.39C858.566 676.39 860.549 674.407 860.549 671.96C860.549 669.514 858.566 667.53 856.119 667.53C853.673 667.53 851.689 669.514 851.689 671.96C851.689 674.407 853.673 676.39 856.119 676.39Z" stroke="#CCCCCC" stroke-width="1.5" stroke-linecap="round" stroke-linejoin="round"/>
<path d="M856.119 613.411C858.566 613.411 860.549 611.427 860.549 608.981C860.549 606.534 858.566 604.551 856.119 604.551C853.673 604.551 851.689 606.534 851.689 608.981C851.689 611.427 853.673 613.411 856.119 613.411Z" stroke="#CCCCCC" stroke-width="1.5" stroke-linecap="round" stroke-linejoin="round"/>
<path d="M1024.6 806H273.869" stroke="black" stroke-width="1.5" stroke-linecap="round" stroke-linejoin="round"/>
<path d="M693.7 816.21H156" stroke="black" stroke-width="1.5" stroke-linecap="round" stroke-linejoin="round"/>
<path d="M737.621 816.21H706.471" stroke="black" stroke-width="1.5" stroke-linecap="round" stroke-linejoin="round"/>
<path d="M921.7 153C935.581 153 949.326 155.734 962.15 161.046C974.974 166.358 986.626 174.144 996.441 183.959C1006.26 193.774 1014.04 205.426 1019.35 218.25C1024.67 231.074 1027.4 244.819 1027.4 258.7V456.32H816V258.71C816 230.677 827.136 203.791 846.959 183.969C866.781 164.146 893.667 153.01 921.7 153.01V153Z" stroke="#CCCCCC" stroke-width="1.5" stroke-linecap="round" stroke-linejoin="round"/>
<path d="M920.17 456.32V153" stroke="#CCCCCC" stroke-width="1.5" stroke-linecap="round" stroke-linejoin="round"/>
<path d="M816 285.17H1027.4" stroke="#CCCCCC" stroke-width="1.5" stroke-linecap="round" stroke-linejoin="round"/>
<path d="M171.75 439.67C174.898 452.807 181.25 475.558 195.566 486.848C206.174 495.213 219.29 499.762 232.799 499.761C240.69 499.761 248.504 498.207 255.795 495.187C263.085 492.167 269.709 487.741 275.289 482.161C280.869 476.581 285.295 469.957 288.315 462.666C291.335 455.376 292.889 447.562 292.889 439.671L171.75 439.67Z" stroke="#CCCCCC" stroke-width="1.5" stroke-linecap="round" stroke-linejoin="round"/>
<path fill-rule="evenodd" clip-rule="evenodd" d="M230.781 447.646C230.754 447.649 230.726 447.65 230.698 447.65C214.344 447.605 199.575 446.792 188.883 445.487C183.542 444.835 179.19 444.058 176.159 443.183C174.649 442.747 173.422 442.274 172.558 441.757C171.748 441.272 171 440.592 171 439.66C171 439.246 171.336 438.91 171.75 438.91C172.164 438.91 172.5 439.246 172.5 439.66C172.5 439.726 172.573 440.018 173.328 440.47C174.029 440.889 175.111 441.319 176.575 441.741C177.558 442.025 178.693 442.3 179.97 442.565C180.115 442.495 180.284 442.47 180.454 442.506C190.756 444.679 210.313 446.149 232.719 446.149C249.344 446.149 264.385 445.34 275.258 444.036C280.7 443.383 285.07 442.61 288.065 441.761C289.569 441.335 290.683 440.901 291.405 440.478C292.188 440.02 292.259 439.726 292.259 439.669C292.259 439.255 292.595 438.919 293.009 438.919C293.423 438.919 293.759 439.255 293.759 439.669C293.759 440.61 292.986 441.29 292.163 441.773C291.278 442.291 290.022 442.765 288.474 443.204C285.367 444.085 280.906 444.869 275.437 445.525C264.488 446.839 249.384 447.649 232.719 447.649C232.071 447.649 231.425 447.648 230.781 447.646Z" fill="#CCCCCC"/>
<path d="M235.93 438.891C238.98 435.071 258.38 410.751 284.3 411.801" stroke="#CCCCCC" stroke-width="1.5" stroke-linecap="round" stroke-linejoin="round"/>
<path d="M235.25 439.481C239.331 442.171 270.069 470.746 271.377 496.655" stroke="#CCCCCC" stroke-width="1.5" stroke-linecap="round" stroke-linejoin="round"/>
<path d="M271.25 491.279C275.331 493.969 306.069 522.544 307.377 548.453" stroke="#CCCCCC" stroke-width="1.5" stroke-linecap="round" stroke-linejoin="round"/>
<path d="M234.251 438.982C202.251 412.98 181.603 444.546 180.295 470.454" stroke="#CCCCCC" stroke-width="1.5" stroke-linecap="round" stroke-linejoin="round"/>
<path d="M293.008 439.67L230.968 335.16L172.25 439.67" stroke="#CCCCCC" stroke-width="1.5" stroke-linecap="round" stroke-linejoin="round"/>
<path d="M230.969 335.16V247H304.539C422.679 247 413.539 343.68 413.539 462.95V794.47" stroke="#CCCCCC" stroke-width="1.5" stroke-linecap="round" stroke-linejoin="round"/>
<path d="M357.8 439.85C361.44 431.06 352.12 420.92 351.67 420.45C346.19 414.65 338.82 412.75 325 411.13C308.945 409.293 292.713 409.697 276.77 412.33C296.77 415.63 305.64 422.84 309.93 429.22C312.17 432.56 315.45 439.06 323.07 443.94C326.374 446.221 330.122 447.778 334.07 448.51C341.68 449.79 354.33 448.13 357.8 439.85Z" stroke="#CCCCCC" stroke-width="1.5" stroke-linecap="round" stroke-linejoin="round"/>
<path d="M250.117 572.397C259.201 575.224 268.453 565.022 268.88 564.531C274.158 558.547 275.381 551.035 275.74 537.125C276.111 520.97 274.235 504.841 270.165 489.203C268.695 509.42 262.32 518.908 256.356 523.759C253.233 526.293 247.058 530.15 242.89 538.182C240.919 541.679 239.708 545.554 239.338 549.551C238.754 557.246 241.556 569.693 250.117 572.397Z" stroke="#CCCCCC" stroke-width="1.5" stroke-linecap="round" stroke-linejoin="round"/>
<path d="M286.117 624.195C295.201 627.022 304.453 616.819 304.88 616.329C310.158 610.345 311.381 602.832 311.74 588.922C312.111 572.767 310.235 556.639 306.165 541.001C304.695 561.218 298.32 570.706 292.356 575.557C289.233 578.091 283.058 581.948 278.89 589.98C276.919 593.477 275.708 597.352 275.338 601.349C274.754 609.044 277.556 621.491 286.117 624.195Z" stroke="#CCCCCC" stroke-width="1.5" stroke-linecap="round" stroke-linejoin="round"/>
<path d="M201.554 546.195C192.47 549.022 183.218 538.819 182.791 538.329C177.513 532.345 176.29 524.832 175.931 510.922C175.56 494.767 177.436 478.639 181.506 463.001C182.976 483.218 189.351 492.706 195.315 497.557C198.438 500.091 204.613 503.948 208.781 511.98C210.752 515.477 211.963 519.352 212.333 523.349C212.917 531.044 210.115 543.491 201.554 546.195Z" stroke="#CCCCCC" stroke-width="1.5" stroke-linecap="round" stroke-linejoin="round"/>
<path d="M363.358 804.541H464.468C466.793 804.541 468.678 802.656 468.678 800.331V800.321C468.678 797.996 466.793 796.111 464.468 796.111H363.358C361.033 796.111 359.148 797.996 359.148 800.321V800.331C359.148 802.656 361.033 804.541 363.358 804.541Z" stroke="#CCCCCC" stroke-width="1.5" stroke-linecap="round" stroke-linejoin="round"/>
<path d="M1061.98 380.098L871.94 331.943L845.68 435.578L1035.72 483.733L1061.98 380.098Z" fill="white" stroke="black" stroke-width="1.5" stroke-linecap="round" stroke-linejoin="round"/>
<path d="M1043.46 393.407L881.869 352.461L876.414 373.991L1038.01 414.937L1043.46 393.407Z" fill="white" stroke="black" stroke-width="1.5" stroke-linecap="round" stroke-linejoin="round"/>
<path d="M998.289 426.129L906.035 402.752L900.113 426.124L992.367 449.5L998.289 426.129Z" fill="#F25A33" stroke="black" stroke-width="1.5" stroke-linecap="round" stroke-linejoin="round"/>
<path d="M950.847 424.593L927.243 418.612L926.307 422.305L949.911 428.286L950.847 424.593Z" fill="white" stroke="black" stroke-width="1.5" stroke-linecap="round" stroke-linejoin="round"/>
<path d="M966.301 428.505L954.116 425.417L953.18 429.111L965.365 432.198L966.301 428.505Z" fill="white" stroke="black" stroke-width="1.5" stroke-linecap="round" stroke-linejoin="round"/>
<path d="M419.261 93.0234L90.0332 138.402L121.722 368.308L450.95 322.93L419.261 93.0234Z" fill="white" stroke="black" stroke-width="1.5" stroke-linecap="round" stroke-linejoin="round"/>
<path d="M410.108 101.487L101.109 144.078L122.656 300.4L431.654 257.809L410.108 101.487Z" fill="#AD85AD" stroke="black" stroke-width="1.5" stroke-linecap="round" stroke-linejoin="round"/>
<path d="M269.742 235.744C290.076 235.638 306.475 219.068 306.37 198.733C306.264 178.398 289.694 161.999 269.359 162.105C249.024 162.211 232.625 178.781 232.731 199.116C232.836 219.451 249.407 235.85 269.742 235.744Z" fill="#F25A33" stroke="black" stroke-width="1.5" stroke-linecap="round" stroke-linejoin="round"/>
<path d="M257.072 183.899C258.46 194.559 259.849 205.219 261.238 215.878L288.368 196.497L257.072 183.899Z" fill="black" stroke="black" stroke-width="1.5" stroke-linecap="round" stroke-linejoin="round"/>
<path d="M131.889 329.942L133.05 341.656L143.185 334.893L131.889 329.942Z" stroke="black" stroke-width="1.5" stroke-linecap="round" stroke-linejoin="round"/>
<path d="M421.345 293.958L162.621 329.619L163.17 333.601L421.894 297.94L421.345 293.958Z" stroke="black" stroke-width="1.5" stroke-linecap="round" stroke-linejoin="round"/>
<path d="M194.205 334.718C198.308 334.697 201.617 331.353 201.596 327.25C201.575 323.146 198.231 319.837 194.128 319.858C190.024 319.88 186.715 323.223 186.736 327.327C186.758 331.43 190.101 334.739 194.205 334.718Z" fill="white" stroke="black" stroke-width="1.5" stroke-linecap="round" stroke-linejoin="round"/>
<path d="M195.477 300.581L197.22 312.572L206.643 311.273L215.889 318.275L222.623 309.38L231.207 308.205L229.472 295.634L195.477 300.581Z" fill="#F25A33" stroke="black" stroke-width="1.5" stroke-linecap="round" stroke-linejoin="round"/>
<path d="M333.256 338.295L333.728 338.563L333.256 338.295Z" fill="#D88B6D"/>
<path d="M333.256 338.295L333.728 338.563" stroke="black" stroke-width="1.5" stroke-linecap="round" stroke-linejoin="round"/>
<path d="M614.987 517.706L613.626 584.706C613.589 585.594 613.247 586.443 612.656 587.108C612.066 587.773 611.264 588.213 610.386 588.355H610.026C609.204 588.441 608.374 588.324 607.607 588.016C606.904 587.754 606.295 587.287 605.86 586.675C605.425 586.064 605.184 585.336 605.167 584.586C605.061 577.159 604.953 569.73 604.846 562.297L594.206 588.066C593.963 588.645 593.594 589.163 593.125 589.581C592.657 590 592.099 590.31 591.496 590.487C590.668 590.744 589.788 590.792 588.936 590.626L588.536 590.526C587.997 590.392 587.492 590.148 587.052 589.808C586.613 589.468 586.247 589.041 585.982 588.552C585.717 588.064 585.556 587.526 585.51 586.972C585.465 586.418 585.535 585.861 585.716 585.336L592.867 565.206L574.047 588.206C573.595 588.759 573.025 589.205 572.38 589.513C571.736 589.82 571.031 589.983 570.316 589.987C569.235 589.981 568.184 589.631 567.316 588.987C566.825 588.628 566.414 588.171 566.107 587.646C565.711 586.923 565.549 586.095 565.648 585.277C565.747 584.459 566.099 583.693 566.656 583.086C570.076 579.086 573.493 575.086 576.906 571.086L573.667 571.016C568.197 570.906 563.767 566.926 563.667 562.016L563.557 558.297C563.565 557.354 563.938 556.451 564.599 555.779C565.26 555.107 566.154 554.719 567.096 554.695C568.053 554.603 569.008 554.889 569.756 555.493C570.504 556.097 570.986 556.971 571.096 557.927L571.196 559.576C571.29 560.584 571.748 561.524 572.484 562.219C573.22 562.915 574.184 563.319 575.196 563.355C575.743 563.413 576.297 563.36 576.823 563.198C577.349 563.037 577.837 562.77 578.258 562.415C578.678 562.06 579.021 561.624 579.269 561.133C579.516 560.641 579.662 560.106 579.696 559.557L579.716 539.126C579.638 538.075 579.173 537.093 578.412 536.365C577.65 535.638 576.646 535.217 575.594 535.186C574.541 535.155 573.515 535.515 572.712 536.196C571.909 536.877 571.387 537.832 571.246 538.876V539.096C571.154 540.101 570.691 541.037 569.948 541.72C569.204 542.403 568.234 542.786 567.224 542.794C566.215 542.801 565.237 542.433 564.484 541.76C563.73 541.088 563.253 540.16 563.146 539.156V534.436C563.146 529.946 566.786 526.136 571.716 525.536C572.606 525.436 573.406 525.315 574.126 525.195C579.126 524.375 580.467 523.486 581.237 522.646C581.914 521.818 582.398 520.85 582.654 519.812C582.91 518.776 582.93 517.693 582.716 516.646L614.987 517.706Z" fill="#D88B6D" stroke="black" stroke-width="1.5" stroke-linecap="round" stroke-linejoin="round"/>
<path d="M589.138 554.276L589.008 560.516C588.888 566.466 583.448 571.176 576.848 571.046" stroke="black" stroke-width="1.5" stroke-linecap="round" stroke-linejoin="round"/>
<path d="M600.128 554.496L592.848 565.246" stroke="black" stroke-width="1.5" stroke-linecap="round" stroke-linejoin="round"/>
<path d="M607.736 553.916L604.846 562.306" stroke="black" stroke-width="1.5" stroke-linecap="round" stroke-linejoin="round"/>
<path d="M614.967 530.906L615.027 530.855L614.967 530.906Z" fill="#D88B6D"/>
<path d="M614.967 530.906L615.027 530.855" stroke="black" stroke-width="1.5" stroke-linecap="round" stroke-linejoin="round"/>
<path d="M615.027 530.856L680.167 456.066C682.163 453.819 683.608 451.138 684.387 448.236C684.537 447.676 684.657 447.096 684.757 446.486C684.817 446.156 684.857 445.836 684.897 445.486C685.369 440.901 684.208 436.297 681.617 432.486L630.617 355.486C629.617 354.786 615.437 345.486 605.037 350.736C594.157 356.286 588.827 377.136 601.137 397.256C605.407 400.536 600.3 400.176 604.75 404.526C615.441 415.005 624.505 427.025 631.64 440.186L585.347 506.796C577 506.796 585.427 514.066 584.347 517.186" fill="#D88B6D"/>
<path d="M615.027 530.856L680.167 456.066C682.163 453.819 683.608 451.138 684.387 448.236C684.537 447.676 684.657 447.096 684.757 446.486C684.817 446.156 684.857 445.836 684.897 445.486C685.369 440.901 684.208 436.297 681.617 432.486L630.617 355.486C629.617 354.786 615.437 345.486 605.037 350.736C594.157 356.286 588.827 377.136 601.137 397.256C605.407 400.536 600.3 400.176 604.75 404.526C615.441 415.005 624.505 427.025 631.64 440.186L585.347 506.796C577 506.796 585.427 514.066 584.347 517.186" stroke="black" stroke-width="1.5" stroke-linecap="round" stroke-linejoin="round"/>
<path fill-rule="evenodd" clip-rule="evenodd" d="M395.929 795.586C405.127 789.519 414.707 784.051 424.609 779.216C424.109 771.903 423.605 764.59 423.099 757.276L452.839 750.696L463.199 767.336L478.589 793.026C479.257 794.14 479.65 795.397 479.737 796.693C479.823 797.988 479.6 799.286 479.087 800.479C478.573 801.672 477.783 802.725 476.782 803.552C475.78 804.379 474.597 804.957 473.329 805.236L390.689 823.516C389.193 823.856 387.635 823.816 386.158 823.401C384.681 822.985 383.332 822.206 382.233 821.136C381.134 820.066 380.32 818.737 379.865 817.272C379.41 815.807 379.329 814.251 379.629 812.746V812.586C380.929 806.646 385.249 802.586 395.929 795.586ZM449.429 818.096C459.771 814.294 470.346 811.158 481.089 808.706L489.469 786.256L515.079 787.376L521.369 805.946L530.469 834.436C530.863 835.672 530.958 836.985 530.746 838.266C530.534 839.546 530.02 840.758 529.248 841.801C528.475 842.844 527.466 843.689 526.303 844.265C525.14 844.841 523.856 845.133 522.559 845.116L437.929 844.046C436.395 844.037 434.887 843.644 433.544 842.904C432.201 842.163 431.064 841.098 430.238 839.806C429.412 838.513 428.923 837.035 428.814 835.505C428.706 833.975 428.983 832.442 429.619 831.046C429.636 830.996 429.659 830.949 429.689 830.906C432.329 825.446 437.429 822.526 449.429 818.096Z" fill="#FFCD88"/>
<path d="M424.609 779.216L425.357 779.165C425.378 779.47 425.212 779.756 424.938 779.89L424.609 779.216ZM395.929 795.586L396.342 796.212L396.34 796.214L395.929 795.586ZM423.099 757.276L422.351 757.328C422.325 756.958 422.574 756.624 422.937 756.544L423.099 757.276ZM452.839 750.696L452.677 749.964C452.987 749.895 453.307 750.03 453.475 750.3L452.839 750.696ZM463.199 767.336L463.836 766.94L463.842 766.951L463.199 767.336ZM478.589 793.026L477.945 793.412L478.589 793.026ZM473.329 805.236L473.167 804.504L473.329 805.236ZM390.689 823.516L390.523 822.785L390.527 822.784L390.689 823.516ZM386.158 823.401L386.362 822.679L386.158 823.401ZM382.233 821.136L382.756 820.599L382.233 821.136ZM379.865 817.272L380.581 817.05L379.865 817.272ZM379.629 812.746H380.379C380.379 812.796 380.374 812.845 380.364 812.893L379.629 812.746ZM379.629 812.586H378.879C378.879 812.532 378.885 812.479 378.896 812.426L379.629 812.586ZM481.089 808.706L481.791 808.968C481.703 809.205 481.502 809.381 481.255 809.437L481.089 808.706ZM449.429 818.096L449.169 817.392H449.17L449.429 818.096ZM489.469 786.256L488.766 785.994C488.88 785.689 489.177 785.492 489.501 785.507L489.469 786.256ZM515.079 787.376L515.111 786.627C515.42 786.64 515.69 786.842 515.789 787.135L515.079 787.376ZM521.369 805.946L522.079 805.705L522.083 805.718L521.369 805.946ZM530.469 834.436L531.183 834.208L530.469 834.436ZM530.746 838.266L530.006 838.143L530.746 838.266ZM529.248 841.801L529.851 842.247L529.248 841.801ZM526.303 844.265L525.97 843.593L526.303 844.265ZM522.559 845.116L522.568 844.366L522.559 845.116ZM437.929 844.046L437.933 843.296H437.938L437.929 844.046ZM429.619 831.046L430.327 831.293C430.319 831.314 430.311 831.336 430.301 831.357L429.619 831.046ZM429.689 830.906L430.364 831.232C430.348 831.264 430.331 831.295 430.311 831.325L429.689 830.906ZM424.938 779.89C415.065 784.711 405.513 790.163 396.342 796.212L395.516 794.96C404.741 788.875 414.349 783.391 424.28 778.542L424.938 779.89ZM423.847 757.224C424.354 764.538 424.857 771.852 425.357 779.165L423.86 779.267C423.36 771.954 422.857 764.641 422.351 757.328L423.847 757.224ZM453.001 751.429L423.261 758.009L422.937 756.544L452.677 749.964L453.001 751.429ZM462.562 767.733L452.202 751.093L453.475 750.3L463.835 766.94L462.562 767.733ZM477.945 793.412L462.555 767.722L463.842 766.951L479.232 792.641L477.945 793.412ZM478.988 796.743C478.91 795.565 478.552 794.424 477.945 793.412L479.232 792.641C479.961 793.856 480.391 795.228 480.485 796.643L478.988 796.743ZM478.398 800.182C478.865 799.099 479.067 797.92 478.988 796.743L480.485 796.643C480.58 798.057 480.336 799.474 479.775 800.776L478.398 800.182ZM476.304 802.974C477.213 802.222 477.931 801.266 478.398 800.182L479.775 800.776C479.215 802.077 478.352 803.227 477.259 804.13L476.304 802.974ZM473.167 804.504C474.319 804.25 475.394 803.725 476.304 802.974L477.259 804.13C476.166 805.033 474.875 805.663 473.49 805.969L473.167 804.504ZM390.527 822.784L473.167 804.504L473.491 805.969L390.851 824.249L390.527 822.784ZM386.362 822.679C387.718 823.06 389.148 823.097 390.523 822.785L390.855 824.248C389.237 824.615 387.552 824.572 385.955 824.123L386.362 822.679ZM382.756 820.599C383.766 821.582 385.005 822.297 386.362 822.679L385.955 824.123C384.358 823.673 382.898 822.831 381.71 821.673L382.756 820.599ZM380.581 817.05C380.999 818.396 381.746 819.616 382.756 820.599L381.71 821.673C380.521 820.516 379.64 819.079 379.148 817.494L380.581 817.05ZM380.364 812.893C380.089 814.275 380.163 815.704 380.581 817.05L379.148 817.494C378.657 815.91 378.569 814.227 378.893 812.6L380.364 812.893ZM380.379 812.586V812.746H378.879V812.586H380.379ZM396.34 796.214C385.637 803.229 381.588 807.141 380.361 812.747L378.896 812.426C380.269 806.152 384.86 801.944 395.518 794.959L396.34 796.214ZM481.255 809.437C470.544 811.882 460 815.009 449.687 818.8L449.17 817.392C459.542 813.579 470.148 810.433 480.922 807.975L481.255 809.437ZM490.171 786.518L481.791 808.968L480.386 808.444L488.766 785.994L490.171 786.518ZM515.046 788.125L489.436 787.005L489.501 785.507L515.111 786.627L515.046 788.125ZM520.658 806.186L514.368 787.616L515.789 787.135L522.079 805.705L520.658 806.186ZM529.754 834.664L520.654 806.174L522.083 805.718L531.183 834.208L529.754 834.664ZM530.006 838.143C530.199 836.98 530.113 835.787 529.754 834.664L531.183 834.208C531.614 835.558 531.718 836.99 531.486 838.388L530.006 838.143ZM528.645 841.355C529.347 840.407 529.814 839.306 530.006 838.143L531.486 838.388C531.255 839.786 530.694 841.109 529.851 842.247L528.645 841.355ZM525.97 843.593C527.026 843.069 527.943 842.302 528.645 841.355L529.851 842.247C529.007 843.386 527.905 844.308 526.636 844.937L525.97 843.593ZM522.568 844.366C523.747 844.382 524.913 844.117 525.97 843.593L526.636 844.937C525.366 845.566 523.965 845.885 522.549 845.866L522.568 844.366ZM437.938 843.296L522.568 844.366L522.549 845.866L437.919 844.796L437.938 843.296ZM433.906 842.247C435.14 842.927 436.524 843.288 437.933 843.296L437.924 844.796C436.265 844.786 434.635 844.362 433.182 843.561L433.906 842.247ZM430.87 839.402C431.629 840.589 432.673 841.567 433.906 842.247L433.182 843.561C431.729 842.76 430.5 841.608 429.606 840.21L430.87 839.402ZM429.563 835.452C429.662 836.857 430.112 838.215 430.87 839.402L429.606 840.21C428.713 838.812 428.183 837.213 428.066 835.558L429.563 835.452ZM430.301 831.357C429.717 832.639 429.463 834.047 429.563 835.452L428.066 835.558C427.949 833.903 428.248 832.245 428.936 830.735L430.301 831.357ZM430.311 831.325C430.318 831.315 430.323 831.304 430.327 831.293L428.91 830.799C428.949 830.689 429.001 830.584 429.066 830.487L430.311 831.325ZM449.688 818.799C437.659 823.24 432.856 826.078 430.364 831.232L429.013 830.579C431.801 824.814 437.198 821.812 449.169 817.392L449.688 818.799Z" fill="black"/>
<path d="M430.768 839.786L529.058 841.026" stroke="black" stroke-width="1.5" stroke-linecap="round" stroke-linejoin="round"/>
<path d="M525.986 821.336C525.986 821.336 507.595 821.616 507.355 840.766" stroke="black" stroke-width="1.5" stroke-linecap="round" stroke-linejoin="round"/>
<path d="M482.057 808.336L463.947 796.436C463.524 796.15 463.041 795.966 462.535 795.897C462.03 795.829 461.515 795.878 461.032 796.04C460.548 796.203 460.108 796.474 459.747 796.834C459.385 797.194 459.111 797.633 458.947 798.116C458.8 798.541 458.742 798.992 458.775 799.441C458.809 799.89 458.933 800.328 459.14 800.727C459.348 801.126 459.635 801.479 459.983 801.764C460.331 802.05 460.734 802.261 461.167 802.386L482.057 808.336Z" stroke="black" stroke-width="1.5" stroke-linecap="round" stroke-linejoin="round"/>
<path d="M481.477 808.336L464.477 816.336C464.082 816.523 463.735 816.797 463.462 817.138C463.19 817.479 462.998 817.877 462.901 818.303C462.805 818.728 462.807 819.171 462.906 819.596C463.006 820.021 463.201 820.417 463.477 820.756C463.725 821.058 464.032 821.307 464.379 821.487C464.726 821.667 465.107 821.774 465.497 821.803C465.887 821.831 466.279 821.779 466.649 821.651C467.018 821.522 467.358 821.32 467.647 821.056L481.477 808.336Z" stroke="black" stroke-width="1.5" stroke-linecap="round" stroke-linejoin="round"/>
<path fill-rule="evenodd" clip-rule="evenodd" d="M431.918 779.746C446.278 779.866 457.838 774.606 465.118 770.256L452.838 750.696L423.098 757.276L424.608 779.216C427.031 779.548 429.473 779.725 431.918 779.746ZM488.109 810.946C502.049 814.446 514.519 812.046 522.619 809.536C523.725 802.036 524.829 794.536 525.929 787.036L491.379 780.036L481.109 808.716C483.39 809.614 485.729 810.359 488.109 810.946Z" fill="white"/>
<path d="M465.118 770.256L465.753 769.858C465.861 770.028 465.895 770.235 465.847 770.431C465.8 770.628 465.676 770.797 465.503 770.9L465.118 770.256ZM431.918 779.746L431.912 780.496L431.918 779.746ZM452.838 750.696L452.675 749.964C452.985 749.896 453.304 750.029 453.472 750.298L452.838 750.696ZM423.097 757.276L422.35 757.328C422.324 756.957 422.574 756.624 422.936 756.544L423.097 757.276ZM424.608 779.216L424.507 779.959C424.154 779.911 423.884 779.622 423.86 779.268L424.608 779.216ZM522.618 809.536L523.36 809.646C523.318 809.931 523.116 810.167 522.841 810.253L522.618 809.536ZM488.109 810.946L488.287 810.218L488.291 810.219L488.109 810.946ZM525.928 787.036L526.078 786.301C526.468 786.38 526.728 786.751 526.67 787.145L525.928 787.036ZM491.379 780.036L490.673 779.783C490.798 779.432 491.162 779.227 491.528 779.301L491.379 780.036ZM481.109 808.716L480.834 809.414C480.457 809.266 480.266 808.845 480.403 808.463L481.109 808.716ZM465.503 770.9C458.157 775.29 446.46 780.618 431.912 780.496L431.924 778.996C446.097 779.115 457.52 773.923 464.733 769.612L465.503 770.9ZM453.472 750.298L465.753 769.858L464.483 770.655L452.203 751.095L453.472 750.298ZM422.936 756.544L452.675 749.964L453 751.429L423.26 758.009L422.936 756.544ZM423.86 779.268L422.35 757.328L423.846 757.225L425.356 779.165L423.86 779.268ZM431.912 780.496C429.434 780.474 426.961 780.295 424.507 779.959L424.71 778.473C427.101 778.8 429.511 778.975 431.925 778.996L431.912 780.496ZM522.841 810.253C514.668 812.785 502.047 815.219 487.925 811.674L488.291 810.219C502.049 813.673 514.37 811.307 522.397 808.82L522.841 810.253ZM526.67 787.145C525.57 794.645 524.466 802.145 523.36 809.646L521.876 809.427C522.982 801.927 524.086 794.427 525.186 786.927L526.67 787.145ZM491.528 779.301L526.078 786.301L525.78 787.771L491.23 780.771L491.528 779.301ZM480.403 808.463L490.673 779.783L492.085 780.289L481.815 808.969L480.403 808.463ZM487.929 811.674C485.517 811.079 483.146 810.324 480.834 809.414L481.382 808.018C483.633 808.904 485.94 809.638 488.287 810.218L487.929 811.674Z" fill="black"/>
<path d="M382.717 820.956L479.457 799.616L382.717 820.956Z" fill="white"/>
<path d="M382.717 820.956L479.457 799.616" stroke="black" stroke-width="1.5" stroke-linecap="round" stroke-linejoin="round"/>
<path d="M511.376 500.635L532.326 524.895C522.526 539.862 512.73 554.839 502.936 569.825L456.366 637.635C456.366 637.785 456.366 637.925 456.366 638.075L456.606 640.905H456.496L459.156 700.335C459.634 709.539 461 718.675 463.236 727.616C464.162 731.428 464.47 735.365 464.146 739.275C463.479 746.918 460.469 754.168 455.526 760.035C451.004 763.348 445.658 765.353 440.072 765.83C434.487 766.307 428.878 765.238 423.86 762.74C418.842 760.242 414.607 756.412 411.62 751.668C408.634 746.924 407.01 741.45 406.926 735.845C406.699 726.44 405.441 717.087 403.176 707.955C398.87 690.175 394.79 671.969 390.936 653.335H390.716C390.716 652.865 390.656 652.405 390.616 651.925L390.136 649.655H390.446C390.336 648.075 390.206 646.485 390.106 644.915C388.946 627.475 395.846 613.765 399.976 605.615C407.796 590.155 432.976 544.345 469.976 483.855" fill="#8CA45B"/>
<path d="M511.376 500.635L532.326 524.895C522.526 539.862 512.73 554.839 502.936 569.825L456.366 637.635C456.366 637.785 456.366 637.925 456.366 638.075L456.606 640.905H456.496L459.156 700.335C459.634 709.539 461 718.675 463.236 727.616C464.162 731.428 464.47 735.365 464.146 739.275C463.479 746.918 460.469 754.168 455.526 760.035C451.004 763.348 445.658 765.353 440.072 765.83C434.487 766.307 428.878 765.238 423.86 762.74C418.842 760.242 414.607 756.412 411.62 751.668C408.634 746.924 407.01 741.45 406.926 735.845C406.699 726.44 405.441 717.087 403.176 707.955C398.87 690.175 394.79 671.969 390.936 653.335H390.716C390.716 652.865 390.656 652.405 390.616 651.925L390.136 649.655H390.446C390.336 648.075 390.206 646.485 390.106 644.915C388.946 627.475 395.846 613.765 399.976 605.615C407.796 590.155 432.976 544.345 469.976 483.855" stroke="black" stroke-width="1.5" stroke-linecap="round" stroke-linejoin="round"/>
<path d="M471.287 781.466C471.287 781.466 453.387 779.596 452.527 805.536" stroke="black" stroke-width="1.5" stroke-linecap="round" stroke-linejoin="round"/>
<path d="M451.387 631.706L455.727 638.436L451.547 646.216" stroke="black" stroke-width="1.5" stroke-linecap="round" stroke-linejoin="round"/>
<path d="M462.506 766.805C450.036 768.805 436.866 771.275 424.396 773.245C422.437 771.757 420.931 769.752 420.048 767.456C419.165 765.16 418.939 762.663 419.396 760.245C433.836 757.495 446.696 755.355 461.146 752.605C462.698 754.479 463.628 756.79 463.806 759.216C464.137 761.819 463.684 764.461 462.506 766.805Z" fill="#8CA45B" stroke="black" stroke-width="1.5" stroke-linecap="round" stroke-linejoin="round"/>
<path d="M452.627 754.336C452.627 754.336 456.627 764.586 455.627 767.506" stroke="black" stroke-width="1.5" stroke-linecap="round" stroke-linejoin="round"/>
<path d="M426.527 758.916C426.527 758.916 428.887 769.256 431.467 772.086" stroke="black" stroke-width="1.5" stroke-linecap="round" stroke-linejoin="round"/>
<path d="M439.936 756.146L443.816 769.875" stroke="black" stroke-width="1.5" stroke-linecap="round" stroke-linejoin="round"/>
<path d="M492.487 535.866L499.737 544.566C491.94 605.373 487.41 666.554 486.167 727.846C486.035 737.254 484.879 746.619 482.717 755.776C481.371 761.217 481.55 766.924 483.232 772.271C484.915 777.618 488.036 782.399 492.255 786.089C496.473 789.78 501.626 792.239 507.149 793.196C512.672 794.153 518.352 793.572 523.567 791.516C529.842 787.103 534.599 780.858 537.187 773.636C538.498 769.937 539.2 766.05 539.267 762.126C539.383 752.911 540.388 743.728 542.267 734.706C558.933 657.499 575.6 580.286 592.267 503.066L507.677 489.876" fill="#8CA45B"/>
<path d="M492.487 535.866L499.737 544.566C491.94 605.373 487.41 666.554 486.167 727.846C486.035 737.254 484.879 746.619 482.717 755.776C481.371 761.217 481.55 766.924 483.232 772.271C484.915 777.618 488.036 782.399 492.255 786.089C496.473 789.78 501.626 792.239 507.149 793.196C512.672 794.153 518.352 793.572 523.567 791.516C529.842 787.103 534.599 780.858 537.187 773.636C538.498 769.937 539.2 766.05 539.267 762.126C539.383 752.911 540.388 743.728 542.267 734.706C558.933 657.499 575.6 580.286 592.267 503.066L507.677 489.876" stroke="black" stroke-width="1.5" stroke-linecap="round" stroke-linejoin="round"/>
<path d="M492.487 535.866C487.72 559.02 482.953 582.17 478.188 605.316L496.567 579.786C497.673 568.293 498.78 556.803 499.887 545.316L492.487 535.866Z" fill="black"/>
<path d="M524.227 800.635L486.947 793.145C485.974 791.923 485.226 790.538 484.737 789.055C483.693 785.563 483.996 781.805 485.587 778.525L528.927 786.685C530.052 789.174 530.194 791.997 529.321 794.585C528.449 797.174 526.629 799.335 524.227 800.635Z" fill="#8CA45B" stroke="black" stroke-width="1.5" stroke-linecap="round" stroke-linejoin="round"/>
<path d="M520.439 784.786C520.439 784.786 520.719 796.786 518.719 799.166" stroke="black" stroke-width="1.5" stroke-linecap="round" stroke-linejoin="round"/>
<path d="M494.718 780.566C494.718 780.566 493.138 791.046 494.498 794.626" stroke="black" stroke-width="1.5" stroke-linecap="round" stroke-linejoin="round"/>
<path d="M508.236 782.886L506.826 797.086" stroke="black" stroke-width="1.5" stroke-linecap="round" stroke-linejoin="round"/>
<path d="M485.59 737.5V755" stroke="black" stroke-width="1.5" stroke-linecap="round" stroke-linejoin="round"/>
<path d="M537 741L539 759.5" stroke="black" stroke-width="1.5" stroke-linecap="round" stroke-linejoin="round"/>
<path d="M456 707L462.5 724" stroke="black" stroke-width="1.5" stroke-linecap="round" stroke-linejoin="round"/>
<path d="M406.5 726.5L413.5 743.5" stroke="black" stroke-width="1.5" stroke-linecap="round" stroke-linejoin="round"/>
<path d="M553.256 504.686C553.046 507.636 551.566 534.946 569.986 547.436C573.332 549.687 577.059 551.31 580.986 552.226" stroke="black" stroke-width="1.5" stroke-linecap="round" stroke-linejoin="round"/>
<path d="M425.377 779.435L407.267 767.536C406.845 767.26 406.367 767.084 405.867 767.02C405.367 766.957 404.86 767.008 404.383 767.17C403.906 767.332 403.472 767.6 403.114 767.955C402.756 768.309 402.484 768.74 402.317 769.216C402.168 769.641 402.107 770.093 402.139 770.543C402.171 770.992 402.295 771.431 402.503 771.831C402.711 772.231 402.999 772.584 403.348 772.869C403.698 773.154 404.103 773.363 404.537 773.486L425.377 779.435Z" stroke="black" stroke-width="1.5" stroke-linecap="round" stroke-linejoin="round"/>
<path d="M424.796 779.426L407.796 787.426C407.402 787.612 407.055 787.885 406.782 788.225C406.509 788.564 406.317 788.962 406.221 789.387C406.125 789.812 406.126 790.253 406.226 790.678C406.325 791.102 406.52 791.498 406.796 791.836C407.043 792.14 407.35 792.389 407.697 792.57C408.045 792.751 408.425 792.859 408.816 792.887C409.207 792.915 409.599 792.863 409.969 792.734C410.338 792.605 410.678 792.401 410.966 792.136L424.796 779.426Z" stroke="black" stroke-width="1.5" stroke-linecap="round" stroke-linejoin="round"/>
<path d="M361.627 344.146C363.273 347.326 364.917 350.506 366.557 353.686L361.627 344.146Z" fill="white"/>
<path d="M361.627 344.146C363.273 347.326 364.917 350.506 366.557 353.686" stroke="black" stroke-width="1.5" stroke-linecap="round" stroke-linejoin="round"/>
<path d="M331.618 338.456L284.618 320.956C282.238 320.136 281.498 316.816 282.388 314.776C282.627 314.298 282.959 313.871 283.365 313.522C283.77 313.172 284.24 312.906 284.748 312.739C285.257 312.571 285.793 312.506 286.327 312.547C286.86 312.588 287.381 312.734 287.858 312.976C293.618 315.236 299.558 317.046 305.328 319.306L311.328 303.816C311.25 303.005 310.994 302.221 310.579 301.519C310.165 300.817 309.601 300.216 308.928 299.756C308.807 299.667 308.68 299.587 308.548 299.516C307.507 298.931 306.278 298.782 305.127 299.1C303.977 299.419 302.999 300.179 302.408 301.216L300.508 304.716C300.174 305.481 299.552 306.083 298.777 306.391C298.002 306.7 297.136 306.691 296.368 306.366C295.341 306.009 294.473 305.301 293.918 304.366C293.548 303.676 293.238 302.476 295.018 298.456C295.927 296.398 297.014 294.424 298.268 292.556L293.708 293.106C292.824 293.211 291.928 293.082 291.11 292.731C290.292 292.38 289.58 291.819 289.048 291.106C288.906 290.954 288.806 290.768 288.758 290.566C288.522 289.76 288.522 288.903 288.758 288.096C288.94 287.474 289.296 286.917 289.783 286.488C290.269 286.06 290.867 285.778 291.508 285.676C295.503 284.915 299.576 284.64 303.638 284.856C306.684 284.925 309.717 285.28 312.698 285.916L301.608 280.916C300.416 280.433 299.456 279.509 298.928 278.336C298.723 277.836 298.631 277.298 298.659 276.758C298.687 276.219 298.833 275.692 299.088 275.216C299.376 274.65 299.786 274.155 300.288 273.766C300.947 273.29 301.723 273.002 302.534 272.933C303.344 272.864 304.158 273.017 304.888 273.376L324.718 282.396L315.178 273.536C314.429 272.876 313.946 271.965 313.821 270.975C313.696 269.984 313.937 268.982 314.498 268.156C315.054 267.386 315.779 266.753 316.618 266.306C317.544 265.835 318.599 265.681 319.621 265.867C320.644 266.053 321.577 266.569 322.278 267.336L330.838 276.856C338.098 284.926 341.758 289.066 343.128 293.856C344.043 297.109 344.231 300.523 343.678 303.856L331.618 338.426" fill="#D88B6D"/>
<path d="M331.618 338.456L284.618 320.956C282.238 320.136 281.498 316.816 282.388 314.776C282.627 314.298 282.959 313.871 283.365 313.522C283.77 313.172 284.24 312.906 284.748 312.739C285.257 312.571 285.793 312.506 286.327 312.547C286.86 312.588 287.381 312.734 287.858 312.976C293.618 315.236 299.558 317.046 305.328 319.306L311.328 303.816C311.25 303.005 310.994 302.221 310.579 301.519C310.165 300.817 309.601 300.216 308.928 299.756C308.807 299.667 308.68 299.587 308.548 299.516C307.507 298.931 306.278 298.782 305.127 299.1C303.977 299.419 302.999 300.179 302.408 301.216L300.508 304.716C300.174 305.481 299.552 306.083 298.777 306.391C298.002 306.7 297.136 306.691 296.368 306.366C295.341 306.009 294.473 305.301 293.918 304.366C293.548 303.676 293.238 302.476 295.018 298.456C295.927 296.398 297.014 294.424 298.268 292.556L293.708 293.106C292.824 293.211 291.928 293.082 291.11 292.731C290.292 292.38 289.58 291.819 289.048 291.106C288.906 290.954 288.806 290.768 288.758 290.566C288.522 289.76 288.522 288.903 288.758 288.096C288.94 287.474 289.296 286.917 289.783 286.488C290.269 286.06 290.867 285.778 291.508 285.676C295.503 284.915 299.576 284.64 303.638 284.856C306.684 284.925 309.717 285.28 312.698 285.916L301.608 280.916C300.416 280.433 299.456 279.509 298.928 278.336C298.723 277.836 298.631 277.298 298.659 276.758C298.687 276.219 298.833 275.692 299.088 275.216C299.376 274.65 299.786 274.155 300.288 273.766C300.947 273.29 301.723 273.002 302.534 272.933C303.344 272.864 304.158 273.017 304.888 273.376L324.718 282.396L315.178 273.536C314.429 272.876 313.946 271.965 313.821 270.975C313.696 269.984 313.937 268.982 314.498 268.156C315.054 267.386 315.779 266.753 316.618 266.306C317.544 265.835 318.599 265.681 319.621 265.867C320.644 266.053 321.577 266.569 322.278 267.336L330.838 276.856C338.098 284.926 341.758 289.066 343.128 293.856C344.043 297.109 344.231 300.523 343.678 303.856L331.618 338.426" stroke="black" stroke-width="1.5" stroke-linecap="round" stroke-linejoin="round"/>
<path d="M298.227 292.606C300.295 291.498 302.584 290.868 304.928 290.762C307.271 290.656 309.608 291.078 311.767 291.996C313.966 293.005 315.897 294.516 317.406 296.408C318.916 298.299 319.96 300.518 320.457 302.886" stroke="black" stroke-width="1.5" stroke-linecap="round" stroke-linejoin="round"/>
<path d="M327.718 298.866C327.082 296.24 325.808 293.811 324.008 291.796C321.032 288.581 317.022 286.511 312.678 285.946" stroke="black" stroke-width="1.5" stroke-linecap="round" stroke-linejoin="round"/>
<path d="M335.638 293.866C334.542 291.934 333.248 290.121 331.778 288.456C329.706 286.114 327.316 284.074 324.678 282.396" stroke="black" stroke-width="1.5" stroke-linecap="round" stroke-linejoin="round"/>
<path d="M330.717 337.886C344.717 345.886 360.937 354.816 376.627 362.766C376.627 362.766 388.627 368.846 397.827 373.176C411.827 379.776 457.127 387.336 517.567 392.636C515.774 374.763 513.987 356.889 512.207 339.016L413.017 335.596C389.897 325.026 366.257 313.906 343.137 303.336" fill="#D88B6D"/>
<path d="M330.717 337.886C344.717 345.886 360.937 354.816 376.627 362.766C376.627 362.766 388.627 368.846 397.827 373.176C411.827 379.776 457.127 387.336 517.567 392.636C515.774 374.763 513.987 356.889 512.207 339.016L413.017 335.596C389.897 325.026 366.257 313.906 343.137 303.336" stroke="black" stroke-width="1.5" stroke-linecap="round" stroke-linejoin="round"/>
<path d="M331.615 338.456L332.075 338.716L331.615 338.456Z" fill="#D88B6D"/>
<path d="M331.615 338.456L332.075 338.716" stroke="black" stroke-width="1.5" stroke-linecap="round" stroke-linejoin="round"/>
<path d="M609.485 407.186L584.499 345.036C571.766 349.316 585.499 341.5 584.499 345.036C565.999 348.5 561.999 348.5 553.499 348.5C537.499 346.5 530.695 346.476 526.115 343.276C522.745 340.906 522.885 339.126 520.505 336.866C512.315 329.106 491.245 331.866 483.245 343.376C482.188 344.916 481.357 346.6 480.775 348.376C481.235 352.789 481.612 357.262 481.905 361.796C484.845 407.716 477.975 449.556 467.035 485.796C492.986 500.79 523.123 506.903 552.865 503.206L591.715 505.526C597.622 472.732 603.545 439.952 609.485 407.186Z" fill="white"/>
<path d="M584.499 345.036L609.485 407.186C603.545 439.952 597.622 472.732 591.715 505.526L552.865 503.206C523.123 506.903 492.986 500.79 467.035 485.796C477.975 449.556 484.845 407.716 481.905 361.796C481.612 357.262 481.235 352.789 480.775 348.376C481.357 346.6 482.188 344.916 483.245 343.376C491.245 331.866 512.315 329.106 520.505 336.866C522.885 339.126 522.745 340.906 526.115 343.276C530.695 346.476 537.499 346.5 553.499 348.5C561.999 348.5 565.999 348.5 584.499 345.036ZM584.499 345.036C585.499 341.5 571.766 349.316 584.499 345.036V345.036Z" stroke="black" stroke-width="1.5" stroke-linecap="round" stroke-linejoin="round"/>
<path d="M594.426 388.426C594.016 389.716 593.636 391.036 593.306 392.376C588.306 412.726 595.076 432.076 602.206 445.636C604.606 434.036 607.003 422.439 609.396 410.846L594.426 388.426Z" fill="black"/>
<path d="M580.426 344.096C595.937 339.777 612.483 341.168 627.054 348.017C641.626 354.866 653.255 366.717 659.826 381.416L621.826 424.696L591.456 398.146" fill="white"/>
<path d="M580.426 344.096C595.937 339.777 612.483 341.168 627.054 348.017C641.626 354.866 653.255 366.717 659.826 381.416L621.826 424.696L591.456 398.146" stroke="black" stroke-width="1.5" stroke-linecap="round" stroke-linejoin="round"/>
<path d="M526.117 343.276C525.026 340.98 523.656 338.827 522.037 336.866C514.857 328.226 504.757 325.986 497.677 324.516C477.777 320.386 458.977 325.516 450.387 328.366C448.887 347.459 447.384 366.549 445.877 385.636C457.536 390.341 470.295 391.625 482.657 389.336" fill="white"/>
<path d="M526.117 343.276C525.026 340.98 523.656 338.827 522.037 336.866C514.857 328.226 504.757 325.986 497.677 324.516C477.777 320.386 458.977 325.516 450.387 328.366C448.887 347.459 447.384 366.549 445.877 385.636C457.536 390.341 470.295 391.625 482.657 389.336" stroke="black" stroke-width="1.5" stroke-linecap="round" stroke-linejoin="round"/>
<path d="M659.826 381.416C660.078 381.234 660.289 381.003 660.449 380.736C660.608 380.47 660.711 380.173 660.752 379.866C660.793 379.558 660.772 379.245 660.688 378.946C660.604 378.647 660.461 378.368 660.266 378.126C659.93 377.83 659.512 377.644 659.067 377.592C658.622 377.54 658.172 377.625 657.776 377.836L619.986 422.386C619.913 422.716 619.938 423.06 620.06 423.375C620.181 423.69 620.394 423.962 620.67 424.157C620.945 424.351 621.273 424.46 621.61 424.469C621.948 424.478 622.281 424.386 622.566 424.206L659.826 381.416Z" fill="#F25A33" stroke="black" stroke-width="1.5" stroke-linecap="round" stroke-linejoin="round"/>
<path d="M445.307 385.336C445.249 385.81 445.369 386.288 445.645 386.679C445.92 387.069 446.331 387.342 446.797 387.446C447.071 387.47 447.347 387.436 447.607 387.345C447.866 387.255 448.104 387.11 448.303 386.921C448.503 386.732 448.66 386.503 448.764 386.248C448.868 385.994 448.917 385.72 448.907 385.446C449.401 366.719 449.884 347.992 450.357 329.266C450.205 328.967 449.968 328.719 449.677 328.553C449.385 328.387 449.052 328.31 448.717 328.332C448.382 328.353 448.061 328.472 447.793 328.673C447.524 328.874 447.321 329.15 447.207 329.466C446.574 348.106 445.941 366.729 445.307 385.336Z" fill="#F25A33" stroke="black" stroke-width="1.5" stroke-linecap="round" stroke-linejoin="round"/>
<path d="M586.887 342.636C580.208 348.799 571.965 353.008 563.057 354.806C556.429 356.295 549.526 356.013 543.042 353.99C536.558 351.966 530.72 348.271 526.117 343.276C527.021 342.676 528.109 342.417 529.187 342.546C529.807 342.639 530.402 342.856 530.936 343.184C531.47 343.513 531.933 343.945 532.297 344.456L580.087 343.696C581.057 342.764 582.309 342.18 583.647 342.036C584.762 341.93 585.884 342.137 586.887 342.636Z" fill="#F25A33" stroke="black" stroke-width="1.5" stroke-linecap="round" stroke-linejoin="round"/>
<path d="M482.457 389.396L481.438 376.636" stroke="black" stroke-width="1.5" stroke-linecap="round" stroke-linejoin="round"/>
<path d="M812.847 529.063L811.747 521.354L784.877 523.493L781.857 537.784L785.187 548.003L812.847 529.063Z" fill="#F7CCB9" stroke="black" stroke-width="1.5" stroke-linecap="round" stroke-linejoin="round"/>
<path d="M806.277 525.013H806.717" stroke="black" stroke-width="1.5" stroke-linecap="round" stroke-linejoin="round"/>
<path d="M806.719 525.043C808.474 525.172 810.17 525.73 811.66 526.668C813.149 527.606 814.384 528.896 815.259 530.423L817.259 534.053C818.379 536.053 821.179 536.673 823.499 535.383C825.819 534.093 826.789 531.383 825.659 529.383L820.289 519.713C819.412 518.153 818.228 516.786 816.808 515.697C815.389 514.607 813.763 513.816 812.029 513.373H811.929C809.337 512.71 806.646 512.53 803.989 512.843C802.433 513.017 800.868 512.615 799.589 511.713C799.417 511.579 799.257 511.432 799.109 511.273C794.362 493.066 789.616 474.856 784.869 456.643C780.282 432.809 775.689 408.979 771.089 385.153L734.049 430.323C746.289 467.603 758.536 504.893 770.789 542.193L779.039 533.943L782.279 540.253" fill="#F7CCB9"/>
<path d="M806.719 525.043C808.474 525.172 810.17 525.73 811.66 526.668C813.149 527.606 814.384 528.896 815.259 530.423L817.259 534.053C818.379 536.053 821.179 536.673 823.499 535.383C825.819 534.093 826.789 531.383 825.659 529.383L820.289 519.713C819.412 518.153 818.228 516.786 816.808 515.697C815.389 514.607 813.763 513.816 812.029 513.373H811.929C809.337 512.71 806.646 512.53 803.989 512.843C802.433 513.017 800.868 512.615 799.589 511.713C799.417 511.579 799.257 511.432 799.109 511.273C794.362 493.066 789.616 474.856 784.869 456.643C780.282 432.809 775.689 408.979 771.089 385.153L734.049 430.323C746.289 467.603 758.536 504.893 770.789 542.193L779.039 533.943L782.279 540.253" stroke="black" stroke-width="1.5" stroke-linecap="round" stroke-linejoin="round"/>
<path d="M782.277 540.193C784.947 553.513 786.427 558.853 789.087 572.193C789.231 572.785 789.576 573.308 790.063 573.673C790.55 574.038 791.149 574.222 791.757 574.193H792.057C792.366 574.161 792.669 574.087 792.957 573.973C793.53 573.773 794.022 573.393 794.361 572.89C794.7 572.388 794.867 571.789 794.837 571.183C794.127 562.573 793.207 555.183 792.497 546.553C794.717 554.453 797.157 565.083 799.377 572.983C799.642 573.752 800.174 574.401 800.877 574.811C801.581 575.22 802.408 575.363 803.207 575.213H803.287C805.497 574.923 807.067 572.983 806.607 571.073C802.607 554.323 800.257 544.193 800.557 544.073C800.857 543.953 803.847 554.073 808.507 570.823C808.832 571.731 809.5 572.476 810.367 572.897C811.235 573.317 812.233 573.381 813.147 573.073H813.217C814.178 572.879 815.024 572.316 815.572 571.504C816.12 570.691 816.327 569.696 816.147 568.733C813.927 560.243 811.097 549.683 808.877 541.193C811.667 549.673 815.047 560.193 817.877 568.723C818.239 569.611 818.925 570.329 819.795 570.731C820.665 571.134 821.656 571.192 822.567 570.893H822.637C823.671 570.354 824.512 569.509 825.047 568.473C825.52 567.488 825.584 566.356 825.227 565.323C821.107 552.896 816.994 540.463 812.887 528.023" fill="#F7CCB9"/>
<path d="M782.277 540.193C784.947 553.513 786.427 558.853 789.087 572.193C789.231 572.785 789.576 573.308 790.063 573.673C790.55 574.038 791.149 574.222 791.757 574.193H792.057C792.366 574.161 792.669 574.087 792.957 573.973C793.53 573.773 794.022 573.393 794.361 572.89C794.7 572.388 794.867 571.789 794.837 571.183C794.127 562.573 793.207 555.183 792.497 546.553C794.717 554.453 797.157 565.083 799.377 572.983C799.642 573.752 800.174 574.401 800.877 574.811C801.581 575.22 802.408 575.363 803.207 575.213H803.287C805.497 574.923 807.067 572.983 806.607 571.073C802.607 554.323 800.257 544.193 800.557 544.073C800.857 543.953 803.847 554.073 808.507 570.823C808.832 571.731 809.5 572.476 810.367 572.897C811.235 573.317 812.233 573.381 813.147 573.073H813.217C814.178 572.879 815.024 572.316 815.572 571.504C816.12 570.691 816.327 569.696 816.147 568.733C813.927 560.243 811.097 549.683 808.877 541.193C811.667 549.673 815.047 560.193 817.877 568.723C818.239 569.611 818.925 570.329 819.795 570.731C820.665 571.134 821.656 571.192 822.567 570.893H822.637C823.671 570.354 824.512 569.509 825.047 568.473C825.52 567.488 825.584 566.356 825.227 565.323C821.107 552.896 816.994 540.463 812.887 528.023" stroke="black" stroke-width="1.5" stroke-linecap="round" stroke-linejoin="round"/>
<path d="M813.048 539.753C806.048 542.133 798.838 544.273 791.848 546.643L813.048 539.753Z" fill="#F7CCB9"/>
<path d="M813.048 539.753C806.048 542.133 798.838 544.273 791.848 546.643" stroke="black" stroke-width="1.5" stroke-linecap="round" stroke-linejoin="round"/>
<path d="M744.357 369.033L751.647 366.883C754.237 366.08 756.968 365.839 759.658 366.176C762.348 366.512 764.935 367.418 767.247 368.833C767.597 369.053 767.947 369.293 768.247 369.543C776.247 375.373 779.657 386.823 777.047 398.693L788.507 413.383L762.297 426.323C756.337 407.223 750.357 388.126 744.357 369.033Z" fill="#AD85AD" stroke="black" stroke-width="1.5" stroke-linecap="round" stroke-linejoin="round"/>
<path fill-rule="evenodd" clip-rule="evenodd" d="M844.339 772.193C834.078 776.745 823.119 779.521 811.929 780.403C816.602 768.136 821.265 755.863 825.919 743.583L890.259 737.453C882.452 746.04 873.734 753.752 864.259 760.453C858.043 765.046 851.367 768.98 844.339 772.193ZM695.399 785.953C690.904 783.244 686.757 779.997 683.049 776.283L691.479 763.953L772.669 786.953C763.679 790.613 726.329 804.503 695.399 785.953Z" fill="black"/>
<path d="M811.927 780.403L811.226 780.136C811.134 780.376 811.172 780.647 811.326 780.853C811.481 781.058 811.729 781.171 811.986 781.151L811.927 780.403ZM844.337 772.193L844.641 772.879L844.649 772.875L844.337 772.193ZM825.917 743.583L825.846 742.837C825.561 742.864 825.317 743.05 825.215 743.317L825.917 743.583ZM890.257 737.453L890.812 737.958C891.02 737.728 891.066 737.395 890.927 737.118C890.789 736.84 890.494 736.677 890.186 736.707L890.257 737.453ZM864.257 760.453L863.824 759.841C863.819 759.844 863.815 759.847 863.811 759.85L864.257 760.453ZM683.047 776.283L682.428 775.86C682.224 776.158 682.261 776.558 682.516 776.813L683.047 776.283ZM695.397 785.953L695.01 786.595L695.011 786.596L695.397 785.953ZM691.477 763.953L691.681 763.232C691.371 763.144 691.04 763.264 690.858 763.53L691.477 763.953ZM772.667 786.953L772.95 787.648C773.246 787.527 773.433 787.231 773.416 786.912C773.398 786.592 773.179 786.319 772.871 786.232L772.667 786.953ZM811.986 781.151C823.261 780.262 834.303 777.465 844.641 772.879L844.033 771.508C833.85 776.025 822.973 778.78 811.868 779.655L811.986 781.151ZM825.215 743.317C820.562 755.597 815.899 767.87 811.226 780.136L812.628 780.67C817.301 768.403 821.965 756.129 826.618 743.849L825.215 743.317ZM890.186 736.707L825.846 742.837L825.988 744.33L890.328 738.2L890.186 736.707ZM864.69 761.065C874.209 754.333 882.968 746.585 890.812 737.958L889.702 736.949C881.931 745.495 873.254 753.171 863.824 759.841L864.69 761.065ZM844.649 772.875C851.724 769.641 858.445 765.68 864.702 761.056L863.811 759.85C857.637 764.412 851.006 768.32 844.025 771.511L844.649 772.875ZM682.516 776.813C686.267 780.57 690.463 783.855 695.01 786.595L695.784 785.311C691.341 782.634 687.242 779.424 683.578 775.753L682.516 776.813ZM690.858 763.53L682.428 775.86L683.666 776.706L692.096 764.376L690.858 763.53ZM772.871 786.232L691.681 763.232L691.272 764.675L772.462 787.675L772.871 786.232ZM695.011 786.596C710.666 795.985 727.92 797.149 742.343 795.527C756.769 793.905 768.426 789.489 772.95 787.648L772.384 786.258C767.917 788.077 756.405 792.436 742.176 794.037C727.944 795.637 711.058 794.471 695.783 785.31L695.011 786.596Z" fill="black"/>
<path fill-rule="evenodd" clip-rule="evenodd" d="M875.328 751.192C880.098 756.199 885.426 760.641 891.208 764.432C898.954 769.476 907.435 773.287 916.348 775.732C913.339 779.991 909.561 783.651 905.208 786.522C883.258 800.872 855.188 788.322 851.838 786.762C849.608 780.682 846.048 771.742 841.048 761.252C836.004 750.872 830.433 740.756 824.358 730.942C835.488 722.952 846.768 715.032 858.208 707.322C863.822 722.076 869.528 736.699 875.328 751.192ZM743.619 787.383C745.606 794.014 748.361 800.391 751.829 806.383C756.474 814.374 762.33 821.596 769.189 827.793C764.58 830.232 759.558 831.792 754.379 832.393C728.319 835.293 708.929 811.423 706.639 808.533C707.389 802.093 708.279 792.523 708.519 780.893C708.683 769.355 708.263 757.817 707.259 746.323C720.809 744.213 734.439 742.233 748.129 740.513C746.455 756.206 744.952 771.829 743.619 787.383Z" fill="#F7CCB9"/>
<path d="M891.208 764.432L890.797 765.059L890.799 765.061L891.208 764.432ZM875.328 751.192L874.632 751.471C874.668 751.559 874.72 751.64 874.785 751.71L875.328 751.192ZM916.348 775.732L916.961 776.165C917.102 775.965 917.137 775.709 917.054 775.479C916.972 775.249 916.783 775.074 916.547 775.009L916.348 775.732ZM905.208 786.522L905.619 787.15L905.621 787.148L905.208 786.522ZM851.838 786.762L851.134 787.021C851.203 787.207 851.342 787.358 851.522 787.442L851.838 786.762ZM841.048 761.252L841.725 760.93L841.723 760.924L841.048 761.252ZM824.358 730.942L823.921 730.333C823.601 730.563 823.513 731.002 823.721 731.337L824.358 730.942ZM858.208 707.322L858.909 707.056C858.828 706.842 858.653 706.677 858.435 706.607C858.217 706.538 857.979 706.572 857.789 706.7L858.208 707.322ZM751.829 806.383L751.18 806.758V806.76L751.829 806.383ZM743.619 787.383L742.871 787.319C742.863 787.413 742.873 787.507 742.9 787.598L743.619 787.383ZM769.189 827.793L769.54 828.456C769.756 828.341 769.903 828.128 769.933 827.885C769.963 827.643 769.873 827.4 769.691 827.236L769.189 827.793ZM754.379 832.393L754.462 833.138H754.465L754.379 832.393ZM706.639 808.533L705.894 808.446C705.871 808.644 705.927 808.842 706.051 808.999L706.639 808.533ZM708.519 780.893L709.269 780.908V780.903L708.519 780.893ZM707.259 746.323L707.143 745.582C706.753 745.642 706.477 745.995 706.512 746.388L707.259 746.323ZM748.129 740.513L748.874 740.592C748.899 740.364 748.818 740.138 748.654 739.977C748.49 739.817 748.263 739.74 748.035 739.769L748.129 740.513ZM891.62 763.805C885.885 760.045 880.601 755.64 875.871 750.675L874.785 751.71C879.594 756.758 884.967 761.237 890.797 765.059L891.62 763.805ZM916.547 775.009C907.708 772.585 899.298 768.805 891.618 763.804L890.799 765.061C898.61 770.146 907.162 773.99 916.15 776.456L916.547 775.009ZM905.621 787.148C910.052 784.225 913.898 780.5 916.961 776.165L915.736 775.299C912.781 779.482 909.07 783.076 904.795 785.896L905.621 787.148ZM851.522 787.442C853.226 788.236 861.155 791.796 871.436 793.35C881.713 794.903 894.43 794.465 905.619 787.15L904.798 785.895C894.037 792.93 881.744 793.391 871.661 791.867C861.582 790.344 853.801 786.849 852.155 786.082L851.522 787.442ZM840.371 761.575C845.36 772.041 848.911 780.959 851.134 787.021L852.543 786.504C850.306 780.406 846.737 771.444 841.725 760.93L840.371 761.575ZM823.721 731.337C829.782 741.129 835.34 751.223 840.374 761.58L841.723 760.924C836.667 750.521 831.084 740.382 824.996 730.548L823.721 731.337ZM857.789 706.7C846.341 714.416 835.055 722.34 823.921 730.333L824.796 731.552C835.922 723.565 847.195 715.649 858.628 707.944L857.789 706.7ZM876.025 750.914C870.226 736.424 864.521 721.805 858.909 707.056L857.507 707.589C863.122 722.346 868.83 736.974 874.632 751.471L876.025 750.914ZM752.478 806.007C749.039 800.066 746.307 793.743 744.337 787.167L742.9 787.598C744.904 794.286 747.683 800.716 751.18 806.758L752.478 806.007ZM769.691 827.236C762.89 821.092 757.083 813.93 752.477 806.006L751.18 806.76C755.864 814.818 761.77 822.101 768.686 828.349L769.691 827.236ZM754.465 833.138C759.737 832.526 764.849 830.938 769.54 828.456L768.838 827.13C764.312 829.526 759.379 831.058 754.292 831.648L754.465 833.138ZM706.051 808.999C707.214 810.467 712.685 817.22 721.16 823.245C729.631 829.268 741.178 834.616 754.462 833.138L754.296 831.647C741.52 833.069 730.341 827.932 722.03 822.023C713.722 816.116 708.353 809.489 707.227 808.067L706.051 808.999ZM707.769 780.877C707.529 792.478 706.642 802.023 705.894 808.446L707.384 808.619C708.136 802.162 709.028 792.568 709.269 780.908L707.769 780.877ZM706.512 746.388C707.514 757.857 707.933 769.37 707.769 780.882L709.269 780.903C709.434 769.341 709.012 757.777 708.006 746.257L706.512 746.388ZM748.035 739.769C734.336 741.49 720.698 743.471 707.143 745.582L707.374 747.064C720.919 744.955 734.542 742.976 748.222 741.257L748.035 739.769ZM744.366 787.447C745.699 771.899 747.202 756.28 748.874 740.592L747.383 740.433C745.709 756.132 744.205 771.76 742.871 787.319L744.366 787.447Z" fill="black"/>
<path fill-rule="evenodd" clip-rule="evenodd" d="M845.838 768.791C846.446 768.689 847.07 768.748 847.648 768.963L878.548 779.953C880.804 780.77 883.157 781.291 885.548 781.503C892.446 782.042 899.384 781.365 906.048 779.503C908.058 778.943 913.328 777.473 913.388 775.283C913.37 774.769 913.155 774.282 912.788 773.923L913.848 773.363C914.865 772.844 915.965 772.505 917.098 772.363L933.098 770.363C935.678 770.043 938.538 771.803 940.098 774.683C942.008 778.223 941.348 782.233 938.618 783.683L907.168 799.393C906.349 799.803 905.424 799.953 904.518 799.823L865.708 794.423C868.601 801.603 871.535 808.756 874.508 815.883L869.298 818.613C866.383 814.084 863.232 809.711 859.858 805.513C859.774 805.41 859.676 805.289 859.557 805.142C858.995 804.449 857.958 803.168 855.648 800.363C854.715 799.233 853.961 798.328 853.334 797.575C851.889 795.841 851.114 794.911 850.368 793.893C847.308 789.723 844.108 783.243 842.948 772.833C842.848 772.225 842.91 771.601 843.126 771.024C843.343 770.447 843.708 769.937 844.184 769.545C844.66 769.153 845.23 768.893 845.838 768.791ZM709.372 789.806C709.961 789.991 710.491 790.328 710.908 790.783L733.488 814.653C735.136 816.402 737.005 817.928 739.048 819.193C744.966 822.768 751.469 825.27 758.258 826.583C760.308 826.993 765.718 828.053 766.718 826.133C766.936 825.666 766.964 825.132 766.798 824.643H767.998C769.142 824.626 770.279 824.812 771.358 825.193L786.518 830.603C788.978 831.463 790.728 834.333 790.828 837.603C790.938 841.613 788.538 844.893 785.448 844.963L750.288 844.783C749.375 844.779 748.486 844.496 747.738 843.973L715.528 821.653L713.698 844.773L707.828 844.853C707.27 839.496 706.429 834.172 705.308 828.903C705.275 828.752 705.238 828.57 705.19 828.34C705.007 827.447 704.673 825.825 703.878 822.413C703.557 820.998 703.294 819.859 703.074 818.909C702.562 816.691 702.288 815.507 702.078 814.253C701.238 809.113 701.298 801.923 704.968 792.113C705.151 791.524 705.486 790.993 705.94 790.574C706.394 790.156 706.951 789.864 707.553 789.729C708.156 789.594 708.783 789.621 709.372 789.806Z" fill="#8CA45B"/>
<path d="M847.648 768.963L847.387 769.666L847.397 769.669L847.648 768.963ZM878.548 779.953L878.803 779.248L878.799 779.246L878.548 779.953ZM885.548 781.503L885.482 782.25L885.489 782.251L885.548 781.503ZM906.048 779.503L905.847 778.78H905.846L906.048 779.503ZM913.388 775.283L914.138 775.303C914.138 775.288 914.138 775.272 914.137 775.257L913.388 775.283ZM912.788 773.923L912.438 773.26C912.226 773.372 912.08 773.578 912.046 773.815C912.011 774.052 912.092 774.291 912.263 774.459L912.788 773.923ZM913.848 773.363L913.507 772.695L913.498 772.7L913.848 773.363ZM917.098 772.363L917.005 771.619H917.004L917.098 772.363ZM933.098 770.363L933.006 769.618L933.005 769.619L933.098 770.363ZM940.098 774.683L940.758 774.327L940.757 774.326L940.098 774.683ZM938.618 783.683L938.953 784.354C938.959 784.351 938.964 784.348 938.97 784.345L938.618 783.683ZM907.168 799.393L906.833 798.722H906.832L907.168 799.393ZM904.518 799.823L904.625 799.08H904.621L904.518 799.823ZM865.708 794.423L865.811 793.68C865.546 793.643 865.282 793.75 865.117 793.961C864.952 794.172 864.912 794.455 865.012 794.703L865.708 794.423ZM874.508 815.883L874.856 816.547C875.2 816.367 875.35 815.953 875.2 815.594L874.508 815.883ZM869.298 818.613L868.667 819.019C868.877 819.345 869.302 819.457 869.646 819.277L869.298 818.613ZM859.858 805.513L860.443 805.043L860.44 805.04L859.858 805.513ZM859.557 805.142L860.14 804.67L859.557 805.142ZM855.648 800.363L856.227 799.886L856.226 799.885L855.648 800.363ZM853.334 797.575L853.91 797.095L853.334 797.575ZM850.368 793.893L850.973 793.449L850.368 793.893ZM842.948 772.833L843.693 772.75C843.692 772.737 843.69 772.724 843.688 772.711L842.948 772.833ZM843.126 771.024L842.424 770.76L843.126 771.024ZM844.184 769.545L843.707 768.966L844.184 769.545ZM710.908 790.783L710.355 791.29L710.363 791.299L710.908 790.783ZM709.372 789.806L709.597 789.09L709.372 789.806ZM733.488 814.653L734.034 814.139L734.033 814.138L733.488 814.653ZM739.048 819.193L738.653 819.831L738.66 819.835L739.048 819.193ZM758.258 826.583L758.405 825.848L758.4 825.847L758.258 826.583ZM766.718 826.133L767.383 826.48C767.388 826.47 767.393 826.46 767.398 826.45L766.718 826.133ZM766.798 824.643V823.893C766.556 823.893 766.329 824.01 766.188 824.207C766.047 824.404 766.01 824.656 766.088 824.885L766.798 824.643ZM767.998 824.643V825.393H768.01L767.998 824.643ZM771.358 825.193L771.61 824.487L771.608 824.486L771.358 825.193ZM786.518 830.603L786.266 831.31L786.27 831.311L786.518 830.603ZM790.828 837.603L791.578 837.583V837.58L790.828 837.603ZM785.448 844.963L785.444 845.713C785.451 845.713 785.458 845.713 785.465 845.713L785.448 844.963ZM750.288 844.783L750.292 844.033L750.288 844.783ZM747.738 843.973L748.168 843.359L748.165 843.357L747.738 843.973ZM715.528 821.653L715.955 821.037C715.734 820.884 715.449 820.861 715.206 820.976C714.964 821.091 714.801 821.327 714.78 821.594L715.528 821.653ZM713.698 844.773L713.708 845.523C714.095 845.518 714.415 845.219 714.446 844.833L713.698 844.773ZM707.828 844.853L707.082 844.931C707.122 845.317 707.45 845.609 707.838 845.603L707.828 844.853ZM705.308 828.903L706.041 828.747V828.745L705.308 828.903ZM705.19 828.34L705.925 828.189L705.19 828.34ZM703.878 822.413L703.146 822.579L703.147 822.584L703.878 822.413ZM703.074 818.909L703.805 818.741L703.074 818.909ZM702.078 814.253L701.338 814.374V814.377L702.078 814.253ZM704.968 792.113L705.67 792.376C705.675 792.363 705.68 792.349 705.684 792.336L704.968 792.113ZM705.94 790.574L706.449 791.126L705.94 790.574ZM707.553 789.729L707.717 790.461L707.553 789.729ZM847.909 768.26C847.208 767.999 846.451 767.927 845.714 768.051L845.962 769.53C846.441 769.45 846.932 769.497 847.387 769.666L847.909 768.26ZM878.799 779.246L847.899 768.256L847.397 769.669L878.297 780.659L878.799 779.246ZM885.614 780.756C883.288 780.55 880.999 780.043 878.803 779.248L878.293 780.658C880.61 781.497 883.027 782.032 885.482 782.25L885.614 780.756ZM905.846 778.78C899.267 780.619 892.417 781.287 885.606 780.755L885.489 782.251C892.475 782.797 899.502 782.111 906.25 780.225L905.846 778.78ZM912.638 775.262C912.632 775.497 912.48 775.818 912.012 776.216C911.556 776.605 910.901 776.977 910.141 777.32C908.624 778.005 906.858 778.499 905.847 778.78L906.249 780.225C907.248 779.947 909.122 779.426 910.758 778.688C911.573 778.32 912.373 777.879 912.985 777.358C913.584 776.848 914.114 776.163 914.138 775.303L912.638 775.262ZM912.263 774.459C912.493 774.683 912.627 774.988 912.638 775.309L914.137 775.257C914.113 774.551 913.818 773.881 913.312 773.387L912.263 774.459ZM913.498 772.7L912.438 773.26L913.138 774.586L914.198 774.026L913.498 772.7ZM917.004 771.619C915.785 771.772 914.602 772.136 913.507 772.695L914.189 774.031C915.129 773.551 916.145 773.239 917.191 773.107L917.004 771.619ZM933.005 769.619L917.005 771.619L917.191 773.107L933.191 771.107L933.005 769.619ZM940.757 774.326C939.097 771.261 935.979 769.25 933.006 769.618L933.19 771.107C935.377 770.836 937.979 772.345 939.438 775.04L940.757 774.326ZM938.97 784.345C942.22 782.619 942.772 778.059 940.758 774.327L939.438 775.039C941.244 778.386 940.476 781.847 938.266 783.02L938.97 784.345ZM907.503 800.064L938.953 784.354L938.283 783.012L906.833 798.722L907.503 800.064ZM904.411 800.565C905.469 800.717 906.548 800.542 907.504 800.063L906.832 798.722C906.15 799.064 905.38 799.189 904.625 799.08L904.411 800.565ZM865.605 795.166L904.415 800.566L904.621 799.08L865.811 793.68L865.605 795.166ZM875.2 815.594C872.228 808.47 869.296 801.32 866.404 794.142L865.012 794.703C867.907 801.886 870.841 809.042 873.816 816.172L875.2 815.594ZM869.646 819.277L874.856 816.547L874.16 815.218L868.95 817.948L869.646 819.277ZM859.273 805.983C862.631 810.161 865.766 814.512 868.667 819.019L869.929 818.207C866.999 813.656 863.833 809.262 860.443 805.043L859.273 805.983ZM858.974 805.614C859.093 805.761 859.192 805.882 859.276 805.986L860.44 805.04C860.356 804.937 860.259 804.817 860.14 804.67L858.974 805.614ZM855.069 800.84C857.378 803.643 858.414 804.922 858.974 805.614L860.14 804.67C859.577 803.975 858.539 802.693 856.227 799.886L855.069 800.84ZM852.757 798.055C853.385 798.808 854.138 799.712 855.07 800.84L856.226 799.885C855.292 798.754 854.538 797.848 853.91 797.095L852.757 798.055ZM849.763 794.336C850.526 795.377 851.318 796.327 852.757 798.055L853.91 797.095C852.46 795.355 851.702 794.445 850.973 793.449L849.763 794.336ZM842.203 772.916C843.377 783.452 846.623 790.057 849.763 794.337L850.973 793.449C847.993 789.388 844.839 783.033 843.693 772.75L842.203 772.916ZM842.424 770.76C842.161 771.46 842.087 772.217 842.208 772.954L843.688 772.711C843.609 772.233 843.658 771.742 843.829 771.288L842.424 770.76ZM843.707 768.966C843.13 769.441 842.688 770.06 842.424 770.76L843.829 771.288C843.999 770.833 844.286 770.432 844.661 770.124L843.707 768.966ZM845.714 768.051C844.976 768.175 844.284 768.491 843.707 768.966L844.661 770.124C845.035 769.815 845.484 769.611 845.962 769.53L845.714 768.051ZM711.461 790.277C710.955 789.724 710.312 789.315 709.597 789.09L709.147 790.521C709.61 790.667 710.027 790.932 710.355 791.29L711.461 790.277ZM734.033 814.138L711.453 790.268L710.363 791.299L732.943 815.169L734.033 814.138ZM739.443 818.556C737.455 817.325 735.637 815.84 734.034 814.139L732.942 815.168C734.635 816.964 736.555 818.532 738.653 819.831L739.443 818.556ZM758.4 825.847C751.699 824.551 745.278 822.081 739.436 818.551L738.66 819.835C744.654 823.456 751.24 825.99 758.115 827.32L758.4 825.847ZM766.053 825.787C765.951 825.982 765.684 826.198 765.086 826.342C764.506 826.483 763.752 826.52 762.915 826.483C761.246 826.409 759.434 826.054 758.405 825.848L758.111 827.319C759.132 827.523 761.05 827.902 762.849 827.981C763.745 828.021 764.66 827.988 765.439 827.8C766.201 827.616 766.985 827.244 767.383 826.48L766.053 825.787ZM766.088 824.885C766.192 825.191 766.174 825.524 766.038 825.817L767.398 826.45C767.697 825.807 767.737 825.073 767.508 824.401L766.088 824.885ZM767.998 823.893H766.798V825.393H767.998V823.893ZM771.608 824.486C770.446 824.075 769.219 823.874 767.986 823.893L768.01 825.393C769.064 825.377 770.113 825.549 771.108 825.9L771.608 824.486ZM786.77 829.897L771.61 824.487L771.106 825.9L786.266 831.31L786.77 829.897ZM791.578 837.58C791.471 834.105 789.607 830.889 786.765 829.895L786.27 831.311C788.349 832.038 789.985 834.561 790.078 837.626L791.578 837.58ZM785.465 845.713C789.141 845.63 791.694 841.814 791.578 837.583L790.078 837.624C790.182 841.412 787.935 844.157 785.431 844.214L785.465 845.713ZM750.284 845.533L785.444 845.713L785.452 844.213L750.292 844.033L750.284 845.533ZM747.308 844.588C748.181 845.198 749.219 845.528 750.284 845.533L750.292 844.033C749.532 844.03 748.791 843.794 748.168 843.359L747.308 844.588ZM715.101 822.27L747.311 844.59L748.165 843.357L715.955 821.037L715.101 822.27ZM714.446 844.833L716.276 821.713L714.78 821.594L712.95 844.714L714.446 844.833ZM707.838 845.603L713.708 845.523L713.688 844.023L707.818 844.103L707.838 845.603ZM704.574 829.06C705.69 834.302 706.527 839.6 707.082 844.931L708.574 844.776C708.014 839.392 707.168 834.042 706.041 828.747L704.574 829.06ZM704.456 828.491C704.503 828.72 704.541 828.906 704.575 829.062L706.041 828.745C706.009 828.598 705.973 828.42 705.925 828.189L704.456 828.491ZM703.147 822.584C703.941 825.988 704.273 827.603 704.456 828.491L705.925 828.189C705.74 827.29 705.405 825.662 704.608 822.243L703.147 822.584ZM702.344 819.078C702.563 820.028 702.826 821.166 703.146 822.579L704.609 822.247C704.288 820.831 704.025 819.69 703.805 818.741L702.344 819.078ZM701.338 814.377C701.553 815.658 701.833 816.867 702.344 819.078L703.805 818.741C703.291 816.515 703.023 815.355 702.818 814.129L701.338 814.377ZM704.265 791.851C700.55 801.781 700.476 809.103 701.338 814.374L702.818 814.132C702 809.124 702.045 802.066 705.67 792.376L704.265 791.851ZM705.432 790.023C704.881 790.531 704.474 791.175 704.252 791.891L705.684 792.336C705.828 791.872 706.092 791.455 706.449 791.126L705.432 790.023ZM707.389 788.997C706.658 789.161 705.983 789.515 705.432 790.023L706.449 791.126C706.806 790.796 707.243 790.567 707.717 790.461L707.389 788.997ZM709.597 789.09C708.882 788.866 708.12 788.834 707.389 788.997L707.717 790.461C708.191 790.355 708.684 790.376 709.147 790.521L709.597 789.09Z" fill="black"/>
<path fill-rule="evenodd" clip-rule="evenodd" d="M848.547 791.723L861.257 790.443L909.857 797.913L907.167 799.393C906.348 799.804 905.423 799.954 904.517 799.823L865.707 794.423C868.6 801.603 871.534 808.757 874.507 815.883L869.297 818.613C866.382 814.085 863.231 809.712 859.857 805.513L859.007 804.463C857.73 802.895 856.688 801.629 856.091 800.904C855.889 800.658 855.738 800.475 855.647 800.363C854.547 799.073 852.547 796.643 848.547 791.723ZM701.447 811.492L713.357 816.092L753.357 844.682L750.287 844.782C749.375 844.778 748.485 844.495 747.737 843.972L715.527 821.652L713.697 844.772L707.827 844.852C707.27 839.495 706.429 834.171 705.307 828.902C705.275 828.733 705.235 828.549 705.185 828.321C705.141 828.118 705.088 827.879 705.027 827.582C704.636 825.794 704.304 824.315 704.092 823.374C703.99 822.92 703.916 822.591 703.877 822.412C703.588 821.307 703.207 819.558 702.571 816.632C702.263 815.215 701.894 813.522 701.447 811.492Z" fill="black"/>
<path d="M769.417 474.623C772.757 488.633 777.339 502.317 783.107 515.513C786.757 523.893 786.817 522.783 792.297 534.913C799.427 550.723 801.477 557.423 810.757 579.723C814.487 588.723 821.619 605.64 822.999 608.5C832.975 629.154 840.047 639.757 852.227 659.193C862.897 676.193 876.867 701.613 890.297 737.463C884.603 742.918 878.45 747.873 871.907 752.273C862.217 758.783 854.097 762.433 838.237 769.463C831.867 772.293 822.897 776.133 811.927 780.393C800.54 739.98 788.961 699.626 777.187 659.333C759.601 599.093 741.577 538.966 723.117 478.953C730.037 477.953 737.307 477.013 744.907 476.273C753.457 475.453 761.637 474.923 769.417 474.623Z" fill="#F25A33" stroke="black" stroke-width="1.5" stroke-linecap="round" stroke-linejoin="round"/>
<path d="M744.638 476.363C728.808 474.833 712.808 469.043 696.978 467.513C695.978 471.513 695.658 485.393 693.568 492.703C688.908 509.023 685.318 514.063 684.038 520.453C682.438 528.453 682.188 540.453 689.148 556.703C695.978 572.703 699.248 581.703 713.658 610.323C718.118 619.173 723.958 630.913 730.658 644.873C723.918 663.126 717.225 681.396 710.578 699.683C701.298 725.189 692.105 750.723 682.998 776.283C694.422 776.536 705.759 778.34 716.698 781.643C733.238 786.643 741.848 793.233 756.528 792.363C762.914 791.949 769.159 790.302 774.918 787.513L793.248 664.113C797.535 649.47 796.631 633.795 790.688 619.743C784.368 604.813 772.438 574.873 755.428 536.393" fill="#F25A33"/>
<path d="M744.638 476.363C728.808 474.833 712.808 469.043 696.978 467.513C695.978 471.513 695.658 485.393 693.568 492.703C688.908 509.023 685.318 514.063 684.038 520.453C682.438 528.453 682.188 540.453 689.148 556.703C695.978 572.703 699.248 581.703 713.658 610.323C718.118 619.173 723.958 630.913 730.658 644.873C723.918 663.126 717.225 681.396 710.578 699.683C701.298 725.189 692.105 750.723 682.998 776.283C694.422 776.536 705.759 778.34 716.698 781.643C733.238 786.643 741.848 793.233 756.528 792.363C762.914 791.949 769.159 790.302 774.918 787.513L793.248 664.113C797.535 649.47 796.631 633.795 790.688 619.743C784.368 604.813 772.438 574.873 755.428 536.393" stroke="black" stroke-width="1.5" stroke-linecap="round" stroke-linejoin="round"/>
<path d="M710.535 474C710.015 483.229 707.39 492.216 702.862 500.274C695.083 514.09 688.543 518.335 683.812 520.944" stroke="black" stroke-width="1.5" stroke-linecap="round" stroke-linejoin="round"/>
<path d="M755.447 536.393L759.107 528.113" stroke="black" stroke-width="1.5" stroke-linecap="round" stroke-linejoin="round"/>
<path d="M734.228 639.572C733.098 641.482 731.958 643.382 730.828 645.282L735.768 646.382" stroke="black" stroke-width="1.5" stroke-linecap="round" stroke-linejoin="round"/>
<path d="M820.129 601.893L822.679 613.133" stroke="black" stroke-width="1.5" stroke-linecap="round" stroke-linejoin="round"/>
<path d="M770.167 474.663C769.24 469.33 768.314 463.996 767.387 458.663L764.967 453.663C766.547 446.893 773.197 416.913 767.967 393.333C767.236 390.34 766.266 387.411 765.067 384.573C762.962 379.061 759.596 374.119 755.237 370.143C754.044 369.09 752.774 368.127 751.437 367.263C751.287 367.169 751.114 367.119 750.937 367.119C750.76 367.119 742.649 367.025 742.499 367.119C750.937 367.119 742.499 367.119 710.999 367.903C700.057 367.903 700.057 367.903 700.057 367.903C689.137 371.253 677.527 374.723 666.617 378.083C671.687 398.983 682.097 446.473 687.167 467.383L681.647 487.193C699.82 486.876 717.943 485.204 735.867 482.193C748.247 480.073 759.707 477.483 770.167 474.663Z" fill="white" stroke="black" stroke-width="1.5" stroke-linecap="round" stroke-linejoin="round"/>
<path d="M760.828 452.083L748.008 454.563" stroke="black" stroke-width="1.5" stroke-linecap="round" stroke-linejoin="round"/>
<path d="M721.609 422.003C723.769 437.813 722.999 442.603 725.199 459.093C726.639 469.853 728.199 486.563 729.319 492.363C712.73 497.753 695.346 500.286 677.909 499.853C678.689 497.183 679.079 493.163 680.509 488.573C684.461 475.976 684.377 462.46 680.269 449.913C677.354 441.077 675.222 432.002 673.899 422.793C671.617 407.005 671.704 390.965 674.159 375.203C681.539 373.013 689.109 370.983 696.489 368.793C703.876 374.485 709.902 381.751 714.129 390.063C715.329 392.443 718.439 398.943 721.609 422.003Z" fill="#AD85AD" stroke="black" stroke-width="1.5" stroke-linecap="round" stroke-linejoin="round"/>
<path d="M715.447 403.773C720.271 408.078 724.861 412.638 729.197 417.433C734.214 422.971 738.889 428.808 743.197 434.913L820.047 395.093L831.327 421.643L753.047 469.573C747.757 472.814 741.495 474.09 735.358 473.175C729.222 472.261 723.603 469.216 719.487 464.573C697.487 439.693 684.487 420.103 676.627 406.573C671.197 397.253 665.947 386.913 669.477 383.093C673.967 378.223 690.137 386.583 692.707 387.943" fill="#F7CCB9"/>
<path d="M715.447 403.773C720.271 408.078 724.861 412.638 729.197 417.433C734.214 422.971 738.889 428.808 743.197 434.913L820.047 395.093L831.327 421.643L753.047 469.573C747.757 472.814 741.495 474.09 735.358 473.175C729.222 472.261 723.603 469.216 719.487 464.573C697.487 439.693 684.487 420.103 676.627 406.573C671.197 397.253 665.947 386.913 669.477 383.093C673.967 378.223 690.137 386.583 692.707 387.943" stroke="black" stroke-width="1.5" stroke-linecap="round" stroke-linejoin="round"/>
<path d="M816.229 396.613C816.868 396.079 817.478 395.512 818.058 394.913C819.448 393.273 819.879 391.693 821.979 389.083C825.099 385.213 828.979 382.763 833.979 379.563C835.174 378.804 836.412 378.116 837.688 377.503L848.688 372.253C850.568 371.353 852.988 372.363 854.128 374.583C854.178 374.673 854.208 374.743 854.248 374.823C854.58 375.597 854.795 376.416 854.888 377.253L872.539 368.933C873.612 368.519 874.802 368.526 875.87 368.953C876.938 369.379 877.804 370.194 878.298 371.233L878.498 371.633C878.557 371.753 878.612 371.877 878.659 372.003C879.142 373.033 879.218 374.208 878.873 375.292C878.528 376.376 877.787 377.291 876.798 377.853L851.238 390.093C851.823 390.347 852.347 390.725 852.772 391.202C853.196 391.679 853.512 392.242 853.698 392.853C853.923 393.695 853.878 394.588 853.568 395.403C854.591 395.918 855.422 396.749 855.938 397.773C856.443 398.802 856.597 399.968 856.378 401.093C857.848 401.681 859.068 402.763 859.828 404.153C860.043 404.586 860.171 405.057 860.203 405.54C860.236 406.023 860.173 406.507 860.018 406.965C859.863 407.423 859.618 407.846 859.299 408.21C858.98 408.573 858.593 408.87 858.159 409.083L840.958 417.793C835.678 420.653 830.398 422.513 825.128 425.373" fill="#F7CCB9"/>
<path d="M816.229 396.613C816.868 396.079 817.478 395.512 818.058 394.913C819.448 393.273 819.879 391.693 821.979 389.083C825.099 385.213 828.979 382.763 833.979 379.563C835.174 378.804 836.412 378.116 837.688 377.503L848.688 372.253C850.568 371.353 852.988 372.363 854.128 374.583C854.178 374.673 854.208 374.743 854.248 374.823C854.58 375.597 854.795 376.416 854.888 377.253L872.539 368.933C873.612 368.519 874.802 368.526 875.87 368.953C876.938 369.379 877.804 370.194 878.298 371.233L878.498 371.633C878.557 371.753 878.612 371.877 878.659 372.003C879.142 373.033 879.218 374.208 878.873 375.292C878.528 376.376 877.787 377.291 876.798 377.853L851.238 390.093C851.823 390.347 852.347 390.725 852.772 391.202C853.196 391.679 853.512 392.242 853.698 392.853C853.923 393.695 853.878 394.588 853.568 395.403C854.591 395.918 855.422 396.749 855.938 397.773C856.443 398.802 856.597 399.968 856.378 401.093C857.848 401.681 859.068 402.763 859.828 404.153C860.043 404.586 860.171 405.057 860.203 405.54C860.236 406.023 860.173 406.507 860.018 406.965C859.863 407.423 859.618 407.846 859.299 408.21C858.98 408.573 858.593 408.87 858.159 409.083L840.958 417.793C835.678 420.653 830.398 422.513 825.128 425.373" stroke="black" stroke-width="1.5" stroke-linecap="round" stroke-linejoin="round"/>
<path d="M833.396 387.193C836.476 385.713 851.816 378.743 854.896 377.253L833.396 387.193Z" fill="#F7CCB9"/>
<path d="M833.396 387.193C836.476 385.713 851.816 378.743 854.896 377.253" stroke="black" stroke-width="1.5" stroke-miterlimit="10" stroke-linecap="round" stroke-linejoin="round"/>
<path d="M701.5 438.5L710 453.5C701.631 452.26 693.229 455.526 687.894 462.092L683.5 467.5V456.5L701.5 438.5Z" fill="black" stroke="black" stroke-linecap="round" stroke-linejoin="round"/>
<path d="M743.216 434.913L737.146 437.723" stroke="black" stroke-width="1.5" stroke-linecap="round" stroke-linejoin="round"/>
<path d="M703.447 389.193L735.107 422.893L670.767 463.753L665.877 417.953C661.846 414.276 659.013 409.473 657.745 404.166C656.477 398.86 656.833 393.295 658.767 388.193C663.057 377.003 674.877 369.673 685.057 370.833C687.187 371.082 689.259 371.687 691.187 372.623" fill="#AD85AD"/>
<path d="M703.447 389.193L735.107 422.893L670.767 463.753L665.877 417.953C661.846 414.276 659.013 409.473 657.745 404.166C656.477 398.86 656.833 393.295 658.767 388.193C663.057 377.003 674.877 369.673 685.057 370.833C687.187 371.082 689.259 371.687 691.187 372.623" stroke="black" stroke-width="1.5" stroke-linecap="round" stroke-linejoin="round"/>
<path d="M540.492 321.199C537.622 330.089 535.562 335.269 532.682 344.199C540.449 349.771 549.93 352.429 559.462 351.709C567.112 351.023 574.402 348.148 580.462 343.429C577.682 332.169 574.905 320.909 572.132 309.649" fill="#D88B6D"/>
<path d="M540.492 321.199C537.622 330.089 535.562 335.269 532.682 344.199C540.449 349.771 549.93 352.429 559.462 351.709C567.112 351.023 574.402 348.148 580.462 343.429C577.682 332.169 574.905 320.909 572.132 309.649" stroke="black" stroke-width="1.5" stroke-linecap="round" stroke-linejoin="round"/>
<path d="M518.921 266.829C518.691 272.119 520.04 273.189 520.25 282.119C520.25 283.479 520.331 287.119 519.991 291.699C519.321 300.869 517.991 301.699 518.431 305.529C518.824 308.441 519.864 311.227 521.475 313.685C523.086 316.142 525.227 318.207 527.741 319.729C531.741 321.999 535.741 321.669 550.741 318.729C557.331 317.459 565.181 318.729 574.181 316.729C570.421 295.829 566.741 272.079 562.981 251.179C547.931 241.839 531.421 243.019 523.801 251.669C519.301 256.779 519.071 263.469 518.921 266.829Z" fill="#D88B6D"/>
<path d="M519.121 262.849C525.008 262.929 530.964 262.969 536.991 262.969C543.924 262.969 550.768 262.922 557.521 262.829L566.521 309.119C566.794 310.531 567.419 311.851 568.339 312.957C569.26 314.062 570.444 314.917 571.783 315.442C573.122 315.967 574.573 316.145 575.999 315.959C577.425 315.773 578.781 315.229 579.941 314.379H579.991C583.741 311.519 581.691 300.469 581.131 295.909C580.327 288.709 581.049 281.42 583.251 274.519C584.821 268.381 583.901 261.871 580.691 256.409C574.131 245.739 561.501 245.409 560.691 245.409C557.132 245.01 553.553 244.817 549.971 244.829C538.361 244.829 529.701 244.829 524.191 250.409C522.591 251.939 519.681 255.539 519.121 262.849Z" fill="black" stroke="black" stroke-width="1.5" stroke-linecap="round" stroke-linejoin="round"/>
<path d="M534.54 293.219H532.88C532.255 293.219 531.642 293.047 531.107 292.722C530.573 292.397 530.138 291.933 529.849 291.378C529.56 290.823 529.429 290.2 529.47 289.576C529.511 288.952 529.722 288.351 530.08 287.839L534.54 281.459" stroke="black" stroke-width="1.5" stroke-linecap="round" stroke-linejoin="round"/>
<path d="M528.949 297.069C529.439 298.119 530.246 298.99 531.255 299.558C532.265 300.127 533.427 300.365 534.579 300.239C535.401 300.088 536.18 299.755 536.858 299.266C537.536 298.776 538.096 298.142 538.499 297.409L528.949 297.069Z" fill="black"/>
<path fill-rule="evenodd" clip-rule="evenodd" d="M545.172 283.769C545.172 285.255 545.803 286.459 546.582 286.459C547.361 286.459 547.992 285.255 547.992 283.769C547.992 282.283 547.361 281.079 546.582 281.079C545.803 281.079 545.172 282.283 545.172 283.769ZM522.641 283.769C522.641 285.255 523.272 286.459 524.051 286.459C524.83 286.459 525.461 285.255 525.461 283.769C525.461 282.283 524.83 281.079 524.051 281.079C523.272 281.079 522.641 282.283 522.641 283.769Z" fill="black"/>
<path d="M573.261 298.179L566.561 275.359L568.412 275.299C570.492 275.233 572.517 275.98 574.055 277.382C575.594 278.784 576.525 280.731 576.652 282.809C576.752 284.609 576.242 286.39 575.204 287.864C574.166 289.338 572.66 290.418 570.932 290.929" fill="#D88B6D"/>
<path d="M573.261 298.179L566.561 275.359L568.412 275.299C570.492 275.233 572.517 275.98 574.055 277.382C575.594 278.784 576.525 280.731 576.652 282.809C576.752 284.609 576.242 286.39 575.204 287.864C574.166 289.338 572.66 290.418 570.932 290.929" stroke="black" stroke-width="1.5" stroke-linecap="round" stroke-linejoin="round"/>
<path d="M517.799 293.609C511.939 293.609 507.189 288.858 507.189 282.999C507.189 277.139 511.939 272.389 517.799 272.389C523.659 272.389 528.409 277.139 528.409 282.999C528.409 288.858 523.659 293.609 517.799 293.609Z" stroke="black" stroke-width="1.5" stroke-linecap="round" stroke-linejoin="round"/>
<path fill-rule="evenodd" clip-rule="evenodd" d="M551.582 279.119C550.809 277.744 549.561 276.699 548.072 276.179L551.582 279.119ZM520.031 279.119C520.808 277.747 522.055 276.703 523.541 276.179L520.031 279.119Z" fill="white"/>
<path fill-rule="evenodd" clip-rule="evenodd" d="M524.193 275.807C524.013 275.492 523.634 275.351 523.292 275.471C521.634 276.056 520.244 277.22 519.378 278.749C519.2 279.065 519.272 279.463 519.551 279.695C519.83 279.927 520.235 279.927 520.513 279.694L524.023 276.754C524.301 276.521 524.372 276.122 524.193 275.807ZM547.42 275.808C547.241 276.123 547.313 276.521 547.59 276.754L551.1 279.694C551.378 279.926 551.782 279.927 552.061 279.696C552.34 279.464 552.413 279.067 552.236 278.751C551.373 277.217 549.981 276.051 548.319 275.471C547.977 275.351 547.599 275.493 547.42 275.808Z" fill="black"/>
<path opacity="0.17" fill-rule="evenodd" clip-rule="evenodd" d="M537.211 282.999C537.211 288.858 541.961 293.609 547.821 293.609C553.68 293.609 558.431 288.858 558.431 282.999C558.431 277.139 553.68 272.389 547.821 272.389C541.961 272.389 537.211 277.139 537.211 282.999ZM506.779 282.999C506.779 288.858 511.529 293.609 517.389 293.609C523.249 293.609 527.999 288.858 527.999 282.999C527.999 277.139 523.249 272.389 517.389 272.389C511.529 272.389 506.779 277.139 506.779 282.999Z" fill="white"/>
<path d="M549.121 244.949H543.281C541.281 244.829 528.721 244.259 522.471 252.679C519.931 256.099 519.301 259.849 518.811 262.679C517.291 271.679 521.011 277.199 520.091 287.309C519.661 291.969 519.321 294.389 518.601 301.089C518.384 302.825 518.418 304.583 518.701 306.309C518.761 306.679 518.831 307.039 518.921 307.399C521.431 318.039 532.771 324.069 543.211 320.819L552.211 318.029" stroke="black" stroke-width="1.5" stroke-linecap="round" stroke-linejoin="round"/>
<path d="M547.823 293.609C541.963 293.609 537.213 288.858 537.213 282.999C537.213 277.139 541.963 272.389 547.823 272.389C553.682 272.389 558.433 277.139 558.433 282.999C558.433 288.858 553.682 293.609 547.823 293.609Z" stroke="black" stroke-width="1.5" stroke-linecap="round" stroke-linejoin="round"/>
<path d="M528.74 281.359H537.23" stroke="black" stroke-width="1.5" stroke-linecap="round" stroke-linejoin="round"/>
<path d="M557.12 262.329C557.01 265.909 513.61 274.049 506.82 260.329C504.6 255.819 506.37 249.069 510.14 245.779C514.9 241.629 523.14 242.659 528.01 245.399C529.08 245.989 530.28 246.839 530.28 246.839C532.14 248.249 533.17 249.689 535.8 251.909C546.8 261.109 557.19 260.609 557.12 262.329Z" fill="black" stroke="black" stroke-width="1.5" stroke-linecap="round" stroke-linejoin="round"/>
<path d="M1042.91 138.417L760.791 107.019L749.051 212.508L1031.17 243.906L1042.91 138.417Z" fill="white" stroke="black" stroke-width="1.5" stroke-linecap="round" stroke-linejoin="round"/>
<path d="M848.969 170.219C848.12 177.849 845.027 185.056 840.081 190.929C835.136 196.801 828.56 201.076 821.186 203.211C813.811 205.347 805.969 205.247 798.651 202.926C791.333 200.605 784.867 196.166 780.072 190.17C775.276 184.174 772.366 176.892 771.71 169.242C771.054 161.593 772.68 153.92 776.384 147.195C780.088 140.47 785.702 134.995 792.518 131.461C799.334 127.926 807.044 126.493 814.675 127.34C819.743 127.902 824.65 129.457 829.117 131.917C833.584 134.376 837.522 137.691 840.707 141.673C843.892 145.655 846.261 150.226 847.679 155.124C849.096 160.022 849.535 165.151 848.969 170.219Z" fill="#82AAD3" stroke="black" stroke-width="1.5" stroke-linecap="round" stroke-linejoin="round"/>
<path d="M811.461 173.252C820.838 173.248 828.438 165.644 828.435 156.266C828.432 146.888 820.827 139.288 811.449 139.292C802.071 139.295 794.472 146.899 794.475 156.277C794.478 165.655 802.083 173.255 811.461 173.252Z" fill="white" stroke="black" stroke-width="1.5" stroke-linecap="round" stroke-linejoin="round"/>
<path d="M830.895 189.155C830.381 193.824 828.441 198.22 825.339 201.747C819.261 204.29 812.635 205.243 806.086 204.518C799.538 203.792 793.282 201.411 787.908 197.6C785.294 192.793 784.484 187.21 785.625 181.859C786.766 176.508 789.781 171.741 794.128 168.418C795.631 171.144 797.766 173.469 800.355 175.198C802.944 176.927 805.91 178.009 809.004 178.353C812.098 178.696 815.229 178.292 818.134 177.174C821.04 176.056 823.634 174.256 825.699 171.927C827.685 174.298 829.17 177.047 830.063 180.008C830.956 182.97 831.239 186.081 830.895 189.155Z" fill="white" stroke="black" stroke-width="1.5" stroke-linecap="round" stroke-linejoin="round"/>
<path d="M989.974 175.248L863.386 161.16L861.037 182.259L987.626 196.348L989.974 175.248Z" fill="white" stroke="black" stroke-width="1.5" stroke-linecap="round" stroke-linejoin="round"/>
<path d="M1018.32 178.401L996.015 175.919L993.666 197.019L1015.97 199.501L1018.32 178.401Z" fill="#F25A33" stroke="black" stroke-width="1.5" stroke-linecap="round" stroke-linejoin="round"/>
<path d="M359.484 457.421L156.074 517.757L166.747 553.738L370.157 493.401L359.484 457.421Z" fill="white" stroke="black" stroke-width="1.5" stroke-linecap="round" stroke-linejoin="round"/>
<path d="M359.485 457.417L258.389 487.405L269.062 523.386L370.158 493.398L359.485 457.417Z" fill="#F25A33" stroke="black" stroke-width="1.5" stroke-linecap="round" stroke-linejoin="round"/>
<path d="M335.625 479.588L290.469 492.982L292.915 501.227L338.07 487.833L335.625 479.588Z" fill="white" stroke="black" stroke-width="1.5" stroke-linecap="round" stroke-linejoin="round"/>
<path d="M176.808 538.671C182.259 538.729 186.725 534.358 186.784 528.908C186.843 523.457 182.472 518.99 177.021 518.932C171.571 518.873 167.104 523.244 167.045 528.695C166.987 534.145 171.358 538.612 176.808 538.671Z" stroke="black" stroke-width="1.5" stroke-linecap="round" stroke-linejoin="round"/>
<path d="M185.537 533.344L196.447 538.992" stroke="black" stroke-width="1.5" stroke-linecap="round" stroke-linejoin="round"/>
<path d="M696.433 296.598C688.583 321.268 691.173 344.378 704.083 353.868C709.963 358.198 717.253 358.618 731.833 359.448C741.573 359.998 766.273 361.448 770.303 351.278C771.483 348.278 770.653 345.008 769.303 342.088C776.223 341.758 781.693 337.708 782.923 332.508C784.233 326.938 780.143 322.278 779.853 321.958C774.143 315.648 763.253 316.868 760.273 317.108C748.803 318.038 729.793 314.698 696.433 296.598Z" fill="black" stroke="black" stroke-width="1.5" stroke-linecap="round" stroke-linejoin="round"/>
<path d="M710.973 340.416L737.913 341.307C741.212 342.091 744.661 341.983 747.906 340.997C751.151 340.012 754.076 338.183 756.383 335.696C758.817 332.98 760.445 329.638 761.083 326.046C761.358 324.316 761.388 322.555 761.173 320.816C760.453 314.116 760.113 311.706 759.683 307.046C758.773 296.936 762.483 295.786 760.963 286.846C760.473 283.956 759.843 280.216 757.303 276.846C751.643 269.216 739.933 269.097 736.493 269.117C731.559 269.16 726.689 270.242 722.203 272.296L710.973 340.416Z" fill="#F7CCB9"/>
<path d="M696.433 298.598C694.856 292.463 695.769 285.953 698.973 280.488C705.523 269.818 718.153 269.488 718.973 269.488L729.683 268.918C731.453 268.498 747.473 264.988 758.143 275.218C759.617 276.66 760.916 278.271 762.013 280.018C762.663 281.018 766.183 286.488 764.113 291.948C763.871 292.619 763.534 293.252 763.113 293.828C762.195 294.944 761.04 295.842 759.733 296.458C757.333 297.578 742.073 294.858 721.603 288.968C722.903 292.248 722.863 302.488 721.503 315.498C720.834 322.343 718.673 328.958 715.173 334.878C714.01 336.918 712.577 338.791 710.913 340.448C706.1 326.488 701.273 312.538 696.433 298.598Z" fill="black" stroke="black" stroke-width="1.5" stroke-linecap="round" stroke-linejoin="round"/>
<path d="M738.382 341.358C741.252 350.238 744.132 359.358 747.012 368.268C739.245 373.839 729.764 376.497 720.232 375.778C712.585 375.088 705.297 372.217 699.232 367.508L711.512 340.228" fill="#F7CCB9"/>
<path d="M738.382 341.358C741.252 350.238 744.132 359.358 747.012 368.268C739.245 373.839 729.764 376.497 720.232 375.778C712.585 375.088 705.297 372.217 699.232 367.508L711.512 340.228" stroke="black" stroke-width="1.5" stroke-linecap="round" stroke-linejoin="round"/>
<path d="M746.113 317.337H747.773C748.399 317.334 749.012 317.161 749.546 316.835C750.08 316.509 750.514 316.043 750.802 315.488C751.091 314.933 751.222 314.31 751.181 313.686C751.141 313.062 750.931 312.46 750.573 311.947L746.113 305.577" stroke="black" stroke-width="1.5" stroke-linecap="round" stroke-linejoin="round"/>
<path d="M751.333 321.367C751.377 321.366 751.42 321.376 751.458 321.398C751.497 321.419 751.528 321.451 751.55 321.489C751.572 321.527 751.582 321.57 751.581 321.614C751.58 321.658 751.567 321.7 751.543 321.737C751.091 322.552 750.429 323.231 749.627 323.704C748.824 324.176 747.909 324.426 746.978 324.426C746.046 324.426 745.132 324.176 744.329 323.704C743.526 323.231 742.865 322.552 742.413 321.737C742.392 321.701 742.381 321.659 742.381 321.617C742.381 321.574 742.392 321.533 742.413 321.496C742.435 321.46 742.465 321.43 742.502 321.409C742.539 321.388 742.58 321.377 742.623 321.377L751.333 321.367Z" fill="black"/>
<path fill-rule="evenodd" clip-rule="evenodd" d="M735.482 307.887C735.482 309.373 734.851 310.577 734.072 310.577C733.294 310.577 732.662 309.373 732.662 307.887C732.662 306.402 733.294 305.197 734.072 305.197C734.851 305.197 735.482 306.402 735.482 307.887ZM757.052 307.887C757.052 309.373 756.421 310.577 755.642 310.577C754.864 310.577 754.232 309.373 754.232 307.887C754.232 306.402 754.864 305.197 755.642 305.197C756.421 305.197 757.052 306.402 757.052 307.887Z" fill="black"/>
<path d="M713.132 299.467L711.282 299.407C709.201 299.344 707.178 300.093 705.641 301.497C704.105 302.902 703.176 304.849 703.052 306.927C702.95 308.726 703.459 310.506 704.495 311.98C705.531 313.453 707.035 314.534 708.762 315.047" fill="#F7CCB9"/>
<path d="M713.132 299.467L711.282 299.407C709.201 299.344 707.178 300.093 705.641 301.497C704.105 302.902 703.176 304.849 703.052 306.927C702.95 308.726 703.459 310.506 704.495 311.98C705.531 313.453 707.035 314.534 708.762 315.047" stroke="black" stroke-width="1.5" stroke-linecap="round" stroke-linejoin="round"/>
<path fill-rule="evenodd" clip-rule="evenodd" d="M729.072 303.227C729.848 301.855 731.095 300.811 732.582 300.287L729.072 303.227ZM759.662 303.227C758.886 301.855 757.639 300.811 756.152 300.287L759.662 303.227Z" fill="white"/>
<path fill-rule="evenodd" clip-rule="evenodd" d="M733.234 299.916C733.413 300.231 733.342 300.629 733.064 300.862L729.554 303.802C729.276 304.035 728.871 304.036 728.592 303.804C728.314 303.572 728.241 303.173 728.419 302.858C729.285 301.328 730.675 300.163 732.333 299.58C732.675 299.459 733.054 299.601 733.234 299.916ZM755.501 299.916C755.68 299.601 756.059 299.459 756.401 299.58C758.059 300.163 759.45 301.328 760.315 302.858C760.494 303.173 760.421 303.572 760.142 303.804C759.863 304.036 759.459 304.035 759.181 303.802L755.671 300.862C755.393 300.629 755.321 300.231 755.501 299.916Z" fill="black"/>
<path d="M730.113 339.557L737.873 341.307C741.173 342.09 744.621 341.984 747.866 340.998C751.111 340.013 754.037 338.183 756.344 335.697C758.778 332.982 760.403 329.639 761.033 326.047C761.317 324.318 761.35 322.556 761.133 320.817C760.413 314.117 760.073 311.707 759.643 307.047C758.733 296.937 762.443 295.787 760.923 286.847C760.433 283.957 759.803 280.217 757.263 276.847C751.013 268.427 738.483 268.997 736.453 269.117C733.973 269.267 731.933 269.027 730.613 269.117" stroke="black" stroke-width="1.5" stroke-linecap="round" stroke-linejoin="round"/>
</svg>
