<svg width="1220" height="920" viewBox="0 0 1220 920" fill="none" xmlns="http://www.w3.org/2000/svg">
<path d="M716 421.76H797.48" stroke="#CCCCCC" stroke-width="1.5" stroke-linecap="round" stroke-linejoin="round"/>
<path d="M739.62 447.739H821.1" stroke="#CCCCCC" stroke-width="1.5" stroke-linecap="round" stroke-linejoin="round"/>
<path d="M750.25 409.949V458.359" stroke="#CCCCCC" stroke-width="1.5" stroke-linecap="round" stroke-linejoin="round"/>
<path d="M793.939 409.949V458.359" stroke="#CCCCCC" stroke-width="1.5" stroke-linecap="round" stroke-linejoin="round"/>
<path d="M776.229 356.81H857.7" stroke="#CCCCCC" stroke-width="1.5" stroke-linecap="round" stroke-linejoin="round"/>
<path d="M799.84 382.789H881.32" stroke="#CCCCCC" stroke-width="1.5" stroke-linecap="round" stroke-linejoin="round"/>
<path d="M810.47 345V393.42" stroke="#CCCCCC" stroke-width="1.5" stroke-linecap="round" stroke-linejoin="round"/>
<path d="M854.16 345V393.42" stroke="#CCCCCC" stroke-width="1.5" stroke-linecap="round" stroke-linejoin="round"/>
<path d="M198.863 577.949C189.057 609.597 183.4 642.384 182.033 675.489C181.683 692.489 183.793 722.169 202.453 751.059C205.455 755.741 208.798 760.197 212.453 764.389C233.633 788.649 264.593 802.119 296.803 802.119H432.093C454.851 802.12 477.276 796.647 497.474 786.161C517.672 775.675 535.05 760.483 548.143 741.869C553.519 730.356 556.308 717.805 556.313 705.099C556.243 684.909 548.903 670.099 544.823 662.019C541.089 654.638 536.515 647.712 531.193 641.379C509.973 616.449 486.043 615.819 442.433 593.269C430.293 586.983 418.53 579.995 407.203 572.339L363.293 517.189C358.833 510.359 319.393 451.359 276.483 457.439C234.923 463.339 211.713 536.599 198.863 577.949Z" stroke="#CCCCCC" stroke-width="1.5" stroke-linecap="round" stroke-linejoin="round"/>
<path d="M268.822 614.208C268.822 614.208 390.822 605.528 463.882 638.718" stroke="#CCCCCC" stroke-width="1.5" stroke-linecap="round" stroke-linejoin="round"/>
<path d="M395.975 619.318C400.228 604.171 404.481 589.021 408.735 573.868" stroke="#CCCCCC" stroke-width="1.5" stroke-linecap="round" stroke-linejoin="round"/>
<path d="M226.943 545.269C242.943 546.519 295.713 552.629 324.943 593.779C329.234 599.825 332.83 606.336 335.663 613.189" stroke="#CCCCCC" stroke-width="1.5" stroke-linecap="round" stroke-linejoin="round"/>
<path d="M859.579 762.77L857.539 802.599H866.729L877.959 762.77" stroke="#CCCCCC" stroke-width="1.5" stroke-linecap="round" stroke-linejoin="round"/>
<path d="M1011.03 762.77L1013.07 802.599H1003.88L992.649 762.77" stroke="#CCCCCC" stroke-width="1.5" stroke-linecap="round" stroke-linejoin="round"/>
<path d="M1019.41 486H845.789V762.77H1019.41V486Z" stroke="#CCCCCC" stroke-width="1.5" stroke-linecap="round" stroke-linejoin="round"/>
<path d="M1008.69 495.77H856.52V753H1008.69V495.77Z" stroke="#CCCCCC" stroke-width="1.5" stroke-linecap="round" stroke-linejoin="round"/>
<path d="M857.029 694.6H1008.69" stroke="#CCCCCC" stroke-width="1.5" stroke-linecap="round" stroke-linejoin="round"/>
<path d="M956.61 694.6H912.18V700.96H956.61V694.6Z" stroke="#CCCCCC" stroke-width="1.5" stroke-linecap="round" stroke-linejoin="round"/>
<path d="M857.029 628.22H1008.69" stroke="#CCCCCC" stroke-width="1.5" stroke-linecap="round" stroke-linejoin="round"/>
<path d="M956.61 628.22H912.18V634.58H956.61V628.22Z" stroke="#CCCCCC" stroke-width="1.5" stroke-linecap="round" stroke-linejoin="round"/>
<path d="M857.029 561.829H1008.69" stroke="#CCCCCC" stroke-width="1.5" stroke-linecap="round" stroke-linejoin="round"/>
<path d="M956.61 561.829H912.18V568.189H956.61V561.829Z" stroke="#CCCCCC" stroke-width="1.5" stroke-linecap="round" stroke-linejoin="round"/>
<path d="M956.61 495.939H912.18V502.299H956.61V495.939Z" stroke="#CCCCCC" stroke-width="1.5" stroke-linecap="round" stroke-linejoin="round"/>
<path d="M790.959 727.79C794.791 710.526 801.354 693.985 810.399 678.79C815.729 669.671 821.899 661.07 828.829 653.1C830.911 650.702 833.55 648.853 836.515 647.716C839.479 646.579 842.678 646.189 845.829 646.58" stroke="#CCCCCC" stroke-width="1.5" stroke-linecap="round" stroke-linejoin="round"/>
<path d="M845.789 696.789L824.229 728.499" stroke="#CCCCCC" stroke-width="1.5" stroke-linecap="round" stroke-linejoin="round"/>
<path d="M840.14 670.39C832.503 678.859 825.878 688.188 820.4 698.19C813.79 710.25 809.87 719.41 807.47 728.19" stroke="#CCCCCC" stroke-width="1.5" stroke-linecap="round" stroke-linejoin="round"/>
<path d="M778.119 654.4C778.259 646.13 778.239 637.78 777.829 628.9C776.892 608.748 774.466 588.693 770.569 568.9C769.945 565.755 769.969 562.517 770.64 559.382C771.31 556.247 772.614 553.282 774.47 550.668C776.326 548.054 778.697 545.847 781.436 544.181C784.175 542.515 787.225 541.426 790.399 540.98L790.849 540.92C796.531 540.113 802.313 541.407 807.109 544.559C811.905 547.71 815.386 552.504 816.899 558.04C820.934 572.674 823.246 587.729 823.789 602.9C824.409 619.9 818.719 655.98 816.259 668.56" stroke="#CCCCCC" stroke-width="1.5" stroke-linecap="round" stroke-linejoin="round"/>
<path d="M737.01 637.729C747.631 649.026 756.759 661.639 764.17 675.26C771.82 689.33 782.31 721.26 784.55 728.5" stroke="#CCCCCC" stroke-width="1.5" stroke-linecap="round" stroke-linejoin="round"/>
<path d="M846.89 762.769C843.34 775.671 835.232 786.847 824.068 794.225C812.904 801.603 799.444 804.681 786.183 802.888C772.923 801.095 760.762 794.553 751.959 784.476C743.155 774.399 738.305 761.47 738.31 748.089V728.569H845.79" stroke="#CCCCCC" stroke-width="1.5" stroke-linecap="round" stroke-linejoin="round"/>
<path d="M795.269 568.47C797.739 589.1 798.699 606.32 799.099 618.77C799.099 618.77 799.779 639.84 797.179 705.34C794.179 692.87 790.499 679.45 782.919 664.24C776.139 650.651 767.799 637.899 758.069 626.24C754.398 621.829 749.245 618.908 743.575 618.024C737.905 617.141 732.108 618.355 727.269 621.44L726.889 621.68C724.192 623.401 721.873 625.654 720.075 628.301C718.276 630.948 717.035 633.933 716.428 637.075C715.821 640.217 715.86 643.45 716.543 646.576C717.225 649.702 718.537 652.657 720.399 655.26C732.15 671.667 742.666 688.924 751.859 706.89C755.859 714.81 758.559 720.58 761.859 728.17" stroke="#CCCCCC" stroke-width="1.5" stroke-linecap="round" stroke-linejoin="round"/>
<path d="M828.5 162.5L874 117L918.5 161.5" stroke="black" stroke-width="1.5"/>
<path d="M874 121.25C876.347 121.25 878.25 119.347 878.25 117C878.25 114.653 876.347 112.75 874 112.75C871.653 112.75 869.75 114.653 869.75 117C869.75 119.347 871.653 121.25 874 121.25Z" fill="white" stroke="black" stroke-width="1.5"/>
<path d="M1063.91 161.409H684V349.319H1063.91V161.409Z" fill="white" stroke="black" stroke-width="1.5" stroke-linecap="round" stroke-linejoin="round"/>
<path fill-rule="evenodd" clip-rule="evenodd" d="M760.4 217.5C752.441 217.5 744.661 219.86 738.044 224.282C731.427 228.703 726.269 234.988 723.223 242.341C720.178 249.694 719.381 257.785 720.933 265.59C722.486 273.396 726.319 280.566 731.946 286.194C737.574 291.822 744.744 295.654 752.55 297.207C760.356 298.759 768.446 297.963 775.799 294.917C783.152 291.871 789.437 286.714 793.858 280.096C798.28 273.479 800.64 265.699 800.64 257.74C800.64 247.068 796.401 236.832 788.854 229.286C781.308 221.74 771.072 217.5 760.4 217.5ZM760.4 272.26C757.528 272.26 754.721 271.408 752.333 269.813C749.945 268.217 748.084 265.95 746.985 263.297C745.886 260.643 745.599 257.724 746.159 254.907C746.719 252.091 748.102 249.503 750.133 247.473C752.164 245.442 754.751 244.059 757.567 243.499C760.384 242.939 763.304 243.226 765.957 244.325C768.61 245.424 770.878 247.285 772.473 249.673C774.069 252.061 774.92 254.868 774.92 257.74C774.92 261.591 773.39 265.284 770.667 268.007C767.944 270.73 764.251 272.26 760.4 272.26ZM872.73 217.5C864.771 217.5 856.991 219.86 850.374 224.282C843.756 228.703 838.599 234.988 835.553 242.341C832.507 249.694 831.711 257.785 833.263 265.59C834.816 273.396 838.648 280.566 844.276 286.194C849.904 291.822 857.074 295.654 864.88 297.207C872.685 298.759 880.776 297.963 888.129 294.917C895.482 291.871 901.767 286.714 906.188 280.096C910.61 273.479 912.97 265.699 912.97 257.74C912.967 247.069 908.727 236.835 901.181 229.289C893.635 221.743 883.402 217.503 872.73 217.5ZM872.73 272.26C869.858 272.26 867.051 271.408 864.663 269.813C862.275 268.217 860.414 265.95 859.315 263.297C858.216 260.643 857.929 257.724 858.489 254.907C859.049 252.091 860.432 249.503 862.463 247.473C864.493 245.442 867.081 244.059 869.897 243.499C872.714 242.939 875.633 243.226 878.287 244.325C880.94 245.424 883.207 247.285 884.803 249.673C886.398 252.061 887.25 254.868 887.25 257.74C887.25 261.591 885.72 265.284 882.997 268.007C880.274 270.73 876.581 272.26 872.73 272.26ZM964.734 224.282C971.351 219.86 979.131 217.5 987.09 217.5C997.762 217.503 1008 221.743 1015.54 229.289C1023.09 236.835 1027.33 247.069 1027.33 257.74C1027.33 265.699 1024.97 273.479 1020.55 280.096C1016.13 286.714 1009.84 291.871 1002.49 294.917C995.136 297.963 987.045 298.759 979.24 297.207C971.434 295.654 964.264 291.822 958.636 286.194C953.008 280.566 949.176 273.396 947.623 265.59C946.071 257.785 946.868 249.694 949.913 242.341C952.959 234.988 958.117 228.703 964.734 224.282ZM979.023 269.813C981.411 271.408 984.218 272.26 987.09 272.26C990.941 272.26 994.634 270.73 997.357 268.007C1000.08 265.284 1001.61 261.591 1001.61 257.74C1001.61 254.868 1000.76 252.061 999.163 249.673C997.568 247.285 995.3 245.424 992.647 244.325C989.994 243.226 987.074 242.939 984.257 243.499C981.441 244.059 978.854 245.442 976.823 247.473C974.792 249.503 973.409 252.091 972.849 254.907C972.289 257.724 972.576 260.643 973.675 263.297C974.774 265.95 976.635 268.217 979.023 269.813Z" fill="white"/>
<path d="M738.044 224.282L738.461 224.905L738.044 224.282ZM723.223 242.341L722.53 242.054L723.223 242.341ZM731.946 286.194L731.416 286.724L731.946 286.194ZM752.55 297.207L752.696 296.471L752.55 297.207ZM793.858 280.096L794.482 280.513L793.858 280.096ZM788.854 229.286L788.324 229.816L788.854 229.286ZM746.985 263.297L747.678 263.01L746.985 263.297ZM746.159 254.907L746.895 255.054L746.159 254.907ZM750.133 247.473L750.663 248.003L750.133 247.473ZM770.667 268.007L771.198 268.538L770.667 268.007ZM872.73 217.5V216.75V217.5ZM833.263 265.59L832.528 265.737L833.263 265.59ZM844.276 286.194L843.746 286.724L844.276 286.194ZM864.88 297.207L864.733 297.942L864.88 297.207ZM888.129 294.917L887.842 294.224L888.129 294.917ZM906.188 280.096L906.812 280.513L906.188 280.096ZM912.97 257.74H913.72H912.97ZM901.181 229.289L900.651 229.819L901.181 229.289ZM884.803 249.673L884.179 250.09L884.803 249.673ZM882.997 268.007L882.467 267.477L882.997 268.007ZM987.09 217.5V216.75V217.5ZM1015.54 229.289L1015.01 229.819L1015.54 229.289ZM1027.33 257.74H1028.08H1027.33ZM1020.55 280.096L1021.17 280.513L1020.55 280.096ZM958.636 286.194L958.106 286.724L958.636 286.194ZM979.023 269.813L978.607 270.437L979.023 269.813ZM992.647 244.325L992.36 245.018L992.647 244.325ZM984.257 243.499L984.111 242.763L984.257 243.499ZM976.823 247.473L976.293 246.942L976.823 247.473ZM738.461 224.905C744.955 220.566 752.59 218.25 760.4 218.25V216.75C752.293 216.75 744.368 219.154 737.627 223.658L738.461 224.905ZM723.916 242.628C726.905 235.412 731.967 229.244 738.461 224.905L737.627 223.658C730.887 228.162 725.633 234.564 722.53 242.054L723.916 242.628ZM721.669 265.444C720.145 257.784 720.927 249.844 723.916 242.628L722.53 242.054C719.428 249.544 718.616 257.785 720.198 265.737L721.669 265.444ZM732.477 285.664C726.954 280.141 723.193 273.104 721.669 265.444L720.198 265.737C721.779 273.688 725.683 280.992 731.416 286.724L732.477 285.664ZM752.696 296.471C745.036 294.947 737.999 291.186 732.477 285.664L731.416 286.724C737.148 292.457 744.452 296.361 752.403 297.942L752.696 296.471ZM775.512 294.224C768.296 297.213 760.356 297.995 752.696 296.471L752.403 297.942C760.355 299.524 768.596 298.712 776.086 295.61L775.512 294.224ZM793.235 279.679C788.896 286.174 782.728 291.235 775.512 294.224L776.086 295.61C783.576 292.507 789.978 287.254 794.482 280.513L793.235 279.679ZM799.89 257.74C799.89 265.55 797.574 273.185 793.235 279.679L794.482 280.513C798.986 273.772 801.39 265.847 801.39 257.74H799.89ZM788.324 229.816C795.73 237.222 799.89 247.267 799.89 257.74H801.39C801.39 246.869 797.072 236.443 789.384 228.756L788.324 229.816ZM760.4 218.25C770.874 218.25 780.918 222.411 788.324 229.816L789.384 228.756C781.697 221.069 771.271 216.75 760.4 216.75V218.25ZM751.917 270.437C754.428 272.114 757.38 273.01 760.4 273.01V271.51C757.677 271.51 755.014 270.702 752.75 269.189L751.917 270.437ZM746.293 263.584C747.448 266.374 749.405 268.759 751.917 270.437L752.75 269.189C750.485 267.676 748.721 265.526 747.678 263.01L746.293 263.584ZM745.424 254.761C744.834 257.723 745.137 260.793 746.293 263.584L747.678 263.01C746.636 260.493 746.363 257.725 746.895 255.054L745.424 254.761ZM749.603 246.942C747.467 249.078 746.013 251.799 745.424 254.761L746.895 255.054C747.426 252.382 748.738 249.929 750.663 248.003L749.603 246.942ZM757.421 242.763C754.459 243.353 751.738 244.807 749.603 246.942L750.663 248.003C752.589 246.077 755.043 244.766 757.714 244.235L757.421 242.763ZM766.244 243.632C763.454 242.477 760.383 242.174 757.421 242.763L757.714 244.235C760.385 243.703 763.154 243.976 765.67 245.018L766.244 243.632ZM773.097 249.256C771.419 246.745 769.034 244.788 766.244 243.632L765.67 245.018C768.186 246.06 770.336 247.825 771.85 250.09L773.097 249.256ZM775.67 257.74C775.67 254.72 774.775 251.768 773.097 249.256L771.85 250.09C773.363 252.354 774.17 255.017 774.17 257.74H775.67ZM771.198 268.538C774.061 265.674 775.67 261.79 775.67 257.74H774.17C774.17 261.392 772.719 264.894 770.137 267.477L771.198 268.538ZM760.4 273.01C764.45 273.01 768.334 271.401 771.198 268.538L770.137 267.477C767.555 270.059 764.052 271.51 760.4 271.51V273.01ZM850.791 224.905C857.285 220.566 864.92 218.25 872.73 218.25V216.75C864.623 216.75 856.698 219.154 849.957 223.658L850.791 224.905ZM836.246 242.628C839.235 235.412 844.296 229.244 850.791 224.905L849.957 223.658C843.216 228.162 837.963 234.564 834.86 242.054L836.246 242.628ZM833.999 265.444C832.475 257.784 833.257 249.844 836.246 242.628L834.86 242.054C831.758 249.544 830.946 257.785 832.528 265.737L833.999 265.444ZM844.806 285.664C839.284 280.141 835.523 273.104 833.999 265.444L832.528 265.737C834.109 273.688 838.013 280.992 843.746 286.724L844.806 285.664ZM865.026 296.471C857.366 294.947 850.329 291.186 844.806 285.664L843.746 286.724C849.478 292.457 856.782 296.361 864.733 297.942L865.026 296.471ZM887.842 294.224C880.626 297.213 872.686 297.995 865.026 296.471L864.733 297.942C872.685 299.524 880.926 298.712 888.416 295.61L887.842 294.224ZM905.565 279.679C901.226 286.174 895.058 291.235 887.842 294.224L888.416 295.61C895.906 292.507 902.308 287.254 906.812 280.513L905.565 279.679ZM912.22 257.74C912.22 265.55 909.904 273.185 905.565 279.679L906.812 280.513C911.316 273.772 913.72 265.847 913.72 257.74H912.22ZM900.651 229.819C908.056 237.225 912.217 247.268 912.22 257.74H913.72C913.717 246.869 909.398 236.445 901.711 228.759L900.651 229.819ZM872.73 218.25C883.202 218.253 893.245 222.414 900.651 229.819L901.711 228.759C894.025 221.072 883.601 216.753 872.73 216.75V218.25ZM864.246 270.437C866.758 272.114 869.71 273.01 872.73 273.01V271.51C870.007 271.51 867.344 270.702 865.08 269.189L864.246 270.437ZM858.622 263.584C859.778 266.374 861.735 268.759 864.246 270.437L865.08 269.189C862.815 267.676 861.05 265.526 860.008 263.01L858.622 263.584ZM857.753 254.761C857.164 257.723 857.467 260.793 858.622 263.584L860.008 263.01C858.966 260.493 858.693 257.725 859.225 255.054L857.753 254.761ZM861.932 246.942C859.797 249.078 858.343 251.799 857.753 254.761L859.225 255.054C859.756 252.382 861.067 249.929 862.993 248.003L861.932 246.942ZM869.751 242.763C866.789 243.353 864.068 244.807 861.932 246.942L862.993 248.003C864.919 246.077 867.373 244.766 870.044 244.235L869.751 242.763ZM878.574 243.632C875.783 242.477 872.713 242.174 869.751 242.763L870.044 244.235C872.715 243.703 875.483 243.976 878 245.018L878.574 243.632ZM885.427 249.256C883.749 246.745 881.364 244.788 878.574 243.632L878 245.018C880.516 246.06 882.666 247.825 884.179 250.09L885.427 249.256ZM888 257.74C888 254.72 887.104 251.768 885.427 249.256L884.179 250.09C885.692 252.354 886.5 255.017 886.5 257.74H888ZM883.527 268.538C886.391 265.674 888 261.79 888 257.74H886.5C886.5 261.392 885.049 264.894 882.467 267.477L883.527 268.538ZM872.73 273.01C876.78 273.01 880.664 271.401 883.527 268.538L882.467 267.477C879.884 270.059 876.382 271.51 872.73 271.51V273.01ZM987.09 216.75C978.983 216.75 971.058 219.154 964.317 223.658L965.151 224.905C971.645 220.566 979.28 218.25 987.09 218.25V216.75ZM1016.07 228.759C1008.38 221.072 997.961 216.753 987.09 216.75V218.25C997.563 218.253 1007.61 222.414 1015.01 229.819L1016.07 228.759ZM1028.08 257.74C1028.08 246.869 1023.76 236.445 1016.07 228.759L1015.01 229.819C1022.42 237.225 1026.58 247.268 1026.58 257.74H1028.08ZM1021.17 280.513C1025.68 273.772 1028.08 265.847 1028.08 257.74H1026.58C1026.58 265.55 1024.26 273.185 1019.92 279.679L1021.17 280.513ZM1002.78 295.61C1010.27 292.507 1016.67 287.254 1021.17 280.513L1019.92 279.679C1015.59 286.174 1009.42 291.235 1002.2 294.224L1002.78 295.61ZM979.093 297.942C987.045 299.524 995.286 298.712 1002.78 295.61L1002.2 294.224C994.986 297.213 987.046 297.995 979.386 296.471L979.093 297.942ZM958.106 286.724C963.838 292.457 971.142 296.361 979.093 297.942L979.386 296.471C971.726 294.947 964.689 291.186 959.166 285.664L958.106 286.724ZM946.888 265.737C948.469 273.688 952.373 280.992 958.106 286.724L959.166 285.664C953.644 280.141 949.883 273.104 948.359 265.444L946.888 265.737ZM949.22 242.054C946.118 249.544 945.306 257.785 946.888 265.737L948.359 265.444C946.835 257.784 947.617 249.844 950.606 242.628L949.22 242.054ZM964.317 223.658C957.577 228.162 952.323 234.564 949.22 242.054L950.606 242.628C953.595 235.412 958.657 229.244 965.151 224.905L964.317 223.658ZM987.09 271.51C984.367 271.51 981.704 270.702 979.44 269.189L978.607 270.437C981.118 272.114 984.07 273.01 987.09 273.01V271.51ZM996.827 267.477C994.245 270.059 990.742 271.51 987.09 271.51V273.01C991.14 273.01 995.024 271.401 997.888 268.538L996.827 267.477ZM1000.86 257.74C1000.86 261.392 999.409 264.894 996.827 267.477L997.888 268.538C1000.75 265.674 1002.36 261.79 1002.36 257.74H1000.86ZM998.539 250.09C1000.05 252.354 1000.86 255.017 1000.86 257.74H1002.36C1002.36 254.72 1001.46 251.768 999.787 249.256L998.539 250.09ZM992.36 245.018C994.876 246.06 997.026 247.825 998.539 250.09L999.787 249.256C998.109 246.745 995.724 244.788 992.934 243.632L992.36 245.018ZM984.404 244.235C987.075 243.703 989.844 243.976 992.36 245.018L992.934 243.632C990.143 242.477 987.073 242.174 984.111 242.763L984.404 244.235ZM977.353 248.003C979.279 246.077 981.733 244.766 984.404 244.235L984.111 242.763C981.149 243.353 978.428 244.807 976.293 246.942L977.353 248.003ZM973.585 255.054C974.116 252.382 975.427 249.929 977.353 248.003L976.293 246.942C974.157 249.078 972.703 251.799 972.113 254.761L973.585 255.054ZM974.368 263.01C973.326 260.493 973.053 257.725 973.585 255.054L972.113 254.761C971.524 257.723 971.827 260.793 972.982 263.584L974.368 263.01ZM979.44 269.189C977.175 267.676 975.411 265.526 974.368 263.01L972.982 263.584C974.138 266.374 976.095 268.759 978.607 270.437L979.44 269.189Z" fill="black"/>
<path fill-rule="evenodd" clip-rule="evenodd" d="M872.58 243.22V217.5V217.47C883.252 217.47 893.488 221.709 901.034 229.256C908.581 236.802 912.82 247.037 912.82 257.71C912.82 268.382 908.581 278.617 901.034 286.164C893.488 293.71 883.252 297.95 872.58 297.95V272.22C876.294 272.025 879.791 270.412 882.351 267.714C884.911 265.016 886.338 261.439 886.338 257.72C886.338 254.001 884.911 250.423 882.351 247.726C879.791 245.028 876.294 243.415 872.58 243.22ZM1001.37 258.15V257.74C1001.37 253.898 999.847 250.212 997.135 247.49C994.423 244.769 990.742 243.233 986.9 243.22V217.5C997.564 217.513 1007.79 221.759 1015.32 229.304C1022.86 236.849 1027.09 247.076 1027.09 257.74V258.15H1001.37Z" fill="#8CA45B"/>
<path d="M872.58 243.22H871.83C871.83 243.619 872.142 243.948 872.541 243.969L872.58 243.22ZM872.58 217.47V216.72C872.166 216.72 871.83 217.056 871.83 217.47H872.58ZM901.034 229.256L900.504 229.786L901.034 229.256ZM872.58 297.95H871.83C871.83 298.364 872.166 298.7 872.58 298.7V297.95ZM872.58 272.22L872.541 271.471C872.142 271.492 871.83 271.821 871.83 272.22H872.58ZM882.351 247.726L881.807 248.242L882.351 247.726ZM1001.37 257.74H1000.62H1001.37ZM1001.37 258.15H1000.62C1000.62 258.564 1000.96 258.9 1001.37 258.9V258.15ZM986.9 243.22H986.15C986.15 243.633 986.484 243.969 986.898 243.97L986.9 243.22ZM986.9 217.5L986.901 216.75C986.702 216.75 986.511 216.829 986.37 216.969C986.229 217.11 986.15 217.301 986.15 217.5H986.9ZM1015.32 229.304L1015.85 228.774L1015.32 229.304ZM1027.09 257.74H1026.34H1027.09ZM1027.09 258.15V258.9C1027.5 258.9 1027.84 258.564 1027.84 258.15H1027.09ZM871.83 217.5V243.22H873.33V217.5H871.83ZM871.83 217.47V217.5H873.33V217.47H871.83ZM901.564 228.725C893.877 221.038 883.451 216.72 872.58 216.72V218.22C883.053 218.22 893.098 222.38 900.504 229.786L901.564 228.725ZM913.57 257.71C913.57 246.839 909.252 236.413 901.564 228.725L900.504 229.786C907.91 237.192 912.07 247.236 912.07 257.71H913.57ZM901.564 286.694C909.252 279.007 913.57 268.581 913.57 257.71H912.07C912.07 268.183 907.91 278.228 900.504 285.633L901.564 286.694ZM872.58 298.7C883.451 298.7 893.877 294.381 901.564 286.694L900.504 285.633C893.098 293.039 883.053 297.2 872.58 297.2V298.7ZM871.83 272.22V297.95H873.33V272.22H871.83ZM881.807 267.198C879.38 269.756 876.063 271.286 872.541 271.471L872.619 272.969C876.525 272.763 880.203 271.067 882.895 268.23L881.807 267.198ZM885.588 257.72C885.588 261.247 884.235 264.639 881.807 267.198L882.895 268.23C885.587 265.393 887.088 261.631 887.088 257.72H885.588ZM881.807 248.242C884.235 250.8 885.588 254.193 885.588 257.72H887.088C887.088 253.809 885.587 250.047 882.895 247.209L881.807 248.242ZM872.541 243.969C876.063 244.154 879.38 245.683 881.807 248.242L882.895 247.209C880.203 244.372 876.525 242.676 872.619 242.471L872.541 243.969ZM1000.62 257.74V258.15H1002.12V257.74H1000.62ZM996.604 248.02C999.176 250.601 1000.62 254.096 1000.62 257.74H1002.12C1002.12 253.699 1000.52 249.823 997.666 246.961L996.604 248.02ZM986.898 243.97C990.541 243.983 994.032 245.439 996.604 248.02L997.666 246.961C994.814 244.099 990.943 242.484 986.903 242.47L986.898 243.97ZM986.15 217.5V243.22H987.65V217.5H986.15ZM1015.85 228.774C1008.18 221.088 997.763 216.763 986.901 216.75L986.899 218.25C997.364 218.263 1007.4 222.429 1014.79 229.834L1015.85 228.774ZM1027.84 257.74C1027.84 246.878 1023.53 236.459 1015.85 228.774L1014.79 229.834C1022.19 237.238 1026.34 247.275 1026.34 257.74H1027.84ZM1027.84 258.15V257.74H1026.34V258.15H1027.84ZM1001.37 258.9H1027.09V257.4H1001.37V258.9Z" fill="black"/>
<path fill-rule="evenodd" clip-rule="evenodd" d="M767.93 322.56H734.74V328.94H767.93V322.56ZM847.07 322.56H880.26V328.94H847.07V322.56ZM885.62 322.56H898.39V328.94H885.62V322.56ZM994.59 322.56H961.4V328.94H994.59V322.56ZM999.95 322.56H1012.72V328.94H999.95V322.56ZM773.29 322.56H786.06V328.94H773.29V322.56Z" fill="white"/>
<path d="M734.74 322.56V321.81C734.326 321.81 733.99 322.146 733.99 322.56H734.74ZM767.93 322.56H768.68C768.68 322.146 768.344 321.81 767.93 321.81V322.56ZM734.74 328.94H733.99C733.99 329.354 734.326 329.69 734.74 329.69V328.94ZM767.93 328.94V329.69C768.344 329.69 768.68 329.354 768.68 328.94H767.93ZM880.26 322.56H881.01C881.01 322.146 880.675 321.81 880.26 321.81V322.56ZM847.07 322.56V321.81C846.656 321.81 846.32 322.146 846.32 322.56H847.07ZM880.26 328.94V329.69C880.675 329.69 881.01 329.354 881.01 328.94H880.26ZM847.07 328.94H846.32C846.32 329.354 846.656 329.69 847.07 329.69V328.94ZM898.39 322.56H899.14C899.14 322.146 898.805 321.81 898.39 321.81V322.56ZM885.62 322.56V321.81C885.206 321.81 884.87 322.146 884.87 322.56H885.62ZM898.39 328.94V329.69C898.805 329.69 899.14 329.354 899.14 328.94H898.39ZM885.62 328.94H884.87C884.87 329.354 885.206 329.69 885.62 329.69V328.94ZM961.4 322.56V321.81C960.986 321.81 960.65 322.146 960.65 322.56H961.4ZM994.59 322.56H995.34C995.34 322.146 995.005 321.81 994.59 321.81V322.56ZM961.4 328.94H960.65C960.65 329.354 960.986 329.69 961.4 329.69V328.94ZM994.59 328.94V329.69C995.005 329.69 995.34 329.354 995.34 328.94H994.59ZM1012.72 322.56H1013.47C1013.47 322.146 1013.13 321.81 1012.72 321.81V322.56ZM999.95 322.56V321.81C999.536 321.81 999.2 322.146 999.2 322.56H999.95ZM1012.72 328.94V329.69C1013.13 329.69 1013.47 329.354 1013.47 328.94H1012.72ZM999.95 328.94H999.2C999.2 329.354 999.536 329.69 999.95 329.69V328.94ZM786.06 322.56H786.81C786.81 322.146 786.474 321.81 786.06 321.81V322.56ZM773.29 322.56V321.81C772.876 321.81 772.54 322.146 772.54 322.56H773.29ZM786.06 328.94V329.69C786.474 329.69 786.81 329.354 786.81 328.94H786.06ZM773.29 328.94H772.54C772.54 329.354 772.876 329.69 773.29 329.69V328.94ZM734.74 323.31H767.93V321.81H734.74V323.31ZM735.49 328.94V322.56H733.99V328.94H735.49ZM767.93 328.19H734.74V329.69H767.93V328.19ZM767.18 322.56V328.94H768.68V322.56H767.18ZM880.26 321.81H847.07V323.31H880.26V321.81ZM881.01 328.94V322.56H879.51V328.94H881.01ZM847.07 329.69H880.26V328.19H847.07V329.69ZM846.32 322.56V328.94H847.82V322.56H846.32ZM898.39 321.81H885.62V323.31H898.39V321.81ZM899.14 328.94V322.56H897.64V328.94H899.14ZM885.62 329.69H898.39V328.19H885.62V329.69ZM884.87 322.56V328.94H886.37V322.56H884.87ZM961.4 323.31H994.59V321.81H961.4V323.31ZM962.15 328.94V322.56H960.65V328.94H962.15ZM994.59 328.19H961.4V329.69H994.59V328.19ZM993.84 322.56V328.94H995.34V322.56H993.84ZM1012.72 321.81H999.95V323.31H1012.72V321.81ZM1013.47 328.94V322.56H1011.97V328.94H1013.47ZM999.95 329.69H1012.72V328.19H999.95V329.69ZM999.2 322.56V328.94H1000.7V322.56H999.2ZM786.06 321.81H773.29V323.31H786.06V321.81ZM786.81 328.94V322.56H785.31V328.94H786.81ZM773.29 329.69H786.06V328.19H773.29V329.69ZM772.54 322.56V328.94H774.04V322.56H772.54Z" fill="black"/>
<path d="M1064.17 161H684.18V197H1064.17V161Z" fill="#82AAD3" stroke="black" stroke-width="1.5" stroke-linecap="round" stroke-linejoin="round"/>
<path d="M553.91 141H114V380.08H553.91V141Z" fill="#FFCD88"/>
<path d="M553.91 141H114V380.08H553.91V141Z" stroke="black" stroke-width="1.5" stroke-miterlimit="10"/>
<path d="M548.461 146.46H119.471V374.61H548.461V146.46Z" fill="white" stroke="black" stroke-width="1.5" stroke-miterlimit="10"/>
<path d="M130.88 368.019C130.304 368.012 129.742 367.839 129.262 367.522C128.781 367.204 128.402 366.755 128.17 366.227C127.938 365.7 127.863 365.117 127.953 364.548C128.044 363.979 128.296 363.448 128.68 363.019L225 259.189C225.523 258.624 226.244 258.281 227.013 258.233C227.782 258.184 228.54 258.434 229.13 258.929L265.9 289.929L328.17 224.359C328.709 223.79 329.45 223.455 330.233 223.425C331.016 223.395 331.779 223.673 332.36 224.199L367.79 256.359L397.87 224.999C398.144 224.714 398.471 224.486 398.833 224.328C399.195 224.171 399.585 224.086 399.98 224.079C400.775 224.061 401.545 224.359 402.12 224.909L469.54 289.719L534.66 160.149C535.031 159.463 535.655 158.949 536.398 158.715C537.142 158.481 537.947 158.546 538.644 158.895C539.341 159.245 539.874 159.852 540.131 160.588C540.388 161.324 540.348 162.132 540.02 162.839L473.06 296.009C472.849 296.428 472.542 296.792 472.164 297.071C471.786 297.35 471.348 297.537 470.885 297.616C470.422 297.695 469.946 297.663 469.497 297.525C469.049 297.387 468.638 297.145 468.3 296.819L400.11 231.279L370.11 262.579C369.57 263.143 368.831 263.474 368.051 263.502C367.27 263.53 366.509 263.253 365.93 262.729L330.53 230.549L268.34 296.039C267.814 296.594 267.095 296.927 266.331 296.97C265.567 297.013 264.815 296.762 264.23 296.269L227.45 265.359L133.08 367.059C132.799 367.362 132.459 367.603 132.08 367.768C131.702 367.934 131.293 368.019 130.88 368.019Z" fill="#AD85AD" stroke="black" stroke-width="1.5" stroke-linecap="round" stroke-linejoin="round"/>
<path fill-rule="evenodd" clip-rule="evenodd" d="M300.799 192.079V374.209H299.299V192.079H300.799ZM227.949 260.509V374.209H226.449V260.509H227.949ZM331.179 374.979V227.149H329.679V374.979H331.179ZM400.989 228.849V374.209H399.489V228.849H400.989ZM470.329 374.209V226.129H468.829V374.209H470.329Z" fill="black"/>
<path d="M134.981 364.609C134.306 364.614 133.649 364.391 133.116 363.976C132.583 363.562 132.206 362.979 132.045 362.323C131.885 361.668 131.95 360.977 132.23 360.363C132.511 359.748 132.99 359.247 133.591 358.939L181.591 333.939C209.521 319.397 231.424 295.465 243.441 266.359L248.931 253.089C257.279 232.977 270.056 215.008 286.311 200.519L298.981 189.259C299.325 188.954 299.735 188.733 300.178 188.611C300.621 188.49 301.087 188.472 301.538 188.559C301.989 188.646 302.414 188.836 302.781 189.113C303.147 189.39 303.445 189.748 303.651 190.159L370.011 322.209L397.791 291.949C398.059 291.649 398.385 291.405 398.75 291.233C399.114 291.062 399.509 290.965 399.911 290.949C400.31 290.936 400.707 291.003 401.08 291.145C401.452 291.288 401.793 291.503 402.081 291.779L433.531 321.999L466.861 225.359C467 224.961 467.222 224.596 467.511 224.289L528.991 158.709C529.54 158.146 530.288 157.82 531.075 157.803C531.861 157.786 532.623 158.078 533.196 158.617C533.769 159.156 534.107 159.898 534.138 160.684C534.169 161.47 533.89 162.237 533.361 162.819L472.361 227.929L437.691 328.429C437.526 328.904 437.244 329.33 436.872 329.667C436.499 330.005 436.048 330.243 435.559 330.361C435.07 330.478 434.559 330.471 434.074 330.34C433.589 330.208 433.144 329.957 432.781 329.609L400.151 298.269L371.491 329.479C371.163 329.837 370.753 330.109 370.296 330.274C369.839 330.438 369.349 330.489 368.868 330.422C368.387 330.355 367.929 330.172 367.535 329.89C367.14 329.607 366.82 329.233 366.601 328.799L300.041 196.359L290.301 205.029C274.725 218.898 262.478 236.102 254.471 255.359L248.991 268.659C236.429 299.039 213.563 324.022 184.411 339.219L136.361 364.269C135.935 364.491 135.462 364.608 134.981 364.609Z" fill="#8CA45B"/>
<path d="M134.981 364.609C134.306 364.614 133.649 364.391 133.116 363.976C132.583 363.561 132.206 362.979 132.045 362.323C131.885 361.667 131.95 360.976 132.23 360.362C132.511 359.748 132.99 359.246 133.591 358.939L181.591 333.939C209.521 319.396 231.424 295.464 243.441 266.359L248.931 253.089C257.279 232.977 270.056 215.007 286.311 200.519L298.981 189.259C299.325 188.954 299.735 188.732 300.178 188.611C300.621 188.49 301.087 188.472 301.538 188.559C301.989 188.646 302.414 188.835 302.781 189.113C303.147 189.39 303.445 189.748 303.651 190.159L370.011 322.209L397.791 291.949C398.059 291.648 398.385 291.405 398.75 291.233C399.114 291.061 399.509 290.964 399.911 290.949C400.31 290.936 400.707 291.002 401.08 291.145C401.452 291.287 401.793 291.503 402.081 291.779L433.531 321.999L466.861 225.359C467 224.96 467.222 224.596 467.511 224.289L528.991 158.709C529.54 158.145 530.288 157.82 531.075 157.802C531.861 157.785 532.623 158.078 533.196 158.616C533.769 159.155 534.107 159.898 534.138 160.684C534.169 161.47 533.89 162.236 533.361 162.819L472.361 227.929L437.691 328.429C437.526 328.903 437.244 329.329 436.872 329.667C436.499 330.004 436.048 330.243 435.559 330.36C435.07 330.478 434.559 330.47 434.074 330.339C433.589 330.208 433.144 329.957 432.781 329.609L400.151 298.269L371.491 329.479C371.163 329.836 370.753 330.109 370.296 330.273C369.839 330.437 369.349 330.488 368.868 330.421C368.387 330.354 367.929 330.172 367.535 329.889C367.14 329.607 366.82 329.232 366.601 328.799L300.041 196.359L290.301 205.029C274.725 218.898 262.478 236.101 254.471 255.359L248.991 268.659C236.429 299.039 213.563 324.022 184.411 339.219L136.361 364.269C135.935 364.491 135.462 364.607 134.981 364.609Z" stroke="black" stroke-width="1.5" stroke-miterlimit="10"/>
<path fill-rule="evenodd" clip-rule="evenodd" d="M300.741 195.84C302.751 195.84 304.381 194.21 304.381 192.2C304.381 190.19 302.751 188.56 300.741 188.56C298.731 188.56 297.101 190.19 297.101 192.2C297.101 194.21 298.731 195.84 300.741 195.84ZM227.201 264.83C229.211 264.83 230.841 263.2 230.841 261.19C230.841 259.179 229.211 257.55 227.201 257.55C225.191 257.55 223.561 259.179 223.561 261.19C223.561 263.2 225.191 264.83 227.201 264.83ZM333.981 226.58C333.981 228.59 332.351 230.22 330.341 230.22C328.331 230.22 326.701 228.59 326.701 226.58C326.701 224.57 328.331 222.94 330.341 222.94C332.351 222.94 333.981 224.57 333.981 226.58ZM400.021 231.59C402.031 231.59 403.661 229.96 403.661 227.95C403.661 225.94 402.031 224.31 400.021 224.31C398.011 224.31 396.381 225.94 396.381 227.95C396.381 229.96 398.011 231.59 400.021 231.59ZM473.561 226.35C473.561 228.36 471.931 229.99 469.921 229.99C467.911 229.99 466.281 228.36 466.281 226.35C466.281 224.34 467.911 222.71 469.921 222.71C471.931 222.71 473.561 224.34 473.561 226.35Z" fill="white"/>
<path d="M303.631 192.2C303.631 193.796 302.337 195.09 300.741 195.09V196.59C303.166 196.59 305.131 194.625 305.131 192.2H303.631ZM300.741 189.31C302.337 189.31 303.631 190.604 303.631 192.2H305.131C305.131 189.776 303.166 187.81 300.741 187.81V189.31ZM297.851 192.2C297.851 190.604 299.145 189.31 300.741 189.31V187.81C298.317 187.81 296.351 189.776 296.351 192.2H297.851ZM300.741 195.09C299.145 195.09 297.851 193.796 297.851 192.2H296.351C296.351 194.625 298.317 196.59 300.741 196.59V195.09ZM230.091 261.19C230.091 262.786 228.797 264.08 227.201 264.08V265.58C229.626 265.58 231.591 263.614 231.591 261.19H230.091ZM227.201 258.3C228.797 258.3 230.091 259.594 230.091 261.19H231.591C231.591 258.765 229.626 256.8 227.201 256.8V258.3ZM224.311 261.19C224.311 259.594 225.605 258.3 227.201 258.3V256.8C224.777 256.8 222.811 258.765 222.811 261.19H224.311ZM227.201 264.08C225.605 264.08 224.311 262.786 224.311 261.19H222.811C222.811 263.614 224.777 265.58 227.201 265.58V264.08ZM330.341 230.97C332.765 230.97 334.731 229.004 334.731 226.58H333.231C333.231 228.176 331.937 229.47 330.341 229.47V230.97ZM325.951 226.58C325.951 229.004 327.916 230.97 330.341 230.97V229.47C328.745 229.47 327.451 228.176 327.451 226.58H325.951ZM330.341 222.19C327.916 222.19 325.951 224.155 325.951 226.58H327.451C327.451 224.984 328.745 223.69 330.341 223.69V222.19ZM334.731 226.58C334.731 224.155 332.765 222.19 330.341 222.19V223.69C331.937 223.69 333.231 224.984 333.231 226.58H334.731ZM402.911 227.95C402.911 229.546 401.617 230.84 400.021 230.84V232.34C402.446 232.34 404.411 230.375 404.411 227.95H402.911ZM400.021 225.06C401.617 225.06 402.911 226.354 402.911 227.95H404.411C404.411 225.526 402.446 223.56 400.021 223.56V225.06ZM397.131 227.95C397.131 226.354 398.425 225.06 400.021 225.06V223.56C397.597 223.56 395.631 225.526 395.631 227.95H397.131ZM400.021 230.84C398.425 230.84 397.131 229.546 397.131 227.95H395.631C395.631 230.375 397.597 232.34 400.021 232.34V230.84ZM469.921 230.74C472.346 230.74 474.311 228.774 474.311 226.35H472.811C472.811 227.946 471.517 229.24 469.921 229.24V230.74ZM465.531 226.35C465.531 228.774 467.497 230.74 469.921 230.74V229.24C468.325 229.24 467.031 227.946 467.031 226.35H465.531ZM469.921 221.96C467.497 221.96 465.531 223.925 465.531 226.35H467.031C467.031 224.754 468.325 223.46 469.921 223.46V221.96ZM474.311 226.35C474.311 223.925 472.346 221.96 469.921 221.96V223.46C471.517 223.46 472.811 224.754 472.811 226.35H474.311Z" fill="black"/>
<path d="M1015.6 803H264.869" stroke="black" stroke-width="1.5" stroke-linecap="round" stroke-linejoin="round"/>
<path d="M684.7 813.21H147" stroke="black" stroke-width="1.5" stroke-linecap="round" stroke-linejoin="round"/>
<path d="M728.621 813.21H697.471" stroke="black" stroke-width="1.5" stroke-linecap="round" stroke-linejoin="round"/>
<path d="M506.395 477.446C495.925 480.246 485.396 482.046 474.976 484.856V501.456C474.607 502.182 474.085 502.819 473.446 503.323C472.808 503.827 472.067 504.186 471.275 504.376L470.835 504.466C469.653 504.638 468.451 504.335 467.491 503.623C466.532 502.911 465.893 501.848 465.715 500.666C465.535 499.356 465.365 498.036 465.195 496.726C465.157 495.896 464.791 495.115 464.178 494.553C463.566 493.991 462.756 493.694 461.925 493.726C460.848 493.677 459.787 494.006 458.925 494.656C458.335 495.166 457.615 496.176 457.825 500.566C457.94 502.815 458.247 505.05 458.745 507.246L454.685 505.096C453.895 504.682 453.01 504.483 452.119 504.518C451.227 504.553 450.361 504.822 449.606 505.296C449.423 505.397 449.266 505.537 449.145 505.706C448.636 506.37 448.324 507.164 448.245 507.996C448.193 508.643 448.325 509.292 448.626 509.867C448.927 510.442 449.384 510.92 449.945 511.246C453.391 513.396 457.084 515.119 460.945 516.376C463.814 517.411 466.774 518.171 469.786 518.646L457.645 519.316C456.351 519.372 455.128 519.927 454.235 520.866C453.853 521.259 453.565 521.732 453.392 522.252C453.218 522.771 453.165 523.323 453.235 523.866C453.293 524.43 453.461 524.977 453.732 525.475C454.003 525.973 454.37 526.412 454.812 526.767C455.254 527.121 455.762 527.384 456.307 527.541C456.852 527.697 457.423 527.743 457.985 527.676L479.715 526.316L467.625 531.156C466.687 531.501 465.907 532.178 465.433 533.059C464.96 533.939 464.825 534.963 465.055 535.936V535.986C465.297 536.905 465.745 537.757 466.365 538.476C467.071 539.247 468.012 539.762 469.041 539.943C470.07 540.124 471.129 539.96 472.055 539.476L483.465 533.686C493.146 528.756 498.046 526.216 501.036 522.256C503.068 519.541 504.475 516.409 505.156 513.086C505.616 500.836 506.015 489.636 506.395 477.446Z" fill="#D88B6D" stroke="black" stroke-width="1.5" stroke-linecap="round" stroke-linejoin="round"/>
<path d="M458.756 507.216C460.287 508.992 462.196 510.403 464.344 511.344C466.491 512.285 468.822 512.734 471.166 512.656C473.573 512.504 475.911 511.792 477.995 510.577C480.078 509.362 481.849 507.677 483.166 505.656" stroke="black" stroke-width="1.5" stroke-linecap="round" stroke-linejoin="round"/>
<path d="M488.496 511.968C486.957 514.189 484.897 515.998 482.496 517.238C478.559 519.16 474.075 519.649 469.816 518.618" stroke="black" stroke-width="1.5" stroke-linecap="round" stroke-linejoin="round"/>
<path d="M494.116 519.486C492.4 520.898 490.539 522.125 488.566 523.146C485.793 524.589 482.83 525.633 479.766 526.246" stroke="black" stroke-width="1.5" stroke-linecap="round" stroke-linejoin="round"/>
<path d="M663.176 356.656L655.486 362.096L672.636 389.846L689.686 385.186L698.846 375.966L663.176 356.656Z" fill="#D88B6D"/>
<path d="M692.065 383.397L679.015 401.607L650.665 382.997C651.239 382.27 651.63 381.416 651.805 380.507C652.077 378.631 651.642 376.721 650.585 375.147C648.782 372.459 647.487 369.462 646.765 366.307V366.197C646.283 364.085 646.234 361.896 646.623 359.765C647.011 357.633 647.828 355.603 649.025 353.797L656.455 342.677C658.015 340.347 661.455 339.897 664.115 341.677C666.785 343.467 667.685 346.797 666.115 349.137L663.325 353.307C662.165 355.091 661.461 357.133 661.274 359.253C661.087 361.374 661.424 363.507 662.255 365.467L662.465 365.957" fill="#D88B6D"/>
<path d="M692.065 383.397L679.015 401.607L650.665 382.997C651.239 382.27 651.63 381.416 651.805 380.507C652.077 378.631 651.642 376.721 650.585 375.147C648.782 372.459 647.487 369.462 646.765 366.307V366.197C646.283 364.085 646.234 361.896 646.623 359.765C647.011 357.633 647.828 355.603 649.025 353.797L656.455 342.677C658.015 340.347 661.455 339.897 664.115 341.677C666.785 343.467 667.685 346.797 666.115 349.137L663.325 353.307C662.165 355.091 661.461 357.133 661.274 359.253C661.087 361.374 661.424 363.507 662.255 365.467L662.465 365.957" stroke="black" stroke-width="1.5" stroke-linecap="round" stroke-linejoin="round"/>
<path d="M692.066 383.398C704.926 373.178 709.856 368.628 722.726 358.398C723.295 357.921 723.679 357.258 723.809 356.527C723.938 355.795 723.806 355.041 723.436 354.398L723.246 354.078C723.038 353.766 722.793 353.48 722.516 353.228C721.985 352.735 721.312 352.423 720.592 352.339C719.873 352.254 719.146 352.401 718.516 352.758C709.646 358.278 702.166 363.358 693.296 368.878C700.576 362.118 710.666 353.628 717.946 346.878C718.628 346.167 719.033 345.235 719.086 344.251C719.14 343.268 718.838 342.297 718.236 341.518L718.176 341.448C716.646 339.218 713.686 338.618 711.886 340.158C696.016 353.738 686.406 361.848 686.156 361.568C685.906 361.288 695.086 352.518 710.566 338.248C711.363 337.396 711.795 336.266 711.769 335.099C711.743 333.933 711.261 332.823 710.426 332.008L710.366 331.938C708.596 329.988 705.786 329.648 704.076 331.178C696.166 338.268 686.356 347.178 678.446 354.228C686.036 346.538 695.536 337.058 703.126 329.368C703.882 328.489 704.276 327.355 704.228 326.196C704.18 325.038 703.693 323.941 702.866 323.128L702.806 323.058C701.651 322.248 700.276 321.812 698.866 321.808C697.543 321.842 696.288 322.4 695.376 323.358C684.249 334.651 673.129 345.948 662.016 357.248" fill="#D88B6D"/>
<path d="M692.066 383.398C704.926 373.178 709.856 368.628 722.726 358.398C723.295 357.921 723.679 357.258 723.809 356.527C723.938 355.795 723.806 355.041 723.436 354.398L723.246 354.078C723.038 353.766 722.793 353.48 722.516 353.228C721.985 352.735 721.312 352.423 720.592 352.339C719.873 352.254 719.146 352.401 718.516 352.758C709.646 358.278 702.166 363.358 693.296 368.878C700.576 362.118 710.666 353.628 717.946 346.878C718.628 346.167 719.033 345.235 719.086 344.251C719.14 343.268 718.838 342.297 718.236 341.518L718.176 341.448C716.646 339.218 713.686 338.618 711.886 340.158C696.016 353.738 686.406 361.848 686.156 361.568C685.906 361.288 695.086 352.518 710.566 338.248C711.363 337.396 711.795 336.266 711.769 335.099C711.743 333.933 711.261 332.823 710.426 332.008L710.366 331.938C708.596 329.988 705.786 329.648 704.076 331.178C696.166 338.268 686.356 347.178 678.446 354.228C686.036 346.538 695.536 337.058 703.126 329.368C703.882 328.489 704.276 327.355 704.228 326.196C704.18 325.038 703.693 323.941 702.866 323.128L702.806 323.058C701.651 322.248 700.276 321.812 698.866 321.808C697.543 321.842 696.288 322.4 695.376 323.358C684.249 334.651 673.129 345.948 662.016 357.248" stroke="black" stroke-width="1.5" stroke-linecap="round" stroke-linejoin="round"/>
<path d="M674.566 350.507C680.976 356.717 687.276 363.317 693.686 369.507" stroke="black" stroke-width="1.5" stroke-linecap="round" stroke-linejoin="round"/>
<path d="M585.795 367.007C589.195 368.441 592.071 370.884 594.035 374.007C597.605 380.097 595.865 387.157 595.395 389.327C593.395 398.487 592.775 417.407 595.545 455.497L604.755 509.837C594.699 516.199 583.535 520.609 571.845 522.837C537.585 529.317 510.115 514.377 501.605 509.287C506.645 492.62 511.689 475.953 516.735 459.287C514.075 438.747 533.15 387.547 530.5 367.007" fill="white"/>
<path d="M585.795 367.007C589.195 368.441 592.071 370.884 594.035 374.007C597.605 380.097 595.865 387.157 595.395 389.327C593.395 398.487 592.775 417.407 595.545 455.497L604.755 509.837C594.699 516.199 583.535 520.609 571.845 522.837C537.585 529.317 510.115 514.377 501.605 509.287C506.645 492.62 511.689 475.953 516.735 459.287C514.075 438.747 533.15 387.547 530.5 367.007H585.795Z" stroke="black" stroke-width="1.5" stroke-linecap="round" stroke-linejoin="round"/>
<path d="M511.305 677.356C533.59 678.732 555.957 676.838 577.695 671.736C612.155 663.306 657.695 634.206 657.695 634.206L568.495 613.526L511.305 677.356Z" fill="black" stroke="black" stroke-width="1.5" stroke-linecap="round" stroke-linejoin="round"/>
<path fill-rule="evenodd" clip-rule="evenodd" d="M630.815 785.508C632.8 792.138 635.552 798.515 639.015 804.508C643.661 812.498 649.517 819.72 656.375 825.918C651.771 828.36 646.752 829.921 641.575 830.518C615.505 833.418 596.115 809.558 593.835 806.658C594.575 800.218 595.465 790.648 595.715 779.018C595.987 765.878 595.305 756.372 594.481 744.87C594.335 742.838 594.185 740.745 594.035 738.558C593.335 728.214 592.934 717.854 592.534 707.493C592.322 702.017 592.111 696.541 591.855 691.068C591.205 677.298 591.085 657.348 592.555 627.518C598.833 624.994 605.113 622.479 611.391 619.964C619.764 616.611 628.134 613.259 636.495 609.888C640.908 614.761 645.315 619.638 649.715 624.518C649.095 628.704 648.485 632.901 647.885 637.108C640.745 687.301 635.055 736.768 630.815 785.508ZM522.545 816.247C525.719 809.434 528.895 802.624 532.075 795.817L516.865 659.177C535.145 651.067 553.635 643.347 572.145 635.797C572.09 636.687 572.038 637.574 571.985 638.462C571.933 639.349 571.88 640.237 571.825 641.127C568.685 693.02 565.505 744.927 562.285 796.847L565.805 812.207C562.935 822.707 553.565 829.867 543.305 829.867C538.916 829.773 534.641 828.446 530.97 826.037C527.299 823.629 524.379 820.236 522.545 816.247Z" fill="#D88B6D"/>
<path d="M639.015 804.508L638.365 804.883L638.366 804.885L639.015 804.508ZM630.815 785.508L630.068 785.443C630.059 785.537 630.069 785.632 630.096 785.723L630.815 785.508ZM656.375 825.918L656.726 826.58C656.942 826.466 657.089 826.253 657.119 826.01C657.149 825.767 657.059 825.525 656.878 825.361L656.375 825.918ZM641.575 830.518L641.658 831.263H641.661L641.575 830.518ZM593.835 806.658L593.09 806.572C593.067 806.768 593.123 806.966 593.245 807.121L593.835 806.658ZM595.715 779.018L596.465 779.034V779.033L595.715 779.018ZM594.481 744.87L593.733 744.923L594.481 744.87ZM594.035 738.558L593.286 738.608L593.287 738.609L594.035 738.558ZM592.534 707.493L591.784 707.522L592.534 707.493ZM591.855 691.068L592.604 691.033V691.032L591.855 691.068ZM592.555 627.518L592.275 626.822C592.003 626.931 591.82 627.188 591.806 627.481L592.555 627.518ZM611.391 619.964L611.67 620.661L611.391 619.964ZM636.495 609.888L637.051 609.384C636.84 609.151 636.506 609.075 636.214 609.192L636.495 609.888ZM649.715 624.518L650.457 624.628C650.489 624.406 650.422 624.182 650.272 624.015L649.715 624.518ZM647.885 637.108L647.142 637.002L647.885 637.108ZM532.075 795.817L532.755 796.134C532.813 796.009 532.836 795.871 532.821 795.734L532.075 795.817ZM522.545 816.247L521.865 815.93C521.772 816.13 521.772 816.36 521.864 816.56L522.545 816.247ZM516.865 659.177L516.561 658.491C516.262 658.624 516.084 658.935 516.12 659.26L516.865 659.177ZM572.145 635.797L572.894 635.843C572.91 635.586 572.792 635.338 572.583 635.188C572.373 635.037 572.101 635.005 571.862 635.102L572.145 635.797ZM571.825 641.127L571.077 641.081V641.082L571.825 641.127ZM562.285 796.847L561.537 796.8C561.532 796.872 561.538 796.944 561.554 797.014L562.285 796.847ZM565.805 812.207L566.529 812.405C566.561 812.285 566.564 812.16 566.536 812.039L565.805 812.207ZM543.305 829.867L543.289 830.617C543.295 830.617 543.3 830.617 543.305 830.617V829.867ZM530.97 826.037L531.381 825.41L530.97 826.037ZM639.664 804.132C636.23 798.19 633.502 791.867 631.533 785.293L630.096 785.723C632.098 792.409 634.873 798.84 638.365 804.883L639.664 804.132ZM656.878 825.361C650.078 819.216 644.271 812.054 639.663 804.131L638.366 804.885C643.052 812.942 648.957 820.225 655.872 826.474L656.878 825.361ZM641.661 831.263C646.931 830.655 652.04 829.067 656.726 826.58L656.023 825.255C651.502 827.654 646.573 829.186 641.489 829.773L641.661 831.263ZM593.245 807.121C594.405 808.597 599.874 815.35 608.349 821.374C616.82 827.396 628.369 832.741 641.658 831.263L641.492 829.772C628.711 831.194 617.53 826.06 609.218 820.151C600.91 814.246 595.544 807.618 594.424 806.194L593.245 807.121ZM594.965 779.002C594.716 790.602 593.828 800.148 593.09 806.572L594.58 806.743C595.322 800.287 596.214 790.693 596.465 779.034L594.965 779.002ZM593.733 744.923C594.557 756.425 595.236 765.9 594.965 779.002L596.465 779.033C596.737 765.856 596.053 756.319 595.229 744.816L593.733 744.923ZM593.287 738.609C593.437 740.797 593.587 742.892 593.733 744.923L595.229 744.816C595.083 742.784 594.933 740.692 594.783 738.506L593.287 738.609ZM591.784 707.522C592.185 717.881 592.586 728.252 593.286 738.608L594.783 738.507C594.084 728.176 593.684 717.827 593.283 707.464L591.784 707.522ZM591.106 691.103C591.361 696.573 591.573 702.046 591.784 707.522L593.283 707.464C593.072 701.989 592.86 696.51 592.604 691.033L591.106 691.103ZM591.806 627.481C590.335 657.329 590.454 677.303 591.106 691.103L592.604 691.032C591.955 677.292 591.835 657.367 593.304 627.555L591.806 627.481ZM611.112 619.268C604.834 621.783 598.553 624.298 592.275 626.822L592.835 628.214C599.112 625.69 605.391 623.175 611.67 620.661L611.112 619.268ZM636.214 609.192C627.855 612.563 619.485 615.915 611.112 619.268L611.67 620.661C620.042 617.308 628.414 613.955 636.775 610.583L636.214 609.192ZM650.272 624.015C645.871 619.135 641.464 614.258 637.051 609.384L635.939 610.391C640.352 615.264 644.758 620.14 649.158 625.02L650.272 624.015ZM648.627 637.214C649.227 633.008 649.837 628.813 650.457 624.628L648.973 624.408C648.353 628.596 647.742 632.794 647.142 637.002L648.627 637.214ZM631.562 785.573C635.801 736.847 641.489 687.394 648.627 637.213L647.142 637.002C640 687.208 634.309 736.689 630.068 785.443L631.562 785.573ZM531.396 795.499C528.216 802.306 525.039 809.117 521.865 815.93L523.225 816.564C526.398 809.75 529.575 802.941 532.755 796.134L531.396 795.499ZM516.12 659.26L531.33 795.9L532.821 795.734L517.611 659.094L516.12 659.26ZM571.862 635.102C553.349 642.654 534.851 650.377 516.561 658.491L517.169 659.862C535.44 651.757 553.922 644.04 572.429 636.491L571.862 635.102ZM572.734 638.506C572.786 637.619 572.839 636.732 572.894 635.843L571.397 635.751C571.342 636.642 571.289 637.53 571.237 638.418L572.734 638.506ZM572.574 641.173C572.629 640.282 572.681 639.394 572.734 638.506L571.237 638.418C571.184 639.305 571.132 640.192 571.077 641.081L572.574 641.173ZM563.034 796.893C566.254 744.973 569.434 693.066 572.574 641.172L571.077 641.082C567.937 692.975 564.757 744.881 561.537 796.8L563.034 796.893ZM566.536 812.039L563.016 796.679L561.554 797.014L565.074 812.374L566.536 812.039ZM543.305 830.617C553.915 830.617 563.573 823.219 566.529 812.405L565.082 812.009C562.298 822.195 553.215 829.117 543.305 829.117V830.617ZM530.558 826.664C534.347 829.15 538.759 830.52 543.289 830.617L543.321 829.117C539.072 829.026 534.935 827.742 531.381 825.41L530.558 826.664ZM521.864 816.56C523.757 820.677 526.77 824.179 530.558 826.664L531.381 825.41C527.828 823.079 525.002 819.795 523.227 815.934L521.864 816.56Z" fill="black"/>
<path d="M511.305 677.357C525.274 676.891 539.11 674.485 552.416 670.207C573.616 663.357 582.356 655.207 600.666 647.207C613.316 641.707 632.736 635.347 659.666 634.207C641.282 594.923 625.419 554.508 612.175 513.207C605.835 493.4 600.299 474.18 595.565 455.547C585.565 456.587 575.359 457.507 564.945 458.307C548.485 459.56 532.542 460.414 517.115 460.867C515.575 464.037 513.245 468.987 510.645 475.157C505.245 487.997 501.426 497.047 500.096 507.157C498.766 517.267 500.445 524.587 501.885 532.357C505.435 551.517 505.265 571.177 507.245 590.567C510.052 619.411 511.407 648.377 511.305 677.357Z" fill="#82AAD3" stroke="black" stroke-width="1.5" stroke-linecap="round" stroke-linejoin="round"/>
<path d="M513.355 470.036C526.079 472.944 539.106 474.314 552.156 474.116C567.788 473.891 583.296 471.308 598.156 466.456" fill="#82AAD3"/>
<path d="M513.355 470.036C526.079 472.944 539.106 474.314 552.156 474.116C567.788 473.891 583.296 471.308 598.156 466.456" stroke="black" stroke-width="1.5" stroke-linecap="round" stroke-linejoin="round"/>
<path d="M575.135 473.098L577.185 489.948" stroke="black" stroke-width="1.5" stroke-linecap="round" stroke-linejoin="round"/>
<path fill-rule="evenodd" clip-rule="evenodd" d="M658.496 823.327L673.656 828.737C676.116 829.577 677.876 832.447 677.966 835.687C678.076 839.697 675.676 842.977 672.586 843.047L637.436 842.867C636.521 842.867 635.628 842.588 634.876 842.067L602.666 819.737L600.806 842.937L594.936 843.017C594.38 837.643 593.539 832.302 592.416 827.017C592.384 826.866 592.346 826.686 592.299 826.459C592.116 825.569 591.782 823.952 590.986 820.527C590.681 819.182 590.428 818.086 590.216 817.166C589.682 814.855 589.403 813.647 589.196 812.367C588.346 807.227 588.406 800.037 592.076 790.227C592.262 789.639 592.598 789.111 593.052 788.694C593.507 788.277 594.062 787.987 594.663 787.853C595.265 787.718 595.891 787.744 596.479 787.927C597.068 788.11 597.598 788.445 598.016 788.897C605.569 796.837 613.106 804.787 620.626 812.747C622.273 814.499 624.142 816.029 626.186 817.297C632.109 820.875 638.614 823.383 645.406 824.707C647.446 825.117 652.816 826.187 653.866 824.257C654.078 823.791 654.103 823.261 653.936 822.777H655.136C656.28 822.759 657.418 822.945 658.496 823.327ZM522.665 816.287C528.548 820.422 535.597 822.57 542.785 822.417C555.625 822.047 563.895 814.167 565.835 812.207C566.9 819.32 566.055 826.588 563.385 833.267V833.357C562.431 835.626 560.871 837.589 558.877 839.032C556.882 840.474 554.529 841.341 552.075 841.537C545.426 842.124 538.748 842.318 532.075 842.117C520.695 841.787 518.155 840.567 516.755 838.717C513.425 834.287 515.975 825.557 522.665 816.287Z" fill="#FFCD88"/>
<path d="M673.656 828.736L673.404 829.442L673.414 829.446L673.656 828.736ZM658.496 823.326L658.748 822.62L658.746 822.619L658.496 823.326ZM677.966 835.686L678.716 835.665L677.966 835.686ZM672.586 843.046L672.582 843.796C672.589 843.796 672.596 843.796 672.603 843.796L672.586 843.046ZM637.436 842.866L637.44 842.116H637.436V842.866ZM634.876 842.066L634.449 842.682L634.876 842.066ZM602.666 819.736L603.093 819.12C602.873 818.967 602.588 818.943 602.345 819.058C602.103 819.173 601.94 819.409 601.918 819.676L602.666 819.736ZM600.806 842.936L600.816 843.686C601.203 843.681 601.523 843.382 601.554 842.996L600.806 842.936ZM594.936 843.016L594.19 843.093C594.23 843.479 594.558 843.771 594.946 843.766L594.936 843.016ZM592.416 827.016L593.15 826.86L593.149 826.857L592.416 827.016ZM592.299 826.458L593.034 826.306L592.299 826.458ZM590.986 820.526L590.255 820.692L590.256 820.696L590.986 820.526ZM590.216 817.165L589.485 817.333L590.216 817.165ZM589.196 812.366L589.936 812.246V812.244L589.196 812.366ZM592.076 790.226L592.779 790.489C592.783 790.477 592.787 790.464 592.791 790.452L592.076 790.226ZM594.663 787.852L594.499 787.12L594.663 787.852ZM596.479 787.926L596.256 788.642L596.479 787.926ZM598.016 788.896L597.466 789.405L597.473 789.413L598.016 788.896ZM620.626 812.746L621.173 812.232L621.171 812.231L620.626 812.746ZM626.186 817.296L625.791 817.933L625.798 817.938L626.186 817.296ZM645.406 824.706L645.554 823.971L645.55 823.97L645.406 824.706ZM653.866 824.256L654.525 824.614C654.533 824.599 654.541 824.583 654.549 824.566L653.866 824.256ZM653.936 822.776V822.026C653.694 822.026 653.466 822.143 653.325 822.341C653.185 822.538 653.148 822.791 653.227 823.02L653.936 822.776ZM655.136 822.776V823.526H655.148L655.136 822.776ZM542.785 822.416L542.801 823.166H542.807L542.785 822.416ZM522.665 816.286L523.097 815.672C522.761 815.436 522.298 815.514 522.057 815.847L522.665 816.286ZM565.835 812.206L566.577 812.095C566.535 811.814 566.338 811.581 566.068 811.493C565.799 811.405 565.502 811.477 565.302 811.678L565.835 812.206ZM563.385 833.266L562.689 832.988C562.654 833.076 562.635 833.171 562.635 833.266H563.385ZM563.385 833.356L564.077 833.647C564.115 833.555 564.135 833.456 564.135 833.356H563.385ZM558.877 839.031L559.316 839.639L558.877 839.031ZM552.075 841.536L552.016 840.788L552.009 840.789L552.075 841.536ZM532.075 842.116L532.098 841.366H532.097L532.075 842.116ZM516.755 838.716L516.156 839.167L516.157 839.169L516.755 838.716ZM673.908 828.03L658.748 822.62L658.244 824.032L673.404 829.442L673.908 828.03ZM678.716 835.665C678.62 832.216 676.743 828.997 673.898 828.026L673.414 829.446C675.489 830.154 677.132 832.675 677.216 835.707L678.716 835.665ZM672.603 843.796C676.279 843.712 678.832 839.897 678.716 835.665L677.216 835.706C677.32 839.495 675.073 842.239 672.569 842.296L672.603 843.796ZM637.432 843.616L672.582 843.796L672.59 842.296L637.44 842.116L637.432 843.616ZM634.449 842.682C635.326 843.291 636.369 843.616 637.436 843.616V842.116C636.674 842.116 635.93 841.884 635.303 841.45L634.449 842.682ZM602.239 820.352L634.449 842.682L635.303 841.45L603.093 819.12L602.239 820.352ZM601.554 842.996L603.414 819.796L601.918 819.676L600.058 842.876L601.554 842.996ZM594.946 843.766L600.816 843.686L600.796 842.186L594.926 842.266L594.946 843.766ZM591.682 827.172C592.8 832.431 593.637 837.745 594.19 843.093L595.682 842.939C595.124 837.538 594.278 832.171 593.15 826.86L591.682 827.172ZM591.565 826.609C591.612 826.835 591.65 827.02 591.683 827.174L593.149 826.857C593.118 826.711 593.081 826.535 593.034 826.306L591.565 826.609ZM590.256 820.696C591.05 824.113 591.382 825.724 591.565 826.609L593.034 826.306C592.849 825.411 592.515 823.788 591.717 820.356L590.256 820.696ZM589.485 817.333C589.697 818.254 589.95 819.348 590.255 820.692L591.717 820.36C591.412 819.014 591.159 817.917 590.946 816.996L589.485 817.333ZM588.456 812.486C588.668 813.796 588.953 815.031 589.485 817.333L590.946 816.996C590.411 814.678 590.139 813.496 589.936 812.246L588.456 812.486ZM591.374 789.963C587.659 799.893 587.584 807.216 588.456 812.488L589.936 812.244C589.108 807.236 589.153 800.179 592.779 790.489L591.374 789.963ZM592.545 788.141C591.995 788.646 591.586 789.287 591.361 790L592.791 790.452C592.937 789.99 593.202 789.574 593.56 789.246L592.545 788.141ZM594.499 787.12C593.77 787.283 593.096 787.635 592.545 788.141L593.56 789.246C593.917 788.918 594.354 788.689 594.827 788.583L594.499 787.12ZM596.702 787.21C595.989 786.987 595.229 786.956 594.499 787.12L594.827 788.583C595.3 788.478 595.793 788.498 596.256 788.642L596.702 787.21ZM598.567 788.386C598.059 787.838 597.416 787.432 596.702 787.21L596.256 788.642C596.719 788.786 597.136 789.049 597.466 789.405L598.567 788.386ZM621.171 812.231C613.651 804.27 606.113 796.32 598.559 788.379L597.473 789.413C605.025 797.352 612.561 805.302 620.081 813.261L621.171 812.231ZM626.581 816.659C624.593 815.425 622.775 813.937 621.173 812.232L620.08 813.26C621.771 815.06 623.691 816.631 625.791 817.933L626.581 816.659ZM645.55 823.97C638.844 822.663 632.421 820.186 626.574 816.654L625.798 817.938C631.796 821.561 638.385 824.101 645.263 825.442L645.55 823.97ZM653.207 823.897C653.094 824.106 652.811 824.325 652.212 824.469C651.628 824.61 650.875 824.647 650.041 824.609C648.378 824.535 646.579 824.177 645.554 823.971L645.258 825.441C646.273 825.645 648.179 826.027 649.974 826.108C650.868 826.148 651.782 826.116 652.564 825.927C653.331 825.742 654.113 825.37 654.525 824.614L653.207 823.897ZM653.227 823.02C653.331 823.323 653.316 823.654 653.183 823.945L654.549 824.566C654.84 823.925 654.875 823.197 654.645 822.531L653.227 823.02ZM655.136 822.026H653.936V823.526H655.136V822.026ZM658.746 822.619C657.584 822.208 656.357 822.007 655.124 822.026L655.148 823.526C656.202 823.509 657.251 823.681 658.246 824.033L658.746 822.619ZM542.77 821.666C535.741 821.816 528.848 819.716 523.097 815.672L522.234 816.9C528.247 821.126 535.453 823.322 542.801 823.166L542.77 821.666ZM565.302 811.678C563.399 813.601 555.306 821.305 542.764 821.666L542.807 823.166C555.945 822.787 564.391 814.731 566.368 812.734L565.302 811.678ZM564.082 833.544C566.801 826.742 567.662 819.34 566.577 812.095L565.094 812.317C566.139 819.299 565.309 826.433 562.689 832.988L564.082 833.544ZM564.135 833.356V833.266H562.635V833.356H564.135ZM559.316 839.639C561.422 838.115 563.069 836.043 564.077 833.647L562.694 833.065C561.793 835.208 560.32 837.061 558.437 838.423L559.316 839.639ZM552.135 842.284C554.726 842.077 557.21 841.162 559.316 839.639L558.437 838.423C556.554 839.785 554.333 840.603 552.016 840.788L552.135 842.284ZM532.053 842.866C538.755 843.068 545.463 842.873 552.141 842.283L552.009 840.789C545.389 841.374 538.741 841.567 532.098 841.366L532.053 842.866ZM516.157 839.169C516.98 840.255 518.125 841.102 520.485 841.712C522.804 842.312 526.354 842.7 532.054 842.866L532.097 841.366C526.417 841.202 523.007 840.815 520.861 840.26C518.756 839.716 517.931 839.027 517.353 838.263L516.157 839.169ZM522.057 815.847C518.679 820.528 516.318 825.11 515.229 829.12C514.147 833.105 514.286 836.679 516.156 839.167L517.355 838.265C515.895 836.323 515.644 833.317 516.677 829.513C517.703 825.732 519.962 821.314 523.274 816.725L522.057 815.847Z" fill="black"/>
<path d="M600.496 814.206L588.586 809.606C589.956 815.826 590.646 818.886 591.016 820.526C591.136 821.076 591.586 823.046 592.166 825.696C592.306 826.326 592.386 826.696 592.446 827.016C593.569 832.301 594.41 837.642 594.966 843.016L600.836 842.936L602.666 819.736L634.876 842.066C635.628 842.588 636.521 842.867 637.436 842.866L640.496 842.766L600.496 814.206Z" fill="black"/>
<path d="M589.416 809.606C591.826 810.606 593.236 811.606 595.646 812.606C599.495 814.181 603.149 816.194 606.536 818.606L640.536 842.796" stroke="black" stroke-width="1.5" stroke-linecap="round" stroke-linejoin="round"/>
<path d="M651 378.5C644.5 399 638 415.5 631.976 436.367C630.196 429.597 625.196 411.127 618.296 391.647C618.296 391.647 613.846 379.087 605.866 372.137C604.186 370.706 602.339 369.483 600.366 368.497L594.016 366.547L590.696 388.077L581.206 417.497C580.966 418.237 580.726 418.987 580.476 419.737L568.846 459.127C568.699 459.994 568.745 460.883 568.98 461.731C569.215 462.579 569.634 463.364 570.206 464.032C570.779 464.7 571.491 465.234 572.293 465.596C573.095 465.958 573.966 466.139 574.846 466.127L596.356 459.127C596.356 457.557 596.356 455.707 596.436 453.677C597.616 456.344 598.846 459.124 600.126 462.017C609.676 482.157 617.556 495.687 631.656 499.017C636.552 500.119 641.64 500.033 646.496 498.767C651.67 496.584 656.378 493.43 660.366 489.477C665.782 484.146 669.67 477.461 671.626 470.117L687.5 391.647L651 378.5Z" fill="#82AAD3" stroke="black" stroke-width="1.5" stroke-linecap="round" stroke-linejoin="round"/>
<path d="M650.716 378.496L640.379 384.883L671.211 395.045L685.524 403.402L689.286 392.393L650.716 378.496Z" fill="white" stroke="black" stroke-width="1.5" stroke-linecap="round" stroke-linejoin="round"/>
<path d="M546.955 417.047L530.955 393.877C533.735 384.727 534.425 371.987 535.475 365.877L525.425 366.947C509.674 368.616 494.722 374.73 482.315 384.577L450.225 410.477C442.588 416.602 437.609 425.44 436.327 435.146C435.045 444.852 437.56 454.679 443.345 462.577C445.345 465.237 445.645 465.807 452.585 474.127C462.435 485.957 469.805 496.007 474.585 502.727C477.83 503.392 481.15 503.621 484.455 503.407C490.742 502.965 496.823 500.976 502.155 497.617C504.195 491.657 506.239 485.7 508.285 479.747L473.565 438.897C480.855 435.897 497.345 432.517 511.815 420.657C513.582 434.057 515.355 447.457 517.135 460.857L544.015 466.377C544.891 466.45 545.772 466.33 546.597 466.024C547.421 465.719 548.168 465.237 548.785 464.611C549.403 463.985 549.875 463.231 550.168 462.403C550.462 461.575 550.57 460.692 550.485 459.817L546.955 417.047Z" fill="#82AAD3" stroke="black" stroke-width="1.5" stroke-linecap="round" stroke-linejoin="round"/>
<path d="M508.5 479.499L510.452 470.745L494 494.999L484 503.499L501.5 500.499L508.5 479.499Z" fill="white" stroke="black" stroke-width="1.5" stroke-linecap="round" stroke-linejoin="round"/>
<path fill-rule="evenodd" clip-rule="evenodd" d="M537.616 367.288C534.466 370.118 534.756 379.418 537.126 387.648C538.301 391.723 541.469 400.665 543.888 407.493C545.505 412.058 546.788 415.679 546.916 416.268C547.006 416.418 547.106 416.788 546.916 417.008C546.706 417.161 546.452 417.244 546.191 417.244C545.93 417.244 545.677 417.161 545.466 417.008C543.218 412.522 540.46 408.311 537.246 404.458C533.226 399.648 530.236 396.178 525.136 394.868C522.846 394.293 520.462 394.205 518.136 394.608C518.003 394.63 517.866 394.618 517.738 394.574C517.61 394.531 517.495 394.456 517.403 394.357C517.311 394.258 517.245 394.138 517.211 394.007C517.176 393.876 517.175 393.739 517.206 393.608C519.153 385.161 521.089 376.718 523.016 368.278C523.051 368.134 523.124 368.003 523.225 367.896C523.327 367.789 523.455 367.71 523.596 367.668L536.176 364.018C537.346 364.008 538.856 363.998 539.176 364.848C539.474 365.639 538.142 366.821 537.699 367.214C537.666 367.243 537.638 367.268 537.616 367.288ZM598.186 367.677C599.246 370.447 600.266 373.447 601.186 376.677C602.769 382.222 603.913 387.883 604.606 393.607L601.386 395.227C597.624 397.113 594.74 398.613 594.401 398.789L594.386 398.797C590.016 401.117 584.686 411.067 581.016 418.887L580.016 418.527C580.675 408.124 582.224 397.796 584.646 387.657C584.646 387.657 588.736 371.397 584.156 367.297L584.137 367.28C583.789 366.954 582.321 365.583 582.606 364.857C582.896 364.117 584.446 364.027 585.606 364.027L598.186 367.677Z" fill="white"/>
<path d="M537.126 387.648L536.405 387.855V387.856L537.126 387.648ZM537.616 367.288L538.117 367.846L538.12 367.844L537.616 367.288ZM543.888 407.493L543.181 407.743L543.888 407.493ZM546.916 416.268L546.183 416.427C546.201 416.507 546.231 416.584 546.273 416.654L546.916 416.268ZM546.916 417.008L547.358 417.614C547.404 417.58 547.446 417.541 547.484 417.498L546.916 417.008ZM545.466 417.008L544.796 417.344C544.849 417.451 544.927 417.543 545.024 417.614L545.466 417.008ZM537.246 404.458L537.822 403.977L537.246 404.458ZM525.136 394.868L525.323 394.141L525.319 394.14L525.136 394.868ZM518.136 394.608L518.257 395.348L518.264 395.347L518.136 394.608ZM517.738 394.574L517.981 393.865L517.738 394.574ZM517.403 394.357L516.854 394.868L517.403 394.357ZM517.211 394.007L516.485 394.198L517.211 394.007ZM517.206 393.608L517.936 393.782L517.937 393.776L517.206 393.608ZM523.016 368.278L522.288 368.098L522.285 368.111L523.016 368.278ZM523.225 367.896L523.769 368.413L523.225 367.896ZM523.596 367.668L523.387 366.947L523.38 366.95L523.596 367.668ZM536.176 364.018L536.17 363.268C536.101 363.268 536.033 363.278 535.967 363.297L536.176 364.018ZM539.176 364.848L538.474 365.112L539.176 364.848ZM537.699 367.214L537.201 366.653L537.699 367.214ZM601.186 376.677L600.464 376.883L601.186 376.677ZM598.186 367.677L598.886 367.409C598.802 367.19 598.62 367.023 598.395 366.957L598.186 367.677ZM604.606 393.607L604.943 394.277C605.225 394.135 605.388 393.831 605.35 393.517L604.606 393.607ZM601.386 395.227L601.722 395.898L601.723 395.897L601.386 395.227ZM594.401 398.789L594.055 398.124L594.401 398.789ZM594.386 398.797L594.039 398.132L594.034 398.135L594.386 398.797ZM581.016 418.887L580.762 419.593C581.126 419.724 581.53 419.556 581.695 419.206L581.016 418.887ZM580.016 418.527L579.267 418.48C579.246 418.813 579.448 419.12 579.762 419.233L580.016 418.527ZM584.646 387.657L583.918 387.474L583.916 387.483L584.646 387.657ZM584.156 367.297L583.644 367.845C583.647 367.849 583.651 367.853 583.655 367.856L584.156 367.297ZM584.137 367.28L584.649 366.732L584.137 367.28ZM582.606 364.857L583.304 365.131L582.606 364.857ZM585.606 364.027L585.815 363.307C585.747 363.287 585.676 363.277 585.606 363.277V364.027ZM537.847 387.44C536.678 383.382 536.027 379.072 536.051 375.448C536.063 373.636 536.244 372.019 536.601 370.702C536.961 369.375 537.48 368.418 538.117 367.846L537.115 366.73C536.177 367.572 535.552 368.84 535.153 370.31C534.753 371.789 534.564 373.543 534.551 375.438C534.526 379.229 535.204 383.684 536.405 387.855L537.847 387.44ZM544.595 407.242C542.171 400.401 539.013 391.488 537.847 387.44L536.405 387.856C537.588 391.958 540.766 400.929 543.181 407.743L544.595 407.242ZM547.649 416.108C547.572 415.757 547.197 414.644 546.669 413.125C546.129 411.573 545.403 409.524 544.595 407.242L543.181 407.743C543.99 410.027 544.714 412.071 545.252 413.618C545.802 415.198 546.132 416.19 546.183 416.427L547.649 416.108ZM547.484 417.498C547.764 417.174 547.79 416.79 547.768 416.544C547.746 416.297 547.664 416.057 547.559 415.882L546.273 416.654C546.261 416.633 546.262 416.63 546.267 416.646C546.271 416.659 546.273 416.671 546.274 416.679C546.275 416.687 546.272 416.676 546.279 416.649C546.286 416.62 546.304 416.569 546.349 416.518L547.484 417.498ZM546.191 417.994C546.611 417.994 547.019 417.861 547.358 417.614L546.474 416.402C546.392 416.462 546.293 416.494 546.191 416.494V417.994ZM545.024 417.614C545.363 417.861 545.772 417.994 546.191 417.994V416.494C546.089 416.494 545.99 416.462 545.908 416.402L545.024 417.614ZM536.67 404.938C539.847 408.747 542.574 412.91 544.796 417.344L546.137 416.672C543.863 412.134 541.073 407.875 537.822 403.977L536.67 404.938ZM524.95 395.594C529.781 396.835 532.627 400.101 536.671 404.939L537.822 403.977C533.825 399.195 530.691 395.52 525.323 394.141L524.95 395.594ZM518.264 395.347C520.487 394.962 522.766 395.046 524.954 395.595L525.319 394.14C522.927 393.541 520.437 393.448 518.008 393.869L518.264 395.347ZM517.495 395.284C517.74 395.368 518.002 395.39 518.257 395.348L518.015 393.868C518.003 393.87 517.992 393.869 517.981 393.865L517.495 395.284ZM516.854 394.868C517.03 395.057 517.251 395.2 517.495 395.284L517.981 393.865C517.97 393.861 517.96 393.855 517.952 393.846L516.854 394.868ZM516.485 394.198C516.551 394.448 516.678 394.678 516.854 394.868L517.952 393.846C517.944 393.838 517.939 393.828 517.936 393.816L516.485 394.198ZM516.477 393.433C516.416 393.685 516.419 393.948 516.485 394.198L517.936 393.816C517.933 393.805 517.933 393.794 517.936 393.782L516.477 393.433ZM522.285 368.111C520.358 376.55 518.422 384.993 516.475 393.439L517.937 393.776C519.884 385.329 521.821 376.885 523.747 368.445L522.285 368.111ZM522.682 367.379C522.49 367.581 522.355 367.828 522.288 368.098L523.744 368.458C523.748 368.441 523.757 368.425 523.769 368.413L522.682 367.379ZM523.38 366.95C523.114 367.03 522.873 367.178 522.682 367.379L523.769 368.413C523.781 368.4 523.796 368.391 523.812 368.386L523.38 366.95ZM535.967 363.297L523.387 366.947L523.805 368.388L536.385 364.738L535.967 363.297ZM539.878 364.584C539.567 363.756 538.73 363.482 538.129 363.372C537.482 363.255 536.738 363.263 536.17 363.268L536.182 364.768C536.785 364.763 537.38 364.761 537.861 364.848C538.387 364.944 538.466 365.089 538.474 365.112L539.878 364.584ZM538.196 367.775C538.414 367.582 538.906 367.148 539.303 366.646C539.501 366.396 539.703 366.096 539.831 365.771C539.958 365.449 540.043 365.022 539.878 364.584L538.474 365.112C538.458 365.07 538.489 365.087 538.435 365.221C538.383 365.353 538.28 365.522 538.127 365.715C537.822 366.1 537.426 366.454 537.201 366.653L538.196 367.775ZM538.12 367.844C538.138 367.827 538.162 367.805 538.196 367.775L537.201 366.653C537.169 366.681 537.138 366.709 537.112 366.732L538.12 367.844ZM601.907 376.472C600.98 373.219 599.953 370.198 598.886 367.409L597.485 367.945C598.538 370.697 599.551 373.676 600.464 376.883L601.907 376.472ZM605.35 393.517C604.653 387.754 603.501 382.054 601.907 376.471L600.464 376.883C602.037 382.39 603.173 388.012 603.861 393.697L605.35 393.517ZM601.723 395.897L604.943 394.277L604.269 392.937L601.049 394.557L601.723 395.897ZM594.748 399.454C595.084 399.279 597.965 397.781 601.722 395.898L601.05 394.557C597.283 396.445 594.395 397.947 594.055 398.124L594.748 399.454ZM594.732 399.463L594.748 399.454L594.055 398.124L594.04 398.132L594.732 399.463ZM581.695 419.206C583.524 415.307 585.76 410.895 588.075 407.176C589.232 405.317 590.401 403.644 591.541 402.301C592.689 400.947 593.768 399.974 594.737 399.46L594.034 398.135C592.818 398.78 591.592 399.921 590.397 401.33C589.194 402.749 587.981 404.488 586.801 406.383C584.441 410.175 582.177 414.647 580.337 418.569L581.695 419.206ZM579.762 419.233L580.762 419.593L581.27 418.182L580.27 417.822L579.762 419.233ZM583.916 387.483C581.485 397.664 579.929 408.034 579.267 418.48L580.764 418.575C581.421 408.214 582.964 397.929 585.375 387.832L583.916 387.483ZM583.655 367.856C584.591 368.693 585.165 370.246 585.42 372.301C585.671 374.323 585.594 376.678 585.372 378.941C585.15 381.199 584.786 383.335 584.477 384.908C584.323 385.694 584.183 386.338 584.081 386.784C584.03 387.008 583.989 387.181 583.961 387.299C583.947 387.357 583.936 387.402 583.929 387.431C583.925 387.446 583.923 387.457 583.921 387.464C583.92 387.468 583.919 387.471 583.919 387.472C583.919 387.473 583.918 387.474 583.918 387.474C583.918 387.474 583.918 387.474 584.646 387.657C585.373 387.84 585.373 387.84 585.373 387.84V387.839C585.373 387.838 585.374 387.838 585.374 387.836C585.375 387.834 585.375 387.831 585.376 387.827C585.378 387.818 585.382 387.806 585.386 387.79C585.393 387.758 585.405 387.71 585.42 387.649C585.449 387.526 585.492 387.346 585.544 387.117C585.648 386.658 585.792 386 585.949 385.197C586.264 383.594 586.636 381.408 586.865 379.088C587.092 376.774 587.179 374.295 586.909 372.116C586.642 369.969 586.011 367.951 584.656 366.739L583.655 367.856ZM583.625 367.828L583.644 367.845L584.668 366.749L584.649 366.732L583.625 367.828ZM581.907 364.584C581.727 365.044 581.858 365.497 581.989 365.797C582.129 366.117 582.34 366.424 582.546 366.684C582.959 367.207 583.451 367.666 583.625 367.828L584.649 366.732C584.474 366.568 584.058 366.179 583.722 365.754C583.553 365.539 583.429 365.347 583.363 365.196C583.288 365.024 583.342 365.034 583.304 365.131L581.907 364.584ZM585.606 363.277C585.018 363.277 584.277 363.299 583.631 363.43C583.307 363.495 582.968 363.595 582.672 363.759C582.373 363.923 582.065 364.182 581.907 364.584L583.304 365.131C583.292 365.163 583.285 365.133 583.396 365.072C583.507 365.011 583.683 364.95 583.928 364.9C584.419 364.801 585.033 364.777 585.606 364.777V363.277ZM598.395 366.957L585.815 363.307L585.397 364.748L597.977 368.398L598.395 366.957Z" fill="black"/>
<path d="M632.546 434.736L628.076 449.246L632.546 434.736Z" fill="#8CA45B"/>
<path d="M632.546 434.736L628.076 449.246" stroke="black" stroke-width="1.5" stroke-linecap="round" stroke-linejoin="round"/>
<path d="M693.776 289.268H665.866C662.856 289.268 660.416 291.708 660.416 294.718V354.288C660.416 357.298 662.856 359.738 665.866 359.738H693.776C696.786 359.738 699.226 357.298 699.226 354.288V294.718C699.226 291.708 696.786 289.268 693.776 289.268Z" fill="black" stroke="black" stroke-width="1.5" stroke-linecap="round" stroke-linejoin="round"/>
<path d="M669.776 293.696H667.046C665.825 293.696 664.836 294.686 664.836 295.906V295.916C664.836 297.137 665.825 298.126 667.046 298.126H669.776C670.996 298.126 671.986 297.137 671.986 295.916V295.906C671.986 294.686 670.996 293.696 669.776 293.696Z" fill="white" stroke="black" stroke-width="1.5" stroke-linecap="round" stroke-linejoin="round"/>
<path d="M549.435 429.526C549.435 429.19 549.335 428.861 549.149 428.582C548.962 428.302 548.696 428.084 548.386 427.956C548.075 427.827 547.733 427.793 547.404 427.859C547.074 427.924 546.771 428.086 546.533 428.324C546.295 428.562 546.133 428.865 546.068 429.194C546.002 429.524 546.036 429.866 546.165 430.177C546.293 430.487 546.511 430.753 546.791 430.94C547.07 431.126 547.399 431.226 547.735 431.226C547.958 431.226 548.179 431.182 548.386 431.097C548.592 431.011 548.779 430.886 548.937 430.728C549.095 430.57 549.22 430.383 549.306 430.177C549.391 429.97 549.435 429.749 549.435 429.526Z" fill="black" stroke="black" stroke-width="1.5" stroke-linecap="round" stroke-linejoin="round"/>
<path d="M548.755 442.118C549.694 442.118 550.455 441.357 550.455 440.418C550.455 439.479 549.694 438.718 548.755 438.718C547.816 438.718 547.055 439.479 547.055 440.418C547.055 441.357 547.816 442.118 548.755 442.118Z" fill="black" stroke="black" stroke-width="1.5" stroke-linecap="round" stroke-linejoin="round"/>
<path d="M596.465 453.307C597.075 447.357 597.175 442.927 598.845 435.777C600.858 427.166 603.591 418.74 607.015 410.587" stroke="black" stroke-width="1.5" stroke-linecap="round" stroke-linejoin="round"/>
<path d="M511.775 420.648L520.885 414.678" stroke="black" stroke-width="1.5" stroke-linecap="round" stroke-linejoin="round"/>
<path d="M473.525 438.888L468.805 437.138" stroke="black" stroke-width="1.5" stroke-linecap="round" stroke-linejoin="round"/>
<path d="M512.5 420.5L517 460V439.758C517 431.607 517.838 423.479 519.5 415.5L512.5 420.5Z" fill="black" stroke="black"/>
<path d="M512.684 318.736C515.624 325.288 520.499 330.783 526.654 334.482C532.809 338.181 539.949 339.906 547.114 339.426L589.804 333.016C603.314 321.646 609.174 304.686 604.614 290.286C601.794 281.406 594.384 271.496 584.014 268.166C581.014 267.166 576.314 267.296 566.824 267.476C554.314 267.716 548.064 267.836 541.634 269.526C535.204 271.216 526.714 273.436 520.014 280.416C512.114 288.736 506.264 303.996 512.684 318.736Z" fill="black" stroke="black" stroke-width="1.5" stroke-miterlimit="10"/>
<path d="M547.115 339.428L574.055 340.318C577.349 341.105 580.793 341.003 584.035 340.023C587.277 339.042 590.2 337.218 592.505 334.738C594.947 332.026 596.576 328.682 597.205 325.088C597.484 323.361 597.517 321.604 597.305 319.868C596.585 313.168 596.235 310.748 595.815 306.098C594.895 295.988 598.615 294.838 597.095 285.888C596.605 283.008 595.975 279.258 593.425 275.838C587.775 268.208 576.065 268.088 572.625 268.108C567.692 268.154 562.823 269.238 558.335 271.288C554.595 294.001 550.855 316.714 547.115 339.428Z" fill="#D88B6D"/>
<path d="M532.605 297.606C531.028 291.469 531.948 284.956 535.165 279.496C541.725 268.826 554.355 268.496 555.165 268.496L565.885 267.916C567.655 267.496 583.675 263.986 594.345 274.226C595.832 275.653 597.132 277.263 598.215 279.016C598.532 279.765 598.78 280.542 598.955 281.336C599.955 286.216 597.095 294.736 596.745 295.756C596.835 288.436 593.465 281.996 587.895 279.076C585.026 277.746 581.85 277.217 578.705 277.546C570.115 278.396 564.705 288.896 563.705 290.906C557.385 303.246 563.365 310.466 558.085 323.586C555.612 329.608 551.858 335.02 547.085 339.446C542.258 325.493 537.432 311.546 532.605 297.606Z" fill="black" stroke="black" stroke-width="1.5" stroke-miterlimit="10"/>
<path d="M574.546 340.366C577.216 348.606 579.886 357.056 582.546 365.366C582.734 365.945 582.724 366.569 582.517 367.141C582.311 367.713 581.92 368.201 581.406 368.526C573.983 373.297 565.204 375.512 556.406 374.836C549.53 374.225 542.93 371.844 537.246 367.926C536.716 367.56 536.33 367.019 536.157 366.398C535.983 365.777 536.032 365.115 536.296 364.526L547.666 339.286" fill="#D88B6D"/>
<path d="M574.546 340.366C577.216 348.606 579.886 357.056 582.546 365.366C582.734 365.945 582.724 366.569 582.517 367.141C582.311 367.713 581.92 368.201 581.406 368.526C573.983 373.297 565.204 375.512 556.406 374.836C549.53 374.225 542.93 371.844 537.246 367.926C536.716 367.56 536.33 367.019 536.157 366.398C535.983 365.777 536.032 365.115 536.296 364.526L547.666 339.286" stroke="black" stroke-width="1.5" stroke-linecap="round" stroke-linejoin="round"/>
<path d="M582.275 316.347H583.935C584.562 316.348 585.176 316.178 585.712 315.854C586.248 315.53 586.684 315.065 586.974 314.51C587.264 313.955 587.396 313.331 587.356 312.707C587.315 312.082 587.104 311.48 586.745 310.967L582.275 304.587" stroke="black" stroke-width="1.5" stroke-linecap="round" stroke-linejoin="round"/>
<path d="M587.505 320.377C587.549 320.376 587.592 320.386 587.631 320.407C587.669 320.429 587.701 320.46 587.722 320.498C587.744 320.537 587.755 320.58 587.753 320.624C587.752 320.668 587.739 320.71 587.715 320.747C587.262 321.562 586.599 322.24 585.796 322.712C584.992 323.185 584.077 323.434 583.145 323.434C582.213 323.434 581.298 323.185 580.495 322.712C579.691 322.24 579.028 321.562 578.575 320.747C578.554 320.71 578.543 320.669 578.543 320.627C578.543 320.584 578.554 320.543 578.576 320.506C578.597 320.47 578.628 320.439 578.664 320.418C578.701 320.398 578.743 320.387 578.785 320.387L587.505 320.377Z" fill="black"/>
<path fill-rule="evenodd" clip-rule="evenodd" d="M571.644 306.896C571.644 308.382 571.013 309.586 570.234 309.586C569.455 309.586 568.824 308.382 568.824 306.896C568.824 305.41 569.455 304.206 570.234 304.206C571.013 304.206 571.644 305.41 571.644 306.896ZM593.215 306.896C593.215 308.382 592.583 309.586 591.805 309.586C591.026 309.586 590.395 308.382 590.395 306.896C590.395 305.41 591.026 304.206 591.805 304.206C592.583 304.206 593.215 305.41 593.215 306.896Z" fill="black"/>
<path d="M549.296 298.487L547.456 298.427C545.375 298.361 543.351 299.108 541.812 300.51C540.274 301.912 539.342 303.859 539.216 305.937C539.115 307.737 539.625 309.518 540.663 310.992C541.701 312.466 543.207 313.546 544.936 314.057" fill="#D88B6D"/>
<path fill-rule="evenodd" clip-rule="evenodd" d="M565.234 302.248C566.011 300.876 567.258 299.832 568.744 299.308L565.234 302.248ZM595.824 302.248C595.051 300.873 593.803 299.828 592.314 299.308L595.824 302.248Z" fill="white"/>
<path fill-rule="evenodd" clip-rule="evenodd" d="M569.398 298.935C569.578 299.25 569.506 299.649 569.228 299.882L565.718 302.822C565.44 303.054 565.035 303.055 564.756 302.823C564.478 302.591 564.405 302.193 564.584 301.877C565.45 300.348 566.84 299.184 568.497 298.599C568.839 298.479 569.218 298.62 569.398 298.935ZM591.664 298.936C591.843 298.621 592.222 298.479 592.564 298.599C594.225 299.179 595.617 300.345 596.48 301.879C596.658 302.195 596.584 302.592 596.306 302.824C596.027 303.055 595.623 303.054 595.345 302.822L591.835 299.882C591.557 299.649 591.485 299.251 591.664 298.936Z" fill="black"/>
<path d="M566.275 338.568L574.045 340.318C577.341 341.107 580.787 341.006 584.03 340.025C587.274 339.045 590.199 337.22 592.505 334.738C594.947 332.026 596.576 328.682 597.205 325.088C597.484 323.361 597.517 321.604 597.305 319.868C596.585 313.168 596.235 310.748 595.815 306.098C594.895 295.988 598.615 294.838 597.095 285.888C596.605 283.008 595.975 279.258 593.435 275.838C587.185 267.418 574.645 267.988 572.625 268.108C570.145 268.258 568.105 268.028 566.785 268.108" stroke="black" stroke-width="1.5" stroke-miterlimit="10"/>
<path d="M547.785 339.226L558.365 285.956L566.685 274.856" stroke="black" stroke-width="1.5" stroke-linecap="round" stroke-linejoin="round"/>
</svg>
