<svg width="1220" height="921" viewBox="0 0 1220 921" fill="none" xmlns="http://www.w3.org/2000/svg">
<path d="M361.699 652.539H283.069" stroke="#CCCCCC" stroke-width="1.5" stroke-linecap="round" stroke-linejoin="round"/>
<path d="M359.18 641.789H285.58" stroke="#CCCCCC" stroke-width="1.5" stroke-linecap="round" stroke-linejoin="round"/>
<path d="M365.16 583.779L403.82 794.579C403.979 795.443 403.815 796.335 403.36 797.087C402.905 797.838 402.191 798.397 401.352 798.657C400.513 798.917 399.607 798.86 398.807 798.498C398.007 798.135 397.368 797.492 397.01 796.689C391.92 785.229 375.61 712.349 361.7 652.539C360.847 648.899 360.007 645.316 359.18 641.789C353.51 617.549 348.39 596.399 344.83 583.789" stroke="#CCCCCC" stroke-width="1.5" stroke-linecap="round" stroke-linejoin="round"/>
<path d="M279.6 583.779L240.95 794.579C240.791 795.443 240.955 796.335 241.41 797.087C241.864 797.838 242.579 798.397 243.418 798.657C244.257 798.917 245.163 798.86 245.963 798.498C246.763 798.135 247.402 797.492 247.76 796.689C252.85 785.229 269.16 712.349 283.07 652.539C283.916 648.899 284.753 645.316 285.58 641.789C291.26 617.549 296.38 596.399 299.94 583.789" stroke="#CCCCCC" stroke-width="1.5" stroke-linecap="round" stroke-linejoin="round"/>
<path d="M442.54 565.319H202.23C197.132 565.319 193 569.452 193 574.549C193 579.647 197.132 583.779 202.23 583.779H442.54C447.638 583.779 451.77 579.647 451.77 574.549C451.77 569.452 447.638 565.319 442.54 565.319Z" stroke="#CCCCCC" stroke-width="1.5" stroke-linecap="round" stroke-linejoin="round"/>
<path d="M366.39 565.59L279.39 565.23C277.683 561.03 275.97 556.833 274.25 552.64H370.15C368.91 556.96 367.657 561.276 366.39 565.59Z" stroke="#CCCCCC" stroke-width="1.5" stroke-linecap="round" stroke-linejoin="round"/>
<path d="M361.79 513.329H352.89V519.869H359.72C360.272 519.869 360.82 519.978 361.331 520.19C361.841 520.401 362.306 520.711 362.697 521.102C363.087 521.493 363.398 521.957 363.609 522.468C363.821 522.979 363.93 523.526 363.93 524.079V537.769C363.935 538.325 363.83 538.877 363.621 539.393C363.411 539.908 363.102 540.377 362.711 540.772C362.319 541.167 361.853 541.481 361.34 541.695C360.827 541.909 360.276 542.019 359.72 542.019H352.85V548.569H361.75C364.062 548.569 366.28 547.65 367.916 546.015C369.551 544.38 370.47 542.162 370.47 539.849V522.019C370.464 519.718 369.548 517.512 367.922 515.884C366.296 514.255 364.091 513.337 361.79 513.329Z" stroke="#CCCCCC" stroke-width="1.5" stroke-linecap="round" stroke-linejoin="round"/>
<path d="M352.89 541.969V519.869" stroke="#CCCCCC" stroke-width="1.5" stroke-linecap="round" stroke-linejoin="round"/>
<path d="M352.89 548.52V552.55H291.52V508H352.89V513.33" stroke="#CCCCCC" stroke-width="1.5" stroke-linecap="round" stroke-linejoin="round"/>
<path d="M1005.58 764.01H712.58H683.1V495.45H1005.58V764.01Z" stroke="#CCCCCC" stroke-width="1.5" stroke-linecap="round" stroke-linejoin="round"/>
<path d="M987.609 674.49H701.079V747.11H987.609V674.49Z" stroke="#CCCCCC" stroke-width="1.5" stroke-linecap="round" stroke-linejoin="round"/>
<path d="M1008.64 471H680.04C673.39 471 668 476.391 668 483.04V483.05C668 489.7 673.39 495.09 680.04 495.09H1008.64C1015.29 495.09 1020.68 489.7 1020.68 483.05V483.04C1020.68 476.391 1015.29 471 1008.64 471Z" stroke="#CCCCCC" stroke-width="1.5" stroke-linecap="round" stroke-linejoin="round"/>
<path d="M844.339 721.23C850.1 721.23 854.769 716.56 854.769 710.8C854.769 705.04 850.1 700.37 844.339 700.37C838.579 700.37 833.909 705.04 833.909 710.8C833.909 716.56 838.579 721.23 844.339 721.23Z" stroke="#CCCCCC" stroke-width="1.5" stroke-linecap="round" stroke-linejoin="round"/>
<path d="M844.34 718.71C848.708 718.71 852.25 715.168 852.25 710.8C852.25 706.431 848.708 702.89 844.34 702.89C839.971 702.89 836.43 706.431 836.43 710.8C836.43 715.168 839.971 718.71 844.34 718.71Z" stroke="#CCCCCC" stroke-width="1.5" stroke-linecap="round" stroke-linejoin="round"/>
<path d="M987.609 590.36H701.079V662.98H987.609V590.36Z" stroke="#CCCCCC" stroke-width="1.5" stroke-linecap="round" stroke-linejoin="round"/>
<path d="M844.339 637.1C850.1 637.1 854.769 632.431 854.769 626.67C854.769 620.91 850.1 616.24 844.339 616.24C838.579 616.24 833.909 620.91 833.909 626.67C833.909 632.431 838.579 637.1 844.339 637.1Z" stroke="#CCCCCC" stroke-width="1.5" stroke-linecap="round" stroke-linejoin="round"/>
<path d="M844.34 634.58C848.708 634.58 852.25 631.038 852.25 626.67C852.25 622.301 848.708 618.76 844.34 618.76C839.971 618.76 836.43 622.301 836.43 626.67C836.43 631.038 839.971 634.58 844.34 634.58Z" stroke="#CCCCCC" stroke-width="1.5" stroke-linecap="round" stroke-linejoin="round"/>
<path d="M838.049 506.95H701.079V579.57H838.049V506.95Z" stroke="#CCCCCC" stroke-width="1.5" stroke-linecap="round" stroke-linejoin="round"/>
<path d="M769.56 553.69C775.32 553.69 779.99 549.02 779.99 543.26C779.99 537.5 775.32 532.83 769.56 532.83C763.8 532.83 759.13 537.5 759.13 543.26C759.13 549.02 763.8 553.69 769.56 553.69Z" stroke="#CCCCCC" stroke-width="1.5" stroke-linecap="round" stroke-linejoin="round"/>
<path d="M769.559 551.17C773.928 551.17 777.469 547.628 777.469 543.26C777.469 538.891 773.928 535.35 769.559 535.35C765.191 535.35 761.649 538.891 761.649 543.26C761.649 547.628 765.191 551.17 769.559 551.17Z" stroke="#CCCCCC" stroke-width="1.5" stroke-linecap="round" stroke-linejoin="round"/>
<path d="M987.24 506.95H850.27V579.57H987.24V506.95Z" stroke="#CCCCCC" stroke-width="1.5" stroke-linecap="round" stroke-linejoin="round"/>
<path d="M918.759 553.69C924.519 553.69 929.189 549.02 929.189 543.26C929.189 537.5 924.519 532.83 918.759 532.83C912.999 532.83 908.329 537.5 908.329 543.26C908.329 549.02 912.999 553.69 918.759 553.69Z" stroke="#CCCCCC" stroke-width="1.5" stroke-linecap="round" stroke-linejoin="round"/>
<path d="M918.76 551.17C923.128 551.17 926.67 547.628 926.67 543.26C926.67 538.891 923.128 535.35 918.76 535.35C914.391 535.35 910.85 538.891 910.85 543.26C910.85 547.628 914.391 551.17 918.76 551.17Z" stroke="#CCCCCC" stroke-width="1.5" stroke-linecap="round" stroke-linejoin="round"/>
<path d="M736.31 763.65L720.66 794.95C719.96 796.348 718.885 797.523 717.555 798.344C716.225 799.166 714.693 799.601 713.13 799.6C711.822 799.597 710.533 799.288 709.364 798.7C708.196 798.111 707.181 797.258 706.4 796.209C705.619 795.16 705.093 793.944 704.864 792.656C704.634 791.368 704.708 790.045 705.08 788.79L712.58 764.05" stroke="#CCCCCC" stroke-width="1.5" stroke-linecap="round" stroke-linejoin="round"/>
<path d="M954.85 763.65L970.5 794.95C971.198 796.347 972.271 797.522 973.599 798.343C974.927 799.165 976.458 799.6 978.02 799.6C979.329 799.593 980.618 799.28 981.785 798.686C982.951 798.093 983.963 797.235 984.74 796.181C985.517 795.128 986.037 793.907 986.26 792.617C986.482 791.327 986.399 790.003 986.02 788.75L978.53 764.01" stroke="#CCCCCC" stroke-width="1.5" stroke-linecap="round" stroke-linejoin="round"/>
<path d="M957.7 194.68H748V347.34H957.7V194.68Z" stroke="#CCCCCC" stroke-width="1.5" stroke-linecap="round" stroke-linejoin="round"/>
<path d="M748 194.68L853.87 123L957.7 194.68" stroke="#CCCCCC" stroke-width="1.5" stroke-linecap="round" stroke-linejoin="round"/>
<path d="M852.33 316.83C877.807 316.83 898.46 296.177 898.46 270.7C898.46 245.223 877.807 224.57 852.33 224.57C826.853 224.57 806.2 245.223 806.2 270.7C806.2 296.177 826.853 316.83 852.33 316.83Z" stroke="#CCCCCC" stroke-width="1.5" stroke-linecap="round" stroke-linejoin="round"/>
<path d="M833.95 254.87V263.04" stroke="#CCCCCC" stroke-width="1.5" stroke-linecap="round" stroke-linejoin="round"/>
<path d="M870.72 254.87V263.04" stroke="#CCCCCC" stroke-width="1.5" stroke-linecap="round" stroke-linejoin="round"/>
<path d="M839.65 273.42C843.388 275.974 847.809 277.341 852.335 277.341C856.862 277.341 861.283 275.974 865.02 273.42" stroke="#CCCCCC" stroke-width="1.5" stroke-linecap="round" stroke-linejoin="round"/>
<path d="M459.98 436.15H241.9V93H546.75V436.15H505.77" stroke="#CCCCCC" stroke-width="1.5" stroke-linecap="round" stroke-linejoin="round"/>
<path d="M505.43 436.09H565.64V462.2H223V436.09H459.64" stroke="#CCCCCC" stroke-width="1.5" stroke-linecap="round" stroke-linejoin="round"/>
<path d="M459.98 426.96H254.66V327.9H443.81" stroke="#CCCCCC" stroke-width="1.5" stroke-linecap="round" stroke-linejoin="round"/>
<path d="M511.391 327.9H533.981V426.96H505.601" stroke="#CCCCCC" stroke-width="1.5" stroke-linecap="round" stroke-linejoin="round"/>
<path d="M440.41 320.751H254.66V221.681H533.98V320.751H513.26" stroke="#CCCCCC" stroke-width="1.5" stroke-linecap="round" stroke-linejoin="round"/>
<path d="M533.98 109.34H254.66V208.4H533.98V109.34Z" stroke="#CCCCCC" stroke-width="1.5" stroke-linecap="round" stroke-linejoin="round"/>
<path d="M505.39 373.34H459.94V443.3H505.39V373.34Z" stroke="#CCCCCC" stroke-width="1.5" stroke-linecap="round" stroke-linejoin="round"/>
<path d="M431.34 302.88L466.58 373.34H497.22L519.68 298.28L500.15 318.98L494.15 274.28C489.343 289.86 484.536 305.44 479.73 321.02C474.83 304.76 469.937 288.514 465.05 272.28C462.79 287.694 460.533 303.104 458.28 318.51L431.34 302.88Z" stroke="#CCCCCC" stroke-width="1.5" stroke-linecap="round" stroke-linejoin="round"/>
<path d="M1063.6 800H312.87" stroke="black" stroke-width="1.5" stroke-linecap="round" stroke-linejoin="round"/>
<path d="M732.7 810.21H195" stroke="black" stroke-width="1.5" stroke-linecap="round" stroke-linejoin="round"/>
<path d="M776.62 810.21H745.47" stroke="black" stroke-width="1.5" stroke-linecap="round" stroke-linejoin="round"/>
<path d="M771.438 788.875C766.37 798.659 761.938 808.76 758.168 819.115C753.798 831.115 752.748 836.915 755.168 842.465L755.228 842.605C755.889 843.99 756.886 845.188 758.128 846.089C759.37 846.99 760.818 847.566 762.34 847.765C763.862 847.964 765.409 847.779 766.841 847.227C768.273 846.675 769.544 845.774 770.538 844.605L825.978 780.665C826.832 779.688 827.441 778.522 827.755 777.264C828.07 776.006 828.081 774.691 827.788 773.427C827.495 772.164 826.907 770.988 826.07 769.997C825.234 769.005 824.174 768.226 822.978 767.725L795.348 756.285L777.098 749.095L757.148 772.095L771.438 788.875Z" fill="#FFCD88" stroke="black" stroke-width="1.5" stroke-linecap="round" stroke-linejoin="round"/>
<path d="M798.607 757.534C795.367 765.364 789.217 776.534 777.607 784.944C775.631 786.382 773.567 787.694 771.427 788.874L757.127 772.164L777.077 749.164L798.607 757.534Z" fill="white" stroke="black" stroke-width="1.5" stroke-linecap="round" stroke-linejoin="round"/>
<path d="M762.698 847.365L827.088 773.095" stroke="black" stroke-width="1.5" stroke-linecap="round" stroke-linejoin="round"/>
<path d="M471.857 789.084C461.832 784.512 451.52 780.593 440.987 777.354C428.757 773.584 422.987 772.824 417.527 775.554L417.387 775.624C416.036 776.353 414.889 777.409 414.049 778.694C413.21 779.98 412.705 781.455 412.581 782.985C412.456 784.515 412.717 786.052 413.338 787.456C413.959 788.861 414.921 790.087 416.137 791.024L482.777 843.204C483.799 844.006 484.997 844.553 486.272 844.8C487.547 845.047 488.863 844.987 490.11 844.626C491.358 844.265 492.501 843.612 493.447 842.721C494.392 841.831 495.112 840.728 495.547 839.504L505.597 811.324L511.857 792.744L487.857 774.024L471.857 789.084Z" fill="#FFCD88" stroke="black" stroke-width="1.5" stroke-linecap="round" stroke-linejoin="round"/>
<path d="M504.557 814.664C496.557 811.814 485.167 806.234 476.137 795.064C474.599 793.156 473.183 791.152 471.897 789.064L487.857 774.024L511.857 792.794L504.557 814.664Z" fill="white" stroke="black" stroke-width="1.5" stroke-linecap="round" stroke-linejoin="round"/>
<path d="M413.048 783.274L490.438 843.884" stroke="black" stroke-width="1.5" stroke-linecap="round" stroke-linejoin="round"/>
<path d="M499.947 826.354C499.947 826.354 485.157 815.424 473.357 830.504" stroke="black" stroke-width="1.5" stroke-linecap="round" stroke-linejoin="round"/>
<path d="M603.357 507.954C594.277 523.601 585.277 539.681 576.357 556.194C547.312 610.18 521.188 665.686 498.097 722.474C494.606 731.21 490.173 739.539 484.877 747.314C481.672 751.914 479.794 757.307 479.45 762.902C479.106 768.498 480.309 774.08 482.927 779.038C485.546 783.995 489.478 788.136 494.293 791.007C499.108 793.878 504.621 795.368 510.227 795.314C517.665 793.437 524.34 789.305 529.337 783.484C531.889 780.502 533.939 777.124 535.407 773.484C538.809 764.92 543.032 756.705 548.017 748.954L677.627 550.544L603.357 507.954Z" fill="#AD85AD" stroke="black" stroke-width="1.5" stroke-linecap="round" stroke-linejoin="round"/>
<path d="M494.5 731L487.499 749.5L494.5 731Z" fill="#AD85AD"/>
<path d="M494.5 731L487.499 749.5" stroke="black" stroke-width="1.5" stroke-linecap="round" stroke-linejoin="round"/>
<path d="M543.5 748.5L540 762L543.5 748.5Z" fill="#AD85AD"/>
<path d="M543.5 748.5L540 762" stroke="black" stroke-width="1.5" stroke-linecap="round" stroke-linejoin="round"/>
<path d="M640.388 569.435C633.948 591.341 627.512 613.251 621.078 635.165L644.568 602.385L640.388 569.435Z" fill="black"/>
<path d="M508.518 804.854L476.938 784.024C476.318 781.582 476.222 779.036 476.657 776.554C477.091 774.073 478.046 771.711 479.458 769.624L517.018 792.754C516.978 795.423 516.138 798.018 514.608 800.204C513.084 802.324 510.964 803.943 508.518 804.854Z" fill="#AD85AD" stroke="black" stroke-width="1.5" stroke-linecap="round" stroke-linejoin="round"/>
<path d="M509.768 787.904C509.768 787.904 505.718 799.234 503.008 800.714L509.768 787.904Z" fill="#AD85AD"/>
<path d="M509.768 787.904C509.768 787.904 505.718 799.234 503.008 800.714" stroke="black" stroke-width="1.5" stroke-linecap="round" stroke-linejoin="round"/>
<path d="M487.277 774.774C487.277 774.774 482.047 783.994 482.037 787.774L487.277 774.774Z" fill="#AD85AD"/>
<path d="M487.277 774.774C487.277 774.774 482.047 783.994 482.037 787.774" stroke="black" stroke-width="1.5" stroke-linecap="round" stroke-linejoin="round"/>
<path d="M499.047 781.765L492.657 794.525" stroke="black" stroke-width="1.5" stroke-linecap="round" stroke-linejoin="round"/>
<path d="M665.857 528.265L706.217 520.475C707.284 538.348 708.35 556.215 709.417 574.075L712.417 656.285C712.517 656.395 712.607 656.505 712.697 656.625L714.577 658.755L714.507 658.845L752.167 705.025C758.036 712.13 764.58 718.651 771.707 724.495C774.724 727.003 777.317 729.981 779.387 733.315C783.408 739.845 785.312 747.46 784.837 755.115C783.184 760.471 780.088 765.269 775.89 768.983C771.692 772.697 766.552 775.183 761.034 776.171C755.516 777.158 749.833 776.608 744.607 774.58C739.382 772.552 734.815 769.125 731.407 764.675C725.614 757.262 719.028 750.505 711.767 744.525C697.694 732.785 683.547 720.578 669.327 707.905L669.177 708.025L668.257 706.955L666.517 705.415L666.747 705.205L663.637 701.605C654.653 691.07 649.225 677.967 648.127 664.165C645.477 630.115 643.477 602.485 640.827 568.435L628.317 557.535" fill="#AD85AD"/>
<path d="M665.857 528.265L706.217 520.475C707.284 538.348 708.35 556.215 709.417 574.075L712.417 656.285C712.517 656.395 712.607 656.505 712.697 656.625L714.577 658.755L714.507 658.845L752.167 705.025C758.036 712.13 764.58 718.651 771.707 724.495C774.724 727.003 777.317 729.981 779.387 733.315C783.408 739.845 785.312 747.46 784.837 755.115C783.184 760.471 780.088 765.269 775.89 768.983C771.692 772.697 766.552 775.183 761.034 776.171C755.516 777.158 749.833 776.608 744.607 774.58C739.382 772.552 734.815 769.125 731.407 764.675C725.614 757.262 719.028 750.505 711.767 744.525C697.694 732.785 683.547 720.578 669.327 707.905L669.177 708.025L668.257 706.955L666.517 705.415L666.747 705.205L663.637 701.605C654.653 691.07 649.225 677.967 648.127 664.165C645.477 630.115 643.477 602.485 640.827 568.435L628.317 557.535" stroke="black" stroke-width="1.5" stroke-linecap="round" stroke-linejoin="round"/>
<path d="M723.5 755L737.001 764L723.5 755Z" fill="#AD85AD"/>
<path d="M723.5 755L737.001 764" stroke="black" stroke-width="1.5" stroke-linecap="round" stroke-linejoin="round"/>
<path d="M759.001 717.5L771.5 724.5L759.001 717.5Z" fill="#AD85AD"/>
<path d="M759.001 717.5L771.5 724.5" stroke="black" stroke-width="1.5" stroke-linecap="round" stroke-linejoin="round"/>
<path d="M810.258 762.854C810.258 762.854 794.768 772.025 809.538 793.365" stroke="black" stroke-width="1.5" stroke-linecap="round" stroke-linejoin="round"/>
<path d="M704.979 654.484L712.479 657.304L713.758 666.034" fill="#AD85AD"/>
<path d="M704.979 654.484L712.479 657.304L713.758 666.034" stroke="black" stroke-width="1.5" stroke-linecap="round" stroke-linejoin="round"/>
<path d="M671.668 528.234C672.178 531.144 677.288 558.014 698.168 565.714C701.96 567.097 705.972 567.775 710.008 567.714" stroke="black" stroke-width="1.5" stroke-linecap="round" stroke-linejoin="round"/>
<path d="M794.457 756.315C785.617 765.315 776.547 775.195 767.707 784.205C766.187 784.295 764.037 783.375 761.307 782.465C757.777 781.295 757.127 777.925 755.967 776.755C765.917 765.945 774.967 756.555 784.967 745.755C787.332 746.33 789.458 747.631 791.047 749.475C792.835 751.367 794.022 753.748 794.457 756.315Z" fill="#AD85AD" stroke="black" stroke-width="1.5" stroke-linecap="round" stroke-linejoin="round"/>
<path d="M779.078 752.164C779.078 752.164 788.408 757.994 789.338 760.934L779.078 752.164Z" fill="#AD85AD"/>
<path d="M779.078 752.164C779.078 752.164 788.408 757.994 789.338 760.934" stroke="black" stroke-width="1.5" stroke-linecap="round" stroke-linejoin="round"/>
<path d="M760.858 771.435C760.858 771.435 768.858 778.335 772.668 779.065L760.858 771.435Z" fill="#AD85AD"/>
<path d="M760.858 771.435C760.858 771.435 768.858 778.335 772.668 779.065" stroke="black" stroke-width="1.5" stroke-linecap="round" stroke-linejoin="round"/>
<path d="M769.987 761.215L781.287 769.925" stroke="black" stroke-width="1.5" stroke-linecap="round" stroke-linejoin="round"/>
<path d="M720.857 445.644C706.077 420.358 691.301 395.061 676.527 369.754C658.117 371.064 650.167 370.815 647.037 370.045L646.317 369.875C645.967 369.785 628.73 373.075 627.5 372.825C625.1 372.355 620.537 365.525 609.637 372.825C595.777 382.125 594.747 399.465 594.637 401.584L603.857 525.665C632.358 534.931 663.103 534.647 691.427 524.854L729.857 519.134C726.884 494.634 723.884 470.138 720.857 445.644Z" fill="white" stroke="black" stroke-width="1.5" stroke-linecap="round" stroke-linejoin="round"/>
<path d="M631.498 542.565C658.908 537.845 686.098 532.965 713.498 528.245C720.967 526.961 727.743 523.083 732.633 517.293C737.523 511.503 740.213 504.173 740.228 496.595L740.418 418.945L696.918 407.465C696.625 409.878 696.338 412.285 696.058 414.685L695.478 486.685L631.138 508.685" fill="#D88B6D"/>
<path d="M631.498 542.565C658.908 537.845 686.098 532.965 713.498 528.245C720.967 526.961 727.743 523.083 732.633 517.293C737.523 511.503 740.213 504.173 740.228 496.595L740.418 418.945L696.918 407.465C696.625 409.878 696.338 412.285 696.058 414.685L695.478 486.685L631.138 508.685" stroke="black" stroke-width="1.5" stroke-linecap="round" stroke-linejoin="round"/>
<path d="M739.707 404.624C740.927 407.957 742.144 411.324 743.357 414.724L739.707 404.624Z" fill="white"/>
<path d="M739.707 404.624C740.927 407.957 742.144 411.324 743.357 414.724" stroke="black" stroke-width="1.5" stroke-linecap="round" stroke-linejoin="round"/>
<path d="M684.968 422.524C684.968 422.704 684.968 422.884 684.968 423.054C684.428 438.784 687.138 456.154 695.058 475.054C695.432 463.174 695.798 451.294 696.158 439.414L684.968 422.524Z" fill="black"/>
<path d="M675.718 367.884C678.468 367.404 708.398 364.024 727.588 381.804C746.078 398.944 744.938 422.084 744.738 425.094L688.998 440.094C684.378 426.484 683.768 423.144 679.148 409.534" fill="white"/>
<path d="M675.718 367.884C678.468 367.404 708.398 364.024 727.588 381.804C746.078 398.944 744.938 422.084 744.738 425.094L688.998 440.094C684.378 426.484 683.768 423.144 679.148 409.534" stroke="black" stroke-width="1.5" stroke-linecap="round" stroke-linejoin="round"/>
<path d="M744.378 428.535C744.689 428.531 744.995 428.465 745.279 428.339C745.563 428.214 745.818 428.032 746.029 427.805C746.241 427.577 746.404 427.309 746.508 427.017C746.613 426.725 746.657 426.415 746.638 426.105C746.537 425.668 746.305 425.273 745.972 424.972C745.64 424.672 745.223 424.481 744.778 424.425L688.188 438.925C687.935 439.151 687.754 439.448 687.669 439.778C687.584 440.107 687.598 440.455 687.711 440.776C687.823 441.097 688.028 441.377 688.3 441.582C688.572 441.787 688.899 441.906 689.238 441.925L744.378 428.535Z" fill="#F25A33" stroke="black" stroke-width="1.5" stroke-linecap="round" stroke-linejoin="round"/>
<path d="M677.188 368.284C670.42 374.345 662.118 378.43 653.188 380.094C646.538 381.486 639.64 381.103 633.186 378.984C626.732 376.866 620.948 373.086 616.418 368.024C617.327 367.439 618.416 367.198 619.488 367.344C620.11 367.453 620.705 367.686 621.236 368.03C621.767 368.374 622.223 368.821 622.578 369.344L670.378 369.294C671.36 368.376 672.619 367.81 673.958 367.684C675.069 367.58 676.188 367.788 677.188 368.284Z" fill="#F25A33" stroke="black" stroke-width="1.5" stroke-linecap="round" stroke-linejoin="round"/>
<path d="M623.188 514.925H457.738V366.325H623.188V514.925Z" fill="#FFE1B8" stroke="black" stroke-width="1.5" stroke-linecap="round" stroke-linejoin="round"/>
<path d="M457.738 366.324L623.188 514.924" stroke="black" stroke-width="1.5" stroke-linecap="round" stroke-linejoin="round"/>
<path d="M457.738 514.924L623.188 366.324" stroke="black" stroke-width="1.5" stroke-linecap="round" stroke-linejoin="round"/>
<path d="M534.817 366.324H431.188V273.244H534.817V366.324Z" fill="#FFE1B8" stroke="black" stroke-width="1.5" stroke-linecap="round" stroke-linejoin="round"/>
<path d="M431.188 273.244L534.818 366.324" stroke="black" stroke-width="1.5" stroke-linecap="round" stroke-linejoin="round"/>
<path d="M431.188 366.324L534.818 273.244" stroke="black" stroke-width="1.5" stroke-linecap="round" stroke-linejoin="round"/>
<path d="M631.858 508.654L631.548 492.424C631.548 489.904 628.678 488.104 626.458 488.274C625.927 488.342 625.414 488.514 624.95 488.781C624.485 489.048 624.078 489.404 623.752 489.829C623.426 490.253 623.187 490.738 623.049 491.256C622.911 491.774 622.877 492.313 622.948 492.844C623.168 499.024 622.948 505.234 623.138 511.414L606.548 511.914C605.817 511.568 605.17 511.066 604.652 510.444C604.134 509.823 603.757 509.096 603.548 508.314C603.51 508.169 603.48 508.022 603.458 507.874C603.248 506.698 603.512 505.487 604.192 504.505C604.873 503.523 605.914 502.851 607.088 502.634L611.018 502.004C611.852 501.945 612.628 501.559 613.177 500.929C613.726 500.299 614.003 499.478 613.948 498.644C613.98 497.557 613.626 496.495 612.948 495.644C612.418 495.064 611.398 494.374 607.008 494.724C604.767 494.902 602.545 495.277 600.368 495.844C601.038 494.464 601.718 493.094 602.368 491.714C602.759 490.914 602.933 490.026 602.872 489.137C602.81 488.249 602.516 487.393 602.018 486.654C601.909 486.475 601.767 486.319 601.598 486.194C600.915 485.712 600.112 485.429 599.278 485.374C598.631 485.343 597.988 485.494 597.422 485.81C596.856 486.127 596.391 486.596 596.078 487.164C594.036 490.684 592.427 494.438 591.288 498.344C590.339 501.24 589.669 504.22 589.288 507.244L588.238 495.124C588.147 493.834 587.559 492.63 586.598 491.764C586.196 491.403 585.717 491.135 585.199 490.981C584.68 490.827 584.133 490.791 583.598 490.874C583.038 490.95 582.498 491.137 582.01 491.423C581.521 491.709 581.095 492.089 580.754 492.541C580.414 492.993 580.167 493.508 580.027 494.056C579.887 494.604 579.857 495.174 579.938 495.734L581.938 517.414L576.738 505.484C576.363 504.557 575.662 503.799 574.767 503.351C573.873 502.904 572.845 502.798 571.878 503.054H571.828C570.918 503.323 570.08 503.795 569.378 504.434C568.628 505.16 568.138 506.112 567.984 507.145C567.83 508.177 568.022 509.232 568.528 510.144C569.898 512.644 572.038 516.574 574.668 521.374C579.888 530.904 582.578 535.724 586.668 538.594C589.443 540.547 592.616 541.862 595.958 542.444L632.568 542.504V542.164" fill="#D88B6D"/>
<path d="M631.858 508.654L631.548 492.424C631.548 489.904 628.678 488.104 626.458 488.274C625.927 488.342 625.414 488.514 624.95 488.781C624.485 489.048 624.078 489.404 623.752 489.829C623.426 490.253 623.187 490.738 623.049 491.256C622.911 491.774 622.877 492.313 622.948 492.844C623.168 499.024 622.948 505.234 623.138 511.414L606.548 511.914C605.817 511.568 605.17 511.066 604.652 510.444C604.134 509.823 603.757 509.096 603.548 508.314C603.51 508.169 603.48 508.022 603.458 507.874C603.248 506.698 603.512 505.487 604.192 504.505C604.873 503.523 605.914 502.851 607.088 502.634L611.018 502.004C611.852 501.945 612.628 501.559 613.177 500.929C613.726 500.299 614.003 499.478 613.948 498.644C613.98 497.557 613.626 496.495 612.948 495.644C612.418 495.064 611.398 494.374 607.008 494.724C604.767 494.902 602.545 495.277 600.368 495.844C601.038 494.464 601.718 493.094 602.368 491.714C602.759 490.914 602.933 490.026 602.872 489.137C602.81 488.249 602.516 487.393 602.018 486.654C601.909 486.475 601.767 486.319 601.598 486.194C600.915 485.712 600.112 485.429 599.278 485.374C598.631 485.343 597.988 485.494 597.422 485.81C596.856 486.127 596.391 486.596 596.078 487.164C594.036 490.684 592.427 494.438 591.288 498.344C590.339 501.24 589.669 504.22 589.288 507.244L588.238 495.124C588.147 493.834 587.559 492.63 586.598 491.764C586.196 491.403 585.717 491.135 585.199 490.981C584.68 490.827 584.133 490.791 583.598 490.874C583.038 490.95 582.498 491.137 582.01 491.423C581.521 491.709 581.095 492.089 580.754 492.541C580.414 492.993 580.167 493.508 580.027 494.056C579.887 494.604 579.857 495.174 579.938 495.734L581.938 517.414L576.738 505.484C576.363 504.557 575.662 503.799 574.767 503.351C573.873 502.904 572.845 502.798 571.878 503.054H571.828C570.918 503.323 570.08 503.795 569.378 504.434C568.628 505.16 568.138 506.112 567.984 507.145C567.83 508.177 568.022 509.232 568.528 510.144C569.898 512.644 572.038 516.574 574.668 521.374C579.888 530.904 582.578 535.724 586.668 538.594C589.443 540.547 592.616 541.862 595.958 542.444L632.568 542.504V542.164" stroke="black" stroke-width="1.5" stroke-linecap="round" stroke-linejoin="round"/>
<path d="M600.297 495.885C598.565 497.466 597.211 499.417 596.335 501.593C595.459 503.769 595.084 506.114 595.237 508.455C595.46 510.865 596.246 513.189 597.531 515.24C598.817 517.291 600.565 519.012 602.637 520.265" stroke="black" stroke-width="1.5" stroke-linecap="round" stroke-linejoin="round"/>
<path d="M596.447 525.754C594.178 524.285 592.306 522.279 590.997 519.914C588.955 516.039 588.332 511.571 589.237 507.284" stroke="black" stroke-width="1.5" stroke-linecap="round" stroke-linejoin="round"/>
<path d="M589.098 531.594C587.637 529.921 586.353 528.102 585.268 526.164C583.747 523.432 582.616 520.5 581.908 517.454" stroke="black" stroke-width="1.5" stroke-linecap="round" stroke-linejoin="round"/>
<path d="M465.417 485.664H455.717C453.32 485.664 451.377 483.721 451.377 481.324C451.377 478.927 453.32 476.984 455.717 476.984H465.417C467.814 476.984 469.757 478.927 469.757 481.324C469.757 483.721 467.814 485.664 465.417 485.664Z" fill="#D88B6D" stroke="black" stroke-width="1.5" stroke-linecap="round" stroke-linejoin="round"/>
<path d="M465.417 493.834H455.717C453.32 493.834 451.377 491.891 451.377 489.494C451.377 487.097 453.32 485.154 455.717 485.154H465.417C467.814 485.154 469.757 487.097 469.757 489.494C469.757 491.891 467.814 493.834 465.417 493.834Z" fill="#D88B6D" stroke="black" stroke-width="1.5" stroke-linecap="round" stroke-linejoin="round"/>
<path d="M459.202 452.615L451.113 447.262C449.114 445.939 448.567 443.246 449.89 441.247C451.212 439.248 453.905 438.701 455.904 440.023L463.993 445.377C465.991 446.7 466.539 449.393 465.216 451.392C463.893 453.391 461.201 453.938 459.202 452.615Z" fill="#D88B6D" stroke="black" stroke-width="1.5" stroke-linecap="round" stroke-linejoin="round"/>
<path d="M465.417 468.814H455.717C453.32 468.814 451.377 466.871 451.377 464.474C451.377 462.078 453.32 460.134 455.717 460.134H465.417C467.814 460.134 469.757 462.078 469.757 464.474C469.757 466.871 467.814 468.814 465.417 468.814Z" fill="#D88B6D" stroke="black" stroke-width="1.5" stroke-linecap="round" stroke-linejoin="round"/>
<path d="M461.077 476.984H455.717C453.32 476.984 451.377 475.041 451.377 472.644C451.377 470.247 453.32 468.304 455.717 468.304H461.077C463.474 468.304 465.417 470.247 465.417 472.644C465.417 475.041 463.474 476.984 461.077 476.984Z" fill="#D88B6D" stroke="black" stroke-width="1.5" stroke-linecap="round" stroke-linejoin="round"/>
<path d="M608.93 312.505C609.15 310.075 609.126 307.629 608.86 305.205C608.7 303.605 608.46 302.095 608.22 300.615C607.54 296.535 606.85 292.705 607.67 287.905C607.67 287.695 607.74 287.485 607.78 287.265C608.113 284.916 608.787 282.629 609.78 280.475C609.776 280.455 609.776 280.434 609.78 280.415C610.218 279.516 610.737 278.659 611.33 277.855C613.657 274.859 616.858 272.661 620.49 271.565H620.61C621.856 271.161 623.129 270.847 624.42 270.625H624.56C626.446 270.304 628.356 270.143 630.27 270.145C631.14 270.145 631.78 270.145 632.13 270.145H637.97C639.22 270.005 654.88 268.545 665.37 280.985C675.09 292.525 672.25 306.365 671.9 307.985L662.57 330.985C661.568 333.454 661.372 336.177 662.01 338.765L669.36 368.575C663.297 373.286 656.008 376.157 648.36 376.845C638.81 377.566 629.311 374.892 621.54 369.295C624.38 360.515 626.42 355.295 629.25 346.655C626.25 347.116 623.185 346.872 620.296 345.942C617.408 345.011 614.776 343.42 612.61 341.295C610.209 338.905 608.526 335.891 607.75 332.595C607.66 332.235 607.59 331.875 607.52 331.505C607.247 329.774 607.213 328.014 607.42 326.275C608.17 319.575 608.54 317.165 608.93 312.505Z" fill="#D88B6D" stroke="black" stroke-width="1.5" stroke-linecap="round" stroke-linejoin="round"/>
<path d="M673.26 298.704C673.207 303.972 673.792 309.226 675 314.354C668 315.764 665 314.354 663.51 312.824C660.71 309.824 661.99 304.404 657.89 301.584C657.148 301.078 656.322 300.709 655.45 300.494L650.62 309.434C649.233 302.454 647.873 295.484 646.54 288.524C646.54 288.344 646.47 288.154 646.43 287.974L634.83 286.454C634.41 285.344 633.98 284.244 633.56 283.134C632.56 284.284 631.51 285.434 630.49 286.594C627.91 286.824 625.18 287.184 622.32 287.714C615.6 288.968 609.045 290.981 602.78 293.714C603.493 291.228 604.586 288.867 606.02 286.714C607.419 284.718 608.675 282.626 609.78 280.454V280.394C610.559 278.577 611.672 276.922 613.06 275.514C615.663 273.047 618.956 271.432 622.5 270.884C623.12 270.754 623.76 270.644 624.42 270.564H624.56C626.454 270.304 628.36 270.144 630.27 270.084C631.42 270.034 632.62 270.004 633.86 269.994C635.45 269.994 637.12 269.994 638.86 269.994C642.438 269.979 646.014 270.169 649.57 270.564C651.45 270.734 663.57 272.004 669.57 281.564C671.063 283.981 672.101 286.652 672.63 289.444C673.202 292.495 673.413 295.603 673.26 298.704Z" fill="black" stroke="black" stroke-width="1.5" stroke-linecap="round" stroke-linejoin="round"/>
<path d="M623.43 318.354H621.77C621.144 318.356 620.529 318.185 619.993 317.861C619.457 317.538 619.021 317.073 618.731 316.518C618.441 315.963 618.309 315.339 618.349 314.714C618.39 314.089 618.601 313.488 618.96 312.974L623.43 306.604" stroke="black" stroke-width="1.5" stroke-linecap="round" stroke-linejoin="round"/>
<path d="M617.839 322.204C618.328 323.255 619.134 324.126 620.144 324.695C621.154 325.263 622.317 325.501 623.469 325.374C624.29 325.223 625.067 324.891 625.744 324.401C626.42 323.912 626.979 323.277 627.379 322.544L617.839 322.204Z" fill="black"/>
<path fill-rule="evenodd" clip-rule="evenodd" d="M634.059 308.905C634.059 310.39 634.69 311.595 635.469 311.595C636.248 311.595 636.879 310.39 636.879 308.905C636.879 307.419 636.248 306.215 635.469 306.215C634.69 306.215 634.059 307.419 634.059 308.905ZM611.53 308.905C611.53 310.39 612.161 311.595 612.94 311.595C613.718 311.595 614.35 310.39 614.35 308.905C614.35 307.419 613.718 306.215 612.94 306.215C612.161 306.215 611.53 307.419 611.53 308.905Z" fill="black"/>
<path d="M655.448 300.495L657.288 300.435C659.369 300.368 661.394 301.116 662.932 302.518C664.471 303.92 665.402 305.867 665.528 307.945C665.629 309.745 665.119 311.526 664.081 313C663.043 314.474 661.537 315.554 659.808 316.065" fill="#D88B6D"/>
<path d="M655.448 300.495L657.288 300.435C659.369 300.368 661.394 301.116 662.932 302.518C664.471 303.92 665.402 305.867 665.528 307.945C665.629 309.745 665.119 311.526 664.081 313C663.043 314.474 661.537 315.554 659.808 316.065" stroke="black" stroke-width="1.5" stroke-linecap="round" stroke-linejoin="round"/>
<path fill-rule="evenodd" clip-rule="evenodd" d="M640.469 304.254C639.689 302.885 638.443 301.842 636.959 301.314L640.469 304.254ZM608.92 304.254C609.696 302.882 610.943 301.838 612.43 301.314L608.92 304.254Z" fill="white"/>
<path fill-rule="evenodd" clip-rule="evenodd" d="M636.308 300.942C636.128 301.257 636.199 301.656 636.477 301.89L639.987 304.83C640.265 305.063 640.671 305.063 640.949 304.83C641.228 304.598 641.3 304.199 641.121 303.883C640.252 302.358 638.864 301.195 637.21 300.608C636.868 300.486 636.488 300.627 636.308 300.942ZM613.081 300.943C612.902 300.628 612.523 300.487 612.181 300.607C610.523 301.191 609.132 302.355 608.267 303.885C608.088 304.201 608.161 304.599 608.44 304.831C608.719 305.063 609.123 305.062 609.401 304.83L612.911 301.89C613.189 301.657 613.261 301.258 613.081 300.943Z" fill="black"/>
<path d="M628.859 346.814L640.729 343.364L628.859 346.814Z" fill="#D88B6D"/>
<path d="M628.859 346.814L640.729 343.364" stroke="black" stroke-width="1.5" stroke-linecap="round" stroke-linejoin="round"/>
<path d="M672.639 289.394L660.829 289.024L646.539 288.454L622.319 287.584L608.169 287.074H607.809C608.137 284.561 608.81 282.104 609.809 279.774C609.803 279.751 609.803 279.727 609.809 279.704C610.574 277.773 611.686 275.997 613.089 274.464C614.189 273.274 616.879 270.814 622.529 269.464C626.289 268.574 658.779 260.894 669.529 278.174C671.537 281.575 672.61 285.446 672.639 289.394Z" fill="#8CA45B" stroke="black" stroke-width="1.5" stroke-linecap="round" stroke-linejoin="round"/>
<path d="M608.019 284.025L580.829 281.835C580.533 281.809 580.236 281.848 579.956 281.949C579.677 282.05 579.423 282.209 579.211 282.417C578.999 282.625 578.835 282.877 578.729 283.154C578.624 283.431 578.579 283.728 578.599 284.025C578.638 284.533 578.865 285.008 579.234 285.359C579.603 285.71 580.09 285.911 580.599 285.925L646.539 288.525C646.443 287.416 645.938 286.383 645.123 285.626C644.308 284.868 643.241 284.44 642.129 284.425L608.019 284.025Z" fill="white" stroke="black" stroke-width="1.5" stroke-linecap="round" stroke-linejoin="round"/>
<path d="M1012.8 134.606L790.901 97.0557L750.051 338.443L971.946 375.994L1012.8 134.606Z" fill="white" stroke="black" stroke-width="1.5" stroke-linecap="round" stroke-linejoin="round"/>
<path d="M934.73 167.244C928.103 157.895 918.852 150.721 908.148 146.629C897.444 142.538 885.766 141.713 874.593 144.258C863.42 146.803 853.252 152.604 845.376 160.928C837.499 169.252 832.268 179.724 830.344 191.021C828.42 202.318 829.889 213.932 834.565 224.394C839.241 234.856 846.915 243.696 856.615 249.797C866.316 255.898 877.608 258.985 889.063 258.668C900.518 258.352 911.622 254.645 920.971 248.017C927.179 243.618 932.459 238.038 936.511 231.598C940.562 225.157 943.305 217.981 944.583 210.481C945.86 202.98 945.648 195.301 943.957 187.882C942.267 180.463 939.131 173.45 934.73 167.244ZM870.412 212.83C868.026 209.456 866.694 205.449 866.585 201.318C866.475 197.186 867.593 193.115 869.798 189.618C872.002 186.122 875.193 183.358 878.968 181.675C882.743 179.992 886.933 179.467 891.006 180.165C895.08 180.863 898.855 182.753 901.855 185.596C904.855 188.439 906.944 192.108 907.859 196.139C908.774 200.169 908.473 204.381 906.994 208.24C905.516 212.1 902.927 215.435 899.553 217.823C897.31 219.408 894.777 220.535 892.099 221.141C889.42 221.746 886.648 221.817 883.942 221.351C881.235 220.885 878.647 219.889 876.326 218.422C874.004 216.955 871.995 215.045 870.412 212.8V212.83Z" fill="#FFE1B8" stroke="black" stroke-width="1.5" stroke-linecap="round" stroke-linejoin="round"/>
<path d="M899.383 217.523C899.213 217.643 899.043 217.733 898.873 217.853L920.301 248.077L920.791 247.737C933.321 238.862 941.815 225.375 944.406 210.241C946.997 195.106 943.474 179.562 934.61 167.024L904.396 188.442C907.579 192.965 908.839 198.567 907.899 204.018C906.959 209.469 903.897 214.325 899.383 217.523Z" fill="#8CA45B" stroke="black" stroke-width="1.5" stroke-linecap="round" stroke-linejoin="round"/>
<path d="M895.643 285.637L799.095 269.298L797.562 278.36L894.109 294.698L895.643 285.637Z" fill="#8CA45B" stroke="black" stroke-width="1.5" stroke-linecap="round" stroke-linejoin="round"/>
<path d="M948.375 294.547L911.243 288.263L909.71 297.324L946.842 303.608L948.375 294.547Z" fill="#8CA45B" stroke="black" stroke-width="1.5" stroke-linecap="round" stroke-linejoin="round"/>
<path d="M933.077 313.405L809.692 292.525L808.158 301.586L931.544 322.466L933.077 313.405Z" fill="white" stroke="black" stroke-width="1.5" stroke-linecap="round" stroke-linejoin="round"/>
<path d="M942.565 333L794.304 307.909L792.77 316.971L941.031 342.061L942.565 333Z" fill="white" stroke="black" stroke-width="1.5" stroke-linecap="round" stroke-linejoin="round"/>
<path d="M958.902 488.577L842.048 470.128L821.753 598.67L938.608 617.119L958.902 488.577Z" fill="white" stroke="black" stroke-width="1.5" stroke-linecap="round" stroke-linejoin="round"/>
<path d="M944.741 496.701L852.517 482.587L840.41 561.696L932.634 575.81L944.741 496.701Z" fill="black"/>
<path d="M992.326 542.979L875.471 524.529L855.176 653.071L972.031 671.521L992.326 542.979Z" fill="white" stroke="black" stroke-width="1.5" stroke-linecap="round" stroke-linejoin="round"/>
<path d="M978.478 551.075L886.349 536.975L874.242 616.084L966.371 630.184L978.478 551.075Z" fill="#82AAD3" stroke="black" stroke-width="1.5" stroke-linecap="round" stroke-linejoin="round"/>
<path d="M294.447 209.025L151.71 236.8L194.652 457.482L337.388 429.707L294.447 209.025Z" fill="#82AAD3" stroke="black" stroke-width="1.5" stroke-linecap="round" stroke-linejoin="round"/>
<path d="M276.601 228.488L175.55 248.151L187.189 307.967L288.241 288.303L276.601 228.488Z" fill="white" stroke="black" stroke-width="1.5" stroke-linecap="round" stroke-linejoin="round"/>
<path d="M296.991 381.603L214.062 397.74L215.561 405.441L298.49 389.305L296.991 381.603Z" fill="white" stroke="black" stroke-width="1.5" stroke-linecap="round" stroke-linejoin="round"/>
<path d="M292.981 396.492L223.35 410.041L224.849 417.743L294.48 404.194L292.981 396.492Z" fill="white" stroke="black" stroke-width="1.5" stroke-linecap="round" stroke-linejoin="round"/>
<path d="M195.253 429.146L181.657 431.792L182.626 436.774L196.222 434.129L195.253 429.146Z" fill="white" stroke="black" stroke-width="1.5" stroke-linecap="round" stroke-linejoin="round"/>
<path d="M192.194 413.432L178.598 416.077L179.568 421.06L193.164 418.414L192.194 413.432Z" fill="white" stroke="black" stroke-width="1.5" stroke-linecap="round" stroke-linejoin="round"/>
<path d="M189.138 397.733L175.542 400.379L176.512 405.361L190.108 402.716L189.138 397.733Z" fill="white" stroke="black" stroke-width="1.5" stroke-linecap="round" stroke-linejoin="round"/>
<path d="M186.072 382.02L172.476 384.666L173.445 389.649L187.042 387.003L186.072 382.02Z" fill="white" stroke="black" stroke-width="1.5" stroke-linecap="round" stroke-linejoin="round"/>
<path d="M183.023 366.306L169.426 368.951L170.396 373.934L183.992 371.288L183.023 366.306Z" fill="white" stroke="black" stroke-width="1.5" stroke-linecap="round" stroke-linejoin="round"/>
<path d="M179.965 350.6L166.369 353.245L167.338 358.228L180.934 355.582L179.965 350.6Z" fill="white" stroke="black" stroke-width="1.5" stroke-linecap="round" stroke-linejoin="round"/>
<path d="M176.908 334.893L163.312 337.539L164.281 342.521L177.877 339.876L176.908 334.893Z" fill="white" stroke="black" stroke-width="1.5" stroke-linecap="round" stroke-linejoin="round"/>
<path d="M173.85 319.188L160.254 321.832L161.223 326.815L174.819 324.169L173.85 319.188Z" fill="white" stroke="black" stroke-width="1.5" stroke-linecap="round" stroke-linejoin="round"/>
<path d="M170.792 303.473L157.196 306.118L158.166 311.101L171.762 308.455L170.792 303.473Z" fill="white" stroke="black" stroke-width="1.5" stroke-linecap="round" stroke-linejoin="round"/>
<path d="M167.734 287.766L154.138 290.412L155.108 295.395L168.704 292.749L167.734 287.766Z" fill="white" stroke="black" stroke-width="1.5" stroke-linecap="round" stroke-linejoin="round"/>
<path d="M164.678 272.06L151.082 274.705L152.051 279.688L165.647 277.042L164.678 272.06Z" fill="white" stroke="black" stroke-width="1.5" stroke-linecap="round" stroke-linejoin="round"/>
<path d="M161.627 256.345L148.031 258.991L149.001 263.973L162.597 261.328L161.627 256.345Z" fill="white" stroke="black" stroke-width="1.5" stroke-linecap="round" stroke-linejoin="round"/>
<path d="M325.782 466.95L232.903 488.34L238.359 512.03L331.238 490.64L325.782 466.95Z" fill="#8CA45B" stroke="black" stroke-width="1.5" stroke-linecap="round" stroke-linejoin="round"/>
<path d="M336.741 464.423L324.901 467.15L330.356 490.84L342.196 488.113L336.741 464.423Z" fill="white" stroke="black" stroke-width="1.5" stroke-linecap="round" stroke-linejoin="round"/>
<path d="M238.18 512.087L198.337 508.983C198.199 508.971 198.068 508.915 197.964 508.823C197.86 508.732 197.788 508.609 197.759 508.473C197.729 508.338 197.744 508.196 197.801 508.07C197.858 507.943 197.953 507.838 198.074 507.77L232.699 488.396L238.18 512.087Z" fill="white" stroke="black" stroke-width="1.5" stroke-linecap="round" stroke-linejoin="round"/>
<path d="M335.734 464.661L340.607 463.539C343.747 462.816 347.046 463.37 349.777 465.079C352.509 466.788 354.45 469.512 355.173 472.653C355.897 475.793 355.343 479.092 353.634 481.823C351.925 484.555 349.2 486.496 346.06 487.219L341.188 488.342L335.734 464.661Z" fill="#FFE1B8" stroke="black" stroke-width="1.5" stroke-linecap="round" stroke-linejoin="round"/>
<path d="M198.329 509.004L208.163 509.868L206.573 502.969L198.067 507.801C197.955 507.874 197.869 507.979 197.818 508.103C197.768 508.226 197.756 508.362 197.785 508.493C197.813 508.623 197.88 508.741 197.978 508.833C198.075 508.924 198.197 508.984 198.329 509.004Z" fill="black"/>
</svg>
