<svg width="1220" height="920" viewBox="0 0 1220 920" fill="none" xmlns="http://www.w3.org/2000/svg">
<path d="M1116.53 674.49H787V752.11H1116.53V674.49Z" stroke="#CCCCCC" stroke-width="1.5" stroke-linecap="round" stroke-linejoin="round"/>
<path d="M982.91 708.189H920.62C917.329 708.189 914.66 710.856 914.66 714.144C914.66 717.433 917.329 720.099 920.62 720.099H982.91C986.202 720.099 988.87 717.433 988.87 714.144C988.87 710.856 986.202 708.189 982.91 708.189Z" stroke="#CCCCCC" stroke-width="1.5" stroke-linecap="round" stroke-linejoin="round"/>
<path d="M1116.53 596.55H787V674.17H1116.53V596.55Z" stroke="#CCCCCC" stroke-width="1.5" stroke-linecap="round" stroke-linejoin="round"/>
<path d="M982.91 630.26H920.62C917.329 630.26 914.66 632.926 914.66 636.215C914.66 639.504 917.329 642.17 920.62 642.17H982.91C986.202 642.17 988.87 639.504 988.87 636.215C988.87 632.926 986.202 630.26 982.91 630.26Z" stroke="#CCCCCC" stroke-width="1.5" stroke-linecap="round" stroke-linejoin="round"/>
<path d="M1116.53 518.619H787V596.239H1116.53V518.619Z" stroke="#CCCCCC" stroke-width="1.5" stroke-linecap="round" stroke-linejoin="round"/>
<path d="M982.91 552.319H920.62C917.329 552.319 914.66 554.985 914.66 558.274C914.66 561.563 917.329 564.229 920.62 564.229H982.91C986.202 564.229 988.87 561.563 988.87 558.274C988.87 554.985 986.202 552.319 982.91 552.319Z" stroke="#CCCCCC" stroke-width="1.5" stroke-linecap="round" stroke-linejoin="round"/>
<path d="M803.149 753.129L810.979 802.829H826.639L835.489 752.109" stroke="#CCCCCC" stroke-width="1.5" stroke-linecap="round" stroke-linejoin="round"/>
<path d="M804.85 761.979H833.11" stroke="#CCCCCC" stroke-width="1.5" stroke-linecap="round" stroke-linejoin="round"/>
<path d="M1067.66 753.129L1075.49 802.829H1091.15L1100 752.109" stroke="#CCCCCC" stroke-width="1.5" stroke-linecap="round" stroke-linejoin="round"/>
<path d="M1069.36 761.979H1097.62" stroke="#CCCCCC" stroke-width="1.5" stroke-linecap="round" stroke-linejoin="round"/>
<path d="M1118.21 312H1050.3V473.87H1118.21V312Z" stroke="#CCCCCC" stroke-width="1.5" stroke-linecap="round" stroke-linejoin="round"/>
<path d="M1116.53 473.85H925.189V518.62H1116.53V473.85Z" stroke="#CCCCCC" stroke-width="1.5" stroke-linecap="round" stroke-linejoin="round"/>
<path d="M1084 446.3C1091.05 446.3 1096.77 440.582 1096.77 433.53C1096.77 426.477 1091.05 420.76 1084 420.76C1076.95 420.76 1071.23 426.477 1071.23 433.53C1071.23 440.582 1076.95 446.3 1084 446.3Z" stroke="#CCCCCC" stroke-width="1.5" stroke-linecap="round" stroke-linejoin="round"/>
<path d="M926.21 466.699H1042.64" stroke="#CCCCCC" stroke-width="1.5" stroke-linecap="round" stroke-linejoin="round"/>
<path d="M926.21 459.039H1042.64" stroke="#CCCCCC" stroke-width="1.5" stroke-linecap="round" stroke-linejoin="round"/>
<path d="M926.21 451.379H1042.64" stroke="#CCCCCC" stroke-width="1.5" stroke-linecap="round" stroke-linejoin="round"/>
<path d="M926.21 443.72H1042.64" stroke="#CCCCCC" stroke-width="1.5" stroke-linecap="round" stroke-linejoin="round"/>
<path d="M926.21 436.069H1042.64" stroke="#CCCCCC" stroke-width="1.5" stroke-linecap="round" stroke-linejoin="round"/>
<path d="M926.21 428.41H1042.64" stroke="#CCCCCC" stroke-width="1.5" stroke-linecap="round" stroke-linejoin="round"/>
<path d="M926.21 420.75H1042.64" stroke="#CCCCCC" stroke-width="1.5" stroke-linecap="round" stroke-linejoin="round"/>
<path d="M445.34 802.25H189V178H445.34V802.25Z" stroke="#CCCCCC" stroke-width="1.5" stroke-linecap="round" stroke-linejoin="round"/>
<path d="M339.631 468.301C339.631 464.07 336.201 460.641 331.971 460.641C327.74 460.641 324.311 464.07 324.311 468.301V514.261C324.311 518.491 327.74 521.921 331.971 521.921C336.201 521.921 339.631 518.491 339.631 514.261V468.301Z" stroke="#CCCCCC" stroke-width="1.5" stroke-linecap="round" stroke-linejoin="round"/>
<path d="M235 802H223V178H235V802Z" stroke="#CCCCCC" stroke-width="1.5" stroke-linecap="round" stroke-linejoin="round"/>
<path d="M216.96 799.89C216.342 799.889 215.737 799.709 215.22 799.37L118.03 736.37C117.555 736.043 117.164 735.609 116.886 735.104C116.609 734.599 116.453 734.036 116.432 733.46C116.41 732.884 116.524 732.311 116.763 731.787C117.003 731.262 117.361 730.801 117.81 730.44L211.96 657.75L117.87 588.31C117.426 587.965 117.066 587.523 116.819 587.018C116.571 586.513 116.443 585.957 116.443 585.395C116.443 584.832 116.571 584.277 116.819 583.772C117.066 583.267 117.426 582.825 117.87 582.48L209.8 512.98L117.8 436.98C117.386 436.627 117.054 436.187 116.829 435.691C116.604 435.195 116.492 434.655 116.499 434.111C116.507 433.567 116.635 433.031 116.873 432.541C117.112 432.052 117.456 431.621 117.88 431.28L210.5 359.42L117.92 290.01C117.466 289.656 117.101 289.202 116.854 288.682C116.607 288.163 116.485 287.592 116.498 287.017C116.51 286.442 116.657 285.878 116.927 285.369C117.196 284.861 117.581 284.423 118.05 284.09L214.45 218.54C214.819 218.288 215.237 218.116 215.676 218.034C216.115 217.952 216.567 217.962 217.002 218.064C217.437 218.165 217.847 218.356 218.204 218.624C218.562 218.892 218.86 219.231 219.08 219.62C219.561 220.418 219.725 221.367 219.54 222.28C219.355 223.192 218.834 224.003 218.08 224.55L125.89 287.24L218.2 356.45C218.636 356.797 218.987 357.239 219.229 357.741C219.471 358.243 219.596 358.793 219.596 359.35C219.596 359.907 219.471 360.457 219.229 360.959C218.987 361.461 218.636 361.902 218.2 362.25L125.4 434.25L217.44 510.31C217.854 510.668 218.185 511.112 218.407 511.613C218.63 512.113 218.739 512.656 218.728 513.203C218.716 513.75 218.584 514.288 218.341 514.779C218.098 515.269 217.749 515.7 217.32 516.04L125.61 585.31L219.67 654.73C220.113 655.072 220.472 655.509 220.721 656.01C220.971 656.511 221.103 657.061 221.109 657.62C221.115 658.179 220.993 658.733 220.755 659.238C220.516 659.744 220.166 660.189 219.73 660.54L125.83 733.03L218.67 793.31C219.44 793.836 219.982 794.633 220.188 795.542C220.394 796.451 220.248 797.404 219.78 798.21C219.497 798.711 219.088 799.129 218.593 799.424C218.099 799.719 217.536 799.879 216.96 799.89Z" fill="#FFCD88" stroke="black" stroke-width="1.5" stroke-linecap="round" stroke-linejoin="round"/>
<path d="M121.96 215.61H115.24V802.2H121.96V215.61Z" fill="#FFCD88" stroke="black" stroke-width="1.5" stroke-linecap="round" stroke-linejoin="round"/>
<path d="M221.97 215.61H215.25V802.2H221.97V215.61Z" fill="#FFCD88" stroke="black" stroke-width="1.5" stroke-linecap="round" stroke-linejoin="round"/>
<path d="M458.92 799.89C458.296 799.888 457.685 799.708 457.16 799.37L358.67 736.31C358.187 735.989 357.788 735.558 357.504 735.053C357.221 734.548 357.061 733.983 357.039 733.404C357.016 732.825 357.132 732.249 357.375 731.723C357.619 731.197 357.984 730.737 358.44 730.38L453.9 657.69L358.46 588.31C358.01 587.968 357.646 587.528 357.395 587.022C357.144 586.516 357.013 585.959 357.013 585.395C357.013 584.83 357.144 584.273 357.395 583.768C357.646 583.262 358.01 582.821 358.46 582.48L451.66 512.98L358.34 436.98C357.922 436.629 357.588 436.189 357.361 435.693C357.134 435.197 357.02 434.656 357.028 434.111C357.035 433.565 357.164 433.028 357.405 432.539C357.646 432.049 357.993 431.619 358.42 431.28L452.32 359.42L358.47 290.01C358.01 289.66 357.64 289.207 357.389 288.687C357.138 288.166 357.014 287.594 357.027 287.017C357.04 286.439 357.189 285.873 357.462 285.365C357.736 284.856 358.125 284.419 358.6 284.09L456.33 218.54C456.705 218.289 457.127 218.117 457.57 218.035C458.014 217.953 458.469 217.963 458.909 218.065C459.348 218.166 459.762 218.356 460.125 218.624C460.489 218.891 460.793 219.23 461.02 219.62C461.51 220.415 461.68 221.367 461.494 222.282C461.308 223.198 460.781 224.009 460.02 224.55L366.55 287.24L460.14 356.45C460.589 356.786 460.954 357.222 461.206 357.724C461.457 358.226 461.589 358.779 461.59 359.34C461.594 359.9 461.47 360.453 461.227 360.957C460.985 361.462 460.63 361.904 460.19 362.25L366.11 434.25L459.41 510.31C459.831 510.664 460.167 511.107 460.394 511.608C460.621 512.109 460.732 512.654 460.721 513.204C460.709 513.753 460.575 514.293 460.327 514.784C460.08 515.275 459.725 515.704 459.29 516.04L366.29 585.37L461.67 654.73C462.119 655.068 462.484 655.504 462.737 656.006C462.99 656.508 463.124 657.061 463.129 657.623C463.134 658.184 463.009 658.74 462.765 659.246C462.52 659.751 462.163 660.194 461.72 660.54L366.52 733.03L460.67 793.31C461.449 793.828 462 794.624 462.21 795.535C462.42 796.446 462.273 797.403 461.8 798.21C461.507 798.716 461.087 799.136 460.582 799.431C460.077 799.726 459.504 799.884 458.92 799.89Z" fill="#FFCD88" stroke="black" stroke-width="1.5" stroke-linecap="round" stroke-linejoin="round"/>
<path d="M362.85 215.61H356.13V802.2H362.85V215.61Z" fill="#FFCD88" stroke="black" stroke-width="1.5" stroke-linecap="round" stroke-linejoin="round"/>
<path d="M462.86 215.61H456.14V802.2H462.86V215.61Z" fill="#FFCD88" stroke="black" stroke-width="1.5" stroke-linecap="round" stroke-linejoin="round"/>
<path d="M475.47 651.77H102V666.06H475.47V651.77Z" fill="#FFE1B8" stroke="black" stroke-width="1.5" stroke-linecap="round" stroke-linejoin="round"/>
<path d="M475.47 651.77H372.1V666.06H475.47V651.77Z" fill="#FFCD88" stroke="black" stroke-width="1.5" stroke-linecap="round" stroke-linejoin="round"/>
<path d="M475.47 502.18H102V516.47H475.47V502.18Z" fill="#FFE1B8" stroke="black" stroke-width="1.5" stroke-linecap="round" stroke-linejoin="round"/>
<path d="M475.47 502.18H372.1V516.47H475.47V502.18Z" fill="#FFCD88" stroke="black" stroke-width="1.5" stroke-linecap="round" stroke-linejoin="round"/>
<path d="M475.47 352.59H102V366.88H475.47V352.59Z" fill="#FFE1B8" stroke="black" stroke-width="1.5" stroke-linecap="round" stroke-linejoin="round"/>
<path d="M475.47 352.59H372.1V366.88H475.47V352.59Z" fill="#FFCD88" stroke="black" stroke-width="1.5" stroke-linecap="round" stroke-linejoin="round"/>
<path d="M475.47 203H102V217.29H475.47V203Z" fill="#FFE1B8" stroke="black" stroke-width="1.5" stroke-linecap="round" stroke-linejoin="round"/>
<path d="M296.94 403.86H236.43V502.19H296.94V403.86Z" fill="#AD85AD" stroke="black" stroke-width="1.5" stroke-linecap="round" stroke-linejoin="round"/>
<path d="M475.47 203H372.1V217.29H475.47V203Z" fill="#FFCD88" stroke="black" stroke-width="1.5" stroke-linecap="round" stroke-linejoin="round"/>
<path d="M300.7 577.82H253.22V652.19H300.7V577.82Z" fill="#AD85AD" stroke="black" stroke-width="1.5" stroke-linecap="round" stroke-linejoin="round"/>
<path d="M314.41 577.82H266.93V652.19H314.41V577.82Z" fill="#82AAD3" stroke="black" stroke-width="1.5" stroke-linecap="round" stroke-linejoin="round"/>
<path d="M281.64 577.82H266.93V652.19H281.64V577.82Z" fill="#82AAD3" stroke="black" stroke-width="1.5" stroke-linecap="round" stroke-linejoin="round"/>
<path d="M338.48 591.27H291V652.2H338.48V591.27Z" fill="#8CA45B" stroke="black" stroke-width="1.5" stroke-linecap="round" stroke-linejoin="round"/>
<path d="M305.71 591.27H291V652.2H305.71V591.27Z" fill="#8CA45B" stroke="black" stroke-width="1.5" stroke-linecap="round" stroke-linejoin="round"/>
<path d="M220.88 403.44H160.37V502.19H220.88V403.44Z" fill="white" stroke="black" stroke-width="1.5" stroke-linecap="round" stroke-linejoin="round"/>
<path d="M179.11 403.44H160.37V502.19H179.11V403.44Z" fill="white" stroke="black" stroke-width="1.5" stroke-linecap="round" stroke-linejoin="round"/>
<path d="M255.17 403.86H236.43V502.19H255.17V403.86Z" fill="#AD85AD" stroke="black" stroke-width="1.5" stroke-linecap="round" stroke-linejoin="round"/>
<path d="M258.65 421.09H198.14V502.19H258.65V421.09Z" fill="#82AAD3" stroke="black" stroke-width="1.5" stroke-linecap="round" stroke-linejoin="round"/>
<path d="M216.88 421.09H198.14V502.19H216.88V421.09Z" fill="#82AAD3" stroke="black" stroke-width="1.5" stroke-linecap="round" stroke-linejoin="round"/>
<path d="M308.23 400.08H247.72V502.19H308.23V400.08Z" fill="#8CA45B" stroke="black" stroke-width="1.5" stroke-linecap="round" stroke-linejoin="round"/>
<path d="M266.46 400.08H247.72V502.19H266.46V400.08Z" fill="#8CA45B" stroke="black" stroke-width="1.5" stroke-linecap="round" stroke-linejoin="round"/>
<path d="M335.96 419.83H275.45V502.19H335.96V419.83Z" fill="#AD85AD" stroke="black" stroke-width="1.5" stroke-linecap="round" stroke-linejoin="round"/>
<path d="M294.19 419.83H275.45V502.19H294.19V419.83Z" fill="#AD85AD" stroke="black" stroke-width="1.5" stroke-linecap="round" stroke-linejoin="round"/>
<path d="M317.15 263.8H264.53V352.6H317.15V263.8Z" fill="white" stroke="black" stroke-width="1.5" stroke-linecap="round" stroke-linejoin="round"/>
<path d="M280.83 263.8H264.53V352.6H280.83V263.8Z" fill="white" stroke="black" stroke-width="1.5" stroke-linecap="round" stroke-linejoin="round"/>
<path d="M341.27 280.98H288.65V352.61H341.27V280.98Z" fill="#AD85AD" stroke="black" stroke-width="1.5" stroke-linecap="round" stroke-linejoin="round"/>
<path d="M304.95 280.98H288.65V352.61H304.95V280.98Z" fill="#AD85AD" stroke="black" stroke-width="1.5" stroke-linecap="round" stroke-linejoin="round"/>
<path d="M240.86 263.8H188.24V352.6H240.86V263.8Z" fill="#8CA45B" stroke="black" stroke-width="1.5" stroke-linecap="round" stroke-linejoin="round"/>
<path d="M204.54 263.8H188.24V352.6H204.54V263.8Z" fill="#8CA45B" stroke="black" stroke-width="1.5" stroke-linecap="round" stroke-linejoin="round"/>
<path d="M264.98 280.98H212.36V352.61H264.98V280.98Z" fill="#AD85AD" stroke="black" stroke-width="1.5" stroke-linecap="round" stroke-linejoin="round"/>
<path d="M228.66 280.98H212.36V352.61H228.66V280.98Z" fill="#AD85AD" stroke="black" stroke-width="1.5" stroke-linecap="round" stroke-linejoin="round"/>
<path d="M802.79 763.25L800.74 803.08H809.94L821.17 763.25" fill="#FFCD88"/>
<path d="M802.79 763.25L800.74 803.08H809.94L821.17 763.25" stroke="black" stroke-width="1.5" stroke-linecap="round" stroke-linejoin="round"/>
<path d="M1100.36 545H948.32V763.26H1100.36V545Z" fill="#FFE1B8" stroke="black" stroke-width="1.5" stroke-linecap="round" stroke-linejoin="round"/>
<path d="M962.62 545H789V763.26H962.62V545Z" fill="#FFE1B8" stroke="black" stroke-width="1.5" stroke-linecap="round" stroke-linejoin="round"/>
<path d="M951.89 554.45H799.72V752.3H951.89V554.45Z" fill="#FFE1B8" stroke="black" stroke-width="1.5" stroke-linecap="round" stroke-linejoin="round"/>
<path d="M800.23 686.89H951.891" stroke="black" stroke-width="1.5" stroke-linecap="round" stroke-linejoin="round"/>
<path d="M800.23 620.51H951.891" stroke="black" stroke-width="1.5" stroke-linecap="round" stroke-linejoin="round"/>
<path fill-rule="evenodd" clip-rule="evenodd" d="M855.38 554.62H899.81V560.98H855.38V554.62ZM899.81 620.51H855.38V626.87H899.81V620.51ZM899.81 686.89H855.38V693.25H899.81V686.89Z" fill="#FFCD88"/>
<path d="M899.81 554.62H900.56C900.56 554.206 900.225 553.87 899.81 553.87V554.62ZM855.38 554.62V553.87C854.966 553.87 854.63 554.206 854.63 554.62H855.38ZM899.81 560.98V561.73C900.225 561.73 900.56 561.394 900.56 560.98H899.81ZM855.38 560.98H854.63C854.63 561.394 854.966 561.73 855.38 561.73V560.98ZM855.38 620.51V619.76C854.966 619.76 854.63 620.096 854.63 620.51H855.38ZM899.81 620.51H900.56C900.56 620.096 900.225 619.76 899.81 619.76V620.51ZM855.38 626.87H854.63C854.63 627.284 854.966 627.62 855.38 627.62V626.87ZM899.81 626.87V627.62C900.225 627.62 900.56 627.284 900.56 626.87H899.81ZM855.38 686.89V686.14C854.966 686.14 854.63 686.476 854.63 686.89H855.38ZM899.81 686.89H900.56C900.56 686.476 900.225 686.14 899.81 686.14V686.89ZM855.38 693.25H854.63C854.63 693.664 854.966 694 855.38 694V693.25ZM899.81 693.25V694C900.225 694 900.56 693.664 900.56 693.25H899.81ZM899.81 553.87H855.38V555.37H899.81V553.87ZM900.56 560.98V554.62H899.06V560.98H900.56ZM855.38 561.73H899.81V560.23H855.38V561.73ZM854.63 554.62V560.98H856.13V554.62H854.63ZM855.38 621.26H899.81V619.76H855.38V621.26ZM856.13 626.87V620.51H854.63V626.87H856.13ZM899.81 626.12H855.38V627.62H899.81V626.12ZM899.06 620.51V626.87H900.56V620.51H899.06ZM855.38 687.64H899.81V686.14H855.38V687.64ZM856.13 693.25V686.89H854.63V693.25H856.13ZM899.81 692.5H855.38V694H899.81V692.5ZM899.06 686.89V693.25H900.56V686.89H899.06Z" fill="black"/>
<path d="M802.79 763.25C802.72 764.72 802.66 766.19 802.59 767.66L819.7 767.85L821.17 763.25H802.79Z" fill="black" stroke="black" stroke-width="1.5" stroke-linecap="round" stroke-linejoin="round"/>
<path d="M840.32 763.25L838.28 803.08H847.47L858.7 763.25" fill="#FFCD88"/>
<path d="M840.32 763.25L838.28 803.08H847.47L858.7 763.25" stroke="black" stroke-width="1.5" stroke-linecap="round" stroke-linejoin="round"/>
<path d="M840.32 763.25C840.25 764.72 840.19 766.19 840.13 767.66L857.23 767.85L858.7 763.25H840.32Z" fill="black" stroke="black" stroke-width="1.5" stroke-linecap="round" stroke-linejoin="round"/>
<path d="M1088.1 763.25L1090.14 803.08H1080.95L1069.72 763.25" fill="#FFCD88"/>
<path d="M1088.1 763.25L1090.14 803.08H1080.95L1069.72 763.25" stroke="black" stroke-width="1.5" stroke-linecap="round" stroke-linejoin="round"/>
<path d="M1088.1 763.25C1088.17 764.72 1088.23 766.19 1088.29 767.66L1071.19 767.85L1069.72 763.25H1088.1Z" fill="black" stroke="black" stroke-width="1.5" stroke-linecap="round" stroke-linejoin="round"/>
<path d="M1050.57 763.25L1052.61 803.08H1043.42L1032.19 763.25" fill="#FFCD88"/>
<path d="M1050.57 763.25L1052.61 803.08H1043.42L1032.19 763.25" stroke="black" stroke-width="1.5" stroke-linecap="round" stroke-linejoin="round"/>
<path d="M1050.57 763.25C1050.63 764.72 1050.7 766.19 1050.76 767.66L1033.65 767.85C1033.17 766.323 1032.68 764.79 1032.19 763.25H1050.57Z" fill="black" stroke="black" stroke-width="1.5" stroke-linecap="round" stroke-linejoin="round"/>
<path d="M1057.06 545.47V762.53" stroke="black" stroke-width="1.5" stroke-linecap="round" stroke-linejoin="round"/>
<path d="M967.91 446L977.72 484.03H1015.75L1023.78 446H967.91Z" fill="#8CA45B" stroke="black" stroke-width="1.5" stroke-linecap="round" stroke-linejoin="round"/>
<path d="M1021.99 454.32H1039.99C1041.06 454.32 1042.13 454.532 1043.12 454.942C1044.11 455.353 1045.01 455.955 1045.77 456.713C1046.53 457.472 1047.13 458.373 1047.54 459.364C1047.95 460.355 1048.16 461.417 1048.16 462.49V467.84C1048.16 468.913 1047.95 469.976 1047.54 470.967C1047.13 471.958 1046.53 472.859 1045.77 473.617C1045.01 474.376 1044.11 474.978 1043.12 475.388C1042.13 475.799 1041.06 476.01 1039.99 476.01H975.94" stroke="black" stroke-width="1.5" stroke-linecap="round" stroke-linejoin="round"/>
<path d="M963.64 491.35H1045.88C1047.93 491.35 1049.9 492.166 1051.35 493.617C1052.8 495.069 1053.62 497.037 1053.62 499.09C1053.62 501.143 1052.8 503.112 1051.35 504.563C1049.9 506.015 1047.93 506.83 1045.88 506.83H963.64V491.35Z" fill="white" stroke="black" stroke-width="1.5" stroke-linecap="round" stroke-linejoin="round"/>
<path d="M963.8 495.89H981.98" stroke="black" stroke-width="1.5" stroke-linecap="round" stroke-linejoin="round"/>
<path d="M998.93 499.75H1024.81" stroke="black" stroke-width="1.5" stroke-linecap="round" stroke-linejoin="round"/>
<path d="M1045.76 484.11H956.4V491.35H1046.03C1048.04 491.35 1049.97 492.15 1051.4 493.573C1052.82 494.997 1053.62 496.927 1053.62 498.94V499.24C1053.62 501.253 1052.82 503.184 1051.4 504.607C1049.97 506.031 1048.04 506.83 1046.03 506.83H956.4V514.77H1045.76C1049.7 514.77 1053.49 513.204 1056.27 510.415C1059.06 507.626 1060.63 503.844 1060.63 499.9V498.98C1060.63 497.027 1060.25 495.093 1059.5 493.288C1058.75 491.484 1057.66 489.844 1056.28 488.463C1054.9 487.082 1053.26 485.986 1051.45 485.24C1049.65 484.493 1047.71 484.109 1045.76 484.11Z" fill="#82AAD3" stroke="black" stroke-width="1.5" stroke-linecap="round" stroke-linejoin="round"/>
<path d="M1061.02 538.29H950.76C948.707 538.29 946.738 537.475 945.286 536.023C943.835 534.572 943.02 532.603 943.02 530.55C943.02 528.497 943.835 526.529 945.286 525.077C946.738 523.625 948.707 522.81 950.76 522.81H1061.02V538.29Z" fill="white" stroke="black" stroke-width="1.5" stroke-linecap="round" stroke-linejoin="round"/>
<path d="M950.87 545.49H1068.1V538.25H950.6C949.604 538.25 948.617 538.054 947.697 537.672C946.777 537.291 945.941 536.731 945.237 536.026C944.533 535.322 943.974 534.485 943.594 533.564C943.214 532.643 943.019 531.656 943.02 530.66V530.35C943.019 529.354 943.214 528.367 943.594 527.446C943.974 526.525 944.533 525.689 945.237 524.984C945.941 524.279 946.777 523.72 947.697 523.338C948.617 522.956 949.604 522.76 950.6 522.76H1068.1V514.83H950.87C948.915 514.829 946.979 515.213 945.173 515.961C943.367 516.709 941.727 517.806 940.345 519.19C938.964 520.573 937.869 522.215 937.124 524.022C936.378 525.829 935.996 527.765 936 529.72V530.65C936.008 534.589 937.578 538.363 940.366 541.145C943.154 543.928 946.931 545.49 950.87 545.49Z" fill="#AD85AD" stroke="black" stroke-width="1.5" stroke-linecap="round" stroke-linejoin="round"/>
<path d="M1045.3 527.61H1061.17" stroke="black" stroke-width="1.5" stroke-linecap="round" stroke-linejoin="round"/>
<path d="M957.02 531.64H969.96" stroke="black" stroke-width="1.5" stroke-linecap="round" stroke-linejoin="round"/>
<path d="M1082.6 804H331.87" stroke="black" stroke-width="1.5" stroke-linecap="round" stroke-linejoin="round"/>
<path d="M751.7 814.21H214" stroke="black" stroke-width="1.5" stroke-linecap="round" stroke-linejoin="round"/>
<path d="M795.62 814.21H764.47" stroke="black" stroke-width="1.5" stroke-linecap="round" stroke-linejoin="round"/>
<path d="M862.36 243.72C898.457 243.72 927.72 214.457 927.72 178.36C927.72 142.263 898.457 113 862.36 113C826.263 113 797 142.263 797 178.36C797 214.457 826.263 243.72 862.36 243.72Z" stroke="#CCCCCC" stroke-width="1.5" stroke-linecap="round" stroke-linejoin="round"/>
<path d="M862.36 237.59C895.072 237.59 921.59 211.072 921.59 178.36C921.59 145.648 895.072 119.13 862.36 119.13C829.648 119.13 803.13 145.648 803.13 178.36C803.13 211.072 829.648 237.59 862.36 237.59Z" stroke="#CCCCCC" stroke-width="1.5" stroke-linecap="round" stroke-linejoin="round"/>
<path d="M862.36 185.76C866.447 185.76 869.76 182.447 869.76 178.36C869.76 174.273 866.447 170.96 862.36 170.96C858.273 170.96 854.96 174.273 854.96 178.36C854.96 182.447 858.273 185.76 862.36 185.76Z" stroke="#CCCCCC" stroke-width="1.5" stroke-linecap="round" stroke-linejoin="round"/>
<path d="M828.4 148.75L856.49 172.49" stroke="#CCCCCC" stroke-width="1.5" stroke-linecap="round" stroke-linejoin="round"/>
<path d="M888.15 160.49L869 173.51" stroke="#CCCCCC" stroke-width="1.5" stroke-linecap="round" stroke-linejoin="round"/>
<path d="M787.68 521H371V802.87H787.68V521Z" stroke="#CCCCCC" stroke-width="1.5" stroke-linecap="round" stroke-linejoin="round"/>
<path d="M769.56 541.93H389.11V781.93H769.56V541.93Z" stroke="#CCCCCC" stroke-width="1.5" stroke-linecap="round" stroke-linejoin="round"/>
<path d="M751.38 541.93C751.32 542.86 750.94 550.72 757.19 556.17C760.632 559.088 765.064 560.574 769.57 560.32" stroke="#CCCCCC" stroke-width="1.5" stroke-linecap="round" stroke-linejoin="round"/>
<path d="M751.38 782.2C751.32 781.27 750.94 773.41 757.19 767.96C760.632 765.042 765.064 763.556 769.57 763.81" stroke="#CCCCCC" stroke-width="1.5" stroke-linecap="round" stroke-linejoin="round"/>
<path d="M407 782.2C407.06 781.27 407.44 773.41 401.19 767.96C397.747 765.042 393.316 763.556 388.81 763.81" stroke="#CCCCCC" stroke-width="1.5" stroke-linecap="round" stroke-linejoin="round"/>
<path d="M407 542.34C407.06 543.27 407.44 551.12 401.19 556.57C397.75 559.493 393.316 560.979 388.81 560.72" stroke="#CCCCCC" stroke-width="1.5" stroke-linecap="round" stroke-linejoin="round"/>
<path d="M694.63 353.45L689.83 360.63L713.58 378.73L726.64 369.16L731.45 358.28L694.63 353.45Z" fill="#D88B6D"/>
<path d="M728.089 366.85C726.349 373.47 724.616 380.087 722.889 386.7L692.549 380.08C692.806 379.269 692.861 378.407 692.709 377.57C692.326 375.878 691.328 374.388 689.909 373.39C687.488 371.681 685.4 369.542 683.749 367.08L683.689 367C682.581 365.349 681.82 363.489 681.454 361.534C681.087 359.58 681.123 357.571 681.559 355.63L684.269 343.69C684.839 341.18 687.629 339.69 690.499 340.33C693.359 340.98 695.229 343.54 694.659 346.05L693.659 350.53C693.25 352.436 693.315 354.414 693.851 356.289C694.386 358.164 695.375 359.878 696.729 361.28L697.069 361.63" fill="#D88B6D"/>
<path d="M728.089 366.85C726.349 373.47 724.616 380.087 722.889 386.7L692.549 380.08C692.806 379.269 692.861 378.407 692.709 377.57C692.326 375.878 691.328 374.388 689.909 373.39C687.488 371.681 685.4 369.542 683.749 367.08L683.689 367C682.581 365.349 681.82 363.489 681.454 361.534C681.087 359.58 681.123 357.571 681.559 355.63L684.269 343.69C684.839 341.18 687.629 339.69 690.499 340.33C693.359 340.98 695.229 343.54 694.659 346.05L693.659 350.53C693.25 352.436 693.315 354.414 693.851 356.289C694.386 358.164 695.375 359.878 696.729 361.28L697.069 361.63" stroke="black" stroke-width="1.5" stroke-linecap="round" stroke-linejoin="round"/>
<path d="M728.089 366.85C735.739 353.9 738.459 348.39 746.089 335.43C746.42 334.838 746.531 334.148 746.403 333.483C746.275 332.817 745.916 332.217 745.389 331.79L745.129 331.58C744.849 331.376 744.543 331.212 744.219 331.09C743.599 330.833 742.912 330.784 742.261 330.95C741.61 331.116 741.031 331.488 740.609 332.01C734.829 339.64 730.099 346.44 724.329 354.06C728.329 345.9 734.179 335.33 738.189 327.17C738.539 326.338 738.579 325.409 738.302 324.55C738.025 323.691 737.449 322.96 736.679 322.49L736.609 322.44C734.609 321.04 731.839 321.5 730.809 323.44C721.729 340.22 716.169 350.32 715.859 350.16C715.549 350 720.529 339.5 729.089 322.22C729.493 321.231 729.494 320.123 729.09 319.134C728.686 318.145 727.91 317.353 726.929 316.93H726.849C725.913 316.383 724.799 316.224 723.747 316.487C722.694 316.751 721.787 317.416 721.219 318.34C716.779 326.99 711.299 337.8 706.859 346.45C710.859 337.39 715.859 326.17 719.859 317.11C720.219 316.109 720.185 315.008 719.764 314.032C719.342 313.055 718.565 312.275 717.589 311.85H717.519C716.267 311.531 714.948 311.604 713.739 312.06C712.624 312.522 711.736 313.407 711.269 314.52L693.879 354.42" fill="#D88B6D"/>
<path d="M728.089 366.85C735.739 353.9 738.459 348.39 746.089 335.43C746.42 334.838 746.531 334.148 746.403 333.483C746.275 332.817 745.916 332.217 745.389 331.79L745.129 331.58C744.849 331.376 744.543 331.212 744.219 331.09C743.599 330.833 742.912 330.784 742.261 330.95C741.61 331.116 741.031 331.488 740.609 332.01C734.829 339.64 730.099 346.44 724.329 354.06C728.329 345.9 734.179 335.33 738.189 327.17C738.539 326.338 738.579 325.409 738.302 324.55C738.025 323.691 737.449 322.96 736.679 322.49L736.609 322.44C734.609 321.04 731.839 321.5 730.809 323.44C721.729 340.22 716.169 350.32 715.859 350.16C715.549 350 720.529 339.5 729.089 322.22C729.493 321.231 729.494 320.123 729.09 319.134C728.686 318.145 727.91 317.353 726.929 316.93H726.849C725.913 316.383 724.799 316.224 723.747 316.487C722.694 316.751 721.787 317.416 721.219 318.34C716.779 326.99 711.299 337.8 706.859 346.45C710.859 337.39 715.859 326.17 719.859 317.11C720.219 316.109 720.185 315.008 719.764 314.032C719.342 313.055 718.565 312.275 717.589 311.85H717.519C716.267 311.531 714.948 311.604 713.739 312.06C712.624 312.522 711.736 313.407 711.269 314.52L693.879 354.42" stroke="black" stroke-width="1.5" stroke-linecap="round" stroke-linejoin="round"/>
<path d="M702.34 344.47C709.86 347.67 717.41 351.25 724.93 354.47L702.34 344.47Z" fill="#D88B6D"/>
<path d="M702.34 344.47C709.86 347.67 717.41 351.25 724.93 354.47" stroke="black" stroke-width="1.5" stroke-linecap="round" stroke-linejoin="round"/>
<path d="M701.435 302.062C701.376 299.101 698.928 296.75 695.968 296.809C693.007 296.868 690.656 299.316 690.715 302.276L691.803 356.666C691.862 359.626 694.31 361.978 697.27 361.919C700.23 361.86 702.582 359.412 702.523 356.452L701.435 302.062Z" fill="#82AAD3" stroke="black" stroke-width="1.5003" stroke-linecap="round" stroke-linejoin="round"/>
<path d="M683.89 435.31L670.91 436.83" stroke="black" stroke-width="1.5" stroke-linecap="round" stroke-linejoin="round"/>
<path d="M615.283 403.926C616.82 402.108 626.219 404.155 627.756 404.423C632.746 405.287 633.365 407.175 635.56 406.867C642.174 405.933 642.203 391.785 647.26 389.5C652.046 387.334 663.012 395.044 689.458 435.313C687.041 414.879 684.62 394.441 682.196 374H728.533C731.285 400.363 734.048 426.725 736.82 453.088C737.506 460.607 736.224 468.177 733.106 475.016C730.816 480.074 727.602 484.634 723.64 488.449C719.668 491.309 715.084 493.146 710.277 493.804C696.352 495.533 684.671 485.657 669.248 470.187C623.212 421.642 613.068 406.529 615.283 403.926Z" fill="#F25A33" stroke="black" stroke-width="1.5" stroke-linecap="round" stroke-linejoin="round"/>
<path d="M728.672 379.449L734.5 370.894L706.591 371.901L686.771 371.777L691.789 379.91L728.672 379.449Z" fill="white" stroke="black" stroke-width="1.5" stroke-linecap="round" stroke-linejoin="round"/>
<path d="M678 370.5C681.382 371.988 681.424 374.901 683.341 378.06C686.841 384.2 685.001 391.24 684.501 393.4C682.381 402.53 681.501 421.4 683.791 459.56L692.281 514.02C682.148 520.265 670.929 524.543 659.211 526.63C624.871 532.63 597.591 517.36 589.151 512.16L604.931 462.37L627 369.5" fill="white"/>
<path d="M678 370.5C681.382 371.988 681.424 374.901 683.341 378.06C686.841 384.2 685.001 391.24 684.501 393.4C682.381 402.53 681.501 421.4 683.791 459.56L692.281 514.02C682.148 520.265 670.929 524.543 659.211 526.63C624.871 532.63 597.591 517.36 589.151 512.16L604.931 462.37L627 369.5L678 370.5Z" stroke="black" stroke-width="1.5" stroke-linecap="round" stroke-linejoin="round"/>
<path d="M680.019 626.57L684.829 639.36C676.929 688.76 669.022 738.16 661.109 787.56C665.783 803.112 674.626 817.087 686.679 827.97C682.075 830.419 677.05 831.979 671.869 832.57C645.809 835.47 626.419 811.57 624.129 808.71C624.599 802.11 625.259 792.56 626.009 781.07C629.579 726.54 631.589 695.8 632.009 666.93C632.425 633.906 630.816 600.887 627.189 568.06L680.019 626.57Z" fill="#D88B6D" stroke="black" stroke-width="1.5" stroke-linecap="round" stroke-linejoin="round"/>
<path d="M628.439 790.92C628.021 790.468 627.491 790.133 626.902 789.95C626.314 789.767 625.688 789.741 625.086 789.876C624.485 790.01 623.93 790.301 623.476 790.717C623.022 791.134 622.685 791.662 622.499 792.25C618.829 802.06 618.769 809.25 619.609 814.4C619.909 816.18 620.339 817.83 621.409 822.55C622.409 826.85 622.679 828.3 622.839 829.04C623.963 834.325 624.804 839.666 625.359 845.04L631.229 844.95L633.019 821.79L665.229 844.12C665.979 844.639 666.867 844.921 667.779 844.93L702.939 845.1C706.029 845.03 708.429 841.75 708.319 837.74C708.219 834.47 706.469 831.61 704.009 830.74L688.849 825.34C687.773 824.951 686.634 824.761 685.489 824.78H684.289C684.453 825.265 684.424 825.795 684.209 826.26C683.209 828.19 677.799 827.12 675.759 826.71C668.966 825.392 662.459 822.883 656.539 819.3C654.495 818.032 652.626 816.503 650.979 814.75C643.479 806.817 635.966 798.873 628.439 790.92Z" fill="#FFCD88" stroke="black" stroke-width="1.5" stroke-linecap="round" stroke-linejoin="round"/>
<path d="M630.89 816.23L619.02 811.63C620.39 817.85 621.08 820.91 621.45 822.55C621.57 823.1 622.019 825.07 622.599 827.72C622.729 828.35 622.82 828.72 622.88 829.04C624.003 834.325 624.844 839.666 625.4 845.04L631.27 844.95L633.02 821.79L665.229 844.12C665.978 844.639 666.868 844.921 667.78 844.93L670.849 844.83L630.89 816.23Z" fill="black"/>
<path d="M619.809 811.63C622.219 812.63 623.629 813.63 626.039 814.63C629.885 816.209 633.539 818.222 636.929 820.63L670.929 844.83" stroke="black" stroke-width="1.5" stroke-linecap="round" stroke-linejoin="round"/>
<path d="M628.739 626.57C629.826 630.323 630.919 634.077 632.019 637.83C624.619 687.743 617.223 737.653 609.829 787.56C614.504 803.112 623.347 817.087 635.399 827.97C630.795 830.419 625.771 831.979 620.589 832.57C594.529 835.47 575.139 811.57 572.859 808.71C573.399 801.4 574.059 792.01 574.739 781.07C575.029 776.34 576.009 760.13 576.869 739.7C578.339 705.06 579.449 678.65 579.169 646.25C578.999 626.83 578.279 600.13 575.879 568.06L628.739 626.57Z" fill="#D88B6D" stroke="black" stroke-width="1.5" stroke-linecap="round" stroke-linejoin="round"/>
<path d="M577.12 790.92C576.701 790.468 576.171 790.133 575.583 789.95C574.994 789.767 574.368 789.741 573.767 789.876C573.166 790.01 572.61 790.301 572.156 790.717C571.702 791.134 571.365 791.662 571.18 792.25C567.51 802.06 567.45 809.25 568.3 814.4C568.59 816.18 569.02 817.83 570.09 822.55C571.09 826.85 571.36 828.3 571.52 829.04C572.643 834.325 573.484 839.666 574.04 845.04L579.91 844.95L581.74 821.83L613.95 844.16C614.699 844.679 615.588 844.961 616.5 844.97L651.66 845.14C654.75 845.07 657.15 841.79 657.04 837.78C656.95 834.51 655.19 831.65 652.73 830.78L637.57 825.38C636.493 824.991 635.354 824.801 634.21 824.82H633.01C633.177 825.304 633.152 825.834 632.94 826.3C631.89 828.23 626.52 827.16 624.48 826.75C617.686 825.432 611.18 822.923 605.26 819.34C603.216 818.072 601.347 816.543 599.7 814.79C592.173 806.83 584.646 798.873 577.12 790.92Z" fill="#FFCD88" stroke="black" stroke-width="1.5" stroke-linecap="round" stroke-linejoin="round"/>
<path d="M579.57 816.23L567.66 811.63C569.03 817.85 569.72 820.91 570.09 822.55C570.21 823.1 570.66 825.07 571.24 827.72C571.37 828.35 571.46 828.72 571.52 829.04C572.644 834.325 573.485 839.666 574.04 845.04L579.91 844.95L581.74 821.83L613.95 844.16C614.7 844.679 615.588 844.961 616.5 844.97L619.57 844.87L579.57 816.23Z" fill="black"/>
<path d="M568.49 811.63C570.9 812.63 572.31 813.63 574.72 814.63C578.567 816.209 582.221 818.222 585.61 820.63L619.61 844.83" stroke="black" stroke-width="1.5" stroke-linecap="round" stroke-linejoin="round"/>
<path d="M567.689 668.44C582.426 669.88 597.291 669.295 611.869 666.7C631.279 663.21 640.869 653.57 662.539 651.41C670.989 650.577 679.511 650.819 687.899 652.13C695.27 608.754 697.512 564.661 694.579 520.76C693.149 499.38 689.119 479.38 685.889 461.14C660.223 466.593 633.631 465.907 608.279 459.14C607.279 460.51 605.859 462.48 604.169 464.88C600.659 469.88 597.409 474.41 596.359 476.3C592.532 483.201 589.119 490.323 586.139 497.63C582.409 506.848 579.361 516.326 577.019 525.99C571.579 548.42 571.159 566.42 570.869 577.31C570.179 603.79 569.089 633.15 567.689 668.44Z" fill="#F25A33" stroke="black" stroke-width="1.5" stroke-linecap="round" stroke-linejoin="round"/>
<path d="M601.35 468.82C629.119 477.636 658.743 478.848 687.14 472.33" stroke="black" stroke-width="1.5" stroke-linecap="round" stroke-linejoin="round"/>
<path d="M653.67 476.97L654.32 493.93" stroke="black" stroke-width="1.5" stroke-linecap="round" stroke-linejoin="round"/>
<path d="M632.23 420.84L638.65 463.27C638.722 464.145 638.6 465.025 638.294 465.848C637.989 466.671 637.506 467.417 636.88 468.033C636.255 468.649 635.501 469.121 634.674 469.414C633.846 469.707 632.964 469.815 632.09 469.73L605.27 463.85L598.91 410.4L615.1 389.76" fill="#F25A33"/>
<path d="M632.23 420.84L638.65 463.27C638.722 464.145 638.6 465.025 638.294 465.848C637.989 466.671 637.506 467.417 636.88 468.033C636.255 468.649 635.501 469.121 634.674 469.414C633.846 469.707 632.964 469.815 632.09 469.73L605.27 463.85L598.91 410.4L615.1 389.76" stroke="black" stroke-width="1.5" stroke-linecap="round" stroke-linejoin="round"/>
<path d="M683.62 394.13L672.08 425.33L658.79 464.2C658.612 465.061 658.626 465.951 658.831 466.806C659.035 467.661 659.425 468.461 659.972 469.149C660.52 469.836 661.212 470.396 661.999 470.786C662.787 471.177 663.651 471.39 664.53 471.41L686.32 465.41C686.528 458.624 687.382 451.874 688.87 445.25C690.658 437.628 693.197 430.202 696.45 423.08C699.83 414.93 702.88 402.9 701.88 385.4C701.745 383.094 700.933 380.88 699.545 379.034C698.158 377.187 696.257 375.791 694.08 375.02L687.84 372.8" fill="#F25A33"/>
<path d="M683.62 394.13L672.08 425.33L658.79 464.2C658.612 465.061 658.626 465.951 658.831 466.806C659.035 467.661 659.425 468.461 659.972 469.149C660.52 469.836 661.212 470.396 661.999 470.786C662.787 471.177 663.651 471.39 664.53 471.41L686.32 465.41C686.528 458.624 687.382 451.874 688.87 445.25C690.658 437.628 693.197 430.202 696.45 423.08C699.83 414.93 702.88 402.9 701.88 385.4C701.745 383.094 700.933 380.88 699.545 379.034C698.158 377.187 696.257 375.791 694.08 375.02L687.84 372.8" stroke="black" stroke-width="1.5" stroke-linecap="round" stroke-linejoin="round"/>
<path d="M696.36 424.29V446" stroke="black" stroke-width="1.5" stroke-linecap="round" stroke-linejoin="round"/>
<path d="M614.4 528.29L602.91 534.42C598.953 537.634 594.08 539.513 588.989 539.787C583.898 540.062 578.851 538.719 574.57 535.95C566.637 516.81 558.71 497.667 550.79 478.52C545.888 466.69 545.603 453.451 549.99 441.42L550.06 441.23C565.32 406.84 583.92 384.56 594.49 378.17C600.786 374.381 607.655 371.642 614.83 370.06C618.152 369.446 621.522 369.131 624.9 369.12C624.23 372.74 623.65 378.7 622.7 384.84C621.496 390.543 619.987 396.178 618.18 401.72C614.43 413.04 604.18 434.15 587.59 459.36C596.544 482.34 605.48 505.317 614.4 528.29Z" fill="#F25A33" stroke="black" stroke-width="1.5" stroke-linecap="round" stroke-linejoin="round"/>
<path d="M568 408L565 418.5" stroke="black" stroke-width="1.5" stroke-linecap="round" stroke-linejoin="round"/>
<path d="M609.148 516.703L611.922 506.73L585.812 516.64L567 522.882L571.5 529.5L609.148 516.703Z" fill="white" stroke="black" stroke-width="1.5" stroke-linecap="round" stroke-linejoin="round"/>
<path fill-rule="evenodd" clip-rule="evenodd" d="M631.321 421.67C631.579 421.713 631.844 421.674 632.079 421.56C632.16 421.461 632.218 421.345 632.25 421.22C632.281 421.096 632.284 420.966 632.259 420.84C632.19 420.304 631.601 417.446 630.817 413.642C629.321 406.381 627.115 395.673 626.459 391.08C625.249 382.6 626.259 373.35 629.779 370.98C630.129 370.78 631.839 369.55 631.659 368.78C631.479 368.01 629.959 367.69 628.809 367.55L615.809 369.42C615.664 369.442 615.528 369.501 615.414 369.593C615.3 369.684 615.212 369.804 615.159 369.94L605.889 394.21C605.84 394.336 605.822 394.472 605.838 394.606C605.853 394.74 605.902 394.868 605.979 394.979C606.056 395.09 606.16 395.18 606.28 395.241C606.4 395.302 606.534 395.333 606.669 395.33C609.037 395.255 611.394 395.677 613.589 396.57C618.449 398.57 620.929 402.43 624.249 407.74C626.895 412.005 629.039 416.562 630.639 421.32C630.824 421.505 631.063 421.627 631.321 421.67ZM686.82 405C682.36 407.13 676.63 416.85 672.63 424.51L671.67 424.1C672.772 413.732 674.763 403.478 677.62 393.45C677.62 393.45 682.38 377.37 677.99 373.08C677.68 372.79 676.25 371.28 676.54 370.58C676.83 369.88 678.38 369.82 679.54 369.88L691.95 374.06C692.89 376.87 693.78 379.92 694.56 383.18C695.898 388.788 696.794 394.492 697.24 400.24L693.95 401.72C690.585 403.246 687.89 404.502 687.064 404.887C686.937 404.946 686.854 404.984 686.82 405Z" fill="white"/>
<path d="M632.079 421.56L632.407 422.234C632.505 422.187 632.591 422.119 632.659 422.035L632.079 421.56ZM632.25 421.22L632.977 421.402L632.25 421.22ZM632.259 420.84L631.515 420.935C631.517 420.952 631.52 420.969 631.523 420.986L632.259 420.84ZM630.817 413.642L631.552 413.49L630.817 413.642ZM626.459 391.08L625.716 391.186L626.459 391.08ZM629.779 370.98L629.407 370.329C629.391 370.338 629.375 370.348 629.36 370.358L629.779 370.98ZM628.809 367.55L628.9 366.806C628.834 366.798 628.768 366.798 628.702 366.808L628.809 367.55ZM615.809 369.42L615.702 368.678H615.697L615.809 369.42ZM615.414 369.593L614.946 369.007L615.414 369.593ZM615.159 369.94L614.46 369.668L614.458 369.672L615.159 369.94ZM605.889 394.21L606.587 394.485L606.59 394.478L605.889 394.21ZM605.838 394.606L605.093 394.693L605.838 394.606ZM606.669 395.33L606.684 396.08H606.693L606.669 395.33ZM613.589 396.57L613.874 395.876L613.872 395.875L613.589 396.57ZM624.249 407.74L624.886 407.345L624.885 407.342L624.249 407.74ZM630.639 421.32L629.928 421.559C629.965 421.669 630.027 421.77 630.11 421.852L630.639 421.32ZM672.63 424.51L672.335 425.2C672.696 425.354 673.113 425.204 673.295 424.857L672.63 424.51ZM686.82 405L686.506 404.319L686.497 404.323L686.82 405ZM671.67 424.1L670.924 424.021C670.889 424.348 671.072 424.66 671.375 424.79L671.67 424.1ZM677.62 393.45L676.901 393.237L676.899 393.245L677.62 393.45ZM677.99 373.08L678.514 372.544C678.51 372.54 678.506 372.536 678.502 372.532L677.99 373.08ZM676.54 370.58L675.847 370.293L676.54 370.58ZM679.54 369.88L679.779 369.169C679.714 369.147 679.647 369.135 679.579 369.131L679.54 369.88ZM691.95 374.06L692.661 373.822C692.587 373.599 692.412 373.424 692.189 373.349L691.95 374.06ZM694.56 383.18L695.289 383.006V383.005L694.56 383.18ZM697.24 400.24L697.548 400.924C697.836 400.794 698.012 400.497 697.988 400.182L697.24 400.24ZM693.95 401.72L693.642 401.036L693.64 401.037L693.95 401.72ZM687.064 404.887L687.38 405.566L687.064 404.887ZM631.751 420.886C631.656 420.932 631.548 420.947 631.444 420.93L631.197 422.41C631.609 422.478 632.032 422.417 632.407 422.234L631.751 420.886ZM631.522 421.038C631.518 421.055 631.51 421.071 631.498 421.085L632.659 422.035C632.811 421.85 632.919 421.634 632.977 421.402L631.522 421.038ZM631.523 420.986C631.527 421.003 631.526 421.021 631.522 421.038L632.977 421.402C633.035 421.17 633.041 420.929 632.995 420.694L631.523 420.986ZM630.083 413.793C630.873 417.627 631.451 420.436 631.515 420.935L633.003 420.745C632.929 420.171 632.33 417.265 631.552 413.49L630.083 413.793ZM625.716 391.186C626.377 395.809 628.59 406.547 630.083 413.793L631.552 413.49C630.053 406.215 627.853 395.538 627.201 390.974L625.716 391.186ZM629.36 370.358C628.313 371.063 627.516 372.232 626.916 373.633C626.312 375.043 625.88 376.754 625.603 378.629C625.05 382.381 625.103 386.887 625.716 391.186L627.201 390.974C626.605 386.793 626.558 382.434 627.087 378.848C627.352 377.055 627.757 375.479 628.295 374.223C628.836 372.958 629.485 372.082 630.198 371.602L629.36 370.358ZM630.929 368.951C630.905 368.849 630.96 368.852 630.853 369.026C630.76 369.176 630.602 369.358 630.4 369.552C629.992 369.941 629.526 370.261 629.407 370.329L630.151 371.631C630.382 371.499 630.946 371.104 631.436 370.636C631.682 370.401 631.94 370.119 632.128 369.816C632.301 369.535 632.503 369.096 632.389 368.609L630.929 368.951ZM628.718 368.295C629.276 368.362 629.879 368.47 630.347 368.636C630.581 368.719 630.746 368.804 630.847 368.881C630.947 368.957 630.937 368.985 630.929 368.951L632.389 368.609C632.291 368.19 632.023 367.89 631.752 367.684C631.482 367.48 631.16 367.333 630.848 367.222C630.224 367 629.492 366.878 628.9 366.806L628.718 368.295ZM615.916 370.162L628.916 368.292L628.702 366.808L615.702 368.678L615.916 370.162ZM615.883 370.178C615.894 370.17 615.907 370.164 615.921 370.162L615.697 368.678C615.422 368.72 615.163 368.833 614.946 369.007L615.883 370.178ZM615.858 370.212C615.863 370.199 615.872 370.187 615.883 370.178L614.946 369.007C614.728 369.181 614.561 369.409 614.46 369.668L615.858 370.212ZM606.59 394.478L615.86 370.208L614.458 369.672L605.188 393.942L606.59 394.478ZM606.583 394.518C606.581 394.507 606.583 394.495 606.587 394.485L605.191 393.936C605.096 394.176 605.063 394.436 605.093 394.693L606.583 394.518ZM606.595 394.55C606.588 394.541 606.584 394.53 606.583 394.518L605.093 394.693C605.123 394.95 605.216 395.195 605.364 395.407L606.595 394.55ZM606.62 394.573C606.61 394.567 606.601 394.56 606.595 394.55L605.364 395.407C605.511 395.62 605.709 395.792 605.94 395.909L606.62 394.573ZM606.653 394.58C606.642 394.58 606.631 394.578 606.62 394.573L605.94 395.909C606.17 396.027 606.426 396.085 606.684 396.08L606.653 394.58ZM613.872 395.875C611.58 394.943 609.118 394.502 606.645 394.58L606.693 396.08C608.956 396.008 611.209 396.412 613.306 397.265L613.872 395.875ZM624.885 407.342C621.585 402.065 618.991 397.982 613.874 395.876L613.304 397.264C617.907 399.158 620.272 402.795 623.613 408.138L624.885 407.342ZM631.35 421.081C629.732 416.269 627.563 411.659 624.886 407.345L623.612 408.135C626.227 412.352 628.347 416.856 629.928 421.559L631.35 421.081ZM631.444 420.93C631.339 420.913 631.243 420.863 631.168 420.788L630.11 421.852C630.406 422.146 630.786 422.341 631.197 422.41L631.444 420.93ZM673.295 424.857C675.289 421.038 677.706 416.722 680.172 413.104C681.405 411.294 682.642 409.672 683.835 408.378C685.037 407.075 686.155 406.149 687.143 405.677L686.497 404.323C685.255 404.916 683.984 406.004 682.732 407.361C681.472 408.728 680.19 410.415 678.933 412.259C676.419 415.948 673.971 420.322 671.965 424.163L673.295 424.857ZM671.375 424.79L672.335 425.2L672.924 423.82L671.965 423.41L671.375 424.79ZM676.899 393.245C674.03 403.313 672.031 413.61 670.924 424.021L672.416 424.179C673.513 413.854 675.496 403.642 678.341 393.656L676.899 393.245ZM677.466 373.616C678.362 374.492 678.869 376.069 679.037 378.133C679.201 380.166 679.026 382.516 678.709 384.769C678.392 387.016 677.94 389.136 677.566 390.696C677.379 391.475 677.212 392.112 677.092 392.554C677.032 392.775 676.984 392.947 676.951 393.063C676.934 393.121 676.922 393.165 676.913 393.195C676.909 393.209 676.906 393.22 676.904 393.227C676.903 393.231 676.902 393.233 676.901 393.235C676.901 393.236 676.901 393.237 676.901 393.237C676.901 393.237 676.901 393.237 677.62 393.45C678.339 393.663 678.339 393.663 678.339 393.662C678.34 393.661 678.34 393.66 678.34 393.659C678.341 393.657 678.342 393.654 678.343 393.649C678.346 393.641 678.349 393.629 678.354 393.613C678.363 393.581 678.376 393.534 678.394 393.474C678.428 393.352 678.478 393.174 678.54 392.947C678.663 392.493 678.834 391.841 679.024 391.045C679.406 389.456 679.869 387.287 680.194 384.978C680.518 382.675 680.709 380.201 680.532 378.012C680.357 375.855 679.813 373.813 678.514 372.544L677.466 373.616ZM675.847 370.293C675.659 370.747 675.786 371.209 675.904 371.504C676.035 371.829 676.235 372.148 676.431 372.421C676.825 372.97 677.294 373.456 677.478 373.628L678.502 372.532C678.376 372.414 677.975 372 677.649 371.546C677.485 371.318 677.363 371.11 677.297 370.946C677.219 370.752 677.276 370.763 677.233 370.867L675.847 370.293ZM679.579 369.131C678.98 369.1 678.239 369.097 677.59 369.205C677.267 369.259 676.928 369.347 676.63 369.497C676.333 369.647 676.012 369.894 675.847 370.293L677.233 370.867C677.212 370.916 677.195 370.893 677.306 370.836C677.417 370.78 677.592 370.726 677.837 370.685C678.326 370.603 678.94 370.6 679.501 370.629L679.579 369.131ZM692.189 373.349L679.779 369.169L679.301 370.591L691.711 374.771L692.189 373.349ZM695.289 383.005C694.504 379.723 693.608 376.652 692.661 373.822L691.239 374.298C692.172 377.088 693.056 380.117 693.831 383.355L695.289 383.005ZM697.988 400.182C697.539 394.395 696.636 388.652 695.289 383.006L693.83 383.354C695.159 388.924 696.049 394.589 696.492 400.298L697.988 400.182ZM694.258 402.404L697.548 400.924L696.932 399.556L693.642 401.036L694.258 402.404ZM687.38 405.566C688.206 405.182 690.899 403.928 694.26 402.403L693.64 401.037C690.272 402.565 687.574 403.821 686.747 404.207L687.38 405.566ZM687.134 405.681C687.17 405.664 687.255 405.625 687.38 405.566L686.747 404.207C686.62 404.266 686.539 404.304 686.506 404.319L687.134 405.681Z" fill="black"/>
<path d="M634.319 434.64C635.258 434.64 636.019 433.879 636.019 432.94C636.019 432.001 635.258 431.24 634.319 431.24C633.38 431.24 632.619 432.001 632.619 432.94C632.619 433.879 633.38 434.64 634.319 434.64Z" fill="black" stroke="black" stroke-width="1.5" stroke-linecap="round" stroke-linejoin="round"/>
<path d="M636.2 445.54C637.139 445.54 637.9 444.779 637.9 443.84C637.9 442.901 637.139 442.14 636.2 442.14C635.261 442.14 634.5 442.901 634.5 443.84C634.5 444.779 635.261 445.54 636.2 445.54Z" fill="black" stroke="black" stroke-width="1.5" stroke-linecap="round" stroke-linejoin="round"/>
<path d="M575.51 536.97C575.044 534.87 575.222 532.678 576.02 530.68C577.78 526.59 581.52 526.36 591.51 521.68C600 517.68 604.57 515.92 608.36 517.08C610.8 517.82 610.3 519.08 611.25 520.31L608.7 545.31C602.44 546.02 591.75 546.19 581.13 540.55C579.163 539.511 577.283 538.313 575.51 536.97Z" fill="black" stroke="black" stroke-width="1.5" stroke-linecap="round" stroke-linejoin="round"/>
<path d="M587.591 459.36L582.231 459.87" stroke="black" stroke-width="1.5" stroke-linecap="round" stroke-linejoin="round"/>
<path d="M654.69 575.202L543.7 561.436C530.689 559.822 518.833 569.062 517.219 582.074L508.922 648.971C507.308 661.983 516.548 673.839 529.559 675.453L640.549 689.218C653.561 690.832 665.417 681.592 667.031 668.581L675.327 601.683C676.941 588.671 667.702 576.815 654.69 575.202Z" fill="#82AAD3" stroke="black" stroke-width="1.5" stroke-linecap="round" stroke-linejoin="round"/>
<path d="M589.352 540.862L614.946 544.036C618.878 544.524 622.456 546.554 624.891 549.679C627.327 552.804 628.421 556.769 627.934 560.701L626.566 571.727L571.319 564.875L572.687 553.849C573.174 549.917 575.204 546.34 578.33 543.904C581.455 541.468 585.42 540.374 589.352 540.862Z" stroke="black" stroke-width="1.5" stroke-linecap="round" stroke-linejoin="round"/>
<path d="M602.375 617.343L584.135 615.081L581.873 633.321L600.113 635.583L602.375 617.343Z" fill="white" stroke="black" stroke-width="1.5" stroke-linecap="round" stroke-linejoin="round"/>
<path d="M511.869 613.04L671.489 632.83" stroke="black" stroke-width="1.5" stroke-linecap="round" stroke-linejoin="round"/>
<path d="M611.91 520.91C611.634 520.08 611.196 519.313 610.62 518.654C610.045 517.995 609.343 517.457 608.557 517.073C607.771 516.688 606.917 516.464 606.043 516.414C605.17 516.364 604.295 516.488 603.47 516.78L562.54 531.32C560.15 532.11 559.36 535.42 560.22 537.47C560.453 537.952 560.778 538.382 561.178 538.738C561.578 539.093 562.044 539.366 562.549 539.541C563.055 539.715 563.59 539.788 564.124 539.756C564.658 539.723 565.18 539.585 565.66 539.35C571.46 537.18 577.43 535.46 583.22 533.29L588.95 548.86C588.857 549.666 588.588 550.441 588.163 551.132C587.738 551.823 587.167 552.413 586.49 552.86L586.11 553.09C585.059 553.66 583.825 553.791 582.678 553.454C581.531 553.117 580.565 552.338 579.99 551.29L578.14 547.77C577.821 546.999 577.21 546.385 576.439 546.065C575.668 545.744 574.802 545.742 574.03 546.06C573.004 546.384 572.126 547.061 571.55 547.97C571.17 548.65 570.84 549.84 572.55 553.89C573.428 555.964 574.489 557.955 575.72 559.84L571.16 559.23C570.268 559.108 569.359 559.23 568.53 559.582C567.701 559.934 566.982 560.503 566.45 561.23C566.324 561.384 566.229 561.56 566.17 561.75C565.925 562.549 565.908 563.401 566.12 564.21C566.297 564.835 566.646 565.398 567.126 565.835C567.607 566.271 568.201 566.564 568.84 566.68C572.847 567.49 576.937 567.809 581.02 567.63C584.066 567.61 587.103 567.302 590.09 566.71L578.88 571.63C577.689 572.131 576.734 573.068 576.21 574.25C575.999 574.746 575.899 575.283 575.918 575.822C575.937 576.361 576.074 576.89 576.32 577.37C576.598 577.942 577.001 578.445 577.5 578.84C578.151 579.327 578.922 579.627 579.731 579.708C580.54 579.789 581.356 579.648 582.09 579.3L602.02 570.48L592.35 579.19C591.589 579.839 591.091 580.744 590.949 581.735C590.807 582.725 591.032 583.733 591.58 584.57C592.125 585.347 592.84 585.99 593.67 586.45C594.596 586.935 595.656 587.101 596.686 586.92C597.715 586.739 598.655 586.222 599.36 585.45L608.06 576.07C615.45 568.07 619.17 564.02 620.61 559.27C621.572 556.028 621.811 552.614 621.31 549.27C618.19 539.817 615.057 530.363 611.91 520.91Z" fill="#D88B6D" stroke="black" stroke-width="1.5" stroke-linecap="round" stroke-linejoin="round"/>
<path d="M575.731 559.87C577.798 561.067 580.119 561.758 582.504 561.886C584.89 562.013 587.271 561.574 589.454 560.605C591.637 559.635 593.56 558.162 595.064 556.307C596.569 554.452 597.613 552.266 598.111 549.93" fill="#D88B6D"/>
<path d="M575.731 559.87C577.798 561.067 580.119 561.758 582.504 561.886C584.89 562.013 587.271 561.574 589.454 560.605C591.637 559.635 593.56 558.162 595.064 556.307C596.569 554.452 597.613 552.266 598.111 549.93" stroke="black" stroke-width="1.5" stroke-linecap="round" stroke-linejoin="round"/>
<path d="M605.28 554.06C604.598 556.671 603.287 559.074 601.46 561.06C598.431 564.239 594.382 566.253 590.02 566.75" fill="#D88B6D"/>
<path d="M605.28 554.06C604.598 556.671 603.287 559.074 601.46 561.06C598.431 564.239 594.382 566.253 590.02 566.75" stroke="black" stroke-width="1.5" stroke-linecap="round" stroke-linejoin="round"/>
<path d="M613.15 559.17C612.023 561.089 610.699 562.885 609.2 564.53C607.099 566.857 604.682 568.877 602.02 570.53" fill="#D88B6D"/>
<path d="M613.15 559.17C612.023 561.089 610.699 562.885 609.2 564.53C607.099 566.857 604.682 568.877 602.02 570.53" stroke="black" stroke-width="1.5" stroke-linecap="round" stroke-linejoin="round"/>
<path d="M669.604 346.367C672.274 354.607 674.944 363.057 677.604 371.367C677.792 371.946 677.782 372.57 677.575 373.142C677.369 373.714 676.978 374.202 676.464 374.527C669.041 379.298 660.262 381.513 651.464 380.837C644.588 380.226 637.988 377.845 632.304 373.927C631.765 373.568 631.369 373.03 631.186 372.409C631.004 371.787 631.045 371.121 631.304 370.527L642.674 345.287" fill="#D88B6D"/>
<path d="M669.604 346.367C672.274 354.607 674.944 363.057 677.604 371.367C677.792 371.946 677.782 372.57 677.575 373.142C677.369 373.714 676.978 374.202 676.464 374.527C669.041 379.298 660.262 381.513 651.464 380.837C644.588 380.226 637.988 377.845 632.304 373.927C631.765 373.568 631.369 373.03 631.186 372.409C631.004 371.787 631.045 371.121 631.304 370.527L642.674 345.287" stroke="black" stroke-width="1.5" stroke-linecap="round" stroke-linejoin="round"/>
<path d="M629.589 291.904C628.959 293.524 628.319 295.154 627.689 296.784C607.819 303.574 591.499 297.024 588.539 287.844C586.099 280.244 592.269 269.034 600.399 266.564C610.339 263.534 625.499 272.814 629.589 291.904Z" fill="black" stroke="black" stroke-width="1.5" stroke-miterlimit="10" stroke-linecap="round" stroke-linejoin="round"/>
<path d="M641.189 345.714L668.119 346.604C671.42 347.389 674.87 347.283 678.115 346.295C681.361 345.308 684.286 343.475 686.59 340.984C689.031 338.277 690.66 334.936 691.29 331.344C691.568 329.614 691.601 327.854 691.389 326.114C690.669 319.414 690.319 317.004 689.899 312.344C688.979 302.234 692.699 301.084 691.179 292.134C690.689 289.254 690.06 285.514 687.51 282.134C681.86 274.514 670.149 274.394 666.699 274.414C661.768 274.452 656.901 275.536 652.419 277.594L641.189 345.714Z" fill="#D88B6D"/>
<path d="M626.688 303.895C625.118 297.767 626.039 291.266 629.248 285.815C635.808 275.145 648.438 274.815 649.248 274.815L659.968 274.235C670.288 271.365 680.668 273.855 686.458 280.765C689.108 284.033 690.738 288.008 691.148 292.195C687.412 291.79 683.869 290.327 680.935 287.978C678.002 285.629 675.8 282.492 674.588 278.935C674.547 278.818 674.468 278.718 674.364 278.651C674.26 278.583 674.137 278.552 674.013 278.563C673.89 278.573 673.773 278.624 673.682 278.707C673.59 278.791 673.529 278.903 673.508 279.025C672.571 284.772 669.535 289.967 664.988 293.605C661.389 296.329 657.064 297.927 652.558 298.195C651.268 306.605 649.498 315.675 647.088 325.265C645.258 332.565 644.09 339.63 642 346C637.207 332.027 631.542 317.841 626.688 303.895Z" fill="black" stroke="black" stroke-width="1.5" stroke-miterlimit="10" stroke-linecap="round" stroke-linejoin="round"/>
<path d="M676.359 322.624H678.02C678.646 322.625 679.26 322.455 679.796 322.131C680.332 321.807 680.768 321.342 681.058 320.787C681.348 320.232 681.48 319.608 681.44 318.984C681.399 318.359 681.188 317.757 680.83 317.244L676.359 310.874" stroke="black" stroke-width="1.5" stroke-linecap="round" stroke-linejoin="round"/>
<path d="M681.589 326.664C681.633 326.663 681.676 326.673 681.715 326.695C681.753 326.716 681.785 326.747 681.806 326.786C681.828 326.824 681.838 326.867 681.837 326.911C681.836 326.955 681.823 326.997 681.799 327.034C681.346 327.849 680.683 328.527 679.88 329C679.076 329.472 678.161 329.721 677.229 329.721C676.297 329.721 675.382 329.472 674.578 329C673.775 328.527 673.112 327.849 672.659 327.034C672.638 326.998 672.627 326.956 672.627 326.914C672.627 326.871 672.638 326.83 672.659 326.793C672.681 326.757 672.712 326.726 672.748 326.706C672.785 326.685 672.827 326.674 672.869 326.674L681.589 326.664Z" fill="black"/>
<path d="M666.318 315.864C667.097 315.864 667.728 314.66 667.728 313.174C667.728 311.689 667.097 310.484 666.318 310.484C665.54 310.484 664.908 311.689 664.908 313.174C664.908 314.66 665.54 315.864 666.318 315.864Z" fill="black"/>
<path d="M686.888 315.864C687.667 315.864 688.299 314.66 688.299 313.174C688.299 311.689 687.667 310.484 686.888 310.484C686.11 310.484 685.479 311.689 685.479 313.174C685.479 314.66 686.11 315.864 686.888 315.864Z" fill="black"/>
<path d="M637.97 324.514L643.38 304.814L641.54 304.754C639.459 304.688 637.434 305.435 635.896 306.837C634.357 308.24 633.426 310.186 633.3 312.264C633.199 314.064 633.709 315.845 634.747 317.319C635.785 318.793 637.291 319.873 639.02 320.384" fill="#D88B6D"/>
<path d="M637.97 324.514L643.38 304.814L641.54 304.754C639.459 304.688 637.434 305.435 635.896 306.837C634.357 308.24 633.426 310.186 633.3 312.264C633.199 314.064 633.709 315.845 634.747 317.319C635.785 318.793 637.291 319.873 639.02 320.384" stroke="black" stroke-width="1.5" stroke-miterlimit="10" stroke-linecap="round" stroke-linejoin="round"/>
<path d="M661.318 308.524C662.098 307.155 663.344 306.111 664.828 305.584L661.318 308.524Z" fill="white"/>
<path d="M690.908 308.524C690.132 307.152 688.885 306.107 687.398 305.584L690.908 308.524Z" fill="white"/>
<path fill-rule="evenodd" clip-rule="evenodd" d="M687.648 304.877C687.257 304.739 686.829 304.944 686.691 305.335C686.554 305.726 686.759 306.154 687.15 306.292C688.465 306.755 689.569 307.679 690.256 308.893C690.46 309.254 690.917 309.381 691.278 309.177C691.638 308.973 691.765 308.515 691.561 308.155C690.696 306.625 689.306 305.46 687.648 304.877ZM665.08 306.291C665.47 306.152 665.674 305.723 665.535 305.333C665.397 304.943 664.968 304.739 664.577 304.877C662.923 305.465 661.535 306.628 660.667 308.153C660.462 308.513 660.587 308.971 660.947 309.176C661.307 309.381 661.765 309.255 661.97 308.895C662.661 307.682 663.764 306.758 665.08 306.291Z" fill="black"/>
<path d="M660.359 344.815L668.119 346.565C671.42 347.35 674.87 347.243 678.115 346.255C681.361 345.268 684.286 343.435 686.59 340.945C689.031 338.237 690.66 334.896 691.29 331.305C691.568 329.575 691.601 327.814 691.389 326.075C690.669 319.375 690.319 316.965 689.899 312.305C688.979 302.195 692.699 301.045 691.179 292.095C690.689 289.215 690.06 285.475 687.51 282.095C681.27 273.675 668.729 274.245 666.699 274.375C664.229 274.515 662.189 274.285 660.869 274.375" stroke="black" stroke-width="1.5" stroke-miterlimit="10" stroke-linecap="round" stroke-linejoin="round"/>
<path d="M693.725 323.148C699.585 323.148 704.335 318.397 704.335 312.538C704.335 306.678 699.585 301.928 693.725 301.928C687.865 301.928 683.115 306.678 683.115 312.538C683.115 318.397 687.865 323.148 693.725 323.148Z" stroke="black" stroke-width="1.5" stroke-linecap="round" stroke-linejoin="round"/>
<path opacity="0.17" fill-rule="evenodd" clip-rule="evenodd" d="M674.316 312.538C674.316 318.397 669.565 323.148 663.706 323.148C657.846 323.148 653.096 318.397 653.096 312.538C653.096 306.678 657.846 301.928 663.706 301.928C669.565 301.928 674.316 306.678 674.316 312.538ZM704.22 312.538C704.22 318.397 699.47 323.148 693.61 323.148C687.75 323.148 683 318.397 683 312.538C683 306.678 687.75 301.928 693.61 301.928C699.47 301.928 704.22 306.678 704.22 312.538Z" fill="white"/>
<path d="M682.795 310.908H674.305" stroke="black" stroke-width="1.5" stroke-linecap="round" stroke-linejoin="round"/>
<path d="M663.706 323.148C669.565 323.148 674.316 318.397 674.316 312.538C674.316 306.678 669.565 301.928 663.706 301.928C657.846 301.928 653.096 306.678 653.096 312.538C653.096 318.397 657.846 323.148 663.706 323.148Z" stroke="black" stroke-width="1.5" stroke-linecap="round" stroke-linejoin="round"/>
<path d="M630.931 371.878L637 358C648.739 361.985 661.345 361.724 673 357.5L677.651 370.878C677.745 371.4 677.745 371.935 677.651 372.458C676.651 378.518 662.771 381.058 654.961 381.518C649.611 381.828 639.431 379.878 632.141 375.148C631.624 374.797 631.23 374.293 631.013 373.707C630.796 373.12 630.767 372.481 630.931 371.878Z" fill="white" stroke="black" stroke-width="1.5" stroke-miterlimit="10" stroke-linecap="round" stroke-linejoin="round"/>
<path d="M643.973 360.138L642.643 365.298" stroke="black" stroke-width="1.5" stroke-linecap="round" stroke-linejoin="round"/>
<path d="M650.392 360.908L649.572 366.138" stroke="black" stroke-width="1.5" stroke-linecap="round" stroke-linejoin="round"/>
</svg>
