<svg width="1220" height="920" viewBox="0 0 1220 920" fill="none" xmlns="http://www.w3.org/2000/svg">
<path d="M150.8 248H128.16V803.58H150.8V248Z" stroke="#CCCCCC" stroke-width="1.5" stroke-linecap="round" stroke-linejoin="round"/>
<path d="M725.54 248H702.9V803.58H725.54V248Z" stroke="#CCCCCC" stroke-width="1.5" stroke-linecap="round" stroke-linejoin="round"/>
<path d="M702.031 351.63H151.021V360.34H702.031V351.63Z" stroke="#CCCCCC" stroke-width="1.5" stroke-linecap="round" stroke-linejoin="round"/>
<path d="M251.151 311.53H661.951C672.575 311.533 682.762 315.754 690.275 323.267C697.787 330.779 702.008 340.967 702.011 351.59H151.011" stroke="#CCCCCC" stroke-width="1.5" stroke-linecap="round" stroke-linejoin="round"/>
<path d="M151.021 265.42H203.951C216.416 265.42 228.37 270.372 237.185 279.186C245.999 288 250.951 299.955 250.951 312.42V351.62H151.051V265.42H151.021Z" stroke="#CCCCCC" stroke-width="1.5" stroke-linecap="round" stroke-linejoin="round"/>
<path d="M702.031 669.471H151.021V676.931H702.031V669.471Z" stroke="#CCCCCC" stroke-width="1.5" stroke-linecap="round" stroke-linejoin="round"/>
<path d="M251.151 629.38H661.951C672.575 629.38 682.765 633.6 690.277 641.113C697.79 648.626 702.011 658.815 702.011 669.44H151.011" stroke="#CCCCCC" stroke-width="1.5" stroke-linecap="round" stroke-linejoin="round"/>
<path d="M151.021 583.27H203.951C216.416 583.27 228.37 588.22 237.185 597.034C245.999 605.849 250.951 617.804 250.951 630.27V669.68H151.051V583.27H151.021Z" stroke="#CCCCCC" stroke-width="1.5" stroke-linecap="round" stroke-linejoin="round"/>
<path d="M582.91 360.16H594.02V517.32C594.02 518.792 593.435 520.204 592.395 521.245C591.354 522.285 589.942 522.87 588.47 522.87C586.998 522.87 585.587 522.285 584.546 521.245C583.505 520.204 582.92 518.792 582.92 517.32V360.16H582.91Z" stroke="#CCCCCC" stroke-width="1.5" stroke-linecap="round" stroke-linejoin="round"/>
<path d="M636.23 360.16H647.341V517.32C647.341 518.792 646.757 520.204 645.716 521.245C644.675 522.285 643.262 522.87 641.79 522.87C640.319 522.87 638.908 522.285 637.867 521.245C636.826 520.204 636.24 518.792 636.24 517.32V360.16H636.23Z" stroke="#CCCCCC" stroke-width="1.5" stroke-linecap="round" stroke-linejoin="round"/>
<path d="M594.91 400.49H637.12" stroke="#CCCCCC" stroke-width="1.5" stroke-linecap="round" stroke-linejoin="round"/>
<path d="M594.91 442.9H637.12" stroke="#CCCCCC" stroke-width="1.5" stroke-linecap="round" stroke-linejoin="round"/>
<path d="M594.91 485.32H637.12" stroke="#CCCCCC" stroke-width="1.5" stroke-linecap="round" stroke-linejoin="round"/>
<path d="M128.851 299.721C130.101 307.251 132.321 318.721 141.471 330.111C144.234 333.536 147.311 336.696 150.661 339.551" stroke="#CCCCCC" stroke-width="1.5" stroke-linecap="round" stroke-linejoin="round"/>
<path d="M150.49 401C141.033 417.565 136.059 436.31 136.059 455.385C136.059 474.46 141.033 493.205 150.49 509.77" stroke="#CCCCCC" stroke-width="1.5" stroke-linecap="round" stroke-linejoin="round"/>
<path d="M128 649.34L143.86 700.81C145.638 707.924 145.993 715.32 144.905 722.572C143.817 729.824 141.307 736.79 137.52 743.07L128.52 757.98" stroke="#CCCCCC" stroke-width="1.5" stroke-linecap="round" stroke-linejoin="round"/>
<path d="M128.53 541.43C130.903 552.39 133.27 563.353 135.63 574.32C138.306 586.786 136.904 599.782 131.63 611.39C130.63 613.69 129.54 615.98 128.5 618.28" stroke="#CCCCCC" stroke-width="1.5" stroke-linecap="round" stroke-linejoin="round"/>
<path d="M724.581 778.939C723.331 771.419 721.111 759.939 711.961 748.549C709.194 745.127 706.118 741.966 702.771 739.109" stroke="#CCCCCC" stroke-width="1.5" stroke-linecap="round" stroke-linejoin="round"/>
<path d="M702.94 677.66C712.398 661.097 717.372 642.354 717.372 623.28C717.372 604.207 712.398 585.464 702.94 568.9" stroke="#CCCCCC" stroke-width="1.5" stroke-linecap="round" stroke-linejoin="round"/>
<path d="M725.431 429.321L709.571 377.891C707.793 370.778 707.438 363.385 708.524 356.135C709.61 348.884 712.117 341.92 715.901 335.641L724.901 320.721" stroke="#CCCCCC" stroke-width="1.5" stroke-linecap="round" stroke-linejoin="round"/>
<path d="M724.89 537.24C722.53 526.273 720.167 515.307 717.8 504.34C715.119 491.874 716.522 478.877 721.8 467.27L724.92 460.38" stroke="#CCCCCC" stroke-width="1.5" stroke-linecap="round" stroke-linejoin="round"/>
<path d="M1049.35 225.55H696.78V757.74H1049.35V225.55Z" fill="#FFCD88" stroke="black" stroke-width="1.5" stroke-linecap="round" stroke-linejoin="round"/>
<path fill-rule="evenodd" clip-rule="evenodd" d="M712.33 804.21L713.86 705.66L732.25 704.13L720.5 804.21H712.33ZM1034.54 804.21L1033.01 705.66L1014.63 704.13L1026.37 804.21H1034.54Z" fill="#FFE1B8"/>
<path d="M713.86 705.66L713.798 704.912C713.414 704.944 713.116 705.263 713.11 705.648L713.86 705.66ZM712.33 804.21L711.58 804.198C711.577 804.399 711.655 804.593 711.796 804.736C711.937 804.879 712.129 804.96 712.33 804.96V804.21ZM732.25 704.13L732.995 704.217C733.021 703.994 732.946 703.77 732.789 703.609C732.633 703.447 732.412 703.364 732.188 703.382L732.25 704.13ZM720.5 804.21V804.96C720.88 804.96 721.201 804.675 721.245 804.297L720.5 804.21ZM1033.01 705.66L1033.76 705.648C1033.75 705.263 1033.46 704.944 1033.07 704.912L1033.01 705.66ZM1034.54 804.21V804.96C1034.74 804.96 1034.93 804.879 1035.07 804.736C1035.22 804.593 1035.29 804.399 1035.29 804.198L1034.54 804.21ZM1014.63 704.13L1014.69 703.382C1014.47 703.364 1014.25 703.447 1014.09 703.609C1013.93 703.77 1013.86 703.994 1013.89 704.217L1014.63 704.13ZM1026.37 804.21L1025.63 804.297C1025.67 804.675 1025.99 804.96 1026.37 804.96V804.21ZM713.11 705.648L711.58 804.198L713.08 804.222L714.61 705.672L713.11 705.648ZM732.188 703.382L713.798 704.912L713.922 706.407L732.312 704.877L732.188 703.382ZM721.245 804.297L732.995 704.217L731.505 704.042L719.755 804.122L721.245 804.297ZM712.33 804.96H720.5V803.46H712.33V804.96ZM1032.26 705.672L1033.79 804.222L1035.29 804.198L1033.76 705.648L1032.26 705.672ZM1014.57 704.877L1032.95 706.407L1033.07 704.912L1014.69 703.382L1014.57 704.877ZM1027.11 804.123L1015.38 704.043L1013.89 704.217L1025.63 804.297L1027.11 804.123ZM1034.54 803.46H1026.37V804.96H1034.54V803.46Z" fill="black"/>
<path fill-rule="evenodd" clip-rule="evenodd" d="M761.35 804.21L762.89 705.66L781.27 704.13L769.52 804.21H761.35ZM985.52 804.21L983.99 705.66L965.61 704.13L977.35 804.21H985.52Z" fill="#FFCD88"/>
<path d="M762.89 705.66L762.828 704.912C762.444 704.944 762.146 705.263 762.14 705.648L762.89 705.66ZM761.35 804.21L760.6 804.198C760.597 804.399 760.675 804.593 760.816 804.736C760.957 804.879 761.149 804.96 761.35 804.96V804.21ZM781.27 704.13L782.015 704.217C782.041 703.994 781.966 703.77 781.809 703.609C781.653 703.447 781.432 703.364 781.208 703.382L781.27 704.13ZM769.52 804.21V804.96C769.9 804.96 770.221 804.675 770.265 804.297L769.52 804.21ZM983.99 705.66L984.74 705.648C984.734 705.263 984.437 704.944 984.052 704.912L983.99 705.66ZM985.52 804.21V804.96C985.721 804.96 985.914 804.879 986.055 804.736C986.195 804.593 986.273 804.399 986.27 804.198L985.52 804.21ZM965.61 704.13L965.672 703.382C965.448 703.364 965.227 703.447 965.071 703.609C964.915 703.77 964.839 703.994 964.865 704.217L965.61 704.13ZM977.35 804.21L976.605 804.297C976.65 804.675 976.97 804.96 977.35 804.96V804.21ZM762.14 705.648L760.6 804.198L762.1 804.222L763.64 705.672L762.14 705.648ZM781.208 703.382L762.828 704.912L762.952 706.407L781.332 704.877L781.208 703.382ZM770.265 804.297L782.015 704.217L780.525 704.042L768.775 804.122L770.265 804.297ZM761.35 804.96H769.52V803.46H761.35V804.96ZM983.24 705.672L984.77 804.222L986.27 804.198L984.74 705.648L983.24 705.672ZM965.548 704.877L983.928 706.407L984.052 704.912L965.672 703.382L965.548 704.877ZM978.095 804.123L966.355 704.043L964.865 704.217L976.605 804.297L978.095 804.123ZM985.52 803.46H977.35V804.96H985.52V803.46Z" fill="black"/>
<path d="M857.35 641.32H696.84V757.75H857.35V641.32Z" fill="#FFE1B8" stroke="black" stroke-width="1.5" stroke-linecap="round" stroke-linejoin="round"/>
<path d="M1049.52 513.66H696.61V519H1049.52V513.66Z" fill="#FFE1B8" stroke="black" stroke-width="1.5" stroke-linecap="round" stroke-linejoin="round"/>
<path d="M1049.26 360.47H696.86V365.81H1049.26V360.47Z" fill="#FFE1B8" stroke="black" stroke-width="1.5" stroke-linecap="round" stroke-linejoin="round"/>
<path d="M1049.35 641.32H855.31V757.75H1049.35V641.32Z" fill="#FFE1B8" stroke="black" stroke-width="1.5" stroke-linecap="round" stroke-linejoin="round"/>
<path d="M1049.35 698.51H855.29" stroke="black" stroke-width="1.5" stroke-linecap="round" stroke-linejoin="round"/>
<path fill-rule="evenodd" clip-rule="evenodd" d="M959.34 670.94C959.34 673.762 957.052 676.05 954.23 676.05C951.408 676.05 949.12 673.762 949.12 670.94C949.12 668.118 951.408 665.83 954.23 665.83C957.052 665.83 959.34 668.118 959.34 670.94ZM959.34 729.15C959.34 731.972 957.052 734.26 954.23 734.26C951.408 734.26 949.12 731.972 949.12 729.15C949.12 726.328 951.408 724.04 954.23 724.04C957.052 724.04 959.34 726.328 959.34 729.15Z" fill="#FFCD88"/>
<path d="M954.23 676.8C957.467 676.8 960.09 674.176 960.09 670.94H958.59C958.59 673.348 956.638 675.3 954.23 675.3V676.8ZM948.37 670.94C948.37 674.176 950.994 676.8 954.23 676.8V675.3C951.822 675.3 949.87 673.348 949.87 670.94H948.37ZM954.23 665.08C950.994 665.08 948.37 667.704 948.37 670.94H949.87C949.87 668.532 951.822 666.58 954.23 666.58V665.08ZM960.09 670.94C960.09 667.704 957.466 665.08 954.23 665.08V666.58C956.638 666.58 958.59 668.532 958.59 670.94H960.09ZM954.23 735.01C957.466 735.01 960.09 732.386 960.09 729.15H958.59C958.59 731.558 956.638 733.51 954.23 733.51V735.01ZM948.37 729.15C948.37 732.386 950.994 735.01 954.23 735.01V733.51C951.822 733.51 949.87 731.558 949.87 729.15H948.37ZM954.23 723.29C950.994 723.29 948.37 725.914 948.37 729.15H949.87C949.87 726.742 951.822 724.79 954.23 724.79V723.29ZM960.09 729.15C960.09 725.914 957.466 723.29 954.23 723.29V724.79C956.638 724.79 958.59 726.742 958.59 729.15H960.09Z" fill="black"/>
<path d="M1049.24 757.26H696.89C693.085 757.26 690 760.345 690 764.15V764.16C690 767.965 693.085 771.05 696.89 771.05H1049.24C1053.05 771.05 1056.13 767.965 1056.13 764.16V764.15C1056.13 760.345 1053.05 757.26 1049.24 757.26Z" fill="#FFE1B8" stroke="black" stroke-width="1.5" stroke-linecap="round" stroke-linejoin="round"/>
<path d="M1049.24 217H696.89C693.085 217 690 220.085 690 223.89V223.9C690 227.705 693.085 230.79 696.89 230.79H1049.24C1053.05 230.79 1056.13 227.705 1056.13 223.9V223.89C1056.13 220.085 1053.05 217 1049.24 217Z" fill="#FFE1B8" stroke="black" stroke-width="1.5" stroke-linecap="round" stroke-linejoin="round"/>
<path d="M865.33 271.42H812.71V360.22H865.33V271.42Z" fill="#8CA45B" stroke="black" stroke-width="1.5" stroke-linecap="round" stroke-linejoin="round"/>
<path d="M889.45 288.59H836.83V360.22H889.45V288.59Z" fill="#AD85AD" stroke="black" stroke-width="1.5" stroke-linecap="round" stroke-linejoin="round"/>
<path d="M853.13 288.59H836.83V360.22H853.13V288.59Z" fill="#AD85AD" stroke="black" stroke-width="1.5" stroke-linecap="round" stroke-linejoin="round"/>
<path d="M825.42 271.42H812.71V360.22H825.42V271.42Z" fill="#8CA45B" stroke="black" stroke-width="1.5" stroke-linecap="round" stroke-linejoin="round"/>
<path d="M941.61 271.42H888.99V360.22H941.61V271.42Z" fill="white" stroke="black" stroke-width="1.5" stroke-linecap="round" stroke-linejoin="round"/>
<path d="M905.29 271.42H888.99V360.22H905.29V271.42Z" fill="white" stroke="black" stroke-width="1.5" stroke-linecap="round" stroke-linejoin="round"/>
<path d="M965.73 288.59H913.11V360.22H965.73V288.59Z" fill="#AD85AD" stroke="black" stroke-width="1.5" stroke-linecap="round" stroke-linejoin="round"/>
<path d="M929.41 288.59H913.11V360.22H929.41V288.59Z" fill="#AD85AD" stroke="black" stroke-width="1.5" stroke-linecap="round" stroke-linejoin="round"/>
<path d="M808.44 552.4H755.82V641.2H808.44V552.4Z" fill="#8CA45B" stroke="black" stroke-width="1.5" stroke-linecap="round" stroke-linejoin="round"/>
<path d="M832.56 569.57H779.94V641.2H832.56V569.57Z" fill="#AD85AD" stroke="black" stroke-width="1.5" stroke-linecap="round" stroke-linejoin="round"/>
<path d="M796.24 569.57H779.94V641.2H796.24V569.57Z" fill="#AD85AD" stroke="black" stroke-width="1.5" stroke-linecap="round" stroke-linejoin="round"/>
<path d="M768.53 552.4H755.82V641.2H768.53V552.4Z" fill="#8CA45B" stroke="black" stroke-width="1.5" stroke-linecap="round" stroke-linejoin="round"/>
<path d="M980.29 552.4H927.67V641.2H980.29V552.4Z" fill="white" stroke="black" stroke-width="1.5" stroke-linecap="round" stroke-linejoin="round"/>
<path d="M943.97 552.4H927.67V641.2H943.97V552.4Z" fill="white" stroke="black" stroke-width="1.5" stroke-linecap="round" stroke-linejoin="round"/>
<path d="M1004.41 569.57H951.79V641.2H1004.41V569.57Z" fill="#AD85AD" stroke="black" stroke-width="1.5" stroke-linecap="round" stroke-linejoin="round"/>
<path d="M968.09 569.57H951.79V641.2H968.09V569.57Z" fill="#AD85AD" stroke="black" stroke-width="1.5" stroke-linecap="round" stroke-linejoin="round"/>
<path d="M799.87 439.16H752.39V513.53H799.87V439.16Z" fill="#AD85AD" stroke="black" stroke-width="1.5" stroke-linecap="round" stroke-linejoin="round"/>
<path d="M813.58 439.16H766.1V513.53H813.58V439.16Z" fill="#82AAD3" stroke="black" stroke-width="1.5" stroke-linecap="round" stroke-linejoin="round"/>
<path d="M780.81 439.16H766.1V513.53H780.81V439.16Z" fill="#82AAD3" stroke="black" stroke-width="1.5" stroke-linecap="round" stroke-linejoin="round"/>
<path d="M837.65 452.6H790.17V513.53H837.65V452.6Z" fill="#8CA45B" stroke="black" stroke-width="1.5" stroke-linecap="round" stroke-linejoin="round"/>
<path d="M804.88 452.6H790.17V513.53H804.88V452.6Z" fill="#8CA45B" stroke="black" stroke-width="1.5" stroke-linecap="round" stroke-linejoin="round"/>
<path d="M967.21 471.68C966.011 465.037 964.127 458.536 961.59 452.28L965.67 422.15H930.61L934.69 452.28C932.157 458.536 930.277 465.037 929.08 471.68C926.624 485.588 927.146 499.858 930.61 513.55H965.67C969.135 499.859 969.659 485.589 967.21 471.68Z" fill="white" stroke="black" stroke-width="1.5" stroke-linecap="round" stroke-linejoin="round"/>
<path d="M941.8 421.98L926.8 392.79L941.8 421.98Z" fill="#FFCD88"/>
<path d="M941.8 421.98L926.8 392.79" stroke="black" stroke-width="1.5" stroke-linecap="round" stroke-linejoin="round"/>
<path d="M947.8 422.32L947.46 384.87" stroke="black" stroke-width="1.5" stroke-linecap="round" stroke-linejoin="round"/>
<path d="M935.2 377.38C935.2 378.75 934.52 407.85 934.52 407.85L935.2 377.38Z" fill="#FFE1B8"/>
<path d="M935.2 377.38C935.2 378.75 934.52 407.85 934.52 407.85" stroke="black" stroke-width="1.5" stroke-linecap="round" stroke-linejoin="round"/>
<path d="M736.26 803.601H736.63C736.888 803.551 737.134 803.452 737.354 803.308C737.573 803.163 737.762 802.977 737.91 802.76C738.058 802.543 738.161 802.298 738.214 802.041C738.268 801.784 738.27 801.519 738.22 801.261L717.83 693.661C716.835 688.701 714.141 684.244 710.213 681.057C706.285 677.87 701.368 676.153 696.31 676.201H652.98C648.101 676.146 643.346 677.736 639.481 680.715C635.617 683.694 632.869 687.888 631.68 692.621L604.86 800.951C604.728 801.465 604.805 802.011 605.075 802.469C605.345 802.926 605.786 803.258 606.3 803.391C606.815 803.523 607.361 803.446 607.819 803.176C608.276 802.906 608.608 802.465 608.74 801.951L635.53 693.541C636.518 689.68 638.777 686.265 641.942 683.845C645.108 681.425 648.996 680.141 652.98 680.201H696.34C700.467 680.155 704.481 681.549 707.691 684.142C710.901 686.736 713.107 690.367 713.93 694.411L734.32 801.981C734.408 802.433 734.648 802.841 735.002 803.136C735.355 803.431 735.8 803.595 736.26 803.601Z" fill="#FFCD88" stroke="black" stroke-width="1.5" stroke-miterlimit="10"/>
<path d="M726.68 740.46C728.56 750.327 730.433 760.197 732.3 770.07L729.75 777.99L723.87 746.84L726.68 740.46Z" fill="black" stroke="black" stroke-width="1.5" stroke-linecap="round" stroke-linejoin="round"/>
<path d="M847.57 803.601C847.696 803.61 847.823 803.61 847.95 803.601C848.208 803.551 848.454 803.452 848.673 803.308C848.893 803.163 849.082 802.977 849.23 802.76C849.377 802.543 849.481 802.298 849.534 802.041C849.587 801.784 849.589 801.519 849.54 801.26L829.15 693.661C828.154 688.701 825.461 684.244 821.532 681.057C817.604 677.87 812.688 676.153 807.63 676.2H764.27C759.393 676.148 754.64 677.739 750.777 680.718C746.915 683.697 744.168 687.89 742.98 692.621L716.18 800.95C716.047 801.466 716.125 802.014 716.396 802.472C716.667 802.931 717.109 803.263 717.625 803.395C718.141 803.528 718.688 803.45 719.147 803.179C719.605 802.908 719.937 802.466 720.07 801.95L746.85 693.541C747.831 689.68 750.083 686.262 753.243 683.836C756.403 681.411 760.287 680.12 764.27 680.171H807.63C811.757 680.125 815.77 681.519 818.981 684.112C822.191 686.705 824.397 690.336 825.22 694.381L845.61 801.95C845.692 802.411 845.933 802.829 846.291 803.131C846.649 803.432 847.102 803.598 847.57 803.601Z" fill="#FFE1B8" stroke="black" stroke-width="1.5" stroke-miterlimit="10"/>
<path d="M698.98 662.77L829.26 661.92L846.46 641.54L848.22 639.46C852.961 633.834 856.481 627.285 858.559 620.227C860.637 613.169 861.226 605.757 860.29 598.46C856.004 565.227 851.717 532 847.43 498.78C846.43 490.819 842.553 483.499 836.53 478.198C830.507 472.897 822.754 469.981 814.73 470L717.23 470.54C709.297 470.608 701.655 473.543 695.715 478.803C689.775 484.063 685.938 491.293 684.91 499.16L671.24 601.24C670.303 608.22 670.764 615.317 672.596 622.117C674.428 628.917 677.594 635.285 681.91 640.85L682.05 641.03L698.98 662.77Z" fill="#82AAD3" stroke="black" stroke-width="1.5" stroke-linecap="round" stroke-linejoin="round"/>
<path d="M830.72 676.82H618.55C614.691 676.82 610.99 675.287 608.261 672.559C605.533 669.83 604 666.129 604 662.27H845.3C845.3 664.183 844.922 666.077 844.189 667.844C843.456 669.611 842.382 671.217 841.028 672.568C839.673 673.92 838.066 674.992 836.297 675.721C834.528 676.451 832.633 676.824 830.72 676.82Z" fill="#82AAD3" stroke="black" stroke-width="1.5" stroke-linecap="round" stroke-linejoin="round"/>
<path d="M858.83 590.87C858.83 590.87 847.48 671.87 684.75 642.72L698.94 661.72L829.22 661.95C831.69 658.95 835.38 654.49 839.92 649.12C849.98 637.16 849.98 637.67 851.66 635.14C857.282 626.934 860.509 617.326 860.98 607.39C861.191 601.802 860.464 596.218 858.83 590.87Z" fill="black" stroke="black" stroke-width="1.5" stroke-linecap="round" stroke-linejoin="round"/>
<path d="M788.83 650.367C787.854 653.671 785.832 656.57 783.067 658.628C780.303 660.685 776.946 661.79 773.5 661.777H652V571.987C651.998 571.656 652.095 571.333 652.279 571.059C652.464 570.785 652.727 570.573 653.034 570.451C653.341 570.329 653.677 570.302 654 570.374C654.322 570.447 654.615 570.615 654.84 570.857L668.68 585.537H677.92L692.92 570.477C693.151 570.249 693.444 570.094 693.762 570.031C694.08 569.968 694.41 570.001 694.71 570.125C695.01 570.249 695.266 570.458 695.448 570.727C695.629 570.996 695.727 571.312 695.73 571.637V592.347C698.349 590.505 701.085 588.835 703.92 587.347C721.15 578.347 739.92 577.247 755.59 582.167C759.717 583.44 763.683 585.185 767.41 587.367C773.293 590.751 778.403 595.329 782.41 600.807C783.07 601.727 783.69 602.667 784.27 603.637C792.17 616.707 793.54 634.067 788.83 650.367Z" fill="#F25A33" stroke="black" stroke-width="1.5" stroke-linecap="round" stroke-linejoin="round"/>
<path d="M695.74 592.346L696.62 613.496" stroke="black" stroke-width="1.5" stroke-linecap="round" stroke-linejoin="round"/>
<path d="M660.2 601.246C661.421 601.246 662.41 600.257 662.41 599.036C662.41 597.816 661.421 596.826 660.2 596.826C658.98 596.826 657.99 597.816 657.99 599.036C657.99 600.257 658.98 601.246 660.2 601.246Z" fill="white" stroke="black" stroke-width="1.5" stroke-linecap="round" stroke-linejoin="round"/>
<path d="M688.96 601.246C690.181 601.246 691.17 600.257 691.17 599.036C691.17 597.816 690.181 596.826 688.96 596.826C687.739 596.826 686.75 597.816 686.75 599.036C686.75 600.257 687.739 601.246 688.96 601.246Z" fill="white" stroke="black" stroke-width="1.5" stroke-linecap="round" stroke-linejoin="round"/>
<path d="M674.09 599.416C674.379 600.789 674.268 602.216 673.77 603.528C673.272 604.84 672.408 605.981 671.28 606.816C670.065 607.583 668.633 607.934 667.2 607.816" stroke="black" stroke-width="1.5" stroke-linecap="round" stroke-linejoin="round"/>
<path d="M674.08 599.416C673.805 600.786 673.926 602.206 674.429 603.509C674.932 604.813 675.796 605.946 676.92 606.776C678.138 607.545 679.574 607.896 681.01 607.776" stroke="black" stroke-width="1.5" stroke-linecap="round" stroke-linejoin="round"/>
<path d="M673.92 602.476C673.04 602.416 671.97 600.946 672.07 598.906H676.22C676.23 601.126 674.92 602.536 673.92 602.476Z" fill="black" stroke="black" stroke-width="1.5" stroke-linecap="round" stroke-linejoin="round"/>
<path d="M772.92 647.286H689.47C687.644 647.289 685.893 648.016 684.601 649.307C683.31 650.599 682.583 652.35 682.58 654.176C682.58 656.004 683.306 657.758 684.598 659.052C685.889 660.345 687.642 661.073 689.47 661.076H779.09" fill="#F25A33"/>
<path d="M772.92 647.286H689.47C687.644 647.289 685.893 648.016 684.601 649.307C683.31 650.599 682.583 652.35 682.58 654.176C682.58 656.004 683.306 657.758 684.598 659.052C685.889 660.345 687.642 661.073 689.47 661.076H779.09" stroke="black" stroke-width="1.5" stroke-linecap="round" stroke-linejoin="round"/>
<path d="M782.38 600.857C778.373 595.379 773.263 590.8 767.38 587.417C763.652 585.235 759.686 583.49 755.56 582.217C739.9 577.297 721.12 578.437 703.89 587.397C705.281 593.074 708.17 598.274 712.255 602.455C716.339 606.637 721.47 609.647 727.113 611.171C732.756 612.696 738.705 612.68 744.339 611.124C749.974 609.568 755.088 606.53 759.15 602.327C762.374 605.67 766.744 607.669 771.382 607.921C776.02 608.174 780.582 606.661 784.15 603.687C783.66 602.717 783.04 601.777 782.38 600.857Z" fill="black" stroke="black" stroke-width="1.5" stroke-linecap="round" stroke-linejoin="round"/>
<path d="M734.15 661.076H689.47C687.642 661.073 685.889 660.345 684.598 659.052C683.306 657.758 682.58 656.004 682.58 654.176C682.583 652.35 683.31 650.599 684.601 649.307C685.893 648.016 687.644 647.289 689.47 647.286H728.03L734.15 661.076Z" fill="black" stroke="black" stroke-width="1.5" stroke-linecap="round" stroke-linejoin="round"/>
<path d="M309.921 802.656H324.791L343.561 592.406H329.871L309.921 802.656Z" fill="#FFCD88" stroke="black" stroke-width="1.5" stroke-linecap="round" stroke-linejoin="round"/>
<path d="M303.661 802.656H309.921L332.611 593.096H377.201L415.151 802.296H435.491L400.281 595.556C399.121 588.756 395.581 584.106 391.561 584.106H334.671C330.301 584.106 326.541 589.596 325.731 597.196L303.661 802.656Z" fill="#FFE1B8" stroke="black" stroke-width="1.5" stroke-linecap="round" stroke-linejoin="round"/>
<path d="M183.371 493.066L208.141 658.656H380.831L353.661 491.786C352.128 484.397 348.061 477.776 342.163 473.068C336.264 468.361 328.906 465.862 321.361 466.006L203.521 468.226C200.476 468.284 197.48 469.006 194.742 470.343C192.005 471.679 189.592 473.597 187.673 475.963C185.754 478.329 184.375 481.085 183.632 484.039C182.889 486.993 182.8 490.074 183.371 493.066Z" fill="#8CA45B" stroke="black" stroke-width="1.5" stroke-linecap="round" stroke-linejoin="round"/>
<path d="M240 626C241.5 639.5 241.735 644.5 244 657.8H381C332 657.8 318.605 652.72 280.735 647.16C277.783 646.823 274.861 646.261 271.995 645.48C266.065 643.67 254.795 641 251 637C248.273 634.126 241.3 629.743 240 626Z" fill="black" stroke="black" stroke-width="1.5" stroke-linecap="round" stroke-linejoin="round"/>
<path d="M219.441 724.576H497.061C500.557 724.576 504.018 723.887 507.247 722.549C510.476 721.211 513.41 719.25 515.881 716.778C518.352 714.306 520.312 711.372 521.649 708.142C522.985 704.912 523.673 701.451 523.671 697.956V684.646C523.671 677.588 520.868 670.82 515.878 665.83C510.887 660.839 504.119 658.036 497.061 658.036H226.361L219.441 724.576Z" fill="#8CA45B" stroke="black" stroke-width="1.5" stroke-linecap="round" stroke-linejoin="round"/>
<path d="M185.111 480.206L196.461 479.986C202.605 479.868 208.595 481.916 213.381 485.77C218.167 489.623 221.445 495.038 222.641 501.066L243.5 657.5" fill="#8CA45B"/>
<path d="M185.111 480.206L196.461 479.986C202.605 479.868 208.595 481.916 213.381 485.77C218.167 489.623 221.445 495.038 222.641 501.066L243.5 657.5" stroke="black" stroke-width="1.5" stroke-linecap="round" stroke-linejoin="round"/>
<path d="M219.211 722.836H508.341C509.141 722.833 509.934 722.989 510.674 723.293C511.414 723.597 512.086 724.045 512.653 724.61C513.22 725.174 513.669 725.846 513.976 726.585C514.283 727.324 514.441 728.116 514.441 728.916C514.441 730.529 513.8 732.075 512.66 733.215C511.52 734.355 509.973 734.996 508.361 734.996H219.211V722.836Z" fill="#FFCD88" stroke="black" stroke-width="1.5" stroke-linecap="round" stroke-linejoin="round"/>
<path d="M359.931 658.016H365.721C374.351 658.016 381.341 665.756 381.341 675.306V705.396C381.341 714.936 374.341 722.676 365.721 722.676" stroke="black" stroke-width="1.5" stroke-linecap="round" stroke-linejoin="round"/>
<path d="M199.562 802.656H214.432L233.202 592.406H219.512L199.562 802.656Z" fill="#FFCD88" stroke="black" stroke-width="1.5" stroke-linecap="round" stroke-linejoin="round"/>
<path d="M193.301 802.656H199.561L222.251 593.096H266.841L304.601 802.826H324.941L289.661 594.136C288.661 588.186 285.561 584.136 282.051 584.136H223.361C219.541 584.136 216.261 588.936 215.551 595.566L193.301 802.656Z" fill="#FFE1B8" stroke="black" stroke-width="1.5" stroke-linecap="round" stroke-linejoin="round"/>
<path d="M1055.6 804H304.87" stroke="black" stroke-width="1.5" stroke-linecap="round" stroke-linejoin="round"/>
<path d="M724.7 814.21H187" stroke="black" stroke-width="1.5" stroke-linecap="round" stroke-linejoin="round"/>
<path d="M768.62 814.21H737.47" stroke="black" stroke-width="1.5" stroke-linecap="round" stroke-linejoin="round"/>
<path d="M422.74 658.66L423.69 644.68" stroke="white" stroke-width="1.5" stroke-linecap="round" stroke-linejoin="round"/>
<path d="M412.57 658.64L415.57 622.34C416.36 612.89 409.12 602.67 399.65 602.26L398.65 601.26" stroke="white" stroke-width="1.5" stroke-linecap="round" stroke-linejoin="round"/>
<path fill-rule="evenodd" clip-rule="evenodd" d="M354.95 686.98C355.84 685.22 362.35 672.89 376.69 669.81C383.399 668.443 390.37 669.274 396.57 672.18L416.08 698.57L389.5 704.89C388.74 708.83 387.85 713.59 386.91 719C386.41 721.81 385.8 725.43 385.13 729.63C384.23 735.257 383.41 740.8 382.67 746.26C377.765 744.488 373.237 741.812 369.32 738.37C349.67 720.98 354.33 690.61 354.95 686.98ZM431.14 801.61C430.46 799.76 425.86 786.6 433.35 773.99C436.909 768.128 442.269 763.574 448.63 761.01C457.04 773.64 466.26 786.64 476.35 799.99C482.09 807.504 487.794 814.72 493.46 821.64C488.824 824.015 483.783 825.501 478.6 826.02C452.5 828.61 433.39 804.53 431.14 801.61Z" fill="#F7CCB9"/>
<path d="M376.69 669.81L376.54 669.075L376.532 669.077L376.69 669.81ZM354.95 686.98L354.28 686.642C354.246 686.708 354.223 686.78 354.21 686.854L354.95 686.98ZM396.57 672.18L397.173 671.734C397.099 671.634 397.001 671.554 396.888 671.501L396.57 672.18ZM416.08 698.57L416.253 699.3C416.498 699.241 416.698 699.064 416.784 698.828C416.87 698.591 416.832 698.327 416.683 698.124L416.08 698.57ZM389.5 704.89L389.326 704.16C389.039 704.229 388.819 704.459 388.763 704.748L389.5 704.89ZM386.91 719L387.648 719.131V719.128L386.91 719ZM385.13 729.63L385.87 729.749V729.748L385.13 729.63ZM382.67 746.26L382.415 746.965C382.628 747.042 382.864 747.019 383.058 746.902C383.252 746.784 383.382 746.585 383.413 746.361L382.67 746.26ZM369.32 738.37L368.823 738.932L368.825 738.934L369.32 738.37ZM433.35 773.99L432.709 773.601L432.705 773.607L433.35 773.99ZM431.14 801.61L430.436 801.869C430.463 801.941 430.5 802.008 430.546 802.068L431.14 801.61ZM448.63 761.01L449.254 760.595C449.057 760.299 448.68 760.182 448.35 760.315L448.63 761.01ZM476.35 799.99L475.752 800.442L475.754 800.446L476.35 799.99ZM493.46 821.64L493.802 822.308C494.004 822.204 494.148 822.015 494.194 821.793C494.241 821.571 494.184 821.34 494.04 821.165L493.46 821.64ZM478.6 826.02L478.674 826.767H478.675L478.6 826.02ZM376.532 669.077C361.834 672.234 355.186 684.85 354.28 686.642L355.619 687.319C356.493 685.59 362.865 673.547 376.847 670.543L376.532 669.077ZM396.888 671.501C390.542 668.527 383.407 667.676 376.54 669.075L376.839 670.545C383.391 669.211 390.197 670.022 396.251 672.859L396.888 671.501ZM416.683 698.124L397.173 671.734L395.966 672.626L415.476 699.016L416.683 698.124ZM389.673 705.62L416.253 699.3L415.906 697.84L389.326 704.16L389.673 705.62ZM387.648 719.128C388.588 713.724 389.477 708.969 390.236 705.032L388.763 704.748C388.002 708.691 387.112 713.456 386.171 718.872L387.648 719.128ZM385.87 729.748C386.54 725.552 387.149 721.936 387.648 719.131L386.171 718.869C385.67 721.684 385.059 725.309 384.389 729.512L385.87 729.748ZM383.413 746.361C384.152 740.907 384.971 735.37 385.87 729.749L384.389 729.512C383.488 735.144 382.667 740.693 381.926 746.159L383.413 746.361ZM368.825 738.934C372.812 742.437 377.422 745.162 382.415 746.965L382.924 745.555C378.108 743.815 373.662 741.187 369.815 737.807L368.825 738.934ZM354.21 686.854C353.895 688.702 352.563 697.282 353.789 707.604C355.014 717.921 358.806 730.068 368.823 738.932L369.817 737.808C360.183 729.283 356.48 717.55 355.278 707.427C354.076 697.308 355.384 688.889 355.689 687.106L354.21 686.854ZM432.705 773.607C425.029 786.531 429.745 799.987 430.436 801.869L431.844 801.351C431.176 799.533 426.692 786.669 433.995 774.373L432.705 773.607ZM448.35 760.315C441.839 762.939 436.352 767.6 432.709 773.601L433.991 774.379C437.466 768.655 442.7 764.209 448.911 761.706L448.35 760.315ZM476.949 799.538C466.867 786.2 457.656 773.212 449.254 760.595L448.006 761.426C456.424 774.069 465.653 787.081 475.752 800.442L476.949 799.538ZM494.04 821.165C488.379 814.252 482.681 807.042 476.946 799.535L475.754 800.446C481.499 807.965 487.208 815.189 492.88 822.115L494.04 821.165ZM478.675 826.767C483.951 826.237 489.082 824.725 493.802 822.308L493.118 820.973C488.565 823.305 483.615 824.764 478.525 825.274L478.675 826.767ZM430.546 802.068C431.69 803.553 437.081 810.366 445.485 816.488C453.885 822.606 465.37 828.087 478.674 826.767L478.526 825.274C465.73 826.544 454.61 821.279 446.368 815.275C438.13 809.274 432.84 802.588 431.734 801.152L430.546 802.068Z" fill="black"/>
<path fill-rule="evenodd" clip-rule="evenodd" d="M370.686 676.384C370.945 676.949 371.05 677.572 370.99 678.19C370.15 689.103 369.31 699.993 368.47 710.86C368.28 713.256 368.401 715.666 368.83 718.03C370.152 724.822 372.661 731.328 376.24 737.25C377.3 739.08 380.11 743.77 382.24 743.25C382.73 743.096 383.142 742.759 383.39 742.31L384.21 743.19C384.994 744.024 385.621 744.993 386.06 746.05L392.23 760.91C393.23 763.32 392.29 766.55 389.92 768.81C387.03 771.63 382.99 772.05 380.86 769.81L357.39 743.64C356.779 742.958 356.389 742.108 356.27 741.2L351.19 702.34L332.83 716.51L328.83 712.22C332.422 708.205 335.803 704.006 338.96 699.64C339.055 699.507 339.169 699.347 339.315 699.142C339.85 698.394 340.814 697.047 342.8 694.22C344.088 692.424 344.973 691.149 345.66 690.158C346.488 688.965 347.028 688.186 347.64 687.41C350.85 683.36 356.26 678.55 365.99 674.68C366.551 674.413 367.173 674.301 367.792 674.353C368.411 674.405 369.005 674.621 369.513 674.978C370.022 675.334 370.426 675.82 370.686 676.384ZM434.039 782.846C434.631 783.045 435.16 783.398 435.57 783.87L457.83 808C459.454 809.769 461.303 811.319 463.33 812.61C469.208 816.261 475.683 818.847 482.46 820.25L482.466 820.251C484.511 820.682 489.851 821.808 490.92 819.9C491.138 819.436 491.17 818.907 491.01 818.42H492.22C493.363 818.419 494.497 818.622 495.57 819.02L510.67 824.6C513.11 825.5 514.84 828.39 514.89 831.66C514.95 835.67 512.52 838.96 509.43 838.96L474.28 838.37C473.364 838.353 472.475 838.061 471.73 837.53L439.79 814.83L437.69 837.92H431.81C431.319 832.549 430.541 827.208 429.48 821.92C429.455 821.8 429.427 821.66 429.394 821.493C429.222 820.63 428.9 819.019 428.13 815.41C427.848 814.105 427.613 813.033 427.415 812.129C426.894 809.755 426.625 808.529 426.43 807.24C425.64 802.13 425.79 794.89 429.57 785.13C429.755 784.533 430.097 783.997 430.559 783.576C431.022 783.156 431.588 782.866 432.2 782.738C432.811 782.61 433.446 782.647 434.039 782.846Z" fill="#FFCD88"/>
<path d="M370.99 678.19L370.244 678.117C370.243 678.122 370.243 678.127 370.242 678.132L370.99 678.19ZM370.686 676.384L371.367 676.071L370.686 676.384ZM368.47 710.86L369.218 710.919V710.918L368.47 710.86ZM368.83 718.03L368.092 718.164L368.094 718.173L368.83 718.03ZM376.24 737.25L376.889 736.874L376.882 736.862L376.24 737.25ZM382.24 743.25L382.418 743.979C382.434 743.975 382.45 743.97 382.465 743.965L382.24 743.25ZM383.39 742.31L383.939 741.799C383.775 741.623 383.537 741.536 383.298 741.566C383.06 741.595 382.85 741.737 382.734 741.947L383.39 742.31ZM384.21 743.19L383.661 743.701L383.664 743.704L384.21 743.19ZM386.06 746.05L386.753 745.762L386.06 746.05ZM392.23 760.91L392.923 760.623V760.622L392.23 760.91ZM389.92 768.81L389.402 768.267L389.396 768.273L389.92 768.81ZM380.86 769.81L380.302 770.311C380.307 770.316 380.312 770.322 380.317 770.327L380.86 769.81ZM357.39 743.64L356.831 744.14L356.832 744.141L357.39 743.64ZM356.27 741.2L355.526 741.297L356.27 741.2ZM351.19 702.34L351.934 702.243C351.899 701.977 351.725 701.749 351.476 701.647C351.228 701.544 350.944 701.582 350.732 701.746L351.19 702.34ZM332.83 716.51L332.282 717.022C332.546 717.305 332.982 717.34 333.288 717.104L332.83 716.51ZM328.83 712.22L328.271 711.72C328.012 712.009 328.017 712.448 328.282 712.732L328.83 712.22ZM338.96 699.64L339.568 700.08L339.572 700.074L338.96 699.64ZM339.315 699.142L338.705 698.706L339.315 699.142ZM342.8 694.22L342.191 693.783L342.186 693.789L342.8 694.22ZM345.66 690.158L345.044 689.731L345.66 690.158ZM347.64 687.41L347.052 686.944L347.051 686.946L347.64 687.41ZM365.99 674.68L366.267 675.377C366.282 675.371 366.297 675.364 366.312 675.357L365.99 674.68ZM367.792 674.353L367.729 675.1L367.792 674.353ZM369.513 674.978L369.082 675.591L369.513 674.978ZM435.57 783.87L435.004 784.362C435.008 784.368 435.013 784.373 435.018 784.378L435.57 783.87ZM434.039 782.846L434.277 782.135L434.039 782.846ZM457.83 808L458.382 807.493L458.381 807.491L457.83 808ZM463.33 812.61L462.927 813.242L462.934 813.247L463.33 812.61ZM482.46 820.25L482.614 819.516L482.612 819.515L482.46 820.25ZM482.466 820.251L482.621 819.517H482.62L482.466 820.251ZM490.92 819.9L491.574 820.266C491.583 820.251 491.591 820.236 491.598 820.22L490.92 819.9ZM491.01 818.42V817.67C490.769 817.67 490.543 817.785 490.402 817.981C490.261 818.176 490.222 818.427 490.297 818.655L491.01 818.42ZM492.22 818.42V819.17V818.42ZM495.57 819.02L495.309 819.723H495.31L495.57 819.02ZM510.67 824.6L510.41 825.303V825.304L510.67 824.6ZM514.89 831.66L515.64 831.649V831.648L514.89 831.66ZM509.43 838.96L509.417 839.71H509.43V838.96ZM474.28 838.37L474.266 839.12H474.267L474.28 838.37ZM471.73 837.53L472.164 836.919L471.73 837.53ZM439.79 814.83L440.224 814.219C440.005 814.063 439.72 814.036 439.476 814.148C439.232 814.261 439.067 814.495 439.043 814.762L439.79 814.83ZM437.69 837.92V838.67C438.078 838.67 438.401 838.374 438.437 837.988L437.69 837.92ZM431.81 837.92L431.063 837.988C431.098 838.374 431.422 838.67 431.81 838.67V837.92ZM429.48 821.92L430.215 821.772V821.771L429.48 821.92ZM429.394 821.493L430.129 821.346L429.394 821.493ZM428.13 815.41L428.863 815.253V815.252L428.13 815.41ZM427.415 812.129L428.147 811.968L427.415 812.129ZM426.43 807.24L427.171 807.127V807.125L426.43 807.24ZM429.57 785.13L430.269 785.401C430.275 785.385 430.281 785.369 430.286 785.353L429.57 785.13ZM430.559 783.576L431.064 784.131L430.559 783.576ZM432.2 782.738L432.354 783.472L432.2 782.738ZM371.737 678.263C371.81 677.512 371.682 676.756 371.367 676.071L370.004 676.698C370.208 677.141 370.291 677.631 370.244 678.117L371.737 678.263ZM369.218 710.918C370.058 700.051 370.898 689.161 371.738 678.248L370.242 678.132C369.402 689.046 368.562 699.936 367.722 710.802L369.218 710.918ZM369.568 717.896C369.15 715.595 369.033 713.25 369.218 710.919L367.722 710.801C367.527 713.261 367.651 715.736 368.092 718.164L369.568 717.896ZM376.882 736.862C373.348 731.016 370.872 724.592 369.566 717.887L368.094 718.173C369.433 725.052 371.973 731.641 375.598 737.638L376.882 736.862ZM382.062 742.521C381.833 742.577 381.483 742.516 380.976 742.17C380.48 741.832 379.949 741.299 379.418 740.654C378.359 739.37 377.418 737.788 376.889 736.874L375.591 737.626C376.122 738.542 377.116 740.22 378.26 741.608C378.83 742.3 379.467 742.956 380.131 743.409C380.782 743.853 381.582 744.183 382.418 743.979L382.062 742.521ZM382.734 741.947C382.578 742.228 382.321 742.438 382.015 742.535L382.465 743.965C383.139 743.754 383.705 743.291 384.046 742.673L382.734 741.947ZM384.759 742.679L383.939 741.799L382.841 742.821L383.661 743.701L384.759 742.679ZM386.753 745.762C386.279 744.622 385.602 743.576 384.757 742.676L383.664 743.704C384.386 744.472 384.963 745.364 385.368 746.338L386.753 745.762ZM392.923 760.622L386.753 745.762L385.367 746.338L391.537 761.198L392.923 760.622ZM390.438 769.353C392.962 766.946 394.075 763.4 392.923 760.623L391.537 761.198C392.385 763.241 391.619 766.154 389.403 768.267L390.438 769.353ZM380.317 770.327C382.851 772.992 387.391 772.325 390.444 769.347L389.396 768.273C386.669 770.935 383.129 771.108 381.404 769.293L380.317 770.327ZM356.832 744.141L380.302 770.311L381.418 769.309L357.948 743.139L356.832 744.141ZM355.526 741.297C355.665 742.355 356.12 743.346 356.831 744.14L357.949 743.14C357.439 742.57 357.113 741.86 357.014 741.103L355.526 741.297ZM350.446 702.437L355.526 741.297L357.014 741.103L351.934 702.243L350.446 702.437ZM333.288 717.104L351.648 702.934L350.732 701.746L332.372 715.916L333.288 717.104ZM328.282 712.732L332.282 717.022L333.379 715.999L329.379 711.709L328.282 712.732ZM338.352 699.201C335.211 703.545 331.846 707.724 328.271 711.72L329.389 712.72C332.998 708.685 336.396 704.466 339.568 700.08L338.352 699.201ZM338.705 698.706C338.559 698.91 338.444 699.072 338.348 699.206L339.572 700.074C339.665 699.942 339.779 699.784 339.925 699.578L338.705 698.706ZM342.186 693.789C340.201 696.614 339.239 697.959 338.705 698.706L339.925 699.578C340.461 698.829 341.426 697.48 343.414 694.651L342.186 693.789ZM345.044 689.731C344.357 690.72 343.475 691.992 342.191 693.783L343.41 694.657C344.701 692.856 345.589 691.577 346.276 690.586L345.044 689.731ZM347.051 686.946C346.422 687.743 345.868 688.542 345.044 689.731L346.276 690.586C347.107 689.388 347.634 688.629 348.229 687.875L347.051 686.946ZM365.713 673.983C355.864 677.9 350.346 682.788 347.052 686.944L348.228 687.876C351.354 683.932 356.656 679.2 366.267 675.377L365.713 673.983ZM367.855 673.605C367.104 673.542 366.349 673.679 365.668 674.003L366.312 675.357C366.753 675.148 367.242 675.059 367.729 675.1L367.855 673.605ZM369.944 674.364C369.327 673.931 368.606 673.669 367.855 673.605L367.729 675.1C368.215 675.141 368.683 675.311 369.082 675.591L369.944 674.364ZM371.367 676.071C371.052 675.386 370.561 674.797 369.944 674.364L369.082 675.591C369.482 675.872 369.8 676.254 370.004 676.698L371.367 676.071ZM436.136 783.378C435.638 782.805 434.996 782.376 434.277 782.135L433.8 783.557C434.266 783.713 434.681 783.991 435.004 784.362L436.136 783.378ZM458.381 807.491L436.121 783.361L435.018 784.378L457.278 808.508L458.381 807.491ZM463.733 811.977C461.761 810.722 459.963 809.214 458.382 807.493L457.277 808.507C458.946 810.325 460.845 811.917 462.927 813.242L463.733 811.977ZM482.612 819.515C475.922 818.131 469.528 815.578 463.725 811.973L462.934 813.247C468.887 816.945 475.445 819.564 482.308 820.984L482.612 819.515ZM482.62 819.517L482.614 819.516L482.306 820.984L482.312 820.985L482.62 819.517ZM490.265 819.533C490.15 819.739 489.867 819.952 489.268 820.089C488.685 820.223 487.933 820.251 487.101 820.204C485.442 820.111 483.65 819.734 482.621 819.517L482.312 820.985C483.328 821.199 485.228 821.601 487.017 821.702C487.909 821.752 488.821 821.73 489.603 821.551C490.369 821.376 491.154 821.015 491.574 820.266L490.265 819.533ZM490.297 818.655C490.398 818.959 490.378 819.29 490.241 819.58L491.598 820.22C491.898 819.582 491.943 818.854 491.722 818.185L490.297 818.655ZM492.22 817.67H491.01V819.17H492.22V817.67ZM495.83 818.317C494.675 817.888 493.452 817.669 492.219 817.67L492.22 819.17C493.274 819.169 494.32 819.357 495.309 819.723L495.83 818.317ZM510.93 823.896L495.83 818.316L495.31 819.723L510.41 825.303L510.93 823.896ZM515.64 831.648C515.586 828.168 513.743 824.934 510.929 823.896L510.41 825.304C512.476 826.066 514.093 828.612 514.14 831.671L515.64 831.648ZM509.43 839.71C511.261 839.71 512.847 838.732 513.942 837.262C515.037 835.793 515.672 833.803 515.64 831.649L514.14 831.671C514.167 833.527 513.618 835.187 512.739 836.366C511.863 837.543 510.689 838.21 509.43 838.21V839.71ZM474.267 839.12L509.417 839.71L509.442 838.21L474.292 837.62L474.267 839.12ZM471.295 838.141C472.164 838.759 473.2 839.1 474.266 839.12L474.293 837.62C473.529 837.606 472.787 837.362 472.164 836.919L471.295 838.141ZM439.355 815.441L471.295 838.141L472.164 836.919L440.224 814.219L439.355 815.441ZM438.437 837.988L440.537 814.898L439.043 814.762L436.943 837.852L438.437 837.988ZM431.81 838.67H437.69V837.17H431.81V838.67ZM428.744 822.067C429.8 827.329 430.574 832.644 431.063 837.988L432.556 837.852C432.063 832.454 431.282 827.087 430.215 821.772L428.744 822.067ZM428.658 821.64C428.692 821.807 428.72 821.947 428.745 822.069L430.215 821.771C430.191 821.652 430.163 821.514 430.129 821.346L428.658 821.64ZM427.396 815.566C428.166 819.172 428.487 820.78 428.658 821.64L430.129 821.346C429.957 820.48 429.634 818.866 428.863 815.253L427.396 815.566ZM426.682 812.289C426.881 813.194 427.115 814.264 427.396 815.568L428.863 815.252C428.581 813.945 428.346 812.873 428.147 811.968L426.682 812.289ZM425.688 807.352C425.888 808.671 426.163 809.923 426.682 812.289L428.147 811.968C427.625 809.586 427.362 808.387 427.171 807.127L425.688 807.352ZM428.87 784.859C425.044 794.738 424.878 802.111 425.688 807.354L427.171 807.125C426.401 802.149 426.535 795.042 430.269 785.401L428.87 784.859ZM430.055 783.022C429.494 783.532 429.079 784.183 428.854 784.907L430.286 785.353C430.432 784.884 430.7 784.462 431.064 784.131L430.055 783.022ZM432.045 782.004C431.303 782.16 430.616 782.511 430.055 783.022L431.064 784.131C431.428 783.801 431.873 783.573 432.354 783.472L432.045 782.004ZM434.277 782.135C433.558 781.893 432.788 781.848 432.045 782.004L432.354 783.472C432.835 783.371 433.334 783.4 433.8 783.557L434.277 782.135Z" fill="black"/>
<path fill-rule="evenodd" clip-rule="evenodd" d="M349.289 685.09L353.889 697C355.776 713.286 357.663 729.57 359.549 745.85L357.419 743.64C356.809 742.958 356.418 742.107 356.299 741.2L351.219 702.34L332.859 716.51L328.859 712.22C332.451 708.204 335.832 704.005 338.989 699.64L339.769 698.54C341.349 696.34 342.509 694.68 342.829 694.22C343.799 692.84 345.609 690.28 349.289 685.09ZM425.91 804.47L437.77 809.2L477.44 838.3L474.37 838.37C473.455 838.354 472.566 838.061 471.82 837.53L439.88 814.83L437.78 837.92H431.9C431.409 832.549 430.631 827.208 429.57 821.92L429.3 820.59C428.953 818.887 428.652 817.461 428.451 816.513C428.34 815.986 428.259 815.607 428.22 815.41C428.061 814.571 427.801 813.357 427.409 811.536C427.036 809.8 426.545 807.511 425.91 804.47Z" fill="black"/>
<path fill-rule="evenodd" clip-rule="evenodd" d="M297.92 615.22L295.92 570.51L355.54 571.77L358.103 573.22L357.891 572.96L516.891 577.41C520.597 577.41 524.268 578.14 527.692 579.559C531.117 580.978 534.228 583.057 536.849 585.679C539.469 588.3 541.548 591.413 542.965 594.838C544.383 598.263 545.112 601.933 545.111 605.64V618.49C545.112 622.614 544.209 626.688 542.466 630.425C540.723 634.162 538.181 637.471 535.021 640.12L462.321 701.06L462.222 700.939C462.241 700.979 462.261 701.02 462.28 701.06C468.51 714.13 475.02 726.25 481.51 737.41C488.3 749.08 494.88 759.31 500.81 768.02C488.58 774.55 475.37 781.1 461.18 787.47C448.95 792.96 437.11 797.81 425.76 802.11L370.97 658.44H341.14C329.677 658.44 318.684 653.887 310.579 645.781C302.473 637.676 297.92 626.683 297.92 615.22Z" fill="black"/>
<path d="M462.321 701.06C450.755 675.58 439.171 650.107 427.571 624.64C424.276 617.393 419.471 610.933 413.479 605.692C407.486 600.451 400.443 596.55 392.821 594.25L362.951 585.25" stroke="white" stroke-width="1.5" stroke-linecap="round" stroke-linejoin="round"/>
<path d="M435.4 642.45L463 626.08" stroke="white" stroke-width="1.5" stroke-linecap="round" stroke-linejoin="round"/>
<path d="M522.24 553.85C524.28 543.81 526.324 533.77 528.37 523.73L449.73 522.73L409.65 494.39L370.57 515.04C387.141 529.079 405.768 540.492 425.8 548.88C431.72 551.35 439.4 557.54 449.8 557.08L522.24 553.85Z" fill="#F7CCB9" stroke="black" stroke-width="1.5" stroke-linecap="round" stroke-linejoin="round"/>
<path d="M368.75 456.06C372.5 453.913 376.76 452.818 381.08 452.89C381.72 452.89 391.72 453.08 398.81 459.56C398.81 459.56 399.34 460.04 399.81 460.56C406.4 467.36 408.25 483.08 408.81 490.56L421.07 503.56L376.83 512.49C374.17 493.677 371.477 474.867 368.75 456.06Z" fill="#AD85AD" stroke="black" stroke-width="1.5" stroke-linecap="round" stroke-linejoin="round"/>
<path d="M386.04 474.23C387.87 490.65 390.29 507.89 393.44 525.83C395.92 539.91 398.643 553.414 401.61 566.34L393.19 574.53C383.743 554.604 374.296 534.674 364.85 514.74L386.04 474.23Z" fill="#AD85AD" stroke="black" stroke-width="1.5" stroke-linecap="round" stroke-linejoin="round"/>
<path d="M371.821 454.64C375.176 455.929 378.3 457.753 381.071 460.04C387.141 465.18 391.251 473.23 389.831 494.7C388.831 509.86 386.341 512.6 385.561 522.22C384.761 532.1 386.011 546.37 396.031 564.07C385.9 569.718 374.894 573.629 363.471 575.64C345.123 578.897 326.253 577.522 308.571 571.64L306.981 528.71C302.895 506.15 328.1 475.56 324 453" fill="white"/>
<path d="M371.821 454.64C375.176 455.929 378.3 457.753 381.071 460.04C387.141 465.18 391.251 473.23 389.831 494.7C388.831 509.86 386.341 512.6 385.561 522.22C384.761 532.1 386.011 546.37 396.031 564.07C385.9 569.718 374.894 573.629 363.471 575.64C345.123 578.897 326.253 577.522 308.571 571.64L306.981 528.71C302.895 506.15 328.1 475.56 324 453L371.821 454.64Z" stroke="black" stroke-width="1.5" stroke-linecap="round" stroke-linejoin="round"/>
<path d="M339.931 509.84C339.321 525.78 337.731 530.36 337.041 546.98C336.601 557.84 335.241 574.56 335.331 580.47L291.831 578.47C290.021 575.29 288.703 571.855 287.921 568.28C284.921 554.33 296.631 545.68 294.381 530.16C290.748 505.082 293.123 479.5 301.311 455.52C308.961 454.64 316.761 453.96 324.411 453.08C330.701 459.964 335.377 468.162 338.101 477.08C338.871 479.64 340.811 486.58 339.931 509.84Z" fill="#AD85AD" stroke="black" stroke-width="1.5" stroke-linecap="round" stroke-linejoin="round"/>
<path d="M270.201 501.21C275.001 521.32 270.091 541.93 274.881 562.04C276.092 567.104 279.021 571.592 283.169 574.739C287.317 577.887 292.428 579.498 297.631 579.3C328.821 578.09 368.311 578.66 399.501 577.46C411.401 575.6 420.111 569.19 420.371 563.36C420.671 556.62 409.801 547.29 392.691 547.36C368.691 546.11 334.691 545.83 310.691 544.58L311.351 484.87C298.741 490.18 282.811 495.95 270.201 501.21Z" fill="#F7CCB9" stroke="black" stroke-width="1.5" stroke-linecap="round" stroke-linejoin="round"/>
<path d="M315.51 488.25L317.1 534.46L252 533.46C257.433 517.34 262.867 501.22 268.3 485.1C267.695 479.677 268.731 474.196 271.275 469.368C273.819 464.54 277.754 460.587 282.57 458.02C293.18 452.44 306.9 454.72 313.79 462.3C315.227 463.892 316.386 465.714 317.22 467.69" fill="#AD85AD"/>
<path d="M315.51 488.25L317.1 534.46L252 533.46C257.433 517.34 262.867 501.22 268.3 485.1C267.695 479.677 268.731 474.196 271.275 469.368C273.819 464.54 277.754 460.587 282.57 458.02C293.18 452.44 306.9 454.72 313.79 462.3C315.227 463.892 316.386 465.714 317.22 467.69" stroke="black" stroke-width="1.5" stroke-linecap="round" stroke-linejoin="round"/>
<path d="M385.9 547.94C391.264 545.689 396.952 544.309 402.75 543.85C407.706 543.241 412.732 543.581 417.56 544.85C420.67 545.74 432.74 549.17 435.43 558.72C436.076 561.111 436.135 563.622 435.6 566.04" fill="#F7CCB9"/>
<path d="M385.9 547.94C391.264 545.689 396.952 544.309 402.75 543.85C407.706 543.241 412.732 543.581 417.56 544.85C420.67 545.74 432.74 549.17 435.43 558.72C436.076 561.111 436.135 563.622 435.6 566.04" stroke="black" stroke-width="1.5" stroke-linecap="round" stroke-linejoin="round"/>
<path d="M406.84 560.19L409.51 570.51C409.815 571.704 410.581 572.727 411.641 573.355C412.701 573.984 413.966 574.165 415.16 573.86C416.353 573.555 417.377 572.789 418.005 571.729C418.633 570.669 418.815 569.404 418.51 568.21C417.87 565.31 417.22 562.41 416.58 559.51" fill="#F7CCB9"/>
<path d="M406.84 560.19L409.51 570.51C409.815 571.704 410.581 572.727 411.641 573.355C412.701 573.984 413.966 574.165 415.16 573.86C416.353 573.555 417.377 572.789 418.005 571.729C418.633 570.669 418.815 569.404 418.51 568.21C417.87 565.31 417.22 562.41 416.58 559.51" stroke="black" stroke-width="1.5" stroke-linecap="round" stroke-linejoin="round"/>
<path d="M416.57 559.51C417.677 563.177 418.79 566.843 419.91 570.51C420.215 571.697 420.979 572.714 422.034 573.338C423.089 573.961 424.348 574.14 425.535 573.835C426.722 573.53 427.739 572.766 428.363 571.711C428.986 570.656 429.165 569.397 428.86 568.21L426.39 558.64" fill="#F7CCB9"/>
<path d="M416.57 559.51C417.677 563.177 418.79 566.843 419.91 570.51C420.215 571.697 420.979 572.714 422.034 573.338C423.089 573.961 424.348 574.14 425.535 573.835C426.722 573.53 427.739 572.766 428.363 571.711C428.986 570.656 429.165 569.397 428.86 568.21L426.39 558.64" stroke="black" stroke-width="1.5" stroke-linecap="round" stroke-linejoin="round"/>
<path d="M426.73 560.19L429.41 570.51C429.561 571.101 429.827 571.657 430.193 572.145C430.559 572.633 431.017 573.044 431.542 573.355C432.066 573.666 432.647 573.871 433.251 573.958C433.855 574.044 434.47 574.011 435.06 573.86C435.651 573.709 436.207 573.443 436.695 573.078C437.183 572.712 437.595 572.254 437.906 571.729C438.217 571.204 438.421 570.624 438.508 570.02C438.595 569.416 438.561 568.801 438.41 568.21C437.437 565.05 436.46 561.894 435.48 558.74" fill="#F7CCB9"/>
<path d="M426.73 560.19L429.41 570.51C429.561 571.101 429.827 571.657 430.193 572.145C430.559 572.633 431.017 573.044 431.542 573.355C432.066 573.666 432.647 573.871 433.251 573.958C433.855 574.044 434.47 574.011 435.06 573.86C435.651 573.709 436.207 573.443 436.695 573.078C437.183 572.712 437.595 572.254 437.906 571.729C438.217 571.204 438.421 570.624 438.508 570.02C438.595 569.416 438.561 568.801 438.41 568.21C437.437 565.05 436.46 561.894 435.48 558.74" stroke="black" stroke-width="1.5" stroke-linecap="round" stroke-linejoin="round"/>
<path d="M268.6 484.11L270.8 492.92" stroke="black" stroke-width="1.5" stroke-linecap="round" stroke-linejoin="round"/>
<path d="M512.2 568.94L490.75 576.94H351.48C351.001 576.941 350.527 576.844 350.086 576.655C349.646 576.467 349.248 576.191 348.918 575.843C348.588 575.496 348.332 575.086 348.165 574.636C347.999 574.187 347.925 573.709 347.95 573.23V573.16C347.993 572.255 348.383 571.4 349.038 570.773C349.693 570.146 350.563 569.794 351.47 569.79L512.2 568.94Z" fill="#82AAD3" stroke="black" stroke-width="1.5" stroke-linecap="round" stroke-linejoin="round"/>
<path d="M542.161 498.34L520.711 576.98H377.711L397.121 497.32L542.161 498.34Z" fill="#82AAD3" stroke="black" stroke-width="1.5" stroke-linecap="round" stroke-linejoin="round"/>
<path d="M463.91 540.18C464.861 539.776 465.659 539.08 466.189 538.193C466.718 537.305 466.952 536.272 466.856 535.243C466.759 534.214 466.338 533.243 465.653 532.469C464.968 531.695 464.055 531.159 463.045 530.939C462.035 530.719 460.982 530.825 460.037 531.244C459.091 531.662 458.304 532.37 457.788 533.265C457.272 534.16 457.054 535.197 457.166 536.224C457.277 537.251 457.713 538.217 458.41 538.98C457.008 539.325 455.764 540.134 454.881 541.277C453.998 542.419 453.528 543.826 453.547 545.27C453.567 546.713 454.074 548.107 454.987 549.226C455.9 550.344 457.164 551.12 458.575 551.428C459.985 551.736 461.458 551.557 462.754 550.92C464.05 550.284 465.092 549.228 465.71 547.923C466.329 546.619 466.488 545.144 466.161 543.738C465.834 542.331 465.04 541.078 463.91 540.18Z" fill="white" stroke="black" stroke-width="1.5" stroke-linecap="round" stroke-linejoin="round"/>
<path opacity="0.17" d="M387.61 404.148C393.47 404.148 398.22 399.397 398.22 393.538C398.22 387.678 393.47 382.928 387.61 382.928C381.75 382.928 377 387.678 377 393.538C377 399.397 381.75 404.148 387.61 404.148Z" fill="white"/>
<path d="M387.725 404.148C393.585 404.148 398.335 399.397 398.335 393.538C398.335 387.678 393.585 382.928 387.725 382.928C381.865 382.928 377.115 387.678 377.115 393.538C377.115 399.397 381.865 404.148 387.725 404.148Z" stroke="black" stroke-width="1.5" stroke-linecap="round" stroke-linejoin="round"/>
<path opacity="0.17" d="M357.706 404.148C363.565 404.148 368.316 399.397 368.316 393.538C368.316 387.678 363.565 382.928 357.706 382.928C351.846 382.928 347.096 387.678 347.096 393.538C347.096 399.397 351.846 404.148 357.706 404.148Z" fill="white"/>
<path d="M357.706 404.148C363.565 404.148 368.316 399.397 368.316 393.538C368.316 387.678 363.565 382.928 357.706 382.928C351.846 382.928 347.096 387.678 347.096 393.538C347.096 399.397 351.846 404.148 357.706 404.148Z" stroke="black" stroke-width="1.5" stroke-linecap="round" stroke-linejoin="round"/>
<path d="M376.795 391.908H368.305" stroke="black" stroke-width="1.5" stroke-linecap="round" stroke-linejoin="round"/>
<path d="M357.706 404.148C363.565 404.148 368.316 399.397 368.316 393.538C368.316 387.678 363.565 382.928 357.706 382.928C351.846 382.928 347.096 387.678 347.096 393.538C347.096 399.397 351.846 404.148 357.706 404.148Z" stroke="black" stroke-width="1.5" stroke-linecap="round" stroke-linejoin="round"/>
<path d="M350.551 378.91C349.571 394.99 348.594 411.063 347.621 427.13L376.621 426.67C389.451 426.46 399.181 414.56 396.291 402.07C396.201 401.69 396.101 401.3 395.991 400.92C394.651 396.202 392.088 391.923 388.562 388.514C385.036 385.105 380.672 382.689 375.911 381.51L350.551 378.91Z" fill="black" stroke="black" stroke-width="1.5" stroke-linecap="round" stroke-linejoin="round"/>
<path d="M384.862 393.39C383.942 383.28 387.652 382.13 386.142 373.18C385.652 370.3 385.012 366.55 382.472 363.18C376.232 354.76 363.692 355.33 361.662 355.45C359.182 355.6 357.142 355.37 355.822 355.45L340.732 407.58L336.732 426.58L324.432 453.84C330.492 458.559 337.782 461.434 345.432 462.12C354.963 462.855 364.449 460.206 372.222 454.64C369.352 445.77 366.482 436.64 363.612 427.78C366.841 428.457 370.191 428.286 373.335 427.283C376.479 426.281 379.31 424.481 381.552 422.06C383.988 419.349 385.616 416.009 386.252 412.42C386.53 410.69 386.564 408.93 386.352 407.19C385.632 400.46 385.282 398.04 384.862 393.39Z" fill="#F7CCB9" stroke="black" stroke-width="1.5" stroke-linecap="round" stroke-linejoin="round"/>
<path d="M371.321 403.64H372.971C373.596 403.639 374.209 403.468 374.743 403.143C375.278 402.818 375.713 402.353 376.002 401.799C376.29 401.244 376.421 400.621 376.381 399.997C376.34 399.373 376.129 398.772 375.771 398.26L371.311 391.88" stroke="black" stroke-width="1.5" stroke-linecap="round" stroke-linejoin="round"/>
<path d="M376.55 407.7C376.593 407.702 376.634 407.714 376.671 407.736C376.707 407.758 376.737 407.79 376.758 407.827C376.779 407.864 376.791 407.906 376.791 407.948C376.791 407.991 376.781 408.033 376.76 408.07C376.307 408.885 375.644 409.563 374.841 410.036C374.037 410.508 373.122 410.757 372.19 410.757C371.258 410.757 370.343 410.508 369.539 410.036C368.736 409.563 368.073 408.885 367.62 408.07C367.599 408.034 367.588 407.992 367.588 407.95C367.588 407.907 367.599 407.866 367.621 407.829C367.642 407.793 367.673 407.762 367.709 407.742C367.746 407.721 367.788 407.71 367.83 407.71L376.55 407.7Z" fill="black"/>
<path fill-rule="evenodd" clip-rule="evenodd" d="M360.691 394.22C360.691 395.706 360.06 396.91 359.281 396.91C358.502 396.91 357.871 395.706 357.871 394.22C357.871 392.735 358.502 391.53 359.281 391.53C360.06 391.53 360.691 392.735 360.691 394.22ZM382.261 394.22C382.261 395.706 381.63 396.91 380.851 396.91C380.073 396.91 379.441 395.706 379.441 394.22C379.441 392.735 380.073 391.53 380.851 391.53C381.63 391.53 382.261 392.735 382.261 394.22Z" fill="black"/>
<path d="M354.281 389.57C355.055 388.195 356.302 387.15 357.791 386.63L354.281 389.57Z" fill="white"/>
<path d="M384.871 389.57C384.098 388.195 382.85 387.15 381.361 386.63L384.871 389.57Z" fill="white"/>
<path fill-rule="evenodd" clip-rule="evenodd" d="M358.039 387.338C358.43 387.201 358.636 386.774 358.499 386.383C358.363 385.992 357.935 385.785 357.544 385.922C355.883 386.503 354.49 387.669 353.628 389.202C353.425 389.563 353.553 390.021 353.914 390.224C354.275 390.427 354.732 390.299 354.935 389.938C355.619 388.722 356.722 387.798 358.039 387.338ZM381.609 385.922C381.218 385.785 380.79 385.992 380.654 386.383C380.517 386.774 380.723 387.201 381.114 387.338C382.431 387.798 383.534 388.722 384.218 389.938C384.421 390.299 384.878 390.427 385.239 390.224C385.6 390.021 385.728 389.563 385.525 389.202C384.662 387.669 383.27 386.503 381.609 385.922Z" fill="black"/>
<path d="M392.07 374.96C391.455 368.501 388.453 362.503 383.65 358.14C376.16 351.58 364.84 350.14 354.78 354.48L344.23 355.05C343.67 355.05 330.41 355.31 323.57 366.43C320.471 371.681 319.427 377.895 320.64 383.87C314.039 387.836 309.26 394.235 307.33 401.69C307.23 402.09 307.13 402.48 307.04 402.88C306.287 406.027 306.256 409.303 306.949 412.464C307.641 415.624 309.04 418.587 311.04 421.13C312.686 423.234 314.785 424.94 317.181 426.121C319.577 427.301 322.209 427.927 324.88 427.95H330.88C332.447 427.944 334.008 427.752 335.53 427.38L336.13 429.12L336.81 427.05C340.993 425.738 344.63 423.087 347.159 419.506C349.689 415.925 350.971 411.612 350.81 407.23L349.81 378.97C353.136 377.439 356.598 376.22 360.15 375.33C370.357 372.87 381.02 373.028 391.15 375.79L392.21 376.07L392.07 374.96Z" fill="black"/>
<path opacity="0.17" d="M388.06 404.22C393.92 404.22 398.67 399.47 398.67 393.61C398.67 387.75 393.92 383 388.06 383C382.2 383 377.45 387.75 377.45 393.61C377.45 399.47 382.2 404.22 388.06 404.22Z" fill="white"/>
<path opacity="0.17" d="M358.03 404.22C363.89 404.22 368.64 399.47 368.64 393.61C368.64 387.75 363.89 383 358.03 383C352.17 383 347.42 387.75 347.42 393.61C347.42 399.47 352.17 404.22 358.03 404.22Z" fill="white"/>
<path opacity="0.17" d="M358.03 404.22C363.89 404.22 368.64 399.47 368.64 393.61C368.64 387.75 363.89 383 358.03 383C352.17 383 347.42 387.75 347.42 393.61C347.42 399.47 352.17 404.22 358.03 404.22Z" fill="white"/>
<path opacity="0.17" d="M387.61 404.22C393.47 404.22 398.22 399.47 398.22 393.61C398.22 387.75 393.47 383 387.61 383C381.75 383 377 387.75 377 393.61C377 399.47 381.75 404.22 387.61 404.22Z" fill="white"/>
<path d="M388.061 404.22C393.921 404.22 398.671 399.47 398.671 393.61C398.671 387.75 393.921 383 388.061 383C382.201 383 377.451 387.75 377.451 393.61C377.451 399.47 382.201 404.22 388.061 404.22Z" stroke="black" stroke-width="1.5" stroke-linecap="round" stroke-linejoin="round"/>
<path d="M358.03 404.22C363.89 404.22 368.64 399.47 368.64 393.61C368.64 387.75 363.89 383 358.03 383C352.17 383 347.42 387.75 347.42 393.61C347.42 399.47 352.17 404.22 358.03 404.22Z" stroke="black" stroke-width="1.5" stroke-linecap="round" stroke-linejoin="round"/>
<path d="M377.121 391.98H368.631" stroke="black" stroke-width="1.5" stroke-linecap="round" stroke-linejoin="round"/>
<path d="M358.03 404.22C363.89 404.22 368.64 399.47 368.64 393.61C368.64 387.75 363.89 383 358.03 383C352.17 383 347.42 387.75 347.42 393.61C347.42 399.47 352.17 404.22 358.03 404.22Z" stroke="black" stroke-width="1.5" stroke-linecap="round" stroke-linejoin="round"/>
<path d="M363.591 427.69L355.791 425.87" stroke="black" stroke-width="1.5" stroke-linecap="round" stroke-linejoin="round"/>
</svg>
