<svg width="1220" height="920" viewBox="0 0 1220 920" fill="none" xmlns="http://www.w3.org/2000/svg">
<path d="M997.55 532.74H822V802.48H997.55V532.74Z" stroke="#CCCCCC" stroke-width="1.5" stroke-linecap="round" stroke-linejoin="round"/>
<path d="M940.81 515.181H878.73V532.731H940.81V515.181Z" stroke="#CCCCCC" stroke-width="1.5" stroke-linecap="round" stroke-linejoin="round"/>
<path d="M972.81 437.681H846.73C841.936 437.681 838.05 441.567 838.05 446.361V467.321C838.05 472.115 841.936 476.001 846.73 476.001H972.81C977.604 476.001 981.49 472.115 981.49 467.321V446.361C981.49 441.567 977.604 437.681 972.81 437.681Z" stroke="#CCCCCC" stroke-width="1.5" stroke-linecap="round" stroke-linejoin="round"/>
<path d="M972.81 385.021H846.73C841.936 385.021 838.05 388.907 838.05 393.701V414.661C838.05 419.454 841.936 423.341 846.73 423.341H972.81C977.604 423.341 981.49 419.454 981.49 414.661V393.701C981.49 388.907 977.604 385.021 972.81 385.021Z" stroke="#CCCCCC" stroke-width="1.5" stroke-linecap="round" stroke-linejoin="round"/>
<path d="M866.661 333H952.811C960.409 333 967.696 336.018 973.069 341.391C978.442 346.764 981.461 354.052 981.461 361.65V364.65C981.461 366.432 980.753 368.142 979.492 369.402C978.232 370.662 976.524 371.37 974.742 371.37H844.742C842.959 371.37 841.25 370.662 839.99 369.402C838.73 368.142 838.021 366.432 838.021 364.65V361.65C838.021 354.053 841.039 346.768 846.409 341.395C851.78 336.022 859.064 333.003 866.661 333Z" stroke="#CCCCCC" stroke-width="1.5" stroke-linecap="round" stroke-linejoin="round"/>
<path d="M925.401 507.471H894.141V514.961H925.401V507.471Z" stroke="#CCCCCC" stroke-width="1.5" stroke-linecap="round" stroke-linejoin="round"/>
<path d="M977.74 423.091V438.061" stroke="#CCCCCC" stroke-width="1.5" stroke-linecap="round" stroke-linejoin="round"/>
<path d="M976.66 371.091C977.361 374.172 977.714 377.321 977.71 380.481V385.891" stroke="#CCCCCC" stroke-width="1.5" stroke-linecap="round" stroke-linejoin="round"/>
<path d="M841.16 386.521V380.521C841.158 377.251 841.537 373.992 842.29 370.811" stroke="#CCCCCC" stroke-width="1.5" stroke-linecap="round" stroke-linejoin="round"/>
<path d="M841.16 438.901V422.051" stroke="#CCCCCC" stroke-width="1.5" stroke-linecap="round" stroke-linejoin="round"/>
<path d="M976.501 475.831C974.22 484.903 968.975 492.955 961.599 498.708C954.222 504.462 945.136 507.588 935.781 507.591H883.121C873.756 507.587 864.661 504.453 857.281 498.688C849.902 492.922 844.66 484.856 842.391 475.771" stroke="#CCCCCC" stroke-width="1.5" stroke-linecap="round" stroke-linejoin="round"/>
<path d="M970.14 574.841H849.4V776.791H970.14V574.841Z" stroke="#CCCCCC" stroke-width="1.5" stroke-linecap="round" stroke-linejoin="round"/>
<path d="M970.14 674.03H849.4V677.6H970.14V674.03Z" stroke="#CCCCCC" stroke-width="1.5" stroke-linecap="round" stroke-linejoin="round"/>
<path d="M970.14 662.04H849.4V665.61H970.14V662.04Z" stroke="#CCCCCC" stroke-width="1.5" stroke-linecap="round" stroke-linejoin="round"/>
<path d="M1012.85 291.061H199V306.781H1012.85V291.061Z" stroke="#CCCCCC" stroke-width="1.5" stroke-linecap="round" stroke-linejoin="round"/>
<path d="M222.579 212.86H205.369V291.06H222.579V212.86Z" stroke="#CCCCCC" stroke-width="1.5" stroke-linecap="round" stroke-linejoin="round"/>
<path d="M238.299 226.701H222.579V291.061H238.299V226.701Z" stroke="#CCCCCC" stroke-width="1.5" stroke-linecap="round" stroke-linejoin="round"/>
<path d="M252.249 200.411H238.289V291.061H252.249V200.411Z" stroke="#CCCCCC" stroke-width="1.5" stroke-linecap="round" stroke-linejoin="round"/>
<path d="M472.91 144.57H452.14V291.06H472.91V144.57Z" stroke="#CCCCCC" stroke-width="1.5" stroke-linecap="round" stroke-linejoin="round"/>
<path d="M494.23 188.631H473V291.061H494.23V188.631Z" stroke="#CCCCCC" stroke-width="1.5" stroke-linecap="round" stroke-linejoin="round"/>
<path d="M515.37 165.051H494.14V291.061H515.37V165.051Z" stroke="#CCCCCC" stroke-width="1.5" stroke-linecap="round" stroke-linejoin="round"/>
<path d="M536.419 165.051H515.189V291.061H536.419V165.051Z" stroke="#CCCCCC" stroke-width="1.5" stroke-linecap="round" stroke-linejoin="round"/>
<path d="M788.859 160.421H754.529V290.921H788.859V160.421Z" stroke="#CCCCCC" stroke-width="1.5" stroke-linecap="round" stroke-linejoin="round"/>
<path d="M432.119 157.48H297.789V291.06H432.119V157.48Z" stroke="#CCCCCC" stroke-width="1.5" stroke-linecap="round" stroke-linejoin="round"/>
<path d="M419.51 170.011H310.39V278.521H419.51V170.011Z" stroke="#CCCCCC" stroke-width="1.5" stroke-linecap="round" stroke-linejoin="round"/>
<path d="M351.829 184.23H339.909C333.282 184.23 327.909 189.603 327.909 196.23V216.01C327.909 222.638 333.282 228.01 339.909 228.01H351.829C358.457 228.01 363.829 222.638 363.829 216.01V196.23C363.829 189.603 358.457 184.23 351.829 184.23Z" stroke="#CCCCCC" stroke-width="1.5" stroke-linecap="round" stroke-linejoin="round"/>
<path d="M389.569 188.161H377.649C371.022 188.161 365.649 193.534 365.649 200.161V219.941C365.649 226.569 371.022 231.941 377.649 231.941H389.569C396.197 231.941 401.569 226.569 401.569 219.941V200.161C401.569 193.534 396.197 188.161 389.569 188.161Z" stroke="#CCCCCC" stroke-width="1.5" stroke-linecap="round" stroke-linejoin="round"/>
<path d="M310.319 268.421L321.019 246.971C321.732 245.547 322.827 244.349 324.182 243.512C325.536 242.675 327.097 242.231 328.689 242.231H340.599V228.011" stroke="#CCCCCC" stroke-width="1.5" stroke-linecap="round" stroke-linejoin="round"/>
<path d="M375.619 246.531H378.239V232.311" stroke="#CCCCCC" stroke-width="1.5" stroke-linecap="round" stroke-linejoin="round"/>
<path d="M387.47 278.251C386.2 275.841 376.62 249.381 375.35 246.971C374.634 245.547 373.536 244.351 372.181 243.514C370.825 242.677 369.263 242.233 367.67 242.231H355.76V228.011" stroke="#CCCCCC" stroke-width="1.5" stroke-linecap="round" stroke-linejoin="round"/>
<path d="M419.21 273.51C417.94 271.1 408.99 254.1 407.71 251.69C407.003 250.254 405.908 249.045 404.549 248.2C403.189 247.356 401.62 246.909 400.02 246.91H388.13V232.69" stroke="#CCCCCC" stroke-width="1.5" stroke-linecap="round" stroke-linejoin="round"/>
<path d="M685.91 290.501H650.55L634.84 214.631H699.66L685.91 290.501Z" stroke="#CCCCCC" stroke-width="1.5" stroke-linecap="round" stroke-linejoin="round"/>
<path d="M647.95 214.631L609.13 148.151C608.951 147.826 608.895 147.449 608.972 147.087C609.049 146.725 609.254 146.403 609.549 146.179C609.844 145.956 610.21 145.846 610.579 145.87C610.948 145.894 611.296 146.051 611.56 146.311L643.74 179.511C639.867 161.851 635.993 144.184 632.12 126.511C632.051 126.14 632.12 125.757 632.315 125.434C632.51 125.111 632.816 124.871 633.176 124.759C633.536 124.647 633.924 124.67 634.268 124.825C634.611 124.981 634.886 125.256 635.04 125.601L659.74 186.011L670.35 124.091C670.453 123.754 670.667 123.463 670.959 123.265C671.25 123.068 671.6 122.976 671.951 123.005C672.301 123.035 672.632 123.183 672.886 123.426C673.141 123.669 673.304 123.992 673.35 124.341L674 185.261L710.41 133.461C710.619 133.155 710.932 132.936 711.29 132.843C711.648 132.751 712.028 132.791 712.359 132.957C712.689 133.123 712.949 133.404 713.089 133.746C713.229 134.089 713.24 134.47 713.12 134.821C704.387 161.261 695.65 187.704 686.91 214.151" stroke="#CCCCCC" stroke-width="1.5" stroke-linecap="round" stroke-linejoin="round"/>
<path d="M772.11 259.911C775.987 259.911 779.13 256.768 779.13 252.891C779.13 249.014 775.987 245.871 772.11 245.871C768.233 245.871 765.09 249.014 765.09 252.891C765.09 256.768 768.233 259.911 772.11 259.911Z" stroke="#CCCCCC" stroke-width="1.5" stroke-linecap="round" stroke-linejoin="round"/>
<path d="M778.95 174.03C778.61 175.592 777.746 176.99 776.502 177.993C775.258 178.995 773.708 179.542 772.11 179.542C770.512 179.542 768.962 178.995 767.718 177.993C766.473 176.99 765.61 175.592 765.27 174.03H759.67V237.51H784.56V174.03H778.95Z" stroke="#CCCCCC" stroke-width="1.5" stroke-linecap="round" stroke-linejoin="round"/>
<path d="M823.099 160.421H788.77V290.921H823.099V160.421Z" stroke="#CCCCCC" stroke-width="1.5" stroke-linecap="round" stroke-linejoin="round"/>
<path d="M1002.75 270.57H884.739V290.92H1002.75V270.57Z" stroke="#CCCCCC" stroke-width="1.5" stroke-linecap="round" stroke-linejoin="round"/>
<path d="M993.399 252.521H884.699V270.711H993.399V252.521Z" stroke="#CCCCCC" stroke-width="1.5" stroke-linecap="round" stroke-linejoin="round"/>
<path d="M993.399 234.001H875.159V252.191H993.399V234.001Z" stroke="#CCCCCC" stroke-width="1.5" stroke-linecap="round" stroke-linejoin="round"/>
<path d="M1009.86 215.851H891.619V234.041H1009.86V215.851Z" stroke="#CCCCCC" stroke-width="1.5" stroke-linecap="round" stroke-linejoin="round"/>
<path d="M806.349 259.911C810.226 259.911 813.369 256.768 813.369 252.891C813.369 249.014 810.226 245.871 806.349 245.871C802.472 245.871 799.329 249.014 799.329 252.891C799.329 256.768 802.472 259.911 806.349 259.911Z" stroke="#CCCCCC" stroke-width="1.5" stroke-linecap="round" stroke-linejoin="round"/>
<path d="M813.189 174.03C812.849 175.592 811.986 176.99 810.741 177.993C809.497 178.995 807.947 179.542 806.349 179.542C804.751 179.542 803.201 178.995 801.957 177.993C800.713 176.99 799.849 175.592 799.509 174.03H793.909V237.51H818.789V174.03H813.189Z" stroke="#CCCCCC" stroke-width="1.5" stroke-linecap="round" stroke-linejoin="round"/>
<path d="M327.729 199.021H363.22" stroke="#CCCCCC" stroke-width="1.5" stroke-linecap="round" stroke-linejoin="round"/>
<path d="M366.029 204.891H400.999" stroke="#CCCCCC" stroke-width="1.5" stroke-linecap="round" stroke-linejoin="round"/>
<path d="M490 437.82H203V453.54H490V437.82Z" stroke="#CCCCCC" stroke-width="1.5" stroke-linecap="round" stroke-linejoin="round"/>
<path d="M225.269 328H205.439V437.45H225.269V328Z" stroke="#CCCCCC" stroke-width="1.5" stroke-linecap="round" stroke-linejoin="round"/>
<path d="M244.909 328H225.079V437.45H244.909V328Z" stroke="#CCCCCC" stroke-width="1.5" stroke-linecap="round" stroke-linejoin="round"/>
<path d="M374.379 369.351H327.229V437.451H374.379V369.351Z" stroke="#CCCCCC" stroke-width="1.5" stroke-linecap="round" stroke-linejoin="round"/>
<path d="M361.17 383.94H337.34V400.59H361.17V383.94Z" stroke="#CCCCCC" stroke-width="1.5" stroke-linecap="round" stroke-linejoin="round"/>
<path d="M367.079 369.16V436.7" stroke="#CCCCCC" stroke-width="1.5" stroke-linecap="round" stroke-linejoin="round"/>
<path d="M434.25 437.64C451.713 437.64 465.87 423.484 465.87 406.02C465.87 388.557 451.713 374.4 434.25 374.4C416.787 374.4 402.63 388.557 402.63 406.02C402.63 423.484 416.787 437.64 434.25 437.64Z" stroke="#CCCCCC" stroke-width="1.5" stroke-linecap="round" stroke-linejoin="round"/>
<path d="M434.25 431.09C448.095 431.09 459.32 419.866 459.32 406.02C459.32 392.174 448.095 380.95 434.25 380.95C420.404 380.95 409.18 392.174 409.18 406.02C409.18 419.866 420.404 431.09 434.25 431.09Z" stroke="#CCCCCC" stroke-width="1.5" stroke-linecap="round" stroke-linejoin="round"/>
<path d="M434.249 374.21C438.281 374.21 441.549 370.942 441.549 366.91C441.549 362.879 438.281 359.61 434.249 359.61C430.218 359.61 426.949 362.879 426.949 366.91C426.949 370.942 430.218 374.21 434.249 374.21Z" stroke="#CCCCCC" stroke-width="1.5" stroke-linecap="round" stroke-linejoin="round"/>
<path d="M1044.6 804H293.87" stroke="black" stroke-width="1.5" stroke-linecap="round" stroke-linejoin="round"/>
<path d="M713.7 814.21H176" stroke="black" stroke-width="1.5" stroke-linecap="round" stroke-linejoin="round"/>
<path d="M757.62 814.21H726.47" stroke="black" stroke-width="1.5" stroke-linecap="round" stroke-linejoin="round"/>
<path d="M433.805 690.05H298.595C284.505 690.05 273.295 676.48 274.035 660.31L280.975 508.9C281.665 493.9 292.455 482.13 305.535 482.13H417.405C431.495 482.13 442.705 495.71 441.965 511.87L433.805 690.05Z" fill="#F25A33" stroke="black" stroke-width="1.5" stroke-linecap="round" stroke-linejoin="round"/>
<path fill-rule="evenodd" clip-rule="evenodd" d="M282.854 803.7L310.773 692.49L326.424 693.82L289.944 803.7H282.854ZM421.395 803.7L393.475 692.49L377.825 693.82L414.305 803.7H421.395Z" fill="#FFCD88"/>
<path d="M310.774 692.49L310.838 691.743C310.472 691.712 310.137 691.951 310.047 692.308L310.774 692.49ZM282.854 803.7L282.127 803.518C282.071 803.742 282.121 803.979 282.263 804.162C282.405 804.344 282.623 804.45 282.854 804.45V803.7ZM326.424 693.82L327.136 694.057C327.209 693.839 327.177 693.599 327.051 693.408C326.924 693.216 326.717 693.092 326.488 693.073L326.424 693.82ZM289.944 803.7V804.45C290.268 804.45 290.554 804.243 290.656 803.937L289.944 803.7ZM393.475 692.49L394.202 692.308C394.113 691.951 393.778 691.712 393.411 691.743L393.475 692.49ZM421.395 803.7V804.45C421.626 804.45 421.844 804.344 421.986 804.162C422.128 803.979 422.178 803.742 422.122 803.518L421.395 803.7ZM377.825 693.82L377.761 693.073C377.532 693.092 377.325 693.216 377.198 693.408C377.072 693.599 377.041 693.839 377.113 694.057L377.825 693.82ZM414.305 803.7L413.593 803.937C413.695 804.243 413.982 804.45 414.305 804.45V803.7ZM310.047 692.308L282.127 803.518L283.582 803.883L311.502 692.673L310.047 692.308ZM326.488 693.073L310.838 691.743L310.711 693.238L326.361 694.568L326.488 693.073ZM290.656 803.937L327.136 694.057L325.713 693.584L289.233 803.464L290.656 803.937ZM282.854 804.45H289.944V802.95H282.854V804.45ZM392.747 692.673L420.667 803.883L422.122 803.518L394.202 692.308L392.747 692.673ZM377.888 694.568L393.538 693.238L393.411 691.743L377.761 693.073L377.888 694.568ZM415.017 803.464L378.537 693.584L377.113 694.057L413.593 803.937L415.017 803.464ZM421.395 802.95H414.305V804.45H421.395V802.95Z" fill="black"/>
<path fill-rule="evenodd" clip-rule="evenodd" d="M325.095 803.7L353.015 692.49L368.665 693.82L332.185 803.7H325.095ZM462.005 803.7L434.095 692.49L418.435 693.82L454.915 803.7H462.005Z" fill="#FFE1B8"/>
<path d="M353.015 692.49L353.078 691.743C352.712 691.712 352.377 691.951 352.287 692.308L353.015 692.49ZM325.095 803.7L324.367 803.518C324.311 803.742 324.361 803.979 324.503 804.162C324.645 804.344 324.864 804.45 325.095 804.45V803.7ZM368.665 693.82L369.377 694.057C369.449 693.839 369.417 693.599 369.291 693.408C369.165 693.216 368.957 693.092 368.728 693.073L368.665 693.82ZM332.185 803.7V804.45C332.508 804.45 332.795 804.243 332.897 803.937L332.185 803.7ZM434.095 692.49L434.822 692.308C434.732 691.951 434.398 691.712 434.031 691.743L434.095 692.49ZM462.005 803.7V804.45C462.236 804.45 462.454 804.344 462.596 804.162C462.738 803.979 462.788 803.742 462.732 803.518L462.005 803.7ZM418.435 693.82L418.371 693.073C418.142 693.092 417.935 693.216 417.808 693.408C417.682 693.599 417.65 693.839 417.723 694.057L418.435 693.82ZM454.915 803.7L454.203 803.937C454.305 804.243 454.591 804.45 454.915 804.45V803.7ZM352.287 692.308L324.367 803.518L325.822 803.883L353.742 692.673L352.287 692.308ZM368.728 693.073L353.078 691.743L352.951 693.238L368.601 694.568L368.728 693.073ZM332.897 803.937L369.377 694.057L367.953 693.584L331.473 803.464L332.897 803.937ZM325.095 804.45H332.185V802.95H325.095V804.45ZM433.367 692.673L461.277 803.883L462.732 803.518L434.822 692.308L433.367 692.673ZM418.498 694.568L434.158 693.238L434.031 691.743L418.371 693.073L418.498 694.568ZM455.626 803.464L419.146 693.584L417.723 694.057L454.203 803.937L455.626 803.464ZM462.005 802.95H454.915V804.45H462.005V802.95Z" fill="black"/>
<path d="M287.065 661.03H470.275C472.199 661.03 474.104 661.41 475.881 662.148C477.658 662.886 479.272 663.967 480.631 665.33C481.989 666.693 483.065 668.311 483.796 670.09C484.528 671.87 484.901 673.776 484.895 675.7C484.895 679.578 483.355 683.296 480.613 686.038C477.871 688.78 474.152 690.32 470.275 690.32H301.695C299.774 690.322 297.872 689.944 296.097 689.21C294.322 688.476 292.709 687.399 291.351 686.042C289.992 684.684 288.914 683.072 288.179 681.297C287.443 679.523 287.065 677.621 287.065 675.7V661.03Z" fill="#F25A33" stroke="black" stroke-width="1.5" stroke-linecap="round" stroke-linejoin="round"/>
<path d="M482.015 689.83H281.305C279.714 689.83 278.425 691.12 278.425 692.71C278.425 694.301 279.714 695.59 281.305 695.59H482.015C483.605 695.59 484.895 694.301 484.895 692.71C484.895 691.12 483.605 689.83 482.015 689.83Z" fill="#FFE1B8" stroke="black" stroke-width="1.5" stroke-linecap="round" stroke-linejoin="round"/>
<path d="M287.065 661.03L296.155 518.85C297.155 499.27 302.895 488.16 318.235 482" stroke="black" stroke-width="1.5" stroke-linecap="round" stroke-linejoin="round"/>
<path d="M289.77 628.53C288.85 639.13 287.927 649.73 287 660.33L435.81 660.53C397.96 655 361.34 655.25 323.47 649.69C320.518 649.353 317.596 648.792 314.73 648.01C308.8 646.2 301.57 644.5 295.88 638.57C293.153 635.696 291.07 632.273 289.77 628.53Z" fill="black" stroke="black" stroke-width="1.5" stroke-linecap="round" stroke-linejoin="round"/>
<path d="M710.09 689.05H845.3C859.39 689.05 870.6 675.48 869.86 659.31L862.92 507.9C862.23 492.9 851.44 481.13 838.36 481.13H726.49C712.4 481.13 701.19 494.71 701.93 510.87L710.09 689.05Z" fill="#F25A33" stroke="black" stroke-width="1.5" stroke-linecap="round" stroke-linejoin="round"/>
<path fill-rule="evenodd" clip-rule="evenodd" d="M861.041 802.7L833.121 691.49L817.471 692.82L853.951 802.7H861.041ZM722.5 802.7L750.42 691.49L766.07 692.82L729.59 802.7H722.5Z" fill="#FFCD88"/>
<path d="M833.121 691.49L833.057 690.743C833.423 690.712 833.758 690.951 833.848 691.308L833.121 691.49ZM861.041 802.7L861.768 802.518C861.824 802.742 861.774 802.979 861.632 803.162C861.49 803.344 861.272 803.45 861.041 803.45V802.7ZM817.471 692.82L816.759 693.057C816.686 692.839 816.718 692.599 816.844 692.408C816.971 692.216 817.178 692.092 817.407 692.073L817.471 692.82ZM853.951 802.7V803.45C853.627 803.45 853.341 803.243 853.239 802.937L853.951 802.7ZM750.42 691.49L749.693 691.308C749.782 690.951 750.117 690.712 750.484 690.743L750.42 691.49ZM722.5 802.7V803.45C722.269 803.45 722.051 803.344 721.909 803.162C721.767 802.979 721.717 802.742 721.773 802.518L722.5 802.7ZM766.07 692.82L766.134 692.073C766.363 692.092 766.57 692.216 766.697 692.408C766.823 692.599 766.854 692.839 766.782 693.057L766.07 692.82ZM729.59 802.7L730.302 802.937C730.2 803.243 729.913 803.45 729.59 803.45V802.7ZM833.848 691.308L861.768 802.518L860.313 802.883L832.393 691.673L833.848 691.308ZM817.407 692.073L833.057 690.743L833.184 692.238L817.534 693.568L817.407 692.073ZM853.239 802.937L816.759 693.057L818.182 692.584L854.662 802.464L853.239 802.937ZM861.041 803.45H853.951V801.95H861.041V803.45ZM751.148 691.673L723.228 802.883L721.773 802.518L749.693 691.308L751.148 691.673ZM766.007 693.568L750.357 692.238L750.484 690.743L766.134 692.073L766.007 693.568ZM728.878 802.464L765.359 692.584L766.782 693.057L730.302 802.937L728.878 802.464ZM722.5 801.95H729.59V803.45H722.5V801.95Z" fill="black"/>
<path fill-rule="evenodd" clip-rule="evenodd" d="M818.8 802.7L790.88 691.49L775.23 692.82L811.71 802.7H818.8ZM681.891 802.7L709.8 691.49L725.46 692.82L688.98 802.7H681.891Z" fill="#FFE1B8"/>
<path d="M790.88 691.49L790.817 690.743C791.183 690.712 791.518 690.951 791.608 691.308L790.88 691.49ZM818.8 802.7L819.528 802.518C819.584 802.742 819.534 802.979 819.392 803.162C819.25 803.344 819.031 803.45 818.8 803.45V802.7ZM775.23 692.82L774.518 693.057C774.446 692.839 774.478 692.599 774.604 692.408C774.73 692.216 774.938 692.092 775.167 692.073L775.23 692.82ZM811.71 802.7V803.45C811.387 803.45 811.1 803.243 810.998 802.937L811.71 802.7ZM709.8 691.49L709.073 691.308C709.163 690.951 709.498 690.712 709.864 690.743L709.8 691.49ZM681.891 802.7V803.45C681.659 803.45 681.441 803.344 681.299 803.162C681.157 802.979 681.107 802.742 681.163 802.518L681.891 802.7ZM725.46 692.82L725.524 692.073C725.753 692.092 725.96 692.216 726.087 692.408C726.213 692.599 726.245 692.839 726.172 693.057L725.46 692.82ZM688.98 802.7L689.692 802.937C689.59 803.243 689.304 803.45 688.98 803.45V802.7ZM791.608 691.308L819.528 802.518L818.073 802.883L790.153 691.673L791.608 691.308ZM775.167 692.073L790.817 690.743L790.944 692.238L775.294 693.568L775.167 692.073ZM810.998 802.937L774.518 693.057L775.942 692.584L812.422 802.464L810.998 802.937ZM818.8 803.45H811.71V801.95H818.8V803.45ZM710.528 691.673L682.618 802.883L681.163 802.518L709.073 691.308L710.528 691.673ZM725.397 693.568L709.737 692.238L709.864 690.743L725.524 692.073L725.397 693.568ZM688.269 802.464L724.749 692.584L726.172 693.057L689.692 802.937L688.269 802.464ZM681.891 801.95H688.98V803.45H681.891V801.95Z" fill="black"/>
<path d="M856.83 660.03H673.62C671.696 660.03 669.791 660.41 668.014 661.148C666.237 661.886 664.623 662.967 663.264 664.33C661.906 665.693 660.83 667.311 660.099 669.09C659.367 670.87 658.994 672.776 659 674.7C659 678.578 660.54 682.296 663.282 685.038C666.024 687.78 669.743 689.32 673.62 689.32H842.2C844.121 689.322 846.023 688.944 847.798 688.21C849.573 687.476 851.186 686.399 852.544 685.042C853.903 683.684 854.981 682.072 855.716 680.297C856.452 678.523 856.83 676.621 856.83 674.7V660.03Z" fill="#F25A33" stroke="black" stroke-width="1.5" stroke-linecap="round" stroke-linejoin="round"/>
<path d="M661.88 688.83H862.59C864.181 688.83 865.47 690.12 865.47 691.71C865.47 693.301 864.181 694.59 862.59 694.59H661.88C660.29 694.59 659 693.301 659 691.71C659 690.12 660.29 688.83 661.88 688.83Z" fill="#FFE1B8" stroke="black" stroke-width="1.5" stroke-linecap="round" stroke-linejoin="round"/>
<path d="M856.83 660.03L847.74 517.85C846.74 498.27 841 487.16 825.66 481" stroke="black" stroke-width="1.5" stroke-linecap="round" stroke-linejoin="round"/>
<path d="M854.125 627.53C855.045 638.13 855.968 648.73 856.895 659.33L708.085 659.53C745.935 654 782.555 654.25 820.425 648.69C823.377 648.353 826.299 647.792 829.165 647.01C835.095 645.2 842.325 643.5 848.015 637.57C850.742 634.696 852.825 631.273 854.125 627.53Z" fill="black" stroke="black" stroke-width="1.5" stroke-linecap="round" stroke-linejoin="round"/>
<path d="M744.763 768.99C743.203 777.41 741.68 785.787 740.193 794.12C739.949 795.513 739.949 796.937 740.193 798.33V798.41C740.512 799.982 741.375 801.39 742.629 802.389C743.884 803.387 745.45 803.912 747.053 803.87L789.653 803.22C791.022 803.216 792.357 802.798 793.485 802.022C794.613 801.246 795.48 800.147 795.973 798.87V798.76C796.602 796.979 796.692 795.052 796.233 793.22C792.9 783.827 789.546 774.44 786.173 765.06L779.253 746.71L748.803 747.37C747.45 754.544 746.103 761.75 744.763 768.99Z" fill="#FFCD88" stroke="black" stroke-width="1.5" stroke-linecap="round" stroke-linejoin="round"/>
<path d="M786.943 767.22C779.743 770.22 766.943 774.09 752.393 770.82C749.788 770.241 747.233 769.455 744.753 768.47C745.873 761.33 746.997 754.193 748.123 747.06L778.993 745.6L786.943 767.22Z" fill="white" stroke="black" stroke-width="1.5" stroke-linecap="round" stroke-linejoin="round"/>
<path d="M672.283 767.69C661.572 770.28 651.037 773.55 640.743 777.48C628.743 782.06 623.743 785.04 621.163 790.48C621.143 790.532 621.12 790.582 621.093 790.63C620.476 792.035 620.22 793.573 620.349 795.102C620.478 796.631 620.986 798.104 621.829 799.387C622.671 800.669 623.821 801.721 625.173 802.446C626.526 803.172 628.038 803.548 629.573 803.54H714.213C715.511 803.539 716.79 803.229 717.945 802.636C719.1 802.044 720.098 801.185 720.857 800.132C721.615 799.079 722.113 797.86 722.309 796.577C722.504 795.293 722.393 793.982 721.983 792.75L712.523 764.38L706.003 745.89H675.543C674.463 753.177 673.376 760.443 672.283 767.69Z" fill="#FFCD88" stroke="black" stroke-width="1.5" stroke-linecap="round" stroke-linejoin="round"/>
<path d="M713.773 767.69C705.723 770.37 693.303 773.01 679.303 769.79C676.928 769.238 674.59 768.536 672.303 767.69L675.563 745.94H706.003L713.773 767.69Z" fill="white" stroke="black" stroke-width="1.5" stroke-linecap="round" stroke-linejoin="round"/>
<path d="M682.762 576.75L704.762 575.04L822.262 574.51C833.472 573.77 836.752 569.99 847.962 569.25C848.362 581.15 856.712 596.08 857.112 607.98C857.341 614.743 856.188 621.481 853.726 627.784C851.264 634.087 847.544 639.822 842.792 644.639C838.04 649.457 832.356 653.255 826.088 655.803C819.819 658.352 813.098 659.596 806.332 659.46C801.562 659.36 796.792 659.04 792.022 658.6L793.652 755.49C783.299 759.968 772.046 761.978 760.782 761.36C752.283 760.878 743.937 758.891 736.132 755.49L723.592 649.36C719.922 649.07 716.262 648.87 712.592 648.79L714.272 748.88C705.198 752.829 695.408 754.867 685.512 754.867C675.616 754.867 665.826 752.829 656.752 748.88L643.152 633.74C640.252 609.33 658.262 578.64 682.762 576.75Z" fill="#AD85AD" stroke="black" stroke-width="1.5" stroke-linecap="round" stroke-linejoin="round"/>
<path d="M622.364 799.4H720.664" stroke="black" stroke-width="1.5" stroke-linecap="round" stroke-linejoin="round"/>
<path d="M740.5 799.4H794" stroke="black" stroke-width="1.5" stroke-linecap="round" stroke-linejoin="round"/>
<path d="M717.344 779.74C717.344 779.74 698.964 780.25 698.964 799.4" stroke="black" stroke-width="1.5" stroke-linecap="round" stroke-linejoin="round"/>
<path d="M712.584 648.8L711.564 633.71" stroke="black" stroke-width="1.5" stroke-linecap="round" stroke-linejoin="round"/>
<path d="M723.523 648.79L720.283 609.62C719.433 599.41 727.283 588.39 737.473 587.94" stroke="black" stroke-width="1.5" stroke-linecap="round" stroke-linejoin="round"/>
<path d="M792.312 659.54L791.163 616.7" stroke="black" stroke-width="1.5" stroke-linecap="round" stroke-linejoin="round"/>
<path d="M672.982 767.56L654.872 755.66C654.452 755.382 653.974 755.204 653.474 755.139C652.975 755.074 652.467 755.124 651.989 755.285C651.512 755.446 651.077 755.714 650.719 756.069C650.361 756.423 650.089 756.855 649.922 757.33C649.773 757.756 649.712 758.209 649.744 758.659C649.776 759.11 649.9 759.549 650.108 759.95C650.316 760.351 650.603 760.705 650.953 760.991C651.303 761.276 651.708 761.487 652.142 761.61L672.982 767.56Z" stroke="black" stroke-width="1.5" stroke-linecap="round" stroke-linejoin="round"/>
<path d="M672.402 767.54L655.402 775.54C655.007 775.726 654.658 775.999 654.384 776.34C654.11 776.681 653.918 777.079 653.821 777.506C653.725 777.932 653.727 778.375 653.828 778.8C653.928 779.226 654.125 779.622 654.402 779.96C654.651 780.262 654.959 780.509 655.306 780.688C655.653 780.868 656.033 780.974 656.423 781.002C656.813 781.03 657.204 780.979 657.574 780.852C657.943 780.724 658.283 780.523 658.572 780.26L672.402 767.54Z" stroke="black" stroke-width="1.5" stroke-linecap="round" stroke-linejoin="round"/>
<path d="M631.253 471.64L640.643 470.85L645.383 503.12L629.333 510.53L616.393 509.37L631.253 471.64Z" fill="#D88B6D" stroke="black" stroke-width="1.5" stroke-linecap="round" stroke-linejoin="round"/>
<path d="M626.363 510.7L648.073 516.22L657.793 483.74C656.885 483.548 656.035 483.144 655.313 482.56C653.905 481.298 653.011 479.56 652.803 477.68C652.45 474.46 651.511 471.332 650.033 468.45L649.973 468.35C648.979 466.43 647.606 464.731 645.937 463.356C644.268 461.981 642.338 460.958 640.263 460.35L627.453 456.59C624.753 455.81 621.843 457.68 620.953 460.76C620.053 463.85 621.513 466.98 624.213 467.76L629.033 469.15C631.07 469.769 632.925 470.878 634.433 472.381C635.941 473.884 637.057 475.735 637.683 477.77C637.733 477.94 637.793 478.11 637.843 478.28" fill="#D88B6D"/>
<path d="M626.363 510.7L648.073 516.22L657.793 483.74C656.885 483.548 656.035 483.144 655.313 482.56C653.905 481.298 653.011 479.56 652.803 477.68C652.45 474.46 651.511 471.332 650.033 468.45L649.973 468.35C648.979 466.43 647.606 464.731 645.937 463.356C644.268 461.981 642.338 460.958 640.263 460.35L627.453 456.59C624.753 455.81 621.843 457.68 620.953 460.76C620.053 463.85 621.513 466.98 624.213 467.76L629.033 469.15C631.07 469.769 632.925 470.878 634.433 472.381C635.941 473.884 637.057 475.735 637.683 477.77C637.733 477.94 637.793 478.11 637.843 478.28" stroke="black" stroke-width="1.5" stroke-linecap="round" stroke-linejoin="round"/>
<path d="M626.364 510.7C609.934 511.15 603.234 510.84 586.814 511.3C586.073 511.301 585.355 511.042 584.785 510.569C584.215 510.096 583.829 509.438 583.694 508.71L583.634 508.34C583.584 507.969 583.584 507.592 583.634 507.22C583.706 506.484 584.018 505.791 584.522 505.249C585.026 504.707 585.694 504.346 586.424 504.22C596.764 502.73 605.764 501.8 616.104 500.32C606.184 499.83 592.984 499.83 583.104 499.32C582.123 499.218 581.212 498.765 580.538 498.045C579.864 497.325 579.472 496.386 579.434 495.4V495.31C579.174 492.62 581.054 490.25 583.434 490.31C604.254 490.5 616.854 490.53 616.864 490.16C616.874 489.79 604.204 488.98 583.174 488.01C580.904 487.91 579.174 485.74 579.254 483.15V483.06C579.344 480.43 581.254 478.36 583.574 478.43C594.194 478.76 607.414 479.24 618.024 479.57C607.264 478.57 593.894 477.43 583.144 476.44C581.996 476.255 580.962 475.641 580.251 474.722C579.54 473.802 579.205 472.647 579.314 471.49V471.4C579.676 470.035 580.447 468.814 581.524 467.9C582.557 467.081 583.873 466.704 585.184 466.85L632.514 471.33" fill="#D88B6D"/>
<path d="M626.364 510.7C609.934 511.15 603.234 510.84 586.814 511.3C586.073 511.301 585.355 511.042 584.785 510.569C584.215 510.096 583.829 509.438 583.694 508.71L583.634 508.34C583.584 507.969 583.584 507.592 583.634 507.22C583.706 506.484 584.018 505.791 584.522 505.249C585.026 504.707 585.694 504.346 586.424 504.22C596.764 502.73 605.764 501.8 616.104 500.32C606.184 499.83 592.984 499.83 583.104 499.32C582.123 499.218 581.212 498.765 580.538 498.045C579.864 497.325 579.472 496.386 579.434 495.4V495.31C579.174 492.62 581.054 490.25 583.434 490.31C604.254 490.5 616.854 490.53 616.864 490.16C616.874 489.79 604.204 488.98 583.174 488.01C580.904 487.91 579.174 485.74 579.254 483.15V483.06C579.344 480.43 581.254 478.36 583.574 478.43C594.194 478.76 607.414 479.24 618.024 479.57C607.264 478.57 593.894 477.43 583.144 476.44C581.996 476.255 580.962 475.641 580.251 474.722C579.54 473.802 579.205 472.647 579.314 471.49V471.4C579.676 470.035 580.447 468.814 581.524 467.9C582.557 467.081 583.873 466.704 585.184 466.85L632.514 471.33" stroke="black" stroke-width="1.5" stroke-linecap="round" stroke-linejoin="round"/>
<path d="M618.584 474.22C617.674 483.1 617.104 492.22 616.194 501.08" stroke="black" stroke-width="1.5" stroke-linecap="round" stroke-linejoin="round"/>
<path d="M642.323 518.95C647.09 522.497 651.857 526.05 656.623 529.61L664.363 479.48L656.093 468.67L642.323 518.95Z" fill="white" stroke="black" stroke-width="1.5" stroke-linecap="round" stroke-linejoin="round"/>
<path d="M735.132 424.22C730.841 425.052 726.777 426.79 723.212 429.32C705.882 441.84 708.162 470.32 708.912 479.71C709.85 490.946 712.85 501.912 717.762 512.06L665.112 476.22L647.582 525.22C651.992 528.54 682.792 551.67 706.742 564.5C711.922 567.28 719.272 570.97 729.232 571.5C735.327 571.777 741.423 570.964 747.232 569.1C752.141 566.786 756.475 563.412 759.922 559.22C770.512 546 766.142 527 761.852 509.9C754.518 480.873 745.598 452.27 735.132 424.22Z" fill="#AD85AD" stroke="black" stroke-width="1.5" stroke-linecap="round" stroke-linejoin="round"/>
<path d="M717.762 512.07L727.982 518.87" stroke="black" stroke-width="1.5" stroke-linecap="round" stroke-linejoin="round"/>
<path d="M853.773 513.87C841.567 486.484 829.363 459.087 817.163 431.68C808.381 431.963 799.604 430.997 791.093 428.81C779.813 425.9 778.55 424.85 774 424C772.538 423.857 769.502 421.817 768.033 421.86C767.033 421.86 750.173 422.35 741.943 431.04C735.203 438.13 735.943 448.88 736.153 453.16C737.203 474.34 734.403 514.76 728.573 572.82C757.635 572.684 786.473 577.905 813.643 588.22L852.533 587.86C852.94 563.214 853.353 538.55 853.773 513.87Z" fill="white" stroke="black" stroke-width="1.5" stroke-linecap="round" stroke-linejoin="round"/>
<path d="M800.844 440.22L794.014 447.22L795.214 537.06C795.231 538.102 794.947 539.127 794.394 540.01L780.564 562.28C776.864 553.954 773.16 545.6 769.454 537.22C769.015 536.225 768.883 535.121 769.074 534.05L784.854 446.05L778.654 438.43L787.5 428.5H790.5L800.844 440.22Z" fill="black"/>
<path d="M814.5 424L818.053 429.56C818.064 433.995 816.616 438.31 813.933 441.84C809.933 447.21 804.153 449.96 800.173 451.32C799.85 451.427 799.504 451.44 799.174 451.357C798.845 451.274 798.546 451.099 798.312 450.853C798.078 450.607 797.919 450.299 797.854 449.965C797.788 449.632 797.819 449.287 797.943 448.97C798.436 447.661 798.755 446.293 798.893 444.9C799.213 441.179 798.269 437.458 796.213 434.34C793.093 431.94 791.723 429.99 792.103 428.49C792.103 428.49 801.793 423.687 814.5 424Z" fill="white" stroke="black" stroke-width="1.5" stroke-linecap="round" stroke-linejoin="round"/>
<path d="M767.204 420.65L761.254 422.65C761.217 427.93 762.632 433.119 765.344 437.65C768.634 442.958 773.541 447.07 779.344 449.38C779.601 449.487 779.885 449.514 780.158 449.458C780.431 449.403 780.682 449.267 780.877 449.068C781.073 448.87 781.204 448.617 781.255 448.343C781.306 448.069 781.275 447.786 781.164 447.53C780.554 446.161 780.24 444.679 780.244 443.18C780.251 442.59 780.305 442.002 780.404 441.42C781.014 437.89 788.05 428.78 788.5 428C791.546 429.859 785.184 426.685 788.5 428C783.5 426.017 778 424 767.204 420.65Z" fill="white"/>
<path d="M788.5 428C788.05 428.78 781.014 437.89 780.404 441.42C780.305 442.002 780.251 442.59 780.244 443.18C780.24 444.679 780.554 446.161 781.164 447.53C781.275 447.786 781.306 448.069 781.255 448.343C781.204 448.617 781.073 448.87 780.877 449.068C780.682 449.267 780.431 449.403 780.158 449.458C779.885 449.514 779.601 449.487 779.344 449.38C773.541 447.07 768.634 442.958 765.344 437.65C762.632 433.119 761.217 427.93 761.254 422.65L767.204 420.65C778 424 783.5 426.017 788.5 428ZM788.5 428C785.184 426.685 791.546 429.859 788.5 428V428Z" stroke="black" stroke-width="1.5" stroke-linecap="round" stroke-linejoin="round"/>
<path d="M807.653 500.3C804.686 509.473 801.719 518.65 798.753 527.83C798.393 532.837 798.036 537.837 797.683 542.83C798.57 553.152 799.986 563.422 801.923 573.6C806.593 598.13 808.923 610.39 817.483 619.5C820.703 622.94 832.643 634.39 859.223 633.97C856.242 607.046 854.873 579.968 855.123 552.88C855.203 544.18 855.443 535.673 855.843 527.36V486.36L856.773 463.84L856.403 440.91L838.333 431.38L807.653 500.3Z" fill="#AD85AD" stroke="black" stroke-width="1.5" stroke-linecap="round" stroke-linejoin="round"/>
<path d="M886.532 472.93L889.232 483.32L886.532 472.93Z" fill="white"/>
<path d="M886.532 472.93L889.232 483.32" stroke="black" stroke-width="1.5" stroke-linecap="round" stroke-linejoin="round"/>
<path d="M735.134 424.22L768.034 421.85C764.474 440.58 757.034 465.27 761.454 494.85C763.104 505.935 765.602 516.877 768.924 527.58C768.534 530.92 768.084 534.32 767.574 537.76C765.692 550.432 763.071 562.984 759.724 575.35L728.324 574.99C729.554 560.45 730.404 543.99 730.704 527.69C731.044 509 730.624 491.37 729.704 474.92" fill="#AD85AD"/>
<path d="M735.134 424.22L768.034 421.85C764.474 440.58 757.034 465.27 761.454 494.85C763.104 505.935 765.602 516.877 768.924 527.58C768.534 530.92 768.084 534.32 767.574 537.76C765.692 550.432 763.071 562.984 759.724 575.35L728.324 574.99C729.554 560.45 730.404 543.99 730.704 527.69C731.044 509 730.624 491.37 729.704 474.92" stroke="black" stroke-width="1.5" stroke-linecap="round" stroke-linejoin="round"/>
<path d="M767.083 420.95C765.563 421.48 763.953 421.95 762.273 422.45C758.31 423.566 754.269 424.382 750.183 424.89L754.883 435.16L744.883 438.86C748.093 448.11 751.193 457.86 754.113 467.99C759.763 487.651 764.326 507.608 767.783 527.77C767.023 506.277 766.64 484.174 766.633 461.46C766.627 447.734 766.777 434.23 767.083 420.95Z" fill="#826482" stroke="black" stroke-width="1.5" stroke-linecap="round" stroke-linejoin="round"/>
<path d="M883.953 496.3C886.393 548.22 871.453 588.67 846.153 596.83C840.581 598.557 834.667 598.87 828.944 597.74C802.943 595.11 789.083 591.74 781.173 588.99C774.031 586.405 766.517 584.99 758.923 584.8C755.511 584.726 752.099 584.906 748.714 585.34C751.387 580.102 755.032 575.419 759.453 571.54C761.303 569.95 763.453 568.78 767.714 566.25C769.243 565.33 775.083 561.84 778.643 560.18C784.543 557.43 790.073 563.51 801.253 563.1C806.743 562.9 822.604 560.96 835.664 560.4C837.457 544.4 839.25 528.424 841.043 512.47C857.923 508.61 867.043 500.16 883.953 496.3Z" fill="#D88B6D" stroke="black" stroke-width="1.5" stroke-linecap="round" stroke-linejoin="round"/>
<path d="M801.232 563.1C795.483 560.69 789.387 559.211 783.172 558.72C777.864 558.08 772.482 558.453 767.312 559.82C763.982 560.77 751.052 564.45 748.172 574.68C747.481 577.24 747.416 579.929 747.982 582.52" fill="#D88B6D"/>
<path d="M801.232 563.1C795.483 560.69 789.387 559.211 783.172 558.72C777.864 558.08 772.482 558.453 767.312 559.82C763.982 560.77 751.052 564.45 748.172 574.68C747.481 577.24 747.416 579.929 747.982 582.52" stroke="black" stroke-width="1.5" stroke-linecap="round" stroke-linejoin="round"/>
<path d="M778.803 576.22L775.933 587.28C775.473 588.395 774.625 589.305 773.547 589.845C772.468 590.384 771.232 590.515 770.064 590.214C768.896 589.914 767.877 589.201 767.193 588.208C766.509 587.215 766.207 586.008 766.343 584.81L768.453 575.5" fill="#D88B6D"/>
<path d="M778.803 576.22L775.933 587.28C775.473 588.395 774.625 589.305 773.547 589.845C772.468 590.384 771.232 590.515 770.064 590.214C768.896 589.914 767.877 589.201 767.193 588.208C766.509 587.215 766.207 586.008 766.343 584.81L768.453 575.5" stroke="black" stroke-width="1.5" stroke-linecap="round" stroke-linejoin="round"/>
<path d="M768.453 575.5C767.253 579.427 766.06 583.357 764.873 587.29C764.413 588.405 763.566 589.316 762.487 589.855C761.409 590.394 760.173 590.525 759.005 590.224C757.838 589.924 756.817 589.211 756.133 588.218C755.449 587.225 755.149 586.018 755.284 584.82L757.893 574.59" fill="#D88B6D"/>
<path d="M768.453 575.5C767.253 579.427 766.06 583.357 764.873 587.29C764.413 588.405 763.566 589.316 762.487 589.855C761.409 590.394 760.173 590.525 759.005 590.224C757.838 589.924 756.817 589.211 756.133 588.218C755.449 587.225 755.149 586.018 755.284 584.82L757.893 574.59" stroke="black" stroke-width="1.5" stroke-linecap="round" stroke-linejoin="round"/>
<path d="M757.453 576.22L754.583 587.28C754.123 588.395 753.276 589.305 752.197 589.845C751.119 590.384 749.881 590.515 748.713 590.214C747.546 589.914 746.527 589.201 745.843 588.208C745.159 587.215 744.857 586.008 744.992 584.81C746.032 581.43 747.079 578.05 748.132 574.67" fill="#D88B6D"/>
<path d="M757.453 576.22L754.583 587.28C754.123 588.395 753.276 589.305 752.197 589.845C751.119 590.384 749.881 590.515 748.713 590.214C747.546 589.914 746.527 589.201 745.843 588.208C745.159 587.215 744.857 586.008 744.992 584.81C746.032 581.43 747.079 578.05 748.132 574.67" stroke="black" stroke-width="1.5" stroke-linecap="round" stroke-linejoin="round"/>
<path d="M817.944 445.33L814.584 423.22C819.714 423.27 847.744 427.17 857.584 432.7C869.324 439.29 875.284 448.87 878.584 454.14C892.864 476.93 890.134 502.31 889.074 509.76H888.904C888.768 520.321 887.447 530.834 884.964 541.1C880.724 558.56 875.964 578.04 859.434 590.1C834.434 608.33 802.344 595.17 798.154 593.37C802.182 588.97 804.585 583.324 804.964 577.37C805.346 570.978 803.411 564.662 799.514 559.58L833.284 558.04C835.53 540.28 837.784 522.517 840.044 504.75L839.714 493.11" fill="#AD85AD"/>
<path d="M817.944 445.33L814.584 423.22C819.714 423.27 847.744 427.17 857.584 432.7C869.324 439.29 875.284 448.87 878.584 454.14C892.864 476.93 890.134 502.31 889.074 509.76H888.904C888.768 520.321 887.447 530.834 884.964 541.1C880.724 558.56 875.964 578.04 859.434 590.1C834.434 608.33 802.344 595.17 798.154 593.37C802.182 588.97 804.585 583.324 804.964 577.37C805.346 570.978 803.411 564.662 799.514 559.58L833.284 558.04C835.53 540.28 837.784 522.517 840.044 504.75L839.714 493.11" stroke="black" stroke-width="1.5" stroke-linecap="round" stroke-linejoin="round"/>
<path d="M814.583 423.22C816.673 425.01 819.003 426.85 821.583 428.68C824.9 431.03 828.36 433.17 831.943 435.09L825.653 444.46L834.953 449.73C830.286 458.344 825.686 467.434 821.153 477C812.417 495.493 804.702 514.452 798.043 533.79C802.603 513.74 806.683 491.94 809.843 468.53C811.993 452.77 813.523 437.64 814.583 423.22Z" fill="#826482" stroke="black" stroke-width="1.5" stroke-linecap="round" stroke-linejoin="round"/>
<path d="M776.085 402.488C773.205 411.378 771.145 416.558 768.275 425.488C776.039 431.06 785.517 433.719 795.045 432.998C802.693 432.311 809.982 429.44 816.045 424.728L808.696 394.918C808.063 392.33 808.259 389.609 809.255 387.138L818.585 364.138" fill="#D88B6D"/>
<path d="M776.085 402.488C773.205 411.378 771.145 416.558 768.275 425.488C776.039 431.06 785.517 433.719 795.045 432.998C802.693 432.311 809.982 429.44 816.045 424.728L808.696 394.918C808.063 392.33 808.259 389.609 809.255 387.138L818.585 364.138" stroke="black" stroke-width="1.5" stroke-miterlimit="10"/>
<path d="M754.505 348.118C754.505 349.588 754.505 351.168 754.585 352.578C754.875 358.688 755.585 360.828 755.955 364.578C756.475 370.348 755.125 370.018 754.955 379.388C754.845 384.768 754.785 387.458 755.715 390.388C756.065 391.468 758.045 397.958 763.335 401.058C768.625 404.158 775.255 402.948 786.335 400.058C792.793 398.388 799.088 396.142 805.145 393.348L819.015 361.518L798.585 332.518C783.535 323.178 767.015 324.358 759.395 333.008C755.145 337.768 754.445 344.038 754.505 348.118Z" fill="#D88B6D"/>
<path d="M749.71 338.997C750.275 342.389 754.5 342.337 755.854 339.176C757.363 335.655 761.268 333.822 764.941 334.909L797.326 344.502C797.326 344.502 797.326 355.504 797.326 365.578L803 354.502L807.5 371.504L818 379.002L820.424 366.342C821.797 359.176 821.992 351.788 820.312 344.688C820.235 344.362 820.158 344.042 820.08 343.729C819.281 340.512 817.152 337.993 814.5 336.004C813.539 331.199 810.803 326.757 806.328 324.762C788.463 316.796 775.263 327.518 752.5 323.502C752.5 323.502 748.202 329.95 749.71 338.997Z" fill="black" stroke="black" stroke-width="1.5" stroke-linecap="round" stroke-linejoin="round"/>
<path d="M770.085 374.509H768.426C767.799 374.51 767.185 374.339 766.649 374.015C766.113 373.692 765.677 373.227 765.387 372.672C765.097 372.117 764.965 371.493 765.005 370.868C765.045 370.243 765.257 369.642 765.615 369.129L770.085 362.759" stroke="black" stroke-width="1.5" stroke-linecap="round" stroke-linejoin="round"/>
<path d="M764.536 378.358C765.025 379.409 765.831 380.28 766.841 380.849C767.851 381.418 769.014 381.655 770.166 381.528C770.986 381.375 771.763 381.042 772.439 380.553C773.115 380.063 773.674 379.43 774.076 378.698L764.536 378.358Z" fill="black"/>
<path d="M802.145 356.649L803.984 356.589C806.065 356.522 808.091 357.27 809.629 358.672C811.168 360.074 812.098 362.021 812.224 364.099C812.325 365.899 811.816 367.68 810.778 369.154C809.74 370.628 808.234 371.708 806.505 372.219" fill="#D88B6D"/>
<path d="M802.145 356.649L803.984 356.589C806.065 356.522 808.091 357.27 809.629 358.672C811.168 360.074 812.098 362.021 812.224 364.099C812.325 365.899 811.816 367.68 810.778 369.154C809.74 370.628 808.234 371.708 806.505 372.219" stroke="black" stroke-width="1.5" stroke-miterlimit="10"/>
<path d="M784.666 326.209H778.826C776.826 326.089 764.256 325.519 758.016 333.939C755.476 337.369 754.836 341.109 754.346 343.989C752.826 352.939 756.546 358.519 755.626 368.629C755.206 373.279 754.856 375.699 754.136 382.399C753.924 384.138 753.957 385.899 754.236 387.629C754.296 387.989 754.376 388.359 754.456 388.719C756.966 399.359 768.316 405.379 778.746 402.129L787.746 399.339" stroke="black" stroke-width="1.5" stroke-linecap="round" stroke-linejoin="round"/>
<path fill-rule="evenodd" clip-rule="evenodd" d="M780.172 364.772C780.172 366.257 780.803 367.462 781.582 367.462C782.36 367.462 782.992 366.257 782.992 364.772C782.992 363.286 782.36 362.082 781.582 362.082C780.803 362.082 780.172 363.286 780.172 364.772ZM757.64 364.772C757.64 366.257 758.272 367.462 759.05 367.462C759.829 367.462 760.46 366.257 760.46 364.772C760.46 363.286 759.829 362.082 759.05 362.082C758.272 362.082 757.64 363.286 757.64 364.772Z" fill="black"/>
<path fill-rule="evenodd" clip-rule="evenodd" d="M786.582 360.121C785.808 358.747 784.56 357.702 783.072 357.181L786.582 360.121ZM755.031 360.121C755.807 358.75 757.054 357.706 758.541 357.181L755.031 360.121Z" fill="white"/>
<path fill-rule="evenodd" clip-rule="evenodd" d="M759.192 356.81C759.012 356.495 758.633 356.354 758.291 356.474C756.634 357.059 755.244 358.223 754.378 359.752C754.199 360.067 754.272 360.466 754.551 360.698C754.829 360.93 755.234 360.929 755.512 360.696L759.022 357.756C759.3 357.524 759.372 357.125 759.192 356.81ZM782.419 356.811C782.24 357.126 782.312 357.524 782.59 357.756L786.1 360.696C786.378 360.929 786.782 360.93 787.061 360.698C787.339 360.467 787.413 360.069 787.235 359.754C786.372 358.22 784.98 357.054 783.319 356.473C782.977 356.354 782.598 356.496 782.419 356.811Z" fill="black"/>
<path d="M424.9 463.831L432.729 529.531L472.469 509.311L490.62 532.061L437.969 565.331L437.68 565.481C434.609 567.038 431.191 567.785 427.75 567.648C424.309 567.512 420.961 566.497 418.023 564.701C415.085 562.905 412.656 560.387 410.966 557.387C409.277 554.387 408.383 551.004 408.37 547.561C408.31 527.261 408.246 506.961 408.18 486.661L424.9 463.831Z" fill="#F7CCB9" stroke="black" stroke-width="1.5" stroke-miterlimit="10" stroke-linecap="round" stroke-linejoin="round"/>
<path d="M412.499 485.791C412.832 480.131 413.166 474.464 413.499 468.791L412.499 485.791Z" fill="white"/>
<path d="M412.499 485.791C412.832 480.131 413.166 474.464 413.499 468.791" stroke="black" stroke-width="1.5" stroke-miterlimit="10" stroke-linecap="round" stroke-linejoin="round"/>
<path d="M464.859 651.641L465.799 637.661" stroke="white" stroke-width="1.5" stroke-linecap="round" stroke-linejoin="round"/>
<path d="M454.719 651.661C455.719 639.561 456.719 627.462 457.719 615.362C458.499 605.902 451.269 595.691 441.789 595.271L440.789 594.271" stroke="white" stroke-width="1.5" stroke-linecap="round" stroke-linejoin="round"/>
<path d="M390.989 661.591L392.049 621.901" stroke="white" stroke-width="1.5" stroke-linecap="round" stroke-linejoin="round"/>
<path d="M488.15 498.521L480.38 500.572L485.8 527.831L500.8 529.201L510.86 524.571L488.15 498.521Z" fill="#D88B6D" stroke="black" stroke-width="1.5" stroke-linecap="round" stroke-linejoin="round"/>
<path d="M510.86 524.571L487.39 539.121L470.3 515.821C470.973 515.406 471.539 514.837 471.95 514.161C472.725 512.748 472.949 511.099 472.58 509.531C471.938 506.846 471.796 504.067 472.16 501.331V501.231C472.405 499.401 473.018 497.641 473.964 496.056C474.909 494.471 476.167 493.095 477.66 492.011L486.9 485.351C488.84 483.951 491.71 484.621 493.31 486.841C494.91 489.061 494.64 491.991 492.7 493.391L489.23 495.891C486.82 498.331 484.68 501.561 484.75 505.281C484.75 505.431 484.75 505.581 484.75 505.741" fill="#D88B6D"/>
<path d="M510.86 524.571L487.39 539.121L470.3 515.821C470.973 515.406 471.539 514.837 471.95 514.161C472.725 512.748 472.949 511.099 472.58 509.531C471.938 506.846 471.796 504.067 472.16 501.331V501.231C472.405 499.401 473.018 497.641 473.964 496.056C474.909 494.471 476.167 493.095 477.66 492.011L486.9 485.351C488.84 483.951 491.71 484.621 493.31 486.841C494.91 489.061 494.64 491.991 492.7 493.391L489.23 495.891C486.82 498.331 484.68 501.561 484.75 505.281C484.75 505.431 484.75 505.581 484.75 505.741" stroke="black" stroke-width="1.5" stroke-linecap="round" stroke-linejoin="round"/>
<path d="M503.239 528.481C516.549 524.151 521.839 521.991 535.159 517.661C535.758 517.446 536.262 517.029 536.584 516.48C536.906 515.932 537.025 515.288 536.919 514.661L536.859 514.351C536.792 514.037 536.681 513.734 536.529 513.451C536.255 512.888 535.805 512.43 535.248 512.145C534.691 511.86 534.056 511.764 533.439 511.871C524.719 513.631 517.229 515.461 508.499 517.221C516.329 514.001 526.919 510.221 534.739 507.001C535.494 506.636 536.093 506.012 536.427 505.243C536.761 504.475 536.808 503.611 536.559 502.811V502.731C535.999 500.501 533.819 499.131 531.929 499.831C515.259 505.931 505.159 509.561 505.049 509.261C504.939 508.961 514.869 504.701 531.479 497.911C532.366 497.471 533.046 496.702 533.373 495.767C533.7 494.833 533.648 493.807 533.229 492.911V492.831C532.913 491.874 532.234 491.08 531.339 490.618C530.443 490.156 529.402 490.064 528.439 490.361C520.009 493.661 509.529 497.821 501.109 501.121C509.459 497.241 519.869 492.511 528.219 488.631C529.086 488.155 529.739 487.367 530.045 486.427C530.352 485.487 530.289 484.466 529.869 483.571V483.501C529.191 482.507 528.224 481.746 527.099 481.321C526.032 480.96 524.865 481.032 523.849 481.521L487.069 498.661" fill="#D88B6D"/>
<path d="M503.239 528.481C516.549 524.151 521.839 521.991 535.159 517.661C535.758 517.446 536.262 517.029 536.584 516.48C536.906 515.932 537.025 515.288 536.919 514.661L536.859 514.351C536.792 514.037 536.681 513.734 536.529 513.451C536.255 512.888 535.805 512.43 535.248 512.145C534.691 511.86 534.056 511.764 533.439 511.871C524.719 513.631 517.229 515.461 508.499 517.221C516.329 514.001 526.919 510.221 534.739 507.001C535.494 506.636 536.093 506.012 536.427 505.243C536.761 504.475 536.808 503.611 536.559 502.811V502.731C535.999 500.501 533.819 499.131 531.929 499.831C515.259 505.931 505.159 509.561 505.049 509.261C504.939 508.961 514.869 504.701 531.479 497.911C532.366 497.471 533.046 496.702 533.373 495.767C533.7 494.833 533.648 493.807 533.229 492.911V492.831C532.913 491.874 532.234 491.08 531.339 490.618C530.443 490.156 529.402 490.064 528.439 490.361C520.009 493.661 509.529 497.821 501.109 501.121C509.459 497.241 519.869 492.511 528.219 488.631C529.086 488.155 529.739 487.367 530.045 486.427C530.352 485.487 530.289 484.466 529.869 483.571V483.501C529.191 482.507 528.224 481.746 527.099 481.321C526.032 480.96 524.865 481.032 523.849 481.521L487.069 498.661" stroke="black" stroke-width="1.5" stroke-linecap="round" stroke-linejoin="round"/>
<path d="M499.069 497.011C502.339 503.871 505.399 511.011 508.669 517.891L499.069 497.011Z" fill="#D88B6D"/>
<path d="M499.069 497.011C502.339 503.871 505.399 511.011 508.669 517.891" stroke="black" stroke-width="1.5" stroke-linecap="round" stroke-linejoin="round"/>
<path d="M411.07 457.711C412.89 449.321 414.74 443.341 417.73 443.061C422.1 442.661 426.55 454.951 428.28 459.751C432.93 472.591 438.06 494.291 434.75 527.491L471.75 509.121L490.5 543C464.99 554.73 448.53 562.711 436.94 565.991C433.18 567.071 427.94 568.491 421.99 566.731C408.27 562.661 402.65 545.111 399.88 536.461C397.3 528.461 397.18 521.941 411.07 457.711Z" fill="#F25A33" stroke="black" stroke-width="1.5" stroke-linecap="round" stroke-linejoin="round"/>
<path d="M472.331 509.451C469.123 510.635 465.922 511.823 462.726 513.016L476.102 533.6L481.573 552.972C484.533 549.813 487.486 546.662 490.431 543.518L472.331 509.451Z" fill="#F25A33" stroke="black" stroke-width="1.5" stroke-linecap="round" stroke-linejoin="round"/>
<path d="M363.759 489.881L368.909 532.491C369.027 533.362 368.953 534.248 368.69 535.088C368.428 535.927 367.984 536.698 367.391 537.347C366.797 537.995 366.069 538.506 365.256 538.842C364.444 539.178 363.567 539.331 362.689 539.291L335.609 534.801C332.582 517.121 329.546 499.437 326.499 481.751L341.599 460.301" fill="#AD85AD"/>
<path d="M363.759 489.881L368.909 532.491C369.027 533.362 368.953 534.248 368.69 535.088C368.428 535.927 367.984 536.698 367.391 537.347C366.797 537.995 366.069 538.506 365.256 538.842C364.444 539.178 363.567 539.331 362.689 539.291L335.609 534.801C332.582 517.121 329.546 499.437 326.499 481.751L341.599 460.301" stroke="black" stroke-width="1.5" stroke-miterlimit="10" stroke-linecap="round" stroke-linejoin="round"/>
<path d="M435 527L425 532L435 527Z" fill="#8CA45B"/>
<path d="M435 527L425 532" stroke="black" stroke-width="1.5" stroke-miterlimit="10" stroke-linecap="round" stroke-linejoin="round"/>
<path d="M496.25 592.471L479.4 584.301L419.58 562.441L410.97 532.101C410.071 531.477 409.366 530.615 408.932 529.611C408.499 528.607 408.356 527.502 408.52 526.421C408.743 525.434 409.255 524.536 409.99 523.841C411.53 512.971 414.93 485.931 412.7 462.701C411.9 454.411 410.26 445.281 403.27 440.651C400.913 439.134 398.229 438.201 395.44 437.931H345.97C347.67 465.711 332.543 508.301 334.25 536.081C337.165 538.857 340.413 541.262 343.92 543.241L344.52 559.381C339.1 568.021 328.24 588.231 330.97 613.821C331.97 623.501 333.68 639.151 345.97 649.561C356.26 658.311 369.39 658.991 377.97 660.121C388.12 661.451 395.39 659.771 403.16 658.331C405.85 657.831 424.36 656.231 461.38 652.971C475.18 651.751 492.44 650.301 517.73 649.761C509.54 630.661 504.39 611.571 496.25 592.471Z" fill="white" stroke="black" stroke-width="1.5" stroke-miterlimit="10" stroke-linecap="round" stroke-linejoin="round"/>
<path d="M365.019 504.021C365.958 504.021 366.719 503.26 366.719 502.321C366.719 501.382 365.958 500.621 365.019 500.621C364.08 500.621 363.319 501.382 363.319 502.321C363.319 503.26 364.08 504.021 365.019 504.021Z" fill="black" stroke="black" stroke-width="1.5" stroke-miterlimit="10" stroke-linecap="round" stroke-linejoin="round"/>
<path d="M366.459 514.871C367.398 514.871 368.159 514.11 368.159 513.171C368.159 512.232 367.398 511.471 366.459 511.471C365.52 511.471 364.759 512.232 364.759 513.171C364.759 514.11 365.52 514.871 366.459 514.871Z" fill="black" stroke="black" stroke-width="1.5" stroke-miterlimit="10" stroke-linecap="round" stroke-linejoin="round"/>
<path d="M420.668 744.753L419.319 744.806C418.568 744.836 417.984 745.469 418.014 746.219L418.067 747.568C418.097 748.318 418.73 748.903 419.48 748.873L420.829 748.82C421.58 748.79 422.164 748.157 422.134 747.407L422.081 746.058C422.051 745.307 421.418 744.723 420.668 744.753Z" fill="#FFCD88" stroke="black" stroke-width="1.5" stroke-miterlimit="10" stroke-linecap="round" stroke-linejoin="round"/>
<path d="M420.842 729.978L419.493 730.031C418.742 730.061 418.158 730.693 418.188 731.444L418.241 732.793C418.271 733.543 418.904 734.128 419.654 734.098L421.003 734.044C421.753 734.015 422.338 733.382 422.308 732.632L422.255 731.283C422.225 730.532 421.592 729.948 420.842 729.978Z" fill="#FFCD88" stroke="black" stroke-width="1.5" stroke-miterlimit="10" stroke-linecap="round" stroke-linejoin="round"/>
<path d="M419.76 715.512L418.411 715.565C417.66 715.595 417.076 716.228 417.106 716.978L417.159 718.327C417.189 719.078 417.821 719.662 418.572 719.632L419.921 719.579C420.671 719.549 421.255 718.916 421.226 718.166L421.172 716.817C421.143 716.066 420.51 715.482 419.76 715.512Z" fill="#FFCD88" stroke="black" stroke-width="1.5" stroke-miterlimit="10" stroke-linecap="round" stroke-linejoin="round"/>
<path d="M474.509 768.381C482.509 771.051 494.979 773.701 508.979 770.471C511.354 769.922 513.692 769.223 515.979 768.381L512.729 746.661H482.279L474.509 768.381Z" fill="white" stroke="black" stroke-width="1.5" stroke-miterlimit="10" stroke-linecap="round" stroke-linejoin="round"/>
<path d="M521.7 624.961C517.43 665.631 519.16 706.311 514.88 746.961L477.88 768.111C478.63 761.671 479.52 752.111 479.76 740.471C479.86 735.721 479.85 731.321 479.76 727.251C479.44 712.821 478.29 701.991 478.09 700.001C477.02 689.461 476.34 660.471 477.52 584.121L493.75 585.041C514.4 586.231 523.86 604.411 521.7 624.961Z" fill="#D88B6D" stroke="black" stroke-width="1.5" stroke-linecap="round" stroke-linejoin="round"/>
<path d="M460.55 612.281C457.94 654.951 447.319 716.621 444.709 759.281L450.469 780.211C447.16 782.985 443.567 785.402 439.749 787.421C434.149 790.421 430.299 792.421 425.749 792.301C416.869 792.031 410.75 783.741 409.3 781.571C411.04 773.804 412.776 766.031 414.51 758.251L408.51 613.541C408.25 611.851 406.929 602.151 413.449 594.081C420.159 585.781 430.57 584.911 433.93 584.841H434.499C438.049 584.805 441.569 585.501 444.838 586.886C448.107 588.27 451.055 590.314 453.499 592.889C455.943 595.463 457.831 598.514 459.044 601.85C460.257 605.187 460.77 608.737 460.55 612.281Z" fill="#D88B6D" stroke="black" stroke-width="1.5" stroke-linecap="round" stroke-linejoin="round"/>
<path d="M450.129 777.151L454.299 791.301C454.716 792.719 454.797 794.215 454.537 795.67C454.277 797.125 453.682 798.5 452.8 799.686C451.917 800.872 450.771 801.837 449.452 802.504C448.133 803.171 446.677 803.523 445.199 803.531L416.069 803.661C414.631 803.668 413.21 803.349 411.912 802.729C410.615 802.108 409.475 801.203 408.577 800.079C407.68 798.955 407.048 797.643 406.73 796.241C406.411 794.838 406.414 793.382 406.739 791.981C408.072 786.361 409.376 780.744 410.649 775.131C412.459 777.542 414.786 779.517 417.459 780.911C420.919 782.691 423.899 782.801 429.719 782.911C436.989 783.111 442.199 783.181 447.039 779.841C448.169 779.066 449.206 778.163 450.129 777.151Z" fill="#FFCD88" stroke="black" stroke-width="1.5" stroke-miterlimit="10" stroke-linecap="round" stroke-linejoin="round"/>
<path d="M409.669 672.951C424.872 674.791 440.261 674.454 455.369 671.951C454.449 695.621 452.519 720.531 449.249 746.521C448.242 754.521 447.139 762.411 445.939 770.191L410.149 728.461L409.669 672.951Z" fill="white" stroke="black" stroke-width="1.5" stroke-miterlimit="10" stroke-linecap="round" stroke-linejoin="round"/>
<path d="M453.009 768.84C454.849 776.96 456.686 785.08 458.519 793.2C459.32 794.336 459.779 795.677 459.839 797.065C459.899 798.454 459.559 799.83 458.86 801.03C457.972 802.351 456.648 803.317 455.12 803.76L414.499 803.86C409.379 803.86 405.77 798.47 407.41 793.29L409.84 769.71C409.84 748.104 409.873 726.487 409.94 704.86C424.368 708.052 439.301 708.226 453.799 705.37C453.539 726.53 453.276 747.687 453.009 768.84Z" fill="#FFCD88" stroke="black" stroke-width="1.5" stroke-miterlimit="10" stroke-linecap="round" stroke-linejoin="round"/>
<path d="M409.93 680.351C424.657 682.608 439.649 682.523 454.35 680.101L409.93 680.351Z" fill="white"/>
<path d="M409.93 680.351C424.657 682.608 439.649 682.523 454.35 680.101" stroke="black" stroke-width="1.5" stroke-miterlimit="10" stroke-linecap="round" stroke-linejoin="round"/>
<path d="M422.83 712.661C422.83 712.661 416.3 766.391 432.42 768.301L433.779 712.741L422.83 712.661Z" fill="#FFCD88" stroke="black" stroke-width="1.5" stroke-miterlimit="10" stroke-linecap="round" stroke-linejoin="round"/>
<path d="M423.107 761.463L421.758 761.516C421.008 761.546 420.424 762.179 420.453 762.929L420.507 764.278C420.537 765.029 421.169 765.613 421.92 765.583L423.268 765.53C424.019 765.5 424.603 764.868 424.574 764.117L424.52 762.768C424.49 762.018 423.858 761.433 423.107 761.463Z" fill="#FFCD88" stroke="black" stroke-width="1.5" stroke-miterlimit="10" stroke-linecap="round" stroke-linejoin="round"/>
<path d="M424.579 763.281L432.859 753.791L422.13 746.571L434.27 731.581L422.31 731.801L434.24 718.091L421.229 717.331" stroke="black" stroke-width="1.5" stroke-linecap="round" stroke-linejoin="round"/>
<path d="M442.68 712.661C442.68 712.661 449.2 766.391 433.09 768.301L431.729 712.741L442.68 712.661Z" fill="#FFCD88" stroke="black" stroke-width="1.5" stroke-miterlimit="10" stroke-linecap="round" stroke-linejoin="round"/>
<path d="M442.161 765.517L443.51 765.57C444.261 765.6 444.893 765.016 444.923 764.265L444.976 762.916C445.006 762.166 444.422 761.533 443.672 761.503L442.323 761.45C441.572 761.42 440.94 762.004 440.91 762.755L440.856 764.104C440.827 764.854 441.411 765.487 442.161 765.517Z" fill="#FFCD88" stroke="black" stroke-width="1.5" stroke-miterlimit="10" stroke-linecap="round" stroke-linejoin="round"/>
<path d="M444.602 748.816L445.951 748.87C446.701 748.9 447.334 748.315 447.363 747.565L447.417 746.216C447.447 745.465 446.862 744.833 446.112 744.803L444.763 744.75C444.012 744.72 443.38 745.304 443.35 746.055L443.297 747.404C443.267 748.154 443.851 748.787 444.602 748.816Z" fill="#FFCD88" stroke="black" stroke-width="1.5" stroke-miterlimit="10" stroke-linecap="round" stroke-linejoin="round"/>
<path d="M444.436 734.042L445.785 734.096C446.535 734.125 447.168 733.541 447.197 732.79L447.251 731.442C447.281 730.691 446.696 730.058 445.946 730.029L444.597 729.975C443.846 729.946 443.214 730.53 443.184 731.28L443.131 732.629C443.101 733.38 443.685 734.012 444.436 734.042Z" fill="#FFCD88" stroke="black" stroke-width="1.5" stroke-miterlimit="10" stroke-linecap="round" stroke-linejoin="round"/>
<path d="M445.524 719.568L446.872 719.621C447.623 719.651 448.256 719.067 448.285 718.316L448.339 716.967C448.369 716.217 447.784 715.584 447.034 715.555L445.685 715.501C444.934 715.471 444.302 716.056 444.272 716.806L444.218 718.155C444.189 718.906 444.773 719.538 445.524 719.568Z" fill="#FFCD88" stroke="black" stroke-width="1.5" stroke-miterlimit="10" stroke-linecap="round" stroke-linejoin="round"/>
<path d="M440.93 763.281L432.64 753.791L443.37 746.571L431.229 731.581L443.19 731.801L431.26 718.091L444.28 717.331" stroke="black" stroke-width="1.5" stroke-linecap="round" stroke-linejoin="round"/>
<path d="M407.77 793.731L458.52 793.201L407.77 793.731Z" fill="#FFCD88"/>
<path d="M407.77 793.731L458.52 793.201" stroke="black" stroke-width="1.5" stroke-miterlimit="10" stroke-linecap="round" stroke-linejoin="round"/>
<path d="M439.41 768.351H425.8" stroke="black" stroke-width="1.5" stroke-miterlimit="10" stroke-linecap="round" stroke-linejoin="round"/>
<path d="M475.909 675.66C481.349 675.87 487.199 675.87 493.409 675.52C502.224 675.04 510.993 673.927 519.649 672.19C519.249 696.02 517.899 721.06 515.289 747.19C514.502 755.13 513.623 762.93 512.649 770.59L477.829 728.47L475.909 675.66Z" fill="white" stroke="black" stroke-width="1.5" stroke-miterlimit="10" stroke-linecap="round" stroke-linejoin="round"/>
<path d="M520.6 768.841C531.072 771.398 541.37 774.625 551.43 778.501C563.11 783.011 568.04 785.941 570.55 791.321C570.956 792.178 571.291 793.068 571.55 793.981C571.853 795.184 571.875 796.441 571.616 797.654C571.357 798.868 570.823 800.006 570.055 800.98C569.287 801.955 568.306 802.74 567.187 803.276C566.068 803.812 564.84 804.084 563.6 804.071L479.52 803.851C478.248 803.851 476.995 803.549 475.863 802.968C474.732 802.388 473.755 801.546 473.014 800.513C472.273 799.479 471.789 798.284 471.603 797.027C471.416 795.769 471.531 794.485 471.94 793.281L474.31 777.681L474.63 704.851C490.057 708.039 505.955 708.216 521.449 705.371C521.163 726.531 520.88 747.687 520.6 768.841Z" fill="#FFCD88" stroke="black" stroke-width="1.5" stroke-miterlimit="10" stroke-linecap="round" stroke-linejoin="round"/>
<path d="M476.689 682.751C485.896 683.328 495.136 683.04 504.289 681.891C509.218 681.275 514.112 680.4 518.949 679.271" fill="white"/>
<path d="M476.689 682.751C485.896 683.328 495.136 683.04 504.289 681.891C509.218 681.275 514.112 680.4 518.949 679.271" stroke="black" stroke-width="1.5" stroke-miterlimit="10" stroke-linecap="round" stroke-linejoin="round"/>
<path d="M510.639 712.661C510.639 712.661 504.119 766.391 520.239 768.301L521.599 712.741L510.639 712.661Z" fill="#FFCD88" stroke="black" stroke-width="1.5" stroke-miterlimit="10" stroke-linecap="round" stroke-linejoin="round"/>
<path d="M474.279 777.661C473.379 783.221 472.482 788.781 471.589 794.341H483.329C484.42 791.379 484.387 788.12 483.239 785.181C480.849 779.371 474.909 777.831 474.279 777.661Z" fill="#FFCD88" stroke="black" stroke-width="1.5" stroke-miterlimit="10" stroke-linecap="round" stroke-linejoin="round"/>
<path d="M510.929 761.465L509.58 761.518C508.829 761.548 508.245 762.181 508.275 762.931L508.328 764.28C508.358 765.031 508.99 765.615 509.741 765.585L511.09 765.532C511.84 765.502 512.425 764.869 512.395 764.119L512.341 762.77C512.312 762.02 511.679 761.435 510.929 761.465Z" fill="#FFCD88" stroke="black" stroke-width="1.5" stroke-miterlimit="10" stroke-linecap="round" stroke-linejoin="round"/>
<path d="M508.478 744.755L507.129 744.808C506.379 744.838 505.795 745.471 505.824 746.221L505.878 747.57C505.908 748.321 506.54 748.905 507.291 748.875L508.64 748.822C509.39 748.792 509.974 748.159 509.944 747.409L509.891 746.06C509.861 745.31 509.229 744.725 508.478 744.755Z" fill="#FFCD88" stroke="black" stroke-width="1.5" stroke-miterlimit="10" stroke-linecap="round" stroke-linejoin="round"/>
<path d="M508.663 729.98L507.314 730.033C506.564 730.063 505.979 730.695 506.009 731.446L506.062 732.795C506.092 733.545 506.725 734.13 507.475 734.1L508.824 734.046C509.575 734.017 510.159 733.384 510.129 732.634L510.076 731.285C510.046 730.534 509.413 729.95 508.663 729.98Z" fill="#FFCD88" stroke="black" stroke-width="1.5" stroke-miterlimit="10" stroke-linecap="round" stroke-linejoin="round"/>
<path d="M507.581 715.513L506.232 715.567C505.482 715.596 504.897 716.229 504.927 716.98L504.98 718.329C505.01 719.079 505.643 719.663 506.393 719.634L507.742 719.58C508.493 719.55 509.077 718.918 509.047 718.167L508.994 716.818C508.964 716.068 508.332 715.484 507.581 715.513Z" fill="#FFCD88" stroke="black" stroke-width="1.5" stroke-miterlimit="10" stroke-linecap="round" stroke-linejoin="round"/>
<path d="M512.4 763.281L520.68 753.791L509.95 746.571L522.09 731.581L510.13 731.801L522.06 718.091L509.05 717.331" stroke="black" stroke-width="1.5" stroke-linecap="round" stroke-linejoin="round"/>
<path d="M471.589 794.36L571.719 796.98L471.589 794.36Z" fill="#FFCD88"/>
<path d="M471.589 794.36L571.719 796.98" stroke="black" stroke-width="1.5" stroke-miterlimit="10" stroke-linecap="round" stroke-linejoin="round"/>
<path d="M372.709 467.881C377.299 484.111 378.179 500.491 374.759 527.121C369.669 566.751 362.109 576.991 355.819 616.521C353.487 631.18 351.951 645.955 351.219 660.781L313.549 661.341C313.509 658.821 313.473 656.307 313.439 653.801C314.579 630.801 315.959 612.071 317.009 599.161C320.329 558.581 321.879 545.451 320.459 529.331C318.959 512.331 317.129 504.651 317.559 488.331C318.008 473.871 321.17 459.623 326.879 446.331L363.009 443.901C367.094 451.523 370.346 459.562 372.709 467.881Z" fill="#F25A33" stroke="black" stroke-width="1.5" stroke-linecap="round" stroke-linejoin="round"/>
<path d="M340.54 484.181C339.29 488.831 337.88 493.631 336.26 498.541C332.233 510.791 327.32 522.733 321.56 534.271C322.356 529.649 322.691 524.959 322.56 520.271C322.338 512.076 320.965 503.953 318.479 496.141C325.849 491.511 333.19 488.851 340.54 484.181Z" fill="black" stroke="black" stroke-width="1.5" stroke-miterlimit="10" stroke-linecap="round" stroke-linejoin="round"/>
<path d="M409.989 523.841L399.989 525.331L409.989 523.841Z" fill="white"/>
<path d="M409.989 523.841L399.989 525.331" stroke="black" stroke-width="1.5" stroke-miterlimit="10" stroke-linecap="round" stroke-linejoin="round"/>
<path d="M426.539 458.491C426.459 456.321 425.899 449.041 420.369 444.391C416.969 441.531 413.009 440.781 409.219 440.051C405.726 439.392 402.156 439.241 398.619 439.601C400.766 442.507 402.688 445.572 404.369 448.771C405.653 451.215 406.791 453.733 407.779 456.311C411.263 466.432 412.876 477.102 412.539 487.801C412.36 493.13 411.853 498.444 411.019 503.711C411.019 503.711 410.149 509.241 407.949 524.571C406.869 532.081 408.169 543.841 419.389 562.011C416.256 549.291 413.122 536.567 409.989 523.841C411.489 521.201 412.989 518.391 414.369 515.421C418.721 506.251 422.012 496.616 424.179 486.701" fill="#F25A33"/>
<path d="M426.539 458.491C426.459 456.321 425.899 449.041 420.369 444.391C416.969 441.531 413.009 440.781 409.219 440.051C405.726 439.392 402.156 439.241 398.619 439.601C400.766 442.507 402.688 445.572 404.369 448.771C405.653 451.215 406.791 453.733 407.779 456.311C411.263 466.432 412.876 477.102 412.539 487.801C412.36 493.13 411.853 498.444 411.019 503.711C411.019 503.711 410.149 509.241 407.949 524.571C406.869 532.081 408.169 543.841 419.389 562.011C416.256 549.291 413.122 536.567 409.989 523.841C411.489 521.201 412.989 518.391 414.369 515.421C418.721 506.251 422.012 496.616 424.179 486.701" stroke="black" stroke-width="1.5" stroke-linecap="round" stroke-linejoin="round"/>
<path d="M303.069 496.421C300.629 548.321 315.559 588.791 340.869 596.961C346.443 598.677 352.355 598.99 358.079 597.871C384.079 595.241 397.939 591.871 405.849 589.121C412.986 586.526 420.497 585.107 428.089 584.921C431.501 584.847 434.914 585.031 438.299 585.471C435.641 580.231 432.005 575.547 427.589 571.671C425.739 570.081 423.589 568.901 419.329 566.371C417.799 565.461 411.959 561.971 408.399 560.311C402.499 557.561 396.969 563.631 385.789 563.221C380.299 563.021 364.439 561.081 351.379 560.521C349.592 544.521 347.799 528.544 345.999 512.591C329.069 508.731 319.999 500.281 303.069 496.421Z" fill="#D88B6D" stroke="black" stroke-width="1.5" stroke-linecap="round" stroke-linejoin="round"/>
<path d="M385.81 563.221C391.558 560.82 397.65 559.345 403.86 558.851C408 558.531 413.299 558.111 419.729 559.941C423.049 560.941 435.98 564.571 438.87 574.801C439.573 577.366 439.642 580.063 439.07 582.661" fill="#D88B6D"/>
<path d="M385.81 563.221C391.558 560.82 397.65 559.345 403.86 558.851C408 558.531 413.299 558.111 419.729 559.941C423.049 560.941 435.98 564.571 438.87 574.801C439.573 577.366 439.642 580.063 439.07 582.661" stroke="black" stroke-width="1.5" stroke-linecap="round" stroke-linejoin="round"/>
<path d="M408.239 576.351L411.109 587.411C411.569 588.525 412.417 589.436 413.495 589.975C414.574 590.514 415.81 590.645 416.978 590.345C418.146 590.044 419.165 589.331 419.849 588.338C420.533 587.345 420.835 586.139 420.699 584.941L418.629 575.621" fill="#D88B6D"/>
<path d="M408.239 576.351L411.109 587.411C411.569 588.525 412.417 589.436 413.495 589.975C414.574 590.514 415.81 590.645 416.978 590.345C418.146 590.044 419.165 589.331 419.849 588.338C420.533 587.345 420.835 586.139 420.699 584.941L418.629 575.621" stroke="black" stroke-width="1.5" stroke-linecap="round" stroke-linejoin="round"/>
<path d="M418.63 575.661C419.823 579.594 421.016 583.524 422.21 587.451C422.67 588.565 423.517 589.476 424.596 590.015C425.674 590.554 426.911 590.686 428.079 590.385C429.246 590.084 430.266 589.372 430.95 588.379C431.634 587.386 431.935 586.179 431.8 584.981L429.19 574.751" fill="#D88B6D"/>
<path d="M418.63 575.661C419.823 579.594 421.016 583.524 422.21 587.451C422.67 588.565 423.517 589.476 424.596 590.015C425.674 590.554 426.911 590.686 428.079 590.385C429.246 590.084 430.266 589.372 430.95 588.379C431.634 587.386 431.935 586.179 431.8 584.981L429.19 574.751" stroke="black" stroke-width="1.5" stroke-linecap="round" stroke-linejoin="round"/>
<path d="M429.55 576.351L432.42 587.411C432.88 588.525 433.727 589.436 434.806 589.975C435.884 590.514 437.121 590.646 438.289 590.345C439.456 590.044 440.476 589.332 441.16 588.339C441.843 587.346 442.145 586.139 442.01 584.941C440.956 581.561 439.91 578.181 438.87 574.801" fill="#D88B6D"/>
<path d="M429.55 576.351L432.42 587.411C432.88 588.525 433.727 589.436 434.806 589.975C435.884 590.514 437.121 590.646 438.289 590.345C439.456 590.044 440.476 589.332 441.16 588.339C441.843 587.346 442.145 586.139 442.01 584.941C440.956 581.561 439.91 578.181 438.87 574.801" stroke="black" stroke-width="1.5" stroke-linecap="round" stroke-linejoin="round"/>
<path d="M350.349 457.941V437.649C341.891 437.693 336.925 439.301 329.419 443.201C317.679 449.371 311.719 458.351 308.419 463.291C294.139 484.661 296.869 508.471 297.919 515.451H298.099C298.244 525.377 299.577 535.251 302.069 544.861C306.309 561.231 311.069 579.501 327.599 590.861C352.599 607.951 384.689 595.611 388.879 593.921C384.729 589.772 382.287 584.218 382.035 578.355C381.783 572.493 383.74 566.75 387.519 562.261L353.749 560.821C351.489 544.154 349.236 527.487 346.989 510.821L347.319 499.901" fill="#F25A33"/>
<path d="M350.349 457.941V437.649C341.891 437.693 336.925 439.301 329.419 443.201C317.679 449.371 311.719 458.351 308.419 463.291C294.139 484.661 296.869 508.471 297.919 515.451H298.099C298.244 525.377 299.577 535.251 302.069 544.861C306.309 561.231 311.069 579.501 327.599 590.861C352.599 607.951 384.689 595.611 388.879 593.921C384.729 589.772 382.287 584.218 382.035 578.355C381.783 572.493 383.74 566.75 387.519 562.261L353.749 560.821C351.489 544.154 349.236 527.487 346.989 510.821L347.319 499.901" stroke="black" stroke-width="1.5" stroke-linecap="round" stroke-linejoin="round"/>
<path d="M301 524L298 516L301 524Z" fill="#8CA45B"/>
<path d="M301 524L298 516" stroke="black" stroke-width="1.5" stroke-miterlimit="10" stroke-linecap="round" stroke-linejoin="round"/>
<path fill-rule="evenodd" clip-rule="evenodd" d="M409.109 433.291L408.799 433.161C404.069 431.331 396.879 431.661 395.859 434.181C395.619 434.801 395.409 436.341 398.619 439.601L411.269 451.801C415.199 448.701 416.889 443.851 415.609 439.971C415.022 438.482 414.145 437.125 413.03 435.978C411.914 434.831 410.581 433.918 409.109 433.291ZM342.739 458.491L323.069 440.311C334.599 433.841 344.969 432.001 349.009 436.221C349.736 437.016 350.258 437.978 350.529 439.021L364.069 445.931L342.739 458.491Z" fill="black"/>
<path d="M408.799 433.161L409.089 432.469C409.082 432.466 409.076 432.464 409.069 432.461L408.799 433.161ZM409.109 433.291L409.403 432.601L409.399 432.599L409.109 433.291ZM395.859 434.181L395.164 433.899L395.159 433.91L395.859 434.181ZM398.619 439.601L398.084 440.127C398.089 440.131 398.094 440.136 398.098 440.14L398.619 439.601ZM411.269 451.801L410.748 452.34C411.018 452.601 411.439 452.622 411.733 452.389L411.269 451.801ZM415.609 439.971L416.321 439.736C416.317 439.722 416.312 439.709 416.307 439.696L415.609 439.971ZM323.069 440.311L322.702 439.657C322.493 439.774 322.353 439.984 322.324 440.223C322.296 440.461 322.384 440.698 322.56 440.861L323.069 440.311ZM342.739 458.491L342.23 459.041C342.473 459.266 342.835 459.305 343.12 459.137L342.739 458.491ZM349.009 436.221L349.563 435.715C349.559 435.711 349.555 435.706 349.551 435.702L349.009 436.221ZM350.529 439.021L349.803 439.21C349.857 439.417 349.998 439.591 350.188 439.689L350.529 439.021ZM364.069 445.931L364.45 446.577C364.686 446.438 364.827 446.182 364.819 445.908C364.811 445.634 364.654 445.387 364.41 445.263L364.069 445.931ZM408.509 433.852L408.819 433.982L409.399 432.599L409.089 432.469L408.509 433.852ZM396.554 434.462C396.696 434.111 397.109 433.723 397.925 433.397C398.719 433.079 399.778 432.869 400.988 432.788C403.409 432.625 406.278 432.99 408.528 433.86L409.069 432.461C406.589 431.502 403.498 431.116 400.887 431.291C399.581 431.379 398.355 431.609 397.367 432.004C396.4 432.391 395.531 432.99 395.164 433.899L396.554 434.462ZM399.153 439.074C397.587 437.484 396.917 436.373 396.649 435.643C396.394 434.946 396.503 434.594 396.558 434.451L395.159 433.91C394.975 434.387 394.859 435.115 395.241 436.159C395.611 437.168 396.44 438.457 398.084 440.127L399.153 439.074ZM411.789 451.261L399.14 439.061L398.098 440.14L410.748 452.34L411.789 451.261ZM414.897 440.206C416.058 443.725 414.541 448.264 410.804 451.212L411.733 452.389C415.856 449.137 417.72 443.976 416.321 439.736L414.897 440.206ZM412.492 436.501C413.539 437.576 414.361 438.849 414.911 440.245L416.307 439.696C415.684 438.114 414.752 436.673 413.567 435.455L412.492 436.501ZM408.815 433.981C410.196 434.569 411.445 435.425 412.492 436.501L413.567 435.455C412.382 434.237 410.966 433.267 409.403 432.601L408.815 433.981ZM322.56 440.861L342.23 459.041L343.248 457.94L323.578 439.76L322.56 440.861ZM349.551 435.702C347.266 433.315 343.335 432.764 338.727 433.517C334.076 434.276 328.516 436.394 322.702 439.657L323.436 440.965C329.153 437.757 334.543 435.72 338.969 434.997C343.439 434.267 346.712 434.906 348.468 436.739L349.551 435.702ZM351.255 438.832C350.953 437.671 350.372 436.601 349.563 435.715L348.455 436.726C349.1 437.432 349.563 438.285 349.803 439.21L351.255 438.832ZM364.41 445.263L350.87 438.353L350.188 439.689L363.728 446.599L364.41 445.263ZM343.12 459.137L364.45 446.577L363.689 445.284L342.359 457.844L343.12 459.137Z" fill="black"/>
<path d="M385.479 445.421C385.479 445.421 393.649 469.421 391.609 485.761" stroke="black" stroke-width="1.5" stroke-miterlimit="10" stroke-linecap="round" stroke-linejoin="round"/>
<path d="M389.049 459.201C390.457 459.201 391.599 458.059 391.599 456.651C391.599 455.242 390.457 454.101 389.049 454.101C387.641 454.101 386.499 455.242 386.499 456.651C386.499 458.059 387.641 459.201 389.049 459.201Z" fill="white" stroke="black" stroke-width="1.5" stroke-miterlimit="10" stroke-linecap="round" stroke-linejoin="round"/>
<path d="M391.61 472.481C393.018 472.481 394.16 471.339 394.16 469.931C394.16 468.522 393.018 467.381 391.61 467.381C390.201 467.381 389.06 468.522 389.06 469.931C389.06 471.339 390.201 472.481 391.61 472.481Z" fill="white" stroke="black" stroke-width="1.5" stroke-miterlimit="10" stroke-linecap="round" stroke-linejoin="round"/>
<path d="M415.56 569.94H402.06V812.82H415.56V569.94Z" fill="#FFE1B8" stroke="black" stroke-width="1.5" stroke-linecap="round" stroke-linejoin="round"/>
<path d="M407.06 569.94V810.83" stroke="black" stroke-width="1.5" stroke-linecap="round" stroke-linejoin="round"/>
<path d="M757.13 569.73H922.05V712.55H773.54C769.177 712.55 764.993 710.817 761.908 707.732C758.823 704.647 757.09 700.463 757.09 696.1V569.73H757.13Z" fill="#FFCD88" stroke="black" stroke-width="1.5" stroke-linecap="round" stroke-linejoin="round"/>
<path d="M932.479 569.73H856.77V712.55H932.479V569.73Z" fill="#FFE1B8" stroke="black" stroke-width="1.5" stroke-linecap="round" stroke-linejoin="round"/>
<path d="M932.35 564H402V570.45H932.35V564Z" fill="#FFCD88" stroke="black" stroke-width="1.5" stroke-linecap="round" stroke-linejoin="round"/>
<path d="M932.47 712.55H918.97V812.81H932.47V712.55Z" fill="#FFE1B8" stroke="black" stroke-width="1.5" stroke-linecap="round" stroke-linejoin="round"/>
<path d="M923.98 712.55V811.99" stroke="black" stroke-width="1.5" stroke-linecap="round" stroke-linejoin="round"/>
<path d="M871.09 712.55H857.59V812.81H871.09V712.55Z" fill="#FFE1B8" stroke="black" stroke-width="1.5" stroke-linecap="round" stroke-linejoin="round"/>
<path d="M862.59 712.55V811.99" stroke="black" stroke-width="1.5" stroke-linecap="round" stroke-linejoin="round"/>
<path d="M870.9 570.11C870.9 570.11 891.33 605.51 857.63 618.11" stroke="black" stroke-width="1.5" stroke-linecap="round" stroke-linejoin="round"/>
<path d="M900.18 570.79C906.91 618.96 901.26 632.51 894.39 635.47C888.01 638.22 881.28 631.52 872.94 634.79C862.29 638.96 857.88 655.55 856.63 668.49" stroke="black" stroke-width="1.5" stroke-linecap="round" stroke-linejoin="round"/>
<path d="M890.83 605.1C888.32 603.46 880.89 608.43 878.74 614.78C878.4 615.78 877.06 619.78 879.02 621.67C880.6 623.21 883.61 622.67 885.37 621.94C891.78 619.08 893.75 607.01 890.83 605.1Z" stroke="black" stroke-width="1.5" stroke-linecap="round" stroke-linejoin="round"/>
<path d="M886.39 711.89C886.39 711.89 876.39 691.21 886.39 672.83C896.39 654.45 931.54 633 931.54 633" stroke="black" stroke-width="1.5" stroke-linecap="round" stroke-linejoin="round"/>
<path d="M931.54 659.04C919.25 663.54 915.7 668.87 914.69 672.83C912.47 681.52 921.35 688.03 919.29 698.11C917.93 704.74 912.59 709.23 908.56 711.89" stroke="black" stroke-width="1.5" stroke-linecap="round" stroke-linejoin="round"/>
<path d="M476.94 569.94H463.44V812.82H476.94V569.94Z" fill="#FFE1B8" stroke="black" stroke-width="1.5" stroke-linecap="round" stroke-linejoin="round"/>
<path d="M468.45 569.94V810.83" stroke="black" stroke-width="1.5" stroke-linecap="round" stroke-linejoin="round"/>
<path d="M344.06 419.111C359.005 419.111 371.12 406.996 371.12 392.051C371.12 377.106 359.005 364.991 344.06 364.991C329.115 364.991 317 377.106 317 392.051C317 406.996 329.115 419.111 344.06 419.111Z" fill="black" stroke="black" stroke-width="1.5" stroke-miterlimit="10" stroke-linecap="round" stroke-linejoin="round"/>
<path d="M362.73 411.681L389.66 412.571C392.961 413.356 396.411 413.25 399.656 412.262C402.902 411.275 405.827 409.442 408.13 406.951C410.572 404.243 412.201 400.902 412.83 397.311C413.109 395.581 413.142 393.821 412.93 392.081C412.21 385.381 411.86 382.971 411.44 378.311C410.52 368.201 414.24 367.051 412.72 358.101C412.23 355.221 411.6 351.481 409.05 348.051C403.39 340.431 391.69 340.311 388.24 340.331C383.309 340.369 378.442 341.453 373.96 343.511L362.73 411.681Z" fill="#F7CCB9"/>
<path d="M348.231 369.861C346.652 363.724 347.573 357.211 350.791 351.751C357.351 341.081 369.971 340.751 370.791 340.751L381.511 340.171C391.831 337.301 402.211 339.791 408.001 346.701C410.65 349.969 412.281 353.944 412.691 358.131C408.959 357.72 405.421 356.254 402.493 353.903C399.566 351.553 397.369 348.416 396.161 344.861C396.119 344.744 396.041 344.644 395.937 344.577C395.833 344.51 395.709 344.479 395.586 344.489C395.462 344.499 395.346 344.55 395.254 344.634C395.163 344.718 395.102 344.829 395.081 344.951C394.143 350.698 391.108 355.894 386.561 359.531C382.962 362.256 378.636 363.853 374.131 364.121C372.841 372.531 371.071 381.601 368.661 391.191C366.831 398.491 364.821 405.331 362.731 411.701C357.891 397.748 353.057 383.801 348.231 369.861Z" fill="black" stroke="black" stroke-width="1.5" stroke-miterlimit="10" stroke-linecap="round" stroke-linejoin="round"/>
<path d="M390.171 412.611C393.051 421.501 395.931 430.611 398.801 439.531C391.038 445.103 381.56 447.762 372.031 447.041C364.383 446.354 357.094 443.483 351.031 438.771L363.311 411.491" fill="#F7CCB9"/>
<path d="M390.171 412.611C393.051 421.501 395.931 430.611 398.801 439.531C391.038 445.103 381.56 447.762 372.031 447.041C364.383 446.354 357.094 443.483 351.031 438.771L363.311 411.491" stroke="black" stroke-width="1.5" stroke-linecap="round" stroke-linejoin="round"/>
<path d="M397.9 388.591H399.56C400.187 388.593 400.801 388.422 401.337 388.098C401.873 387.774 402.309 387.31 402.599 386.755C402.889 386.2 403.021 385.576 402.981 384.951C402.94 384.326 402.729 383.724 402.37 383.211L397.9 376.861" stroke="black" stroke-width="1.5" stroke-linecap="round" stroke-linejoin="round"/>
<path d="M403.13 392.631C403.173 392.632 403.214 392.645 403.251 392.667C403.287 392.689 403.317 392.72 403.338 392.757C403.359 392.794 403.371 392.836 403.371 392.879C403.371 392.921 403.361 392.963 403.34 393.001C402.887 393.815 402.224 394.494 401.421 394.966C400.617 395.439 399.702 395.688 398.77 395.688C397.838 395.688 396.923 395.439 396.12 394.966C395.316 394.494 394.653 393.815 394.2 393.001C394.179 392.964 394.168 392.923 394.168 392.88C394.168 392.838 394.179 392.796 394.201 392.76C394.222 392.723 394.253 392.693 394.289 392.672C394.326 392.651 394.368 392.64 394.41 392.641L403.13 392.631Z" fill="black"/>
<path fill-rule="evenodd" clip-rule="evenodd" d="M388.271 379.042C388.271 380.527 387.64 381.732 386.861 381.732C386.082 381.732 385.451 380.527 385.451 379.042C385.451 377.556 386.082 376.352 386.861 376.352C387.64 376.352 388.271 377.556 388.271 379.042ZM409.842 379.042C409.842 380.527 409.21 381.732 408.432 381.732C407.653 381.732 407.021 380.527 407.021 379.042C407.021 377.556 407.653 376.352 408.432 376.352C409.21 376.352 409.842 377.556 409.842 379.042Z" fill="black"/>
<path d="M359.49 390.492L364.92 370.732L363.08 370.672C360.998 370.606 358.972 371.355 357.433 372.759C355.894 374.163 354.964 376.112 354.84 378.192C354.741 379.99 355.253 381.769 356.291 383.241C357.329 384.713 358.833 385.791 360.56 386.302" fill="#F7CCB9"/>
<path d="M359.49 390.492L364.92 370.732L363.08 370.672C360.998 370.606 358.972 371.355 357.433 372.759C355.894 374.163 354.964 376.112 354.84 378.192C354.741 379.99 355.253 381.769 356.291 383.241C357.329 384.713 358.833 385.791 360.56 386.302" stroke="black" stroke-width="1.5" stroke-linecap="round" stroke-linejoin="round"/>
<path fill-rule="evenodd" clip-rule="evenodd" d="M385.62 372.258C386.011 372.121 386.216 371.693 386.079 371.302C385.941 370.911 385.513 370.706 385.122 370.844C383.464 371.427 382.074 372.592 381.209 374.122C381.005 374.482 381.132 374.94 381.492 375.144C381.853 375.348 382.31 375.221 382.514 374.86C383.201 373.646 384.305 372.722 385.62 372.258ZM408.191 370.844C407.8 370.706 407.372 370.911 407.234 371.302C407.097 371.693 407.302 372.121 407.693 372.258C409.008 372.722 410.112 373.646 410.799 374.86C411.003 375.221 411.46 375.348 411.821 375.144C412.181 374.94 412.308 374.482 412.104 374.122C411.239 372.592 409.849 371.427 408.191 370.844Z" fill="black"/>
<path d="M381.9 410.861L389.66 412.611C392.961 413.396 396.411 413.289 399.656 412.302C402.902 411.314 405.827 409.481 408.13 406.991C410.572 404.283 412.201 400.942 412.83 397.351C413.109 395.621 413.142 393.86 412.93 392.121C412.21 385.421 411.86 383.011 411.44 378.351C410.52 368.241 414.24 367.091 412.72 358.141C412.23 355.261 411.6 351.521 409.05 348.091C402.81 339.671 390.27 340.251 388.24 340.371C385.77 340.521 383.73 340.281 382.41 340.371" stroke="black" stroke-width="1.5" stroke-miterlimit="10" stroke-linecap="round" stroke-linejoin="round"/>
<path d="M402.701 376.901H394.211" stroke="black" stroke-width="1.5" stroke-linecap="round" stroke-linejoin="round"/>
<path d="M413.725 389.148C419.585 389.148 424.335 384.397 424.335 378.538C424.335 372.678 419.585 367.928 413.725 367.928C407.865 367.928 403.115 372.678 403.115 378.538C403.115 384.397 407.865 389.148 413.725 389.148Z" stroke="black" stroke-width="1.5" stroke-linecap="round" stroke-linejoin="round"/>
<path opacity="0.17" fill-rule="evenodd" clip-rule="evenodd" d="M394.316 378.538C394.316 384.397 389.565 389.148 383.706 389.148C377.846 389.148 373.096 384.397 373.096 378.538C373.096 372.678 377.846 367.928 383.706 367.928C389.565 367.928 394.316 372.678 394.316 378.538ZM424.22 378.538C424.22 384.397 419.47 389.148 413.61 389.148C407.75 389.148 403 384.397 403 378.538C403 372.678 407.75 367.928 413.61 367.928C419.47 367.928 424.22 372.678 424.22 378.538Z" fill="white"/>
<path d="M383.706 389.148C389.565 389.148 394.316 384.397 394.316 378.538C394.316 372.678 389.565 367.928 383.706 367.928C377.846 367.928 373.096 372.678 373.096 378.538C373.096 384.397 377.846 389.148 383.706 389.148Z" stroke="black" stroke-width="1.5" stroke-linecap="round" stroke-linejoin="round"/>
<path d="M402.795 376.908H394.305" stroke="black" stroke-width="1.5" stroke-linecap="round" stroke-linejoin="round"/>
<path d="M383.706 389.148C389.565 389.148 394.316 384.397 394.316 378.538C394.316 372.678 389.565 367.928 383.706 367.928C377.846 367.928 373.096 372.678 373.096 378.538C373.096 384.397 377.846 389.148 383.706 389.148Z" stroke="black" stroke-width="1.5" stroke-linecap="round" stroke-linejoin="round"/>
<path d="M591.96 556.57L613.41 564.57H752.7C753.179 564.57 753.652 564.474 754.093 564.286C754.533 564.098 754.931 563.823 755.262 563.477C755.592 563.131 755.85 562.722 756.018 562.274C756.186 561.826 756.262 561.348 756.24 560.87V560.8C756.199 559.895 755.812 559.041 755.158 558.413C754.505 557.786 753.636 557.434 752.73 557.43L591.96 556.57Z" fill="#82AAD3" stroke="black" stroke-width="1.5" stroke-linecap="round" stroke-linejoin="round"/>
<path d="M562 486.02L583.45 564.66H726.45L707.04 485L562 486.02Z" fill="#82AAD3" stroke="black" stroke-width="1.5" stroke-linecap="round" stroke-linejoin="round"/>
<path d="M640.25 527.85C639.302 527.445 638.508 526.748 637.982 525.862C637.456 524.975 637.226 523.944 637.324 522.918C637.423 521.892 637.845 520.924 638.53 520.153C639.215 519.383 640.127 518.85 641.134 518.632C642.142 518.414 643.193 518.522 644.135 518.94C645.077 519.359 645.861 520.066 646.375 520.96C646.889 521.853 647.105 522.887 646.993 523.912C646.881 524.937 646.445 525.899 645.75 526.66C647.148 527.008 648.388 527.818 649.267 528.96C650.146 530.102 650.612 531.508 650.59 532.949C650.568 534.39 650.059 535.781 649.146 536.896C648.232 538.01 646.968 538.783 645.56 539.087C644.152 539.392 642.681 539.211 641.389 538.574C640.097 537.936 639.058 536.88 638.442 535.577C637.827 534.275 637.67 532.802 637.999 531.398C638.327 529.995 639.12 528.745 640.25 527.85Z" fill="white" stroke="black" stroke-width="1.5" stroke-linecap="round" stroke-linejoin="round"/>
</svg>
