<svg width="1220" height="920" viewBox="0 0 1220 920" fill="none" xmlns="http://www.w3.org/2000/svg">
<path d="M557.02 306.891H472V339.781H557.02V306.891Z" stroke="#CCCCCC" stroke-width="1.5" stroke-linecap="round" stroke-linejoin="round"/>
<path d="M642.042 306.891H557.021V339.781H642.042V306.891Z" stroke="#CCCCCC" stroke-width="1.5" stroke-linecap="round" stroke-linejoin="round"/>
<path d="M601.201 274H516.181V306.89H601.201V274Z" stroke="#CCCCCC" stroke-width="1.5" stroke-linecap="round" stroke-linejoin="round"/>
<path d="M1096.13 118H769.681V472.53H1096.13V118Z" stroke="#CCCCCC" stroke-width="1.5" stroke-linecap="round" stroke-linejoin="round"/>
<path d="M1104.69 471.989H763V488.029H1104.69V471.989Z" stroke="#CCCCCC" stroke-width="1.5" stroke-linecap="round" stroke-linejoin="round"/>
<path d="M770.48 134.579H1095.06" stroke="#CCCCCC" stroke-width="1.5" stroke-linecap="round" stroke-linejoin="round"/>
<path d="M770.48 149.819H1095.06" stroke="#CCCCCC" stroke-width="1.5" stroke-linecap="round" stroke-linejoin="round"/>
<path d="M770.48 165.061H1095.06" stroke="#CCCCCC" stroke-width="1.5" stroke-linecap="round" stroke-linejoin="round"/>
<path d="M770.48 180.3H1095.06" stroke="#CCCCCC" stroke-width="1.5" stroke-linecap="round" stroke-linejoin="round"/>
<path d="M770.48 195.539H1095.06" stroke="#CCCCCC" stroke-width="1.5" stroke-linecap="round" stroke-linejoin="round"/>
<path d="M770.48 210.779H1095.06" stroke="#CCCCCC" stroke-width="1.5" stroke-linecap="round" stroke-linejoin="round"/>
<path d="M770.48 226.021H1095.06" stroke="#CCCCCC" stroke-width="1.5" stroke-linecap="round" stroke-linejoin="round"/>
<path d="M770.48 241.26H1095.06" stroke="#CCCCCC" stroke-width="1.5" stroke-linecap="round" stroke-linejoin="round"/>
<path d="M770.48 256.5H1095.06" stroke="#CCCCCC" stroke-width="1.5" stroke-linecap="round" stroke-linejoin="round"/>
<path d="M770.48 271.739H1095.06" stroke="#CCCCCC" stroke-width="1.5" stroke-linecap="round" stroke-linejoin="round"/>
<path d="M770.48 286.979H1095.06" stroke="#CCCCCC" stroke-width="1.5" stroke-linecap="round" stroke-linejoin="round"/>
<path d="M1049.21 390.31V134.85" stroke="#CCCCCC" stroke-width="1.5" stroke-linecap="round" stroke-linejoin="round"/>
<path d="M1049.53 413.471C1045.86 413.571 1043.44 409.771 1043.31 409.561C1040.54 405.061 1042.92 397.361 1049.23 390.311C1055.55 397.311 1058.06 405.021 1055.34 409.561C1055.14 409.871 1052.98 413.381 1049.53 413.471Z" stroke="#CCCCCC" stroke-width="1.5" stroke-linecap="round" stroke-linejoin="round"/>
<path d="M1070.77 341.619V134.649" stroke="#CCCCCC" stroke-width="1.5" stroke-linecap="round" stroke-linejoin="round"/>
<path d="M1071.07 364.779C1067.4 364.879 1064.97 361.069 1064.85 360.869C1062.08 356.369 1064.46 348.659 1070.77 341.619C1077.09 348.619 1079.59 356.319 1076.88 360.869C1076.7 361.179 1074.53 364.689 1071.07 364.779Z" stroke="#CCCCCC" stroke-width="1.5" stroke-linecap="round" stroke-linejoin="round"/>
<path d="M372.86 160.891H287.84V193.781H372.86V160.891Z" stroke="#CCCCCC" stroke-width="1.5" stroke-linecap="round" stroke-linejoin="round"/>
<path d="M332.02 128H247V160.89H332.02V128Z" stroke="#CCCCCC" stroke-width="1.5" stroke-linecap="round" stroke-linejoin="round"/>
<path d="M853.65 773.199H455.41V826.139H853.65V773.199Z" stroke="#CCCCCC" stroke-width="1.5" stroke-linecap="round" stroke-linejoin="round"/>
<path d="M754.19 719.96H355.95V772.9H754.19V719.96Z" stroke="#CCCCCC" stroke-width="1.5" stroke-linecap="round" stroke-linejoin="round"/>
<path d="M655.01 666.479H256.77V719.419H655.01V666.479Z" stroke="#CCCCCC" stroke-width="1.5" stroke-linecap="round" stroke-linejoin="round"/>
<path d="M555.55 613.239H157.31V666.179H555.55V613.239Z" stroke="#CCCCCC" stroke-width="1.5" stroke-linecap="round" stroke-linejoin="round"/>
<path d="M254.85 264C280.717 264 305.525 274.275 323.817 292.565C342.109 310.855 352.387 335.663 352.39 361.53V613.3H157.31V361.53C157.312 335.663 167.59 310.855 185.882 292.565C204.174 274.275 228.982 264 254.85 264Z" stroke="#CCCCCC" stroke-width="1.5" stroke-linecap="round" stroke-linejoin="round"/>
<path d="M157.31 613.3H94" stroke="#CCCCCC" stroke-width="1.5" stroke-linecap="round" stroke-linejoin="round"/>
<path d="M502.777 829.15H557.587L533.227 753.56H478.417L502.777 829.15Z" fill="#FFCD88" stroke="black" stroke-width="1.5" stroke-linecap="round" stroke-linejoin="round"/>
<path d="M490.017 790.599C496.287 792.829 500.177 794.139 504.237 795.199C510.157 796.739 512.627 797.069 515.237 795.959C518.01 794.612 520.159 792.248 521.237 789.359C522.757 785.079 520.237 783.489 521.237 778.189C521.507 776.749 522.377 771.999 526.467 769.059C528.046 767.951 529.857 767.214 531.762 766.906C533.667 766.598 535.618 766.725 537.467 767.279" stroke="black" stroke-width="1.5" stroke-linecap="round" stroke-linejoin="round"/>
<path d="M497.938 812.899C500.408 812.229 514.197 808.749 526.617 816.959C531.055 819.934 534.71 823.938 537.268 828.629" stroke="black" stroke-width="1.5" stroke-linecap="round" stroke-linejoin="round"/>
<path d="M541.287 781C538.727 782 536.847 785.08 533.567 789C531.647 791.31 528.047 795.65 528.627 801.38C528.737 802.48 529.227 807.25 532.627 809.29C535.797 811.2 538.627 808.95 544.547 809.66C547.025 809.809 549.446 810.47 551.657 811.6" stroke="black" stroke-width="1.5" stroke-linecap="round" stroke-linejoin="round"/>
<path d="M304.737 829.15H249.927L274.287 753.56H329.097L304.737 829.15Z" fill="#FFCD88" stroke="black" stroke-width="1.5" stroke-linecap="round" stroke-linejoin="round"/>
<path d="M585.617 734.76H232.677C232.679 739.875 234.713 744.778 238.33 748.394C241.947 752.009 246.852 754.04 251.967 754.04H566.337C571.45 754.04 576.354 752.009 579.97 748.393C583.585 744.778 585.617 739.874 585.617 734.76Z" fill="#FFE1B8" stroke="black" stroke-width="1.5" stroke-linecap="round" stroke-linejoin="round"/>
<path d="M232.677 734.76L192.577 533.59C191.714 529.272 191.82 524.817 192.888 520.545C193.955 516.273 195.957 512.292 198.75 508.887C201.542 505.483 205.055 502.74 209.035 500.858C213.015 498.975 217.364 497.999 221.767 498H448.927C455.587 498 462.055 500.234 467.296 504.344C472.537 508.453 476.248 514.202 477.837 520.67L530.387 734.76H232.677Z" fill="#F25A33" stroke="black" stroke-width="1.5" stroke-linecap="round" stroke-linejoin="round"/>
<path d="M292.265 654C291.345 664.6 293.192 675.2 292.265 685.8H516C467 685.8 366.605 680.72 328.735 675.16C325.783 674.823 322.861 674.261 319.995 673.48C314.065 671.67 305.455 670.93 299.765 665C297.038 662.126 293.565 657.743 292.265 654Z" fill="black" stroke="black" stroke-width="1.5" stroke-linecap="round" stroke-linejoin="round"/>
<path d="M291.287 733.99L291.817 659.43C291.845 655.097 290.996 650.803 289.322 646.807C287.647 642.811 285.18 639.195 282.071 636.177C278.961 633.159 275.273 630.802 271.229 629.247C267.184 627.692 262.867 626.972 258.537 627.13L211.827 628.94" fill="#F25A33"/>
<path d="M291.287 733.99L291.817 659.43C291.845 655.097 290.996 650.803 289.322 646.807C287.647 642.811 285.18 639.195 282.071 636.177C278.961 633.159 275.273 630.802 271.229 629.247C267.184 627.692 262.867 626.972 258.537 627.13L211.827 628.94" stroke="black" stroke-width="1.5" stroke-linecap="round" stroke-linejoin="round"/>
<path d="M585.677 734.989L586.207 659.429C586.237 655.096 585.389 650.801 583.714 646.804C582.04 642.807 579.573 639.191 576.464 636.173C573.354 633.155 569.665 630.797 565.62 629.243C561.575 627.689 557.257 626.97 552.927 627.129L504.227 628.939L530.417 734.759L585.677 734.989Z" fill="#F25A33" stroke="black" stroke-width="1.5" stroke-linecap="round" stroke-linejoin="round"/>
<path d="M291.117 687.06L544.967 686.5C552.387 686.5 558.407 707.41 558.407 733.23V734.23C385.727 734.82 464.047 734.41 291.407 735.01C291.3 719.023 291.203 703.04 291.117 687.06Z" fill="#F25A33" stroke="black" stroke-width="1.5" stroke-linecap="round" stroke-linejoin="round"/>
<path d="M324.417 766.01C320.759 763.374 316.419 761.85 311.917 761.62C308.717 761.5 304.807 761.35 301.917 764.21C299.307 766.77 298.157 771.08 299.437 774C301.437 778.54 310.937 783 320.437 779" stroke="black" stroke-width="1.5" stroke-linecap="round" stroke-linejoin="round"/>
<path d="M317.487 790.599C311.227 792.829 307.327 794.139 303.267 795.199C297.357 796.739 294.887 797.069 292.267 795.959C289.488 794.618 287.338 792.252 286.267 789.359C284.747 785.079 287.267 783.489 286.267 778.189C285.997 776.749 285.117 771.999 281.037 769.059C279.457 767.951 277.646 767.214 275.741 766.906C273.836 766.598 271.885 766.725 270.037 767.279" stroke="black" stroke-width="1.5" stroke-linecap="round" stroke-linejoin="round"/>
<path d="M309.577 812.899C307.097 812.229 293.317 808.749 280.897 816.959C276.456 819.935 272.799 823.938 270.237 828.629" stroke="black" stroke-width="1.5" stroke-linecap="round" stroke-linejoin="round"/>
<path d="M266.227 781C268.777 782 270.667 785.08 273.947 789C275.867 791.31 279.467 795.65 278.887 801.38C278.777 802.48 278.287 807.25 274.887 809.29C271.717 811.2 268.887 808.95 262.967 809.66C260.488 809.807 258.067 810.468 255.857 811.6" stroke="black" stroke-width="1.5" stroke-linecap="round" stroke-linejoin="round"/>
<path d="M483.097 766.01C486.752 763.371 491.094 761.846 495.597 761.62C498.797 761.5 502.707 761.35 505.597 764.21C508.207 766.77 509.357 771.08 508.077 774C506.077 778.54 496.577 783 487.077 779" stroke="black" stroke-width="1.5" stroke-linecap="round" stroke-linejoin="round"/>
<path d="M1029.6 830H278.87" stroke="black" stroke-width="1.5" stroke-linecap="round" stroke-linejoin="round"/>
<path d="M698.7 840.21H161" stroke="black" stroke-width="1.5" stroke-linecap="round" stroke-linejoin="round"/>
<path d="M742.62 840.21H711.47" stroke="black" stroke-width="1.5" stroke-linecap="round" stroke-linejoin="round"/>
<path d="M357.538 487.111C360.648 481.111 367.348 468.251 375.068 468.851C388.338 469.851 396.068 510.091 400.618 545.411L429.048 521.841L458.488 551.031C436.698 568.731 419.868 579.481 409.488 585.581C406.118 587.581 401.378 590.241 395.188 590.011C380.888 589.471 371.088 573.871 366.248 566.181C362.948 560.951 339.338 522.171 357.538 487.111Z" fill="#F25A33" stroke="black" stroke-width="1.5" stroke-linecap="round" stroke-linejoin="round"/>
<path d="M400.989 544.892L390.289 556.172" stroke="black" stroke-width="1.5" stroke-linecap="round" stroke-linejoin="round"/>
<path d="M464.03 531.592L427.65 503.682C425.79 502.332 426.03 499.232 427.36 497.682C427.698 497.328 428.103 497.044 428.551 496.847C429 496.649 429.482 496.542 429.972 496.532C430.462 496.522 430.949 496.609 431.405 496.787C431.861 496.965 432.277 497.232 432.63 497.572C437.06 501.092 441.76 504.272 446.19 507.792L455.56 495.852C455.709 495.123 455.697 494.37 455.524 493.646C455.351 492.922 455.022 492.245 454.56 491.662L454.29 491.352C453.536 490.561 452.5 490.101 451.408 490.071C450.316 490.041 449.256 490.444 448.46 491.192L445.86 493.732C445.616 494.021 445.317 494.259 444.981 494.432C444.645 494.606 444.277 494.711 443.9 494.743C443.523 494.775 443.144 494.731 442.783 494.616C442.423 494.501 442.089 494.316 441.8 494.072C441.003 493.496 440.431 492.662 440.18 491.712C440.04 491.002 440.09 489.882 442.73 486.842C444.073 485.283 445.555 483.85 447.16 482.562L443.02 481.802C442.22 481.657 441.472 481.303 440.852 480.776C440.232 480.249 439.762 479.568 439.49 478.802C439.412 478.626 439.374 478.434 439.38 478.242C439.393 477.476 439.618 476.728 440.03 476.082C440.36 475.589 440.822 475.199 441.363 474.955C441.904 474.711 442.502 474.623 443.09 474.702C446.786 475.11 450.419 475.963 453.91 477.242C456.555 478.122 459.113 479.247 461.55 480.602L453.2 473.262C452.31 472.498 451.742 471.427 451.61 470.262C451.568 469.769 451.637 469.273 451.809 468.81C451.982 468.346 452.256 467.927 452.61 467.582C453.016 467.166 453.507 466.842 454.05 466.632C454.753 466.394 455.507 466.352 456.233 466.508C456.958 466.665 457.628 467.015 458.17 467.522L473.03 480.772L467.03 470.472C466.55 469.694 466.371 468.768 466.526 467.868C466.68 466.968 467.158 466.155 467.87 465.582C468.578 465.026 469.407 464.645 470.29 464.472C471.23 464.313 472.197 464.469 473.039 464.915C473.882 465.362 474.554 466.074 474.95 466.942L479.88 477.562C484.06 486.562 486.15 491.162 486.06 495.702C485.991 498.802 485.236 501.848 483.85 504.622L464.03 531.592Z" fill="#D88B6D" stroke="black" stroke-width="1.5" stroke-miterlimit="10" stroke-linecap="round" stroke-linejoin="round"/>
<path d="M447.158 482.572C449.298 482.112 451.516 482.166 453.631 482.73C455.746 483.293 457.697 484.351 459.324 485.815C460.951 487.279 462.207 489.107 462.99 491.151C463.773 493.195 464.061 495.395 463.828 497.572" stroke="black" stroke-width="1.5" stroke-miterlimit="10" stroke-linecap="round" stroke-linejoin="round"/>
<path d="M471.229 495.941C471.371 493.476 470.907 491.015 469.879 488.771C468.142 485.157 465.19 482.268 461.539 480.611" stroke="black" stroke-width="1.5" stroke-miterlimit="10" stroke-linecap="round" stroke-linejoin="round"/>
<path d="M479.51 493.711C479.073 491.726 478.429 489.792 477.59 487.941C476.406 485.339 474.865 482.916 473.01 480.741" stroke="black" stroke-width="1.5" stroke-miterlimit="10" stroke-linecap="round" stroke-linejoin="round"/>
<path d="M408.469 525.652C408.699 525.862 412.219 529.072 416.709 527.882C418.78 527.295 420.561 525.963 421.709 524.142L480.209 425.612C480.757 424.69 481.117 423.668 481.27 422.607C481.423 421.545 481.365 420.463 481.099 419.424C480.833 418.385 480.365 417.408 479.722 416.549C479.078 415.691 478.272 414.968 477.349 414.422L408.469 525.652Z" fill="#82AAD3" stroke="black" stroke-width="1.5" stroke-linecap="round" stroke-linejoin="round"/>
<path d="M371.729 512.432C372.055 506.772 372.389 501.105 372.729 495.432L371.729 512.432Z" fill="white"/>
<path d="M371.729 512.432C372.055 506.772 372.389 501.105 372.729 495.432" stroke="black" stroke-width="1.5" stroke-linecap="round" stroke-linejoin="round"/>
<path d="M363.458 624.292C406.978 632.442 442.808 626.102 456.138 612.822C467.828 601.172 469.838 588.932 469.838 588.932C470.598 584.237 470.445 579.439 469.388 574.802C471.798 572.722 475.188 569.732 479.118 566.002C488.608 557.002 493.358 552.442 496.028 547.422C500.448 539.122 501.928 528.942 499.178 521.832C498.336 519.757 497.333 517.751 496.178 515.832C490.428 505.092 482.858 503.282 468.508 500.912L467.908 500.812C453.678 498.812 440.198 515.612 431.818 526.292C410.688 553.232 393.188 577.722 382.428 593.132C380.898 592.012 363.198 579.212 356.048 584.062C349.958 588.172 352.058 604.592 363.458 624.292Z" fill="white" stroke="black" stroke-width="1.5" stroke-linecap="round" stroke-linejoin="round"/>
<path d="M434.209 793.491C442.209 796.171 454.679 798.811 468.679 795.591C471.055 795.04 473.393 794.339 475.679 793.491L472.419 771.741H441.979L434.209 793.491Z" fill="white" stroke="black" stroke-width="1.5" stroke-linecap="round" stroke-linejoin="round"/>
<path d="M486.46 650.952C497.174 653.541 507.712 656.811 518.01 660.742C529.96 665.322 535.01 668.312 537.58 673.802C537.609 673.845 537.632 673.892 537.65 673.942C538.266 675.347 538.522 676.884 538.393 678.414C538.265 679.943 537.756 681.416 536.913 682.698C536.071 683.981 534.921 685.033 533.569 685.758C532.216 686.484 530.704 686.86 529.17 686.852H444.54C443.241 686.852 441.96 686.543 440.804 685.951C439.647 685.36 438.648 684.501 437.889 683.448C437.129 682.394 436.63 681.175 436.434 679.891C436.238 678.607 436.349 677.294 436.76 676.062L446.22 647.692L452.75 629.172H483.2C484.286 636.445 485.373 643.705 486.46 650.952Z" fill="#82AAD3" stroke="black" stroke-width="1.5" stroke-linecap="round" stroke-linejoin="round"/>
<path d="M458.488 570.002L479.288 575.882C480.82 576.316 482.185 577.203 483.202 578.428C484.22 579.652 484.842 581.157 484.988 582.742" stroke="black" stroke-width="1.5" stroke-linecap="round" stroke-linejoin="round"/>
<path d="M501.628 534.581C502.378 556.311 498.218 571.721 497.278 584.741C496.078 601.461 494.888 618.181 492.938 634.901L456.168 651.971C457.147 644.432 457.688 636.844 457.788 629.242C457.848 625.332 457.788 621.711 457.668 618.361C457.278 607.881 456.228 599.712 455.948 597.452C454.858 588.452 455.518 586.021 455.248 559.721C454.898 526.181 453.698 516.551 461.028 507.981C463.461 505.036 466.617 502.775 470.188 501.421C478.298 498.471 487.638 501.081 493.188 505.771C498.358 510.111 501.018 516.841 501.628 534.581Z" fill="#D88B6D" stroke="black" stroke-width="1.5" stroke-linecap="round" stroke-linejoin="round"/>
<path d="M455.229 559.081C460.969 559.171 467.139 559.031 473.699 558.551C483.027 557.865 492.298 556.549 501.449 554.611C500.449 578.661 498.519 603.951 495.199 630.331C494.179 638.331 493.075 646.221 491.889 654.001L456.099 612.271L455.229 559.081Z" fill="white" stroke="black" stroke-width="1.5" stroke-linecap="round" stroke-linejoin="round"/>
<path d="M498.86 652.672C509.333 655.228 519.631 658.454 529.69 662.332C541.38 666.842 546.31 669.772 548.81 675.152C549.22 676.007 549.555 676.897 549.81 677.812C550.113 679.015 550.136 680.272 549.876 681.485C549.617 682.699 549.083 683.837 548.315 684.811C547.548 685.786 546.566 686.571 545.447 687.107C544.328 687.643 543.1 687.915 541.86 687.902L457.77 687.682C456.498 687.682 455.245 687.38 454.113 686.799C452.982 686.219 452.006 685.377 451.264 684.344C450.523 683.31 450.039 682.115 449.853 680.858C449.666 679.6 449.781 678.316 450.19 677.112L452.56 661.512L452.88 588.682C468.309 591.884 484.213 592.06 499.71 589.202C499.43 610.362 499.146 631.518 498.86 652.672Z" fill="#82AAD3" stroke="black" stroke-width="1.5" stroke-linecap="round" stroke-linejoin="round"/>
<path d="M488.908 596.521C488.908 596.521 482.388 650.241 498.498 652.151L499.858 596.591L488.908 596.521Z" fill="#82AAD3" stroke="black" stroke-width="1.5" stroke-linecap="round" stroke-linejoin="round"/>
<path d="M489.188 645.156L487.839 645.21C487.089 645.24 486.505 645.872 486.534 646.623L486.588 647.972C486.618 648.722 487.25 649.306 488.001 649.277L489.35 649.223C490.1 649.193 490.684 648.561 490.655 647.81L490.601 646.461C490.571 645.711 489.939 645.127 489.188 645.156Z" fill="#FFCD88" stroke="black" stroke-width="1.5" stroke-linecap="round" stroke-linejoin="round"/>
<path d="M486.759 628.446L485.41 628.499C484.659 628.529 484.075 629.162 484.105 629.912L484.158 631.261C484.188 632.012 484.82 632.596 485.571 632.566L486.92 632.513C487.67 632.483 488.255 631.85 488.225 631.1L488.171 629.751C488.142 629 487.509 628.416 486.759 628.446Z" fill="#FFCD88" stroke="black" stroke-width="1.5" stroke-linecap="round" stroke-linejoin="round"/>
<path d="M486.932 613.681L485.584 613.735C484.833 613.764 484.249 614.397 484.278 615.147L484.332 616.496C484.362 617.247 484.994 617.831 485.745 617.801L487.094 617.748C487.844 617.718 488.428 617.086 488.399 616.335L488.345 614.986C488.316 614.236 487.683 613.651 486.932 613.681Z" fill="#FFCD88" stroke="black" stroke-width="1.5" stroke-linecap="round" stroke-linejoin="round"/>
<path d="M485.841 599.205L484.492 599.259C483.741 599.288 483.157 599.921 483.187 600.671L483.24 602.02C483.27 602.771 483.902 603.355 484.653 603.325L486.002 603.272C486.752 603.242 487.337 602.61 487.307 601.859L487.253 600.51C487.224 599.76 486.591 599.175 485.841 599.205Z" fill="#FFCD88" stroke="black" stroke-width="1.5" stroke-linecap="round" stroke-linejoin="round"/>
<path d="M490.659 647.111L498.939 637.621L488.219 630.411L500.349 615.411L488.399 615.631L500.329 601.921L487.309 601.161" stroke="black" stroke-width="1.5" stroke-linecap="round" stroke-linejoin="round"/>
<path d="M460.919 611.381L395.839 616.911C395.386 613.744 394.932 610.567 394.479 607.381C385.188 600.983 377.994 591.983 373.799 581.511C371.089 574.58 369.784 567.18 369.959 559.741C369.062 559.117 368.357 558.254 367.926 557.25C367.495 556.246 367.354 555.141 367.519 554.061C367.736 553.077 368.245 552.181 368.979 551.491C370.529 540.621 373.919 513.581 371.689 490.351C370.899 482.061 369.259 472.931 362.259 468.301C359.903 466.783 357.219 465.847 354.429 465.571H303C304.713 493.351 291.549 535.944 293.249 563.731C296.158 566.511 299.403 568.917 302.909 570.891L303.509 587.031C298.099 595.661 287.239 615.881 289.969 641.471C290.709 648.411 292.779 667.311 304.969 677.211C308.319 679.812 311.952 682.026 315.799 683.811L315.949 683.881C321.7 686.402 327.92 687.674 334.199 687.611L436.049 687.041C439.258 686.689 442.423 686.019 445.499 685.041C460.189 680.471 469.149 670.041 473.329 664.361C475.037 656.999 475.376 649.385 474.329 641.901C472.691 630.705 468.058 620.16 460.919 611.381Z" fill="white" stroke="black" stroke-width="1.5" stroke-linecap="round" stroke-linejoin="round"/>
<path d="M460.918 611.382C463.165 621.821 464.062 632.505 463.588 643.172C462.888 658.282 462.238 672.472 452.008 680.952C447.691 684.393 442.493 686.548 437.008 687.172C436.488 706.522 437.068 718.052 437.788 725.172C437.788 725.602 437.878 726.102 437.968 727.022C438.368 731.092 439.198 740.532 439.458 752.422C439.548 756.492 439.558 760.892 439.458 765.642C439.218 777.272 438.328 786.832 437.578 793.282L474.578 772.132C478.845 731.465 483.118 690.799 487.398 650.132C488.309 641.58 486.144 632.983 481.291 625.882C476.439 618.782 469.216 613.641 460.918 611.382Z" fill="#D88B6D" stroke="black" stroke-width="1.5" stroke-linecap="round" stroke-linejoin="round"/>
<path d="M436.67 700.362C442.4 700.452 448.57 700.362 455.13 699.832C464.459 699.153 473.731 697.836 482.88 695.892C481.93 719.892 479.95 745.242 476.63 771.612C475.623 779.612 474.52 787.502 473.32 795.282L437.53 753.562C437.237 735.829 436.95 718.095 436.67 700.362Z" fill="white" stroke="black" stroke-width="1.5" stroke-linecap="round" stroke-linejoin="round"/>
<path d="M480.289 793.962C490.766 796.515 501.067 799.742 511.129 803.622C522.809 808.132 527.739 811.062 530.249 816.432C530.657 817.292 530.991 818.185 531.249 819.102C531.548 820.305 531.568 821.56 531.307 822.772C531.046 823.984 530.51 825.119 529.741 826.092C528.973 827.064 527.991 827.847 526.873 828.381C525.754 828.915 524.528 829.186 523.289 829.172L439.199 828.952C437.959 828.952 436.737 828.664 435.627 828.111C434.518 827.558 433.553 826.755 432.807 825.765C432.061 824.775 431.556 823.625 431.331 822.406C431.105 821.188 431.166 819.933 431.509 818.742L433.989 803.682L434.289 735.282C434.293 734.636 434.437 733.998 434.712 733.413C434.986 732.828 435.385 732.309 435.879 731.893C436.373 731.477 436.952 731.173 437.575 731.001C438.198 730.83 438.851 730.796 439.489 730.902C453.294 733.148 467.383 732.999 481.139 730.462C480.845 751.635 480.562 772.802 480.289 793.962Z" fill="#82AAD3" stroke="black" stroke-width="1.5" stroke-linecap="round" stroke-linejoin="round"/>
<path d="M437.289 707.492C447.027 707.866 456.779 707.37 466.429 706.012C471.999 705.222 477.179 704.192 481.939 703.012" fill="white"/>
<path d="M437.289 707.492C447.027 707.866 456.779 707.37 466.429 706.012C471.999 705.222 477.179 704.192 481.939 703.012" stroke="black" stroke-width="1.5" stroke-linecap="round" stroke-linejoin="round"/>
<path d="M470.34 737.802C470.34 737.802 463.82 791.532 479.93 793.432L481.29 737.872L470.34 737.802Z" fill="#82AAD3" stroke="black" stroke-width="1.5" stroke-linecap="round" stroke-linejoin="round"/>
<path d="M471.14 786.764L469.79 786.818C469.039 786.848 468.454 787.481 468.484 788.232L468.538 789.582C468.568 790.333 469.201 790.918 469.953 790.888L471.303 790.834C472.054 790.804 472.638 790.17 472.608 789.419L472.554 788.069C472.524 787.318 471.891 786.734 471.14 786.764Z" fill="#FFCD88" stroke="black" stroke-width="1.5012" stroke-linecap="round" stroke-linejoin="round"/>
<path d="M468.683 770.052L467.333 770.106C466.582 770.136 465.997 770.769 466.027 771.52L466.081 772.87C466.111 773.621 466.744 774.206 467.495 774.176L468.845 774.122C469.597 774.092 470.181 773.458 470.151 772.707L470.097 771.357C470.067 770.606 469.434 770.022 468.683 770.052Z" fill="#FFCD88" stroke="black" stroke-width="1.5012" stroke-linecap="round" stroke-linejoin="round"/>
<path d="M468.354 754.955L467.005 755.009C466.255 755.038 465.671 755.671 465.7 756.421L465.754 757.77C465.784 758.521 466.416 759.105 467.167 759.075L468.516 759.022C469.266 758.992 469.85 758.36 469.821 757.609L469.767 756.26C469.737 755.51 469.105 754.925 468.354 754.955Z" fill="#FFCD88" stroke="black" stroke-width="1.5" stroke-linecap="round" stroke-linejoin="round"/>
<path d="M467.27 740.489L465.921 740.543C465.171 740.573 464.587 741.205 464.616 741.956L464.67 743.305C464.7 744.055 465.332 744.639 466.083 744.61L467.432 744.556C468.182 744.526 468.766 743.894 468.737 743.143L468.683 741.794C468.653 741.044 468.021 740.46 467.27 740.489Z" fill="#FFCD88" stroke="black" stroke-width="1.5" stroke-linecap="round" stroke-linejoin="round"/>
<path d="M472.098 788.401L480.368 778.901L469.648 771.691L481.788 756.701L469.828 756.921L481.758 743.201L468.738 742.451" stroke="black" stroke-width="1.5" stroke-linecap="round" stroke-linejoin="round"/>
<path d="M431.289 819.472L531.409 822.102L431.289 819.472Z" fill="#FFCD88"/>
<path d="M431.289 819.472L531.409 822.102" stroke="black" stroke-linecap="round" stroke-linejoin="round"/>
<path d="M331.709 495.531C336.299 511.761 337.169 528.141 333.709 554.771C328.619 594.401 321.059 604.641 314.769 644.171C312.438 658.83 310.905 673.605 310.179 688.431L272.499 688.991C272.499 686.471 272.429 683.991 272.389 681.451C273.529 658.451 274.909 639.721 275.969 626.811C279.279 586.231 280.839 573.101 279.409 556.981C277.909 539.981 276.089 532.291 276.519 515.981C276.961 501.52 280.123 487.272 285.839 473.981H322.5C326.594 481.603 329.328 487.213 331.709 495.531Z" fill="#F25A33" stroke="black" stroke-width="1.5" stroke-linecap="round" stroke-linejoin="round"/>
<path d="M368.979 551.491L359.029 552.981L368.979 551.491Z" fill="white"/>
<path d="M368.979 551.491L359.029 552.981" stroke="black" stroke-width="1.5" stroke-linecap="round" stroke-linejoin="round"/>
<path d="M377.289 474.172C373.889 471.312 371.999 468.402 368.219 467.682C364.726 467.018 361.156 466.867 357.619 467.232C359.761 470.139 361.68 473.205 363.359 476.402C364.646 478.844 365.785 481.362 366.769 483.942C370.253 494.063 371.87 504.733 371.539 515.432C371.361 520.761 370.853 526.075 370.019 531.342C370.019 531.342 369.139 536.872 366.939 552.192C365.859 559.712 367.159 571.472 378.389 589.642C375.249 576.922 372.112 564.198 368.979 551.472C370.479 548.805 371.942 545.995 373.369 543.042C377.718 533.876 381.006 524.243 383.169 514.332" fill="#F25A33"/>
<path d="M377.289 474.172C373.889 471.312 371.999 468.402 368.219 467.682C364.726 467.018 361.156 466.867 357.619 467.232C359.761 470.139 361.68 473.205 363.359 476.402C364.646 478.844 365.785 481.362 366.769 483.942C370.253 494.063 371.87 504.733 371.539 515.432C371.361 520.761 370.853 526.075 370.019 531.342C370.019 531.342 369.139 536.872 366.939 552.192C365.859 559.712 367.159 571.472 378.389 589.642C375.249 576.922 372.112 564.198 368.979 551.472C370.479 548.805 371.942 545.995 373.369 543.042C377.718 533.876 381.006 524.243 383.169 514.332" stroke="black" stroke-width="1.5" stroke-linecap="round" stroke-linejoin="round"/>
<path d="M262.09 524.071C259.64 575.971 274.58 616.441 299.88 624.601C305.452 626.326 311.365 626.642 317.09 625.521C343.09 622.881 356.96 619.521 364.86 616.761C372.003 614.177 379.516 612.762 387.11 612.571C390.513 612.511 393.916 612.712 397.29 613.171C394.634 607.929 390.998 603.244 386.58 599.371C384.73 597.781 382.58 596.601 378.32 594.071C376.79 593.161 370.94 589.661 367.39 588.001C361.48 585.251 355.96 591.331 344.78 590.921C339.29 590.721 323.43 588.781 310.37 588.221C308.57 572.221 306.776 556.244 304.99 540.291C288.11 536.381 278.99 527.931 262.09 524.071Z" fill="#D88B6D"/>
<path d="M262.09 524.071C259.64 575.971 274.58 616.441 299.88 624.601C305.452 626.326 311.365 626.642 317.09 625.521C343.09 622.881 356.96 619.521 364.86 616.761C372.003 614.177 379.516 612.762 387.11 612.571C390.513 612.511 393.916 612.712 397.29 613.171C394.634 607.929 390.998 603.245 386.58 599.371C384.73 597.781 382.58 596.601 378.32 594.071C376.79 593.161 370.94 589.661 367.39 588.001C361.48 585.251 355.96 591.331 344.78 590.921C339.29 590.721 323.43 588.781 310.37 588.221C308.57 572.221 306.776 556.244 304.99 540.291C288.11 536.381 278.99 527.931 262.09 524.071Z" stroke="black" stroke-width="1.5" stroke-linecap="round" stroke-linejoin="round"/>
<path d="M433.969 802.791C433.082 808.378 432.189 813.938 431.289 819.471H443.029C444.121 816.509 444.089 813.251 442.939 810.311C440.549 804.491 434.599 802.951 433.969 802.791Z" fill="#82AAD3" stroke="black" stroke-width="1.5" stroke-linecap="round" stroke-linejoin="round"/>
<path d="M344.809 590.872C350.537 588.466 356.614 586.99 362.809 586.502C368.116 585.852 373.5 586.222 378.669 587.592C381.999 588.542 394.929 592.222 397.819 602.452C398.507 605.013 398.569 607.702 397.999 610.292" fill="#D88B6D"/>
<path d="M344.809 590.872C350.537 588.466 356.614 586.99 362.809 586.502C368.116 585.852 373.5 586.222 378.669 587.592C381.999 588.542 394.929 592.222 397.819 602.452C398.507 605.013 398.569 607.702 397.999 610.292" stroke="black" stroke-width="1.5" stroke-linecap="round" stroke-linejoin="round"/>
<path d="M367.289 604.002L370.149 615.062C370.603 616.186 371.45 617.105 372.532 617.651C373.614 618.197 374.857 618.333 376.031 618.031C377.204 617.729 378.228 617.011 378.912 616.01C379.596 615.01 379.894 613.794 379.749 612.591L377.679 603.271" fill="#D88B6D"/>
<path d="M367.289 604.002L370.149 615.062C370.603 616.186 371.45 617.105 372.532 617.651C373.614 618.197 374.857 618.333 376.031 618.031C377.204 617.729 378.228 617.011 378.912 616.01C379.596 615.01 379.894 613.794 379.749 612.591L377.679 603.271" stroke="black" stroke-width="1.5" stroke-linecap="round" stroke-linejoin="round"/>
<path d="M377.629 603.271L381.199 615.061C381.659 616.175 382.506 617.086 383.585 617.625C384.663 618.164 385.9 618.296 387.068 617.995C388.235 617.694 389.255 616.982 389.939 615.989C390.623 614.996 390.924 613.789 390.789 612.591L388.179 602.361" fill="#D88B6D"/>
<path d="M377.629 603.271L381.199 615.061C381.659 616.175 382.506 617.086 383.585 617.625C384.663 618.164 385.9 618.296 387.068 617.995C388.235 617.694 389.255 616.982 389.939 615.989C390.623 614.996 390.924 613.789 390.789 612.591L388.179 602.361" stroke="black" stroke-width="1.5" stroke-linecap="round" stroke-linejoin="round"/>
<path d="M388.549 604.001L391.409 615.061C391.863 616.184 392.71 617.105 393.792 617.651C394.873 618.197 396.117 618.331 397.29 618.029C398.464 617.727 399.488 617.009 400.172 616.009C400.856 615.009 401.153 613.794 401.009 612.591C399.955 609.211 398.909 605.831 397.869 602.451" fill="#D88B6D"/>
<path d="M388.549 604.001L391.409 615.061C391.863 616.184 392.71 617.105 393.792 617.651C394.873 618.197 396.117 618.331 397.29 618.029C398.464 617.727 399.488 617.009 400.172 616.009C400.856 615.009 401.153 613.794 401.009 612.591C399.955 609.211 398.909 605.831 397.869 602.451" stroke="black" stroke-width="1.5" stroke-linecap="round" stroke-linejoin="round"/>
<path d="M309.349 485.592L311.5 468.5C303.046 468.548 295.923 466.956 288.419 470.852C276.669 477.032 270.709 486.012 267.419 490.952C253.139 512.352 255.869 536.172 256.919 543.172C257.073 547.885 257.464 552.588 258.089 557.262C258.805 562.402 259.786 567.503 261.029 572.542C265.269 588.912 270.029 607.172 286.569 618.542C311.569 635.632 343.649 623.292 347.839 621.602C343.689 617.453 341.247 611.899 340.995 606.037C340.743 600.174 342.7 594.431 346.479 589.942L312.709 588.502C310.463 571.835 308.209 555.168 305.949 538.502C306.069 534.862 306.183 531.222 306.289 527.582" fill="#F25A33"/>
<path d="M309.349 485.592L311.5 468.5C303.046 468.548 295.923 466.956 288.419 470.852C276.669 477.032 270.709 486.012 267.419 490.952C253.139 512.352 255.869 536.172 256.919 543.172C257.073 547.885 257.464 552.588 258.089 557.262C258.805 562.402 259.786 567.503 261.029 572.542C265.269 588.912 270.029 607.172 286.569 618.542C311.569 635.632 343.649 623.292 347.839 621.602C343.689 617.453 341.247 611.899 340.995 606.037C340.743 600.174 342.7 594.431 346.479 589.942L312.709 588.502C310.463 571.835 308.209 555.168 305.949 538.502C306.069 534.862 306.183 531.222 306.289 527.582" stroke="black" stroke-width="1.5" stroke-linecap="round" stroke-linejoin="round"/>
<path d="M282.049 467.961L301.719 486.171L323.029 473.601L309.479 466.701C309.214 465.655 308.691 464.693 307.959 463.901C303.969 459.651 293.589 461.491 282.049 467.961Z" fill="black" stroke="black" stroke-width="1.5" stroke-linecap="round" stroke-linejoin="round"/>
<path d="M367.789 460.811L368.109 460.941C369.582 461.566 370.914 462.479 372.029 463.626C373.143 464.773 374.017 466.131 374.599 467.621C375.879 471.501 374.199 476.351 370.259 479.451L357.619 467.251C354.399 463.991 354.619 462.441 354.859 461.831C355.879 459.261 363.049 458.971 367.789 460.811Z" fill="black" stroke="black" stroke-width="1.5" stroke-linecap="round" stroke-linejoin="round"/>
<path d="M344.469 473.062C344.469 473.062 352.639 497.061 350.599 513.401" stroke="black" stroke-width="1.5" stroke-linecap="round" stroke-linejoin="round"/>
<path d="M348.05 486.852C349.458 486.852 350.6 485.71 350.6 484.302C350.6 482.894 349.458 481.752 348.05 481.752C346.642 481.752 345.5 482.894 345.5 484.302C345.5 485.71 346.642 486.852 348.05 486.852Z" fill="white" stroke="black" stroke-width="1.5" stroke-linecap="round" stroke-linejoin="round"/>
<path d="M350.599 500.121C352.007 500.121 353.149 498.979 353.149 497.571C353.149 496.163 352.007 495.021 350.599 495.021C349.191 495.021 348.049 496.163 348.049 497.571C348.049 498.979 349.191 500.121 350.599 500.121Z" fill="white" stroke="black" stroke-width="1.5" stroke-linecap="round" stroke-linejoin="round"/>
<path d="M261 554.5L257 545L261 554.5Z" fill="white"/>
<path d="M261 554.5L257 545" stroke="black" stroke-width="1.5" stroke-linecap="round" stroke-linejoin="round"/>
<path d="M345.346 387.567L342.916 426.477C342.266 436.927 349.856 446.067 359.726 446.737L364.876 447.077C366.612 447.19 368.35 446.9 369.956 446.231C371.562 445.562 372.991 444.531 374.133 443.219C375.275 441.906 376.099 440.348 376.54 438.665C376.981 436.983 377.027 435.221 376.676 433.517C376.672 433.45 376.672 433.384 376.676 433.317C375.126 425.317 376.246 419.817 376.586 414.157C377.006 407.157 376.406 396.937 371.426 383.747L345.346 387.567Z" fill="black" stroke="black" stroke-width="1.5" stroke-miterlimit="10"/>
<path d="M321.814 438.676L348.754 439.566C352.054 440.353 355.503 440.248 358.749 439.262C361.995 438.276 364.92 436.445 367.224 433.956C369.663 431.242 371.291 427.899 371.924 424.306C372.203 422.576 372.236 420.816 372.024 419.076C371.294 412.376 370.954 409.966 370.534 405.306C369.614 395.196 373.324 394.046 371.814 385.106C371.324 382.216 370.684 378.476 368.144 375.056C362.484 367.426 350.774 367.306 347.334 367.326C342.404 367.374 337.539 368.458 333.054 370.506C329.314 393.226 325.568 415.95 321.814 438.676Z" fill="#D88B6D"/>
<path d="M307.325 396.856C306.542 393.818 306.364 390.654 306.804 387.547C307.243 384.439 308.29 381.449 309.885 378.746C316.445 368.076 329.065 367.746 329.885 367.746L340.595 367.176C350.925 364.296 361.295 366.786 367.085 373.696C369.741 376.966 371.376 380.944 371.785 385.136C369.334 383.835 367.087 382.18 365.115 380.226C362.572 377.644 359.744 375.36 356.685 373.416C354.629 378.134 351.388 382.239 347.278 385.335C343.167 388.431 338.327 390.412 333.225 391.086C331.925 399.496 330.165 408.556 327.755 418.146C325.925 425.446 323.915 432.286 321.815 438.656L307.325 396.856Z" fill="black" stroke="black" stroke-width="1.5" stroke-miterlimit="10"/>
<path d="M349.265 439.617C352.145 448.507 355.015 457.617 357.895 466.537C350.134 472.125 340.652 474.798 331.115 474.087C323.466 473.398 316.177 470.524 310.115 465.807L322.405 438.537" fill="#D88B6D"/>
<path d="M349.265 439.617C352.145 448.507 355.015 457.617 357.895 466.537C350.134 472.125 340.652 474.798 331.115 474.087C323.466 473.398 316.177 470.524 310.115 465.807L322.405 438.537" stroke="black" stroke-width="1.5" stroke-miterlimit="10"/>
<path d="M356.996 415.598H358.656C359.283 415.599 359.898 415.427 360.434 415.102C360.97 414.777 361.406 414.311 361.695 413.754C361.984 413.198 362.115 412.573 362.073 411.948C362.031 411.322 361.817 410.72 361.456 410.208L356.996 403.838" stroke="black" stroke-width="1.5" stroke-linecap="round" stroke-linejoin="round"/>
<path d="M362.226 419.628C362.269 419.628 362.311 419.64 362.348 419.662C362.385 419.684 362.415 419.716 362.435 419.754C362.456 419.792 362.466 419.834 362.464 419.877C362.462 419.92 362.449 419.962 362.426 419.998C361.974 420.813 361.312 421.492 360.51 421.964C359.707 422.437 358.792 422.686 357.861 422.686C356.929 422.686 356.015 422.437 355.212 421.964C354.409 421.492 353.748 420.813 353.296 419.998C353.275 419.961 353.264 419.92 353.264 419.877C353.264 419.835 353.275 419.794 353.296 419.757C353.318 419.72 353.348 419.69 353.385 419.669C353.422 419.648 353.464 419.638 353.506 419.638L362.226 419.628Z" fill="black"/>
<path fill-rule="evenodd" clip-rule="evenodd" d="M346.365 406.147C346.365 407.633 345.734 408.837 344.955 408.837C344.176 408.837 343.545 407.633 343.545 406.147C343.545 404.661 344.176 403.457 344.955 403.457C345.734 403.457 346.365 404.661 346.365 406.147ZM367.935 406.147C367.935 407.633 367.304 408.837 366.525 408.837C365.746 408.837 365.115 407.633 365.115 406.147C365.115 404.661 365.746 403.457 366.525 403.457C367.304 403.457 367.935 404.661 367.935 406.147Z" fill="black"/>
<path d="M318.584 417.487L324.014 397.737L322.174 397.667C320.092 397.601 318.066 398.35 316.527 399.754C314.989 401.158 314.058 403.108 313.934 405.187C313.833 406.987 314.343 408.768 315.382 410.242C316.42 411.716 317.926 412.796 319.654 413.307" fill="#D88B6D"/>
<path d="M318.584 417.487L324.014 397.737L322.174 397.667C320.092 397.601 318.066 398.35 316.527 399.754C314.989 401.158 314.058 403.108 313.934 405.187C313.833 406.987 314.343 408.768 315.382 410.242C316.42 411.716 317.926 412.796 319.654 413.307" stroke="black" stroke-width="1.5" stroke-miterlimit="10"/>
<path fill-rule="evenodd" clip-rule="evenodd" d="M339.955 401.499C340.728 400.124 341.976 399.079 343.465 398.559L339.955 401.499ZM370.545 401.499C369.772 400.124 368.524 399.079 367.035 398.559L370.545 401.499Z" fill="white"/>
<path fill-rule="evenodd" clip-rule="evenodd" d="M344.117 398.188C344.296 398.503 344.224 398.901 343.947 399.134L340.437 402.074C340.159 402.306 339.755 402.307 339.476 402.076C339.197 401.844 339.124 401.447 339.301 401.131C340.164 399.597 341.557 398.431 343.218 397.851C343.56 397.731 343.938 397.873 344.117 398.188ZM366.383 398.188C366.562 397.873 366.941 397.731 367.283 397.851C368.944 398.431 370.336 399.597 371.199 401.131C371.376 401.447 371.303 401.844 371.024 402.076C370.746 402.307 370.341 402.306 370.064 402.074L366.554 399.134C366.276 398.901 366.204 398.503 366.383 398.188Z" fill="black"/>
<path d="M340.996 437.816L348.756 439.566C352.056 440.353 355.505 440.247 358.751 439.262C361.996 438.276 364.921 436.445 367.226 433.956C369.664 431.242 371.293 427.899 371.926 424.306C372.204 422.576 372.238 420.816 372.026 419.076C371.296 412.376 370.956 409.966 370.536 405.306C369.616 395.196 373.326 394.046 371.816 385.106C371.326 382.216 370.686 378.476 368.146 375.056C361.896 366.636 349.366 367.206 347.336 367.326C344.856 367.476 342.816 367.236 341.496 367.326" stroke="black" stroke-width="1.5" stroke-miterlimit="10"/>
<path d="M333.555 390.838L335.985 429.748C336.635 440.188 329.045 449.338 319.175 449.998L314.025 450.348C312.289 450.459 310.55 450.168 308.945 449.498C307.34 448.828 305.911 447.795 304.77 446.482C303.629 445.169 302.806 443.61 302.367 441.926C301.927 440.243 301.882 438.481 302.235 436.778C302.23 436.714 302.23 436.651 302.235 436.588C303.775 428.588 302.655 423.088 302.315 417.428C301.905 410.428 302.495 400.208 307.475 387.018L333.555 390.838Z" fill="black" stroke="black" stroke-width="1.5" stroke-miterlimit="10"/>
<path d="M373.725 416.148C379.585 416.148 384.335 411.397 384.335 405.538C384.335 399.678 379.585 394.928 373.725 394.928C367.865 394.928 363.115 399.678 363.115 405.538C363.115 411.397 367.865 416.148 373.725 416.148Z" stroke="black" stroke-width="1.5" stroke-linecap="round" stroke-linejoin="round"/>
<path opacity="0.17" fill-rule="evenodd" clip-rule="evenodd" d="M354.316 405.538C354.316 411.397 349.565 416.148 343.706 416.148C337.846 416.148 333.096 411.397 333.096 405.538C333.096 399.678 337.846 394.928 343.706 394.928C349.565 394.928 354.316 399.678 354.316 405.538ZM384.22 405.538C384.22 411.397 379.47 416.148 373.61 416.148C367.75 416.148 363 411.397 363 405.538C363 399.678 367.75 394.928 373.61 394.928C379.47 394.928 384.22 399.678 384.22 405.538Z" fill="white"/>
<path d="M343.706 416.148C349.565 416.148 354.316 411.397 354.316 405.538C354.316 399.678 349.565 394.928 343.706 394.928C337.846 394.928 333.096 399.678 333.096 405.538C333.096 411.397 337.846 416.148 343.706 416.148Z" stroke="black" stroke-width="1.5" stroke-linecap="round" stroke-linejoin="round"/>
<path d="M362.795 403.907H354.305" stroke="black" stroke-width="1.5" stroke-linecap="round" stroke-linejoin="round"/>
<path d="M343.706 416.148C349.565 416.148 354.316 411.397 354.316 405.538C354.316 399.678 349.565 394.928 343.706 394.928C337.846 394.928 333.096 399.678 333.096 405.538C333.096 411.397 337.846 416.148 343.706 416.148Z" stroke="black" stroke-width="1.5" stroke-linecap="round" stroke-linejoin="round"/>
<path d="M978.26 662H691.62C688.516 662 686 664.516 686 667.62V671.24C686 674.344 688.516 676.86 691.62 676.86H978.26C981.364 676.86 983.88 674.344 983.88 671.24V667.62C983.88 664.516 981.364 662 978.26 662Z" fill="#D88B6D"/>
<path d="M978.26 662H691.62C688.516 662 686 664.516 686 667.62V671.24C686 674.344 688.516 676.86 691.62 676.86H978.26C981.364 676.86 983.88 674.344 983.88 671.24V667.62C983.88 664.516 981.364 662 978.26 662Z" stroke="black" stroke-width="1.5" stroke-miterlimit="10" stroke-linecap="round"/>
<path d="M712.34 691.039L710.99 830.189H719.77L737.33 690.369L712.34 691.039Z" fill="#D88B6D"/>
<path d="M712.34 691.039L710.99 830.189H719.77L737.33 690.369L712.34 691.039Z" stroke="black" stroke-width="1.5" stroke-miterlimit="10" stroke-linecap="round"/>
<path d="M742.06 691.039L740.71 830.189H749.49L767.06 690.369L742.06 691.039Z" fill="#A26852" stroke="black" stroke-width="1.5" stroke-miterlimit="10" stroke-linecap="round"/>
<path d="M962.01 691.039L963.359 830.189H954.58L937.02 690.369L962.01 691.039Z" fill="#D88B6D"/>
<path d="M962.01 691.039L963.359 830.189H954.58L937.02 690.369L962.01 691.039Z" stroke="black" stroke-width="1.5" stroke-miterlimit="10" stroke-linecap="round"/>
<path d="M932.29 691.039L933.64 830.189H924.86L907.3 690.369L932.29 691.039Z" fill="#A26852" stroke="black" stroke-width="1.5" stroke-miterlimit="10" stroke-linecap="round"/>
<path d="M969.69 676.18H700.18V699.15H969.69V676.18Z" fill="#D88B6D"/>
<path d="M969.69 676.18H700.18V699.15H969.69V676.18Z" stroke="black" stroke-width="1.5" stroke-miterlimit="10" stroke-linecap="round"/>
<path d="M809.51 648.026H876.66V648.356C876.66 650.94 875.634 653.417 873.807 655.244C871.981 657.07 869.503 658.096 866.92 658.096H819.25C816.667 658.096 814.189 657.07 812.363 655.244C810.536 653.417 809.51 650.94 809.51 648.356V648.026Z" stroke="black" stroke-width="1.5" stroke-linecap="round" stroke-linejoin="round"/>
<path d="M807.49 495.178C818.754 479.495 825.968 461.271 828.49 442.128C828.13 442.258 824.54 443.508 821.59 441.368C820.743 440.721 820.05 439.894 819.562 438.946C819.074 437.998 818.804 436.953 818.77 435.888C818.67 431.578 823.57 426.968 831.13 425.058C830.51 421.798 828.18 410.138 821.36 408.058C813.17 405.598 799.84 417.368 790.41 439.438C778.51 425.008 764.71 419.818 758 424.148C756.76 424.958 753.94 427.258 753 433.948C754.042 442.69 757.904 450.856 764 457.208C768.36 453.028 774.36 453.848 776.29 456.648C777.96 459.078 777.14 463.818 773.35 466.888L781.78 473.888C782.136 473.345 782.603 472.883 783.15 472.532C783.697 472.182 784.311 471.951 784.953 471.854C785.596 471.757 786.251 471.796 786.877 471.97C787.503 472.143 788.085 472.447 788.586 472.86C789.086 473.274 789.494 473.789 789.783 474.371C790.071 474.953 790.233 475.589 790.259 476.238C790.285 476.887 790.174 477.534 789.933 478.137C789.692 478.74 789.326 479.286 788.86 479.738L807.49 495.178Z" fill="#C8B571" stroke="black" stroke-width="1.5" stroke-linecap="round" stroke-linejoin="round"/>
<path d="M799.98 466.478L783.98 420.588C782.78 417.123 782.371 413.434 782.784 409.791C783.196 406.147 784.419 402.643 786.364 399.534C788.308 396.426 790.923 393.792 794.019 391.827C797.114 389.862 800.61 388.615 804.25 388.178C807.545 387.779 810.887 388.053 814.074 388.983C817.26 389.914 820.225 391.481 822.788 393.59C825.351 395.699 827.46 398.306 828.987 401.253C830.513 404.201 831.426 407.427 831.67 410.738L843.2 566.398" stroke="black" stroke-width="1.5" stroke-linecap="round" stroke-linejoin="round"/>
<path d="M922.68 410.247C898.012 415.969 875.139 427.693 856.09 444.377C856.56 444.557 861.18 446.437 862.25 451.087C862.521 452.46 862.483 453.877 862.137 455.233C861.791 456.59 861.146 457.852 860.25 458.927C856.62 463.277 847.8 463.577 838.71 458.927C836.49 462.677 828.71 476.187 833.71 484.107C839.66 493.607 862.98 493.527 891.34 479.907C890.61 504.427 899.72 521.467 910.09 522.997C912.01 523.277 916.78 523.437 923.52 517.677C930.038 508.149 933.278 496.759 932.75 485.227C924.85 485.577 919.64 479.577 920.16 475.147C920.61 471.317 925.52 467.357 931.91 467.597L929.63 453.427C928.808 453.657 927.947 453.71 927.102 453.584C926.258 453.458 925.45 453.154 924.731 452.694C924.013 452.234 923.399 451.627 922.931 450.913C922.463 450.199 922.151 449.395 922.016 448.552C921.88 447.709 921.925 446.847 922.145 446.023C922.366 445.198 922.759 444.43 923.297 443.767C923.836 443.105 924.508 442.564 925.27 442.18C926.032 441.795 926.867 441.576 927.72 441.537L922.68 410.247Z" fill="#C8B571" stroke="black" stroke-width="1.5" stroke-linecap="round" stroke-linejoin="round"/>
<path d="M824.65 567.178H861.51C867.61 567.178 873.46 569.601 877.773 573.914C882.087 578.228 884.51 584.078 884.51 590.178V604.968H801.68V590.178C801.68 584.083 804.099 578.237 808.406 573.925C812.713 569.612 818.555 567.186 824.65 567.178Z" fill="white" stroke="black" stroke-width="1.5" stroke-linecap="round" stroke-linejoin="round"/>
<path d="M884.09 604.986H802.07C790.417 604.986 780.97 614.433 780.97 626.086V627.536C780.97 639.189 790.417 648.636 802.07 648.636H884.09C895.743 648.636 905.19 639.189 905.19 627.536V626.086C905.19 614.433 895.743 604.986 884.09 604.986Z" fill="#AD85AD" stroke="black" stroke-width="1.5" stroke-linecap="round" stroke-linejoin="round"/>
<path d="M902.53 447.736L858.47 567.196" stroke="black" stroke-width="1.5" stroke-linecap="round" stroke-linejoin="round"/>
<path d="M774.53 602.247C797.528 598.191 819.169 588.518 837.53 574.087C837.11 573.897 832.95 571.937 832.19 567.597C832.005 566.322 832.106 565.022 832.484 563.791C832.863 562.559 833.511 561.428 834.38 560.477C837.93 556.657 846.07 556.807 854.22 561.537C856.45 558.187 864.22 546.127 860.09 538.597C855.09 529.547 833.6 528.487 806.81 539.597C808.69 517.057 801.13 500.907 791.66 498.997C789.91 498.647 785.52 498.267 779.03 503.237C772.56 511.704 769.031 522.051 768.98 532.707C776.27 532.767 780.78 538.547 780.08 542.597C779.47 546.107 774.76 549.517 768.89 548.977L770.29 562.137C771.061 561.962 771.861 561.952 772.636 562.109C773.411 562.265 774.144 562.584 774.787 563.045C775.43 563.506 775.967 564.098 776.364 564.782C776.761 565.466 777.008 566.227 777.09 567.014C777.171 567.8 777.084 568.595 776.836 569.346C776.587 570.097 776.182 570.786 775.647 571.369C775.112 571.951 774.459 572.414 773.732 572.725C773.005 573.037 772.221 573.191 771.43 573.177C772.463 582.87 773.497 592.56 774.53 602.247Z" fill="#C8B571" stroke="black" stroke-width="1.5" stroke-linecap="round" stroke-linejoin="round"/>
<path d="M794.82 562.996L819.62 515.746C821.477 512.199 824.328 509.27 827.823 507.317C831.317 505.363 835.306 504.47 839.3 504.746C842.201 504.946 845.027 505.756 847.593 507.125C850.159 508.494 852.406 510.39 854.187 512.688C855.968 514.987 857.243 517.636 857.927 520.462C858.612 523.288 858.691 526.227 858.16 529.086L856.93 534.886" stroke="black" stroke-width="1.5" stroke-linecap="round" stroke-linejoin="round"/>
<path d="M849.8 559.646C848.91 562.156 848.03 564.647 847.14 567.197" stroke="black" stroke-width="1.5" stroke-linecap="round" stroke-linejoin="round"/>
<path d="M780.98 627.528L794.98 624.128C797.96 623.401 801.087 623.557 803.98 624.578L816.201 628.868C819.53 630.042 823.157 630.063 826.5 628.928L837.641 625.178C841.341 623.925 845.374 624.089 848.961 625.638L854.451 628.008C856.436 628.869 858.576 629.313 860.74 629.313C862.904 629.313 865.046 628.869 867.031 628.008L870.92 626.308C873.201 625.312 875.685 624.868 878.169 625.013C880.654 625.157 883.069 625.885 885.22 627.138C887.163 628.281 889.33 628.994 891.573 629.227C893.816 629.46 896.083 629.208 898.22 628.488L905.22 626.158" stroke="black" stroke-width="1.5" stroke-linecap="round" stroke-linejoin="round"/>
</svg>
