<svg width="1220" height="920" viewBox="0 0 1220 920" fill="none" xmlns="http://www.w3.org/2000/svg">
<path d="M1029.6 813H278.87" stroke="black" stroke-width="1.5" stroke-linecap="round" stroke-linejoin="round"/>
<path d="M698.7 823.21H161" stroke="black" stroke-width="1.5" stroke-linecap="round" stroke-linejoin="round"/>
<path d="M742.62 823.21H711.47" stroke="black" stroke-width="1.5" stroke-linecap="round" stroke-linejoin="round"/>
<path d="M476.81 126H159V473H476.81V126Z" stroke="#CCCCCC" stroke-width="1.5" stroke-linecap="round" stroke-linejoin="round"/>
<path d="M464.65 139.279H171.16V459.719H464.65V139.279Z" stroke="#CCCCCC" stroke-width="1.5" stroke-linecap="round" stroke-linejoin="round"/>
<path d="M429.29 177.89H206.521V421.11H429.29V177.89Z" stroke="#CCCCCC" stroke-width="1.5" stroke-linecap="round" stroke-linejoin="round"/>
<path d="M351.96 398.61C386.55 398.61 414.59 370.569 414.59 335.98C414.59 301.39 386.55 273.35 351.96 273.35C317.37 273.35 289.33 301.39 289.33 335.98C289.33 370.569 317.37 398.61 351.96 398.61Z" stroke="#CCCCCC" stroke-width="1.5" stroke-linecap="round" stroke-linejoin="round"/>
<path d="M383.57 218.63H316.08V247.82H383.57V218.63Z" stroke="#CCCCCC" stroke-width="1.5" stroke-linecap="round" stroke-linejoin="round"/>
<path d="M263.791 267.27C281.591 267.27 296.021 252.84 296.021 235.04C296.021 217.239 281.591 202.81 263.791 202.81C245.99 202.81 231.561 217.239 231.561 235.04C231.561 252.84 245.99 267.27 263.791 267.27Z" stroke="#CCCCCC" stroke-width="1.5" stroke-linecap="round" stroke-linejoin="round"/>
<path d="M1059.49 124H737.381V477.87H1059.49V124Z" stroke="#CCCCCC" stroke-width="1.5" stroke-linecap="round" stroke-linejoin="round"/>
<path d="M737.381 124.01L849.671 156.52V443.09L737.381 477.88" stroke="#CCCCCC" stroke-width="1.5" stroke-linecap="round" stroke-linejoin="round"/>
<path d="M795.98 141.398V458.218" stroke="#CCCCCC" stroke-width="1.5" stroke-linecap="round" stroke-linejoin="round"/>
<path d="M737.761 207.938L849.671 232.128" stroke="#CCCCCC" stroke-width="1.5" stroke-linecap="round" stroke-linejoin="round"/>
<path d="M737.761 300.938H849.671" stroke="#CCCCCC" stroke-width="1.5" stroke-linecap="round" stroke-linejoin="round"/>
<path d="M737 392.43L850.42 369.75" stroke="#CCCCCC" stroke-width="1.5" stroke-linecap="round" stroke-linejoin="round"/>
<path d="M1058.11 124.01L945.82 156.52V443.09L1058.11 477.88" stroke="#CCCCCC" stroke-width="1.5" stroke-linecap="round" stroke-linejoin="round"/>
<path d="M999.511 141.398V458.218" stroke="#CCCCCC" stroke-width="1.5" stroke-linecap="round" stroke-linejoin="round"/>
<path d="M1057.73 207.938L945.82 232.128" stroke="#CCCCCC" stroke-width="1.5" stroke-linecap="round" stroke-linejoin="round"/>
<path d="M1057.73 300.938H945.82" stroke="#CCCCCC" stroke-width="1.5" stroke-linecap="round" stroke-linejoin="round"/>
<path d="M1058.49 392.43L945.07 369.75" stroke="#CCCCCC" stroke-width="1.5" stroke-linecap="round" stroke-linejoin="round"/>
<path d="M533.4 812.159H478.59L502.95 736.569H557.76L533.4 812.159Z" fill="#FFCD88" stroke="black" stroke-width="1.5" stroke-linecap="round" stroke-linejoin="round"/>
<path d="M546.15 773.61C539.89 775.83 535.99 777.14 531.93 778.2C526.02 779.74 523.55 780.07 520.93 778.96C518.152 777.619 516.002 775.253 514.93 772.36C513.41 768.08 515.93 766.49 514.93 761.2C514.66 759.76 513.78 755.01 509.7 752.06C508.12 750.953 506.309 750.219 504.403 749.912C502.498 749.606 500.548 749.735 498.7 750.29" stroke="black" stroke-width="1.5" stroke-linecap="round" stroke-linejoin="round"/>
<path d="M538.23 795.899C535.76 795.229 521.97 791.749 509.56 799.959C505.113 802.931 501.455 806.94 498.9 811.639" stroke="black" stroke-width="1.5" stroke-linecap="round" stroke-linejoin="round"/>
<path d="M494.89 764.01C497.44 765.01 499.33 768.08 502.6 772.01C504.53 774.33 508.13 778.67 507.54 784.4C507.43 785.49 506.95 790.26 503.54 792.3C500.37 794.21 497.54 791.97 491.62 792.67C489.142 792.818 486.72 793.478 484.51 794.61" stroke="black" stroke-width="1.5" stroke-linecap="round" stroke-linejoin="round"/>
<path d="M982.44 812.159H1037.25L1012.89 736.569H958.07L982.44 812.159Z" fill="#FFCD88" stroke="black" stroke-width="1.5" stroke-linecap="round" stroke-linejoin="round"/>
<path d="M450.55 717.76H1054.5C1054.5 722.875 1052.47 727.78 1048.85 731.397C1045.24 735.014 1040.33 737.048 1035.22 737.05H469.84C464.724 737.05 459.818 735.018 456.2 731.4C452.583 727.783 450.55 722.876 450.55 717.76Z" fill="#FFE1B8" stroke="black" stroke-width="1.5" stroke-linecap="round" stroke-linejoin="round"/>
<path d="M1054.5 717.76L1094.61 516.59C1095.47 512.272 1095.36 507.817 1094.29 503.546C1093.22 499.275 1091.22 495.295 1088.43 491.891C1085.63 488.487 1082.12 485.745 1078.14 483.862C1074.16 481.978 1069.81 481.001 1065.41 481H587.25C580.588 481 574.117 483.235 568.875 487.347C563.632 491.458 559.919 497.209 558.331 503.68L505.791 717.76H1054.5Z" fill="#8CA45B" stroke="black" stroke-width="1.5" stroke-linecap="round" stroke-linejoin="round"/>
<path d="M995.183 657C996.103 667.6 994.256 678.2 995.183 688.8H513.683C562.683 688.8 920.843 683.72 958.713 678.16C961.665 677.823 964.587 677.261 967.453 676.48C973.383 674.67 981.993 673.93 987.683 668C990.41 665.126 993.883 660.743 995.183 657Z" fill="black" stroke="black" stroke-width="1.5" stroke-linecap="round" stroke-linejoin="round"/>
<path d="M995.89 716.999L995.36 642.429C995.336 638.1 996.188 633.81 997.865 629.818C999.542 625.826 1002.01 622.215 1005.12 619.202C1008.23 616.189 1011.91 613.837 1015.96 612.286C1020 610.735 1024.31 610.019 1028.64 610.179L1075.34 611.979" fill="#8CA45B"/>
<path d="M995.89 716.999L995.36 642.429C995.336 638.1 996.188 633.81 997.865 629.818C999.542 625.826 1002.01 622.215 1005.12 619.202C1008.23 616.189 1011.91 613.837 1015.96 612.286C1020 610.735 1024.31 610.019 1028.64 610.179L1075.34 611.979" stroke="black" stroke-width="1.5" stroke-linecap="round" stroke-linejoin="round"/>
<path d="M450.521 717.999L450.001 642.429C449.976 638.1 450.828 633.81 452.505 629.818C454.182 625.826 456.649 622.215 459.758 619.202C462.868 616.189 466.554 613.837 470.597 612.286C474.639 610.735 478.954 610.019 483.281 610.179L531.981 611.979L505.791 717.759L450.521 717.999Z" fill="#8CA45B" stroke="black" stroke-width="1.5" stroke-linecap="round" stroke-linejoin="round"/>
<path d="M995.81 688.91H504.92C498.049 688.836 491.419 691.444 486.44 696.18C486.13 696.49 485.82 696.8 485.52 697.12C480.294 702.836 477.354 710.276 477.26 718.02H995.81C995.89 708.427 995.724 698.504 995.81 688.91Z" fill="#8CA45B" stroke="black" stroke-width="1.5" stroke-linecap="round" stroke-linejoin="round"/>
<path d="M962.76 749.01C966.417 746.375 970.758 744.854 975.26 744.63C978.46 744.5 982.36 744.36 985.26 747.21C987.88 749.77 989.03 754.09 987.75 757.01C985.75 761.54 976.25 766.01 966.75 761.96" stroke="black" stroke-width="1.5" stroke-linecap="round" stroke-linejoin="round"/>
<path d="M969.681 773.609C975.951 775.829 979.841 777.139 983.901 778.199C989.821 779.739 992.291 780.069 994.901 778.959C997.674 777.612 999.823 775.248 1000.9 772.359C1002.41 768.079 999.901 766.489 1000.9 761.199C1001.16 759.759 1002.04 755.009 1006.13 752.059C1007.71 750.951 1009.52 750.216 1011.43 749.909C1013.33 749.602 1015.28 749.732 1017.13 750.289" stroke="black" stroke-width="1.5" stroke-linecap="round" stroke-linejoin="round"/>
<path d="M977.601 795.899C980.071 795.229 993.861 791.749 1006.27 799.959C1010.72 802.931 1014.38 806.94 1016.93 811.639" stroke="black" stroke-width="1.5" stroke-linecap="round" stroke-linejoin="round"/>
<path d="M1020.95 764.01C1018.39 765.01 1016.5 768.08 1013.23 772.01C1011.31 774.33 1007.71 778.67 1008.29 784.4C1008.4 785.49 1008.89 790.26 1012.29 792.3C1015.46 794.21 1018.29 791.97 1024.22 792.67C1026.7 792.82 1029.12 793.48 1031.33 794.61" stroke="black" stroke-width="1.5" stroke-linecap="round" stroke-linejoin="round"/>
<path d="M553.081 749.01C549.419 746.376 545.075 744.856 540.571 744.63C537.381 744.5 533.471 744.36 530.571 747.21C527.951 749.77 526.801 754.09 528.091 757.01C530.091 761.54 539.591 766.01 549.091 761.96" stroke="black" stroke-width="1.5" stroke-linecap="round" stroke-linejoin="round"/>
<path d="M771.94 449.11C756.995 449.11 744.88 436.995 744.88 422.05C744.88 407.105 756.995 394.99 771.94 394.99C786.885 394.99 799 407.105 799 422.05C799 436.995 786.885 449.11 771.94 449.11Z" fill="black" stroke="black" stroke-width="1.5" stroke-miterlimit="10" stroke-linecap="round" stroke-linejoin="round"/>
<path d="M753.27 441.68L726.34 442.57C723.039 443.355 719.589 443.249 716.344 442.261C713.098 441.274 710.173 439.441 707.87 436.95C705.428 434.242 703.799 430.901 703.17 427.31C702.891 425.58 702.858 423.82 703.07 422.08C703.79 415.38 704.14 412.97 704.56 408.31C705.48 398.2 701.76 397.05 703.28 388.1C703.77 385.22 704.4 381.48 706.95 378.05C712.61 370.43 724.31 370.31 727.76 370.33C732.691 370.368 737.558 371.452 742.04 373.51L753.27 441.68Z" fill="#D88B6D"/>
<path d="M767.769 399.86C769.348 393.723 768.427 387.21 765.209 381.75C758.649 371.08 746.029 370.75 745.209 370.75L734.489 370.17C724.169 367.3 713.789 369.79 707.999 376.7C705.35 379.968 703.719 383.943 703.309 388.13C707.041 387.719 710.579 386.253 713.507 383.902C716.434 381.552 718.631 378.415 719.839 374.86C719.881 374.743 719.959 374.643 720.063 374.576C720.167 374.509 720.291 374.478 720.414 374.488C720.538 374.498 720.654 374.549 720.746 374.633C720.837 374.717 720.898 374.828 720.919 374.95C721.857 380.697 724.892 385.893 729.439 389.53C733.038 392.255 737.364 393.852 741.869 394.12C743.159 402.53 744.929 411.6 747.339 421.19C749.169 428.49 751.179 435.33 753.269 441.7C758.109 427.747 762.943 413.8 767.769 399.86Z" fill="black" stroke="black" stroke-width="1.5" stroke-miterlimit="10" stroke-linecap="round" stroke-linejoin="round"/>
<path d="M725.829 442.61C722.949 451.5 720.069 460.61 717.199 469.53C724.962 475.102 734.44 477.761 743.969 477.04C751.617 476.353 758.906 473.482 764.969 468.77L752.689 441.49" fill="#D88B6D"/>
<path d="M725.829 442.61C722.949 451.5 720.069 460.61 717.199 469.53C724.962 475.102 734.44 477.761 743.969 477.04C751.617 476.353 758.906 473.482 764.969 468.77L752.689 441.49" stroke="black" stroke-width="1.5" stroke-linecap="round" stroke-linejoin="round"/>
<path d="M718.1 418.59H716.44C715.813 418.592 715.199 418.421 714.663 418.097C714.127 417.773 713.691 417.309 713.401 416.754C713.111 416.199 712.979 415.575 713.019 414.95C713.06 414.325 713.271 413.723 713.63 413.21L718.1 406.86" stroke="black" stroke-width="1.5" stroke-linecap="round" stroke-linejoin="round"/>
<path d="M712.87 422.631C712.827 422.632 712.786 422.645 712.749 422.667C712.713 422.689 712.683 422.72 712.662 422.757C712.641 422.794 712.629 422.836 712.629 422.879C712.629 422.921 712.639 422.963 712.66 423.001C713.113 423.815 713.776 424.494 714.579 424.966C715.383 425.439 716.298 425.688 717.23 425.688C718.162 425.688 719.077 425.439 719.88 424.966C720.684 424.494 721.347 423.815 721.8 423.001C721.821 422.964 721.832 422.923 721.832 422.88C721.832 422.838 721.821 422.796 721.799 422.76C721.778 422.723 721.747 422.693 721.711 422.672C721.674 422.651 721.632 422.64 721.59 422.641L712.87 422.631Z" fill="black"/>
<path fill-rule="evenodd" clip-rule="evenodd" d="M727.729 409.042C727.729 410.527 728.36 411.732 729.139 411.732C729.918 411.732 730.549 410.527 730.549 409.042C730.549 407.556 729.918 406.352 729.139 406.352C728.36 406.352 727.729 407.556 727.729 409.042ZM706.158 409.042C706.158 410.527 706.79 411.732 707.568 411.732C708.347 411.732 708.979 410.527 708.979 409.042C708.979 407.556 708.347 406.352 707.568 406.352C706.79 406.352 706.158 407.556 706.158 409.042Z" fill="black"/>
<path d="M756.51 420.492L751.08 400.732L752.92 400.672C755.002 400.606 757.028 401.355 758.567 402.759C760.106 404.163 761.036 406.112 761.16 408.192C761.259 409.99 760.747 411.769 759.709 413.241C758.671 414.713 757.167 415.791 755.44 416.302" fill="#D88B6D"/>
<path d="M756.51 420.492L751.08 400.732L752.92 400.672C755.002 400.606 757.028 401.355 758.567 402.759C760.106 404.163 761.036 406.112 761.16 408.192C761.259 409.99 760.747 411.769 759.709 413.241C758.671 414.713 757.167 415.791 755.44 416.302" stroke="black" stroke-width="1.5" stroke-linecap="round" stroke-linejoin="round"/>
<path fill-rule="evenodd" clip-rule="evenodd" d="M730.38 402.258C729.989 402.121 729.784 401.693 729.921 401.302C730.059 400.911 730.487 400.706 730.878 400.844C732.536 401.427 733.926 402.592 734.791 404.122C734.995 404.482 734.868 404.94 734.508 405.144C734.147 405.348 733.69 405.221 733.486 404.86C732.799 403.646 731.695 402.722 730.38 402.258ZM707.809 400.844C708.2 400.706 708.628 400.911 708.766 401.302C708.903 401.693 708.698 402.121 708.307 402.258C706.992 402.722 705.888 403.646 705.201 404.86C704.997 405.221 704.54 405.348 704.179 405.144C703.819 404.94 703.692 404.482 703.896 404.122C704.761 402.592 706.151 401.427 707.809 400.844Z" fill="black"/>
<path d="M734.1 440.861L726.34 442.611C723.039 443.396 719.589 443.289 716.344 442.302C713.098 441.314 710.173 439.481 707.87 436.991C705.428 434.283 703.799 430.942 703.17 427.351C702.891 425.621 702.858 423.86 703.07 422.121C703.79 415.421 704.14 413.011 704.56 408.351C705.48 398.241 701.76 397.091 703.28 388.141C703.77 385.261 704.4 381.521 706.95 378.091C713.19 369.671 725.73 370.251 727.76 370.371C730.23 370.521 732.27 370.281 733.59 370.371" stroke="black" stroke-width="1.5" stroke-miterlimit="10" stroke-linecap="round" stroke-linejoin="round"/>
<path d="M713.299 406.9H721.789" stroke="black" stroke-width="1.5" stroke-linecap="round" stroke-linejoin="round"/>
<path d="M702.275 419.148C696.415 419.148 691.665 414.397 691.665 408.538C691.665 402.678 696.415 397.928 702.275 397.928C708.135 397.928 712.885 402.678 712.885 408.538C712.885 414.397 708.135 419.148 702.275 419.148Z" stroke="black" stroke-width="1.5" stroke-linecap="round" stroke-linejoin="round"/>
<path opacity="0.17" fill-rule="evenodd" clip-rule="evenodd" d="M721.684 408.538C721.684 414.397 726.435 419.148 732.294 419.148C738.154 419.148 742.904 414.397 742.904 408.538C742.904 402.678 738.154 397.928 732.294 397.928C726.435 397.928 721.684 402.678 721.684 408.538ZM691.78 408.538C691.78 414.397 696.53 419.148 702.39 419.148C708.25 419.148 713 414.397 713 408.538C713 402.678 708.25 397.928 702.39 397.928C696.53 397.928 691.78 402.678 691.78 408.538Z" fill="white"/>
<path d="M732.294 419.148C726.435 419.148 721.684 414.397 721.684 408.538C721.684 402.678 726.435 397.928 732.294 397.928C738.154 397.928 742.904 402.678 742.904 408.538C742.904 414.397 738.154 419.148 732.294 419.148Z" stroke="black" stroke-width="1.5" stroke-linecap="round" stroke-linejoin="round"/>
<path d="M713.205 406.907H721.695" stroke="black" stroke-width="1.5" stroke-linecap="round" stroke-linejoin="round"/>
<path d="M732.294 419.148C726.435 419.148 721.684 414.397 721.684 408.538C721.684 402.678 726.435 397.928 732.294 397.928C738.154 397.928 742.904 402.678 742.904 408.538C742.904 414.397 738.154 419.148 732.294 419.148Z" stroke="black" stroke-width="1.5" stroke-linecap="round" stroke-linejoin="round"/>
<path d="M691.324 478.825L668.384 531.065C660.534 548.955 662.624 569.855 674.484 585.375C674.844 585.835 675.204 586.305 675.584 586.765C679.316 591.313 683.669 595.316 688.514 598.655L720.434 575.435L694.944 554.345L714.024 514.755C716.502 510.154 717.387 504.862 716.543 499.705C715.698 494.547 713.17 489.815 709.354 486.245C702.334 479.565 693.294 478.925 691.324 478.825Z" fill="#FFCD88" stroke="black" stroke-width="1.5" stroke-linecap="round" stroke-linejoin="round"/>
<path d="M818.553 638.926C818.383 637.926 819.493 636.536 813.783 620.986C811.493 614.776 809.213 608.556 809.003 603.046C797.283 603.736 793.853 607.236 782.143 607.926L668.083 615.926C636.643 612.306 611.703 630.556 608.713 651.136C608.465 652.874 608.368 654.631 608.423 656.386C608.963 672.986 622.973 685.986 639.583 686.066L765.493 686.616C811.083 661.866 820.013 647.576 818.553 638.926Z" fill="#F25A33" stroke="black" stroke-width="1.5" stroke-linecap="round" stroke-linejoin="round"/>
<path d="M703.693 528.436C703.903 528.436 704.043 533.566 707.693 536.486C709.863 538.236 712.613 538.666 716.373 539.166C718.361 539.443 720.366 539.57 722.373 539.546C722.373 539.546 719.323 539.416 705.523 539.036C703.753 530.186 703.573 528.496 703.693 528.436Z" fill="black" stroke="black" stroke-linecap="round" stroke-linejoin="round"/>
<path d="M771.354 580.176L766.754 592.426C768.346 603.652 773.066 614.203 780.376 622.87C787.685 631.538 797.288 637.972 808.084 641.436" stroke="white" stroke-width="1.5" stroke-linecap="round" stroke-linejoin="round"/>
<path d="M699.674 533.235L712.654 534.745" stroke="black" stroke-width="1.5" stroke-linecap="round" stroke-linejoin="round"/>
<path d="M716.845 469.275C714.087 469.777 711.489 470.929 709.265 472.635C702.675 477.835 701.795 487.065 701.685 495.395C701.385 518.735 707.005 545.395 709.435 556.105C709.225 556.585 709.015 557.105 708.795 557.555C733.795 549.555 759.675 548.475 785.645 549.065L769.565 469.435L716.845 469.275Z" fill="#F25A33" stroke="black" stroke-width="1.5" stroke-linecap="round" stroke-linejoin="round"/>
<path d="M759.863 532.806C756.273 553.696 753.863 551.276 753.033 562.466C750.433 598.626 779.743 613.106 778.743 652.006C778.509 660.598 777.233 669.131 774.943 677.416C795.276 688.464 818.209 693.835 841.333 692.966C847.213 652.216 839.083 626.436 830.083 610.126C821.393 594.296 810.433 584.636 807.323 562.986C805.213 548.316 808.713 541.986 808.933 521.896C809.093 505.752 807.075 489.66 802.933 474.056L762.333 474.006C764.001 493.631 763.171 513.389 759.863 532.806Z" fill="#FFCD88" stroke="black" stroke-width="1.5" stroke-linecap="round" stroke-linejoin="round"/>
<path d="M775.724 465.915C781.244 467.425 788.844 469.545 797.934 472.175C801.184 473.115 804.934 474.175 805.374 474.345C811.214 476.145 826.624 478.765 836.764 556.025C837.467 559.799 837.467 563.671 836.764 567.445C836.479 568.779 836.105 570.091 835.644 571.375C834.54 574.385 833.112 577.265 831.384 579.965C828.584 584.275 806.834 610.065 774.624 630.235C767.084 616.235 759.548 602.198 752.014 588.125C766.294 580.875 780.614 565.045 794.894 557.795C790.174 538.995 788.734 535.795 784.014 516.975" fill="#FFCD88"/>
<path d="M775.724 465.915C781.244 467.425 788.844 469.545 797.934 472.175C801.184 473.115 804.934 474.175 805.374 474.345C811.214 476.145 826.624 478.765 836.764 556.025C837.467 559.799 837.467 563.671 836.764 567.445C836.479 568.779 836.105 570.091 835.644 571.375C834.54 574.385 833.112 577.265 831.384 579.965C828.584 584.275 806.834 610.065 774.624 630.235C767.084 616.235 759.548 602.198 752.014 588.125C766.294 580.875 780.614 565.045 794.894 557.795C790.174 538.995 788.734 535.795 784.014 516.975" stroke="black" stroke-width="1.5" stroke-linecap="round" stroke-linejoin="round"/>
<path d="M709.434 556.096L719.434 556.766L709.434 556.096Z" fill="white"/>
<path d="M709.434 556.096L719.434 556.766" stroke="black" stroke-width="1.5" stroke-linecap="round" stroke-linejoin="round"/>
<path d="M687.544 492.336C687.444 490.166 687.404 482.876 692.544 477.786C695.704 474.646 699.594 473.566 703.304 472.536C706.728 471.586 710.272 471.142 713.824 471.216C711.915 474.287 710.243 477.5 708.824 480.826C707.748 483.366 706.823 485.967 706.054 488.616C703.414 499.005 702.689 509.787 703.914 520.436C704.104 522.036 704.294 523.546 704.554 525.166C705.344 530.276 706.234 534.016 706.744 536.166C708.004 541.486 709.584 548.306 711.534 556.696L709.434 556.146C701.795 545.211 695.986 533.106 692.234 520.306" fill="#FFCD88"/>
<path d="M687.544 492.336C687.444 490.166 687.404 482.876 692.544 477.786C695.704 474.646 699.594 473.566 703.304 472.536C706.728 471.586 710.272 471.142 713.824 471.216C711.915 474.287 710.243 477.5 708.824 480.826C707.748 483.366 706.823 485.967 706.054 488.616C703.414 499.005 702.689 509.787 703.914 520.436C704.104 522.036 704.294 523.546 704.554 525.166C705.344 530.276 706.234 534.016 706.744 536.166C708.004 541.486 709.584 548.306 711.534 556.696L709.434 556.146C701.795 545.211 695.986 533.106 692.234 520.306" stroke="black" stroke-width="1.5" stroke-linecap="round" stroke-linejoin="round"/>
<path fill-rule="evenodd" clip-rule="evenodd" d="M686.404 466.666C688.514 465.156 696.114 460.376 705.714 462.286C710.355 463.246 714.613 465.544 717.964 468.896L718.744 469.676L717.744 470.116C716.514 470.646 715.294 471.246 714.124 471.876C709.04 474.631 704.478 478.256 700.644 482.586L700.084 483.206L685.724 467.156L686.404 466.666ZM781.242 462.889C786.608 462.52 791.994 463.226 797.084 464.966L798.164 465.336L778.914 486.336L755.004 474.786L765.834 467.116C770.638 464.695 775.876 463.258 781.242 462.889Z" fill="black"/>
<path d="M735.215 476.604C735.215 476.604 729.055 501.194 732.445 517.304" stroke="black" stroke-width="1.5" stroke-linecap="round" stroke-linejoin="round"/>
<path d="M732.585 490.646C731.176 490.646 730.035 489.504 730.035 488.096C730.035 486.688 731.176 485.546 732.585 485.546C733.993 485.546 735.135 486.688 735.135 488.096C735.135 489.504 733.993 490.646 732.585 490.646Z" fill="white" stroke="black" stroke-width="1.5" stroke-linecap="round" stroke-linejoin="round"/>
<path d="M731.134 504.085C729.725 504.085 728.584 502.943 728.584 501.535C728.584 500.127 729.725 498.985 731.134 498.985C732.542 498.985 733.684 500.127 733.684 501.535C733.684 502.943 732.542 504.085 731.134 504.085Z" fill="white" stroke="black" stroke-width="1.5" stroke-linecap="round" stroke-linejoin="round"/>
<path d="M795.183 637.845H660.523V549.705H795.183V637.845Z" fill="#82AAD3" stroke="black" stroke-width="1.5" stroke-linecap="round" stroke-linejoin="round"/>
<path d="M795.183 645.444H660.523V637.614H795.183V645.444Z" fill="#82AAD3" stroke="black" stroke-width="1.5" stroke-linecap="round" stroke-linejoin="round"/>
<path d="M732.834 592.795C733.123 592.147 733.273 591.445 733.274 590.735C733.274 589.367 732.73 588.054 731.762 587.086C730.795 586.119 729.482 585.575 728.114 585.575C726.745 585.575 725.433 586.119 724.465 587.086C723.497 588.054 722.954 589.367 722.954 590.735C722.956 591.444 723.102 592.145 723.384 592.795C722.359 593.745 721.645 594.981 721.333 596.343C721.022 597.705 721.128 599.129 721.638 600.43C722.149 601.73 723.039 602.847 724.193 603.634C725.347 604.421 726.712 604.842 728.109 604.842C729.506 604.842 730.87 604.421 732.024 603.634C733.178 602.847 734.069 601.73 734.579 600.43C735.089 599.129 735.195 597.705 734.884 596.343C734.573 594.981 733.858 593.745 732.834 592.795Z" fill="white" stroke="black" stroke-width="1.5" stroke-linecap="round" stroke-linejoin="round"/>
<path d="M801.504 638.916L797.764 655.086" stroke="black" stroke-width="1.5" stroke-linecap="round" stroke-linejoin="round"/>
<path d="M821.754 647.686C824.084 655.836 826.184 668.356 822.364 682.206C821.716 684.561 820.918 686.872 819.974 689.126L798.384 684.936L799.684 654.506L821.754 647.686Z" fill="white" stroke="black" stroke-width="1.5" stroke-linecap="round" stroke-linejoin="round"/>
<path d="M817.654 696.436C810.814 692.076 803.654 686.766 798.384 684.926L645.444 689.736C642.479 689.781 639.535 689.239 636.78 688.14C634.026 687.042 631.516 685.409 629.396 683.336C627.275 681.263 625.586 678.791 624.426 676.062C623.265 673.333 622.657 670.401 622.634 667.436V666.976C622.612 664.013 623.176 661.074 624.294 658.329C625.412 655.585 627.062 653.089 629.148 650.984C631.235 648.88 633.717 647.209 636.452 646.068C639.187 644.927 642.121 644.338 645.084 644.336H660.834L752.064 645.186C754.837 647.781 758.145 649.737 761.754 650.916C767.344 652.686 771.184 651.156 780.904 651.566C788.604 651.886 789.954 652.046 794.114 652.136C805.744 652.386 815.334 651.906 821.804 651.436C824.604 653.846 847.614 674.236 843.594 700.156C842.78 705.307 841.006 710.259 838.364 714.756C832.452 707.613 825.466 701.432 817.654 696.436Z" fill="#D88B6D" stroke="black" stroke-width="1.5" stroke-linecap="round" stroke-linejoin="round"/>
<path d="M728.713 645.346C728.473 650.766 728.023 656.526 727.283 662.566C726.15 671.85 724.437 681.055 722.153 690.126C746.223 690.206 771.573 689.316 798.073 687.126C806.14 686.459 814.07 685.696 821.863 684.836L777.933 645.436L728.713 645.346Z" fill="white" stroke="black" stroke-width="1.5" stroke-linecap="round" stroke-linejoin="round"/>
<path d="M820.244 693.745C822.346 704.319 825.125 714.747 828.564 724.965C832.564 736.825 835.294 741.875 840.564 744.615C841.405 745.047 842.282 745.409 843.184 745.695C844.372 746.051 845.626 746.129 846.849 745.924C848.073 745.718 849.233 745.235 850.24 744.51C851.246 743.785 852.073 742.839 852.657 741.744C853.24 740.649 853.564 739.435 853.604 738.195L856.994 654.195C857.045 652.927 856.793 651.664 856.259 650.512C855.726 649.359 854.926 648.351 853.925 647.569C852.925 646.787 851.752 646.255 850.505 646.016C849.258 645.777 847.972 645.839 846.754 646.195L831.064 647.895C816.29 646.862 800.957 646.162 785.064 645.795C775.937 645.595 766.987 645.525 758.214 645.585C760.795 660.964 760.316 676.702 756.804 691.895L820.244 693.745Z" fill="#FFCD88" stroke="black" stroke-width="1.5" stroke-linecap="round" stroke-linejoin="round"/>
<path d="M735.693 645.115C735.646 654.844 734.733 664.549 732.963 674.115C731.963 679.655 730.693 684.785 729.333 689.495" fill="white"/>
<path d="M735.693 645.115C735.646 654.844 734.733 664.549 732.963 674.115C731.963 679.655 730.693 684.785 729.333 689.495" stroke="black" stroke-width="1.5" stroke-linecap="round" stroke-linejoin="round"/>
<path d="M764.564 681.436C764.564 681.436 818.564 677.216 819.734 693.436L764.164 692.436L764.564 681.436Z" fill="#FFCD88" stroke="black" stroke-width="1.5" stroke-linecap="round" stroke-linejoin="round"/>
<path d="M831.083 647.846L847.863 645.846L847.383 657.576C844.377 658.54 841.122 658.369 838.233 657.096C832.463 654.486 831.183 648.486 831.083 647.846Z" fill="#FFCD88" stroke="black" stroke-width="1.5" stroke-linecap="round" stroke-linejoin="round"/>
<path d="M813.126 683.791L813.237 682.445C813.299 681.697 813.956 681.14 814.705 681.202L816.05 681.313C816.799 681.375 817.356 682.032 817.294 682.781L817.182 684.126C817.12 684.875 816.463 685.431 815.715 685.369L814.369 685.258C813.621 685.196 813.064 684.539 813.126 683.791Z" fill="#FFCD88" stroke="black" stroke-width="1.5" stroke-linecap="round" stroke-linejoin="round"/>
<path d="M796.538 680.633L796.65 679.288C796.712 678.539 797.369 677.983 798.117 678.045L799.462 678.156C800.211 678.218 800.768 678.875 800.706 679.624L800.594 680.969C800.532 681.718 799.875 682.274 799.127 682.212L797.781 682.101C797.033 682.039 796.476 681.382 796.538 680.633Z" fill="#FFCD88" stroke="black" stroke-width="1.5" stroke-linecap="round" stroke-linejoin="round"/>
<path d="M781.763 680.185L781.874 678.84C781.936 678.091 782.593 677.535 783.342 677.597L784.687 677.708C785.436 677.77 785.992 678.427 785.93 679.175L785.819 680.521C785.757 681.269 785.1 681.826 784.351 681.764L783.006 681.653C782.258 681.591 781.701 680.934 781.763 680.185Z" fill="#FFCD88" stroke="black" stroke-width="1.5" stroke-linecap="round" stroke-linejoin="round"/>
<path d="M767.361 678.476L767.472 677.131C767.534 676.382 768.191 675.826 768.939 675.888L770.285 675.999C771.033 676.061 771.59 676.718 771.528 677.466L771.417 678.812C771.355 679.56 770.698 680.117 769.949 680.055L768.604 679.944C767.855 679.882 767.299 679.225 767.361 678.476Z" fill="#FFCD88" stroke="black" stroke-width="1.5" stroke-linecap="round" stroke-linejoin="round"/>
<path d="M815.033 685.315L805.193 693.175L798.453 682.155L782.953 693.635L783.683 681.695L769.473 693.035L769.273 679.995" stroke="black" stroke-width="1.5" stroke-linecap="round" stroke-linejoin="round"/>
<path d="M847.834 645.875C847.274 679.255 846.717 712.638 846.164 746.025L847.834 645.875Z" fill="#FFCD88"/>
<path d="M847.834 645.875C847.274 679.255 846.717 712.638 846.164 746.025" stroke="black" stroke-width="1.5" stroke-linecap="round" stroke-linejoin="round"/>
<path d="M782.203 661.436L793.933 626.956C796.983 617.956 807.693 611.496 816.553 614.896L817.863 614.376" stroke="white" stroke-width="1.5" stroke-linecap="round" stroke-linejoin="round"/>
<path d="M792.565 623.025C777.935 663.195 763.055 724.025 748.415 764.155L734.775 781.045C736.722 784.912 739.068 788.565 741.775 791.945C745.775 796.945 748.435 800.305 752.685 802.005C760.925 805.305 769.815 800.125 772.045 798.735C773.558 790.915 775.065 783.095 776.565 775.275L839.815 644.975C840.725 643.535 845.815 635.155 843.045 625.165C840.205 614.875 831.045 609.925 827.955 608.515L827.435 608.285C824.194 606.829 820.687 606.058 817.135 606.018C813.582 605.979 810.06 606.672 806.787 608.056C803.515 609.439 800.563 611.482 798.116 614.058C795.669 616.633 793.779 619.686 792.565 623.025Z" fill="#D88B6D" stroke="black" stroke-width="1.5" stroke-linecap="round" stroke-linejoin="round"/>
<path d="M736.324 778.354L726.854 789.674C725.907 790.808 725.236 792.148 724.894 793.585C724.552 795.022 724.549 796.519 724.884 797.958C725.22 799.397 725.885 800.737 726.827 801.875C727.769 803.013 728.963 803.918 730.314 804.516L756.974 816.266C758.291 816.846 759.722 817.122 761.161 817.07C762.6 817.019 764.008 816.642 765.28 815.968C766.552 815.295 767.655 814.342 768.506 813.181C769.357 812.02 769.934 810.681 770.194 809.266C771.241 803.592 772.287 797.926 773.334 792.266C770.714 793.759 767.792 794.643 764.784 794.854C760.904 795.094 758.124 794.014 752.734 791.854C745.984 789.134 741.184 787.115 738.074 782.115C737.342 780.937 736.755 779.673 736.324 778.354Z" fill="#FFCD88" stroke="black" stroke-width="1.5" stroke-linecap="round" stroke-linejoin="round"/>
<path d="M815.004 698.965C800.327 694.582 786.353 688.123 773.504 679.785C764.904 701.855 756.734 725.475 749.364 750.605C747.084 758.378 744.947 766.045 742.954 773.605L792.414 749.605L815.004 698.965Z" fill="white" stroke="black" stroke-width="1.5" stroke-linecap="round" stroke-linejoin="round"/>
<path d="M736.993 769.595C732.06 776.309 727.137 783.022 722.223 789.735C721.04 790.45 720.087 791.49 719.477 792.731C718.867 793.972 718.626 795.362 718.783 796.735C719.069 798.305 719.901 799.722 721.133 800.735L758.323 817.035C763.033 819.035 768.483 815.585 769.053 810.175C771.447 802.649 773.84 795.122 776.233 787.595C784.8 767.775 793.397 747.949 802.023 728.115C787.525 725.288 773.765 719.501 761.603 711.115C753.403 730.602 745.2 750.095 736.993 769.595Z" fill="#FFCD88" stroke="black" stroke-width="1.5" stroke-linecap="round" stroke-linejoin="round"/>
<path d="M811.814 705.655C797.406 701.838 783.693 695.762 771.184 687.655L811.814 705.655Z" fill="white"/>
<path d="M811.814 705.655C797.406 701.838 783.693 695.762 771.184 687.655" stroke="black" stroke-width="1.5" stroke-linecap="round" stroke-linejoin="round"/>
<path d="M787.084 730.146C787.084 730.146 771.624 782.016 756.084 777.336L777.014 725.846L787.084 730.146Z" fill="#FFCD88" stroke="black" stroke-width="1.5" stroke-linecap="round" stroke-linejoin="round"/>
<path d="M767.371 774.569L768.586 775.156C769.262 775.483 769.546 776.296 769.219 776.972L768.631 778.188C768.304 778.864 767.491 779.147 766.815 778.82L765.599 778.233C764.923 777.906 764.64 777.093 764.967 776.416L765.554 775.201C765.881 774.525 766.694 774.242 767.371 774.569Z" fill="#FFCD88" stroke="black" stroke-width="1.5" stroke-linecap="round" stroke-linejoin="round"/>
<path d="M776.273 760.226L777.488 760.813C778.165 761.14 778.448 761.954 778.121 762.63L777.533 763.845C777.206 764.521 776.393 764.805 775.717 764.478L774.502 763.89C773.825 763.563 773.542 762.75 773.869 762.074L774.457 760.858C774.784 760.182 775.597 759.899 776.273 760.226Z" fill="#FFCD88" stroke="black" stroke-width="1.5" stroke-linecap="round" stroke-linejoin="round"/>
<path d="M782.009 746.608L783.225 747.195C783.901 747.522 784.184 748.335 783.857 749.012L783.27 750.227C782.943 750.903 782.13 751.186 781.453 750.859L780.238 750.272C779.562 749.945 779.279 749.132 779.605 748.456L780.193 747.24C780.52 746.564 781.333 746.281 782.009 746.608Z" fill="#FFCD88" stroke="black" stroke-width="1.5" stroke-linecap="round" stroke-linejoin="round"/>
<path d="M788.783 733.774L789.998 734.361C790.674 734.688 790.958 735.501 790.631 736.178L790.043 737.393C789.716 738.069 788.903 738.352 788.227 738.026L787.011 737.438C786.335 737.111 786.052 736.298 786.379 735.622L786.966 734.406C787.293 733.73 788.107 733.447 788.783 733.774Z" fill="#FFCD88" stroke="black" stroke-width="1.5" stroke-linecap="round" stroke-linejoin="round"/>
<path d="M765.283 775.846L761.483 763.836L774.193 761.506L769.053 742.906L779.923 747.886L774.453 730.546L786.693 735.046" stroke="black" stroke-width="1.5" stroke-linecap="round" stroke-linejoin="round"/>
<path d="M768.885 722.226C768.885 722.226 741.455 768.886 755.475 777.066L778.895 726.666L768.885 722.226Z" fill="#FFCD88" stroke="black" stroke-width="1.5" stroke-linecap="round" stroke-linejoin="round"/>
<path d="M748.303 770.737L747.045 770.248C746.345 769.976 745.998 769.187 746.27 768.487L746.76 767.229C747.032 766.529 747.82 766.182 748.52 766.455L749.778 766.944C750.478 767.216 750.825 768.004 750.553 768.704L750.064 769.962C749.791 770.663 749.003 771.009 748.303 770.737Z" fill="#FFCD88" stroke="black" stroke-width="1.5" stroke-linecap="round" stroke-linejoin="round"/>
<path d="M752.719 754.432L751.461 753.943C750.761 753.671 750.414 752.883 750.686 752.183L751.176 750.924C751.448 750.224 752.236 749.878 752.936 750.15L754.194 750.639C754.894 750.911 755.241 751.699 754.969 752.4L754.48 753.658C754.207 754.358 753.419 754.705 752.719 754.432Z" fill="#FFCD88" stroke="black" stroke-width="1.5" stroke-linecap="round" stroke-linejoin="round"/>
<path d="M758.785 740.965L757.527 740.475C756.827 740.203 756.48 739.415 756.753 738.715L757.242 737.457C757.514 736.757 758.302 736.41 759.002 736.682L760.261 737.171C760.961 737.444 761.307 738.232 761.035 738.932L760.546 740.19C760.274 740.89 759.486 741.237 758.785 740.965Z" fill="#FFCD88" stroke="black" stroke-width="1.5" stroke-linecap="round" stroke-linejoin="round"/>
<path d="M763.555 727.265L762.297 726.776C761.597 726.504 761.25 725.716 761.522 725.016L762.012 723.757C762.284 723.057 763.072 722.711 763.772 722.983L765.03 723.472C765.73 723.744 766.077 724.533 765.805 725.233L765.315 726.491C765.043 727.191 764.255 727.538 763.555 727.265Z" fill="#FFCD88" stroke="black" stroke-width="1.5" stroke-linecap="round" stroke-linejoin="round"/>
<path d="M750.293 769.316L761.673 763.916L754.723 753.026L771.833 744.116L760.783 739.546L777.193 731.736L765.563 725.846" stroke="black" stroke-width="1.5" stroke-linecap="round" stroke-linejoin="round"/>
<path d="M768.545 810.435C752.545 803.265 738.275 796.875 722.225 789.705L768.545 810.435Z" fill="#FFCD88"/>
<path d="M768.545 810.435C752.545 803.265 738.275 796.875 722.225 789.705" stroke="black" stroke-width="1.5" stroke-linecap="round" stroke-linejoin="round"/>
<path d="M749.655 774.575L762.145 780.005" stroke="black" stroke-width="1.5" stroke-linecap="round" stroke-linejoin="round"/>
<path d="M331.47 531.533C341.161 529.429 351.266 530.372 360.4 534.233C367.01 537.013 372.13 540.973 378.81 547.773C392.58 561.773 396.9 571.463 405.23 582.993C414.38 595.663 433.68 622.383 459.23 623.613C470.35 624.153 479.58 619.693 485.23 616.183C495.59 610.133 499.53 603.423 501.23 599.033C506.33 585.963 501.42 568.523 488 551.353C468.37 526.263 438.2 511.713 406.34 511.033C396.094 510.807 385.855 511.743 375.82 513.823C360.118 517.096 345.108 523.09 331.47 531.533Z" fill="#C8B571" stroke="black" stroke-width="1.5" stroke-linecap="round" stroke-linejoin="round"/>
<path d="M320.56 607.312C332.271 581.843 349.408 559.242 370.77 541.092C365.294 536.763 358.947 533.669 352.164 532.021C345.381 530.372 338.322 530.209 331.47 531.542C328.292 533.279 325.259 535.268 322.4 537.492C269.4 578.632 289.97 689.402 304.66 746.392C306.86 745.232 309.09 744.122 311.35 743.062C303.05 711.412 296.61 659.982 320.56 607.312Z" fill="#C8B571" stroke="black" stroke-width="1.5" stroke-linecap="round" stroke-linejoin="round"/>
<path d="M355.57 555.031C344.921 546.249 331.447 541.63 317.65 542.031C321.561 537.138 326.754 533.427 332.65 531.311C348.4 525.771 362.42 534.801 364.23 536.011L370.05 540.781C368.54 541.981 366.99 543.281 365.44 544.701C361.896 547.893 358.597 551.346 355.57 555.031Z" fill="black"/>
<path d="M297.87 697.243C293.65 652.653 303.31 618.853 306.3 609.153C313.803 584.861 325.467 562.056 340.77 541.753" stroke="black" stroke-width="1.5" stroke-linecap="round" stroke-linejoin="round"/>
<path d="M485.24 616.183C475.228 590.567 458.855 567.924 437.665 550.391C416.475 532.858 393.167 521.012 366.13 515.973" fill="#C8B571"/>
<path d="M485.24 616.183C475.228 590.567 458.855 567.924 437.665 550.391C416.475 532.858 393.167 521.012 366.13 515.973" stroke="black" stroke-width="1.5" stroke-linecap="round" stroke-linejoin="round"/>
<path d="M278.37 675.463C272.391 664.842 262.668 656.831 251.1 652.993C242.015 650.089 232.274 649.933 223.1 652.543C217.528 654.143 211.79 655.096 206 655.383C189.23 656.073 159.69 654.383 148.52 635.383C146.923 632.655 145.756 629.697 145.06 626.613C145.78 620.713 148.17 608.713 157.66 599.143C171.2 585.463 190 586.013 201.14 586.313C208.34 586.523 232.14 588.183 252.43 605.563C265.19 616.563 272 633.203 285.62 666.563C291.68 681.423 293.86 690.083 295.06 695.923C296.06 700.863 296.43 703.923 298.69 717.573C300.15 726.333 301.4 733.453 302.21 738.053L294.55 738.823C292.753 731.911 291.367 724.899 290.4 717.823C288.85 706.433 289.4 701.823 287.15 693.913C285.286 687.312 282.317 681.073 278.37 675.463Z" fill="#C8B571" stroke="black" stroke-width="1.5" stroke-linecap="round" stroke-linejoin="round"/>
<path d="M145 626.653C155.44 622.653 185.8 612.213 217.95 620.393C227.513 622.899 236.713 626.63 245.32 631.493C255.103 637.117 263.888 644.321 271.32 652.813C281.393 664.671 288.484 678.766 292 693.923" stroke="black" stroke-width="1.5" stroke-linecap="round" stroke-linejoin="round"/>
<path d="M165.9 593.401C170.42 594.511 178.02 596.531 186.42 605.121C191.42 610.231 194.23 613.521 195.82 617.231" stroke="black" stroke-width="1.5" stroke-linecap="round" stroke-linejoin="round"/>
<path d="M218.64 620.731C210.567 624.508 203.553 630.221 198.22 637.361C194.522 642.346 191.721 647.936 189.94 653.881" fill="#C8B571"/>
<path d="M218.64 620.731C210.567 624.508 203.553 630.221 198.22 637.361C194.522 642.346 191.721 647.936 189.94 653.881" stroke="black" stroke-width="1.5" stroke-linecap="round" stroke-linejoin="round"/>
<path d="M229.09 591.771C236.32 599.671 241.408 609.29 243.87 619.711C244.751 623.579 245.24 627.527 245.33 631.492" fill="#C8B571"/>
<path d="M229.09 591.771C236.32 599.671 241.408 609.29 243.87 619.711C244.751 623.579 245.24 627.527 245.33 631.492" stroke="black" stroke-width="1.5" stroke-linecap="round" stroke-linejoin="round"/>
<path d="M335.72 595.033C334.047 595.913 332.474 596.972 331.03 598.193C331.92 598.193 344.03 597.983 349.78 602.473C350.703 603.202 351.569 604.001 352.37 604.863C354.209 607.048 355.651 609.539 356.63 612.223C360.39 621.463 359.71 627.023 360.91 634.153C362.23 641.993 365.01 658.513 380.67 663.153C387.5 665.153 394.89 664.413 399.72 663.553C408.38 662.153 413.23 659.403 415.85 657.463C423.66 651.693 426.7 642.133 424.27 631.353C420.71 615.593 406.79 603.463 386.93 598.063C386.4 597.913 379.84 596.803 366.69 594.613C351.58 592.133 343.59 590.933 335.72 595.033Z" fill="#C8B571" stroke="black" stroke-width="1.5" stroke-linecap="round" stroke-linejoin="round"/>
<path d="M353.91 607.571C352.64 608.361 351.38 609.191 350.13 610.041C331.29 622.981 303.33 651.041 292.39 715.661L286.59 714.201C286.05 694.681 288.04 656.361 312.43 620.251C317.31 613.016 322.836 606.239 328.94 600.001C330.07 598.836 331.479 597.98 333.034 597.515C334.588 597.049 336.236 596.989 337.82 597.341C340.495 597.935 343.083 598.869 345.52 600.121C348.93 601.814 351.826 604.386 353.91 607.571Z" fill="#C8B571" stroke="black" stroke-width="1.5" stroke-linecap="round" stroke-linejoin="round"/>
<path d="M344.85 613.861C340.918 607.908 335.678 602.932 329.53 599.311L332.53 596.661H332.75H332.91C336.52 596.201 341.28 596.961 347.16 601.161L354 607.311L344.85 613.861Z" fill="black"/>
<path d="M399.72 663.591C402.476 649.548 399.985 634.982 392.72 622.651C382.79 606.011 365.34 596.912 357.3 593.312" fill="#C8B571"/>
<path d="M399.72 663.591C402.476 649.548 399.985 634.982 392.72 622.651C382.79 606.011 365.34 596.912 357.3 593.312" stroke="black" stroke-width="1.5" stroke-linecap="round" stroke-linejoin="round"/>
<path d="M296 812.741C299.763 812.741 303.392 811.343 306.184 808.819C308.976 806.296 310.731 802.826 311.11 799.081L321.93 714.5L335.72 694.58L256.21 694.59L270 714.5L280.93 799.511C281.41 803.169 283.204 806.528 285.976 808.962C288.748 811.396 292.311 812.739 296 812.741Z" fill="#AD85AD" stroke="black" stroke-width="1.5" stroke-linecap="round" stroke-linejoin="round"/>
<path d="M440 318.8V265.18L402.37 304.69C401.25 306.04 388.88 320.47 369.45 318.8C353.73 317.45 344.61 306.53 342.97 304.5C329.45 347.6 297.4 439.76 264.34 437.27C255.08 436.57 237.79 426.74 223.34 383.82" stroke="black" stroke-width="1.5" stroke-linecap="round" stroke-linejoin="round"/>
<path d="M223.1 345.141H209.6V812.401H223.1V345.141Z" fill="#FFE1B8" stroke="black" stroke-width="1.5" stroke-linecap="round" stroke-linejoin="round"/>
<path d="M214.6 345.141V811.581" stroke="black" stroke-width="1.5" stroke-linecap="round" stroke-linejoin="round"/>
<path d="M441.36 259.89C440.11 257.94 438.79 256.02 437.65 254L177.26 393.05L183.62 404.96L444.82 265.48C443.69 263.61 442.54 261.74 441.36 259.89Z" fill="#FFE1B8" stroke="black" stroke-width="1.5" stroke-linecap="round" stroke-linejoin="round"/>
<path d="M439.51 258.68C422.91 265.95 407.91 275.95 390.91 284.95C373.91 293.95 356.91 302.95 338.91 312.95C284.91 341.95 233.91 369.95 180.33 397.08" fill="white"/>
<path d="M439.51 258.68C422.91 265.95 407.91 275.95 390.91 284.95C373.91 293.95 356.91 302.95 338.91 312.95C284.91 341.95 233.91 369.95 180.33 397.08" stroke="black" stroke-width="1.5" stroke-linecap="round" stroke-linejoin="round"/>
<path d="M503.99 412.459L502.34 411.269C503.24 402.699 502.99 390.929 495.7 382.669C485.5 371.109 470.24 376.289 458.42 366.839C451.12 360.999 444.16 348.789 446.47 320.609C446.493 320.318 446.456 320.025 446.361 319.749C446.265 319.473 446.114 319.22 445.915 319.006C445.717 318.792 445.476 318.621 445.209 318.504C444.941 318.388 444.652 318.328 444.36 318.329H435.44C435.148 318.33 434.86 318.39 434.593 318.507C434.326 318.624 434.086 318.795 433.888 319.009C433.69 319.223 433.538 319.476 433.442 319.751C433.346 320.026 433.308 320.318 433.33 320.609C435.64 348.789 428.69 360.999 421.39 366.839C409.57 376.289 394.31 371.109 384.11 382.669C376.82 390.929 376.57 402.669 377.47 411.269L375.82 412.459C375.064 413.006 374.501 413.779 374.211 414.665C373.921 415.552 373.919 416.508 374.206 417.396C374.492 418.284 375.052 419.058 375.805 419.609C376.559 420.159 377.467 420.456 378.4 420.459H501.4C502.334 420.459 503.243 420.162 503.998 419.613C504.753 419.063 505.315 418.289 505.603 417.4C505.89 416.512 505.889 415.555 505.599 414.668C505.31 413.78 504.746 413.007 503.99 412.459Z" fill="#AD85AD" stroke="black" stroke-width="1.5" stroke-linecap="round" stroke-linejoin="round"/>
<path d="M503.99 412.461L502.34 411.271C502.335 411.198 502.335 411.124 502.34 411.051H377.45C377.45 411.121 377.45 411.201 377.45 411.271L375.8 412.461C375.044 413.008 374.481 413.78 374.191 414.667C373.901 415.554 373.899 416.509 374.186 417.397C374.472 418.285 375.032 419.06 375.785 419.61C376.539 420.16 377.447 420.458 378.38 420.461H501.38C502.315 420.465 503.228 420.171 503.986 419.623C504.745 419.076 505.31 418.301 505.6 417.412C505.89 416.522 505.89 415.564 505.601 414.674C505.312 413.784 504.748 413.009 503.99 412.461Z" fill="white" stroke="black" stroke-width="1.5" stroke-linecap="round" stroke-linejoin="round"/>
<path d="M269.32 804.391H168.21C165.885 804.391 164 806.276 164 808.601V808.611C164 810.936 165.885 812.821 168.21 812.821H269.32C271.645 812.821 273.53 810.936 273.53 808.611V808.601C273.53 806.276 271.645 804.391 269.32 804.391Z" fill="#FFE1B8" stroke="black" stroke-width="1.5" stroke-linecap="round" stroke-linejoin="round"/>
<path d="M216.15 384.479C218.597 384.479 220.58 382.496 220.58 380.049C220.58 377.602 218.597 375.619 216.15 375.619C213.704 375.619 211.72 377.602 211.72 380.049C211.72 382.496 213.704 384.479 216.15 384.479Z" fill="white" stroke="black" stroke-width="1.5" stroke-linecap="round" stroke-linejoin="round"/>
<path d="M1015.68 441.428H1007.53V401.168C1007.53 400.631 1007.64 400.099 1007.84 399.603C1008.05 399.107 1008.35 398.656 1008.73 398.276C1009.11 397.896 1009.56 397.595 1010.05 397.39C1010.55 397.184 1011.08 397.078 1011.62 397.078C1012.7 397.078 1013.75 397.509 1014.51 398.276C1015.28 399.043 1015.71 400.083 1015.71 401.168V441.428H1015.68Z" fill="#82AAD3" stroke="black" stroke-width="1.5" stroke-linecap="round" stroke-linejoin="round"/>
<path d="M925.66 481.269H913.87L919.06 472.419L925.62 472.339L925.66 481.269Z" fill="#82AAD3" stroke="black" stroke-width="1.5" stroke-linecap="round" stroke-linejoin="round"/>
<path d="M1014.38 481.269H1026.13L1020.94 472.419L1014.38 472.339V481.269Z" fill="#82AAD3" stroke="black" stroke-width="1.5" stroke-linecap="round" stroke-linejoin="round"/>
<path d="M1018.75 441.328H907.72C905.665 441.328 904 442.994 904 445.048V468.928C904 470.983 905.665 472.648 907.72 472.648H1018.75C1020.8 472.648 1022.47 470.983 1022.47 468.928V445.048C1022.47 442.994 1020.8 441.328 1018.75 441.328Z" fill="#82AAD3" stroke="black" stroke-width="1.5" stroke-linecap="round" stroke-linejoin="round"/>
<path d="M914.55 441.328H1029.3C1030.29 441.328 1031.23 441.72 1031.93 442.418C1032.63 443.115 1033.02 444.061 1033.02 445.048V468.938C1033.02 469.925 1032.63 470.871 1031.93 471.569C1031.23 472.266 1030.29 472.658 1029.3 472.658H914.55V441.328Z" fill="#82AAD3" stroke="black" stroke-width="1.5" stroke-linecap="round" stroke-linejoin="round"/>
<path d="M1006.31 385.499C1006.94 384.651 1007.77 383.962 1008.71 383.487C1009.66 383.013 1010.71 382.766 1011.77 382.766C1012.82 382.766 1013.87 383.013 1014.82 383.487C1015.76 383.962 1016.59 384.651 1017.22 385.499" stroke="black" stroke-width="1.5" stroke-linecap="round" stroke-linejoin="round"/>
<path d="M997.08 379.369C998.777 377.187 1000.93 375.4 1003.38 374.131C1005.84 372.862 1008.54 372.141 1011.3 372.019C1020.53 371.779 1025.94 378.679 1026.46 379.369" stroke="black" stroke-width="1.5" stroke-linecap="round" stroke-linejoin="round"/>
<path d="M989.51 370.138C990.44 368.908 997.93 359.348 1011.05 359.008C1025.05 358.648 1033.24 369.088 1034.05 370.138" stroke="black" stroke-width="1.5" stroke-linecap="round" stroke-linejoin="round"/>
<path d="M931.5 465.068H1016.09C1020.56 465.068 1024.18 461.449 1024.18 456.983C1024.18 452.518 1020.56 448.898 1016.09 448.898H931.5C927.032 448.898 923.41 452.518 923.41 456.983C923.41 461.449 927.032 465.068 931.5 465.068Z" fill="white" stroke="black" stroke-width="1.5" stroke-linecap="round" stroke-linejoin="round"/>
<path d="M1001.7 459.368C1003.01 459.368 1004.08 458.303 1004.08 456.988C1004.08 455.674 1003.01 454.608 1001.7 454.608C1000.39 454.608 999.32 455.674 999.32 456.988C999.32 458.303 1000.39 459.368 1001.7 459.368Z" fill="white" stroke="black" stroke-width="1.5" stroke-linecap="round" stroke-linejoin="round"/>
<path d="M1010.72 459.368C1012.03 459.368 1013.1 458.303 1013.1 456.988C1013.1 455.674 1012.03 454.608 1010.72 454.608C1009.41 454.608 1008.34 455.674 1008.34 456.988C1008.34 458.303 1009.41 459.368 1010.72 459.368Z" fill="white" stroke="black" stroke-width="1.5" stroke-linecap="round" stroke-linejoin="round"/>
<path d="M936.28 459.368C937.595 459.368 938.66 458.303 938.66 456.988C938.66 455.674 937.595 454.608 936.28 454.608C934.966 454.608 933.9 455.674 933.9 456.988C933.9 458.303 934.966 459.368 936.28 459.368Z" fill="white" stroke="black" stroke-width="1.5" stroke-linecap="round" stroke-linejoin="round"/>
<path d="M945.3 459.368C946.614 459.368 947.68 458.303 947.68 456.988C947.68 455.674 946.614 454.608 945.3 454.608C943.985 454.608 942.92 455.674 942.92 456.988C942.92 458.303 943.985 459.368 945.3 459.368Z" fill="white" stroke="black" stroke-width="1.5" stroke-linecap="round" stroke-linejoin="round"/>
<path d="M954.32 459.368C955.635 459.368 956.7 458.303 956.7 456.988C956.7 455.674 955.635 454.608 954.32 454.608C953.006 454.608 951.94 455.674 951.94 456.988C951.94 458.303 953.006 459.368 954.32 459.368Z" fill="white" stroke="black" stroke-width="1.5" stroke-linecap="round" stroke-linejoin="round"/>
<path d="M678.32 343.119H555V349.249H678.32V343.119Z" stroke="#CCCCCC" stroke-width="1.5" stroke-linecap="round" stroke-linejoin="round"/>
<path d="M678.32 388.17H555V394.3H678.32V388.17Z" stroke="#CCCCCC" stroke-width="1.5" stroke-linecap="round" stroke-linejoin="round"/>
<path d="M627.331 254H574.711V342.8H627.331V254Z" stroke="#CCCCCC" stroke-width="1.5" stroke-linecap="round" stroke-linejoin="round"/>
<path d="M591.011 254H574.711V342.8H591.011V254Z" stroke="#CCCCCC" stroke-width="1.5" stroke-linecap="round" stroke-linejoin="round"/>
<path d="M663.44 271.18H610.82V342.81H663.44V271.18Z" stroke="#CCCCCC" stroke-width="1.5" stroke-linecap="round" stroke-linejoin="round"/>
<path d="M627.12 271.18H610.82V342.81H627.12V271.18Z" stroke="#CCCCCC" stroke-width="1.5" stroke-linecap="round" stroke-linejoin="round"/>
<path d="M582.06 358.419H572.1L568.53 349.229H578.48L582.06 358.419Z" stroke="#CCCCCC" stroke-width="1.5" stroke-linecap="round" stroke-linejoin="round"/>
<path d="M663.76 358.419H653.8L650.23 349.229H660.19L663.76 358.419Z" stroke="#CCCCCC" stroke-width="1.5" stroke-linecap="round" stroke-linejoin="round"/>
<path d="M582.06 403.36H572.1L568.53 394.17H578.48L582.06 403.36Z" stroke="#CCCCCC" stroke-width="1.5" stroke-linecap="round" stroke-linejoin="round"/>
<path d="M663.76 403.36H653.8L650.23 394.17H660.19L663.76 403.36Z" stroke="#CCCCCC" stroke-width="1.5" stroke-linecap="round" stroke-linejoin="round"/>
<path d="M933.72 625H976.09V665.56C976.09 671.185 973.855 676.58 969.878 680.558C965.9 684.535 960.505 686.77 954.88 686.77C952.095 686.77 949.336 686.221 946.763 685.156C944.19 684.09 941.852 682.527 939.882 680.558C937.913 678.588 936.35 676.25 935.284 673.677C934.219 671.103 933.67 668.345 933.67 665.56V625H933.72Z" fill="#82AAD3" stroke="black" stroke-width="1.5" stroke-linecap="round" stroke-linejoin="round"/>
<path d="M915.36 625C911.729 625 908.179 626.077 905.16 628.094C902.14 630.112 899.787 632.979 898.398 636.334C897.008 639.689 896.644 643.38 897.353 646.942C898.061 650.503 899.81 653.775 902.378 656.342C904.945 658.91 908.217 660.659 911.778 661.367C915.34 662.076 919.031 661.712 922.386 660.322C925.741 658.933 928.608 656.58 930.626 653.56C932.643 650.541 933.72 646.991 933.72 643.36C933.72 638.491 931.786 633.821 928.343 630.378C924.899 626.934 920.229 625 915.36 625ZM915.36 654.77C913.103 654.77 910.897 654.101 909.021 652.847C907.145 651.593 905.682 649.811 904.819 647.726C903.955 645.642 903.729 643.347 904.169 641.134C904.61 638.921 905.696 636.888 907.292 635.292C908.888 633.696 910.921 632.61 913.134 632.169C915.347 631.729 917.642 631.955 919.726 632.819C921.811 633.682 923.593 635.145 924.847 637.021C926.101 638.897 926.77 641.103 926.77 643.36C926.77 646.386 925.568 649.288 923.428 651.428C921.288 653.568 918.386 654.77 915.36 654.77Z" fill="#82AAD3" stroke="black" stroke-width="1.5" stroke-linecap="round" stroke-linejoin="round"/>
<path d="M933.71 655.64V665.56C933.71 671.185 935.945 676.58 939.922 680.557C943.9 684.535 949.295 686.77 954.92 686.77C960.539 686.762 965.925 684.523 969.895 680.546C973.864 676.569 976.093 671.179 976.09 665.56V655.64H933.71Z" fill="white" stroke="black" stroke-width="1.5" stroke-linecap="round" stroke-linejoin="round"/>
</svg>
