<svg width="1220" height="920" viewBox="0 0 1220 920" fill="none" xmlns="http://www.w3.org/2000/svg">
<path d="M928 218.81H1009.47" stroke="#CCCCCC" stroke-width="1.5" stroke-linecap="round" stroke-linejoin="round"/>
<path d="M951.61 244.789H1033.09" stroke="#CCCCCC" stroke-width="1.5" stroke-linecap="round" stroke-linejoin="round"/>
<path d="M962.24 207V255.42" stroke="#CCCCCC" stroke-width="1.5" stroke-linecap="round" stroke-linejoin="round"/>
<path d="M1005.93 207V255.42" stroke="#CCCCCC" stroke-width="1.5" stroke-linecap="round" stroke-linejoin="round"/>
<path d="M613 169.81H694.47" stroke="#CCCCCC" stroke-width="1.5" stroke-linecap="round" stroke-linejoin="round"/>
<path d="M636.61 195.789H718.09" stroke="#CCCCCC" stroke-width="1.5" stroke-linecap="round" stroke-linejoin="round"/>
<path d="M647.24 158V206.42" stroke="#CCCCCC" stroke-width="1.5" stroke-linecap="round" stroke-linejoin="round"/>
<path d="M690.931 158V206.42" stroke="#CCCCCC" stroke-width="1.5" stroke-linecap="round" stroke-linejoin="round"/>
<path d="M748.18 783.771H790.09C795.028 783.771 799.764 785.732 803.256 789.224C806.748 792.716 808.71 797.452 808.71 802.391H729.56C729.56 797.452 731.521 792.716 735.013 789.224C738.505 785.732 743.241 783.771 748.18 783.771Z" stroke="#CCCCCC" stroke-width="1.5" stroke-linecap="round" stroke-linejoin="round"/>
<path d="M783.88 247.91C783.88 245.089 783.129 242.319 781.706 239.883C780.283 237.447 778.237 235.434 775.78 234.049C773.322 232.664 770.54 231.958 767.719 232.002C764.898 232.046 762.14 232.84 759.727 234.301C757.314 235.763 755.333 237.84 753.987 240.319C752.641 242.798 751.979 245.591 752.067 248.411C752.156 251.23 752.993 253.976 754.492 256.365C755.992 258.755 758.099 260.703 760.6 262.01V783.77H775.15V262.11C777.777 260.784 779.985 258.754 781.526 256.247C783.067 253.739 783.882 250.853 783.88 247.91Z" stroke="#CCCCCC" stroke-width="1.5" stroke-linecap="round" stroke-linejoin="round"/>
<path d="M824.959 328.229V294.579C824.959 292.667 824.2 290.833 822.847 289.481C821.495 288.129 819.661 287.369 817.749 287.369C816.803 287.369 815.866 287.556 814.992 287.918C814.117 288.281 813.323 288.812 812.655 289.481C811.986 290.151 811.456 290.946 811.094 291.821C810.733 292.695 810.548 293.633 810.549 294.579V328.229L775.239 327.949V342.299L824.999 342.589V328.229H824.959Z" stroke="#CCCCCC" stroke-width="1.5" stroke-linecap="round" stroke-linejoin="round"/>
<path d="M711.16 297.001V263.341C711.16 262.394 711.346 261.457 711.709 260.583C712.071 259.709 712.603 258.915 713.272 258.246C713.942 257.577 714.737 257.047 715.612 256.686C716.486 256.325 717.424 256.139 718.37 256.141C719.316 256.139 720.254 256.325 721.128 256.686C722.003 257.047 722.798 257.577 723.468 258.246C724.137 258.915 724.668 259.709 725.031 260.583C725.393 261.457 725.58 262.394 725.58 263.341V297.001H760.58V311.361H711.13V297.001H711.16Z" stroke="#CCCCCC" stroke-width="1.5" stroke-linecap="round" stroke-linejoin="round"/>
<path d="M853.88 374.211V340.561C853.88 338.648 853.12 336.815 851.768 335.462C850.416 334.11 848.582 333.351 846.67 333.351C844.758 333.351 842.924 334.11 841.571 335.462C840.219 336.815 839.46 338.648 839.46 340.561V374.211H775.22V388.571H853.92V374.211H853.88Z" stroke="#CCCCCC" stroke-width="1.5" stroke-linecap="round" stroke-linejoin="round"/>
<path d="M682.04 343.171V309.521C682.04 307.608 682.8 305.774 684.152 304.422C685.504 303.07 687.338 302.311 689.25 302.311C691.162 302.311 692.996 303.07 694.348 304.422C695.7 305.774 696.46 307.608 696.46 309.521V343.171H760.58V357.531H682V343.171H682.04Z" stroke="#CCCCCC" stroke-width="1.5" stroke-linecap="round" stroke-linejoin="round"/>
<path d="M576.06 195H222V743.72H576.06V195Z" stroke="#CCCCCC" stroke-width="1.5" stroke-linecap="round" stroke-linejoin="round"/>
<path d="M222.51 339.59H576.57" stroke="#CCCCCC" stroke-width="1.5" stroke-linecap="round" stroke-linejoin="round"/>
<path d="M222 479.578H576.57" stroke="#CCCCCC" stroke-width="1.5" stroke-linecap="round" stroke-linejoin="round"/>
<path d="M222.51 602.198H576.57" stroke="#CCCCCC" stroke-width="1.5" stroke-linecap="round" stroke-linejoin="round"/>
<path d="M399.28 602.198V743.208" stroke="#CCCCCC" stroke-width="1.5" stroke-linecap="round" stroke-linejoin="round"/>
<path d="M370.15 307.398H427.9C433.045 307.398 437.98 309.442 441.618 313.08C445.256 316.718 447.3 321.653 447.3 326.798V339.578H350.75V326.768C350.75 321.623 352.794 316.688 356.432 313.05C360.07 309.412 365.005 307.368 370.15 307.368V307.398Z" stroke="#CCCCCC" stroke-width="1.5" stroke-linecap="round" stroke-linejoin="round"/>
<path d="M267.47 385.568H241.41V480.088H267.47V385.568Z" stroke="#CCCCCC" stroke-width="1.5" stroke-linecap="round" stroke-linejoin="round"/>
<path d="M495.34 507.63H469.28V602.15H495.34V507.63Z" stroke="#CCCCCC" stroke-width="1.5" stroke-linecap="round" stroke-linejoin="round"/>
<path d="M547.45 507.63H521.39V602.15H547.45V507.63Z" stroke="#CCCCCC" stroke-width="1.5" stroke-linecap="round" stroke-linejoin="round"/>
<path d="M521.37 532.71H495.31V602.15H521.37V532.71Z" stroke="#CCCCCC" stroke-width="1.5" stroke-linecap="round" stroke-linejoin="round"/>
<path d="M290.745 384.862L267.612 396.863L311.14 480.764L334.272 468.764L290.745 384.862Z" stroke="#CCCCCC" stroke-width="1.5" stroke-linecap="round" stroke-linejoin="round"/>
<path d="M358.41 688.03C365.744 688.03 371.69 682.084 371.69 674.75C371.69 667.415 365.744 661.47 358.41 661.47C351.076 661.47 345.13 667.415 345.13 674.75C345.13 682.084 351.076 688.03 358.41 688.03Z" stroke="#CCCCCC" stroke-width="1.5" stroke-linecap="round" stroke-linejoin="round"/>
<path d="M438.11 688.03C445.444 688.03 451.39 682.084 451.39 674.75C451.39 667.415 445.444 661.47 438.11 661.47C430.776 661.47 424.83 667.415 424.83 674.75C424.83 682.084 430.776 688.03 438.11 688.03Z" stroke="#CCCCCC" stroke-width="1.5" stroke-linecap="round" stroke-linejoin="round"/>
<path d="M222 743.21H256.74V784.85C256.74 786.896 256.337 788.922 255.554 790.812C254.771 792.702 253.623 794.42 252.177 795.867C250.73 797.313 249.012 798.461 247.122 799.244C245.232 800.027 243.206 800.43 241.16 800.43H237.58C233.448 800.43 229.485 798.789 226.563 795.867C223.641 792.945 222 788.982 222 784.85V743.21Z" stroke="#CCCCCC" stroke-width="1.5" stroke-linecap="round" stroke-linejoin="round"/>
<path d="M541.32 743.21H576.06V784.85C576.06 788.982 574.418 792.945 571.496 795.867C568.574 798.789 564.612 800.43 560.48 800.43H556.89C552.758 800.43 548.795 798.789 545.873 795.867C542.951 792.945 541.31 788.982 541.31 784.85V743.21H541.32Z" stroke="#CCCCCC" stroke-width="1.5" stroke-linecap="round" stroke-linejoin="round"/>
<path d="M345.16 563.439H297.16V576.719H345.16V563.439Z" fill="#A26852" stroke="black" stroke-width="1.5" stroke-linecap="round" stroke-linejoin="round"/>
<path d="M314.53 510.849L311.21 526.499C291.93 617.219 272.653 707.939 253.38 798.659C253.145 799.781 252.485 800.768 251.537 801.413C250.59 802.059 249.43 802.311 248.3 802.119C247.716 802.023 247.158 801.811 246.658 801.496C246.158 801.181 245.725 800.769 245.386 800.285C245.047 799.8 244.808 799.253 244.683 798.675C244.559 798.097 244.551 797.5 244.66 796.919C261.666 705.919 278.666 614.919 295.66 523.919C296.493 519.519 297.316 515.116 298.13 510.709C298.32 509.709 298.5 508.759 298.68 507.789L314.53 510.849Z" fill="#D88B6D" stroke="black" stroke-width="1.5" stroke-linecap="round" stroke-linejoin="round"/>
<path d="M313.93 513.689C313.264 517.276 312.597 520.866 311.93 524.459L295.68 523.909C296.514 519.509 297.337 515.106 298.15 510.699L313.93 513.689Z" fill="black"/>
<path d="M323.73 510.849C324.843 516.069 325.957 521.286 327.07 526.499C346.337 617.219 365.61 707.939 384.89 798.659C385.127 799.78 385.788 800.765 386.735 801.41C387.681 802.055 388.84 802.309 389.97 802.119C390.553 802.023 391.112 801.811 391.612 801.496C392.112 801.181 392.545 800.769 392.884 800.285C393.223 799.8 393.462 799.253 393.586 798.675C393.711 798.097 393.719 797.5 393.61 796.919C376.603 705.919 359.603 614.919 342.61 523.919C341.777 519.519 340.953 515.116 340.14 510.709C339.95 509.709 339.77 508.759 339.59 507.789L323.73 510.849Z" fill="#D88B6D" stroke="black" stroke-width="1.5" stroke-linecap="round" stroke-linejoin="round"/>
<path d="M324.33 513.69L326.28 524.46L342.58 523.92C341.747 519.52 340.923 515.117 340.11 510.71L324.33 513.69Z" fill="black"/>
<path d="M535.25 202H103V512.89H535.25V202Z" fill="white" stroke="black" stroke-width="1.5" stroke-linecap="round" stroke-linejoin="round"/>
<path d="M535.25 202H103V212.64H535.25V202Z" fill="#82AAD3" stroke="black" stroke-width="1.5" stroke-linecap="round" stroke-linejoin="round"/>
<path d="M154.4 397.4L196.2 315.77L237.61 445.89L279.02 356.53L321.01 355.8L364.91 311.89H406.32L446.01 351.58H487.61" stroke="black" stroke-width="1.5" stroke-linecap="round" stroke-linejoin="round"/>
<path d="M321.81 361.93C326.046 361.93 329.48 358.496 329.48 354.26C329.48 350.024 326.046 346.59 321.81 346.59C317.574 346.59 314.14 350.024 314.14 354.26C314.14 358.496 317.574 361.93 321.81 361.93Z" fill="#F25A33" stroke="black" stroke-width="1.5" stroke-linecap="round" stroke-linejoin="round"/>
<path fill-rule="evenodd" clip-rule="evenodd" d="M364.46 319.279C368.696 319.279 372.13 315.845 372.13 311.609C372.13 307.373 368.696 303.939 364.46 303.939C360.224 303.939 356.79 307.373 356.79 311.609C356.79 315.845 360.224 319.279 364.46 319.279ZM203.87 315.769C203.87 320.005 200.436 323.439 196.2 323.439C191.964 323.439 188.53 320.005 188.53 315.769C188.53 311.533 191.964 308.099 196.2 308.099C200.436 308.099 203.87 311.533 203.87 315.769ZM162.47 397.019C162.47 401.255 159.036 404.689 154.8 404.689C150.564 404.689 147.13 401.255 147.13 397.019C147.13 392.783 150.564 389.349 154.8 389.349C159.036 389.349 162.47 392.783 162.47 397.019ZM238.38 452.179C242.616 452.179 246.05 448.745 246.05 444.509C246.05 440.273 242.616 436.839 238.38 436.839C234.144 436.839 230.71 440.273 230.71 444.509C230.71 448.745 234.144 452.179 238.38 452.179ZM286.72 355.889C286.72 360.125 283.286 363.559 279.05 363.559C274.814 363.559 271.38 360.125 271.38 355.889C271.38 351.653 274.814 348.219 279.05 348.219C283.286 348.219 286.72 351.653 286.72 355.889ZM413.91 311.609C413.91 315.845 410.476 319.279 406.24 319.279C402.004 319.279 398.57 315.845 398.57 311.609C398.57 307.373 402.004 303.939 406.24 303.939C410.476 303.939 413.91 307.373 413.91 311.609ZM446.31 359.349C450.546 359.349 453.98 355.915 453.98 351.679C453.98 347.443 450.546 344.009 446.31 344.009C442.074 344.009 438.64 347.443 438.64 351.679C438.64 355.915 442.074 359.349 446.31 359.349ZM496.54 351.679C496.54 355.915 493.106 359.349 488.87 359.349C484.634 359.349 481.2 355.915 481.2 351.679C481.2 347.443 484.634 344.009 488.87 344.009C493.106 344.009 496.54 347.443 496.54 351.679Z" fill="#FFCD88"/>
<path d="M371.38 311.609C371.38 315.431 368.282 318.529 364.46 318.529V320.029C369.11 320.029 372.88 316.259 372.88 311.609H371.38ZM364.46 304.689C368.282 304.689 371.38 307.787 371.38 311.609H372.88C372.88 306.959 369.11 303.189 364.46 303.189V304.689ZM357.54 311.609C357.54 307.787 360.638 304.689 364.46 304.689V303.189C359.81 303.189 356.04 306.959 356.04 311.609H357.54ZM364.46 318.529C360.638 318.529 357.54 315.431 357.54 311.609H356.04C356.04 316.259 359.81 320.029 364.46 320.029V318.529ZM196.2 324.189C200.85 324.189 204.62 320.419 204.62 315.769H203.12C203.12 319.591 200.022 322.689 196.2 322.689V324.189ZM187.78 315.769C187.78 320.419 191.55 324.189 196.2 324.189V322.689C192.378 322.689 189.28 319.591 189.28 315.769H187.78ZM196.2 307.349C191.55 307.349 187.78 311.119 187.78 315.769H189.28C189.28 311.947 192.378 308.849 196.2 308.849V307.349ZM204.62 315.769C204.62 311.119 200.85 307.349 196.2 307.349V308.849C200.022 308.849 203.12 311.947 203.12 315.769H204.62ZM154.8 405.439C159.45 405.439 163.22 401.669 163.22 397.019H161.72C161.72 400.841 158.622 403.939 154.8 403.939V405.439ZM146.38 397.019C146.38 401.669 150.15 405.439 154.8 405.439V403.939C150.978 403.939 147.88 400.841 147.88 397.019H146.38ZM154.8 388.599C150.15 388.599 146.38 392.369 146.38 397.019H147.88C147.88 393.197 150.978 390.099 154.8 390.099V388.599ZM163.22 397.019C163.22 392.369 159.45 388.599 154.8 388.599V390.099C158.622 390.099 161.72 393.197 161.72 397.019H163.22ZM245.3 444.509C245.3 448.331 242.202 451.429 238.38 451.429V452.929C243.03 452.929 246.8 449.16 246.8 444.509H245.3ZM238.38 437.589C242.202 437.589 245.3 440.688 245.3 444.509H246.8C246.8 439.859 243.03 436.089 238.38 436.089V437.589ZM231.46 444.509C231.46 440.688 234.558 437.589 238.38 437.589V436.089C233.73 436.089 229.96 439.859 229.96 444.509H231.46ZM238.38 451.429C234.558 451.429 231.46 448.331 231.46 444.509H229.96C229.96 449.16 233.73 452.929 238.38 452.929V451.429ZM279.05 364.309C283.7 364.309 287.47 360.539 287.47 355.889H285.97C285.97 359.711 282.872 362.809 279.05 362.809V364.309ZM270.63 355.889C270.63 360.539 274.4 364.309 279.05 364.309V362.809C275.228 362.809 272.13 359.711 272.13 355.889H270.63ZM279.05 347.469C274.4 347.469 270.63 351.239 270.63 355.889H272.13C272.13 352.067 275.228 348.969 279.05 348.969V347.469ZM287.47 355.889C287.47 351.239 283.7 347.469 279.05 347.469V348.969C282.872 348.969 285.97 352.067 285.97 355.889H287.47ZM406.24 320.029C410.89 320.029 414.66 316.259 414.66 311.609H413.16C413.16 315.431 410.062 318.529 406.24 318.529V320.029ZM397.82 311.609C397.82 316.259 401.59 320.029 406.24 320.029V318.529C402.418 318.529 399.32 315.431 399.32 311.609H397.82ZM406.24 303.189C401.59 303.189 397.82 306.959 397.82 311.609H399.32C399.32 307.787 402.418 304.689 406.24 304.689V303.189ZM414.66 311.609C414.66 306.959 410.89 303.189 406.24 303.189V304.689C410.062 304.689 413.16 307.787 413.16 311.609H414.66ZM453.23 351.679C453.23 355.501 450.132 358.599 446.31 358.599V360.099C450.96 360.099 454.73 356.329 454.73 351.679H453.23ZM446.31 344.759C450.132 344.759 453.23 347.857 453.23 351.679H454.73C454.73 347.029 450.96 343.259 446.31 343.259V344.759ZM439.39 351.679C439.39 347.857 442.488 344.759 446.31 344.759V343.259C441.66 343.259 437.89 347.029 437.89 351.679H439.39ZM446.31 358.599C442.488 358.599 439.39 355.501 439.39 351.679H437.89C437.89 356.329 441.66 360.099 446.31 360.099V358.599ZM488.87 360.099C493.52 360.099 497.29 356.329 497.29 351.679H495.79C495.79 355.501 492.692 358.599 488.87 358.599V360.099ZM480.45 351.679C480.45 356.329 484.22 360.099 488.87 360.099V358.599C485.048 358.599 481.95 355.501 481.95 351.679H480.45ZM488.87 343.259C484.22 343.259 480.45 347.029 480.45 351.679H481.95C481.95 347.857 485.048 344.759 488.87 344.759V343.259ZM497.29 351.679C497.29 347.029 493.52 343.259 488.87 343.259V344.759C492.692 344.759 495.79 347.857 495.79 351.679H497.29Z" fill="black"/>
<path d="M992.33 656.1H891.9V801.68H992.33V656.1Z" fill="#FFE1B8" stroke="black" stroke-width="1.5" stroke-linecap="round" stroke-linejoin="round"/>
<path d="M965.92 656.1H865.49V801.68H965.92V656.1Z" fill="#FFE1B8" stroke="black" stroke-width="1.5" stroke-linecap="round" stroke-linejoin="round"/>
<path d="M992.12 623.779L966.69 647.189L896.69 649.189L867.4 623.899C862.73 620.042 858.97 615.2 856.389 609.72C853.808 604.239 852.47 598.257 852.47 592.199V487.489H1005.42V593.489C1005.42 599.184 1004.24 604.816 1001.95 610.03C999.66 615.244 996.313 619.926 992.12 623.779Z" fill="white" stroke="black" stroke-width="1.5" stroke-miterlimit="10" stroke-linecap="round"/>
<path d="M1003.83 458H854C847.373 458 842 463.373 842 470V477.33C842 483.957 847.373 489.33 854 489.33H1003.83C1010.46 489.33 1015.83 483.957 1015.83 477.33V470C1015.83 463.373 1010.46 458 1003.83 458Z" fill="white" stroke="black" stroke-width="1.5" stroke-miterlimit="10" stroke-linecap="round"/>
<path d="M992.12 623.78L966.69 647.19L895.69 648.33L867.39 623.9C862.72 620.042 858.959 615.2 856.378 609.72C853.797 604.24 852.459 598.257 852.46 592.2V540.2L887.23 539.36C912.156 538.633 936.804 533.906 960.23 525.36L960.55 525.24C974.918 520.165 990.219 518.278 1005.39 519.71V593.51C1005.39 599.199 1004.21 604.826 1001.93 610.036C999.644 615.246 996.304 619.926 992.12 623.78Z" fill="#82AAD3" stroke="black" stroke-width="1.5" stroke-miterlimit="10" stroke-linecap="round"/>
<path d="M1003.83 566.72H854C847.373 566.72 842 572.093 842 578.72V586.05C842 592.678 847.373 598.05 854 598.05H1003.83C1010.46 598.05 1015.83 592.678 1015.83 586.05V578.72C1015.83 572.093 1010.46 566.72 1003.83 566.72Z" fill="#82AAD3" stroke="black" stroke-width="1.5" stroke-miterlimit="10" stroke-linecap="round"/>
<path d="M969.76 656.249L890.52 656.119L893.9 646.579L967.3 646.729L969.76 656.249Z" fill="#82AAD3" stroke="black" stroke-width="1.5" stroke-miterlimit="10" stroke-linecap="round"/>
<path d="M981.11 546.079C985.302 546.079 988.7 542.681 988.7 538.489C988.7 534.298 985.302 530.899 981.11 530.899C976.918 530.899 973.52 534.298 973.52 538.489C973.52 542.681 976.918 546.079 981.11 546.079Z" fill="white" stroke="black" stroke-width="1.5" stroke-miterlimit="10" stroke-linecap="round"/>
<path d="M964.25 552.68C966.034 552.68 967.48 551.234 967.48 549.45C967.48 547.666 966.034 546.22 964.25 546.22C962.466 546.22 961.02 547.666 961.02 549.45C961.02 551.234 962.466 552.68 964.25 552.68Z" fill="white" stroke="black" stroke-width="1.5" stroke-miterlimit="10" stroke-linecap="round"/>
<path d="M865.83 754.25C875.002 755.63 883.491 759.91 890.053 766.463C896.616 773.017 900.908 781.5 902.3 790.67L903.96 801.57" stroke="black" stroke-width="1.5" stroke-linecap="round" stroke-linejoin="round"/>
<path d="M875.37 756.949C888.802 748.975 899.761 737.435 907.03 723.609C923.5 692.039 911.75 661.609 909.75 656.529" stroke="black" stroke-width="1.5" stroke-linecap="round" stroke-linejoin="round"/>
<path d="M913.49 668.8C908.601 667.435 903.414 667.583 898.61 669.223C893.807 670.863 889.613 673.92 886.58 677.99C879.58 687.68 881.58 700.59 888.28 708.63C896.17 718.08 908.15 717.88 909.73 717.82" stroke="black" stroke-width="1.5" stroke-linecap="round" stroke-linejoin="round"/>
<path d="M965.58 662.63L944.58 695.26C934.547 710.874 929.149 729.013 929.011 747.572C928.872 766.131 934.001 784.348 943.8 800.11L944.07 801.55" stroke="black" stroke-width="1.5" stroke-linecap="round" stroke-linejoin="round"/>
<path d="M943.81 436.659H1063.99C1063.99 452.596 1057.66 467.88 1046.39 479.149C1035.12 490.418 1019.84 496.749 1003.9 496.749C987.963 496.749 972.679 490.418 961.41 479.149C950.141 467.88 943.81 452.596 943.81 436.659Z" fill="#AD85AD" stroke="black" stroke-width="1.5" stroke-linecap="round" stroke-linejoin="round"/>
<path d="M1003.96 443.89C1037.26 443.89 1064.25 440.653 1064.25 436.66C1064.25 432.667 1037.26 429.43 1003.96 429.43C970.663 429.43 943.67 432.667 943.67 436.66C943.67 440.653 970.663 443.89 1003.96 443.89Z" fill="black"/>
<path d="M1000.06 438.809C1001.39 430.002 1005.56 421.108 1012 414.959C1025 402.829 1043.06 404.329 1043.38 405.529C1043.68 406.529 1032.38 409.969 1032.92 413.529C1032.92 413.829 1033.13 413.959 1033.87 414.959C1036.53 418.388 1039.8 421.294 1043.52 423.529C1038.97 421.868 1034.03 421.589 1029.32 422.729C1017.89 425.589 1013.07 436.039 1012.43 437.469L1000.06 438.809Z" fill="black"/>
<path d="M1020.98 409.87C1031.95 414.4 1041.76 421.361 1049.65 430.23C1056.88 438.51 1056.21 441.57 1066 455.42C1076 469.52 1083.6 480.03 1096.81 484.36C1100.41 485.54 1110.65 488.89 1117.18 483.55C1122.54 479.17 1122.85 471 1122.92 469.21C1123.03 465.092 1122.16 461.008 1120.39 457.29C1101.17 414.64 1067.34 406.11 1067.34 406.11C1046.18 400.79 1028.31 406.86 1020.98 409.87Z" fill="#C8B571" stroke="black" stroke-width="1.5" stroke-linecap="round" stroke-linejoin="round"/>
<path d="M999.81 433.98C996.81 430.17 978.3 407.75 952.38 408.79C922.97 409.98 904.07 440.57 897.45 458.9C895.03 465.6 893.93 487.49 891.82 530.98C890.82 551.56 890.59 560.58 884.82 571.98C875.21 591.08 858.16 600.98 854.54 603.06C833.54 614.82 817.77 610.12 800.94 626.38C797.934 629.296 795.252 632.528 792.94 636.02" stroke="black" stroke-width="1.5" stroke-linecap="round" stroke-linejoin="round"/>
<path fill-rule="evenodd" clip-rule="evenodd" d="M932.14 243.25C902.507 243.25 880.762 249.312 864.841 260.353C848.913 271.399 838.9 287.37 832.623 307.019C826.351 326.656 823.798 350.002 822.808 375.858C822.088 394.676 822.195 414.862 822.306 435.943C822.348 443.825 822.39 451.832 822.39 459.94V791.47C822.39 791.884 822.726 792.22 823.14 792.22C823.554 792.22 823.89 791.884 823.89 791.47V459.94C823.89 451.812 823.848 443.792 823.806 435.904C823.695 414.835 823.588 394.698 824.307 375.915C825.295 350.102 827.842 326.917 834.052 307.476C840.258 288.048 850.11 272.394 865.696 261.586C881.288 250.773 902.703 244.75 932.14 244.75H1004.96V331.937L943.025 436.277C942.814 436.634 942.931 437.094 943.287 437.305C943.643 437.517 944.103 437.399 944.315 437.043L1005.7 333.637L1046.85 403.879C1047.06 404.237 1047.52 404.357 1047.88 404.147C1048.24 403.938 1048.36 403.478 1048.15 403.121L1006.46 331.974V244C1006.46 243.586 1006.12 243.25 1005.71 243.25H932.14Z" fill="black"/>
<path d="M878.92 436.848C875.28 428.048 884.6 417.918 885.05 417.448C890.53 411.638 897.9 409.748 911.72 408.118C927.775 406.286 944.007 406.693 959.95 409.328C939.95 412.618 931.08 419.828 926.79 426.208C924.55 429.548 921.27 436.048 913.65 440.938C910.345 443.215 906.597 444.769 902.65 445.498C895 446.788 882.35 445.098 878.92 436.848Z" fill="#C8B571" stroke="black" stroke-width="1.5" stroke-linecap="round" stroke-linejoin="round"/>
<path d="M895.44 483.488L900.26 518.488C902.26 526.348 910.44 529.938 915.94 527.488C918.369 526.325 920.251 524.263 921.19 521.738C922.009 519.572 922.205 517.22 921.754 514.948C921.303 512.677 920.224 510.577 918.64 508.888L895.44 483.488Z" fill="#C8B571" stroke="black" stroke-width="1.5" stroke-linecap="round" stroke-linejoin="round"/>
<path d="M892.43 518.46L861.68 549.81C856.44 556.04 857.86 564.13 861.68 566.69C865.5 569.25 873.68 567.43 877.35 560.06L892.43 518.46Z" fill="#C8B571" stroke="black" stroke-width="1.5" stroke-linecap="round" stroke-linejoin="round"/>
<path d="M886.41 568.59C891.03 576.15 904.93 600.7 896.62 620C895.12 623.5 891.43 632.07 885.05 632.59C881.25 632.91 877.05 630.32 875.18 626.81C871.57 620.19 877.18 612.53 881.3 600.94C884.938 590.552 886.669 579.593 886.41 568.59Z" fill="#C8B571" stroke="black" stroke-width="1.5" stroke-linecap="round" stroke-linejoin="round"/>
<path d="M864.62 596.169C859.162 596.285 853.733 595.362 848.62 593.449C840.39 590.289 837.49 586.02 829.9 585.62C828.25 585.53 821.56 585.149 819.69 588.679C817.91 592.019 821.19 597.44 824.79 600.25C825.79 601.01 829.79 603.93 841.13 602.98C849.327 602.254 857.305 599.941 864.62 596.169Z" fill="#C8B571" stroke="black" stroke-width="1.5" stroke-linecap="round" stroke-linejoin="round"/>
<path d="M792.95 636.02C789.642 640.153 787.163 644.885 785.65 649.958C784.55 653.638 783.25 658.24 784.5 663.76C784.98 665.87 786.5 672.76 790.5 673.4C794.01 673.99 798.39 669.7 799.23 665.28C800.15 660.45 796.43 657.85 794.13 650.64C792.672 645.911 792.269 640.921 792.95 636.02Z" fill="#C8B571" stroke="black" stroke-width="1.5" stroke-linecap="round" stroke-linejoin="round"/>
<path d="M832.13 611.3C829.521 614.796 826.351 617.837 822.75 620.3C818.05 623.51 815.39 623.78 813.44 626.94C810.85 631.13 811.12 637.8 814.05 639.6C817.58 641.76 824.81 636.76 828.52 631.76C834.46 623.8 832.7 613.97 832.13 611.3Z" fill="#C8B571" stroke="black" stroke-width="1.5" stroke-linecap="round" stroke-linejoin="round"/>
<path d="M873.32 793.108H772.21C769.885 793.108 768 794.993 768 797.318V797.328C768 799.653 769.885 801.538 772.21 801.538H873.32C875.645 801.538 877.53 799.653 877.53 797.328V797.318C877.53 794.993 875.645 793.108 873.32 793.108Z" fill="#FFE1B8" stroke="black" stroke-width="1.5" stroke-linecap="round" stroke-linejoin="round"/>
<path d="M1010.6 802H259.87" stroke="black" stroke-width="1.5" stroke-linecap="round" stroke-linejoin="round"/>
<path d="M679.7 812.21H142" stroke="black" stroke-width="1.5" stroke-linecap="round" stroke-linejoin="round"/>
<path d="M723.62 812.21H692.47" stroke="black" stroke-width="1.5" stroke-linecap="round" stroke-linejoin="round"/>
<path d="M584.186 808.679C573.483 811.304 562.958 814.612 552.677 818.582C540.781 823.198 535.709 826.207 533.156 831.707C533.128 831.752 533.105 831.799 533.089 831.849C532.476 833.256 532.224 834.794 532.357 836.323C532.49 837.851 533.004 839.323 533.851 840.603C534.698 841.882 535.851 842.93 537.206 843.65C538.562 844.37 540.075 844.74 541.61 844.725L626.246 844.414C627.546 844.413 628.827 844.102 629.983 843.508C631.139 842.914 632.137 842.052 632.894 840.996C633.652 839.939 634.147 838.718 634.339 837.432C634.53 836.146 634.413 834.833 633.997 833.602L624.438 805.265L617.848 786.803L587.393 786.909L584.186 808.679Z" fill="#FFCD88" stroke="black" stroke-width="1.5" stroke-miterlimit="10" stroke-linecap="round" stroke-linejoin="round"/>
<path d="M584 807.823L566.12 795.592C565.704 795.303 565.228 795.113 564.727 795.037C564.226 794.96 563.714 795 563.231 795.153C562.748 795.305 562.307 795.567 561.941 795.917C561.575 796.267 561.294 796.697 561.12 797.172C560.964 797.596 560.896 798.047 560.92 798.497C560.945 798.948 561.06 799.389 561.261 799.793C561.461 800.197 561.742 800.556 562.085 800.849C562.429 801.141 562.829 801.36 563.26 801.492L584 807.823Z" stroke="black" stroke-width="1.5" stroke-linecap="round" stroke-linejoin="round"/>
<path d="M583.41 807.803L566.26 815.473C565.862 815.651 565.51 815.917 565.23 816.251C564.95 816.586 564.75 816.979 564.645 817.402C564.539 817.826 564.532 818.267 564.623 818.693C564.714 819.12 564.901 819.52 565.17 819.863C565.411 820.171 565.713 820.427 566.057 820.614C566.4 820.801 566.779 820.916 567.168 820.951C567.558 820.987 567.95 820.942 568.322 820.821C568.694 820.699 569.037 820.502 569.33 820.243L583.41 807.803Z" stroke="black" stroke-width="1.5" stroke-linecap="round" stroke-linejoin="round"/>
<path d="M625.673 808.528C617.634 811.235 605.223 813.923 591.215 810.747C588.824 810.206 586.47 809.516 584.166 808.679L587.352 786.91L617.808 786.804L625.673 808.528Z" fill="white" stroke="black" stroke-width="1.5" stroke-miterlimit="10" stroke-linecap="round" stroke-linejoin="round"/>
<path d="M534.381 840.572L632.679 840.214" stroke="black" stroke-width="1.5" stroke-miterlimit="10" stroke-linecap="round" stroke-linejoin="round"/>
<path d="M629.293 820.566C629.293 820.566 610.911 821.142 610.975 840.286" stroke="black" stroke-width="1.5" stroke-miterlimit="10" stroke-linecap="round" stroke-linejoin="round"/>
<path d="M710.619 756.599C705.91 766.562 701.845 776.816 698.449 787.299C694.509 799.479 693.659 805.299 696.319 810.739C696.319 810.739 696.319 810.829 696.389 810.879C697.096 812.241 698.133 813.404 699.404 814.263C700.675 815.122 702.14 815.65 703.667 815.799C705.194 815.948 706.734 815.713 708.147 815.116C709.56 814.519 710.802 813.578 711.759 812.379L764.879 746.489C765.694 745.479 766.258 744.288 766.523 743.017C766.788 741.746 766.747 740.43 766.403 739.178C766.059 737.925 765.422 736.773 764.545 735.815C763.668 734.857 762.576 734.122 761.359 733.669L733.359 723.219L714.869 716.699L695.769 740.409L710.619 756.599Z" fill="#FFCD88" stroke="black" stroke-width="1.5" stroke-miterlimit="10" stroke-linecap="round" stroke-linejoin="round"/>
<path d="M711.126 756.067L689.835 760.062C689.337 760.151 688.865 760.354 688.457 760.654C688.049 760.954 687.715 761.344 687.482 761.793C687.248 762.243 687.121 762.74 687.11 763.246C687.098 763.753 687.203 764.255 687.417 764.714C687.606 765.124 687.877 765.491 688.212 765.792C688.548 766.094 688.942 766.324 689.369 766.468C689.797 766.612 690.249 766.668 690.699 766.631C691.149 766.595 691.586 766.467 691.985 766.256L711.126 756.067Z" stroke="black" stroke-width="1.5" stroke-linecap="round" stroke-linejoin="round"/>
<path d="M736.66 724.309C733.66 732.249 727.95 743.579 716.66 752.449C714.749 753.957 712.745 755.343 710.66 756.599L695.77 740.409L714.89 716.699L736.66 724.309Z" fill="white" stroke="black" stroke-width="1.5" stroke-miterlimit="10" stroke-linecap="round" stroke-linejoin="round"/>
<path d="M710.695 756.47L703.992 774.021C703.836 774.428 703.775 774.865 703.813 775.299C703.852 775.734 703.989 776.154 704.214 776.527C704.439 776.901 704.746 777.218 705.112 777.455C705.477 777.692 705.893 777.843 706.325 777.896C706.714 777.943 707.108 777.91 707.483 777.799C707.858 777.689 708.207 777.502 708.507 777.252C708.808 777.002 709.054 776.693 709.231 776.344C709.408 775.995 709.512 775.613 709.536 775.223L710.695 756.47Z" stroke="black" stroke-width="1.5" stroke-linecap="round" stroke-linejoin="round"/>
<path d="M703.98 815.37L765.67 738.84" stroke="black" stroke-width="1.5" stroke-miterlimit="10" stroke-linecap="round" stroke-linejoin="round"/>
<path d="M748.479 729.21C748.479 729.21 733.329 738.93 748.859 759.73" stroke="black" stroke-width="1.5" stroke-miterlimit="10" stroke-linecap="round" stroke-linejoin="round"/>
<path d="M516.359 505.259C520.669 510.809 530.419 525.029 529.419 543.839C529.25 547.054 528.775 550.245 527.999 553.369C527.489 555.465 527.459 557.649 527.909 559.759C544.649 638.799 561.392 717.839 578.139 796.879C586.256 799.534 594.892 800.194 603.318 798.801C611.743 797.408 619.709 794.005 626.539 788.879C619.499 690.719 612.462 592.562 605.429 494.409L516.359 505.259Z" fill="#AD85AD" stroke="black" stroke-width="1.5" stroke-miterlimit="10" stroke-linecap="round" stroke-linejoin="round"/>
<path d="M559.44 524.09L558.18 523.09L559.44 524.09ZM590.771 499.52L596.771 499.93L640.26 489.93C641.254 507.57 642.254 525.213 643.26 542.86C644.812 545.854 645.67 549.159 645.771 552.53L647.931 626.22C675.697 655.486 703.464 684.763 731.23 714.05L691.401 756.94C667.593 738.405 644.95 718.42 623.6 697.1C615.58 689.066 607.971 681.086 600.771 673.16C591.411 662.956 585.516 650.055 583.93 636.3C580.064 602.366 576.197 568.433 572.331 534.5L559.44 524.05" fill="#AD85AD"/>
<path d="M590.771 499.52L596.771 499.93L640.26 489.93C641.254 507.57 642.254 525.213 643.26 542.86C644.812 545.854 645.67 549.159 645.771 552.53L647.931 626.22C675.697 655.486 703.464 684.763 731.23 714.05L691.401 756.94C667.593 738.405 644.95 718.42 623.6 697.1C615.58 689.066 607.971 681.086 600.771 673.16C591.411 662.956 585.516 650.055 583.93 636.3C580.064 602.366 576.197 568.433 572.331 534.5L559.44 524.05L590.771 499.52ZM559.44 524.09L558.18 523.09L559.44 524.09Z" stroke="black" stroke-width="1.5" stroke-miterlimit="10" stroke-linecap="round" stroke-linejoin="round"/>
<path d="M640.4 623.67L647.99 626.23L649.59 634.91" fill="#AD85AD"/>
<path d="M640.4 623.67L647.99 626.23L649.59 634.91" stroke="black" stroke-width="1.5" stroke-linecap="round" stroke-linejoin="round"/>
<path d="M541.84 548.101C547.507 586.814 553.807 626.304 560.74 666.571C568.62 712.191 576.954 756.614 585.74 799.841" fill="#AD85AD"/>
<path d="M541.84 548.101C547.507 586.814 553.807 626.304 560.74 666.571C568.62 712.191 576.954 756.614 585.74 799.841" stroke="black" stroke-width="1.5" stroke-miterlimit="10" stroke-linecap="round" stroke-linejoin="round"/>
<path d="M601.589 504.699C602.079 507.149 607.879 533.989 629.419 541.209C633.886 542.678 638.604 543.226 643.289 542.819" stroke="black" stroke-width="1.5" stroke-miterlimit="10" stroke-linecap="round" stroke-linejoin="round"/>
<path d="M695.889 750.479L610.019 666.079C601.112 657.325 595.941 645.463 595.589 632.979L593.079 544.869" fill="#AD85AD"/>
<path d="M695.889 750.479L610.019 666.079C601.112 657.325 595.941 645.463 595.589 632.979L593.079 544.869" stroke="black" stroke-width="1.5" stroke-miterlimit="10" stroke-linecap="round" stroke-linejoin="round"/>
<path d="M596.819 668.949L622.359 732.099L619.969 692.779L596.819 668.949Z" fill="black"/>
<path d="M380.66 349.019L338.88 296.669C338.314 295.985 337.528 295.519 336.656 295.349C335.785 295.179 334.882 295.317 334.1 295.739L333.77 295.919C333.07 296.354 332.483 296.95 332.06 297.659C331.663 298.296 331.466 299.036 331.492 299.786C331.519 300.536 331.769 301.261 332.21 301.869L345.5 319.759L321.39 305.759C320.845 305.449 320.237 305.263 319.612 305.215C318.986 305.166 318.357 305.256 317.77 305.479C316.956 305.786 316.228 306.287 315.65 306.939C315.262 307.371 314.968 307.879 314.787 308.431C314.607 308.984 314.544 309.568 314.602 310.146C314.66 310.724 314.839 311.283 315.126 311.788C315.413 312.293 315.803 312.733 316.27 313.079L334.18 324.719L305.24 317.869C304.552 317.712 303.837 317.707 303.147 317.853C302.456 318 301.805 318.295 301.24 318.719C300.371 319.377 299.734 320.294 299.42 321.339C299.245 321.922 299.197 322.535 299.28 323.139C299.412 323.95 299.791 324.702 300.365 325.291C300.94 325.879 301.682 326.277 302.49 326.429L317.93 329.739L315.4 331.739C311.12 335.159 310.02 341.009 312.91 345.019L315.07 348.019C315.647 348.764 316.491 349.257 317.425 349.391C318.358 349.525 319.307 349.291 320.07 348.739C320.887 348.23 321.472 347.421 321.698 346.486C321.924 345.551 321.774 344.564 321.28 343.739L320.36 342.379C319.821 341.515 319.615 340.484 319.781 339.479C319.946 338.474 320.472 337.564 321.26 336.919C321.661 336.542 322.133 336.251 322.649 336.061C323.164 335.871 323.713 335.788 324.262 335.815C324.811 335.842 325.348 335.979 325.843 336.219C326.338 336.458 326.779 336.795 327.14 337.209L339.69 353.409C340.266 354.291 340.494 355.355 340.331 356.396C340.168 357.437 339.625 358.38 338.807 359.044C337.989 359.708 336.954 360.045 335.902 359.99C334.85 359.936 333.855 359.493 333.11 358.749L332.98 358.579C332.32 357.81 331.39 357.326 330.382 357.227C329.374 357.129 328.367 357.423 327.57 358.049C327.145 358.332 326.78 358.698 326.496 359.124C326.213 359.55 326.016 360.027 325.919 360.53C325.821 361.032 325.824 361.548 325.927 362.049C326.03 362.55 326.232 363.026 326.52 363.449L329.37 367.209C332.08 370.789 337.3 371.599 341.58 369.069C342.35 368.619 343.06 368.219 343.7 367.879C348.21 365.459 349.77 365.389 350.89 365.579C351.926 365.821 352.894 366.292 353.724 366.956C354.554 367.621 355.226 368.462 355.69 369.419L380.66 349.019Z" fill="#F7CCB9" stroke="black" stroke-width="1.5" stroke-miterlimit="10" stroke-linecap="round" stroke-linejoin="round"/>
<path d="M337.898 335.688L334.009 330.808C330.299 326.158 323.109 325.728 318.009 329.808" fill="#F7CCB9"/>
<path d="M337.898 335.688L334.009 330.808C330.299 326.158 323.109 325.728 318.009 329.808" stroke="black" stroke-width="1.5" stroke-miterlimit="10" stroke-linecap="round" stroke-linejoin="round"/>
<path d="M346.5 328.831L334.18 324.721" stroke="black" stroke-width="1.5" stroke-miterlimit="10" stroke-linecap="round" stroke-linejoin="round"/>
<path d="M352.891 324.67L345.5 319.76" stroke="black" stroke-width="1.5" stroke-miterlimit="10" stroke-linecap="round" stroke-linejoin="round"/>
<path d="M350.84 367.611L360.06 384.531L389.67 349.291L382.01 339.461L350.84 367.611Z" fill="white" stroke="black" stroke-width="1.5" stroke-miterlimit="10" stroke-linecap="round" stroke-linejoin="round"/>
<path d="M511.279 407.159C512.136 404.082 513.609 401.21 515.609 398.719C516.419 397.722 517.313 396.795 518.279 395.949C513.786 381.636 509.289 367.329 504.789 353.029C502.497 353.838 500.295 354.884 498.219 356.149C487.219 362.919 457.709 383.149 457.709 383.149C452.159 386.969 444.119 392.219 433.859 397.929C416.859 377.579 405.149 367.009 388.139 346.659L355.329 379.659C378.699 418.349 395.529 434.929 408.509 443.979C414.439 448.119 426.949 456.839 438.509 452.909H438.629C466.999 443.069 508.069 417.809 511.279 407.159Z" fill="#AD85AD" stroke="black" stroke-width="1.5" stroke-miterlimit="10" stroke-linecap="round" stroke-linejoin="round"/>
<path d="M627.389 417.279L574.699 344.359C566.158 346.428 557.368 347.279 548.589 346.889C533.739 346.209 524.589 344.819 524.589 344.819C512.829 348.349 505.859 360.029 497.409 361.379C496.466 361.391 495.538 361.62 494.698 362.05C493.859 362.479 493.13 363.098 492.569 363.856C492.008 364.615 491.631 365.493 491.466 366.421C491.301 367.35 491.353 368.304 491.619 369.209C493.266 373.309 494.856 377.506 496.389 381.799C511.769 425.159 516.659 467.279 516.069 505.089C545.134 512.404 575.792 510.023 603.379 498.309L641.379 489.979L627.389 417.279Z" fill="white" stroke="black" stroke-width="1.5" stroke-miterlimit="10" stroke-linecap="round" stroke-linejoin="round"/>
<path d="M560.48 356.1L555.25 364.4C561.79 393.62 568.326 422.846 574.86 452.08C575.089 453.098 575.019 454.16 574.66 455.14L565.66 479.77C560.326 472.323 554.993 464.866 549.66 457.4C549.037 456.52 548.689 455.477 548.66 454.4C547.793 424.62 546.926 394.84 546.06 365.06L538.42 358.88L546.89 345.93L560.48 356.1Z" fill="black"/>
<path fill-rule="evenodd" clip-rule="evenodd" d="M573.629 354.961C575.522 350.953 575.92 345.335 575 341C562.5 343.293 549.519 346.371 549.519 346.371C549.452 347.911 551.192 349.537 554.739 351.251C557.389 353.884 559.076 357.332 559.529 361.041C559.68 362.432 559.646 363.838 559.429 365.221C559.372 365.556 559.413 365.901 559.546 366.214C559.679 366.528 559.898 366.797 560.178 366.99C560.459 367.183 560.788 367.292 561.128 367.305C561.468 367.317 561.805 367.233 562.099 367.061C565.719 364.911 570.819 361.031 573.629 354.961ZM518.129 347.021L523.539 343.801C525.971 344.756 531.937 345.294 537.453 345.791C541.645 346.17 545.577 346.524 547.5 347.021C547.25 347.191 540.539 355.581 540.709 361.521C540.791 363.618 541.486 365.645 542.709 367.351C542.873 367.576 542.964 367.846 542.973 368.125C542.981 368.404 542.905 368.678 542.755 368.913C542.605 369.148 542.388 369.333 542.132 369.443C541.876 369.553 541.593 369.584 541.319 369.531C535.172 368.451 529.533 365.43 525.229 360.911C521.63 357.022 519.173 352.215 518.129 347.021Z" fill="white"/>
<path d="M575 340.999L574.865 340.261C575.264 340.188 575.65 340.446 575.734 340.843L575 340.999ZM573.629 354.96L572.948 354.645L572.951 354.639L573.629 354.96ZM549.519 346.37L548.769 346.337C548.784 346.002 549.019 345.717 549.346 345.64L549.519 346.37ZM554.739 351.25L555.065 350.574C555.14 350.61 555.208 350.659 555.267 350.718L554.739 351.25ZM559.529 361.04L560.273 360.949L560.274 360.959L559.529 361.04ZM559.429 365.22L560.169 365.336L560.168 365.343L559.429 365.22ZM560.178 366.989L560.604 366.371L560.178 366.989ZM561.128 367.304L561.156 366.554L561.128 367.304ZM562.099 367.06L562.482 367.704L562.478 367.707L562.099 367.06ZM523.539 343.8L523.155 343.155C523.355 343.037 523.597 343.017 523.813 343.102L523.539 343.8ZM518.129 347.02L517.394 347.167C517.331 346.856 517.472 346.538 517.746 346.375L518.129 347.02ZM537.453 345.79L537.386 346.537L537.453 345.79ZM547.5 347.02L547.688 346.293C547.973 346.367 548.188 346.601 548.239 346.891C548.289 347.181 548.165 347.474 547.922 347.64L547.5 347.02ZM540.709 361.52L539.96 361.549L539.959 361.541L540.709 361.52ZM542.709 367.35L542.102 367.79L542.099 367.787L542.709 367.35ZM542.973 368.124L542.223 368.146L542.973 368.124ZM542.755 368.912L542.123 368.509L542.755 368.912ZM542.132 369.442L541.836 368.753L542.132 369.442ZM541.319 369.53L541.449 368.791L541.462 368.793L541.319 369.53ZM525.229 360.91L524.686 361.427L524.679 361.419L525.229 360.91ZM575.734 340.843C576.682 345.311 576.281 351.101 574.307 355.28L572.951 354.639C574.762 350.804 575.159 345.357 574.267 341.155L575.734 340.843ZM549.519 346.37C549.346 345.64 549.346 345.64 549.346 345.64C549.347 345.64 549.347 345.639 549.348 345.639C549.35 345.639 549.352 345.638 549.355 345.638C549.362 345.636 549.371 345.634 549.384 345.631C549.409 345.625 549.446 345.616 549.496 345.604C549.594 345.581 549.74 345.547 549.93 345.503C550.311 345.414 550.867 345.284 551.575 345.122C552.989 344.797 555.004 344.34 557.411 343.812C562.223 342.755 568.603 341.41 574.865 340.261L575.136 341.737C568.898 342.881 562.536 344.222 557.733 345.277C555.332 345.804 553.321 346.26 551.91 346.584C551.205 346.746 550.65 346.875 550.272 346.963C550.082 347.007 549.937 347.042 549.839 347.065C549.79 347.076 549.753 347.085 549.729 347.091C549.716 347.094 549.707 347.096 549.701 347.097C549.698 347.098 549.695 347.098 549.694 347.099C549.693 347.099 549.693 347.099 549.692 347.099C549.692 347.099 549.692 347.099 549.519 346.37ZM554.412 351.925C552.609 351.054 551.211 350.18 550.261 349.292C549.319 348.411 548.722 347.422 548.769 346.337L550.268 346.402C550.248 346.857 550.489 347.451 551.286 348.197C552.076 348.936 553.321 349.732 555.065 350.574L554.412 351.925ZM558.784 361.13C558.352 357.589 556.741 354.296 554.21 351.782L555.267 350.718C558.037 353.469 559.8 357.073 560.273 360.949L558.784 361.13ZM558.688 365.103C558.895 363.786 558.927 362.446 558.783 361.121L560.274 360.959C560.433 362.416 560.397 363.888 560.169 365.336L558.688 365.103ZM558.855 366.506C558.667 366.061 558.609 365.572 558.689 365.096L560.168 365.343C560.136 365.538 560.159 365.739 560.237 365.921L558.855 366.506ZM559.753 367.606C559.355 367.332 559.044 366.951 558.855 366.506L560.237 365.921C560.314 366.103 560.441 366.259 560.604 366.371L559.753 367.606ZM561.101 368.053C560.618 368.035 560.15 367.88 559.753 367.606L560.604 366.371C560.767 366.483 560.958 366.547 561.156 366.554L561.101 368.053ZM562.478 367.707C562.061 367.951 561.583 368.071 561.101 368.053L561.156 366.554C561.354 366.562 561.549 366.512 561.72 366.412L562.478 367.707ZM574.309 355.275C571.408 361.542 566.161 365.519 562.482 367.704L561.716 366.415C565.277 364.3 570.229 360.517 572.948 354.645L574.309 355.275ZM523.923 344.444L518.513 347.664L517.746 346.375L523.155 343.155L523.923 344.444ZM537.386 346.537C534.631 346.289 531.746 346.029 529.245 345.711C526.769 345.396 524.58 345.014 523.265 344.498L523.813 343.102C524.93 343.54 526.939 343.905 529.434 344.223C531.903 344.537 534.759 344.794 537.521 345.044L537.386 346.537ZM547.312 347.746C545.466 347.269 541.617 346.919 537.386 346.537L537.521 345.044C541.674 345.418 545.689 345.777 547.688 346.293L547.312 347.746ZM539.959 361.541C539.868 358.34 541.608 354.595 543.301 351.725C544.16 350.269 545.031 348.998 545.704 348.079C546.041 347.619 546.33 347.245 546.545 346.978C546.652 346.844 546.744 346.735 546.815 346.653C546.85 346.613 546.884 346.575 546.915 346.542C546.925 346.532 546.993 346.458 547.078 346.399L547.922 347.64C547.991 347.592 548.031 347.545 548.001 347.576C547.992 347.586 547.974 347.606 547.947 347.638C547.892 347.7 547.814 347.794 547.714 347.918C547.515 348.166 547.24 348.521 546.915 348.965C546.265 349.852 545.422 351.082 544.593 352.487C542.91 355.34 541.38 358.76 541.459 361.498L539.959 361.541ZM542.099 367.787C540.791 365.962 540.047 363.793 539.96 361.549L541.458 361.491C541.534 363.441 542.181 365.326 543.318 366.913L542.099 367.787ZM542.223 368.146C542.219 368.018 542.177 367.894 542.102 367.79L543.316 366.91C543.568 367.257 543.71 367.673 543.722 368.102L542.223 368.146ZM542.123 368.509C542.192 368.401 542.227 368.275 542.223 368.146L543.722 368.102C543.735 368.531 543.619 368.954 543.388 369.316L542.123 368.509ZM541.836 368.753C541.954 368.702 542.054 368.617 542.123 368.509L543.388 369.316C543.157 369.678 542.822 369.962 542.428 370.131L541.836 368.753ZM541.462 368.793C541.588 368.818 541.718 368.804 541.836 368.753L542.428 370.131C542.034 370.301 541.598 370.348 541.177 370.266L541.462 368.793ZM525.772 360.392C529.966 364.795 535.46 367.739 541.449 368.791L541.189 370.268C534.885 369.161 529.101 366.062 524.686 361.427L525.772 360.392ZM518.864 346.872C519.882 351.931 522.274 356.613 525.779 360.4L524.679 361.419C520.986 357.429 518.465 352.498 517.394 347.167L518.864 346.872Z" fill="black"/>
<path d="M577.419 418.229C577.305 427.869 577.192 437.512 577.079 447.159C578.219 452.046 579.362 456.936 580.509 461.829C584.415 471.425 588.811 480.814 593.679 489.959C605.409 511.959 611.279 523.019 622.149 529.189C626.249 531.519 641.039 538.909 666.299 530.629C655.456 505.803 646.106 480.351 638.299 454.409C635.799 446.069 633.509 437.872 631.429 429.819L619.239 390.649L613.449 368.869L606.309 347.079L586.219 343.329L577.419 418.229Z" fill="#AD85AD" stroke="black" stroke-width="1.5" stroke-miterlimit="10" stroke-linecap="round" stroke-linejoin="round"/>
<path d="M643.97 472.01L649.08 485.29L616.08 498.23L611.24 485.8L643.97 472.01Z" fill="#826482" stroke="black" stroke-width="1.5" stroke-miterlimit="10" stroke-linecap="round" stroke-linejoin="round"/>
<path d="M765.539 478.4L760.399 470.5L732.019 486.57L736.019 503.79L744.879 513.3L765.539 478.4Z" fill="#F7CCB9" stroke="black" stroke-width="1.5" stroke-miterlimit="10" stroke-linecap="round" stroke-linejoin="round"/>
<path d="M737.71 506.239C731.817 501.653 725.92 497.069 720.02 492.489L739.69 464.879C740.402 465.477 741.245 465.899 742.15 466.109C744.009 466.45 745.928 466.094 747.54 465.109C750.302 463.409 753.353 462.229 756.54 461.629H756.66C758.788 461.228 760.976 461.263 763.09 461.733C765.204 462.202 767.201 463.096 768.96 464.359L779.77 472.159C782.04 473.809 782.35 477.249 780.47 479.849C778.58 482.449 775.21 483.229 772.94 481.579L768.88 478.629C767.136 477.412 765.12 476.642 763.008 476.386C760.897 476.129 758.755 476.395 756.77 477.159C756.59 477.219 756.42 477.279 756.26 477.349" fill="#F7CCB9"/>
<path d="M737.71 506.239C731.817 501.653 725.92 497.069 720.02 492.489L739.69 464.879C740.402 465.477 741.245 465.899 742.15 466.109C744.009 466.45 745.928 466.094 747.54 465.109C750.302 463.409 753.353 462.229 756.54 461.629H756.66C758.788 461.228 760.976 461.263 763.09 461.733C765.204 462.202 767.201 463.096 768.96 464.359L779.77 472.159C782.04 473.809 782.35 477.249 780.47 479.849C778.58 482.449 775.21 483.229 772.94 481.579L768.88 478.629C767.136 477.412 765.12 476.642 763.008 476.386C760.897 476.129 758.755 476.395 756.77 477.159C756.59 477.219 756.42 477.279 756.26 477.349" stroke="black" stroke-width="1.5" stroke-miterlimit="10" stroke-linecap="round" stroke-linejoin="round"/>
<path d="M737.71 506.24C747.44 519.48 751.79 524.58 761.52 537.83C761.975 538.426 762.628 538.84 763.361 538.998C764.094 539.155 764.86 539.046 765.52 538.69C765.634 538.638 765.744 538.578 765.85 538.51C766.17 538.317 766.466 538.085 766.73 537.82C767.244 537.305 767.581 536.64 767.693 535.921C767.804 535.202 767.684 534.466 767.35 533.82C762.17 524.75 757.35 517.08 752.2 508C758.68 515.53 766.78 525.95 773.2 533.48C773.887 534.187 774.804 534.624 775.786 534.712C776.767 534.8 777.748 534.533 778.55 533.96H778.62C780.9 532.52 781.62 529.58 780.15 527.73C767.21 511.41 759.45 501.49 759.74 501.25C760.03 501.01 768.45 510.52 782.12 526.52C783.59 528.25 786.37 528.29 788.36 526.63L788.43 526.57C790.43 524.88 790.89 522.08 789.43 520.31C782.65 512.14 774.16 501.99 767.38 493.82C774.77 501.7 783.88 511.55 791.27 519.43C792.117 520.224 793.234 520.665 794.395 520.665C795.556 520.665 796.673 520.224 797.52 519.43L797.59 519.37C798.448 518.249 798.94 516.89 799 515.48C799.013 514.159 798.502 512.886 797.58 511.94C786.72 500.413 775.856 488.88 764.99 477.34" fill="#F7CCB9"/>
<path d="M737.71 506.24C747.44 519.48 751.79 524.58 761.52 537.83C761.975 538.426 762.628 538.84 763.361 538.998C764.094 539.155 764.86 539.046 765.52 538.69C765.634 538.638 765.744 538.578 765.85 538.51C766.17 538.317 766.466 538.085 766.73 537.82C767.244 537.305 767.581 536.64 767.693 535.921C767.804 535.202 767.684 534.466 767.35 533.82C762.17 524.75 757.35 517.08 752.2 508C758.68 515.53 766.78 525.95 773.2 533.48C773.887 534.187 774.804 534.624 775.786 534.712C776.767 534.8 777.748 534.533 778.55 533.96H778.62C780.9 532.52 781.62 529.58 780.15 527.73C767.21 511.41 759.45 501.49 759.74 501.25C760.03 501.01 768.45 510.52 782.12 526.52C783.59 528.25 786.37 528.29 788.36 526.63L788.43 526.57C790.43 524.88 790.89 522.08 789.43 520.31C782.65 512.14 774.16 501.99 767.38 493.82C774.77 501.7 783.88 511.55 791.27 519.43C792.117 520.224 793.234 520.665 794.395 520.665C795.556 520.665 796.673 520.224 797.52 519.43L797.59 519.37C798.448 518.249 798.94 516.89 799 515.48C799.013 514.159 798.502 512.886 797.58 511.94C786.72 500.413 775.856 488.88 764.99 477.34" stroke="black" stroke-width="1.5" stroke-miterlimit="10" stroke-linecap="round" stroke-linejoin="round"/>
<path d="M771.25 490C764.8 496.17 757.96 502.22 751.52 508.39L771.25 490Z" fill="#F7CCB9"/>
<path d="M771.25 490C764.8 496.17 757.96 502.22 751.52 508.39" stroke="black" stroke-width="1.5" stroke-miterlimit="10" stroke-linecap="round" stroke-linejoin="round"/>
<path d="M706.27 485.761L720.06 498.011L749.67 462.781L739.46 454.101L706.27 485.761Z" fill="white" stroke="black" stroke-width="1.5" stroke-miterlimit="10" stroke-linecap="round" stroke-linejoin="round"/>
<path d="M604.849 391.459L645.769 430.879C664.769 449.249 691.579 475.619 710.619 494.009L746.619 454.649L705.259 421.459C690.429 402.801 672.708 386.637 652.769 373.579C644.062 356.905 629.201 344.279 611.339 338.379C604.362 336.053 596.873 335.724 589.719 337.429C582.769 339.089 576.839 339.959 572.779 341.429" fill="#AD85AD"/>
<path d="M604.849 391.459L645.769 430.879C664.769 449.249 691.579 475.619 710.619 494.009L746.619 454.649L705.259 421.459C690.429 402.801 672.708 386.637 652.769 373.579C644.062 356.905 629.201 344.279 611.339 338.379C604.362 336.053 596.873 335.724 589.719 337.429C582.769 339.089 576.839 339.959 572.779 341.429" stroke="black" stroke-width="1.5" stroke-linecap="round" stroke-linejoin="round"/>
<path d="M651.06 370.479L655.83 380.099L651.06 370.479Z" fill="white"/>
<path d="M651.06 370.479L655.83 380.099" stroke="black" stroke-width="1.5" stroke-linecap="round" stroke-linejoin="round"/>
<path d="M704.289 420.159L709.059 429.779L704.289 420.159Z" fill="white"/>
<path d="M704.289 420.159L709.059 429.779" stroke="black" stroke-width="1.5" stroke-linecap="round" stroke-linejoin="round"/>
<path d="M486.179 363.42C495.605 352.35 508.998 345.42 523.479 344.12C522.699 368.937 526.097 393.709 533.529 417.4C536.899 428.083 541.088 438.491 546.059 448.53L546.329 458.81C546.759 466.16 547.189 476.81 546.929 489.68C546.429 514.4 546.179 526.76 540.839 536.51C538.839 540.18 531.219 552.51 511.079 554.29C510.079 529.2 507.929 502.17 504.149 473.5C503.009 464.88 501.772 456.46 500.439 448.24L492.439 400.38" fill="#AD85AD"/>
<path d="M486.179 363.42C495.605 352.35 508.998 345.42 523.479 344.12C522.699 368.937 526.097 393.709 533.529 417.4C536.899 428.083 541.088 438.491 546.059 448.53L546.329 458.81C546.759 466.16 547.189 476.81 546.929 489.68C546.429 514.4 546.179 526.76 540.839 536.51C538.839 540.18 531.219 552.51 511.079 554.29C510.079 529.2 507.929 502.17 504.149 473.5C503.009 464.88 501.772 456.46 500.439 448.24L492.439 400.38" stroke="black" stroke-width="1.5" stroke-miterlimit="10" stroke-linecap="round" stroke-linejoin="round"/>
<path fill-rule="evenodd" clip-rule="evenodd" d="M577.639 342.751C575.939 342.361 574.309 341.921 572.769 341.461C573.702 354.721 574.456 368.204 575.029 381.911C576.042 404.598 576.656 426.698 576.869 448.211C579.428 427.915 583.1 407.774 587.869 387.881C590.349 377.594 592.989 367.754 595.789 358.361L585.599 355.111L589.829 344.651C585.724 344.32 581.65 343.685 577.639 342.751ZM519.09 346.62C520.64 345.82 522.099 344.99 523.479 344.16C525.906 357.193 528.536 370.443 531.37 383.91C536.03 406.137 540.94 427.69 546.1 448.57C538.574 429.549 530.011 410.954 520.449 392.87C515.519 383.52 510.449 374.65 505.449 366.25L514.449 360.57L507.75 351.49C511.646 350.152 515.436 348.524 519.09 346.62Z" fill="#826482"/>
<path d="M572.769 341.461L572.021 341.514C572.004 341.268 572.108 341.03 572.3 340.876C572.492 340.722 572.748 340.672 572.984 340.742L572.769 341.461ZM577.639 342.751L577.807 342.02H577.809L577.639 342.751ZM575.029 381.911L574.28 381.944V381.942L575.029 381.911ZM576.869 448.211L577.613 448.305C577.564 448.696 577.22 448.982 576.826 448.96C576.432 448.937 576.123 448.613 576.119 448.218L576.869 448.211ZM587.869 387.881L587.14 387.706V387.705L587.869 387.881ZM595.789 358.361L596.017 357.646C596.406 357.771 596.625 358.184 596.508 358.575L595.789 358.361ZM585.599 355.111L585.371 355.825C585.172 355.762 585.009 355.619 584.92 355.43C584.831 355.241 584.826 355.023 584.904 354.83L585.599 355.111ZM589.829 344.651L589.889 343.903C590.127 343.923 590.342 344.054 590.467 344.257C590.593 344.46 590.614 344.711 590.524 344.932L589.829 344.651ZM523.479 344.16L523.093 343.517C523.304 343.391 523.563 343.375 523.787 343.476C524.011 343.577 524.172 343.781 524.217 344.023L523.479 344.16ZM519.09 346.62L518.743 345.955L518.746 345.954L519.09 346.62ZM531.37 383.91L532.104 383.756L531.37 383.91ZM546.1 448.57L546.828 448.39C546.922 448.773 546.704 449.164 546.328 449.285C545.952 449.405 545.547 449.213 545.402 448.846L546.1 448.57ZM520.449 392.87L519.786 393.221V393.22L520.449 392.87ZM505.449 366.25L504.805 366.634C504.597 366.284 504.705 365.833 505.049 365.616L505.449 366.25ZM514.449 360.57L515.053 360.125C515.177 360.293 515.225 360.504 515.187 360.709C515.148 360.914 515.026 361.093 514.85 361.204L514.449 360.57ZM507.75 351.49L507.146 351.935C507.004 351.743 506.962 351.495 507.033 351.267C507.105 351.039 507.28 350.858 507.506 350.781L507.75 351.49ZM572.984 340.742C574.51 341.198 576.125 341.634 577.807 342.02L577.471 343.482C575.754 343.088 574.108 342.644 572.554 342.18L572.984 340.742ZM574.28 381.942C573.707 368.242 572.954 354.766 572.021 341.514L573.517 341.408C574.451 354.676 575.205 368.166 575.778 381.88L574.28 381.942ZM576.119 448.218C575.906 426.714 575.293 404.623 574.28 381.944L575.778 381.877C576.792 404.572 577.406 426.681 577.619 448.203L576.119 448.218ZM588.598 388.056C583.836 407.922 580.168 428.036 577.613 448.305L576.125 448.117C578.687 427.793 582.364 407.626 587.14 387.706L588.598 388.056ZM596.508 358.575C593.712 367.955 591.075 377.782 588.598 388.057L587.14 387.705C589.623 377.407 592.266 367.554 595.07 358.147L596.508 358.575ZM585.827 354.396L596.017 357.646L595.561 359.075L585.371 355.825L585.827 354.396ZM590.524 344.932L586.294 355.392L584.904 354.83L589.134 344.37L590.524 344.932ZM577.809 342.02C581.784 342.946 585.822 343.575 589.889 343.903L589.769 345.399C585.627 345.064 581.516 344.423 577.469 343.481L577.809 342.02ZM523.866 344.803C522.475 345.639 521.001 346.478 519.434 347.287L518.746 345.954C520.278 345.163 521.724 344.341 523.093 343.517L523.866 344.803ZM530.636 384.065C527.801 370.592 525.17 357.337 522.742 344.297L524.217 344.023C526.642 357.05 529.271 370.295 532.104 383.756L530.636 384.065ZM545.372 448.75C540.209 427.861 535.297 406.299 530.636 384.064L532.104 383.756C536.762 405.975 541.67 427.519 546.828 448.39L545.372 448.75ZM521.112 392.52C530.687 410.628 539.261 429.247 546.797 448.294L545.402 448.846C537.887 429.85 529.335 411.28 519.786 393.221L521.112 392.52ZM506.094 365.867C511.099 374.274 516.175 383.156 521.113 392.52L519.786 393.22C514.864 383.884 509.8 375.026 504.805 366.634L506.094 365.867ZM514.85 361.204L505.85 366.884L505.049 365.616L514.049 359.936L514.85 361.204ZM508.353 351.045L515.053 360.125L513.846 361.015L507.146 351.935L508.353 351.045ZM519.436 347.285C515.75 349.206 511.925 350.849 507.993 352.199L507.506 350.781C511.367 349.455 515.123 347.842 518.743 345.955L519.436 347.285Z" fill="black"/>
<path d="M608.229 394.399C608.229 394.569 608.309 394.739 608.359 394.909C611.989 409.279 619.72 424.619 634.27 439.839C631.376 430.306 628.483 420.776 625.589 411.249L608.229 394.399Z" fill="black"/>
<path d="M433.86 397.92L438.77 403.05" stroke="black" stroke-width="1.5" stroke-miterlimit="10" stroke-linecap="round" stroke-linejoin="round"/>
<path d="M530.086 321.486C527.206 330.376 525.146 335.556 522.276 344.486C530.039 350.058 539.517 352.717 549.046 351.996C556.694 351.308 563.983 348.438 570.046 343.726L562.696 313.916C562.063 311.328 562.259 308.606 563.256 306.136L572.586 283.136" fill="#F7CCB9"/>
<path d="M530.086 321.486C527.206 330.376 525.146 335.556 522.276 344.486C530.039 350.058 539.517 352.717 549.046 351.996C556.694 351.308 563.983 348.438 570.046 343.726L562.696 313.916C562.063 311.328 562.259 308.606 563.256 306.136L572.586 283.136" stroke="black" stroke-width="1.5" stroke-miterlimit="10"/>
<path d="M508.506 267.116C508.506 268.586 508.506 270.166 508.586 271.576C508.876 277.686 509.586 279.826 509.956 283.576C510.476 289.346 509.126 289.016 508.956 298.386C508.846 303.766 508.786 306.456 509.716 309.386C510.066 310.466 512.046 316.956 517.336 320.056C522.626 323.156 529.256 321.946 540.336 319.056C546.794 317.385 553.089 315.14 559.146 312.346L573.016 280.516L552.586 251.516C537.536 242.176 521.016 243.356 513.396 252.006C509.146 256.766 508.446 263.036 508.506 267.116Z" fill="#F7CCB9"/>
<path d="M508.526 264.835L531.146 261.745L534.207 258.285C534.637 259.385 535.056 260.495 535.486 261.605L547.086 263.115C548.506 270.275 549.92 277.428 551.326 284.575L556.156 275.645L566.896 284.575L572.606 283.045C573.428 280.048 573.885 276.962 573.966 273.855C574.056 270.265 574.246 262.925 570.286 256.665C564.226 247.075 552.136 245.805 550.286 245.665C546.73 245.272 543.154 245.078 539.576 245.085C527.976 245.085 519.316 245.145 513.786 250.675C512.236 252.205 508.786 256.205 508.526 264.835Z" fill="black" stroke="black" stroke-width="1.5" stroke-linecap="round" stroke-linejoin="round"/>
<path d="M524.086 293.506H522.426C521.8 293.507 521.185 293.337 520.649 293.013C520.114 292.689 519.677 292.224 519.387 291.669C519.097 291.114 518.965 290.49 519.006 289.866C519.046 289.241 519.257 288.639 519.616 288.126L524.086 281.756" stroke="black" stroke-width="1.5" stroke-linecap="round" stroke-linejoin="round"/>
<path d="M518.536 297.354C519.025 298.405 519.831 299.277 520.841 299.845C521.851 300.414 523.014 300.651 524.166 300.524C524.987 300.371 525.763 300.038 526.439 299.549C527.115 299.059 527.674 298.426 528.076 297.694L518.536 297.354Z" fill="black"/>
<path d="M536.166 286.744C535.388 286.744 534.756 285.54 534.756 284.054C534.756 282.569 535.388 281.364 536.166 281.364C536.945 281.364 537.576 282.569 537.576 284.054C537.576 285.54 536.945 286.744 536.166 286.744Z" fill="black"/>
<path d="M513.637 286.744C512.858 286.744 512.227 285.54 512.227 284.054C512.227 282.569 512.858 281.364 513.637 281.364C514.416 281.364 515.047 282.569 515.047 284.054C515.047 285.54 514.416 286.744 513.637 286.744Z" fill="black"/>
<path d="M556.146 275.645L557.986 275.585C560.066 275.519 562.091 276.266 563.63 277.668C565.168 279.071 566.099 281.017 566.226 283.095C566.327 284.895 565.817 286.676 564.779 288.15C563.74 289.624 562.235 290.704 560.506 291.215" fill="#F7CCB9"/>
<path d="M556.146 275.645L557.986 275.585C560.066 275.519 562.091 276.266 563.63 277.668C565.168 279.071 566.099 281.017 566.226 283.095C566.327 284.895 565.817 286.676 564.779 288.15C563.74 289.624 562.235 290.704 560.506 291.215" stroke="black" stroke-width="1.5" stroke-miterlimit="10"/>
<path fill-rule="evenodd" clip-rule="evenodd" d="M541.166 279.405C540.39 278.033 539.143 276.988 537.656 276.465L541.166 279.405ZM509.615 279.405C510.391 278.033 511.638 276.988 513.125 276.465L509.615 279.405Z" fill="white"/>
<path fill-rule="evenodd" clip-rule="evenodd" d="M537.004 276.093C536.825 276.408 536.896 276.806 537.174 277.039L540.684 279.979C540.962 280.212 541.367 280.212 541.646 279.98C541.924 279.748 541.997 279.35 541.819 279.035C540.953 277.505 539.563 276.34 537.905 275.756C537.563 275.636 537.184 275.778 537.004 276.093ZM513.777 276.093C513.597 275.778 513.218 275.636 512.876 275.756C511.218 276.34 509.828 277.505 508.962 279.035C508.784 279.35 508.856 279.748 509.135 279.98C509.414 280.212 509.819 280.212 510.097 279.979L513.607 277.039C513.885 276.806 513.956 276.408 513.777 276.093Z" fill="black"/>
<path d="M538.666 245.205H532.826C530.826 245.085 518.256 244.515 512.016 252.935C509.476 256.365 508.836 260.105 508.346 262.985C506.826 271.935 510.546 277.515 509.626 287.625C509.206 292.275 508.856 294.695 508.136 301.395C507.924 303.135 507.958 304.895 508.236 306.625C508.296 306.985 508.376 307.355 508.456 307.715C510.966 318.355 522.316 324.375 532.746 321.125L541.746 318.335" stroke="black" stroke-width="1.5" stroke-linecap="round" stroke-linejoin="round"/>
<path opacity="0.17" fill-rule="evenodd" clip-rule="evenodd" d="M528.212 282.999C528.212 288.858 532.962 293.609 538.822 293.609C544.681 293.609 549.432 288.858 549.432 282.999C549.432 277.139 544.681 272.389 538.822 272.389C532.962 272.389 528.212 277.139 528.212 282.999ZM497.78 282.999C497.78 288.858 502.53 293.609 508.39 293.609C514.25 293.609 519 288.858 519 282.999C519 277.139 514.25 272.389 508.39 272.389C502.53 272.389 497.78 277.139 497.78 282.999Z" fill="white"/>
<path d="M508.8 293.609C502.94 293.609 498.19 288.858 498.19 282.999C498.19 277.139 502.94 272.389 508.8 272.389C514.66 272.389 519.41 277.139 519.41 282.999C519.41 288.858 514.66 293.609 508.8 293.609Z" stroke="black" stroke-width="1.5" stroke-linecap="round" stroke-linejoin="round"/>
<path d="M538.822 293.609C532.962 293.609 528.212 288.858 528.212 282.999C528.212 277.139 532.962 272.389 538.822 272.389C544.681 272.389 549.432 277.139 549.432 282.999C549.432 288.858 544.681 293.609 538.822 293.609Z" stroke="black" stroke-width="1.5" stroke-linecap="round" stroke-linejoin="round"/>
<path d="M519.74 281.358H528.23" stroke="black" stroke-width="1.5" stroke-linecap="round" stroke-linejoin="round"/>
</svg>
