<svg width="1220" height="920" viewBox="0 0 1220 920" fill="none" xmlns="http://www.w3.org/2000/svg">
<path d="M842.22 803.45H760.53L750 675H851.46L842.22 803.45Z" stroke="#CCCCCC" stroke-width="1.5" stroke-linecap="round" stroke-linejoin="round"/>
<path d="M826.119 687.68H777.489C775.722 687.68 774.289 689.112 774.289 690.88V691.36C774.289 693.127 775.722 694.56 777.489 694.56H826.119C827.886 694.56 829.319 693.127 829.319 691.36V690.88C829.319 689.112 827.886 687.68 826.119 687.68Z" stroke="#CCCCCC" stroke-width="1.5" stroke-linecap="round" stroke-linejoin="round"/>
<path d="M1026.83 601H1005.12V740.95H1026.83V601Z" stroke="#CCCCCC" stroke-width="1.5" stroke-linecap="round" stroke-linejoin="round"/>
<path d="M1054.89 623.891H1026.72V740.941H1054.89V623.891Z" stroke="#CCCCCC" stroke-width="1.5" stroke-linecap="round" stroke-linejoin="round"/>
<path d="M1005.12 625.789H1026.76" stroke="#CCCCCC" stroke-width="1.5" stroke-linecap="round" stroke-linejoin="round"/>
<path d="M1005.12 633.811H1026.76" stroke="#CCCCCC" stroke-width="1.5" stroke-linecap="round" stroke-linejoin="round"/>
<path d="M1054.97 632.601H1067.78V801.891H992V632.601H1005.27" stroke="#CCCCCC" stroke-width="1.5" stroke-linecap="round" stroke-linejoin="round"/>
<path d="M1031.34 782.22C1037.75 782.22 1042.95 777.022 1042.95 770.61C1042.95 764.198 1037.75 759 1031.34 759C1024.93 759 1019.73 764.198 1019.73 770.61C1019.73 777.022 1024.93 782.22 1031.34 782.22Z" stroke="#CCCCCC" stroke-width="1.5" stroke-linecap="round" stroke-linejoin="round"/>
<path d="M1056.22 124H805V419.15H1056.22V124Z" stroke="#CCCCCC" stroke-width="1.5" stroke-linecap="round" stroke-linejoin="round"/>
<path d="M997.24 193.3H863.99V349.85H997.24V193.3Z" stroke="#CCCCCC" stroke-width="1.5" stroke-linecap="round" stroke-linejoin="round"/>
<path d="M970.519 216.188H890.699V221.138H970.519V216.188Z" stroke="#CCCCCC" stroke-width="1.5" stroke-linecap="round" stroke-linejoin="round"/>
<path d="M970.519 237.229H890.699V242.179H970.519V237.229Z" stroke="#CCCCCC" stroke-width="1.5" stroke-linecap="round" stroke-linejoin="round"/>
<path d="M563.756 460.62H579.17" stroke="#CCCCCC" stroke-width="1.5" stroke-linecap="round" stroke-linejoin="round"/>
<path d="M633.513 394.78V340.009C633.513 336.294 632.038 332.73 629.41 330.103C626.783 327.476 623.22 326 619.504 326H454.896C451.181 326 447.618 327.476 444.99 330.103C442.363 332.73 440.887 336.294 440.887 340.009V446.612C440.892 450.324 442.37 453.883 444.997 456.506C447.624 459.129 451.184 460.603 454.896 460.603H525.534" stroke="#CCCCCC" stroke-width="1.5" stroke-linecap="round" stroke-linejoin="round"/>
<path d="M566.424 479.454L558.126 417.938H519.822L528.093 479.26" stroke="#CCCCCC" stroke-width="1.5" stroke-linecap="round" stroke-linejoin="round"/>
<path d="M497.193 488.89H574.206C576.513 488.89 578.383 487.02 578.383 484.713V484.066C578.383 481.759 576.513 479.889 574.206 479.889H497.193C494.886 479.889 493.016 481.759 493.016 484.066V484.713C493.016 487.02 494.886 488.89 497.193 488.89Z" stroke="#CCCCCC" stroke-width="1.5" stroke-linecap="round" stroke-linejoin="round"/>
<path d="M729.545 508.1H915.001V489.027H729.86" stroke="#CCCCCC" stroke-width="1.5" stroke-linecap="round" stroke-linejoin="round"/>
<path d="M578.226 489.027H296V508.1H577.912" stroke="#CCCCCC" stroke-width="1.5" stroke-linecap="round" stroke-linejoin="round"/>
<path d="M695.862 394.069L613.073 394.947C604.335 395.041 595.976 398.532 589.767 404.681C583.558 410.83 579.985 419.154 579.806 427.891L577.727 529.282C577.396 545.391 570.85 560.749 559.457 572.144C548.065 583.538 532.708 590.086 516.598 590.419L511.127 590.53C506.934 590.612 502.94 592.336 500.003 595.33C497.066 598.324 495.42 602.35 495.418 606.545C495.418 608.648 495.832 610.73 496.637 612.673C497.442 614.616 498.621 616.382 500.108 617.869C501.596 619.356 503.361 620.535 505.304 621.34C507.247 622.145 509.329 622.559 511.432 622.559H695.289C699.833 622.562 704.332 621.668 708.531 619.93C712.729 618.192 716.543 615.644 719.756 612.431C722.968 609.217 725.516 605.402 727.252 601.204C728.989 597.005 729.881 592.505 729.878 587.961V427.678C729.874 423.231 728.989 418.829 727.274 414.726C725.558 410.624 723.046 406.902 719.882 403.776C716.719 400.651 712.967 398.184 708.844 396.517C704.721 394.851 700.309 394.019 695.862 394.069Z" stroke="#CCCCCC" stroke-width="1.5" stroke-linecap="round" stroke-linejoin="round"/>
<path d="M523.26 621.735L483.533 802.108H493.061L546.306 621.855" stroke="#CCCCCC" stroke-width="1.5" stroke-linecap="round" stroke-linejoin="round"/>
<path d="M864.149 510.18L903.875 802.109H894.339L841.102 508.896" stroke="#CCCCCC" stroke-width="1.5" stroke-linecap="round" stroke-linejoin="round"/>
<path d="M356.727 510.18L317 802.109H326.537L379.773 508.896" stroke="#CCCCCC" stroke-width="1.5" stroke-linecap="round" stroke-linejoin="round"/>
<path d="M700.475 621.736L740.201 802.109H730.674L677.428 620.932" stroke="#CCCCCC" stroke-width="1.5" stroke-linecap="round" stroke-linejoin="round"/>
<path d="M330.8 607H170V802.19H330.8V607Z" stroke="#CCCCCC" stroke-width="1.5" stroke-linecap="round" stroke-linejoin="round"/>
<path d="M323.279 621.72H177.529V672.35H323.279V621.72Z" stroke="#CCCCCC" stroke-width="1.5" stroke-linecap="round" stroke-linejoin="round"/>
<path d="M266.879 628.81H233.919C232.511 628.81 231.369 629.951 231.369 631.36V631.74C231.369 633.148 232.511 634.29 233.919 634.29H266.879C268.287 634.29 269.429 633.148 269.429 631.74V631.36C269.429 629.951 268.287 628.81 266.879 628.81Z" stroke="#CCCCCC" stroke-width="1.5" stroke-linecap="round" stroke-linejoin="round"/>
<path d="M323.279 681.05H177.529V731.68H323.279V681.05Z" stroke="#CCCCCC" stroke-width="1.5" stroke-linecap="round" stroke-linejoin="round"/>
<path d="M266.879 688.148H233.919C232.511 688.148 231.369 689.29 231.369 690.698V691.078C231.369 692.487 232.511 693.628 233.919 693.628H266.879C268.287 693.628 269.429 692.487 269.429 691.078V690.698C269.429 689.29 268.287 688.148 266.879 688.148Z" stroke="#CCCCCC" stroke-width="1.5" stroke-linecap="round" stroke-linejoin="round"/>
<path d="M323.279 740.38H177.529V791.01H323.279V740.38Z" stroke="#CCCCCC" stroke-width="1.5" stroke-linecap="round" stroke-linejoin="round"/>
<path d="M266.879 747.479H233.919C232.511 747.479 231.369 748.621 231.369 750.029V750.409C231.369 751.818 232.511 752.958 233.919 752.958H266.879C268.287 752.958 269.429 751.818 269.429 750.409V750.029C269.429 748.621 268.287 747.479 266.879 747.479Z" stroke="#CCCCCC" stroke-width="1.5" stroke-linecap="round" stroke-linejoin="round"/>
<path d="M200 584.55H577.72V137H200V584.55Z" fill="white" stroke="black" stroke-width="1.5" stroke-linecap="round" stroke-linejoin="round"/>
<path d="M200 185.74H577.72V137H200V185.74Z" fill="#82AAD3" stroke="black" stroke-width="1.5" stroke-linecap="round" stroke-linejoin="round"/>
<path d="M384.909 163.399H257.859V168.349H384.909V163.399Z" fill="white" stroke="black" stroke-width="1.5" stroke-linecap="round" stroke-linejoin="round"/>
<path d="M384.909 153.5H257.859V158.45H384.909V153.5Z" fill="white" stroke="black" stroke-width="1.5" stroke-linecap="round" stroke-linejoin="round"/>
<path d="M352.52 421.02H298.48V428.08H352.52V421.02Z" fill="white" stroke="black" stroke-width="1.5" stroke-linecap="round" stroke-linejoin="round"/>
<path d="M491.16 421.02H360.01V428.08H491.16V421.02Z" fill="white" stroke="black" stroke-width="1.5" stroke-linecap="round" stroke-linejoin="round"/>
<path d="M307.99 320.049C307.993 334.923 311.984 349.523 319.547 362.331C327.11 375.138 337.968 385.684 350.99 392.869C352.59 393.762 354.22 394.596 355.88 395.369C375.889 404.715 398.789 405.737 419.55 398.209L420.86 397.729C422.15 397.229 423.43 396.729 424.69 396.149C425.59 395.749 426.46 395.339 427.34 394.919C439.358 389.109 449.804 380.498 457.8 369.809C458.46 368.939 459.1 368.049 459.72 367.149C465.138 359.305 469.151 350.578 471.58 341.359C472.19 339.069 472.7 336.729 473.11 334.359C473.28 333.359 473.43 332.429 473.56 331.459C473.942 328.703 474.183 325.93 474.28 323.149C474.28 322.149 474.34 321.079 474.34 320.039V319.599C474.34 318.279 474.29 316.969 474.23 315.669C474.117 313.629 473.937 311.609 473.69 309.609L473.54 308.489C473.27 306.549 472.93 304.619 472.54 302.719C472.48 302.479 472.43 302.229 472.38 301.989C471.203 296.677 469.501 291.495 467.3 286.519C458.459 266.52 442.115 250.794 421.79 242.729L421.38 242.569C419.51 241.839 417.6 241.169 415.67 240.569C407.739 238.147 399.493 236.914 391.2 236.909C389.31 236.909 387.44 236.969 385.58 237.099C383.91 237.209 382.25 237.369 380.58 237.579C373.127 238.523 365.836 240.478 358.91 243.389C358.04 243.769 357.17 244.149 356.31 244.559L356 244.699C341.655 251.386 329.517 262.028 321.012 275.376C312.507 288.724 307.99 304.222 307.99 320.049Z" fill="#82AAD3" stroke="black" stroke-width="1.5" stroke-linecap="round" stroke-linejoin="round"/>
<path d="M324.42 339.35C327.26 352.683 330.093 366.04 332.92 379.42C338.302 384.701 344.378 389.226 350.98 392.87C352.58 393.763 354.21 394.597 355.87 395.37C375.878 404.716 398.779 405.737 419.54 398.21L420.84 397.91C420.84 397.85 420.84 397.79 420.84 397.73C422.13 397.23 423.41 396.73 424.67 396.15C425.57 395.75 426.44 395.34 427.32 394.92C439.345 389.113 449.798 380.501 457.8 369.81C457.651 366.416 456.977 363.066 455.8 359.88C453.08 352.46 446.85 339.1 433.34 329.59C429.34 326.8 423.95 323.05 416.14 321.92C413.154 321.471 410.114 321.508 407.14 322.03C402.5 322.82 398.42 324.55 393.14 325.62C385.86 327.09 375.34 327.48 361.38 322.5C360.86 322.32 360.33 322.13 359.8 321.92L359.54 321.83L359.31 321.94L324.42 339.35Z" fill="white" stroke="black" stroke-width="1.6" stroke-linecap="round" stroke-linejoin="round"/>
<path d="M361.241 322.5L361.341 321.88H359.661H359.171C351.449 322.249 343.901 324.297 337.051 327.88C325.311 334.06 319.351 343.04 316.051 347.98C315.331 349.05 314.661 350.13 314.051 351.21C321.231 368.909 334.272 383.605 350.991 392.84C352.591 393.733 354.221 394.567 355.881 395.34C356.741 395.25 357.611 396.17 358.471 396.09L355.861 357.09" fill="white"/>
<path d="M361.241 322.5L361.341 321.88H359.661H359.171C351.449 322.249 343.901 324.297 337.051 327.88C325.311 334.06 319.351 343.04 316.051 347.98C315.331 349.05 314.661 350.13 314.051 351.21C321.231 368.909 334.272 383.605 350.991 392.84C352.591 393.733 354.221 394.567 355.881 395.34C356.741 395.25 357.611 396.17 358.471 396.09L355.861 357.09" stroke="black" stroke-width="1.6" stroke-linecap="round" stroke-linejoin="round"/>
<path d="M460.35 344.439L455.43 351.239L477.87 369.679L490.9 360.849L495.96 350.449L460.35 344.439Z" fill="#D88B6D" stroke="black" stroke-width="1.5" stroke-linecap="round" stroke-linejoin="round"/>
<path d="M492.599 358.209L491.599 361.479C490.25 365.854 487.268 369.542 483.272 371.776C479.276 374.011 474.573 374.621 470.139 373.479L457.389 370.289C457.659 369.509 457.741 368.677 457.629 367.859C457.315 366.203 456.4 364.721 455.059 363.699C452.765 361.952 450.809 359.8 449.289 357.349L449.239 357.259C448.224 355.618 447.553 353.788 447.268 351.88C446.982 349.972 447.088 348.025 447.579 346.159L450.639 334.649C451.279 332.239 454.039 330.879 456.809 331.649C459.569 332.389 461.289 334.939 460.649 337.359L459.499 341.679C459.169 345.239 459.579 349.269 462.099 352.229L462.419 352.589" fill="#D88B6D"/>
<path d="M492.599 358.209L491.599 361.479C490.25 365.854 487.268 369.542 483.272 371.776C479.276 374.011 474.573 374.621 470.139 373.479L457.389 370.289C457.659 369.509 457.741 368.677 457.629 367.859C457.315 366.203 456.4 364.721 455.059 363.699C452.765 361.952 450.809 359.8 449.289 357.349L449.239 357.259C448.224 355.618 447.553 353.788 447.268 351.88C446.982 349.972 447.088 348.025 447.579 346.159L450.639 334.649C451.279 332.239 454.039 330.879 456.809 331.649C459.569 332.389 461.289 334.939 460.649 337.359L459.499 341.679C459.169 345.239 459.579 349.269 462.099 352.229L462.419 352.589" stroke="black" stroke-width="1.5" stroke-linecap="round" stroke-linejoin="round"/>
<path d="M492.391 358.659C500.281 346.339 503.131 341.089 511.031 328.769C511.371 328.205 511.502 327.54 511.401 326.889C511.301 326.239 510.975 325.644 510.481 325.209L510.231 324.989C509.965 324.781 509.672 324.61 509.361 324.479C508.761 324.204 508.087 324.134 507.443 324.28C506.8 324.426 506.222 324.781 505.801 325.289C499.921 332.499 495.081 338.929 489.191 346.139C493.381 338.349 499.441 328.279 503.631 320.499C504.001 319.703 504.072 318.8 503.831 317.955C503.591 317.111 503.055 316.381 502.321 315.899L502.261 315.849C500.331 314.419 497.661 314.759 496.591 316.579C487.161 332.579 481.401 342.169 481.111 342.009C480.821 341.849 486.031 331.809 494.961 315.329C495.38 314.38 495.415 313.305 495.057 312.331C494.698 311.357 493.975 310.56 493.041 310.109H492.971C492.084 309.538 491.007 309.34 489.975 309.56C488.943 309.779 488.039 310.397 487.461 311.279C482.831 319.529 477.121 329.829 472.461 338.069C476.651 329.409 481.921 318.689 486.111 310.069C486.496 309.111 486.503 308.043 486.132 307.08C485.761 306.117 485.039 305.331 484.111 304.879H484.041C482.835 304.529 481.551 304.557 480.361 304.959C479.257 305.369 478.362 306.199 477.871 307.269C471.757 319.989 465.651 332.706 459.551 345.419" fill="#D88B6D"/>
<path d="M492.391 358.659C500.281 346.339 503.131 341.089 511.031 328.769C511.371 328.205 511.502 327.54 511.401 326.889C511.301 326.239 510.975 325.644 510.481 325.209L510.231 324.989C509.965 324.781 509.672 324.61 509.361 324.479C508.761 324.204 508.087 324.134 507.443 324.28C506.8 324.426 506.222 324.781 505.801 325.289C499.921 332.499 495.081 338.929 489.191 346.139C493.381 338.349 499.441 328.279 503.631 320.499C504.001 319.703 504.072 318.8 503.831 317.955C503.591 317.111 503.055 316.381 502.321 315.899L502.261 315.849C500.331 314.419 497.661 314.759 496.591 316.579C487.161 332.579 481.401 342.169 481.111 342.009C480.821 341.849 486.031 331.809 494.961 315.329C495.38 314.38 495.415 313.305 495.057 312.331C494.698 311.357 493.975 310.56 493.041 310.109H492.971C492.084 309.538 491.007 309.34 489.975 309.56C488.943 309.779 488.039 310.397 487.461 311.279C482.831 319.529 477.121 329.829 472.461 338.069C476.651 329.409 481.921 318.689 486.111 310.069C486.496 309.111 486.503 308.043 486.132 307.08C485.761 306.117 485.039 305.331 484.111 304.879H484.041C482.835 304.529 481.551 304.557 480.361 304.959C479.257 305.369 478.362 306.199 477.871 307.269C471.757 319.989 465.651 332.706 459.551 345.419" stroke="black" stroke-width="1.5" stroke-linecap="round" stroke-linejoin="round"/>
<path d="M468.17 335.989C475.36 339.369 482.57 343.119 489.76 346.499L468.17 335.989Z" fill="#F7CCB9"/>
<path d="M468.17 335.989C475.36 339.369 482.57 343.119 489.76 346.499" stroke="black" stroke-width="1.5" stroke-linecap="round" stroke-linejoin="round"/>
<path d="M422.95 351.989C422.283 367.243 421.583 382.489 420.85 397.729C420.85 397.789 420.85 397.849 420.85 397.909" fill="white"/>
<path d="M422.95 351.989C422.283 367.243 421.583 382.489 420.85 397.729C420.85 397.789 420.85 397.849 420.85 397.909" stroke="black" stroke-width="1.6" stroke-linecap="round" stroke-linejoin="round"/>
<path d="M243.82 557.48H339.42V535.13H243.82V557.48Z" fill="#8CA45B" stroke="black" stroke-width="1.5" stroke-linecap="round" stroke-linejoin="round"/>
<path d="M243.82 519.119H535.2V460.909H243.82V519.119Z" fill="white" stroke="black" stroke-width="1.5" stroke-linecap="round" stroke-linejoin="round"/>
<path d="M230.589 172.069C236.742 172.069 241.729 167.081 241.729 160.929C241.729 154.777 236.742 149.789 230.589 149.789C224.437 149.789 219.449 154.777 219.449 160.929C219.449 167.081 224.437 172.069 230.589 172.069Z" fill="white" stroke="black" stroke-width="1.5" stroke-linecap="round" stroke-linejoin="round"/>
<path d="M368.812 287.761C370.441 270.206 375.389 253.12 383.392 237.411C385.929 232.483 388.764 227.714 391.882 223.131H397.722C399.722 223.011 412.282 222.441 418.532 230.861C421.072 234.281 421.702 238.021 422.192 240.861C423.712 249.801 420.002 255.381 420.912 265.491C421.342 270.151 421.682 272.561 422.412 279.261C422.619 281.001 422.585 282.761 422.312 284.491C422.242 284.861 422.172 285.221 422.082 285.581C419.802 295.281 410.162 301.121 400.562 299.581C403.392 308.291 405.432 313.471 408.282 322.251C400.514 327.822 391.034 330.481 381.502 329.761C373.855 329.071 366.566 326.201 360.502 321.491C363.269 310.271 366.039 299.028 368.812 287.761Z" fill="#D88B6D" stroke="black" stroke-width="1.5" stroke-linecap="round" stroke-linejoin="round"/>
<path d="M422.023 242.701C421.163 243.221 418.963 240.981 416.963 238.951C412.679 234.555 409.245 229.405 406.833 223.761C406.296 228.828 403.846 233.499 399.983 236.821C392.983 242.711 384.573 241.211 383.463 240.991L374.463 287.271C374.191 288.684 373.567 290.005 372.647 291.112C371.728 292.219 370.543 293.075 369.204 293.601C367.864 294.127 366.414 294.306 364.987 294.12C363.56 293.935 362.203 293.392 361.043 292.541C352.103 285.801 350.043 269.441 357.783 252.681C356.215 246.542 357.139 240.032 360.353 234.571C366.903 223.901 379.533 223.571 380.353 223.571C383.909 223.176 387.485 222.986 391.063 223.001C402.613 223.001 411.163 223.061 416.853 228.581C422.003 233.571 423.393 241.881 422.023 242.701Z" fill="black" stroke="black" stroke-width="1.5" stroke-linecap="round" stroke-linejoin="round"/>
<path d="M406.422 271.41H408.082C408.709 271.411 409.324 271.24 409.86 270.915C410.396 270.589 410.832 270.123 411.121 269.567C411.41 269.011 411.541 268.386 411.499 267.76C411.456 267.135 411.243 266.533 410.882 266.02L406.422 259.65" stroke="black" stroke-width="1.5" stroke-linecap="round" stroke-linejoin="round"/>
<path d="M412.013 275.23C411.522 276.279 410.715 277.149 409.706 277.717C408.696 278.285 407.535 278.524 406.383 278.4C405.561 278.249 404.782 277.916 404.104 277.427C403.426 276.937 402.866 276.303 402.463 275.57L412.013 275.23Z" fill="black"/>
<path d="M394.383 264.62C395.161 264.62 395.793 263.416 395.793 261.93C395.793 260.445 395.161 259.24 394.383 259.24C393.604 259.24 392.973 260.445 392.973 261.93C392.973 263.416 393.604 264.62 394.383 264.62Z" fill="black"/>
<path d="M416.912 264.62C417.691 264.62 418.322 263.416 418.322 261.93C418.322 260.445 417.691 259.24 416.912 259.24C416.133 259.24 415.502 260.445 415.502 261.93C415.502 263.416 416.133 264.62 416.912 264.62Z" fill="black"/>
<path d="M367.703 276.33L374.402 253.51L372.583 253.41C370.502 253.346 368.479 254.096 366.942 255.5C365.405 256.904 364.476 258.852 364.353 260.93C364.251 262.729 364.76 264.509 365.796 265.983C366.832 267.456 368.335 268.537 370.063 269.05" fill="#D88B6D"/>
<path d="M367.703 276.33L374.402 253.51L372.583 253.41C370.502 253.346 368.479 254.096 366.942 255.5C365.405 256.904 364.476 258.852 364.353 260.93C364.251 262.729 364.76 264.509 365.796 265.983C366.832 267.456 368.335 268.537 370.063 269.05" stroke="black" stroke-width="1.5" stroke-linecap="round" stroke-linejoin="round"/>
<path d="M389.383 257.27C390.159 255.898 391.406 254.854 392.893 254.33L389.383 257.27Z" fill="white"/>
<path d="M389.383 257.27C390.159 255.898 391.406 254.854 392.893 254.33" stroke="black" stroke-width="1.5" stroke-linecap="round" stroke-linejoin="round"/>
<path d="M420.932 257.27C420.156 255.898 418.909 254.854 417.422 254.33L420.932 257.27Z" fill="white"/>
<path d="M420.932 257.27C420.156 255.898 418.909 254.854 417.422 254.33" stroke="black" stroke-width="1.5" stroke-linecap="round" stroke-linejoin="round"/>
<path d="M400.672 299.69L388.832 296.23" stroke="black" stroke-width="1.5" stroke-linecap="round" stroke-linejoin="round"/>
<path opacity="0.17" fill-rule="evenodd" clip-rule="evenodd" d="M403.788 260.999C403.788 266.858 399.038 271.609 393.178 271.609C387.319 271.609 382.568 266.858 382.568 260.999C382.568 255.139 387.319 250.389 393.178 250.389C399.038 250.389 403.788 255.139 403.788 260.999ZM434.22 260.999C434.22 266.858 429.47 271.609 423.61 271.609C417.75 271.609 413 266.858 413 260.999C413 255.139 417.75 250.389 423.61 250.389C429.47 250.389 434.22 255.139 434.22 260.999Z" fill="white"/>
<path d="M423.2 271.609C429.06 271.609 433.81 266.858 433.81 260.999C433.81 255.139 429.06 250.389 423.2 250.389C417.34 250.389 412.59 255.139 412.59 260.999C412.59 266.858 417.34 271.609 423.2 271.609Z" stroke="black" stroke-width="1.5" stroke-linecap="round" stroke-linejoin="round"/>
<path d="M394.418 264.458C395.197 264.458 395.828 263.254 395.828 261.768C395.828 260.282 395.197 259.078 394.418 259.078C393.639 259.078 393.008 260.282 393.008 261.768C393.008 263.254 393.639 264.458 394.418 264.458Z" fill="black"/>
<path d="M416.949 264.458C417.728 264.458 418.359 263.254 418.359 261.768C418.359 260.282 417.728 259.078 416.949 259.078C416.17 259.078 415.539 260.282 415.539 261.768C415.539 263.254 416.17 264.458 416.949 264.458Z" fill="black"/>
<path d="M389.418 257.119C390.191 255.744 391.439 254.699 392.928 254.179L389.418 257.119Z" fill="white"/>
<path d="M389.418 257.119C390.191 255.744 391.439 254.699 392.928 254.179" stroke="black" stroke-width="1.5" stroke-linecap="round" stroke-linejoin="round"/>
<path d="M420.969 257.119C420.192 255.747 418.945 254.703 417.459 254.179L420.969 257.119Z" fill="white"/>
<path d="M420.969 257.119C420.192 255.747 418.945 254.703 417.459 254.179" stroke="black" stroke-width="1.5" stroke-linecap="round" stroke-linejoin="round"/>
<path d="M393.178 271.609C399.038 271.609 403.788 266.858 403.788 260.999C403.788 255.139 399.038 250.389 393.178 250.389C387.319 250.389 382.568 255.139 382.568 260.999C382.568 266.858 387.319 271.609 393.178 271.609Z" stroke="black" stroke-width="1.5" stroke-linecap="round" stroke-linejoin="round"/>
<path d="M412.26 259.358H403.77" stroke="black" stroke-width="1.5" stroke-linecap="round" stroke-linejoin="round"/>
<path d="M722.72 648.359H496V761.719H722.72V648.359Z" fill="white" stroke="black" stroke-width="1.5" stroke-linecap="round" stroke-linejoin="round"/>
<path d="M544.16 735.69C557.696 735.69 568.67 724.716 568.67 711.18C568.67 697.643 557.696 686.67 544.16 686.67C530.623 686.67 519.65 697.643 519.65 711.18C519.65 724.716 530.623 735.69 544.16 735.69Z" fill="white" stroke="black" stroke-width="1.5" stroke-linecap="round" stroke-linejoin="round"/>
<path d="M533.971 702.99L543.161 721.37L566.651 674.39" stroke="black" stroke-width="1.5" stroke-linecap="round" stroke-linejoin="round"/>
<path d="M722.72 535H496V648.36H722.72V535Z" fill="#8CA45B" stroke="black" stroke-width="1.5" stroke-linecap="round" stroke-linejoin="round"/>
<path d="M544.16 622.33C557.696 622.33 568.67 611.357 568.67 597.82C568.67 584.284 557.696 573.31 544.16 573.31C530.623 573.31 519.65 584.284 519.65 597.82C519.65 611.357 530.623 622.33 544.16 622.33Z" fill="white" stroke="black" stroke-width="1.5" stroke-linecap="round" stroke-linejoin="round"/>
<path d="M533.971 589.629L543.161 608.009L566.651 561.029" stroke="black" stroke-width="1.5" stroke-linecap="round" stroke-linejoin="round"/>
<path d="M690.251 584.409H589.141V589.009H690.251V584.409Z" fill="white" stroke="black" stroke-width="1.5" stroke-linecap="round" stroke-linejoin="round"/>
<path d="M690.251 594.109H589.141V598.709H690.251V594.109Z" fill="white" stroke="black" stroke-width="1.5" stroke-linecap="round" stroke-linejoin="round"/>
<path d="M646.841 603.81H589.141V608.41H646.841V603.81Z" fill="white" stroke="black" stroke-width="1.5" stroke-linecap="round" stroke-linejoin="round"/>
<path d="M690.251 700.069H589.141V704.669H690.251V700.069Z" fill="white" stroke="black" stroke-width="1.5" stroke-linecap="round" stroke-linejoin="round"/>
<path d="M690.251 709.77H589.141V714.37H690.251V709.77Z" fill="white" stroke="black" stroke-width="1.5" stroke-linecap="round" stroke-linejoin="round"/>
<path d="M611.271 719.47H589.141V724.07H611.271V719.47Z" fill="white" stroke="black" stroke-width="1.5" stroke-linecap="round" stroke-linejoin="round"/>
<path d="M672.379 719.47H615.529V724.07H672.379V719.47Z" fill="white" stroke="black" stroke-width="1.5" stroke-linecap="round" stroke-linejoin="round"/>
<path d="M445.53 657H300V802.53H445.53V657Z" fill="white" stroke="black" stroke-width="1.5" stroke-linecap="round" stroke-linejoin="round"/>
<path d="M327.049 697.42L326.189 762.23L419.389 762.41C419.216 740.65 419.049 718.89 418.889 697.13L327.049 697.42Z" fill="#FFE1B8"/>
<path d="M327.049 697.42L326.189 762.23L419.389 762.41C419.216 740.65 419.049 718.89 418.889 697.13L327.049 697.42Z" stroke="black" stroke-width="1.5" stroke-linecap="round" stroke-linejoin="round"/>
<path d="M327.381 698.03L354.191 730.91C364.421 742.25 380.431 741.55 391.051 729.28L418.881 697.13" stroke="black" stroke-width="1.5" stroke-linecap="round" stroke-linejoin="round"/>
<path d="M326.17 762.23L353.68 730.09" stroke="black" stroke-width="1.5" stroke-linecap="round" stroke-linejoin="round"/>
<path d="M418.709 761.879L391.039 729.279L418.709 761.879Z" fill="#AD85AD"/>
<path d="M418.709 761.879L391.039 729.279" stroke="black" stroke-width="1.5" stroke-linecap="round" stroke-linejoin="round"/>
<path d="M1077.6 803H326.869" stroke="black" stroke-width="1.5" stroke-linecap="round" stroke-linejoin="round"/>
<path d="M746.7 813.21H209" stroke="black" stroke-width="1.5" stroke-linecap="round" stroke-linejoin="round"/>
<path d="M790.621 813.21H759.471" stroke="black" stroke-width="1.5" stroke-linecap="round" stroke-linejoin="round"/>
<path d="M999.779 553.829L950.039 560.159C947.529 560.409 946.039 563.479 946.459 565.669C946.584 566.189 946.81 566.679 947.124 567.112C947.438 567.544 947.835 567.91 948.291 568.189C948.747 568.468 949.254 568.654 949.782 568.736C950.311 568.818 950.85 568.796 951.369 568.669C957.499 567.779 963.699 567.369 969.819 566.479L972.119 582.919C971.86 583.692 971.433 584.398 970.87 584.988C970.306 585.577 969.62 586.035 968.859 586.329C968.723 586.385 968.582 586.431 968.439 586.469C967.299 586.806 966.072 586.68 965.023 586.119C963.975 585.557 963.191 584.605 962.839 583.469L961.839 579.629C961.688 578.808 961.219 578.079 960.534 577.601C959.849 577.124 959.002 576.936 958.179 577.079C957.108 577.18 956.107 577.655 955.349 578.419C954.839 579.009 954.259 580.099 955.079 584.419C955.499 586.627 956.108 588.795 956.899 590.899L952.579 589.329C951.741 589.026 950.836 588.95 949.959 589.108C949.081 589.266 948.26 589.652 947.579 590.229C947.411 590.355 947.271 590.515 947.169 590.699C946.757 591.426 946.559 592.254 946.599 593.089C946.634 593.739 946.853 594.367 947.23 594.898C947.607 595.429 948.127 595.842 948.729 596.089C952.445 597.74 956.347 598.936 960.349 599.649C963.331 600.268 966.365 600.603 969.409 600.649L957.479 602.989C956.208 603.23 955.075 603.945 954.309 604.989C953.996 605.428 953.784 605.931 953.687 606.462C953.59 606.992 953.611 607.538 953.749 608.059C953.91 608.674 954.196 609.249 954.589 609.749C955.124 610.362 955.814 610.818 956.587 611.07C957.36 611.322 958.187 611.359 958.979 611.179L980.319 606.849L969.019 613.299C968.136 613.769 967.455 614.547 967.105 615.484C966.755 616.422 966.76 617.455 967.119 618.389V618.439C967.486 619.313 968.047 620.093 968.759 620.719C969.561 621.389 970.561 621.775 971.605 621.817C972.649 621.858 973.677 621.553 974.529 620.949L985.039 613.639C993.949 607.429 998.449 604.239 1000.87 599.899C1002.51 596.93 1003.47 593.634 1003.69 590.249L999.779 553.829Z" fill="#F7CCB9" stroke="black" stroke-width="1.5" stroke-linecap="round" stroke-linejoin="round"/>
<path d="M956.83 590.859C958.584 592.404 960.663 593.536 962.912 594.173C965.162 594.81 967.525 594.935 969.83 594.539C972.201 594.057 974.427 593.025 976.327 591.526C978.227 590.027 979.749 588.103 980.77 585.909" fill="#F7CCB9"/>
<path d="M956.83 590.859C958.584 592.404 960.663 593.536 962.912 594.173C965.162 594.81 967.525 594.935 969.83 594.539C972.201 594.057 974.427 593.025 976.327 591.526C978.227 590.027 979.749 588.103 980.77 585.909" stroke="black" stroke-width="1.5" stroke-linecap="round" stroke-linejoin="round"/>
<path d="M986.95 591.479C985.723 593.876 983.927 595.936 981.72 597.479C978.088 599.931 973.71 601.032 969.35 600.59" fill="#F7CCB9"/>
<path d="M986.95 591.479C985.723 593.876 983.927 595.936 981.72 597.479C978.088 599.931 973.71 601.032 969.35 600.59" stroke="black" stroke-width="1.5" stroke-linecap="round" stroke-linejoin="round"/>
<path d="M993.54 598.149C992.032 599.783 990.356 601.255 988.54 602.539C985.991 604.349 983.2 605.793 980.25 606.829" fill="#F7CCB9"/>
<path d="M993.54 598.149C992.032 599.783 990.356 601.255 988.54 602.539C985.991 604.349 983.2 605.793 980.25 606.829" stroke="black" stroke-width="1.5" stroke-linecap="round" stroke-linejoin="round"/>
<path d="M903.48 780.43C910.448 788.971 916.861 797.949 922.68 807.31C929.43 818.18 931.68 823.609 930.38 829.539C930.38 829.589 930.38 829.65 930.38 829.7C930.022 831.191 929.297 832.57 928.271 833.71C927.245 834.849 925.95 835.715 924.504 836.226C923.058 836.738 921.507 836.88 919.992 836.64C918.477 836.4 917.046 835.783 915.83 834.849L848.43 783.659C847.395 782.877 846.561 781.862 845.995 780.695C845.43 779.527 845.15 778.241 845.178 776.945C845.206 775.648 845.542 774.378 846.158 773.236C846.774 772.095 847.652 771.116 848.72 770.38L873.41 753.5L889.79 742.729L914.04 761.15L903.48 780.43Z" fill="#FFCD88" stroke="black" stroke-width="1.5" stroke-linecap="round" stroke-linejoin="round"/>
<path d="M870.449 755.38C875.229 762.38 883.529 772 896.629 777.9C898.856 778.899 901.144 779.758 903.479 780.47L914.039 761.18L889.789 742.76L870.449 755.38Z" fill="white" stroke="black" stroke-width="1.5" stroke-linecap="round" stroke-linejoin="round"/>
<path d="M924.059 835.88L845.779 776.42" stroke="black" stroke-width="1.5" stroke-linecap="round" stroke-linejoin="round"/>
<path d="M858.529 769.3C858.529 769.3 876.299 772.19 870.339 797.45" stroke="black" stroke-width="1.5" stroke-linecap="round" stroke-linejoin="round"/>
<path d="M951.058 504.46L950.318 505.89L951.058 504.46ZM950.318 505.89L942.648 520.6C952.608 553.267 962.565 585.933 972.518 618.6C976.538 631.85 976.269 646.032 971.748 659.12C968.268 669.22 964.442 679.553 960.268 690.12C949.167 718.175 936.35 745.52 921.888 772L868.268 748.51L909.729 634.83L882.388 566.38C881.139 563.248 880.61 559.875 880.839 556.51V556.46L862.479 506.72L906.378 498.62L911.738 495.85" fill="#AD85AD"/>
<path d="M950.318 505.89L942.648 520.6C952.608 553.267 962.565 585.933 972.518 618.6C976.538 631.85 976.269 646.032 971.748 659.12C968.268 669.22 964.442 679.553 960.268 690.12C949.167 718.175 936.35 745.52 921.888 772L868.268 748.51L909.729 634.83L882.388 566.38C881.139 563.248 880.61 559.875 880.839 556.51V556.46L862.479 506.72L906.378 498.62L911.738 495.85L950.318 505.89ZM951.058 504.46L950.318 505.89L951.058 504.46Z" stroke="black" stroke-width="1.5" stroke-linecap="round" stroke-linejoin="round"/>
<path d="M915.68 629.47L909.73 634.83L911.72 643.43" fill="#AD85AD"/>
<path d="M915.68 629.47L909.73 634.83L911.72 643.43" stroke="black" stroke-width="1.5" stroke-linecap="round" stroke-linejoin="round"/>
<path d="M915.25 767.88L960.43 656.28C965.113 644.703 965.135 631.762 960.49 620.17L927.72 538.38" fill="#AD85AD"/>
<path d="M915.25 767.88L960.43 656.28C965.113 644.703 965.135 631.762 960.49 620.17L927.72 538.38" stroke="black" stroke-width="1.5" stroke-linecap="round" stroke-linejoin="round"/>
<path d="M874.941 808.59C885.656 811.176 896.194 814.446 906.491 818.38C918.441 822.95 923.491 825.93 926.081 831.38L926.141 831.52C926.759 832.924 927.016 834.46 926.89 835.99C926.763 837.519 926.257 838.992 925.416 840.275C924.576 841.559 923.428 842.612 922.077 843.339C920.726 844.067 919.215 844.445 917.681 844.44L833.041 844.5C831.743 844.499 830.464 844.191 829.308 843.599C828.153 843.008 827.154 842.151 826.395 841.099C825.635 840.046 825.137 838.829 824.939 837.546C824.742 836.263 824.852 834.952 825.261 833.72L834.691 805.38L841.211 786.88H871.661C872.747 794.107 873.841 801.343 874.941 808.59Z" fill="#FFCD88" stroke="black" stroke-width="1.5" stroke-linecap="round" stroke-linejoin="round"/>
<path d="M833.418 808.819C841.478 811.449 853.918 814.029 867.898 810.729C870.274 810.166 872.612 809.454 874.898 808.599L871.518 786.859L841.058 787.029L833.418 808.819Z" fill="white" stroke="black" stroke-width="1.5" stroke-linecap="round" stroke-linejoin="round"/>
<path d="M924.898 839.27L825.598 839.32" stroke="black" stroke-width="1.5" stroke-linecap="round" stroke-linejoin="round"/>
<path d="M829.908 819.68C829.908 819.68 848.288 820.17 848.308 839.32" stroke="black" stroke-width="1.5" stroke-linecap="round" stroke-linejoin="round"/>
<path d="M914.789 531.7C910.649 539.526 906.516 547.356 902.389 555.19C894.969 635.65 887.546 716.103 880.119 796.55C872.368 800.136 863.866 801.798 855.335 801.394C846.804 800.99 838.497 798.532 831.119 794.23C826.669 695.93 828.579 596.81 824.119 498.51C856.449 499.26 882.419 500.82 914.759 501.57" fill="#AD85AD"/>
<path d="M914.789 531.7C910.649 539.526 906.516 547.356 902.389 555.19C894.969 635.65 887.546 716.103 880.119 796.55C872.368 800.136 863.866 801.798 855.335 801.394C846.804 800.99 838.497 798.532 831.119 794.23C826.669 695.93 828.579 596.81 824.119 498.51C856.449 499.26 882.419 500.82 914.759 501.57" stroke="black" stroke-width="1.5" stroke-linecap="round" stroke-linejoin="round"/>
<path d="M887.189 545.229C886.076 584.336 884.409 624.292 882.189 665.099C879.689 711.332 876.586 756.427 872.879 800.38" fill="#AD85AD"/>
<path d="M887.189 545.229C886.076 584.336 884.409 624.292 882.189 665.099C879.689 711.332 876.586 756.427 872.879 800.38" stroke="black" stroke-width="1.5" stroke-linecap="round" stroke-linejoin="round"/>
<path d="M874.449 808.709L892.339 796.479C892.754 796.189 893.231 795.999 893.732 795.923C894.233 795.847 894.744 795.886 895.227 796.039C895.71 796.192 896.152 796.453 896.518 796.803C896.884 797.153 897.165 797.583 897.339 798.059C897.493 798.487 897.558 798.943 897.528 799.398C897.499 799.852 897.376 800.296 897.168 800.701C896.96 801.107 896.67 801.465 896.318 801.753C895.965 802.042 895.557 802.255 895.119 802.379L874.449 808.709Z" stroke="black" stroke-width="1.5" stroke-linecap="round" stroke-linejoin="round"/>
<path d="M875.018 808.689L892.118 816.379C892.516 816.557 892.869 816.823 893.149 817.157C893.429 817.491 893.629 817.885 893.734 818.308C893.839 818.731 893.846 819.173 893.755 819.599C893.664 820.026 893.477 820.426 893.208 820.769C892.967 821.077 892.665 821.332 892.322 821.519C891.978 821.706 891.6 821.821 891.21 821.857C890.821 821.892 890.428 821.848 890.056 821.726C889.684 821.605 889.341 821.408 889.048 821.149L875.018 808.689Z" stroke="black" stroke-width="1.5" stroke-linecap="round" stroke-linejoin="round"/>
<path d="M902.789 779.84L924.089 783.84C924.584 783.932 925.052 784.136 925.456 784.437C925.861 784.737 926.192 785.126 926.423 785.573C926.654 786.021 926.781 786.515 926.792 787.019C926.804 787.523 926.7 788.022 926.489 788.48C926.302 788.89 926.032 789.258 925.698 789.56C925.363 789.862 924.97 790.093 924.542 790.237C924.115 790.381 923.663 790.437 923.213 790.399C922.764 790.362 922.326 790.233 921.929 790.02L902.789 779.84Z" stroke="black" stroke-width="1.5" stroke-linecap="round" stroke-linejoin="round"/>
<path d="M903.221 780.229L909.921 797.78C910.078 798.187 910.14 798.625 910.101 799.06C910.063 799.495 909.926 799.915 909.7 800.289C909.474 800.662 909.165 800.979 908.798 801.215C908.431 801.451 908.014 801.6 907.581 801.65C907.193 801.697 906.799 801.664 906.424 801.554C906.049 801.443 905.701 801.257 905.4 801.007C905.099 800.757 904.853 800.448 904.676 800.099C904.499 799.75 904.395 799.369 904.371 798.979C903.991 792.732 903.608 786.482 903.221 780.229Z" stroke="black" stroke-width="1.5" stroke-linecap="round" stroke-linejoin="round"/>
<path d="M836.37 417.19L889.06 344.27C897.585 346.333 906.358 347.185 915.12 346.8C926.88 350.33 957.85 359.94 966.3 361.29C967.243 361.303 968.169 361.534 969.008 361.964C969.846 362.394 970.574 363.012 971.135 363.77C971.695 364.528 972.073 365.405 972.239 366.333C972.404 367.261 972.354 368.215 972.09 369.12C970.44 373.22 968.84 377.42 967.32 381.71C951.91 425.07 947.05 467.19 947.65 505C918.585 512.314 887.927 509.933 860.34 498.22L822.34 489.89L836.37 417.19Z" fill="white" stroke="black" stroke-width="1.5" stroke-linecap="round" stroke-linejoin="round"/>
<path d="M828.29 275.98C825.1 275.66 822.29 277.67 822 280.46L821.51 285.46C821.272 287.575 820.519 289.599 819.316 291.355C818.112 293.111 816.497 294.545 814.61 295.53L814.14 295.78C816.595 294.688 818.566 292.735 819.68 290.29C819.807 289.963 819.917 289.629 820.01 289.29C817.85 262.89 815.94 243.66 815.79 241.94C815.696 240.624 815.085 239.398 814.09 238.53C812.999 237.636 811.657 237.101 810.25 237H810.12C808.965 237.106 807.892 237.645 807.119 238.51C806.345 239.375 805.928 240.5 805.95 241.66C806.95 252.42 808.25 265.77 809.23 276.53C807.62 266.04 805.68 252.95 804.07 242.46C803.72 240.19 801.33 238.66 798.74 239.04H798.64C796.08 239.42 794.26 241.53 794.57 243.77C797.46 264.62 798.98 277.23 798.57 277.29C798.16 277.35 795.93 264.96 792.33 244.44C791.92 242.11 789.25 240.7 786.65 241.44H786.56C785.598 241.656 784.747 242.212 784.163 243.006C783.579 243.8 783.301 244.778 783.38 245.76C784.71 255.6 787.11 268.57 788.44 278.41C785.09 268.52 782.54 259.84 779.2 249.94C778.941 249.253 778.468 248.668 777.85 248.271C777.232 247.875 776.502 247.689 775.77 247.74C775.397 247.754 775.027 247.818 774.67 247.93L774.32 248.06C773.622 248.315 773.037 248.81 772.671 249.457C772.304 250.104 772.18 250.86 772.32 251.59C775.67 267.23 776.63 273.97 779.86 289.13C779.447 297.003 779.04 304.867 778.64 312.72L812.42 316.38C812.445 315.453 812.689 314.545 813.13 313.73C814.108 312.109 815.656 310.911 817.47 310.37C820.572 309.435 823.476 307.94 826.04 305.96L826.13 305.89C827.843 304.566 829.269 302.909 830.323 301.018C831.376 299.128 832.036 297.043 832.26 294.89L833.58 281.58C833.86 278.82 831.49 276.3 828.29 275.98Z" fill="#F7CCB9" stroke="black" stroke-width="1.5" stroke-linecap="round" stroke-linejoin="round"/>
<path d="M814.6 276.14C805.7 276.86 796.6 277.96 787.75 278.68L814.6 276.14Z" fill="#F7CCB9"/>
<path d="M814.6 276.14C805.7 276.86 796.6 277.96 787.75 278.68" stroke="black" stroke-width="1.5" stroke-linecap="round" stroke-linejoin="round"/>
<path fill-rule="evenodd" clip-rule="evenodd" d="M831.509 362.189C838.548 354.661 847.611 349.327 857.609 346.829L857.6 346.962L883.24 343.499L886.34 418.139C886.446 427.779 886.56 437.422 886.68 447.069C885.533 451.955 884.386 456.845 883.24 461.739C879.352 471.335 874.973 480.724 870.12 489.869L869.927 490.231C858.315 511.99 852.46 522.963 841.65 529.099C837.55 531.429 822.75 538.819 797.5 530.539C808.338 505.711 817.688 480.259 825.5 454.319C827.253 448.471 828.902 442.694 830.449 436.987C812.193 452.067 792.484 457.659 777.949 451.759C767.029 447.329 760.869 437.169 759.569 434.909C752.132 422.043 754.363 409.636 759.417 381.519C759.949 378.559 760.513 375.425 761.099 372.099C763.159 360.429 766.199 342.399 769.459 319.739L815.589 325.889C812.639 338.819 810.829 349.209 809.019 359.599C807.712 367.087 806.206 374.54 804.7 381.99C803.938 385.762 803.176 389.534 802.439 393.309L831.509 362.189Z" fill="#AD85AD"/>
<path d="M857.609 346.83L857.428 346.102C857.661 346.044 857.908 346.101 858.092 346.255C858.276 346.41 858.374 346.643 858.358 346.883L857.609 346.83ZM831.509 362.19L830.961 361.678H830.962L831.509 362.19ZM857.6 346.963L857.7 347.706C857.477 347.736 857.251 347.664 857.087 347.51C856.922 347.355 856.836 347.135 856.852 346.91L857.6 346.963ZM883.24 343.5L883.139 342.757C883.348 342.729 883.56 342.79 883.721 342.925C883.883 343.061 883.98 343.258 883.989 343.469L883.24 343.5ZM886.34 418.14L887.089 418.109C887.089 418.116 887.09 418.124 887.09 418.131L886.34 418.14ZM886.68 447.07L887.43 447.06C887.43 447.121 887.424 447.182 887.41 447.241L886.68 447.07ZM883.24 461.74L883.97 461.911C883.961 461.949 883.949 461.985 883.935 462.021L883.24 461.74ZM870.12 489.87L870.782 490.221L870.781 490.223L870.12 489.87ZM869.927 490.232L869.265 489.879L869.927 490.232ZM841.65 529.1L841.279 528.448V528.447L841.65 529.1ZM797.5 530.54L797.266 531.252C797.065 531.187 796.902 531.039 796.815 530.846C796.729 530.654 796.728 530.433 796.812 530.24L797.5 530.54ZM825.5 454.32L826.218 454.535V454.536L825.5 454.32ZM830.449 436.988L829.971 436.409C830.223 436.201 830.581 436.18 830.855 436.357C831.13 436.534 831.258 436.868 831.173 437.184L830.449 436.988ZM777.949 451.76L778.231 451.065L777.949 451.76ZM759.569 434.91L760.219 434.534L760.22 434.536L759.569 434.91ZM759.417 381.52L760.156 381.652L759.417 381.52ZM761.099 372.1L760.361 371.969L761.099 372.1ZM769.459 319.74L768.717 319.633C768.776 319.226 769.151 318.942 769.558 318.996L769.459 319.74ZM815.589 325.89L815.688 325.146C815.898 325.174 816.085 325.289 816.205 325.462C816.326 325.635 816.368 325.851 816.321 326.057L815.589 325.89ZM809.019 359.6L809.758 359.728V359.729L809.019 359.6ZM804.7 381.991L803.965 381.842L804.7 381.991ZM802.439 393.31L802.987 393.822C802.759 394.066 802.396 394.13 802.098 393.978C801.8 393.826 801.639 393.495 801.703 393.166L802.439 393.31ZM857.791 347.557C847.933 350.021 838.997 355.28 832.057 362.702L830.962 361.678C838.099 354.044 847.289 348.635 857.428 346.102L857.791 347.557ZM856.852 346.91L856.861 346.777L858.358 346.883L858.348 347.016L856.852 346.91ZM857.5 346.219L883.139 342.757L883.34 344.243L857.7 347.706L857.5 346.219ZM883.989 343.469L887.089 418.109L885.59 418.171L882.49 343.531L883.989 343.469ZM887.09 418.131C887.196 427.771 887.31 437.414 887.43 447.06L885.93 447.079C885.81 437.432 885.696 427.788 885.59 418.148L887.09 418.131ZM887.41 447.241C886.263 452.128 885.117 457.018 883.97 461.911L882.509 461.569C883.656 456.675 884.803 451.785 885.95 446.898L887.41 447.241ZM883.935 462.021C880.038 471.641 875.648 481.053 870.782 490.221L869.457 489.518C874.299 480.396 878.667 471.03 882.545 461.458L883.935 462.021ZM870.781 490.223L870.588 490.585L869.265 489.879L869.458 489.517L870.781 490.223ZM870.588 490.585C864.79 501.45 860.402 509.676 856.106 515.948C851.799 522.238 847.555 526.61 842.02 529.752L841.279 528.447C846.554 525.453 850.643 521.271 854.869 515.101C859.107 508.913 863.452 500.773 869.265 489.879L870.588 490.585ZM842.02 529.752C837.785 532.159 822.765 539.614 797.266 531.252L797.733 529.827C822.735 538.025 837.314 530.701 841.279 528.448L842.02 529.752ZM796.812 530.24C807.639 505.439 816.979 480.015 824.782 454.103L826.218 454.536C818.398 480.505 809.038 505.984 798.187 530.84L796.812 530.24ZM824.781 454.104C826.532 448.263 828.18 442.492 829.725 436.791L831.173 437.184C829.624 442.897 827.973 448.681 826.218 454.535L824.781 454.104ZM778.231 451.065C792.392 456.813 811.807 451.414 829.971 436.409L830.926 437.566C812.579 452.722 792.575 458.506 777.667 452.455L778.231 451.065ZM760.22 434.536C761.508 436.775 767.561 446.736 778.231 451.065L777.667 452.455C766.498 447.924 760.231 437.565 758.919 435.284L760.22 434.536ZM760.156 381.652C755.083 409.868 752.948 421.957 760.219 434.534L758.92 435.285C751.316 422.131 753.642 409.406 758.679 381.387L760.156 381.652ZM761.838 372.23C761.251 375.558 760.688 378.693 760.156 381.652L758.679 381.387C759.211 378.427 759.774 375.295 760.361 371.969L761.838 372.23ZM770.202 319.847C766.94 342.516 763.899 360.554 761.838 372.23L760.361 371.969C762.42 360.305 765.458 342.283 768.717 319.633L770.202 319.847ZM815.49 326.633L769.36 320.483L769.558 318.996L815.688 325.146L815.49 326.633ZM808.281 359.471C810.091 349.081 811.903 338.674 814.858 325.723L816.321 326.057C813.375 338.966 811.568 349.339 809.758 359.728L808.281 359.471ZM803.965 381.842C805.471 374.391 806.975 366.947 808.281 359.471L809.758 359.729C808.448 367.228 806.94 374.691 805.435 382.139L803.965 381.842ZM801.703 393.166C802.44 389.388 803.203 385.614 803.965 381.842L805.435 382.139C804.673 385.912 803.911 389.681 803.176 393.453L801.703 393.166ZM832.057 362.702L802.987 393.822L801.891 392.798L830.961 361.678L832.057 362.702Z" fill="black"/>
<path d="M777.929 307.67L770.039 325.24L816.039 327.5L819.229 315.45L777.929 307.67Z" fill="white" stroke="black" stroke-width="1.5" stroke-linecap="round" stroke-linejoin="round"/>
<path d="M903.268 356.01L908.508 364.31C901.968 393.53 895.432 422.756 888.898 451.99C888.668 453.008 888.738 454.07 889.098 455.05L896.878 476.44C896.994 476.751 897.192 477.024 897.451 477.231C897.71 477.438 898.021 477.57 898.349 477.614C898.678 477.659 899.012 477.613 899.317 477.481C899.621 477.35 899.885 477.139 900.078 476.87L914.078 457.31C914.697 456.428 915.044 455.386 915.078 454.31C915.938 424.53 916.805 394.75 917.678 364.97L925.318 358.79C922.485 354.47 919.658 350.153 916.838 345.84L903.268 356.01Z" fill="black"/>
<path d="M889.001 343C888.076 347.335 888.232 350.864 890.13 354.87C892.94 360.94 898.039 364.82 901.659 366.97C901.952 367.143 902.29 367.229 902.63 367.217C902.97 367.205 903.299 367.096 903.579 366.902C903.859 366.708 904.077 366.438 904.209 366.124C904.34 365.81 904.378 365.465 904.319 365.13C904.105 363.746 904.075 362.341 904.229 360.95C904.677 357.24 906.365 353.79 909.019 351.16C919.501 343 914.309 347.83 914.239 346.28L889.001 343Z" fill="white" stroke="black" stroke-width="1.5" stroke-linecap="round" stroke-linejoin="round"/>
<path d="M939.5 344.5L945.619 346.93C944.58 352.124 942.126 356.931 938.529 360.82C934.225 365.339 928.586 368.36 922.439 369.44C922.166 369.49 921.884 369.458 921.629 369.348C921.374 369.237 921.158 369.053 921.008 368.82C920.858 368.586 920.781 368.313 920.786 368.035C920.792 367.757 920.88 367.487 921.039 367.26C922.271 365.559 922.967 363.529 923.039 361.43C923.219 355.49 916.26 345.67 916 345.5C915.74 345.33 939.5 344.5 939.5 344.5Z" fill="white" stroke="black" stroke-width="1.5" stroke-linecap="round" stroke-linejoin="round"/>
<path d="M819.79 471.93L814.68 485.2L847.63 498.14L852.47 485.71L819.79 471.93Z" fill="#826482" stroke="black" stroke-width="1.5" stroke-linecap="round" stroke-linejoin="round"/>
<path d="M964.439 540.38C965.106 546.493 965.772 552.606 966.439 558.72L1012.05 552.56C1011.48 548.12 1010.91 543.686 1010.33 539.26L964.439 540.38Z" fill="white" stroke="black" stroke-width="1.5" stroke-linecap="round" stroke-linejoin="round"/>
<path d="M945.119 404.38C946.399 414.99 950.609 450.15 951.879 460.76C955.029 487.04 959.089 524.39 962.209 550.67L1015 542.96C1011.32 525.666 1007.63 508.376 1003.94 491.09C1004.05 483.366 1003.75 475.642 1003.05 467.95C1001.59 451.952 998.414 436.158 993.579 420.84C995.386 412.028 995.545 402.959 994.049 394.09C993.049 388.53 991.249 378.04 983.739 367.38C981.019 363.52 977.149 358.15 969.929 353.97C965.078 351.177 959.689 349.446 954.119 348.89" fill="#AD85AD"/>
<path d="M945.119 404.38C946.399 414.99 950.609 450.15 951.879 460.76C955.029 487.04 959.089 524.39 962.209 550.67L1015 542.96C1011.32 525.666 1007.63 508.376 1003.94 491.09C1004.05 483.366 1003.75 475.642 1003.05 467.95C1001.59 451.952 998.414 436.158 993.579 420.84C995.386 412.028 995.545 402.959 994.049 394.09C993.049 388.53 991.249 378.04 983.739 367.38C981.019 363.52 977.149 358.15 969.929 353.97C965.078 351.177 959.689 349.446 954.119 348.89" stroke="black" stroke-width="1.5" stroke-linecap="round" stroke-linejoin="round"/>
<path d="M889.501 342.67C891.201 342.27 887.954 343.13 889.501 342.67C889.501 342.67 877.984 344.228 873.88 344.56L878.12 355.02L867.93 358.27C870.724 367.677 873.36 377.517 875.84 387.79C880.61 407.683 884.282 427.824 886.84 448.12C887.047 426.613 887.66 404.517 888.68 381.83C889.28 368.11 888.594 355.917 889.501 342.67Z" fill="#826482"/>
<path d="M889.501 342.67C887.954 343.13 891.201 342.27 889.501 342.67V342.67ZM889.501 342.67C889.501 342.67 877.984 344.228 873.88 344.56L878.12 355.02L867.93 358.27C870.724 367.677 873.36 377.517 875.84 387.79C880.61 407.683 884.282 427.824 886.84 448.12C887.047 426.613 887.66 404.517 888.68 381.83C889.28 368.11 888.594 355.917 889.501 342.67Z" stroke="black" stroke-width="1.5" stroke-linecap="round" stroke-linejoin="round"/>
<path d="M958.501 350L950.501 347.5L940.001 344.5C940.792 369.314 937.69 393.615 930.279 417.31C926.909 427.993 922.72 438.401 917.749 448.44L917.479 458.72C917.039 466.07 916.619 476.72 916.879 489.59C917.379 514.31 917.629 526.67 922.969 536.42C924.969 540.09 932.589 552.42 952.729 554.2C953.729 529.11 955.879 502.08 959.659 473.41C960.509 466.96 961.949 457.35 963.359 448.15C966.409 428.37 969.279 411.97 971.409 400.29" fill="#AD85AD"/>
<path d="M958.501 350L950.501 347.5L940.001 344.5C940.792 369.314 937.69 393.615 930.279 417.31C926.909 427.993 922.72 438.401 917.749 448.44L917.479 458.72C917.039 466.07 916.619 476.72 916.879 489.59C917.379 514.31 917.629 526.67 922.969 536.42C924.969 540.09 932.589 552.42 952.729 554.2C953.729 529.11 955.879 502.08 959.659 473.41C960.509 466.96 961.949 457.35 963.359 448.15C966.409 428.37 969.279 411.97 971.409 400.29" stroke="black" stroke-width="1.5" stroke-linecap="round" stroke-linejoin="round"/>
<path d="M940.279 344.029C941.659 344.859 943.119 345.689 944.669 346.489C948.322 348.399 952.113 350.034 956.009 351.379L949.299 360.459L958.359 366.139C953.359 374.539 948.289 383.409 943.359 392.759C933.801 410.843 925.241 429.437 917.719 448.459C922.866 427.579 927.776 406.025 932.449 383.799C935.243 370.345 937.853 357.089 940.279 344.029Z" fill="#826482" stroke="black" stroke-width="1.5" stroke-linecap="round" stroke-linejoin="round"/>
<path d="M993.58 420.869L989.34 432.119" stroke="black" stroke-width="1.5" stroke-linecap="round" stroke-linejoin="round"/>
<path d="M842 395L830.5 437" stroke="black" stroke-width="1.5" stroke-linecap="round" stroke-linejoin="round"/>
<path d="M1003.94 491.119L999.039 500.039" stroke="black" stroke-width="1.5" stroke-linecap="round" stroke-linejoin="round"/>
<path d="M897.492 321.198C894.622 330.088 892.562 335.268 889.682 344.198C897.449 349.77 906.93 352.428 916.462 351.708C924.112 351.022 931.402 348.147 937.462 343.428C934.682 332.168 931.905 320.908 929.132 309.648" fill="#F7CCB9"/>
<path d="M897.492 321.198C894.622 330.088 892.562 335.268 889.682 344.198C897.449 349.77 906.93 352.428 916.462 351.708C924.112 351.022 931.402 348.147 937.462 343.428C934.682 332.168 931.905 320.908 929.132 309.648" stroke="black" stroke-width="1.5" stroke-linecap="round" stroke-linejoin="round"/>
<path d="M875.921 266.829C875.691 272.119 877.04 273.189 877.25 282.119C877.25 283.479 877.331 287.119 876.991 291.699C876.321 300.869 874.991 301.699 875.431 305.529C875.824 308.441 876.864 311.227 878.475 313.685C880.086 316.142 882.227 318.207 884.741 319.729C888.741 321.999 892.741 321.669 907.741 318.729C914.331 317.459 922.181 318.729 931.181 316.729C927.421 295.829 923.741 272.079 919.981 251.179C904.931 241.839 888.421 243.019 880.801 251.669C876.301 256.779 876.071 263.469 875.921 266.829Z" fill="#F7CCB9"/>
<path d="M876.121 262.849C882.008 262.929 887.964 262.969 893.991 262.969C900.924 262.969 907.768 262.922 914.521 262.829L923.521 309.119C923.794 310.531 924.419 311.851 925.339 312.957C926.26 314.062 927.444 314.917 928.783 315.442C930.122 315.967 931.573 316.145 932.999 315.959C934.425 315.773 935.781 315.229 936.941 314.379H936.991C940.741 311.519 938.691 300.469 938.131 295.909C937.327 288.709 938.049 281.42 940.251 274.519C941.821 268.381 940.901 261.871 937.691 256.409C931.131 245.739 918.501 245.409 917.691 245.409C914.132 245.01 910.553 244.817 906.971 244.829C895.361 244.829 886.701 244.829 881.191 250.409C879.591 251.939 876.681 255.539 876.121 262.849Z" fill="black" stroke="black" stroke-width="1.5" stroke-linecap="round" stroke-linejoin="round"/>
<path d="M891.54 293.219H889.88C889.255 293.219 888.642 293.047 888.107 292.722C887.573 292.397 887.138 291.933 886.849 291.378C886.56 290.823 886.429 290.2 886.47 289.576C886.511 288.952 886.722 288.351 887.08 287.839L891.54 281.459" stroke="black" stroke-width="1.5" stroke-linecap="round" stroke-linejoin="round"/>
<path d="M885.949 297.068C886.439 298.118 887.246 298.989 888.255 299.557C889.265 300.126 890.427 300.364 891.579 300.238C892.401 300.087 893.18 299.754 893.858 299.265C894.536 298.775 895.096 298.141 895.499 297.408L885.949 297.068Z" fill="black"/>
<path fill-rule="evenodd" clip-rule="evenodd" d="M902.172 283.768C902.172 285.254 902.803 286.458 903.582 286.458C904.361 286.458 904.992 285.254 904.992 283.768C904.992 282.282 904.361 281.078 903.582 281.078C902.803 281.078 902.172 282.282 902.172 283.768ZM879.641 283.768C879.641 285.254 880.272 286.458 881.051 286.458C881.83 286.458 882.461 285.254 882.461 283.768C882.461 282.282 881.83 281.078 881.051 281.078C880.272 281.078 879.641 282.282 879.641 283.768Z" fill="black"/>
<path d="M930.261 298.179L923.561 275.359L925.412 275.299C927.492 275.233 929.517 275.98 931.055 277.382C932.594 278.784 933.525 280.731 933.652 282.809C933.752 284.609 933.242 286.39 932.204 287.864C931.166 289.338 929.66 290.418 927.932 290.929" fill="#F7CCB9"/>
<path d="M930.261 298.179L923.561 275.359L925.412 275.299C927.492 275.233 929.517 275.98 931.055 277.382C932.594 278.784 933.525 280.731 933.652 282.809C933.752 284.609 933.242 286.39 932.204 287.864C931.166 289.338 929.66 290.418 927.932 290.929" stroke="black" stroke-width="1.5" stroke-linecap="round" stroke-linejoin="round"/>
<path d="M874.799 293.609C868.939 293.609 864.189 288.858 864.189 282.999C864.189 277.139 868.939 272.389 874.799 272.389C880.659 272.389 885.409 277.139 885.409 282.999C885.409 288.858 880.659 293.609 874.799 293.609Z" stroke="black" stroke-width="1.5" stroke-linecap="round" stroke-linejoin="round"/>
<path fill-rule="evenodd" clip-rule="evenodd" d="M908.582 279.119C907.809 277.744 906.561 276.699 905.072 276.179L908.582 279.119ZM877.031 279.119C877.808 277.747 879.055 276.703 880.541 276.179L877.031 279.119Z" fill="white"/>
<path fill-rule="evenodd" clip-rule="evenodd" d="M881.193 275.806C881.013 275.491 880.634 275.35 880.292 275.471C878.634 276.055 877.244 277.219 876.378 278.748C876.2 279.064 876.272 279.462 876.551 279.694C876.83 279.926 877.235 279.926 877.513 279.693L881.023 276.753C881.301 276.52 881.372 276.121 881.193 275.806ZM904.42 275.807C904.241 276.122 904.313 276.52 904.59 276.753L908.1 279.693C908.378 279.925 908.782 279.926 909.061 279.695C909.34 279.463 909.413 279.066 909.236 278.75C908.373 277.217 906.98 276.05 905.319 275.47C904.977 275.35 904.599 275.492 904.42 275.807Z" fill="black"/>
<path opacity="0.17" fill-rule="evenodd" clip-rule="evenodd" d="M894.211 282.999C894.211 288.858 898.961 293.609 904.821 293.609C910.68 293.609 915.431 288.858 915.431 282.999C915.431 277.139 910.68 272.389 904.821 272.389C898.961 272.389 894.211 277.139 894.211 282.999ZM863.779 282.999C863.779 288.858 868.529 293.609 874.389 293.609C880.249 293.609 884.999 288.858 884.999 282.999C884.999 277.139 880.249 272.389 874.389 272.389C868.529 272.389 863.779 277.139 863.779 282.999Z" fill="white"/>
<path d="M906.121 244.948H900.281C898.281 244.828 885.721 244.258 879.471 252.678C876.931 256.098 876.301 259.848 875.811 262.678C874.291 271.678 878.011 277.198 877.091 287.308C876.661 291.968 876.321 294.388 875.601 301.088C875.384 302.824 875.418 304.582 875.701 306.308C875.761 306.678 875.831 307.038 875.921 307.398C878.431 318.038 889.771 324.068 900.211 320.818L909.211 318.028" stroke="black" stroke-width="1.5" stroke-linecap="round" stroke-linejoin="round"/>
<path d="M904.823 293.609C898.963 293.609 894.213 288.858 894.213 282.999C894.213 277.139 898.963 272.389 904.823 272.389C910.682 272.389 915.433 277.139 915.433 282.999C915.433 288.858 910.682 293.609 904.823 293.609Z" stroke="black" stroke-width="1.5" stroke-linecap="round" stroke-linejoin="round"/>
<path d="M885.74 281.358H894.23" stroke="black" stroke-width="1.5" stroke-linecap="round" stroke-linejoin="round"/>
<path d="M914.12 262.328C914.01 265.908 870.61 274.048 863.82 260.328C861.6 255.818 863.37 249.068 867.14 245.778C871.9 241.628 880.14 242.658 885.01 245.398C886.08 245.988 887.28 246.838 887.28 246.838C889.14 248.248 890.17 249.688 892.8 251.908C903.8 261.108 914.19 260.608 914.12 262.328Z" fill="black" stroke="black" stroke-width="1.5" stroke-linecap="round" stroke-linejoin="round"/>
</svg>
