<svg width="1220" height="920" viewBox="0 0 1220 920" fill="none" xmlns="http://www.w3.org/2000/svg">
<path d="M430 147.81H511.47" stroke="#CCCCCC" stroke-width="1.5" stroke-linecap="round" stroke-linejoin="round"/>
<path d="M453.609 173.79H535.089" stroke="#CCCCCC" stroke-width="1.5" stroke-linecap="round" stroke-linejoin="round"/>
<path d="M464.24 136V184.42" stroke="#CCCCCC" stroke-width="1.5" stroke-linecap="round" stroke-linejoin="round"/>
<path d="M507.932 136V184.42" stroke="#CCCCCC" stroke-width="1.5" stroke-linecap="round" stroke-linejoin="round"/>
<path d="M615 196.81H696.47" stroke="#CCCCCC" stroke-width="1.5" stroke-linecap="round" stroke-linejoin="round"/>
<path d="M638.609 222.79H720.089" stroke="#CCCCCC" stroke-width="1.5" stroke-linecap="round" stroke-linejoin="round"/>
<path d="M649.24 185V233.42" stroke="#CCCCCC" stroke-width="1.5" stroke-linecap="round" stroke-linejoin="round"/>
<path d="M692.932 185V233.42" stroke="#CCCCCC" stroke-width="1.5" stroke-linecap="round" stroke-linejoin="round"/>
<path d="M1065.03 150.98H809V435.141H1065.03V150.98Z" stroke="#CCCCCC" stroke-width="1.5" stroke-linecap="round" stroke-linejoin="round"/>
<path d="M809 150.98L859.2 136.63L913.91 121V462.11L809 435.13" stroke="#CCCCCC" stroke-width="1.5" stroke-linecap="round" stroke-linejoin="round"/>
<path d="M858.16 447.12V136.63" stroke="#CCCCCC" stroke-width="1.5" stroke-linecap="round" stroke-linejoin="round"/>
<path d="M809.601 228.91L915.111 203.73" stroke="#CCCCCC" stroke-width="1.5" stroke-linecap="round" stroke-linejoin="round"/>
<path d="M809.601 292.449H913.311" stroke="#CCCCCC" stroke-width="1.5" stroke-linecap="round" stroke-linejoin="round"/>
<path d="M809.601 358.4L915.111 378.78" stroke="#CCCCCC" stroke-width="1.5" stroke-linecap="round" stroke-linejoin="round"/>
<path d="M1065.63 150.98L1015.43 136.63L960.721 121V462.11L1065.63 435.13" stroke="#CCCCCC" stroke-width="1.5" stroke-linecap="round" stroke-linejoin="round"/>
<path d="M1016.47 447.12V136.63" stroke="#CCCCCC" stroke-width="1.5" stroke-linecap="round" stroke-linejoin="round"/>
<path d="M1065.03 228.91L959.521 203.73" stroke="#CCCCCC" stroke-width="1.5" stroke-linecap="round" stroke-linejoin="round"/>
<path d="M1065.03 292.449H961.32" stroke="#CCCCCC" stroke-width="1.5" stroke-linecap="round" stroke-linejoin="round"/>
<path d="M1065.03 358.4L959.521 378.78" stroke="#CCCCCC" stroke-width="1.5" stroke-linecap="round" stroke-linejoin="round"/>
<path d="M306.47 249.136C313.55 238.716 320.63 229.056 327.71 218.636C329.189 216.237 329.718 213.372 329.192 210.604C328.666 207.835 327.123 205.363 324.868 203.674C322.612 201.985 319.806 201.2 317.002 201.474C314.197 201.749 311.596 203.062 309.71 205.156C305.668 209.81 302.069 214.832 298.96 220.156C293.574 229.105 289.696 238.879 287.48 249.086C293.79 248.986 300.13 249.196 306.47 249.136Z" stroke="#CCCCCC" stroke-width="1.5" stroke-linecap="round" stroke-linejoin="round"/>
<path d="M316.26 214.666C311.821 219.607 307.965 225.043 304.77 230.866C301.57 236.43 299.042 242.355 297.24 248.516" stroke="#CCCCCC" stroke-width="1.5" stroke-linecap="round" stroke-linejoin="round"/>
<path d="M271.241 249.057C269.321 244.627 267.241 240.567 264.841 235.957C259.483 225.482 253.353 215.421 246.501 205.857C245.416 204.341 244.651 202.621 244.253 200.8C243.855 198.979 243.831 197.097 244.184 195.267C244.536 193.437 245.258 191.698 246.305 190.155C247.351 188.613 248.701 187.3 250.271 186.297L250.501 186.157C253.318 184.358 256.695 183.649 259.998 184.163C263.301 184.677 266.303 186.378 268.441 188.947C274.112 195.738 278.972 203.169 282.921 211.087C286.79 218.509 289.787 226.355 291.851 234.467" stroke="#CCCCCC" stroke-width="1.5" stroke-linecap="round" stroke-linejoin="round"/>
<path d="M256.17 195.636C262.359 202.213 267.679 209.556 272 217.486C276.45 225.686 281.89 244.066 283.19 248.286" stroke="#CCCCCC" stroke-width="1.5" stroke-linecap="round" stroke-linejoin="round"/>
<path d="M220.309 239.256C221.755 240.908 223.728 242.009 225.893 242.374C228.058 242.738 230.282 242.343 232.189 241.256C241.813 235.658 253.062 233.52 264.069 235.196C253.193 228.586 240.938 224.576 228.259 223.476C226.367 223.32 224.472 223.732 222.816 224.66C221.16 225.588 219.819 226.99 218.964 228.686C218.11 230.381 217.782 232.293 218.021 234.176C218.261 236.059 219.058 237.828 220.309 239.256Z" stroke="#CCCCCC" stroke-width="1.5" stroke-linecap="round" stroke-linejoin="round"/>
<path d="M265.32 235.456C270.127 238.865 274.086 243.333 276.89 248.516" stroke="#CCCCCC" stroke-width="1.5" stroke-linecap="round" stroke-linejoin="round"/>
<path d="M219.619 236.796C219.619 236.796 244.619 228.356 249.879 228.536" stroke="#CCCCCC" stroke-width="1.5" stroke-linecap="round" stroke-linejoin="round"/>
<path d="M320.899 259.796C321.207 258.013 321.357 256.206 321.349 254.396V249.126H256.929V254.396C256.859 256.439 257.004 258.483 257.359 260.496C259.619 273.496 269.739 280.586 270.619 281.186C276.083 284.865 282.554 286.759 289.139 286.606C293.423 286.611 297.665 285.758 301.615 284.099C305.565 282.44 309.143 280.008 312.139 276.946C316.651 272.193 319.693 266.237 320.899 259.796Z" stroke="#CCCCCC" stroke-width="1.5" stroke-linecap="round" stroke-linejoin="round"/>
<path d="M535.6 287.206H195V766.226H535.6V287.206Z" stroke="#CCCCCC" stroke-width="1.5" stroke-linecap="round" stroke-linejoin="round"/>
<path d="M195.51 411.806H536.11" stroke="#CCCCCC" stroke-width="1.5" stroke-linecap="round" stroke-linejoin="round"/>
<path d="M214.62 766.355L209.18 798.995C209.095 799.503 209.121 800.024 209.256 800.521C209.392 801.017 209.635 801.477 209.967 801.87C210.299 802.264 210.713 802.58 211.18 802.797C211.647 803.014 212.156 803.125 212.67 803.125H218C218.668 803.128 219.323 802.941 219.889 802.587C220.455 802.234 220.91 801.727 221.2 801.125L237.6 766.875" stroke="#CCCCCC" stroke-width="1.5" stroke-linecap="round" stroke-linejoin="round"/>
<path d="M515.129 766.355L520.619 798.995C520.705 799.503 520.679 800.024 520.543 800.521C520.407 801.017 520.165 801.477 519.833 801.87C519.5 802.264 519.086 802.58 518.619 802.797C518.153 803.014 517.644 803.125 517.129 803.125H511.799C511.131 803.128 510.477 802.941 509.91 802.587C509.344 802.234 508.89 801.727 508.599 801.125L492.199 766.875" stroke="#CCCCCC" stroke-width="1.5" stroke-linecap="round" stroke-linejoin="round"/>
<path d="M378.32 729.486H349.38C347.69 729.486 346.32 730.856 346.32 732.546V732.556C346.32 734.246 347.69 735.616 349.38 735.616H378.32C380.01 735.616 381.38 734.246 381.38 732.556V732.546C381.38 730.856 380.01 729.486 378.32 729.486Z" stroke="#CCCCCC" stroke-width="1.5" stroke-linecap="round" stroke-linejoin="round"/>
<path d="M285.221 287.206V694.746" stroke="#CCCCCC" stroke-width="1.5" stroke-linecap="round" stroke-linejoin="round"/>
<path d="M285.561 348.146H536.791" stroke="#CCCCCC" stroke-width="1.5" stroke-linecap="round" stroke-linejoin="round"/>
<path d="M409.129 385.596C411.576 385.596 413.559 383.613 413.559 381.166C413.559 378.72 411.576 376.736 409.129 376.736C406.683 376.736 404.699 378.72 404.699 381.166C404.699 383.613 406.683 385.596 409.129 385.596Z" stroke="#CCCCCC" stroke-width="1.5" stroke-linecap="round" stroke-linejoin="round"/>
<path d="M409.129 322.616C411.576 322.616 413.559 320.633 413.559 318.186C413.559 315.739 411.576 313.756 409.129 313.756C406.683 313.756 404.699 315.739 404.699 318.186C404.699 320.633 406.683 322.616 409.129 322.616Z" stroke="#CCCCCC" stroke-width="1.5" stroke-linecap="round" stroke-linejoin="round"/>
<path d="M195.51 694.445H536.11" stroke="#CCCCCC" stroke-width="1.5" stroke-linecap="round" stroke-linejoin="round"/>
<path d="M1027.6 804H276.869" stroke="black" stroke-width="1.5" stroke-linecap="round" stroke-linejoin="round"/>
<path d="M696.7 814.21H159" stroke="black" stroke-width="1.5" stroke-linecap="round" stroke-linejoin="round"/>
<path d="M740.62 814.21H709.47" stroke="black" stroke-width="1.5" stroke-linecap="round" stroke-linejoin="round"/>
<path d="M753.785 803.34C753.146 803.34 752.527 803.117 752.034 802.71C751.542 802.303 751.206 801.737 751.085 801.11L730.685 693.54C729.898 689.656 727.778 686.169 724.692 683.682C721.606 681.195 717.748 679.864 713.785 679.92H670.465C666.652 679.874 662.934 681.11 659.909 683.432C656.884 685.753 654.727 689.025 653.785 692.72L626.985 801.06C626.84 801.656 626.498 802.185 626.016 802.564C625.534 802.943 624.938 803.149 624.325 803.15C624.099 803.148 623.875 803.122 623.655 803.07C622.95 802.89 622.345 802.44 621.97 801.816C621.596 801.193 621.482 800.447 621.655 799.74L648.445 691.41C649.671 686.518 652.508 682.18 656.498 679.097C660.489 676.013 665.402 674.362 670.445 674.41H713.785C719.018 674.363 724.103 676.142 728.166 679.44C732.229 682.738 735.015 687.349 736.045 692.48L756.435 800.05C756.57 800.767 756.415 801.509 756.005 802.112C755.594 802.715 754.962 803.132 754.245 803.27C754.094 803.305 753.94 803.329 753.785 803.34Z" fill="white"/>
<path d="M713.787 675.17C718.845 675.122 723.762 676.84 727.69 680.027C731.618 683.214 734.312 687.671 735.307 692.63L755.787 800.2C755.836 800.459 755.834 800.725 755.78 800.983C755.726 801.241 755.622 801.485 755.473 801.703C755.325 801.92 755.135 802.106 754.914 802.25C754.693 802.393 754.446 802.492 754.187 802.54C754.064 802.55 753.94 802.55 753.817 802.54C753.346 802.549 752.888 802.391 752.522 802.095C752.156 801.798 751.907 801.382 751.817 800.92L731.417 693.34C730.585 689.297 728.369 685.67 725.151 683.083C721.934 680.497 717.915 679.113 713.787 679.17H670.467C666.485 679.118 662.601 680.409 659.443 682.835C656.284 685.26 654.035 688.679 653.057 692.54L626.257 800.88C626.15 801.312 625.903 801.696 625.553 801.971C625.203 802.247 624.772 802.398 624.327 802.4C624.162 802.4 623.997 802.38 623.837 802.34C623.323 802.213 622.88 801.886 622.606 801.432C622.333 800.978 622.25 800.435 622.377 799.92L649.167 691.59C650.356 686.858 653.104 682.664 656.968 679.685C660.833 676.706 665.588 675.115 670.467 675.17H713.787ZM713.787 673.67H670.467C665.251 673.615 660.168 675.319 656.039 678.506C651.91 681.694 648.974 686.18 647.707 691.24L620.917 799.56C620.807 800.007 620.785 800.471 620.854 800.925C620.923 801.38 621.08 801.817 621.318 802.211C621.556 802.605 621.869 802.948 622.239 803.22C622.61 803.493 623.031 803.69 623.477 803.8C623.756 803.864 624.041 803.897 624.327 803.9C625.108 803.9 625.867 803.638 626.482 803.156C627.096 802.674 627.531 801.999 627.717 801.24L654.507 692.9C655.409 689.359 657.479 686.225 660.383 684.006C663.286 681.786 666.853 680.611 670.507 680.67H713.787C717.567 680.624 721.244 681.897 724.186 684.27C727.128 686.643 729.151 689.967 729.907 693.67L750.297 801.24C750.451 802.04 750.878 802.761 751.506 803.279C752.134 803.798 752.923 804.081 753.737 804.08C753.959 804.08 754.179 804.06 754.397 804.02C755.308 803.846 756.112 803.317 756.633 802.55C757.154 801.783 757.35 800.841 757.177 799.93L736.787 692.34C735.723 687.038 732.844 682.273 728.646 678.864C724.449 675.455 719.195 673.615 713.787 673.66V673.67Z" fill="black"/>
<path d="M917.936 803.34C917.763 803.354 917.589 803.354 917.416 803.34C916.7 803.202 916.068 802.785 915.659 802.181C915.25 801.577 915.098 800.836 915.236 800.12L935.626 692.55C936.656 687.419 939.442 682.808 943.505 679.51C947.568 676.212 952.653 674.433 957.886 674.48H1001.25C1006.29 674.43 1011.2 676.08 1015.19 679.164C1019.19 682.248 1022.02 686.587 1023.25 691.48L1050.05 799.81C1050.22 800.516 1050.11 801.263 1049.73 801.886C1049.36 802.51 1048.75 802.96 1048.05 803.14C1047.83 803.192 1047.6 803.218 1047.38 803.22C1046.76 803.219 1046.17 803.013 1045.69 802.634C1045.2 802.255 1044.86 801.726 1044.72 801.13L1017.92 692.8C1016.98 689.103 1014.82 685.829 1011.79 683.506C1008.77 681.182 1005.05 679.944 1001.24 679.99H957.886C953.933 679.943 950.087 681.275 947.01 683.757C943.932 686.239 941.816 689.716 941.026 693.59L920.636 801.09C920.519 801.721 920.186 802.291 919.692 802.702C919.199 803.113 918.578 803.339 917.936 803.34Z" fill="white"/>
<path d="M1001.25 675.17C1006.12 675.114 1010.88 676.704 1014.74 679.683C1018.61 682.663 1021.35 686.857 1022.54 691.59L1049.34 799.92C1049.46 800.434 1049.38 800.978 1049.11 801.432C1048.83 801.886 1048.39 802.212 1047.88 802.34C1047.72 802.379 1047.55 802.399 1047.39 802.4C1046.94 802.397 1046.51 802.246 1046.16 801.971C1045.81 801.696 1045.56 801.312 1045.46 800.88L1018.66 692.54C1017.68 688.679 1015.43 685.26 1012.27 682.834C1009.11 680.409 1005.23 679.118 1001.25 679.17H957.886C953.765 679.122 949.756 680.51 946.546 683.096C943.337 685.681 941.127 689.303 940.296 693.34L919.896 800.91C919.807 801.372 919.557 801.788 919.191 802.084C918.826 802.381 918.367 802.538 917.896 802.53H917.516C917.258 802.481 917.012 802.381 916.793 802.237C916.573 802.093 916.384 801.906 916.236 801.689C916.089 801.472 915.985 801.228 915.932 800.97C915.879 800.713 915.877 800.448 915.926 800.19L936.326 692.62C937.322 687.66 940.016 683.203 943.944 680.016C947.872 676.829 952.788 675.112 957.846 675.16H1001.21L1001.25 675.17ZM1001.21 673.66H957.886C952.479 673.614 947.225 675.454 943.027 678.864C938.829 682.273 935.951 687.038 934.886 692.34L914.496 799.92C914.323 800.831 914.519 801.773 915.04 802.54C915.561 803.307 916.366 803.835 917.276 804.01C917.494 804.05 917.715 804.07 917.936 804.07C918.75 804.07 919.539 803.787 920.167 803.269C920.795 802.75 921.223 802.029 921.376 801.23L941.786 693.66C942.542 689.956 944.565 686.632 947.507 684.259C950.449 681.887 954.127 680.614 957.906 680.66H1001.27C1004.91 680.61 1008.47 681.79 1011.36 684.009C1014.26 686.227 1016.32 689.356 1017.22 692.89L1044.02 801.23C1044.12 801.678 1044.32 802.099 1044.59 802.471C1044.86 802.842 1045.21 803.156 1045.6 803.393C1046 803.631 1046.43 803.787 1046.89 803.853C1047.35 803.92 1047.81 803.895 1048.26 803.78C1049.16 803.557 1049.93 802.987 1050.41 802.194C1050.89 801.401 1051.04 800.45 1050.82 799.55L1024.02 691.22C1022.75 686.161 1019.82 681.677 1015.69 678.491C1011.56 675.305 1006.48 673.603 1001.27 673.66H1001.21Z" fill="black"/>
<path d="M658.386 576.55L646.206 633.28L1024.14 704.02C1026.53 718.02 1028.91 730.94 1031.29 744.89L675.596 745.89C646.916 745.97 618.856 737.74 596.286 720.04C595.586 719.49 594.876 718.93 594.176 718.36C543.636 677.09 536.496 610.1 537.026 572.02C537.123 564.53 540.164 557.379 545.492 552.113C550.82 546.847 558.005 543.89 565.496 543.88C590.716 543.88 615.936 543.55 641.156 543.81C646.906 553.34 652.646 566.96 658.386 576.55Z" fill="#AD85AD" stroke="black" stroke-width="1.5" stroke-linecap="round" stroke-linejoin="round"/>
<path d="M1005.76 707.09H619.206C614.442 707.094 609.723 706.159 605.321 704.338C600.918 702.518 596.917 699.848 593.547 696.48C590.177 693.113 587.503 689.114 585.679 684.713C583.855 680.312 582.916 675.594 582.916 670.83C582.916 661.213 586.736 651.99 593.536 645.19C600.336 638.39 609.559 634.57 619.176 634.57H1005.76V707.09Z" fill="#AD85AD" stroke="black" stroke-width="1.5" stroke-linecap="round" stroke-linejoin="round"/>
<path d="M1003.72 706.06C1023.45 706.06 1039.46 690.059 1039.46 670.32C1039.46 650.582 1023.45 634.58 1003.72 634.58C983.977 634.58 967.976 650.582 967.976 670.32C967.976 690.059 983.977 706.06 1003.72 706.06Z" fill="#AD85AD" stroke="black" stroke-width="1.5" stroke-linecap="round" stroke-linejoin="round"/>
<path d="M1106.86 634.57H643.195V515.57C643.195 508.798 644.529 502.092 647.121 495.835C649.712 489.578 653.511 483.893 658.3 479.104C663.088 474.316 668.773 470.517 675.03 467.926C681.287 465.334 687.993 464 694.765 464H1055.28C1062.05 464 1068.75 465.334 1075.01 467.926C1081.27 470.517 1086.95 474.316 1091.74 479.104C1096.53 483.893 1100.33 489.578 1102.92 495.835C1105.51 502.092 1106.85 508.798 1106.85 515.57V634.57H1106.86Z" fill="#AD85AD" stroke="black" stroke-width="1.5" stroke-linecap="round" stroke-linejoin="round"/>
<path d="M1007.44 602C1008.36 612.6 1006.51 623.2 1007.44 633.8H644.703C693.703 633.8 933.098 628.72 970.968 623.16C973.92 622.823 976.842 622.261 979.708 621.48C985.638 619.67 994.248 618.93 999.938 613C1002.67 610.126 1006.14 605.743 1007.44 602Z" fill="black" stroke="black" stroke-width="1.5" stroke-linecap="round" stroke-linejoin="round"/>
<path d="M1124.1 576.55L1111.91 633.28C1103.37 673.039 1081.1 708.517 1049 733.48L1040.59 740.02C1036.54 743.162 1031.57 744.869 1026.45 744.87C1023.36 744.871 1020.31 744.253 1017.47 743.051C1014.63 741.849 1012.06 740.089 1009.92 737.874C1007.77 735.659 1006.09 733.035 1004.98 730.159C1003.87 727.283 1003.35 724.212 1003.45 721.13C1004.97 671.256 1006.51 621.39 1008.05 571.53C1008.26 564.555 1011.14 557.926 1016.08 553.007C1021.03 548.087 1027.68 545.25 1034.66 545.08L1096.74 543.53C1100.86 543.429 1104.96 544.265 1108.71 545.975C1112.47 547.685 1115.79 550.225 1118.43 553.404C1121.06 556.582 1122.94 560.316 1123.92 564.325C1124.9 568.334 1124.96 572.514 1124.1 576.55Z" fill="#AD85AD" stroke="black" stroke-width="1.5" stroke-linecap="round" stroke-linejoin="round"/>
<path d="M280.639 575.77H119.279V692.2H280.639V575.77Z" fill="#FFE1B8" stroke="black" stroke-width="1.5" stroke-linecap="round" stroke-linejoin="round"/>
<path d="M472.64 575.77H278.6V692.2H472.64V575.77Z" fill="#FFE1B8" stroke="black" stroke-width="1.5" stroke-linecap="round" stroke-linejoin="round"/>
<path d="M137.149 705.47L135.619 804.02H143.789L155.529 703.94L137.149 705.47Z" fill="#FFE1B8" stroke="black" stroke-width="1.5" stroke-linecap="round" stroke-linejoin="round"/>
<path d="M186.171 705.47L184.641 804.02H192.811L204.561 703.94L186.171 705.47Z" fill="#FFCD88" stroke="black" stroke-width="1.5" stroke-linecap="round" stroke-linejoin="round"/>
<path d="M456.3 705.47L457.83 804.02H449.66L437.92 703.94L456.3 705.47Z" fill="#FFE1B8" stroke="black" stroke-width="1.5" stroke-linecap="round" stroke-linejoin="round"/>
<path d="M407.28 705.47L408.81 804.02H400.64L388.9 703.94L407.28 705.47Z" fill="#FFCD88" stroke="black" stroke-width="1.5" stroke-linecap="round" stroke-linejoin="round"/>
<path d="M472.64 632.96H277.58" stroke="black" stroke-width="1.5" stroke-linecap="round" stroke-linejoin="round"/>
<path fill-rule="evenodd" clip-rule="evenodd" d="M382.62 605.39C382.62 608.212 380.332 610.5 377.51 610.5C374.688 610.5 372.4 608.212 372.4 605.39C372.4 602.568 374.688 600.28 377.51 600.28C380.332 600.28 382.62 602.568 382.62 605.39ZM382.62 663.6C382.62 666.422 380.332 668.71 377.51 668.71C374.688 668.71 372.4 666.422 372.4 663.6C372.4 660.778 374.688 658.49 377.51 658.49C380.332 658.49 382.62 660.778 382.62 663.6Z" fill="#FFCD88"/>
<path d="M377.51 611.25C380.746 611.25 383.37 608.627 383.37 605.39H381.87C381.87 607.798 379.918 609.75 377.51 609.75V611.25ZM371.65 605.39C371.65 608.627 374.274 611.25 377.51 611.25V609.75C375.102 609.75 373.15 607.798 373.15 605.39H371.65ZM377.51 599.53C374.274 599.53 371.65 602.154 371.65 605.39H373.15C373.15 602.982 375.102 601.03 377.51 601.03V599.53ZM383.37 605.39C383.37 602.154 380.746 599.53 377.51 599.53V601.03C379.918 601.03 381.87 602.982 381.87 605.39H383.37ZM377.51 669.46C380.746 669.46 383.37 666.837 383.37 663.6H381.87C381.87 666.008 379.918 667.96 377.51 667.96V669.46ZM371.65 663.6C371.65 666.837 374.274 669.46 377.51 669.46V667.96C375.102 667.96 373.15 666.008 373.15 663.6H371.65ZM377.51 657.74C374.274 657.74 371.65 660.364 371.65 663.6H373.15C373.15 661.192 375.102 659.24 377.51 659.24V657.74ZM383.37 663.6C383.37 660.364 380.746 657.74 377.51 657.74V659.24C379.918 659.24 381.87 661.192 381.87 663.6H383.37Z" fill="black"/>
<path d="M482.09 691.7H112.89C109.085 691.7 106 694.785 106 698.59V698.6C106 702.405 109.085 705.49 112.89 705.49H482.09C485.895 705.49 488.98 702.405 488.98 698.6V698.59C488.98 694.785 485.895 691.7 482.09 691.7Z" fill="#FFCD88" stroke="black" stroke-width="1.5" stroke-linecap="round" stroke-linejoin="round"/>
<path d="M482.09 562H112.89C109.085 562 106 565.085 106 568.89V568.9C106 572.705 109.085 575.79 112.89 575.79H482.09C485.895 575.79 488.98 572.705 488.98 568.9V568.89C488.98 565.085 485.895 562 482.09 562Z" fill="#FFCD88" stroke="black" stroke-width="1.5" stroke-linecap="round" stroke-linejoin="round"/>
<path d="M186.131 705.73V710.13L203.591 710.19C203.851 708.64 204.101 707.09 204.361 705.53L186.131 705.73Z" fill="black" stroke="black" stroke-width="1.5" stroke-linecap="round" stroke-linejoin="round"/>
<path d="M389.131 705.73L389.641 710.02H407.261C407.261 708.54 407.341 707.02 407.391 705.57L389.131 705.73Z" fill="black" stroke="black" stroke-width="1.5" stroke-linecap="round" stroke-linejoin="round"/>
<path d="M164.041 550.43H250.851C252.326 550.43 253.786 550.721 255.149 551.285C256.511 551.849 257.749 552.677 258.792 553.719C259.835 554.762 260.662 556 261.226 557.363C261.791 558.725 262.081 560.185 262.081 561.66H152.801C152.801 560.185 153.092 558.723 153.657 557.36C154.222 555.997 155.05 554.759 156.094 553.716C157.138 552.673 158.377 551.846 159.74 551.282C161.104 550.718 162.565 550.429 164.041 550.43Z" fill="#D88B6D" stroke="black" stroke-width="1.5" stroke-linecap="round" stroke-linejoin="round"/>
<path d="M212.54 457.96H202.33V549.36H212.54V457.96Z" fill="#D88B6D" stroke="black" stroke-width="1.5" stroke-linecap="round" stroke-linejoin="round"/>
<path d="M138 457.96H276.89L262.08 340H159.95L138 457.96Z" fill="#8CA45B" stroke="black" stroke-width="1.5" stroke-linecap="round" stroke-linejoin="round"/>
<path d="M168.629 429.88L163.529 457.96" stroke="black" stroke-width="1.5" stroke-linecap="round" stroke-linejoin="round"/>
<path d="M176.8 438.05L173.23 457.96" stroke="black" stroke-width="1.5" stroke-linecap="round" stroke-linejoin="round"/>
<path d="M337.966 394.111C320.266 389.601 301.626 385.391 282.076 381.641C278.836 381.021 275.612 380.422 272.406 379.842C266.58 378.789 260.57 379.632 255.258 382.247C249.947 384.862 245.614 389.112 242.896 394.372L206.716 464.372L195.806 477.372C184.196 485.542 179.716 489.212 168.106 497.372C167.59 497.753 167.226 498.304 167.076 498.928C166.926 499.551 167 500.208 167.286 500.782C167.328 500.879 167.378 500.973 167.436 501.062C167.595 501.345 167.793 501.603 168.026 501.831C168.457 502.292 169.027 502.602 169.649 502.712C170.271 502.822 170.912 502.726 171.476 502.441C179.406 498.131 186.116 494.131 194.046 489.821C187.426 495.281 178.286 502.091 171.666 507.551C171.042 508.13 170.647 508.915 170.554 509.761C170.46 510.607 170.674 511.459 171.156 512.161V512.221C172.366 514.221 174.886 514.891 176.516 513.651C190.836 502.771 199.516 496.242 199.746 496.492C199.976 496.742 191.586 503.852 177.516 515.382C176.784 516.073 176.352 517.024 176.315 518.031C176.278 519.037 176.637 520.018 177.316 520.762L177.376 520.831C177.962 521.67 178.854 522.247 179.861 522.434C180.867 522.621 181.907 522.404 182.756 521.831C189.936 516.121 198.846 508.962 206.026 503.252C199.136 509.442 190.476 517.162 183.536 523.442C182.834 524.16 182.433 525.118 182.415 526.122C182.396 527.125 182.761 528.097 183.436 528.841L183.486 528.901C184.442 529.661 185.607 530.112 186.826 530.192C187.964 530.22 189.069 529.803 189.906 529.031L220.396 501.441L220.906 500.951C220.557 502.329 219.938 503.624 219.086 504.761L216.476 508.231C215.016 510.161 215.616 513.092 217.836 514.762C220.046 516.442 223.026 516.231 224.486 514.291L231.486 505.081C232.607 503.584 233.413 501.876 233.854 500.059C234.296 498.242 234.365 496.355 234.056 494.511C234.056 494.511 234.056 494.441 234.056 494.411C233.593 491.651 232.627 489.002 231.206 486.592C230.419 485.166 230.144 483.514 230.426 481.911C230.436 480.935 230.547 479.964 230.756 479.011C243.356 458.541 257.996 439.092 270.596 418.622C293.496 422.792 314.346 425.941 337.236 430.111C338.552 426.551 339.497 422.865 340.056 419.111C341.243 410.726 340.528 402.182 337.966 394.111Z" fill="#D88B6D" stroke="black" stroke-width="1.5" stroke-linecap="round" stroke-linejoin="round"/>
<path d="M209.237 506.622C204.017 500.942 198.927 494.932 193.707 489.252L209.237 506.622Z" fill="#D88B6D"/>
<path d="M209.237 506.622C204.017 500.942 198.927 494.932 193.707 489.252" stroke="black" stroke-width="1.5" stroke-linecap="round" stroke-linejoin="round"/>
<path d="M580.347 336.652C580.205 335.858 579.852 335.118 579.324 334.508C578.796 333.899 578.113 333.444 577.347 333.192L556.787 326.022L569.787 326.242C570.785 326.283 571.763 325.96 572.54 325.332C573.316 324.705 573.838 323.816 574.007 322.832V322.772C574.14 321.832 574.058 320.875 573.767 319.972C573.416 318.988 572.751 318.147 571.874 317.58C570.998 317.012 569.958 316.749 568.917 316.832L556.157 317.762C545.327 318.552 539.817 319.002 535.527 321.502C532.603 323.217 530.094 325.556 528.177 328.352C523.317 338.965 518.46 349.568 513.607 360.162C502.887 377.942 492.607 396.412 481.867 414.162L414.207 395.812C416.553 404.688 417.518 413.872 417.067 423.042C416.84 427.682 416.245 432.296 415.287 436.842L485.707 454.442C489.759 455.439 494.023 455.119 497.881 453.528C501.738 451.936 504.987 449.156 507.157 445.592C518.547 421.012 528.587 397.942 539.957 373.392L558.957 381.612C561.237 382.672 564.077 380.782 564.837 378.702C564.997 378.191 565.055 377.654 565.006 377.12C564.958 376.587 564.804 376.069 564.554 375.596C564.304 375.122 563.962 374.703 563.549 374.363C563.136 374.022 562.659 373.767 562.147 373.612C556.417 371.242 550.887 368.432 545.147 366.072L551.567 350.772C552.189 350.244 552.917 349.858 553.703 349.638C554.488 349.419 555.312 349.373 556.117 349.502L556.547 349.602C557.704 349.899 558.697 350.642 559.308 351.669C559.919 352.696 560.098 353.923 559.807 355.082L558.757 358.922C558.465 359.704 558.494 360.571 558.839 361.331C559.184 362.092 559.816 362.686 560.597 362.982C561.572 363.437 562.675 363.539 563.717 363.272C564.457 363.032 565.507 362.382 567.017 358.272C567.779 356.159 568.358 353.984 568.747 351.772C569.727 352.952 570.7 354.135 571.667 355.322C572.235 356.01 572.974 356.536 573.809 356.848C574.644 357.161 575.547 357.248 576.427 357.102C576.633 357.078 576.83 357.01 577.007 356.902C577.733 356.486 578.328 355.877 578.727 355.142C579.024 354.564 579.153 353.915 579.098 353.267C579.043 352.62 578.807 352.001 578.417 351.482C576.065 348.162 573.318 345.14 570.237 342.482C567.995 340.415 565.56 338.567 562.967 336.962L574.427 341.042C575.64 341.494 576.98 341.458 578.167 340.942C578.663 340.725 579.104 340.401 579.458 339.993C579.813 339.585 580.072 339.103 580.217 338.582C580.407 337.957 580.452 337.297 580.347 336.652Z" fill="#D88B6D" stroke="black" stroke-width="1.5" stroke-linecap="round" stroke-linejoin="round"/>
<path d="M568.736 351.712C568.043 349.424 566.818 347.333 565.161 345.611C563.504 343.888 561.462 342.583 559.203 341.802C556.944 341.022 554.532 340.788 552.165 341.12C549.798 341.452 547.543 342.34 545.586 343.712" fill="#D88B6D"/>
<path d="M568.736 351.712C568.043 349.424 566.818 347.333 565.161 345.611C563.504 343.888 561.462 342.583 559.203 341.802C556.944 341.022 554.532 340.788 552.165 341.12C549.798 341.452 547.543 342.34 545.586 343.712" stroke="black" stroke-width="1.5" stroke-linecap="round" stroke-linejoin="round"/>
<path d="M543.156 335.812C545.437 334.359 548.04 333.49 550.736 333.282C555.109 333.024 559.433 334.309 562.956 336.912" fill="#D88B6D"/>
<path d="M543.156 335.812C545.437 334.359 548.04 333.49 550.736 333.282C555.109 333.024 559.433 334.309 562.956 336.912" stroke="black" stroke-width="1.5" stroke-linecap="round" stroke-linejoin="round"/>
<path d="M540.887 326.702C543.035 326.059 545.243 325.636 547.477 325.442C550.594 325.189 553.731 325.374 556.797 325.992" fill="#D88B6D"/>
<path d="M540.887 326.702C543.035 326.059 545.243 325.636 547.477 325.442C550.594 325.189 553.731 325.374 556.797 325.992" stroke="black" stroke-width="1.5" stroke-linecap="round" stroke-linejoin="round"/>
<path d="M392.688 412.172L398.298 407.012C398.158 405.682 397.358 396.622 403.568 391.332C406.088 389.328 409.148 388.12 412.358 387.862C423.518 386.272 432.858 392.642 436.158 395.142L454.858 400.262C455.417 422.532 447.331 444.153 432.298 460.592L392.688 412.172Z" fill="#FFCD88" stroke="black" stroke-width="1.5" stroke-linecap="round" stroke-linejoin="round"/>
<path d="M399.476 396.442H399.326C402.071 419.751 403.636 443.185 404.016 466.652C404.366 487.972 403.706 507.952 402.416 526.392L436.626 518.222C434.354 514.607 432.42 510.791 430.846 506.822C425.846 494.252 426.416 469.772 426.416 469.712C425.876 458.892 425.333 448.072 424.786 437.252" fill="#FFCD88"/>
<path d="M399.476 396.442H399.326C402.071 419.751 403.636 443.185 404.016 466.652C404.366 487.972 403.706 507.952 402.416 526.392L436.626 518.222C434.355 514.607 432.42 510.791 430.846 506.822C425.846 494.252 426.416 469.772 426.416 469.712C425.876 458.892 425.333 448.072 424.786 437.252" stroke="black" stroke-width="1.5" stroke-linecap="round" stroke-linejoin="round"/>
<path d="M435.477 809.592C432.016 803.598 429.264 797.222 427.277 790.592C428.177 780.159 429.154 769.692 430.207 759.192C417.44 760.299 404.64 761.632 391.807 763.192C392.157 769.662 392.337 776.242 392.177 784.122C391.937 795.752 391.047 805.322 390.297 811.762C392.577 814.652 411.967 838.522 438.037 835.622C443.216 835.021 448.239 833.461 452.847 831.022C445.98 824.823 440.12 817.593 435.477 809.592Z" fill="#D88B6D" stroke="black" stroke-width="1.5" stroke-linecap="round" stroke-linejoin="round"/>
<path d="M394.526 793.992C394.109 793.537 393.579 793.199 392.99 793.014C392.401 792.829 391.773 792.803 391.171 792.938C390.568 793.073 390.012 793.364 389.558 793.783C389.104 794.201 388.769 794.732 388.586 795.322C384.926 805.132 384.856 812.322 385.706 817.462C386.006 819.252 386.426 820.902 387.496 825.622C388.496 829.922 388.766 831.372 388.926 832.112C390.049 837.397 390.89 842.738 391.446 848.112L397.326 848.032L399.156 824.912L431.356 847.232C432.104 847.761 432.999 848.044 433.916 848.042L469.066 848.222C472.156 848.152 474.556 844.872 474.446 840.862C474.356 837.592 472.596 834.722 470.136 833.862L454.976 828.442C453.897 828.06 452.76 827.873 451.616 827.892H450.416C450.585 828.379 450.56 828.913 450.346 829.382C449.296 831.312 443.936 830.242 441.886 829.832C435.092 828.509 428.586 825.997 422.666 822.412C420.628 821.144 418.762 819.618 417.116 817.872L394.526 793.992Z" fill="#8CA45B" stroke="black" stroke-width="1.5" stroke-linecap="round" stroke-linejoin="round"/>
<path d="M396.986 819.302L385.066 814.702C386.436 820.922 387.126 823.982 387.496 825.622C387.626 826.172 388.076 828.142 388.646 830.792C388.786 831.422 388.866 831.792 388.926 832.112C390.05 837.397 390.891 842.737 391.446 848.112L397.326 848.032L399.156 824.912L431.356 847.232C432.105 847.761 433 848.044 433.916 848.042L436.986 847.942L396.986 819.302Z" fill="black"/>
<path d="M385.896 814.702C388.306 815.702 389.716 816.702 392.126 817.702C395.973 819.28 399.627 821.293 403.016 823.702C414.35 831.775 425.683 839.842 437.016 847.902" stroke="black" stroke-linecap="round" stroke-linejoin="round"/>
<path d="M394.256 809.592C390.795 803.598 388.044 797.222 386.056 790.592C386.956 780.159 387.933 769.692 388.986 759.192C376.22 760.299 363.419 761.632 350.586 763.192C350.936 769.662 351.116 776.242 350.956 784.122C350.716 795.752 349.816 805.322 349.076 811.762C351.356 814.652 370.746 838.522 396.816 835.622C401.992 835.02 407.011 833.46 411.616 831.022C404.756 824.82 398.9 817.59 394.256 809.592Z" fill="#D88B6D" stroke="black" stroke-width="1.5" stroke-linecap="round" stroke-linejoin="round"/>
<path d="M353.336 793.992C352.919 793.537 352.389 793.199 351.8 793.014C351.211 792.829 350.584 792.803 349.981 792.938C349.379 793.073 348.823 793.364 348.369 793.783C347.915 794.201 347.579 794.732 347.396 795.322C343.736 805.132 343.666 812.322 344.516 817.462C344.806 819.252 345.236 820.902 346.306 825.622C347.306 829.922 347.576 831.372 347.736 832.112C348.859 837.397 349.701 842.738 350.256 848.112L356.136 848.032C356.736 840.325 357.343 832.618 357.956 824.912L390.166 847.232C390.915 847.761 391.81 848.044 392.726 848.042L427.876 848.222C430.966 848.152 433.366 844.872 433.256 840.862C433.166 837.592 431.406 834.722 428.946 833.862L413.786 828.442C412.708 828.06 411.57 827.874 410.426 827.892H409.226C409.396 828.379 409.371 828.913 409.156 829.382C408.106 831.312 402.736 830.242 400.696 829.832C393.9 828.499 387.393 825.973 381.476 822.372C379.437 821.102 377.568 819.576 375.916 817.832C368.396 809.885 360.87 801.939 353.336 793.992Z" fill="#8CA45B" stroke="black" stroke-width="1.5" stroke-linecap="round" stroke-linejoin="round"/>
<path d="M355.787 819.302L343.877 814.702C345.247 820.922 345.937 823.982 346.307 825.622C346.427 826.172 346.887 828.142 347.457 830.792C347.597 831.422 347.677 831.792 347.737 832.112C348.86 837.397 349.701 842.737 350.257 848.112L356.137 848.032C356.737 840.325 357.344 832.618 357.957 824.912L390.167 847.232C390.916 847.761 391.81 848.044 392.727 848.042L395.787 847.942L355.787 819.302Z" fill="black"/>
<path d="M344.707 814.702C347.117 815.702 348.527 816.702 350.937 817.702C354.784 819.28 358.438 821.293 361.827 823.702L395.827 847.902" stroke="black" stroke-linecap="round" stroke-linejoin="round"/>
<path d="M358.277 561.152C361.277 566.265 364.387 571.395 367.607 576.542C387.537 608.422 409.077 629.793 430.987 654.943C419.047 685.593 408.607 728.132 402.617 768.112C401.197 777.612 400.083 786.873 399.277 795.893C430.497 795.483 421.127 795.842 452.347 795.432C451.607 765.002 456.447 742.012 460.777 727.052C470.267 694.222 484.217 676.052 481.457 645.852C480.351 634.425 477.169 623.297 472.067 613.013L432.207 547.352C426.647 538.629 422.104 529.298 418.667 519.542L412.477 502.072L339.477 501.562L343.617 537.013L344.887 539.102" fill="#F25A33"/>
<path d="M358.277 561.152C361.277 566.265 364.387 571.395 367.607 576.542C387.537 608.422 409.077 629.793 430.987 654.943C419.047 685.593 408.607 728.132 402.617 768.112C401.197 777.612 400.083 786.873 399.277 795.893C430.497 795.483 421.127 795.842 452.347 795.432C451.607 765.002 456.447 742.012 460.777 727.052C470.267 694.222 484.217 676.052 481.457 645.852C480.351 634.425 477.169 623.297 472.067 613.013L432.207 547.352C426.647 538.629 422.104 529.298 418.667 519.542L412.477 502.072L339.477 501.562L343.617 537.013L344.887 539.102" stroke="black" stroke-width="1.5" stroke-linecap="round" stroke-linejoin="round"/>
<path d="M333.627 499.002C329.917 505.072 329.127 507.312 326.887 511.452C325.367 514.282 324.127 516.252 323.977 516.452C322.137 519.452 313.337 542.212 322.977 565.642C327.457 576.522 334.037 583.012 338.637 587.772C350.897 600.502 367.477 620.032 385.537 649.442C375.737 671.292 366.007 694.612 356.607 719.372C346.527 745.922 337.827 771.502 330.297 795.872L419.627 796.172C420.227 789.842 424.027 750.922 433.197 718.602C437.577 703.172 446.017 679.252 449.307 671.682C449.447 671.372 449.947 670.202 450.527 668.612C453.332 660.964 454.301 652.765 453.356 644.674C452.412 636.583 449.579 628.827 445.087 622.032C424.367 590.212 403.657 566.332 382.937 534.512L391.067 531.152" fill="#F25A33"/>
<path d="M333.627 499.002C329.917 505.072 329.127 507.312 326.887 511.452C325.367 514.282 324.127 516.252 323.977 516.452C322.137 519.452 313.337 542.212 322.977 565.642C327.457 576.522 334.037 583.012 338.637 587.772C350.897 600.502 367.477 620.032 385.537 649.442C375.737 671.292 366.007 694.612 356.607 719.372C346.527 745.922 337.827 771.502 330.297 795.872L419.627 796.172C420.227 789.842 424.027 750.922 433.197 718.602C437.577 703.172 446.017 679.252 449.307 671.682C449.447 671.372 449.947 670.202 450.527 668.612C453.332 660.964 454.301 652.765 453.356 644.674C452.412 636.583 449.579 628.827 445.087 622.032C424.367 590.212 403.657 566.332 382.937 534.512L391.067 531.152" stroke="black" stroke-width="1.5" stroke-linecap="round" stroke-linejoin="round"/>
<path d="M325 515.5L321 524.5L346.006 523.25C348.804 523.11 351 520.801 351 518L337.5 501.5L325 515.5Z" fill="black" stroke="black" stroke-linecap="round" stroke-linejoin="round"/>
<path d="M388.699 642L386 649.594L390 652" stroke="black" stroke-width="1.5" stroke-linecap="round" stroke-linejoin="round"/>
<path d="M338.477 395.852L398.237 396.482C402.336 396.533 406.29 398.005 409.424 400.648C412.558 403.291 414.676 406.94 415.417 410.972C416.169 414.97 416.703 419.006 417.017 423.062C418.467 443.346 414.68 463.663 406.017 482.062L412.557 502.062L323.197 500.822L330.197 480.952C332.964 452.612 335.724 424.245 338.477 395.852Z" fill="white" stroke="black" stroke-width="1.5" stroke-linecap="round" stroke-linejoin="round"/>
<path d="M405.937 482.162L392.887 482.852" stroke="black" stroke-width="1.5" stroke-linecap="round" stroke-linejoin="round"/>
<path d="M374.707 456.592C373.087 469.012 368.347 472.702 362.497 491.792C359.307 502.172 353.747 518.002 352.337 523.742L302.477 509.082L309.547 499.912C318.401 490.117 323.971 477.799 325.477 464.682C328.324 439.504 337.116 415.364 351.127 394.252C353.902 396.363 356.495 398.705 358.877 401.252C365.819 408.734 370.864 417.774 373.587 427.612C377.047 440.122 375.527 450.322 374.707 456.592Z" fill="#FFCD88" stroke="black" stroke-width="1.5" stroke-linecap="round" stroke-linejoin="round"/>
<path d="M333.876 441.302C321.422 440.104 308.859 440.778 296.606 443.302C293.006 444.062 289.606 444.942 286.386 445.902C285.466 433.602 284.446 421.162 283.326 408.582C282.439 398.628 281.502 388.772 280.516 379.012L314.566 383.822C315.926 383.402 336.046 377.562 347.836 389.352C350.234 391.771 351.5 395.5 351.5 395.5" fill="#FFCD88"/>
<path d="M333.876 441.302C321.422 440.104 308.859 440.778 296.606 443.302C293.006 444.062 289.606 444.942 286.386 445.902C285.466 433.602 284.446 421.162 283.326 408.582C282.439 398.628 281.502 388.772 280.516 379.012L314.566 383.822C315.926 383.402 336.046 377.562 347.836 389.352C350.234 391.771 351.5 395.5 351.5 395.5" stroke="black" stroke-width="1.5" stroke-linecap="round" stroke-linejoin="round"/>
<path d="M220.387 493.562C220.969 494.76 221.309 496.062 221.387 497.392C221.453 498.733 221.259 500.074 220.817 501.342" stroke="black" stroke-width="1.5" stroke-linecap="round" stroke-linejoin="round"/>
<path d="M347.554 326.598C337.754 347.918 341.305 371.508 355.195 383.868C376.895 403.198 412.355 384.868 416.475 382.678C417.808 381.958 419.091 381.218 420.324 380.458C423.92 378.199 426.51 374.644 427.558 370.528C428.606 366.413 428.032 362.052 425.955 358.348C424.026 354.891 422.335 351.306 420.894 347.618C412.894 327.028 417.494 315.458 411.274 309.408C405.444 303.728 390.144 302.958 347.554 326.598Z" fill="black" stroke="black" stroke-width="1.5" stroke-linecap="round" stroke-linejoin="round"/>
<path d="M362.045 368.418L388.985 369.308C392.285 370.093 395.733 369.987 398.979 369.001C402.224 368.015 405.149 366.185 407.455 363.698C409.893 360.984 411.521 357.641 412.155 354.048C412.433 352.318 412.467 350.558 412.255 348.818C411.525 342.118 411.185 339.708 410.765 335.048C409.845 324.938 413.555 323.788 412.045 314.848C411.555 311.958 410.915 308.218 408.375 304.848C402.715 297.218 391.005 297.098 387.565 297.118C382.634 297.161 377.768 298.244 373.285 300.298L362.045 368.418Z" fill="#D88B6D"/>
<path d="M347.554 326.598C346.77 323.559 346.593 320.396 347.032 317.288C347.471 314.181 348.519 311.19 350.114 308.488C356.674 297.818 369.294 297.488 370.114 297.488L380.824 296.918C382.604 296.498 398.614 292.988 409.294 303.218C410.779 304.651 412.079 306.263 413.165 308.018C413.529 308.744 413.775 309.524 413.895 310.328C414.537 313.771 414.591 317.297 414.054 320.758L383.935 312.758C381.853 314.882 371.536 330.887 370.114 333.5C363.784 345.19 377.654 340.988 373.034 352.588C370.562 358.61 358.774 373.074 354 377.5L347.554 326.598Z" fill="black" stroke="black" stroke-width="1.5" stroke-linecap="round" stroke-linejoin="round"/>
<path d="M389.496 369.358C392.376 378.238 395.246 387.358 398.126 396.268C390.359 401.841 380.878 404.5 371.346 403.778C363.699 403.086 356.411 400.215 350.346 395.508L362.636 368.228" fill="#D88B6D"/>
<path d="M389.496 369.358C392.376 378.238 395.246 387.358 398.126 396.268C390.359 401.841 380.878 404.5 371.346 403.778C363.699 403.086 356.411 400.215 350.346 395.508L362.636 368.228" stroke="black" stroke-width="1.5" stroke-linecap="round" stroke-linejoin="round"/>
<path d="M397.225 345.338H398.875C399.502 345.339 400.117 345.167 400.653 344.842C401.189 344.517 401.625 344.051 401.914 343.495C402.203 342.938 402.333 342.313 402.291 341.688C402.249 341.062 402.036 340.461 401.675 339.948L397.215 333.578" stroke="black" stroke-width="1.5" stroke-linecap="round" stroke-linejoin="round"/>
<path d="M402.454 349.368C402.497 349.368 402.539 349.38 402.576 349.402C402.613 349.425 402.643 349.456 402.664 349.494C402.684 349.532 402.694 349.574 402.692 349.617C402.691 349.66 402.678 349.702 402.654 349.738C402.202 350.553 401.541 351.232 400.738 351.704C399.936 352.177 399.021 352.427 398.089 352.427C397.158 352.427 396.243 352.177 395.44 351.704C394.638 351.232 393.976 350.553 393.524 349.738C393.503 349.702 393.492 349.66 393.492 349.618C393.492 349.575 393.504 349.534 393.525 349.497C393.546 349.461 393.577 349.43 393.614 349.41C393.65 349.389 393.692 349.378 393.734 349.378L402.454 349.368Z" fill="black"/>
<path fill-rule="evenodd" clip-rule="evenodd" d="M386.595 335.888C386.595 337.374 385.964 338.578 385.186 338.578C384.407 338.578 383.775 337.374 383.775 335.888C383.775 334.403 384.407 333.198 385.186 333.198C385.964 333.198 386.595 334.403 386.595 335.888ZM408.166 335.888C408.166 337.374 407.534 338.578 406.756 338.578C405.977 338.578 405.346 337.374 405.346 335.888C405.346 334.403 405.977 333.198 406.756 333.198C407.534 333.198 408.166 334.403 408.166 335.888Z" fill="black"/>
<path d="M364.245 327.468L362.405 327.408C360.323 327.342 358.297 328.091 356.758 329.495C355.219 330.9 354.289 332.849 354.165 334.928C354.064 336.728 354.574 338.51 355.612 339.984C356.65 341.457 358.156 342.537 359.885 343.048" fill="#D88B6D"/>
<path fill-rule="evenodd" clip-rule="evenodd" d="M380.186 331.228C380.962 329.856 382.209 328.812 383.696 328.288L380.186 331.228ZM410.776 331.228C410 329.856 408.753 328.812 407.266 328.288L410.776 331.228Z" fill="white"/>
<path fill-rule="evenodd" clip-rule="evenodd" d="M384.347 327.917C384.527 328.232 384.455 328.63 384.177 328.863L380.667 331.803C380.389 332.036 379.984 332.036 379.706 331.805C379.427 331.573 379.354 331.174 379.533 330.859C380.398 329.329 381.789 328.164 383.447 327.581C383.789 327.46 384.168 327.602 384.347 327.917ZM406.614 327.917C406.794 327.602 407.173 327.46 407.515 327.581C409.173 328.164 410.563 329.329 411.428 330.859C411.607 331.174 411.534 331.573 411.255 331.805C410.977 332.036 410.572 332.036 410.294 331.803L406.784 328.863C406.506 328.63 406.435 328.232 406.614 327.917Z" fill="black"/>
<path d="M381.225 367.558L388.985 369.308C392.285 370.093 395.735 369.987 398.98 368.999C402.226 368.012 405.151 366.179 407.455 363.688C409.894 360.979 411.523 357.639 412.155 354.048C412.433 352.318 412.466 350.558 412.254 348.818C411.524 342.118 411.184 339.708 410.764 335.048C409.844 324.938 413.554 323.788 412.044 314.848C411.554 311.958 410.915 308.218 408.375 304.848C402.125 296.428 389.594 296.998 387.564 297.118C385.084 297.268 383.045 297.028 381.725 297.118" stroke="black" stroke-width="1.5" stroke-linecap="round" stroke-linejoin="round"/>
<path d="M634.194 741.958C623.189 742.539 612.233 743.829 601.394 745.818C588.814 748.138 583.304 750.148 579.764 755.078L579.674 755.208C578.811 756.478 578.279 757.943 578.127 759.471C577.976 760.998 578.209 762.54 578.805 763.954C579.402 765.369 580.343 766.611 581.542 767.569C582.742 768.527 584.162 769.17 585.674 769.438L668.864 784.898C670.14 785.135 671.454 785.066 672.698 784.696C673.942 784.326 675.08 783.665 676.019 782.768C676.958 781.872 677.67 780.765 678.096 779.539C678.523 778.313 678.653 777.004 678.474 775.718L674.364 746.098L671.364 726.728L641.424 721.168L634.194 741.958Z" fill="#FFCD88" stroke="black" stroke-width="1.5" stroke-linecap="round" stroke-linejoin="round"/>
<path d="M674.981 749.538C666.581 750.698 653.881 751.018 640.711 745.298C638.471 744.32 636.294 743.205 634.191 741.958L641.381 721.168L671.321 726.728L674.981 749.538Z" fill="white" stroke="black" stroke-width="1.5" stroke-linecap="round" stroke-linejoin="round"/>
<path d="M579.322 764.008L675.972 781.968" stroke="black" stroke-width="1.5" stroke-linecap="round" stroke-linejoin="round"/>
<path d="M676.284 762.297C671.376 760.581 666.003 760.767 661.224 762.817C652.154 766.817 649.854 776.047 649.604 777.117" stroke="black" stroke-width="1.5" stroke-linecap="round" stroke-linejoin="round"/>
<path d="M717.833 617.038L719.193 624.928L712.312 630.458" stroke="black" stroke-width="1.5" stroke-linecap="round" stroke-linejoin="round"/>
<path d="M634.193 741.958L616.083 730.058C615.664 729.78 615.186 729.602 614.687 729.537C614.188 729.472 613.681 729.522 613.204 729.683C612.728 729.844 612.294 730.112 611.937 730.467C611.58 730.821 611.308 731.253 611.143 731.728C610.994 732.154 610.933 732.606 610.965 733.057C610.997 733.508 611.121 733.947 611.329 734.348C611.536 734.749 611.824 735.103 612.174 735.388C612.524 735.674 612.929 735.885 613.363 736.008L634.193 741.958Z" stroke="black" stroke-width="1.5" stroke-linecap="round" stroke-linejoin="round"/>
<path d="M633.643 741.938L616.643 749.938C616.248 750.125 615.901 750.399 615.629 750.74C615.356 751.081 615.164 751.479 615.067 751.905C614.971 752.33 614.973 752.773 615.073 753.198C615.172 753.623 615.367 754.018 615.643 754.357C615.89 754.659 616.197 754.907 616.544 755.086C616.891 755.265 617.271 755.37 617.66 755.398C618.05 755.425 618.44 755.373 618.809 755.244C619.177 755.115 619.515 754.912 619.803 754.648L633.643 741.938Z" stroke="black" stroke-width="1.5" stroke-linecap="round" stroke-linejoin="round"/>
<path d="M861.273 808.728C850.568 811.343 840.043 814.643 829.763 818.608C817.823 823.228 812.763 826.228 810.223 831.718C810.204 831.77 810.18 831.82 810.153 831.868C809.542 833.273 809.292 834.808 809.424 836.334C809.557 837.859 810.067 839.328 810.91 840.607C811.753 841.886 812.902 842.934 814.252 843.657C815.602 844.38 817.111 844.755 818.643 844.748L903.273 844.498C904.572 844.497 905.853 844.186 907.009 843.591C908.164 842.997 909.162 842.136 909.919 841.08C910.676 840.024 911.171 838.803 911.363 837.517C911.555 836.232 911.438 834.919 911.023 833.688L901.483 805.348L894.903 786.878L864.443 786.968C863.403 794.215 862.346 801.468 861.273 808.728Z" fill="#FFCD88" stroke="black" stroke-width="1.5" stroke-linecap="round" stroke-linejoin="round"/>
<path d="M902.762 808.608C894.762 811.308 882.302 813.988 868.292 810.798C865.916 810.259 863.578 809.567 861.292 808.728L864.492 786.968L894.952 786.878L902.762 808.608Z" fill="white" stroke="black" stroke-width="1.5" stroke-linecap="round" stroke-linejoin="round"/>
<path d="M811.452 840.588L909.742 840.298" stroke="black" stroke-width="1.5" stroke-linecap="round" stroke-linejoin="round"/>
<path d="M906.402 820.878C906.402 820.878 889.302 815.238 882.932 840.398" stroke="black" stroke-width="1.5" stroke-linecap="round" stroke-linejoin="round"/>
<path fill-rule="evenodd" clip-rule="evenodd" d="M826.817 567.271L824.443 568.918C817.704 572.034 810.899 575.457 804.091 578.881C796.957 582.469 789.819 586.059 782.753 589.298L725.053 617.638C718.743 636.869 710.964 657.924 703.187 678.973C695.459 699.889 687.733 720.799 681.453 739.908L624.793 725.298C627.543 708.943 635.61 687.386 643.639 665.929C648.865 651.962 654.075 638.038 657.793 625.618C661.04 614.718 664.433 604.222 667.973 594.128C672.502 581.044 681.058 569.731 692.413 561.808C706.423 552.041 718.57 545.94 730.722 539.836C742.857 533.74 754.998 527.641 769.003 517.888C774.211 515.887 778.165 513.135 782.118 510.384C786.067 507.635 790.016 504.887 795.213 502.888L881.002 527.402L918.974 509.458C918.974 510.041 918.917 510.918 918.846 512.001C918.81 512.553 918.771 513.16 918.734 513.808C918.407 519.428 918.007 525.001 917.534 530.528C915.958 549.447 910.28 567.796 900.894 584.298C897.807 589.685 894.724 595.075 891.644 600.468L861.074 667.548L898.154 786.148L842.414 804.038C829.22 776.9 817.715 748.974 807.964 720.418C804.284 709.658 800.95 699.141 797.964 688.868C796.374 683.428 794.414 672.038 799.114 648.368C805.594 615.838 820.644 580.988 826.644 567.658C826.702 567.527 826.76 567.398 826.817 567.271Z" fill="black"/>
<path d="M855.382 661.948L861.072 667.598L858.672 676.088" stroke="white" stroke-width="1.5" stroke-linecap="round" stroke-linejoin="round"/>
<path d="M861.643 808.678L840.813 802.678C840.329 802.537 839.819 802.509 839.323 802.596C838.827 802.683 838.357 802.882 837.95 803.178C837.542 803.475 837.208 803.86 836.973 804.306C836.738 804.751 836.608 805.245 836.593 805.748C836.579 806.198 836.657 806.647 836.822 807.066C836.987 807.485 837.236 807.866 837.553 808.186C837.87 808.506 838.249 808.758 838.667 808.927C839.085 809.096 839.532 809.178 839.983 809.168L861.643 808.678Z" stroke="black" stroke-width="1.5" stroke-linecap="round" stroke-linejoin="round"/>
<path d="M861.062 808.828L847.202 821.518C846.881 821.812 846.63 822.176 846.47 822.581C846.31 822.987 846.244 823.424 846.278 823.858C846.311 824.293 846.444 824.715 846.665 825.09C846.885 825.466 847.189 825.787 847.553 826.028C847.882 826.241 848.252 826.385 848.639 826.45C849.026 826.515 849.422 826.5 849.803 826.406C850.184 826.313 850.542 826.142 850.855 825.905C851.168 825.668 851.429 825.37 851.622 825.028C854.762 819.641 857.909 814.241 861.062 808.828Z" stroke="black" stroke-width="1.5" stroke-linecap="round" stroke-linejoin="round"/>
<path d="M826.673 567.658L828.203 564.318L819.263 559.598" stroke="white" stroke-width="1.5" stroke-linecap="round" stroke-linejoin="round"/>
<path d="M725.053 617.678L720.203 615.768" stroke="white" stroke-width="1.5" stroke-linecap="round" stroke-linejoin="round"/>
<path d="M651.594 333.018L668.814 346.938L690.894 316.678C689.154 315.684 687.596 314.402 686.284 312.888C683.404 309.558 682.984 306.548 681.014 302.498C680.064 300.498 671.154 291.138 668.604 288.288C667.929 287.545 667.178 286.875 666.364 286.288L652.464 276.158C650.394 274.638 647.244 275.328 645.374 277.748L645.174 278.028C644.592 278.884 644.147 279.825 643.854 280.818L624.364 266.818C622.204 265.268 618.914 265.818 616.894 268.318C616.774 268.458 616.664 268.608 616.554 268.758L616.274 269.168C614.604 271.838 615.084 275.098 617.214 276.648L645.394 297.168C643.486 298.014 641.871 299.406 640.754 301.168C639.904 302.513 639.377 304.036 639.214 305.618C637.568 306.212 636.163 307.329 635.214 308.798C634.409 310.02 633.965 311.445 633.934 312.908C632.325 313.875 630.957 315.195 629.934 316.768C629.328 317.582 629.054 318.595 629.167 319.604C629.28 320.612 629.772 321.539 630.544 322.198L646.794 334.048L651.594 333.018Z" fill="#F7CCB9" stroke="black" stroke-width="1.5" stroke-linecap="round" stroke-linejoin="round"/>
<path d="M663.022 307.118C661.907 306.289 660.987 305.225 660.327 304.002C659.667 302.779 659.283 301.426 659.202 300.038C659.057 297.667 659.555 295.299 660.642 293.188" fill="#F7CCB9"/>
<path d="M663.022 307.118C661.907 306.289 660.987 305.225 660.327 304.002C659.667 302.779 659.283 301.426 659.202 300.038C659.057 297.667 659.555 295.299 660.642 293.188" stroke="black" stroke-width="1.5" stroke-linecap="round" stroke-linejoin="round"/>
<path d="M659.383 295.348L645.793 285.438C645.098 284.896 644.555 284.185 644.215 283.372C643.875 282.559 643.751 281.673 643.853 280.798" fill="#F7CCB9"/>
<path d="M659.383 295.348L645.793 285.438C645.098 284.896 644.555 284.185 644.215 283.372C643.875 282.559 643.751 281.673 643.853 280.798" stroke="black" stroke-width="1.5" stroke-linecap="round" stroke-linejoin="round"/>
<path d="M644.973 298.358L663.784 312.298C664.358 312.823 664.705 313.55 664.754 314.326C664.802 315.102 664.548 315.866 664.043 316.458L662.094 319.138C661.68 319.8 661.025 320.275 660.266 320.462C659.508 320.649 658.707 320.533 658.034 320.138L640.644 307.418L639.244 305.638" fill="#F7CCB9"/>
<path d="M644.973 298.358L663.784 312.298C664.358 312.823 664.705 313.55 664.754 314.326C664.802 315.102 664.548 315.866 664.043 316.458L662.094 319.138C661.68 319.8 661.025 320.275 660.266 320.462C659.508 320.649 658.707 320.533 658.034 320.138L640.644 307.418L639.244 305.638" stroke="black" stroke-width="1.5" stroke-linecap="round" stroke-linejoin="round"/>
<path d="M633.902 312.928C634.005 313.667 634.358 314.348 634.902 314.858C635.602 315.448 647.442 323.768 652.442 327.278C653.118 327.679 653.923 327.798 654.686 327.612C655.449 327.425 656.108 326.946 656.522 326.278L658.042 324.188C658.514 323.629 658.773 322.92 658.773 322.188C658.773 321.456 658.514 320.748 658.042 320.188" fill="#F7CCB9"/>
<path d="M633.902 312.928C634.005 313.667 634.358 314.348 634.902 314.858C635.602 315.448 647.442 323.768 652.442 327.278C653.118 327.679 653.923 327.798 654.686 327.612C655.449 327.425 656.108 326.946 656.522 326.278L658.042 324.188C658.514 323.629 658.773 322.92 658.773 322.188C658.773 321.456 658.514 320.748 658.042 320.188" stroke="black" stroke-width="1.5" stroke-linecap="round" stroke-linejoin="round"/>
<path d="M651.592 333.018C652.535 332.334 653.199 331.333 653.462 330.198C653.595 329.619 653.578 329.017 653.414 328.446C653.249 327.876 652.943 327.356 652.522 326.938" fill="#F7CCB9"/>
<path d="M651.592 333.018C652.535 332.334 653.199 331.333 653.462 330.198C653.595 329.619 653.578 329.017 653.414 328.446C653.249 327.876 652.943 327.356 652.522 326.938" stroke="black" stroke-width="1.5" stroke-linecap="round" stroke-linejoin="round"/>
<path d="M839.944 415.208C836.544 397.335 833.141 379.465 829.734 361.598L752.464 355.718C735.702 342.052 717.457 330.312 698.074 320.718L674.424 353.168C702.194 393.398 729.354 404.458 745.474 408.058C748.554 408.738 752.154 409.368 763.864 410.608C795.934 414.028 821.994 414.978 839.944 415.208Z" fill="white" stroke="black" stroke-width="1.5" stroke-linecap="round" stroke-linejoin="round"/>
<path d="M662.5 343C662.5 343 664.797 347.99 666.692 349.358C669.148 351.134 671.774 352.662 674.532 353.918C680.972 344.698 691.632 329.918 698.072 320.728C694.381 317.135 690.027 314.292 685.252 312.358C678.642 321.298 669.06 334.02 662.5 343Z" fill="#F25A33" stroke="black" stroke-width="1.5" stroke-linecap="round" stroke-linejoin="round"/>
<path d="M668.133 350.048L691.203 315.808" stroke="black" stroke-width="1.5" stroke-linecap="round" stroke-linejoin="round"/>
<path d="M893.922 514.358L807.602 499.128" stroke="black" stroke-width="1.5" stroke-linecap="round" stroke-linejoin="round"/>
<path d="M925.482 456.458C916.149 425.791 906.816 395.125 897.482 364.458C873.482 366.058 859.112 364.858 850.212 363.298C840.302 361.548 829.942 363.938 820.032 362.148C818.241 361.715 816.352 361.983 814.752 362.898C813.25 364.093 812.28 365.832 812.052 367.738C812.182 369.948 812.292 372.168 812.382 374.418C812.382 374.418 812.512 377.738 812.572 381.188C812.662 386.188 808.692 434.317 801.862 500.188C809.173 509.049 818.407 516.128 828.862 520.888C850.242 530.578 869.942 527.218 876.992 525.668L915.642 529.838C918.922 505.378 922.202 480.918 925.482 456.458Z" fill="white" stroke="black" stroke-width="1.5" stroke-linecap="round" stroke-linejoin="round"/>
<path d="M914.592 428.668C914.592 428.848 914.592 429.018 914.592 429.198C913.482 443.978 915.922 460.978 924.882 480.038C925.176 470.078 925.462 460.121 925.742 450.168L914.592 428.668Z" fill="black"/>
<path d="M897.842 505.668L810.372 500.028" stroke="black" stroke-width="1.5" stroke-linecap="round" stroke-linejoin="round"/>
<path d="M931.343 435.638L932.343 432.828C930.805 431.577 929.481 430.085 928.423 428.408C926.203 425.018 925.353 420.911 926.043 416.918C927.213 408.998 931.713 393.208 939.533 373.288C934.903 368.688 927.663 363.028 918.093 361.838C911.323 360.988 908.403 362.998 899.483 364.958C888.253 367.428 865.693 372.388 850.123 362.408C845.063 359.158 841.823 355.018 833.783 352.828C830.783 351.998 826.133 352.118 820.293 352.828C818.236 353.066 816.287 353.881 814.672 355.177C813.057 356.474 811.841 358.201 811.163 360.158C809.993 363.508 808.753 367.498 807.603 371.998C804.522 384.069 802.927 396.471 802.853 408.928C802.593 424.798 800.433 451.458 794.853 496.638C794.565 499.057 795.029 501.507 796.181 503.654C797.333 505.8 799.118 507.541 801.293 508.638C810.816 513.451 820.711 517.487 830.883 520.708C858.967 529.488 888.613 532.114 917.803 528.408C920.157 516.161 922.327 503.435 924.313 490.228C926.743 474.038 929.853 450.648 931.343 435.638Z" fill="#F25A33" stroke="black" stroke-width="1.5" stroke-linecap="round" stroke-linejoin="round"/>
<path d="M850.203 363.298C850.533 364.785 850.77 366.292 850.913 367.808C852.533 384.318 842.533 395.108 838.343 407.168C834.153 419.228 837.663 426.558 835.813 444.168C833.147 469.381 830.5 494.591 827.873 519.798C839.218 525.174 851.674 527.789 864.223 527.428C861.527 513.789 860.041 499.939 859.783 486.038C859.483 469.748 859.603 439.828 873.143 405.088C878.879 390.462 886.58 376.686 896.033 364.138L850.203 363.298Z" fill="white" stroke="black" stroke-width="1.5" stroke-linecap="round" stroke-linejoin="round"/>
<path d="M864.314 528.638C862.886 525.317 862.354 521.679 862.774 518.088C881.577 521.493 900.851 521.354 919.604 517.678C919.09 521.592 918.577 525.502 918.064 529.408C914.321 530.29 910.532 530.958 906.714 531.408C901.999 531.936 897.256 532.163 892.514 532.088C883.021 531.893 873.573 530.737 864.314 528.638Z" fill="#F25A33" stroke="black" stroke-width="1.5" stroke-linecap="round" stroke-linejoin="round"/>
<path d="M899.341 363.938L907.081 357.448C907.971 356.826 908.982 356.396 910.047 356.185C911.112 355.974 912.208 355.987 913.268 356.223C914.328 356.459 915.328 356.913 916.203 357.556C917.078 358.199 917.81 359.017 918.352 359.958L918.661 360.488L887.771 377.728C888.451 376.508 889.141 375.268 889.771 373.978C890.771 371.978 891.772 370.078 892.672 368.188L899.341 363.938Z" fill="#F25A33" stroke="black" stroke-width="1.5" stroke-linecap="round" stroke-linejoin="round"/>
<path d="M846.013 351.678L839.743 344.758C839.013 343.953 838.124 343.309 837.132 342.866C836.141 342.423 835.067 342.191 833.981 342.186C832.895 342.18 831.819 342.4 830.823 342.833C829.826 343.266 828.93 343.901 828.193 344.698L827.783 345.148C836.58 352.623 844.473 361.101 851.303 370.408C850.983 368.188 850.649 365.975 850.303 363.768C850.399 362.399 850.311 361.024 850.043 359.678C849.446 356.697 848.054 353.932 846.013 351.678Z" fill="#F25A33" stroke="black" stroke-width="1.5" stroke-linecap="round" stroke-linejoin="round"/>
<path d="M916.492 357.588C909.012 361.808 897.982 367.888 890.492 372.108L916.492 357.588Z" fill="white"/>
<path d="M916.492 357.588C909.012 361.808 897.982 367.888 890.492 372.108" stroke="black" stroke-width="1.5" stroke-linecap="round" stroke-linejoin="round"/>
<path fill-rule="evenodd" clip-rule="evenodd" d="M800.462 485.798C799.322 487.388 797.692 487.338 797.042 485.658L796.982 485.608C796.769 484.95 796.694 484.255 796.763 483.566C796.831 482.878 797.042 482.211 797.382 481.608C798.868 478.892 800.627 476.336 802.632 473.978C809.342 466.188 816.292 464.408 820.242 464.038C821.542 463.918 822.422 465.388 822.242 467.298L822.122 468.698C821.952 470.538 820.862 472.128 819.642 472.298C815.485 472.97 811.58 474.73 808.322 477.398C805.312 479.806 802.665 482.635 800.462 485.798ZM909.472 506.268C909.979 506.207 910.468 506.037 910.902 505.768L910.962 505.728C911.589 505.34 912.076 504.763 912.355 504.08C912.633 503.397 912.688 502.644 912.512 501.928C911.703 498.604 910.463 495.4 908.822 492.398C903.072 481.948 893.812 476.708 888.222 474.308C887.798 474.126 887.343 474.029 886.881 474.024C886.42 474.019 885.962 474.105 885.534 474.278C885.106 474.451 884.717 474.707 884.389 475.032C884.061 475.356 883.8 475.742 883.622 476.168L883.062 477.498C882.717 478.329 882.705 479.262 883.029 480.102C883.353 480.942 883.988 481.624 884.802 482.008C894.335 486.463 901.834 494.352 905.802 504.098C905.994 504.572 906.286 504.998 906.66 505.347C907.033 505.696 907.478 505.959 907.964 506.118C908.45 506.277 908.964 506.328 909.472 506.268Z" fill="white"/>
<path d="M797.042 485.658L797.522 485.082C797.62 485.163 797.696 485.269 797.742 485.387L797.042 485.658ZM800.462 485.798L801.078 486.227L801.072 486.235L800.462 485.798ZM796.982 485.608L796.502 486.184C796.394 486.094 796.313 485.974 796.269 485.84L796.982 485.608ZM796.763 483.566L797.509 483.641L796.763 483.566ZM797.382 481.608L798.04 481.968L798.036 481.976L797.382 481.608ZM802.632 473.978L802.061 473.492L802.064 473.489L802.632 473.978ZM820.242 464.038L820.172 463.291H820.173L820.242 464.038ZM822.242 467.298L821.495 467.234L821.496 467.228L822.242 467.298ZM822.122 468.698L822.87 468.762L822.869 468.767L822.122 468.698ZM819.642 472.298L819.523 471.558C819.528 471.557 819.533 471.556 819.539 471.555L819.642 472.298ZM808.322 477.398L808.798 477.978L808.791 477.984L808.322 477.398ZM910.902 505.768L911.318 506.392C911.311 506.397 911.304 506.401 911.297 506.406L910.902 505.768ZM909.472 506.268L909.561 507.013L909.472 506.268ZM910.962 505.728L910.546 505.104C910.553 505.099 910.56 505.095 910.567 505.091L910.962 505.728ZM912.355 504.08L913.049 504.363L912.355 504.08ZM912.512 501.928L911.784 502.107L911.783 502.105L912.512 501.928ZM908.822 492.398L909.479 492.036L909.48 492.038L908.822 492.398ZM888.222 474.308L887.926 474.997L888.222 474.308ZM885.534 474.278L885.815 474.973L885.534 474.278ZM883.622 476.168L884.314 476.457L884.313 476.459L883.622 476.168ZM883.062 477.498L882.37 477.21L882.371 477.207L883.062 477.498ZM883.029 480.102L882.329 480.372L883.029 480.102ZM884.802 482.008L884.485 482.687L884.483 482.686L884.802 482.008ZM905.802 504.098L906.497 503.815L906.498 503.817L905.802 504.098ZM906.66 505.347L906.148 505.895L906.66 505.347ZM907.964 506.118L908.197 505.406L907.964 506.118ZM797.742 485.387C797.99 486.03 798.344 486.195 798.597 486.205C798.891 486.216 799.371 486.033 799.853 485.361L801.072 486.235C800.413 487.154 799.509 487.74 798.54 487.704C797.531 487.666 796.744 486.966 796.343 485.929L797.742 485.387ZM797.462 485.032L797.522 485.082L796.562 486.234L796.502 486.184L797.462 485.032ZM797.509 483.641C797.45 484.226 797.514 484.817 797.696 485.376L796.269 485.84C796.023 485.083 795.937 484.283 796.016 483.492L797.509 483.641ZM798.036 481.976C797.747 482.489 797.567 483.056 797.509 483.641L796.016 483.492C796.095 482.7 796.338 481.933 796.729 481.24L798.036 481.976ZM803.204 474.464C801.231 476.783 799.501 479.297 798.04 481.968L796.724 481.248C798.234 478.488 800.022 475.889 802.061 473.492L803.204 474.464ZM820.312 464.785C816.52 465.14 809.763 466.849 803.201 474.468L802.064 473.489C808.922 465.527 816.064 463.676 820.172 463.291L820.312 464.785ZM821.496 467.228C821.574 466.392 821.413 465.719 821.157 465.297C820.91 464.892 820.614 464.757 820.311 464.785L820.173 463.291C821.171 463.199 821.964 463.739 822.438 464.517C822.901 465.278 823.09 466.294 822.989 467.368L821.496 467.228ZM821.375 468.634L821.495 467.234L822.99 467.362L822.87 468.762L821.375 468.634ZM819.539 471.555C819.864 471.51 820.279 471.25 820.658 470.699C821.027 470.162 821.302 469.429 821.375 468.629L822.869 468.767C822.773 469.807 822.417 470.789 821.894 471.549C821.38 472.296 820.64 472.916 819.746 473.041L819.539 471.555ZM807.847 476.818C811.207 474.066 815.235 472.251 819.523 471.558L819.762 473.038C815.736 473.69 811.953 475.394 808.798 477.978L807.847 476.818ZM799.847 485.369C802.091 482.147 804.788 479.265 807.854 476.812L808.791 477.984C805.837 480.347 803.239 483.123 801.078 486.227L799.847 485.369ZM911.297 506.406C910.769 506.732 910.177 506.939 909.561 507.013L909.383 505.523C909.782 505.476 910.166 505.341 910.508 505.13L911.297 506.406ZM911.378 506.352L911.318 506.392L910.486 505.144L910.546 505.104L911.378 506.352ZM913.049 504.363C912.711 505.193 912.119 505.893 911.357 506.365L910.567 505.091C911.059 504.786 911.442 504.333 911.66 503.797L913.049 504.363ZM913.24 501.749C913.454 502.619 913.388 503.534 913.049 504.363L911.66 503.797C911.879 503.261 911.922 502.669 911.784 502.107L913.24 501.749ZM909.48 492.038C911.152 495.098 912.417 498.363 913.241 501.751L911.783 502.105C910.99 498.845 909.773 495.702 908.164 492.758L909.48 492.038ZM888.518 473.619C894.183 476.051 903.615 481.379 909.479 492.036L908.165 492.76C902.529 482.517 893.442 477.365 887.926 474.997L888.518 473.619ZM886.889 473.274C887.45 473.28 888.004 473.398 888.519 473.619L887.926 474.997C887.593 474.854 887.235 474.778 886.873 474.774L886.889 473.274ZM885.253 473.583C885.773 473.373 886.329 473.268 886.889 473.274L886.873 474.774C886.511 474.77 886.151 474.838 885.815 474.973L885.253 473.583ZM883.862 474.498C884.26 474.104 884.733 473.793 885.253 473.583L885.815 474.973C885.479 475.109 885.174 475.31 884.916 475.565L883.862 474.498ZM882.93 475.879C883.146 475.362 883.463 474.892 883.862 474.498L884.916 475.565C884.658 475.82 884.454 476.123 884.314 476.457L882.93 475.879ZM882.371 477.207L882.931 475.877L884.313 476.459L883.753 477.789L882.371 477.207ZM882.329 480.372C881.935 479.352 881.95 478.219 882.37 477.21L883.755 477.786C883.483 478.439 883.474 479.172 883.728 479.832L882.329 480.372ZM884.483 482.686C883.494 482.221 882.722 481.392 882.329 480.372L883.728 479.832C883.983 480.492 884.482 481.028 885.122 481.33L884.483 482.686ZM905.108 504.381C901.211 494.81 893.846 487.063 884.485 482.687L885.12 481.329C894.823 485.864 902.458 493.895 906.497 503.815L905.108 504.381ZM906.148 505.895C905.695 505.472 905.339 504.954 905.107 504.379L906.498 503.817C906.648 504.19 906.878 504.525 907.172 504.799L906.148 505.895ZM907.731 506.831C907.141 506.638 906.601 506.319 906.148 505.895L907.172 504.799C907.466 505.074 907.816 505.28 908.197 505.406L907.731 506.831ZM909.561 507.013C908.945 507.086 908.32 507.024 907.731 506.831L908.197 505.406C908.579 505.531 908.984 505.571 909.383 505.523L909.561 507.013Z" fill="black"/>
<path d="M829.473 519.378C830.097 517.748 830.491 516.038 830.643 514.298C830.783 512.731 830.729 511.152 830.483 509.598C817.592 506.437 805.493 500.65 794.943 492.598C794.406 493.815 794.042 495.101 793.863 496.418C793.687 497.767 793.704 499.134 793.913 500.478C795.345 502.629 797.023 504.606 798.913 506.368C803.483 510.638 808.043 512.468 814.073 514.828C819.073 516.764 824.223 518.286 829.473 519.378Z" fill="#F25A33" stroke="black" stroke-width="1.5" stroke-linecap="round" stroke-linejoin="round"/>
<path d="M830.502 514.867C824.794 513.832 819.228 512.124 813.922 509.778C806.956 506.679 800.465 502.608 794.642 497.688" fill="#F25A33"/>
<path d="M830.502 514.867C824.794 513.832 819.228 512.124 813.922 509.778C806.956 506.679 800.465 502.608 794.642 497.688" stroke="black" stroke-width="1.5" stroke-linecap="round" stroke-linejoin="round"/>
<path d="M920.433 495.828L864.333 532.408C863.599 532.91 863.061 533.65 862.81 534.502C862.558 535.355 862.609 536.268 862.953 537.088C862.995 537.205 863.045 537.319 863.103 537.428C863.461 538.164 863.989 538.805 864.643 539.298C865.242 539.751 865.961 540.016 866.71 540.061C867.459 540.105 868.205 539.927 868.853 539.548L887.933 528.018L871.693 550.688C871.332 551.202 871.089 551.79 870.982 552.409C870.875 553.028 870.906 553.663 871.073 554.268C871.297 555.105 871.723 555.874 872.313 556.508L872.613 556.798C873.009 557.185 873.481 557.485 874 557.679C874.518 557.874 875.071 557.959 875.623 557.929C876.176 557.899 876.716 557.754 877.21 557.504C877.704 557.255 878.141 556.905 878.493 556.478C882.926 550.911 887.36 545.338 891.793 539.758L882.203 567.918C881.976 568.596 881.9 569.315 881.981 570.025C882.062 570.736 882.298 571.419 882.673 572.028C883.237 572.961 884.09 573.685 885.103 574.088C885.663 574.32 886.267 574.43 886.873 574.408C887.695 574.356 888.481 574.052 889.124 573.536C889.766 573.021 890.234 572.319 890.463 571.528L895.233 556.468L897.003 559.178C900.003 563.768 905.713 565.418 910.003 562.928L913.203 561.058C914.004 560.558 914.578 559.764 914.8 558.846C915.023 557.928 914.876 556.96 914.393 556.148C913.965 555.29 913.217 554.633 912.311 554.319C911.404 554.005 910.411 554.059 909.543 554.468L908.093 555.258C907.182 555.715 906.135 555.822 905.149 555.561C904.164 555.299 903.308 554.686 902.743 553.838C902.406 553.404 902.161 552.907 902.021 552.376C901.881 551.845 901.85 551.291 901.929 550.747C902.009 550.204 902.197 549.682 902.483 549.213C902.769 548.744 903.146 548.338 903.593 548.018L920.913 537.018C921.846 536.527 922.929 536.399 923.951 536.66C924.973 536.921 925.862 537.552 926.446 538.431C927.029 539.309 927.266 540.373 927.111 541.416C926.955 542.46 926.418 543.408 925.603 544.078L925.423 544.198C924.6 544.785 924.035 545.668 923.849 546.662C923.662 547.655 923.868 548.683 924.423 549.528C924.665 549.978 924.994 550.376 925.39 550.698C925.787 551.02 926.243 551.261 926.733 551.406C927.223 551.551 927.737 551.598 928.245 551.543C928.753 551.489 929.245 551.334 929.693 551.088L933.693 548.618C937.503 546.258 938.813 541.138 936.693 536.618C936.313 535.808 935.983 535.058 935.693 534.388C933.693 529.668 933.793 528.108 934.093 527.008C934.436 526.002 934.997 525.085 935.737 524.322C936.478 523.559 937.378 522.971 938.373 522.598L920.433 495.828Z" fill="#F7CCB9" stroke="black" stroke-width="1.5" stroke-linecap="round" stroke-linejoin="round"/>
<path d="M903.082 537.118L897.852 540.528C892.852 543.778 891.752 550.888 895.352 556.408" fill="#F7CCB9"/>
<path d="M903.082 537.118L897.852 540.528C892.852 543.778 891.752 550.888 895.352 556.408" stroke="black" stroke-width="1.5" stroke-linecap="round" stroke-linejoin="round"/>
<path d="M897.082 527.908L891.812 539.768" stroke="black" stroke-width="1.5" stroke-linecap="round" stroke-linejoin="round"/>
<path d="M893.543 521.138L887.953 528.028" stroke="black" stroke-width="1.5" stroke-linecap="round" stroke-linejoin="round"/>
<path d="M958.643 456.968L923.553 493.718L938.493 526.528C940.893 524.848 944.663 522.198 949.223 518.868C983.053 494.228 992.003 483.088 994.923 479.298C1001.98 470.118 1007.21 463.118 1006.99 453.448C1006.81 445.978 1003.27 440.318 999.403 433.208C994.668 424.575 988.477 416.824 981.103 410.298C977.97 407.49 975.169 404.333 972.753 400.888C972.293 400.228 972.313 400.178 970.593 397.428C968.173 393.538 965.513 389.358 964.713 388.148C961.349 383.343 957.137 379.192 952.283 375.898C947.039 372.366 941.134 369.934 934.923 368.748C929.176 382 925.889 396.188 925.223 410.618C925.133 412.618 925.093 414.498 925.103 416.358C925.129 421.002 926.216 425.58 928.282 429.739C930.348 433.899 933.338 437.531 937.023 440.358L958.643 456.968Z" fill="white" stroke="black" stroke-width="1.5" stroke-linecap="round" stroke-linejoin="round"/>
<path d="M933.792 527.978C936.655 527.703 939.431 526.841 941.947 525.446C944.462 524.05 946.663 522.152 948.412 519.868L928.792 488.618C925.497 489.122 922.48 490.76 920.262 493.248C919.243 494.432 918.441 495.786 917.892 497.248L923.642 510.298L933.792 527.978Z" fill="#F25A33" stroke="black" stroke-width="1.5" stroke-linecap="round" stroke-linejoin="round"/>
<path d="M941.172 525.388L921.702 491.748L941.172 525.388Z" fill="white"/>
<path d="M941.172 525.388L921.702 491.748" stroke="black" stroke-width="1.5" stroke-linecap="round" stroke-linejoin="round"/>
<path d="M862.783 522.958C864.301 523.372 865.84 523.706 867.393 523.958C870.135 524.42 872.913 524.634 875.693 524.598" fill="black"/>
<path d="M862.783 522.958C864.301 523.372 865.84 523.706 867.393 523.958C870.135 524.42 872.913 524.634 875.693 524.598" stroke="black" stroke-width="1.5" stroke-linecap="round" stroke-linejoin="round"/>
<path d="M970.593 397.428C971.093 400.968 971.973 404.118 972.473 407.658" stroke="black" stroke-width="1.5" stroke-linecap="round" stroke-linejoin="round"/>
<path d="M849.902 363.898L831.392 343.728" stroke="black" stroke-width="1.5" stroke-linecap="round" stroke-linejoin="round"/>
<path d="M752.462 355.718L757.982 363.508" stroke="black" stroke-width="1.5" stroke-linecap="round" stroke-linejoin="round"/>
<path d="M863.086 340.486C860.206 349.376 858.146 354.556 855.276 363.486C863.039 369.058 872.517 371.717 882.046 370.996C889.694 370.308 896.983 367.438 903.046 362.726L895.696 332.916C895.063 330.328 895.259 327.607 896.256 325.136L905.586 302.136" fill="#F7CCB9"/>
<path d="M863.086 340.486C860.206 349.376 858.146 354.556 855.276 363.486C863.039 369.058 872.517 371.717 882.046 370.996C889.694 370.308 896.983 367.438 903.046 362.726L895.696 332.916C895.063 330.328 895.259 327.607 896.256 325.136L905.586 302.136" stroke="black" stroke-width="1.5" stroke-miterlimit="10"/>
<path d="M841.506 286.116C841.506 287.586 841.506 289.166 841.586 290.576C841.876 296.686 842.586 298.826 842.956 302.576C843.476 308.346 842.126 308.016 841.956 317.386C841.846 322.766 841.786 325.456 842.716 328.386C843.066 329.466 845.046 335.956 850.336 339.056C855.626 342.156 862.256 340.946 873.336 338.056C879.794 336.386 886.089 334.14 892.146 331.346L906.016 299.516L885.586 270.516C870.536 261.176 854.016 262.356 846.396 271.006C842.146 275.766 841.446 282.036 841.506 286.116Z" fill="#F7CCB9"/>
<path d="M840.5 284.502L856.265 287.592C862.675 288.848 872.576 289.532 872.576 283C872.576 283 882.92 296.429 884.326 303.576L889.5 292.856L894.5 309.502L905 317C905 317 906.885 295.963 906.966 292.856C907.056 289.266 907.246 281.926 903.286 275.666C897.226 266.076 875 259.002 875 259.002L873.5 263.502C863 257.502 830.5 253.002 825 259.002C825 259.002 825.5 278.502 840.5 284.502Z" fill="black" stroke="black" stroke-width="1.5" stroke-linecap="round" stroke-linejoin="round"/>
<path d="M857.086 312.506H855.426C854.8 312.507 854.185 312.337 853.649 312.013C853.114 311.689 852.677 311.224 852.387 310.669C852.097 310.114 851.965 309.49 852.006 308.866C852.046 308.241 852.257 307.639 852.616 307.126L857.086 300.756" stroke="black" stroke-width="1.5" stroke-linecap="round" stroke-linejoin="round"/>
<path d="M851.536 316.356C852.025 317.406 852.831 318.278 853.841 318.846C854.851 319.415 856.014 319.653 857.166 319.526C857.987 319.373 858.763 319.039 859.439 318.55C860.115 318.061 860.674 317.427 861.076 316.696L851.536 316.356Z" fill="black"/>
<path d="M889.146 294.646L890.987 294.586C893.067 294.52 895.091 295.267 896.63 296.669C898.168 298.072 899.1 300.018 899.227 302.096C899.328 303.896 898.817 305.678 897.779 307.151C896.74 308.625 895.235 309.705 893.506 310.216" fill="#F7CCB9"/>
<path d="M889.146 294.646L890.987 294.586C893.067 294.52 895.091 295.267 896.63 296.669C898.168 298.072 899.1 300.018 899.227 302.096C899.328 303.896 898.817 305.678 897.779 307.151C896.74 308.625 895.235 309.705 893.506 310.216" stroke="black" stroke-width="1.5" stroke-miterlimit="10"/>
<path d="M871.666 264.206H865.826C863.826 264.086 851.256 263.516 845.016 271.936C842.476 275.366 841.836 279.106 841.346 281.986C839.826 290.936 843.546 296.516 842.626 306.626C842.206 311.276 841.856 313.696 841.136 320.396C840.924 322.136 840.958 323.896 841.236 325.626C841.296 325.986 841.376 326.356 841.456 326.716C843.966 337.356 855.316 343.376 865.746 340.126L874.746 337.336" stroke="black" stroke-width="1.5" stroke-linecap="round" stroke-linejoin="round"/>
<path fill-rule="evenodd" clip-rule="evenodd" d="M867.172 302.769C867.172 304.255 867.803 305.459 868.582 305.459C869.361 305.459 869.992 304.255 869.992 302.769C869.992 301.284 869.361 300.079 868.582 300.079C867.803 300.079 867.172 301.284 867.172 302.769ZM844.641 302.769C844.641 304.255 845.272 305.459 846.051 305.459C846.83 305.459 847.461 304.255 847.461 302.769C847.461 301.284 846.83 300.079 846.051 300.079C845.272 300.079 844.641 301.284 844.641 302.769Z" fill="black"/>
<path d="M839.8 312.609C833.94 312.609 829.19 307.859 829.19 301.999C829.19 296.139 833.94 291.389 839.8 291.389C845.66 291.389 850.41 296.139 850.41 301.999C850.41 307.859 845.66 312.609 839.8 312.609Z" stroke="black" stroke-width="1.5" stroke-linecap="round" stroke-linejoin="round"/>
<path fill-rule="evenodd" clip-rule="evenodd" d="M846.193 294.807C846.013 294.492 845.634 294.351 845.292 294.472C843.634 295.056 842.244 296.22 841.378 297.749C841.2 298.065 841.272 298.463 841.551 298.695C841.83 298.927 842.235 298.927 842.513 298.694L846.023 295.754C846.301 295.521 846.372 295.122 846.193 294.807ZM869.42 294.808C869.241 295.123 869.313 295.521 869.59 295.754L873.1 298.694C873.378 298.926 873.782 298.927 874.061 298.696C874.34 298.464 874.413 298.067 874.236 297.751C873.373 296.218 871.98 295.051 870.319 294.471C869.977 294.351 869.599 294.493 869.42 294.808Z" fill="black"/>
<path opacity="0.17" fill-rule="evenodd" clip-rule="evenodd" d="M859.212 301.999C859.212 307.859 863.962 312.609 869.822 312.609C875.681 312.609 880.432 307.859 880.432 301.999C880.432 296.139 875.681 291.389 869.822 291.389C863.962 291.389 859.212 296.139 859.212 301.999ZM828.78 301.999C828.78 307.859 833.53 312.609 839.39 312.609C845.25 312.609 850 307.859 850 301.999C850 296.139 845.25 291.389 839.39 291.389C833.53 291.389 828.78 296.139 828.78 301.999Z" fill="white"/>
<path d="M869.822 312.609C863.962 312.609 859.212 307.859 859.212 301.999C859.212 296.139 863.962 291.389 869.822 291.389C875.681 291.389 880.432 296.139 880.432 301.999C880.432 307.859 875.681 312.609 869.822 312.609Z" stroke="black" stroke-width="1.5" stroke-linecap="round" stroke-linejoin="round"/>
<path d="M850.74 300.359H859.23" stroke="black" stroke-width="1.5" stroke-linecap="round" stroke-linejoin="round"/>
</svg>
