<svg width="1220" height="920" viewBox="0 0 1220 920" fill="none" xmlns="http://www.w3.org/2000/svg">
<path d="M946.131 60H619.681V414.53H946.131V60Z" stroke="#CCCCCC" stroke-width="1.5" stroke-linecap="round" stroke-linejoin="round"/>
<path d="M954.69 413.989H613V430.029H954.69V413.989Z" stroke="#CCCCCC" stroke-width="1.5" stroke-linecap="round" stroke-linejoin="round"/>
<path d="M620.48 76.5801H945.06" stroke="#CCCCCC" stroke-width="1.5" stroke-linecap="round" stroke-linejoin="round"/>
<path d="M620.48 91.8193H945.06" stroke="#CCCCCC" stroke-width="1.5" stroke-linecap="round" stroke-linejoin="round"/>
<path d="M620.48 107.061H945.06" stroke="#CCCCCC" stroke-width="1.5" stroke-linecap="round" stroke-linejoin="round"/>
<path d="M620.48 122.3H945.06" stroke="#CCCCCC" stroke-width="1.5" stroke-linecap="round" stroke-linejoin="round"/>
<path d="M620.48 137.539H945.06" stroke="#CCCCCC" stroke-width="1.5" stroke-linecap="round" stroke-linejoin="round"/>
<path d="M620.48 152.779H945.06" stroke="#CCCCCC" stroke-width="1.5" stroke-linecap="round" stroke-linejoin="round"/>
<path d="M620.48 168.021H945.06" stroke="#CCCCCC" stroke-width="1.5" stroke-linecap="round" stroke-linejoin="round"/>
<path d="M620.48 183.26H945.06" stroke="#CCCCCC" stroke-width="1.5" stroke-linecap="round" stroke-linejoin="round"/>
<path d="M620.48 198.5H945.06" stroke="#CCCCCC" stroke-width="1.5" stroke-linecap="round" stroke-linejoin="round"/>
<path d="M620.48 213.739H945.06" stroke="#CCCCCC" stroke-width="1.5" stroke-linecap="round" stroke-linejoin="round"/>
<path d="M620.48 228.979H945.06" stroke="#CCCCCC" stroke-width="1.5" stroke-linecap="round" stroke-linejoin="round"/>
<path d="M899.21 332.309V76.8486" stroke="#CCCCCC" stroke-width="1.5" stroke-linecap="round" stroke-linejoin="round"/>
<path d="M899.53 355.471C895.86 355.571 893.44 351.771 893.31 351.561C890.54 347.061 892.92 339.361 899.23 332.311C905.55 339.311 908.06 347.021 905.34 351.561C905.14 351.871 902.98 355.381 899.53 355.471Z" stroke="#CCCCCC" stroke-width="1.5" stroke-linecap="round" stroke-linejoin="round"/>
<path d="M920.771 283.62V76.6504" stroke="#CCCCCC" stroke-width="1.5" stroke-linecap="round" stroke-linejoin="round"/>
<path d="M921.07 306.779C917.4 306.879 914.97 303.069 914.85 302.869C912.08 298.369 914.46 290.659 920.77 283.619C927.09 290.619 929.59 298.319 926.88 302.869C926.7 303.179 924.53 306.689 921.07 306.779Z" stroke="#CCCCCC" stroke-width="1.5" stroke-linecap="round" stroke-linejoin="round"/>
<path d="M991.986 520.188C979.216 540.566 965.566 565.128 954.356 596.568C939.182 638.981 931.353 683.671 931.206 728.716" stroke="#CCCCCC" stroke-width="1.5" stroke-linecap="round" stroke-linejoin="round"/>
<path d="M853.526 563.307C876.055 594.466 907.873 617.689 944.416 629.647" stroke="#CCCCCC" stroke-width="1.5" stroke-linecap="round" stroke-linejoin="round"/>
<path d="M954.306 595.387C932.585 575.633 916.614 550.371 908.086 522.277C907.089 519.138 907.3 515.739 908.676 512.747C909.928 510.093 912.078 507.968 914.746 506.747C916.082 506.145 917.521 505.805 918.986 505.747C920.856 505.685 922.715 506.051 924.422 506.817C926.129 507.583 927.639 508.729 928.836 510.167C935.153 517.573 940.112 526.036 943.486 535.167C945.106 539.577 946.256 543.957 948.986 560.047C950.466 568.857 952.386 580.877 954.306 595.387Z" stroke="#CCCCCC" stroke-width="1.5" stroke-linecap="round" stroke-linejoin="round"/>
<path d="M918.686 523.996C922.519 532.543 926.566 541.209 930.826 549.996C938.536 565.896 946.406 580.996 954.306 595.396" stroke="#CCCCCC" stroke-width="1.5" stroke-linecap="round" stroke-linejoin="round"/>
<path d="M992.546 519.798C990.03 501.899 992.407 483.653 999.426 466.998C1000.19 465.126 1001.61 463.601 1003.43 462.718C1005.06 461.953 1006.92 461.794 1008.67 462.268C1009.53 462.508 1010.35 462.912 1011.07 463.458C1011.98 464.168 1012.72 465.077 1013.23 466.118C1013.74 467.158 1014 468.3 1014 469.458C1014.07 475.457 1013.08 481.422 1011.08 487.078C1010.08 489.808 1008.94 492.328 1003.89 501.078C1001.17 505.718 997.346 512.168 992.546 519.798Z" stroke="#CCCCCC" stroke-width="1.5" stroke-linecap="round" stroke-linejoin="round"/>
<path d="M1003.79 471.996C1002.24 477.556 1000.74 483.259 999.296 489.106C996.686 499.666 994.456 509.936 992.546 519.846" stroke="#CCCCCC" stroke-width="1.5" stroke-linecap="round" stroke-linejoin="round"/>
<path d="M1007.14 584.266C1014.44 581.504 1020.78 576.696 1025.42 570.416C1028.68 565.926 1031.17 560.416 1030.3 554.506C1030.08 553.036 1029.49 549.026 1026.3 546.506C1021.72 542.896 1013.51 543.866 1005.83 549.316L954.826 595.556C972.731 594.561 990.365 590.74 1007.08 584.236L1007.14 584.266Z" stroke="#CCCCCC" stroke-width="1.5" stroke-linecap="round" stroke-linejoin="round"/>
<path d="M1015.72 562.297C997.636 577.007 977.021 588.289 954.886 595.587" stroke="#CCCCCC" stroke-width="1.5" stroke-linecap="round" stroke-linejoin="round"/>
<path d="M814.816 504.398C812.606 498.678 815.146 492.888 819.306 491.268C823.466 489.648 827.976 492.998 828.156 493.148C834.458 497.86 839.636 503.912 843.316 510.868C846.086 516.178 847.236 520.727 848.516 526.627C851.182 538.954 853.185 551.416 854.516 563.958C841.736 551.272 830.948 536.727 822.516 520.817C819.665 515.481 817.094 510.001 814.816 504.398Z" stroke="#CCCCCC" stroke-width="1.5" stroke-linecap="round" stroke-linejoin="round"/>
<path d="M822.866 507.677C826.966 515.817 831.366 524.15 836.066 532.677C842.176 543.677 848.346 554.127 854.476 563.967" stroke="#CCCCCC" stroke-width="1.5" stroke-linecap="round" stroke-linejoin="round"/>
<path d="M1015.79 653.466C1018.96 643.356 1012.99 633.636 1005.2 632.016C999.446 630.816 992.826 634.066 989.196 640.186C975.756 660.066 966.496 675.666 960.296 686.696C956.296 693.856 954.856 694.266 938.526 718.326C935.796 722.326 933.526 725.676 932.086 727.866C959.486 719.866 977.386 706.796 987.226 698.276C999.236 687.846 1009.94 672.106 1015.79 653.466Z" stroke="#CCCCCC" stroke-width="1.5" stroke-linecap="round" stroke-linejoin="round"/>
<path d="M1001.91 646.456C996.776 662.616 983.906 694.406 952.526 716.456C945.768 721.188 938.54 725.209 930.956 728.456" stroke="#CCCCCC" stroke-width="1.5" stroke-linecap="round" stroke-linejoin="round"/>
<path d="M968.236 729.228H885.936L903.456 785.497C905.064 790.665 908.283 795.186 912.642 798.395C917.001 801.605 922.272 803.337 927.686 803.338C933.186 803.335 938.537 801.544 942.933 798.237C947.328 794.929 950.53 790.282 952.056 784.997L968.236 729.228Z" stroke="#CCCCCC" stroke-width="1.5" stroke-linecap="round" stroke-linejoin="round"/>
<path d="M890.086 742.847H963.646" stroke="#CCCCCC" stroke-width="1.5" stroke-linecap="round" stroke-linejoin="round"/>
<path d="M564.659 741.55L579.329 800.85C579.461 801.364 579.384 801.91 579.114 802.368C578.844 802.826 578.403 803.157 577.889 803.29C577.374 803.422 576.828 803.345 576.371 803.075C575.913 802.805 575.581 802.364 575.449 801.85L560.799 742.64" stroke="#CCCCCC" stroke-width="1.5" stroke-linecap="round" stroke-linejoin="round"/>
<path d="M456.299 746.6L445.959 801.17C445.863 801.691 445.977 802.229 446.277 802.666C446.577 803.103 447.038 803.402 447.559 803.5C447.682 803.514 447.806 803.514 447.929 803.5C448.401 803.508 448.861 803.349 449.227 803.05C449.593 802.752 449.842 802.334 449.929 801.87L460.409 746.6" stroke="#CCCCCC" stroke-width="1.5" stroke-linecap="round" stroke-linejoin="round"/>
<path d="M275.298 746.109L285.738 801.109C285.835 801.629 285.722 802.166 285.424 802.602C285.126 803.039 284.668 803.34 284.148 803.439C284.022 803.454 283.895 803.454 283.768 803.439C283.296 803.447 282.837 803.288 282.47 802.99C282.104 802.692 281.856 802.273 281.768 801.809L271.188 746.029" stroke="#CCCCCC" stroke-width="1.5" stroke-linecap="round" stroke-linejoin="round"/>
<path d="M166.419 744.029L152.369 800.849C152.236 801.364 152.314 801.91 152.584 802.368C152.854 802.825 153.295 803.157 153.809 803.289C154.324 803.422 154.87 803.345 155.327 803.075C155.785 802.805 156.116 802.364 156.249 801.849L170.249 745.289" stroke="#CCCCCC" stroke-width="1.5" stroke-linecap="round" stroke-linejoin="round"/>
<path d="M170.419 745.82L526.109 746.82C554.789 746.9 582.859 738.679 605.419 720.979L607.529 719.288C658.069 678.028 665.209 611.04 664.679 572.95C664.579 565.46 661.537 558.311 656.21 553.046C650.883 547.78 643.699 544.822 636.209 544.809C610.989 544.809 583.769 544.479 558.549 544.739" stroke="#CCCCCC" stroke-width="1.5" stroke-linecap="round" stroke-linejoin="round"/>
<path d="M195.948 646.29V635.51H582.498C587.31 635.43 592.089 636.309 596.558 638.095C601.027 639.881 605.095 642.539 608.526 645.913C611.957 649.288 614.682 653.311 616.542 657.75C618.402 662.188 619.36 666.952 619.36 671.765C619.36 676.577 618.402 681.342 616.542 685.78C614.682 690.218 611.957 694.242 608.526 697.617C605.095 700.991 601.027 703.649 596.558 705.435C592.089 707.221 587.31 708.1 582.498 708.02H197.888" stroke="#CCCCCC" stroke-width="1.5" stroke-linecap="round" stroke-linejoin="round"/>
<path d="M94.8887 546.17V516.57C94.8913 502.892 100.327 489.775 110 480.104C129.025 461.083 159.669 468.28 185.778 474.768L250.874 490.944C318.215 507.678 388.939 504.785 454.689 482.607L487.7 471.473C500.407 467.186 514.233 463.793 526.624 468.926C532.88 471.517 538.565 475.316 543.354 480.105C548.143 484.893 551.942 490.578 554.533 496.835C557.125 503.092 558.459 509.798 558.459 516.57V635.57H195.619" stroke="#CCCCCC" stroke-width="1.5" stroke-linecap="round" stroke-linejoin="round"/>
<path d="M77.6184 577.489L89.7984 634.169C98.3346 673.927 120.609 709.405 152.708 734.369L161.118 740.909C165.16 744.055 170.137 745.762 175.258 745.759C178.342 745.761 181.395 745.142 184.235 743.94C187.074 742.738 189.644 740.978 191.789 738.763C193.935 736.548 195.613 733.925 196.725 731.048C197.836 728.172 198.358 725.101 198.258 722.019C196.718 672.152 195.182 622.286 193.648 572.419C193.436 565.446 190.561 558.818 185.613 553.899C180.666 548.98 174.023 546.142 167.048 545.969L104.958 544.419C100.828 544.319 96.7297 545.158 92.971 546.873C89.2123 548.587 85.8917 551.132 83.2594 554.316C80.6271 557.5 78.7517 561.24 77.7746 565.254C76.7975 569.268 76.7441 573.451 77.6184 577.489Z" stroke="#CCCCCC" stroke-width="1.5" stroke-linecap="round" stroke-linejoin="round"/>
<path d="M203.02 354.891H118V387.781H203.02V354.891Z" stroke="#CCCCCC" stroke-width="1.5" stroke-linecap="round" stroke-linejoin="round"/>
<path d="M288.041 354.891H203.021V387.781H288.041V354.891Z" stroke="#CCCCCC" stroke-width="1.5" stroke-linecap="round" stroke-linejoin="round"/>
<path d="M247.201 322H162.181V354.89H247.201V322Z" stroke="#CCCCCC" stroke-width="1.5" stroke-linecap="round" stroke-linejoin="round"/>
<path d="M340.02 168.891H255V201.781H340.02V168.891Z" stroke="#CCCCCC" stroke-width="1.5" stroke-linecap="round" stroke-linejoin="round"/>
<path d="M425.041 168.891H340.021V201.781H425.041V168.891Z" stroke="#CCCCCC" stroke-width="1.5" stroke-linecap="round" stroke-linejoin="round"/>
<path d="M384.201 136H299.181V168.89H384.201V136Z" stroke="#CCCCCC" stroke-width="1.5" stroke-linecap="round" stroke-linejoin="round"/>
<path d="M258.952 587.859L250.15 562.088L190.565 611.033" fill="#F25A33"/>
<path d="M258.952 587.859L250.15 562.088L190.565 611.033" stroke="black" stroke-width="1.5" stroke-miterlimit="10"/>
<path d="M289.166 577.319L190.587 611.004L215.762 684.668L314.341 650.983L289.166 577.319Z" fill="#F25A33" stroke="black" stroke-width="1.5" stroke-miterlimit="10"/>
<path d="M271.037 609.771L301.722 599.285L310.411 624.709L279.725 635.195C277.904 635.817 275.909 635.689 274.181 634.839C272.452 633.989 271.13 632.487 270.507 630.663L266.522 619.002C266.212 618.099 266.083 617.143 266.143 616.19C266.202 615.237 266.448 614.305 266.868 613.448C267.287 612.59 267.871 611.824 268.586 611.194C269.302 610.563 270.134 610.079 271.037 609.771Z" fill="#F25A33" stroke="black" stroke-width="1.5" stroke-miterlimit="10"/>
<path d="M283.507 626.536C286.711 625.401 288.386 621.878 287.248 618.669C286.111 615.46 282.592 613.78 279.388 614.916C276.184 616.051 274.509 619.572 275.646 622.781C276.784 625.99 280.303 627.672 283.507 626.536Z" fill="white" stroke="black" stroke-width="1.5" stroke-miterlimit="10"/>
<path d="M254.606 575.446L231.368 596.91L258.561 587.617L254.606 575.446Z" fill="black" stroke="black" stroke-width="1.5" stroke-miterlimit="10"/>
<path d="M205.616 618.432L243.576 605.463C245.545 604.794 247.699 604.933 249.567 605.852C251.434 606.771 252.863 608.393 253.538 610.364C253.872 611.341 254.011 612.375 253.946 613.406C253.882 614.436 253.615 615.444 253.161 616.371C252.708 617.298 252.076 618.127 251.302 618.809C250.528 619.491 249.628 620.014 248.652 620.348L210.692 633.316" fill="#F25A33"/>
<path d="M205.616 618.432L243.576 605.463C245.545 604.794 247.699 604.933 249.567 605.852C251.434 606.771 252.863 608.393 253.538 610.364C253.872 611.341 254.011 612.375 253.946 613.406C253.882 614.436 253.615 615.444 253.161 616.371C252.708 617.298 252.076 618.127 251.302 618.809C250.528 619.491 249.628 620.014 248.652 620.348L210.692 633.316" stroke="black" stroke-width="1.5" stroke-miterlimit="10"/>
<path d="M216.986 651.693L254.945 638.724C256.915 638.054 259.07 638.195 260.937 639.116C262.805 640.036 264.232 641.661 264.904 643.633C265.239 644.61 265.379 645.644 265.314 646.675C265.25 647.706 264.983 648.714 264.53 649.641C264.076 650.569 263.444 651.397 262.669 652.079C261.895 652.761 260.994 653.284 260.018 653.617L222.06 666.591" fill="#F25A33"/>
<path d="M216.986 651.693L254.945 638.724C256.915 638.054 259.07 638.195 260.937 639.116C262.805 640.036 264.232 641.661 264.904 643.633C265.239 644.61 265.379 645.644 265.314 646.675C265.25 647.706 264.983 648.714 264.53 649.641C264.076 650.569 263.444 651.397 262.669 652.079C261.895 652.761 260.994 653.284 260.018 653.617L222.06 666.591" stroke="black" stroke-width="1.5" stroke-miterlimit="10"/>
<path d="M299.03 148.882L200.077 159.009C195.094 159.519 191.468 163.984 191.98 168.982L205.312 299.263C205.824 304.261 210.278 307.899 215.262 307.389L314.215 297.263C319.198 296.753 322.824 292.288 322.312 287.29L308.98 157.008C308.468 152.011 304.014 148.372 299.03 148.882Z" fill="#82AAD3" stroke="black" stroke-width="1.5" stroke-miterlimit="10"/>
<path d="M297.287 164.092L204.858 173.551L216.602 288.307L309.031 278.849L297.287 164.092Z" fill="white" stroke="black" stroke-width="1.5" stroke-miterlimit="10"/>
<path d="M270.728 290.87L256.544 292.322C255.655 292.413 255.009 293.209 255.1 294.101C255.191 294.992 255.986 295.641 256.875 295.55L271.058 294.099C271.947 294.008 272.594 293.211 272.503 292.32C272.411 291.428 271.617 290.779 270.728 290.87Z" fill="#82AAD3" stroke="black" stroke-width="1.5" stroke-miterlimit="10"/>
<path d="M243.156 232.26L274.074 194.183" stroke="black" stroke-width="1.5" stroke-miterlimit="10"/>
<path d="M271.207 227.015L279.028 217.569" stroke="black" stroke-width="1.5" stroke-miterlimit="10"/>
<path d="M244.463 259.317L264.909 234.618" stroke="black" stroke-width="1.5" stroke-miterlimit="10"/>
<path d="M342.058 192.614L299.186 197.002C294.202 197.512 290.577 201.977 291.089 206.974L300.848 302.34C301.36 307.338 305.814 310.976 310.798 310.466L353.67 306.079C358.653 305.569 362.279 301.104 361.767 296.106L352.008 200.74C351.496 195.742 347.042 192.104 342.058 192.614Z" fill="#AD85AD"/>
<path d="M342.058 192.614L299.186 197.002C294.202 197.512 290.577 201.977 291.089 206.974L300.848 302.34C301.36 307.338 305.814 310.976 310.798 310.466L353.67 306.079C358.653 305.569 362.279 301.104 361.767 296.106L352.008 200.74C351.496 195.742 347.042 192.104 342.058 192.614Z" stroke="black" stroke-width="1.5" stroke-miterlimit="10"/>
<path d="M345.857 203.722L297.73 208.647L306.711 296.407L354.838 291.482L345.857 203.722Z" fill="white" stroke="black" stroke-width="1.5" stroke-miterlimit="10"/>
<path d="M338.226 296.821L324.042 298.273C323.153 298.364 322.507 299.16 322.598 300.052C322.689 300.943 323.484 301.592 324.373 301.501L338.556 300.05C339.445 299.959 340.092 299.162 340.001 298.271C339.909 297.379 339.115 296.73 338.226 296.821Z" fill="#82AAD3" stroke="black" stroke-width="1.5" stroke-miterlimit="10"/>
<path d="M312.897 253.628L337.168 223.732" stroke="black" stroke-width="1.5" stroke-miterlimit="10"/>
<path d="M334.92 249.509L341.054 242.086" stroke="black" stroke-width="1.5" stroke-miterlimit="10"/>
<path d="M313.924 274.87L329.972 255.476" stroke="black" stroke-width="1.5" stroke-miterlimit="10"/>
<path d="M1011.03 147.502L703.049 128.211L692.735 292.878L1000.71 312.169L1011.03 147.502Z" fill="#82AAD3" stroke="black" stroke-width="1.5" stroke-linecap="round" stroke-linejoin="round"/>
<path d="M994.624 166.543L716.958 149.151L708.802 279.366L986.468 296.758L994.624 166.543Z" fill="white" stroke="black" stroke-width="1.5" stroke-linecap="round" stroke-linejoin="round"/>
<path d="M999.957 324.234L691.98 304.944L690.664 325.962L998.64 345.253L999.957 324.234Z" fill="#82AAD3" stroke="black" stroke-width="1.5" stroke-linecap="round" stroke-linejoin="round"/>
<path d="M716.275 140.938L994.279 158.335L1017.4 186.755L690.306 166.285L716.275 140.938Z" fill="#AD85AD" stroke="black" stroke-width="1.5" stroke-linecap="round" stroke-linejoin="round"/>
<path fill-rule="evenodd" clip-rule="evenodd" d="M759.135 143.585L744.641 169.979C744.161 177.707 736.698 183.537 727.98 182.993L705.196 181.574C696.478 181.02 689.804 174.315 690.254 166.576L690.255 166.285L716.225 140.938L759.135 143.585ZM962.513 182.88C958.941 173.8 955.364 164.72 951.779 155.639L905.57 152.837L908.273 180.208C907.792 187.946 914.466 194.663 923.214 195.207L945.939 196.626C954.657 197.17 962.119 191.34 962.61 183.602L962.513 182.88ZM854.025 176.816L855.461 149.701L805.313 146.565L799.639 173.133L799.638 173.413C799.178 181.151 805.862 187.868 814.58 188.412L837.364 189.841C846.082 190.385 853.545 184.554 854.025 176.816Z" fill="#F25A33"/>
<path d="M744.641 169.979L743.984 169.618C743.931 169.715 743.9 169.822 743.893 169.932L744.641 169.979ZM759.135 143.585L759.792 143.946C759.916 143.721 759.915 143.449 759.792 143.224C759.668 142.999 759.437 142.853 759.181 142.837L759.135 143.585ZM727.98 182.994L728.027 182.245L727.98 182.994ZM705.196 181.575L705.148 182.323H705.149L705.196 181.575ZM690.254 166.576L691.003 166.62C691.004 166.606 691.004 166.593 691.004 166.579L690.254 166.576ZM690.255 166.286L689.731 165.75C689.587 165.89 689.506 166.082 689.505 166.283L690.255 166.286ZM716.225 140.938L716.271 140.189C716.059 140.176 715.852 140.253 715.701 140.401L716.225 140.938ZM951.779 155.639L952.477 155.364C952.37 155.093 952.115 154.908 951.824 154.891L951.779 155.639ZM962.513 182.881L963.256 182.781C963.248 182.721 963.233 182.663 963.21 182.607L962.513 182.881ZM905.57 152.838L905.615 152.09C905.396 152.077 905.182 152.16 905.029 152.318C904.877 152.476 904.802 152.694 904.823 152.912L905.57 152.838ZM908.273 180.209L909.021 180.256C909.024 180.216 909.023 180.175 909.019 180.135L908.273 180.209ZM923.214 195.208L923.261 194.459L923.214 195.208ZM945.939 196.627L945.892 197.375L945.939 196.627ZM962.61 183.602L963.358 183.649C963.361 183.6 963.36 183.55 963.353 183.502L962.61 183.602ZM855.461 149.702L856.21 149.742C856.232 149.331 855.919 148.979 855.508 148.954L855.461 149.702ZM854.025 176.817L854.774 176.863V176.856L854.025 176.817ZM805.313 146.566L805.36 145.818C804.989 145.794 804.657 146.046 804.58 146.409L805.313 146.566ZM799.639 173.134L798.906 172.977C798.895 173.028 798.889 173.079 798.889 173.131L799.639 173.134ZM799.638 173.414L800.387 173.459C800.388 173.445 800.388 173.431 800.388 173.417L799.638 173.414ZM814.58 188.413L814.627 187.664H814.626L814.58 188.413ZM837.364 189.842L837.317 190.59L837.364 189.842ZM745.299 170.34L759.792 143.946L758.477 143.224L743.984 169.618L745.299 170.34ZM727.933 183.742C736.978 184.307 744.879 178.249 745.39 170.026L743.893 169.932C743.443 177.165 736.419 182.769 728.027 182.245L727.933 183.742ZM705.149 182.323L727.934 183.742L728.027 182.245L705.242 180.826L705.149 182.323ZM689.505 166.533C689.026 174.763 696.103 181.748 705.148 182.323L705.243 180.826C696.852 180.293 690.581 173.866 691.003 166.62L689.505 166.533ZM689.505 166.283L689.504 166.573L691.004 166.579L691.005 166.289L689.505 166.283ZM715.701 140.401L689.731 165.75L690.779 166.823L716.748 141.474L715.701 140.401ZM759.181 142.837L716.271 140.189L716.178 141.686L759.088 144.334L759.181 142.837ZM951.081 155.915C954.666 164.995 958.243 174.075 961.815 183.156L963.21 182.607C959.639 173.526 956.061 164.445 952.477 155.364L951.081 155.915ZM905.524 153.587L951.734 156.388L951.824 154.891L905.615 152.09L905.524 153.587ZM909.019 180.135L906.316 152.765L904.823 152.912L907.526 180.283L909.019 180.135ZM923.261 194.459C914.839 193.935 908.572 187.499 909.021 180.256L907.524 180.163C907.013 188.396 914.093 195.392 923.167 195.956L923.261 194.459ZM945.985 195.878L923.261 194.459L923.167 195.956L945.892 197.375L945.985 195.878ZM961.861 183.554C961.402 190.798 954.376 196.402 945.985 195.878L945.892 197.375C954.937 197.94 962.837 191.882 963.358 183.649L961.861 183.554ZM961.769 182.982L961.866 183.702L963.353 183.502L963.256 182.781L961.769 182.982ZM854.712 149.663L853.276 176.777L854.774 176.856L856.21 149.742L854.712 149.663ZM805.266 147.315L855.415 150.451L855.508 148.954L805.36 145.818L805.266 147.315ZM800.373 173.291L806.047 146.723L804.58 146.409L798.906 172.977L800.373 173.291ZM800.388 173.417L800.389 173.137L798.889 173.131L798.888 173.411L800.388 173.417ZM814.626 187.664C806.236 187.14 799.956 180.704 800.387 173.459L798.889 173.37C798.4 181.601 805.488 188.597 814.533 189.161L814.626 187.664ZM837.411 189.093L814.627 187.664L814.533 189.161L837.317 190.59L837.411 189.093ZM853.277 176.77C852.827 184.013 845.802 189.617 837.411 189.093L837.317 190.59C846.362 191.155 854.263 185.097 854.774 176.863L853.277 176.77Z" fill="black"/>
<path fill-rule="evenodd" clip-rule="evenodd" d="M745.084 169.27L759.135 143.585L805.363 146.566L799.258 173.392C798.778 181.13 791.315 186.961 782.597 186.417L759.813 184.988C751.095 184.444 744.421 177.728 744.871 169.989L745.084 169.27ZM951.779 155.649L962.859 183.642C962.379 191.381 969.053 198.097 977.801 198.641L1000.58 200.06C1009.29 200.604 1016.76 194.783 1017.25 187.045V186.755L994.649 158.367L951.779 155.649ZM908.213 180.209L909.649 153.094L855.393 149.532L853.827 176.526L853.826 176.806C853.366 184.544 860.039 191.26 868.767 191.804L891.542 193.233C900.26 193.778 907.723 187.947 908.213 180.209Z" fill="white"/>
<path d="M759.135 143.585L759.183 142.837C758.892 142.818 758.617 142.969 758.477 143.225L759.135 143.585ZM745.084 169.27L744.426 168.91C744.401 168.957 744.38 169.006 744.365 169.057L745.084 169.27ZM805.363 146.566L806.095 146.732C806.143 146.518 806.096 146.293 805.964 146.117C805.833 145.941 805.631 145.832 805.412 145.817L805.363 146.566ZM799.258 173.392L798.527 173.226C798.518 173.265 798.512 173.305 798.51 173.346L799.258 173.392ZM782.597 186.417L782.55 187.166H782.551L782.597 186.417ZM759.813 184.988L759.86 184.239H759.859L759.813 184.988ZM744.871 169.989L744.152 169.777C744.136 169.832 744.126 169.888 744.123 169.946L744.871 169.989ZM962.859 183.642L963.608 183.689C963.615 183.579 963.597 183.469 963.557 183.366L962.859 183.642ZM951.779 155.649L951.826 154.9C951.57 154.884 951.323 155 951.172 155.208C951.021 155.416 950.987 155.686 951.082 155.925L951.779 155.649ZM977.801 198.641L977.848 197.893H977.847L977.801 198.641ZM1000.58 200.06L1000.62 199.312L1000.58 200.06ZM1017.25 187.045L1018 187.093C1018 187.078 1018 187.063 1018 187.048L1017.25 187.045ZM1017.25 186.755L1018 186.758C1018 186.588 1017.94 186.422 1017.83 186.288L1017.25 186.755ZM994.649 158.367L995.235 157.9C995.103 157.734 994.907 157.632 994.696 157.618L994.649 158.367ZM909.649 153.094L910.398 153.134C910.42 152.724 910.108 152.372 909.698 152.346L909.649 153.094ZM908.213 180.209L908.962 180.256V180.248L908.213 180.209ZM855.393 149.532L855.442 148.783C855.242 148.77 855.046 148.837 854.896 148.97C854.746 149.102 854.655 149.289 854.644 149.488L855.393 149.532ZM853.827 176.526L853.078 176.482C853.077 176.496 853.077 176.509 853.077 176.523L853.827 176.526ZM853.826 176.806L854.575 176.85C854.575 176.836 854.576 176.823 854.576 176.809L853.826 176.806ZM868.767 191.804L868.814 191.056L868.767 191.804ZM891.542 193.233L891.495 193.982L891.542 193.233ZM758.477 143.225L744.426 168.91L745.742 169.63L759.793 143.945L758.477 143.225ZM805.412 145.817L759.183 142.837L759.086 144.333L805.315 147.314L805.412 145.817ZM799.99 173.559L806.095 146.732L804.632 146.399L798.527 173.226L799.99 173.559ZM782.551 187.166C791.595 187.73 799.496 181.672 800.007 173.439L798.51 173.346C798.06 180.588 791.035 186.192 782.644 185.669L782.551 187.166ZM759.766 185.736L782.55 187.166L782.644 185.669L759.86 184.239L759.766 185.736ZM744.123 169.946C743.644 178.176 750.72 185.172 759.766 185.736L759.859 184.239C751.47 183.716 745.198 177.28 745.62 170.033L744.123 169.946ZM744.365 169.057L744.152 169.777L745.59 170.202L745.803 169.483L744.365 169.057ZM963.557 183.366L952.476 155.373L951.082 155.925L962.162 183.919L963.557 183.366ZM977.847 197.893C969.426 197.369 963.158 190.932 963.608 183.689L962.111 183.596C961.6 191.829 968.68 198.825 977.754 199.39L977.847 197.893ZM1000.62 199.312L977.848 197.893L977.754 199.39L1000.53 200.809L1000.62 199.312ZM1016.5 186.998C1016.04 194.241 1009.01 199.835 1000.62 199.312L1000.53 200.809C1009.57 201.373 1017.47 195.326 1018 187.093L1016.5 186.998ZM1016.5 186.752V187.042L1018 187.048V186.758L1016.5 186.752ZM994.062 158.834L1016.66 187.222L1017.83 186.288L995.235 157.9L994.062 158.834ZM951.731 156.397L994.601 159.115L994.696 157.618L951.826 154.9L951.731 156.397ZM908.9 153.054L907.464 180.169L908.962 180.248L910.398 153.134L908.9 153.054ZM855.343 150.28L909.6 153.842L909.698 152.346L855.442 148.783L855.343 150.28ZM854.576 176.569L856.141 149.575L854.644 149.488L853.078 176.482L854.576 176.569ZM854.576 176.809L854.577 176.529L853.077 176.523L853.076 176.803L854.576 176.809ZM868.814 191.056C860.414 190.532 854.144 184.096 854.575 176.85L853.077 176.761C852.588 184.992 859.665 191.988 868.721 192.553L868.814 191.056ZM891.589 192.485L868.814 191.056L868.72 192.553L891.495 193.982L891.589 192.485ZM907.465 180.161C907.006 187.405 899.98 193.009 891.589 192.485L891.495 193.982C900.54 194.547 908.44 188.488 908.962 180.256L907.465 180.161Z" fill="black"/>
<path d="M943.951 249.599L949.96 277.993L956.161 270.077L969.238 268.298L943.951 249.599Z" fill="black" stroke="black" stroke-width="1.5" stroke-linecap="round" stroke-linejoin="round"/>
<path d="M1037.6 804H286.87" stroke="black" stroke-width="1.5" stroke-linecap="round" stroke-linejoin="round"/>
<path d="M706.7 814.21H169" stroke="black" stroke-width="1.5" stroke-linecap="round" stroke-linejoin="round"/>
<path d="M750.62 814.21H719.47" stroke="black" stroke-width="1.5" stroke-linecap="round" stroke-linejoin="round"/>
<path d="M852.899 450.696H736.469V710.096H852.899V450.696Z" fill="black" stroke="black" stroke-width="1.5" stroke-linecap="round" stroke-linejoin="round"/>
<path d="M852.718 450.696H753.658V710.096H852.718V450.696Z" fill="#AD85AD" stroke="black" stroke-width="1.5" stroke-linecap="round" stroke-linejoin="round"/>
<path d="M906.583 605.255L853.868 657.97L905.232 709.334L957.947 656.619L906.583 605.255Z" fill="#FFCD88" stroke="black" stroke-width="1.5" stroke-linecap="round" stroke-linejoin="round"/>
<path d="M620.658 500.746L698.138 558.856L754.308 802.916C813.308 803.496 872.308 803.076 931.368 803.656" stroke="black" stroke-width="1.5" stroke-linecap="round" stroke-linejoin="round"/>
<path d="M698.139 558.856H978.999L949.939 709.946H733.069" stroke="black" stroke-width="1.5" stroke-linecap="round" stroke-linejoin="round"/>
<path d="M762.059 559.797L783.369 710.067" stroke="black" stroke-width="1.5" stroke-linecap="round" stroke-linejoin="round"/>
<path d="M841.688 558.856L842.547 710.376" stroke="black" stroke-width="1.5" stroke-linecap="round" stroke-linejoin="round"/>
<path d="M913.999 558.856L894.629 709.516" stroke="black" stroke-width="1.5" stroke-linecap="round" stroke-linejoin="round"/>
<path d="M709.108 601.477H970.528" stroke="black" stroke-width="1.5" stroke-linecap="round" stroke-linejoin="round"/>
<path d="M718.578 643.656H961.778" stroke="black" stroke-width="1.5" stroke-linecap="round" stroke-linejoin="round"/>
<path d="M725.469 679.816H955.719" stroke="black" stroke-width="1.5" stroke-linecap="round" stroke-linejoin="round"/>
<path d="M785.788 842.956C794.348 842.956 801.288 836.016 801.288 827.456C801.288 818.896 794.348 811.956 785.788 811.956C777.228 811.956 770.288 818.896 770.288 827.456C770.288 836.016 777.228 842.956 785.788 842.956Z" stroke="black" stroke-width="1.5" stroke-linecap="round" stroke-linejoin="round"/>
<path d="M776.338 803.116H795.228V823.796C795.228 826.302 794.232 828.706 792.46 830.478C790.688 832.251 788.284 833.246 785.778 833.246C783.272 833.246 780.868 832.251 779.096 830.478C777.324 828.706 776.328 826.302 776.328 823.796V803.116H776.338Z" fill="black"/>
<path d="M897.618 842.956C906.179 842.956 913.118 836.016 913.118 827.456C913.118 818.896 906.179 811.956 897.618 811.956C889.058 811.956 882.118 818.896 882.118 827.456C882.118 836.016 889.058 842.956 897.618 842.956Z" stroke="black" stroke-width="1.5" stroke-linecap="round" stroke-linejoin="round"/>
<path d="M888.168 803.116H907.058V823.796C907.058 826.302 906.063 828.706 904.29 830.478C902.518 832.251 900.115 833.246 897.608 833.246C895.102 833.246 892.698 832.251 890.926 830.478C889.154 828.706 888.158 826.302 888.158 823.796V803.116H888.168Z" fill="black"/>
<path d="M403.368 639.207C403.368 639.207 394.168 663.717 440.128 660.657C486.088 657.597 567.278 628.487 567.278 628.487C558.938 623.127 509.278 592.327 452.388 610.097C434.043 615.938 417.276 625.895 403.368 639.207Z" fill="black" stroke="black" stroke-width="1.5" stroke-linecap="round" stroke-linejoin="round"/>
<path d="M391.578 743.377L426.858 747.967L440.598 755.627L411.878 756.147L391.578 743.377Z" fill="black" stroke="black" stroke-width="1.5" stroke-linecap="round" stroke-linejoin="round"/>
<path d="M524.388 502.057L562.678 548.787C571.818 573.847 581.268 599.124 591.028 624.617C595.848 637.217 600.698 649.727 605.578 662.147L641.218 787.647C636.368 790.947 630.978 794.307 625.028 797.647C620.602 800.087 616.332 802.257 612.218 804.157C602.018 784.487 591.758 762.517 582.088 738.277C573.938 717.857 567.228 698.347 561.658 680.057L483.938 586.357C468.588 576.177 460.248 574.287 455.408 574.657C466.908 576.797 451.447 575.11 455.408 574.657C466.908 576.797 466.908 576.797 455.408 574.657C439.408 553.657 524.738 519.017 524.388 502.057Z" fill="#F7CCB9"/>
<path d="M455.408 574.657C460.248 574.287 468.588 576.177 483.938 586.357L561.658 680.057C567.228 698.347 573.938 717.857 582.088 738.277C591.758 762.517 602.018 784.487 612.218 804.157C616.332 802.257 620.602 800.087 625.028 797.647C630.978 794.307 636.368 790.947 641.218 787.647L605.578 662.147C600.698 649.727 595.848 637.217 591.028 624.617C581.268 599.124 571.818 573.847 562.678 548.787L524.388 502.057C524.738 519.017 439.408 553.657 455.408 574.657ZM455.408 574.657C451.447 575.11 466.908 576.797 455.408 574.657V574.657ZM455.408 574.657C466.908 576.797 466.908 576.797 455.408 574.657V574.657Z" stroke="black" stroke-width="1.5" stroke-linecap="round" stroke-linejoin="round"/>
<path d="M496.639 553.587L427.879 567.207C427.645 602.387 427.419 637.564 427.199 672.737L382.259 783.377L411.069 806.187C431.229 767.52 451.392 728.854 471.559 690.187C474.639 684.265 476.749 677.887 477.809 671.297C484.089 632.057 490.365 592.82 496.639 553.587Z" fill="#F7CCB9" stroke="black" stroke-width="1.5" stroke-linecap="round" stroke-linejoin="round"/>
<path d="M413.578 704.736C418.879 707.165 424.346 709.214 429.938 710.866C439.243 713.621 448.838 715.276 458.528 715.796L411.088 806.186L393.488 754.056C400.188 737.636 406.885 721.196 413.578 704.736Z" fill="white" stroke="black" stroke-width="1.5" stroke-linecap="round" stroke-linejoin="round"/>
<path d="M410.738 807.107C421.146 809.909 431.364 813.376 441.328 817.487C452.908 822.277 457.768 825.317 460.148 830.757C460.527 831.623 460.832 832.519 461.058 833.437C461.333 834.647 461.326 835.905 461.038 837.112C460.751 838.32 460.19 839.445 459.398 840.401C458.607 841.358 457.607 842.12 456.475 842.629C455.343 843.138 454.109 843.38 452.868 843.337L368.808 841.137C367.537 841.107 366.292 840.774 365.175 840.166C364.059 839.558 363.103 838.693 362.387 837.642C361.672 836.591 361.217 835.385 361.061 834.123C360.904 832.861 361.051 831.581 361.488 830.387L371.488 802.887C378.195 783.047 384.902 763.21 391.608 743.377C407.115 750.249 423.692 754.393 440.608 755.627L410.738 807.107Z" fill="#FFCD88" stroke="black" stroke-width="1.5" stroke-linecap="round" stroke-linejoin="round"/>
<path d="M410.169 712.227C418.944 716.505 428.205 719.705 437.749 721.757C442.901 722.973 448.135 723.812 453.409 724.267" fill="white"/>
<path d="M410.169 712.227C418.944 716.505 428.205 719.705 437.749 721.757C442.901 722.973 448.135 723.812 453.409 724.267" stroke="black" stroke-width="1.5" stroke-linecap="round" stroke-linejoin="round"/>
<path d="M576.099 722.367C581.239 720.727 586.719 718.717 592.449 716.257C600.879 712.643 609.022 708.394 616.809 703.547C624.039 726.357 630.659 750.887 636.219 777.077C637.899 785.017 639.432 792.834 640.819 800.527L593.369 772.787L576.099 722.367Z" fill="white" stroke="black" stroke-width="1.5" stroke-linecap="round" stroke-linejoin="round"/>
<path d="M646.939 796.996C657.674 795.99 668.463 795.676 679.239 796.056C691.749 796.496 697.369 797.656 701.499 801.926C702.157 802.604 702.753 803.341 703.279 804.126C703.96 805.163 704.393 806.343 704.546 807.574C704.699 808.805 704.567 810.055 704.16 811.227C703.753 812.399 703.083 813.462 702.2 814.334C701.317 815.206 700.246 815.864 699.069 816.256L619.519 843.516C618.319 843.925 617.039 844.043 615.785 843.86C614.53 843.677 613.337 843.198 612.304 842.464C611.271 841.73 610.427 840.76 609.842 839.636C609.257 838.511 608.947 837.263 608.939 835.996C607.979 830.822 607.026 825.652 606.079 820.486L582.589 751.546C598.215 749.518 613.301 744.489 627.019 736.736L646.939 796.996Z" fill="#FFCD88" stroke="black" stroke-width="1.5" stroke-linecap="round" stroke-linejoin="round"/>
<path d="M578.938 730.057C588.212 727.603 597.149 724.016 605.547 719.377C610.469 716.657 615.194 713.596 619.688 710.217" fill="white"/>
<path d="M578.938 730.057C588.212 727.603 597.149 724.016 605.547 719.377C610.469 716.657 615.194 713.596 619.688 710.217" stroke="black" stroke-width="1.5" stroke-linecap="round" stroke-linejoin="round"/>
<path d="M428.689 753.977C428.689 753.977 397.059 797.897 410.259 807.337L438.259 759.337L428.689 753.977Z" fill="#FFCD88" stroke="black" stroke-width="1.5" stroke-linecap="round" stroke-linejoin="round"/>
<path d="M367.278 813.677C365.238 819.857 363.195 826.041 361.148 832.227L372.898 832.397C373.728 829.06 373.644 825.561 372.655 822.267C371.666 818.973 369.809 816.006 367.278 813.677Z" fill="#FFCD88" stroke="black" stroke-width="1.5" stroke-linecap="round" stroke-linejoin="round"/>
<path d="M405.519 796.71L404.311 796.107C403.639 795.771 402.822 796.043 402.487 796.715L401.883 797.923C401.547 798.594 401.82 799.411 402.491 799.747L403.699 800.351C404.371 800.687 405.188 800.414 405.523 799.742L406.127 798.535C406.463 797.863 406.191 797.046 405.519 796.71Z" fill="#FFCD88" stroke="black" stroke-width="1.5" stroke-linecap="round" stroke-linejoin="round"/>
<path d="M411.424 780.901L410.216 780.297C409.545 779.961 408.728 780.234 408.392 780.905L407.788 782.113C407.452 782.785 407.725 783.602 408.397 783.938L409.604 784.541C410.276 784.877 411.093 784.605 411.429 783.933L412.032 782.725C412.368 782.053 412.096 781.237 411.424 780.901Z" fill="#FFCD88" stroke="black" stroke-width="1.5" stroke-linecap="round" stroke-linejoin="round"/>
<path d="M418.706 768.044L417.499 767.44C416.827 767.104 416.01 767.377 415.674 768.049L415.07 769.256C414.735 769.928 415.007 770.745 415.679 771.081L416.886 771.684C417.558 772.02 418.375 771.748 418.711 771.076L419.315 769.868C419.65 769.197 419.378 768.38 418.706 768.044Z" fill="#FFCD88" stroke="black" stroke-width="1.5" stroke-linecap="round" stroke-linejoin="round"/>
<path d="M424.732 754.842L423.524 754.238C422.852 753.903 422.035 754.175 421.7 754.847L421.096 756.054C420.76 756.726 421.032 757.543 421.704 757.879L422.912 758.483C423.584 758.818 424.401 758.546 424.736 757.874L425.34 756.667C425.676 755.995 425.403 755.178 424.732 754.842Z" fill="#FFCD88" stroke="black" stroke-width="1.5" stroke-linecap="round" stroke-linejoin="round"/>
<path d="M405.818 799.146L417.658 794.816L411.738 783.326L429.598 776.046L419.018 770.476L436.088 764.216L425.048 757.276" stroke="black" stroke-width="1.5" stroke-linecap="round" stroke-linejoin="round"/>
<path d="M361.148 832.227L461.238 836.137L361.148 832.227Z" fill="#FFCD88"/>
<path d="M361.148 832.227L461.238 836.137" stroke="black" stroke-width="1.5" stroke-linecap="round" stroke-linejoin="round"/>
<path d="M619.229 747.176C619.229 747.176 630.609 800.086 646.469 796.616L629.599 743.666L619.229 747.176Z" fill="#FFCD88" stroke="black" stroke-width="1.5" stroke-linecap="round" stroke-linejoin="round"/>
<path d="M606.089 820.487L608.999 837.127L620.109 833.307C620.171 830.149 619.071 827.078 617.019 824.677C612.859 819.937 606.729 820.417 606.089 820.487Z" fill="#FFCD88" stroke="black" stroke-width="1.5" stroke-linecap="round" stroke-linejoin="round"/>
<path d="M635.409 793.012L634.152 793.504C633.452 793.777 633.106 794.566 633.38 795.265L633.871 796.523C634.144 797.222 634.933 797.568 635.633 797.295L636.89 796.803C637.59 796.53 637.935 795.741 637.662 795.042L637.171 793.784C636.897 793.085 636.109 792.739 635.409 793.012Z" fill="#FFCD88" stroke="black" stroke-width="1.5" stroke-linecap="round" stroke-linejoin="round"/>
<path d="M627.647 778.028L626.39 778.519C625.69 778.793 625.345 779.581 625.618 780.281L626.109 781.538C626.383 782.238 627.171 782.584 627.871 782.31L629.128 781.819C629.828 781.546 630.173 780.757 629.9 780.057L629.409 778.8C629.136 778.1 628.347 777.755 627.647 778.028Z" fill="#FFCD88" stroke="black" stroke-width="1.5" stroke-linecap="round" stroke-linejoin="round"/>
<path d="M622.984 764.005L621.727 764.496C621.027 764.769 620.682 765.558 620.955 766.257L621.446 767.515C621.719 768.215 622.508 768.56 623.208 768.287L624.465 767.795C625.165 767.522 625.51 766.733 625.237 766.034L624.746 764.776C624.472 764.077 623.684 763.731 622.984 764.005Z" fill="#FFCD88" stroke="black" stroke-width="1.5" stroke-linecap="round" stroke-linejoin="round"/>
<path d="M617.231 750.692L615.974 751.183C615.274 751.456 614.929 752.245 615.202 752.944L615.693 754.202C615.967 754.902 616.755 755.247 617.455 754.974L618.712 754.483C619.412 754.209 619.757 753.42 619.484 752.721L618.993 751.463C618.72 750.764 617.931 750.418 617.231 750.692Z" fill="#FFCD88" stroke="black" stroke-width="1.5" stroke-linecap="round" stroke-linejoin="round"/>
<path d="M637.418 794.427L642.138 782.747L629.648 779.427L636.218 761.297L624.988 765.407L631.788 748.547L619.238 752.087" stroke="black" stroke-width="1.5" stroke-linecap="round" stroke-linejoin="round"/>
<path d="M608.998 837.127L704.488 806.896L608.998 837.127Z" fill="#FFCD88"/>
<path d="M608.998 837.127L704.488 806.896" stroke="black" stroke-width="1.5" stroke-linecap="round" stroke-linejoin="round"/>
<path d="M541.858 373.726L565.798 428.576L618.238 462.186C613.738 474.373 609.235 486.556 604.728 498.736L595.938 494.056L569.558 480.056C558.493 474.179 548.705 466.164 540.76 456.476C532.816 446.787 526.874 435.618 523.278 423.616C518.038 406.116 512.802 388.616 507.568 371.116L508.968 369.366L541.858 373.726Z" fill="#FFCD88" stroke="black" stroke-width="1.5" stroke-linecap="round" stroke-linejoin="round"/>
<path d="M518.088 363.627L521.748 365.147C525.91 366.874 529.406 369.893 531.72 373.759C534.034 377.625 535.043 382.133 534.598 386.617C532.558 407.284 530.515 427.92 528.468 448.527C554.168 510.527 579.872 572.554 605.578 634.607C567.358 650.827 539.578 649.517 521.318 645.337C491.188 638.437 474.078 620.787 443.198 623.887C425.548 625.657 411.838 633.347 403.368 639.207L449.658 452.367C446.685 423.454 459.953 392.54 457 363.627" fill="#82AAD3"/>
<path d="M518.088 363.627L521.748 365.147C525.91 366.874 529.406 369.893 531.72 373.759C534.034 377.625 535.043 382.133 534.598 386.617C532.558 407.284 530.515 427.92 528.468 448.527C554.168 510.527 579.872 572.554 605.578 634.607C567.358 650.827 539.578 649.517 521.318 645.337C491.188 638.437 474.078 620.787 443.198 623.887C425.548 625.657 411.838 633.347 403.368 639.207L449.658 452.367C446.685 423.454 459.953 392.54 457 363.627H518.088Z" stroke="black" stroke-width="1.5" stroke-linecap="round" stroke-linejoin="round"/>
<path d="M493.818 581.436L505.238 577.926L517.628 444.896L505.998 453.846" fill="#F25A33"/>
<path d="M493.818 581.436L505.238 577.926L517.628 444.896L505.998 453.846" stroke="black" stroke-width="1.5" stroke-linecap="round" stroke-linejoin="round"/>
<path d="M427.108 453.057L509.788 436.747L446.278 439.117L421.748 435.437V440.057L427.108 453.057Z" fill="black" stroke="black" stroke-width="1.5" stroke-linecap="round" stroke-linejoin="round"/>
<path d="M492.218 392.566C496.728 408.566 497.978 425.806 494.218 451.796C486.218 507.656 464.328 525.446 470.728 570.266L472.728 584.566C461.178 584.386 448.888 583.756 435.968 582.566C428.548 581.853 421.398 580.999 414.518 580.006C412.992 553.895 414.36 527.696 418.598 501.886C423.938 470.356 431.368 453.056 437.068 412.996C439.928 392.826 441.068 376.106 441.538 364.996L482.538 368.566C486.62 376.194 489.865 384.241 492.218 392.566Z" fill="#FFCD88" stroke="black" stroke-width="1.5" stroke-linecap="round" stroke-linejoin="round"/>
<path d="M445.158 445.646L509.788 436.766C510.879 436.616 511.99 436.726 513.031 437.086C514.071 437.446 515.012 438.047 515.777 438.839C516.542 439.631 517.109 440.592 517.432 441.645C517.756 442.697 517.826 443.811 517.638 444.896L493.818 581.436L369.148 561.586C371.368 545.926 373.582 530.26 375.788 514.586L414.038 437.146L445.158 445.646Z" fill="#F25A33" stroke="black" stroke-width="1.5" stroke-linecap="round" stroke-linejoin="round"/>
<path d="M459.018 408.866C459.018 408.866 452.228 434.866 445.158 445.646L423.788 441.056L459.018 408.866Z" fill="black" stroke="black" stroke-width="1.5" stroke-linecap="round" stroke-linejoin="round"/>
<path d="M377.818 551.057C376.895 543.205 377.576 535.248 379.818 527.667C380.893 524.057 382.323 520.564 384.088 517.237L400.418 513.627C400.532 514.478 400.851 515.288 401.348 515.987C402.467 517.372 404.053 518.3 405.808 518.597C408.829 519.108 411.733 520.162 414.378 521.707L414.468 521.757C416.211 522.766 417.725 524.126 418.915 525.751C420.104 527.376 420.943 529.231 421.378 531.197L423.938 543.217C424.468 545.747 422.468 548.317 419.458 548.947" fill="#F7CCB9"/>
<path d="M377.818 551.057C376.895 543.205 377.576 535.248 379.818 527.667C380.893 524.057 382.323 520.564 384.088 517.237L400.418 513.627C400.532 514.478 400.851 515.288 401.348 515.987C402.467 517.372 404.053 518.3 405.808 518.597C408.829 519.108 411.733 520.162 414.378 521.707L414.468 521.757C416.211 522.766 417.725 524.126 418.915 525.751C420.104 527.376 420.943 529.231 421.378 531.197L423.938 543.217C424.468 545.747 422.468 548.317 419.458 548.947" stroke="black" stroke-width="1.5" stroke-linecap="round" stroke-linejoin="round"/>
<path d="M377.818 551.057C379.668 566.057 380.888 572.157 382.728 587.197C382.842 587.881 383.195 588.503 383.724 588.952C384.253 589.4 384.925 589.647 385.618 589.647H385.938C386.298 589.637 386.654 589.579 386.998 589.477C387.67 589.302 388.267 588.916 388.703 588.376C389.139 587.836 389.389 587.17 389.418 586.477C389.418 576.837 389.008 568.477 388.978 558.857C390.818 567.857 392.648 579.857 394.488 588.857C394.74 589.747 395.305 590.516 396.078 591.023C396.851 591.53 397.782 591.741 398.698 591.617H398.788C401.368 591.457 403.338 589.397 402.998 587.247C399.918 568.247 398.138 556.817 398.488 556.747C398.838 556.677 401.398 568.057 405.228 587.057C405.638 589.107 407.928 590.377 410.368 589.907H410.458C412.928 589.437 414.608 587.357 414.228 585.277C412.438 575.657 410.158 563.677 408.368 554.057C410.808 563.707 413.738 575.727 416.168 585.387C416.678 587.387 418.958 588.597 421.378 588.137H421.468C423.988 587.657 425.708 585.537 425.308 583.417C422.858 570.417 421.378 561.947 418.928 548.907L415.338 531.967" fill="#F7CCB9"/>
<path d="M377.818 551.057C379.668 566.057 380.888 572.157 382.728 587.197C382.842 587.881 383.195 588.503 383.724 588.952C384.253 589.4 384.925 589.647 385.618 589.647H385.938C386.298 589.637 386.654 589.579 386.998 589.477C387.67 589.302 388.267 588.916 388.703 588.376C389.139 587.836 389.389 587.17 389.418 586.477C389.418 576.837 389.008 568.477 388.978 558.857C390.818 567.857 392.648 579.857 394.488 588.857C394.74 589.747 395.305 590.516 396.078 591.023C396.851 591.53 397.782 591.741 398.698 591.617H398.788C401.368 591.457 403.338 589.397 402.998 587.247C399.918 568.247 398.138 556.817 398.488 556.747C398.838 556.677 401.398 568.057 405.228 587.057C405.638 589.107 407.928 590.377 410.368 589.907H410.458C412.928 589.437 414.608 587.357 414.228 585.277C412.438 575.657 410.158 563.677 408.368 554.057C410.808 563.707 413.738 575.727 416.168 585.387C416.678 587.387 418.958 588.597 421.378 588.137H421.468C423.988 587.657 425.708 585.537 425.308 583.417C422.858 570.417 421.378 561.947 418.928 548.907L415.338 531.967" stroke="black" stroke-width="1.5" stroke-linecap="round" stroke-linejoin="round"/>
<path d="M460.429 403.167C459.31 412.963 454.351 421.914 446.639 428.057C435.169 441.547 419.859 463.657 412.639 494.107C410.718 502.14 409.461 510.318 408.879 518.557L372.089 528.557C370.359 487.637 377.889 456.377 383.999 437.477C390.965 418.248 400.892 400.224 413.419 384.057C419.419 376.317 427.339 367.757 439.239 365.347C441.716 364.848 444.243 364.633 446.769 364.707" fill="#FFCD88"/>
<path d="M460.429 403.167C459.31 412.963 454.351 421.914 446.639 428.057C435.169 441.547 419.859 463.657 412.639 494.107C410.718 502.14 409.461 510.318 408.879 518.557L372.089 528.557C370.359 487.637 377.889 456.377 383.999 437.477C390.965 418.248 400.892 400.224 413.419 384.057C419.419 376.317 427.339 367.757 439.239 365.347C441.716 364.848 444.243 364.633 446.769 364.707" stroke="black" stroke-width="1.5" stroke-linecap="round" stroke-linejoin="round"/>
<path d="M528.469 448.526L518.469 450.016L528.469 448.526Z" fill="white"/>
<path d="M528.469 448.526L518.469 450.016" stroke="black" stroke-width="1.5" stroke-linecap="round" stroke-linejoin="round"/>
<path d="M618.238 462.187L599.688 508.786C598.688 511.096 600.688 513.876 602.768 514.586C603.284 514.728 603.822 514.769 604.353 514.702C604.884 514.636 605.396 514.466 605.861 514.201C606.325 513.936 606.733 513.582 607.06 513.159C607.388 512.736 607.628 512.253 607.768 511.737C609.958 505.947 612.598 500.326 614.768 494.536L630.258 500.536C630.807 501.138 631.217 501.854 631.459 502.631C631.701 503.409 631.769 504.229 631.658 505.036C631.641 505.184 631.615 505.332 631.578 505.477C631.316 506.642 630.602 507.656 629.594 508.297C628.586 508.938 627.365 509.154 626.198 508.897L622.328 507.957C621.934 507.824 621.518 507.77 621.103 507.799C620.689 507.828 620.284 507.938 619.912 508.124C619.54 508.31 619.209 508.568 618.937 508.882C618.665 509.197 618.458 509.562 618.328 509.957C617.904 510.946 617.833 512.051 618.128 513.086C618.398 513.816 619.068 514.857 623.248 516.237C625.388 516.933 627.582 517.447 629.808 517.776L626.348 520.776C625.678 521.362 625.173 522.114 624.885 522.956C624.597 523.799 624.536 524.703 624.708 525.577C624.74 525.785 624.811 525.986 624.918 526.167C625.362 526.876 625.991 527.451 626.738 527.827C627.325 528.104 627.978 528.212 628.623 528.138C629.268 528.064 629.88 527.81 630.388 527.406C633.629 524.953 636.564 522.12 639.128 518.966C641.121 516.661 642.892 514.173 644.418 511.536L640.718 523.057C640.308 524.285 640.383 525.623 640.928 526.797C641.159 527.289 641.495 527.722 641.914 528.068C642.332 528.414 642.822 528.663 643.348 528.797C643.961 528.961 644.602 528.992 645.228 528.887C646.023 528.716 646.757 528.332 647.352 527.778C647.947 527.223 648.381 526.518 648.608 525.737L655.148 504.967L655.328 517.966C655.316 518.964 655.667 519.934 656.317 520.692C656.967 521.45 657.87 521.945 658.858 522.086H658.938C659.881 522.19 660.834 522.082 661.728 521.767C662.704 521.391 663.528 520.702 664.071 519.809C664.613 518.915 664.845 517.866 664.728 516.827C664.438 513.997 663.988 509.546 663.418 504.096C662.308 493.296 661.688 487.807 659.068 483.587C657.261 480.72 654.848 478.282 651.998 476.447L618.238 462.187Z" fill="#F7CCB9" stroke="black" stroke-width="1.5" stroke-linecap="round" stroke-linejoin="round"/>
<path d="M629.839 517.706C632.049 516.918 634.054 515.644 635.705 513.977C637.356 512.31 638.612 510.294 639.379 508.076C640.105 505.766 640.279 503.319 639.888 500.929C639.498 498.54 638.553 496.275 637.129 494.316" fill="#F7CCB9"/>
<path d="M629.839 517.706C632.049 516.918 634.054 515.644 635.705 513.977C637.356 512.31 638.612 510.294 639.379 508.076C640.105 505.766 640.279 503.319 639.888 500.929C639.498 498.54 638.553 496.275 637.129 494.316" stroke="black" stroke-width="1.5" stroke-linecap="round" stroke-linejoin="round"/>
<path d="M644.939 491.656C646.455 493.89 647.399 496.462 647.689 499.146C648.078 503.516 646.921 507.883 644.419 511.486" fill="#F7CCB9"/>
<path d="M644.939 491.656C646.455 493.89 647.399 496.462 647.689 499.146C648.078 503.516 646.921 507.883 644.419 511.486" stroke="black" stroke-width="1.5" stroke-linecap="round" stroke-linejoin="round"/>
<path d="M653.998 489.116C654.693 491.228 655.169 493.407 655.418 495.616C655.77 498.72 655.679 501.858 655.148 504.936" fill="#F7CCB9"/>
<path d="M653.998 489.116C654.693 491.228 655.169 493.407 655.418 495.616C655.77 498.72 655.679 501.858 655.148 504.936" stroke="black" stroke-width="1.5" stroke-linecap="round" stroke-linejoin="round"/>
<path d="M441.539 364.996C441.619 365.246 442.669 364.996 443.299 365.056C446.039 365.187 448.712 365.95 451.109 367.286C454.058 369.576 456.741 372.189 459.109 375.076C460.829 377.166 467.339 385.436 471.749 407.886C473.507 417.326 474.531 426.888 474.809 436.486C475.081 443.86 474.968 451.244 474.469 458.606L487.749 459.966C488.349 451.566 488.689 442.486 488.609 432.816C488.529 423.146 488.049 414.276 487.329 405.966C486.63 397.468 484.838 389.096 481.999 381.056C480.554 376.858 478.347 372.963 475.489 369.566C473.58 367.338 471.392 365.365 468.979 363.696C468.089 362.878 466.917 362.434 465.709 362.456C459.159 362.566 452.789 359.566 445.239 362.786C444.029 363.306 441.399 364.566 441.539 364.996Z" fill="#F25A33" stroke="black" stroke-width="1.5" stroke-linecap="round" stroke-linejoin="round"/>
<path d="M620.659 512.057C626.905 512.057 631.969 506.993 631.969 500.747C631.969 494.501 626.905 489.437 620.659 489.437C614.412 489.437 609.349 494.501 609.349 500.747C609.349 506.993 614.412 512.057 620.659 512.057Z" fill="#FFCD88" stroke="black" stroke-width="1.5" stroke-linecap="round" stroke-linejoin="round"/>
<path d="M481.999 455.196C483.876 455.196 485.399 453.674 485.399 451.796C485.399 449.919 483.876 448.396 481.999 448.396C480.121 448.396 478.599 449.919 478.599 451.796C478.599 453.674 480.121 455.196 481.999 455.196Z" fill="#F25A33" stroke="black" stroke-width="1.5" stroke-linecap="round" stroke-linejoin="round"/>
<path d="M441.538 364.997L461.198 383.177L482.508 370.607L468.938 363.707C468.669 362.663 468.147 361.702 467.418 360.907C463.458 356.677 453.078 358.527 441.538 364.997Z" fill="black" stroke="black" stroke-width="1.5" stroke-linecap="round" stroke-linejoin="round"/>
<path d="M545.028 383.166C544.938 381.006 544.378 373.726 538.848 369.076C535.448 366.216 531.488 365.456 527.708 364.736C524.216 364.073 520.645 363.921 517.108 364.286C519.25 367.194 521.169 370.259 522.848 373.456C524.135 375.899 525.274 378.417 526.258 380.996C529.743 391.117 531.359 401.787 531.028 412.486C530.845 417.816 530.334 423.129 529.498 428.396C528.268 436.966 526.868 441.286 526.428 449.246C525.228 471.146 533.228 487.376 546.678 515.116C554.886 532.013 564.691 548.086 575.958 563.116C568.488 521.968 552.295 482.896 528.468 448.526C535.186 437 539.979 424.455 542.658 411.386" fill="#FFCD88"/>
<path d="M545.028 383.166C544.938 381.006 544.378 373.726 538.848 369.076C535.448 366.216 531.488 365.456 527.708 364.736C524.216 364.073 520.645 363.921 517.108 364.286C519.25 367.194 521.169 370.259 522.848 373.456C524.135 375.899 525.274 378.417 526.258 380.996C529.743 391.117 531.359 401.787 531.028 412.486C530.845 417.816 530.334 423.129 529.498 428.396C528.268 436.966 526.868 441.286 526.428 449.246C525.228 471.146 533.228 487.376 546.678 515.116C554.886 532.013 564.691 548.086 575.958 563.116C568.488 521.968 552.295 482.896 528.468 448.526C535.186 437 539.979 424.455 542.658 411.386" stroke="black" stroke-width="1.5" stroke-linecap="round" stroke-linejoin="round"/>
<path d="M527.279 357.847L527.599 357.967C529.07 358.596 530.401 359.512 531.516 360.661C532.63 361.809 533.504 363.168 534.089 364.657C535.369 368.537 533.679 373.387 529.749 376.487L517.109 364.287C513.889 361.017 514.109 359.477 514.339 358.867C515.359 356.297 522.529 356.057 527.279 357.847Z" fill="black" stroke="black" stroke-width="1.5" stroke-linecap="round" stroke-linejoin="round"/>
<path d="M503.938 370.057C503.938 370.057 512.108 394.057 510.068 410.397" stroke="black" stroke-width="1.5" stroke-linecap="round" stroke-linejoin="round"/>
<path d="M507.538 383.886C508.947 383.886 510.088 382.744 510.088 381.336C510.088 379.928 508.947 378.786 507.538 378.786C506.13 378.786 504.988 379.928 504.988 381.336C504.988 382.744 506.13 383.886 507.538 383.886Z" fill="white" stroke="black" stroke-width="1.5" stroke-linecap="round" stroke-linejoin="round"/>
<path d="M510.088 397.157C511.496 397.157 512.638 396.015 512.638 394.607C512.638 393.199 511.496 392.057 510.088 392.057C508.68 392.057 507.538 393.199 507.538 394.607C507.538 396.015 508.68 397.157 510.088 397.157Z" fill="white" stroke="black" stroke-width="1.5" stroke-linecap="round" stroke-linejoin="round"/>
<path d="M618.239 462.187L613.239 451.797L602.509 480.907L594.339 494.187L603.789 498.527L618.239 462.187Z" fill="#FFCD88" stroke="black" stroke-width="1.5" stroke-linecap="round" stroke-linejoin="round"/>
<path d="M409.369 518.807L409.489 509.507L384.939 517.457L367.599 518.697L371.599 529.057L409.369 518.807Z" fill="#FFCD88" stroke="black" stroke-width="1.5" stroke-linecap="round" stroke-linejoin="round"/>
<path d="M466.554 293.598C456.754 314.918 460.305 338.508 474.195 350.868C495.895 370.198 531.355 351.868 535.475 349.678C536.808 348.958 538.091 348.218 539.324 347.458C542.92 345.199 545.51 341.644 546.558 337.528C547.606 333.413 547.032 329.052 544.955 325.348C543.026 321.891 541.335 318.306 539.894 314.618C531.894 294.028 536.494 282.458 530.274 276.408C524.444 270.728 509.144 269.958 466.554 293.598Z" fill="black" stroke="black" stroke-width="1.5" stroke-linecap="round" stroke-linejoin="round"/>
<path d="M481.045 335.417L507.985 336.307C511.285 337.092 514.733 336.986 517.979 336C521.224 335.014 524.149 333.184 526.455 330.697C528.893 327.983 530.521 324.64 531.155 321.047C531.433 319.317 531.467 317.557 531.255 315.817C530.525 309.117 530.185 306.707 529.765 302.047C528.845 291.937 532.555 290.787 531.045 281.847C530.555 278.957 529.915 275.217 527.375 271.847C521.715 264.217 510.005 264.097 506.565 264.117C501.634 264.16 496.768 265.243 492.285 267.297L481.045 335.417Z" fill="#F7CCB9"/>
<path d="M466.554 293.598C465.77 290.559 465.593 287.396 466.032 284.288C466.471 281.181 467.519 278.19 469.114 275.488C475.674 264.818 488.294 264.488 489.114 264.488L499.824 263.918C501.604 263.498 517.614 259.988 528.294 270.218C529.779 271.651 531.079 273.263 532.165 275.018C532.529 275.744 532.775 276.524 532.895 277.328C533.537 280.771 533.591 284.297 533.054 287.758L502.935 279.758C500.853 281.882 490.536 297.887 489.114 300.5C482.784 312.19 496.654 307.988 492.034 319.588C489.562 325.61 477.774 340.074 473 344.5L466.554 293.598Z" fill="black" stroke="black" stroke-width="1.5" stroke-linecap="round" stroke-linejoin="round"/>
<path d="M508.496 336.358C511.376 345.238 514.246 354.358 517.126 363.268C509.359 368.841 499.878 371.5 490.346 370.778C482.699 370.086 475.411 367.215 469.346 362.508L481.636 335.228" fill="#F7CCB9"/>
<path d="M508.496 336.358C511.376 345.238 514.246 354.358 517.126 363.268C509.359 368.841 499.878 371.5 490.346 370.778C482.699 370.086 475.411 367.215 469.346 362.508L481.636 335.228" stroke="black" stroke-width="1.5" stroke-linecap="round" stroke-linejoin="round"/>
<path d="M516.225 312.337H517.875C518.502 312.338 519.117 312.166 519.653 311.841C520.189 311.516 520.625 311.05 520.914 310.494C521.203 309.937 521.333 309.312 521.291 308.687C521.249 308.061 521.036 307.46 520.675 306.947L516.215 300.577" stroke="black" stroke-width="1.5" stroke-linecap="round" stroke-linejoin="round"/>
<path d="M521.454 316.367C521.497 316.367 521.539 316.379 521.576 316.401C521.613 316.424 521.643 316.455 521.664 316.493C521.684 316.531 521.694 316.573 521.692 316.616C521.691 316.659 521.678 316.701 521.654 316.737C521.202 317.552 520.541 318.231 519.738 318.703C518.936 319.176 518.021 319.426 517.089 319.426C516.158 319.426 515.243 319.176 514.44 318.703C513.638 318.231 512.976 317.552 512.524 316.737C512.503 316.701 512.492 316.659 512.492 316.617C512.492 316.574 512.504 316.533 512.525 316.496C512.546 316.46 512.577 316.429 512.614 316.409C512.65 316.388 512.692 316.377 512.734 316.377L521.454 316.367Z" fill="black"/>
<path fill-rule="evenodd" clip-rule="evenodd" d="M505.595 302.887C505.595 304.373 504.964 305.577 504.186 305.577C503.407 305.577 502.775 304.373 502.775 302.887C502.775 301.402 503.407 300.197 504.186 300.197C504.964 300.197 505.595 301.402 505.595 302.887ZM527.166 302.887C527.166 304.373 526.534 305.577 525.756 305.577C524.977 305.577 524.346 304.373 524.346 302.887C524.346 301.402 524.977 300.197 525.756 300.197C526.534 300.197 527.166 301.402 527.166 302.887Z" fill="black"/>
<path d="M483.245 294.467L481.405 294.407C479.323 294.341 477.297 295.09 475.758 296.494C474.219 297.899 473.289 299.848 473.165 301.927C473.064 303.727 473.574 305.509 474.612 306.983C475.65 308.456 477.156 309.536 478.885 310.047" fill="#F7CCB9"/>
<path fill-rule="evenodd" clip-rule="evenodd" d="M499.186 298.227C499.962 296.855 501.209 295.811 502.696 295.287L499.186 298.227ZM529.776 298.227C529 296.855 527.753 295.811 526.266 295.287L529.776 298.227Z" fill="white"/>
<path fill-rule="evenodd" clip-rule="evenodd" d="M503.347 294.916C503.527 295.231 503.455 295.629 503.177 295.862L499.667 298.802C499.389 299.035 498.984 299.036 498.706 298.804C498.427 298.572 498.354 298.174 498.533 297.858C499.398 296.328 500.789 295.163 502.447 294.58C502.789 294.459 503.168 294.601 503.347 294.916ZM525.614 294.916C525.794 294.601 526.173 294.459 526.515 294.58C528.173 295.163 529.563 296.328 530.428 297.858C530.607 298.174 530.534 298.572 530.255 298.804C529.977 299.036 529.572 299.035 529.294 298.802L525.784 295.862C525.506 295.629 525.435 295.231 525.614 294.916Z" fill="black"/>
<path d="M500.225 334.557L507.985 336.307C511.285 337.092 514.735 336.986 517.98 335.998C521.226 335.011 524.151 333.178 526.455 330.687C528.894 327.978 530.523 324.638 531.155 321.047C531.433 319.317 531.466 317.557 531.254 315.817C530.524 309.117 530.184 306.707 529.764 302.047C528.844 291.937 532.554 290.787 531.044 281.847C530.554 278.957 529.915 275.217 527.375 271.847C521.125 263.427 508.594 263.997 506.564 264.117C504.084 264.267 502.045 264.027 500.725 264.117" stroke="black" stroke-width="1.5" stroke-linecap="round" stroke-linejoin="round"/>
</svg>
