<svg width="1220" height="920" viewBox="0 0 1220 920" fill="none" xmlns="http://www.w3.org/2000/svg">
<path d="M658 241.76H739.48" stroke="#CCCCCC" stroke-width="1.5" stroke-linecap="round" stroke-linejoin="round"/>
<path d="M681.62 267.74H763.1" stroke="#CCCCCC" stroke-width="1.5" stroke-linecap="round" stroke-linejoin="round"/>
<path d="M692.25 229.95V278.36" stroke="#CCCCCC" stroke-width="1.5" stroke-linecap="round" stroke-linejoin="round"/>
<path d="M735.939 229.95V278.36" stroke="#CCCCCC" stroke-width="1.5" stroke-linecap="round" stroke-linejoin="round"/>
<path d="M718.229 176.81H799.7" stroke="#CCCCCC" stroke-width="1.5" stroke-linecap="round" stroke-linejoin="round"/>
<path d="M741.84 202.79H823.32" stroke="#CCCCCC" stroke-width="1.5" stroke-linecap="round" stroke-linejoin="round"/>
<path d="M752.47 165V213.42" stroke="#CCCCCC" stroke-width="1.5" stroke-linecap="round" stroke-linejoin="round"/>
<path d="M796.16 165V213.42" stroke="#CCCCCC" stroke-width="1.5" stroke-linecap="round" stroke-linejoin="round"/>
<path d="M193.14 146.45V129H583.22" stroke="#CCCCCC" stroke-width="1.5" stroke-linecap="round" stroke-linejoin="round"/>
<path d="M583.22 401.51V417.78H193.14V152.58" stroke="#CCCCCC" stroke-width="1.5" stroke-linecap="round" stroke-linejoin="round"/>
<path d="M573.64 404.58V408.32H202.71V216.66" stroke="#CCCCCC" stroke-width="1.5" stroke-linecap="round" stroke-linejoin="round"/>
<path d="M194.34 152.28C200.379 233.954 225.942 312.983 268.88 382.72C271.16 378.2 278.03 366.12 292.23 360.31C304.72 355.2 322.23 355.18 325.69 362.2C328.98 368.93 316.98 377.32 320.01 384.93C322.81 391.93 336.45 393.27 348.41 393.13C358.809 390.238 368.784 385.995 378.08 380.51C398.31 368.51 403.7 357.15 421.63 350.21C430.588 346.814 440.152 345.31 449.72 345.79C450.59 346.01 462.26 349.08 463.92 357.15C465.11 362.92 460.65 368.6 458.24 371.67C453.24 378.03 448.72 378.67 446.88 384.3C446.01 387.179 446.01 390.251 446.88 393.13C457.055 396.441 467.867 397.308 478.44 395.66C492.97 393.23 504.83 385.88 517.57 377.98C536.41 366.31 542.7 358.55 551.98 360.98C556.98 362.26 562.45 366.38 562.98 371.08C563.51 375.78 558.98 378.19 556.04 386.86C554.881 390.324 554.241 393.94 554.14 397.59C556.772 400.823 560.278 403.232 564.24 404.53C581.07 409.62 594.37 387 619.79 384.34C625.79 383.7 635.3 383.91 647.56 389.39C607.63 316.637 585.606 235.419 583.31 152.46" stroke="#CCCCCC" stroke-width="1.5" stroke-linecap="round" stroke-linejoin="round"/>
<path d="M583.22 146.58C583.12 140.44 583.13 134.58 583.22 129H193.13C193.3 134.64 193.56 139.59 193.96 145.83" stroke="#CCCCCC" stroke-width="1.5" stroke-linecap="round" stroke-linejoin="round"/>
<path d="M292.23 265.03C292.23 265.03 298.55 317.42 321.9 357.18" stroke="#CCCCCC" stroke-width="1.5" stroke-linecap="round" stroke-linejoin="round"/>
<path d="M447.51 317.42L456.98 348.35" stroke="#CCCCCC" stroke-width="1.5" stroke-linecap="round" stroke-linejoin="round"/>
<path d="M520.1 268.82C520.1 268.82 536.51 325.62 559.23 363.5" stroke="#CCCCCC" stroke-width="1.5" stroke-linecap="round" stroke-linejoin="round"/>
<path d="M304.86 356.55L320.01 384.96" stroke="#CCCCCC" stroke-width="1.5" stroke-linecap="round" stroke-linejoin="round"/>
<path d="M426.05 350.24L446.88 393.16" stroke="#CCCCCC" stroke-width="1.5" stroke-linecap="round" stroke-linejoin="round"/>
<path d="M533.99 367.28L554.18 397.58" stroke="#CCCCCC" stroke-width="1.5" stroke-linecap="round" stroke-linejoin="round"/>
<path d="M175.92 152.32H598.9" stroke="#CCCCCC" stroke-width="1.5" stroke-linecap="round" stroke-linejoin="round"/>
<path d="M175.92 146.54H598.9" stroke="#CCCCCC" stroke-width="1.5" stroke-linecap="round" stroke-linejoin="round"/>
<path d="M167.17 157.09C171.682 157.09 175.34 153.432 175.34 148.92C175.34 144.408 171.682 140.75 167.17 140.75C162.658 140.75 159 144.408 159 148.92C159 153.432 162.658 157.09 167.17 157.09Z" stroke="#CCCCCC" stroke-width="1.5" stroke-linecap="round" stroke-linejoin="round"/>
<path d="M607.34 157.09C611.852 157.09 615.51 153.432 615.51 148.92C615.51 144.408 611.852 140.75 607.34 140.75C602.828 140.75 599.17 144.408 599.17 148.92C599.17 153.432 602.828 157.09 607.34 157.09Z" stroke="#CCCCCC" stroke-width="1.5" stroke-linecap="round" stroke-linejoin="round"/>
<path d="M967.03 155H868V838.87H967.03V155Z" stroke="#CCCCCC" stroke-width="1.5" stroke-linecap="round" stroke-linejoin="round"/>
<path d="M1088.48 155H989.45V838.87H1088.48V155Z" stroke="#CCCCCC" stroke-width="1.5" stroke-linecap="round" stroke-linejoin="round"/>
<path d="M949.28 584.76C953.924 584.76 957.69 580.995 957.69 576.35C957.69 571.706 953.924 567.94 949.28 567.94C944.635 567.94 940.87 571.706 940.87 576.35C940.87 580.995 944.635 584.76 949.28 584.76Z" stroke="#CCCCCC" stroke-width="1.5" stroke-linecap="round" stroke-linejoin="round"/>
<path d="M1017.48 584.76C1022.12 584.76 1025.89 580.995 1025.89 576.35C1025.89 571.706 1022.12 567.94 1017.48 567.94C1012.84 567.94 1009.07 571.706 1009.07 576.35C1009.07 580.995 1012.84 584.76 1017.48 584.76Z" stroke="#CCCCCC" stroke-width="1.5" stroke-linecap="round" stroke-linejoin="round"/>
<path d="M912.84 156.37C903.48 167.95 891.2 186.82 889.49 211.07C885.77 263.73 935.61 289.83 932.51 333.66C931.09 352.73 919.34 379.73 868.93 410.05" stroke="#CCCCCC" stroke-width="1.5" stroke-linecap="round" stroke-linejoin="round"/>
<path d="M870.8 281.131C872.74 281.841 892.14 289.331 896.96 308.221C901.61 326.441 890.77 347.691 869.87 356.801" stroke="#CCCCCC" stroke-width="1.5" stroke-linecap="round" stroke-linejoin="round"/>
<path d="M967.03 394.171C957.93 414.971 946.62 423.681 938.03 427.801C926.85 433.191 918.32 431.731 895.03 438.081C886.474 440.416 878.054 443.224 869.81 446.491" stroke="#CCCCCC" stroke-width="1.5" stroke-linecap="round" stroke-linejoin="round"/>
<path d="M967.03 454.9C959.8 459.14 914.39 486.75 908.17 536.18C903.32 574.78 924.81 607.24 939 628.67C946.846 640.502 955.931 651.464 966.1 661.37" stroke="#CCCCCC" stroke-width="1.5" stroke-linecap="round" stroke-linejoin="round"/>
<path d="M869.87 682.85C878.37 681.98 891.31 682.02 902.57 689.39C918.28 699.69 918.27 716.13 933.4 737.98C939.26 746.45 949.2 758.33 966.1 769.74" stroke="#CCCCCC" stroke-width="1.5" stroke-linecap="round" stroke-linejoin="round"/>
<path d="M869.87 723.96C872.5 722.79 881.17 719.3 889.49 723.03C897.62 726.68 900.63 735.08 902.57 740.78C910.67 764.59 896.7 775.61 904.43 788.43C912.16 801.25 928.73 795.09 941.8 809.91C950.01 819.22 951.8 831.02 952.08 838.91" stroke="#CCCCCC" stroke-width="1.5" stroke-linecap="round" stroke-linejoin="round"/>
<path d="M886.68 819.26C887.08 813.56 900.03 808.79 910.97 809.91C919.13 810.75 929.66 815.22 929.66 820.19C929.66 826.19 914.5 833.4 901.66 830.47C894.87 828.93 886.35 824.03 886.68 819.26Z" stroke="#CCCCCC" stroke-width="1.5" stroke-linecap="round" stroke-linejoin="round"/>
<path d="M1088.32 181.58C1075.04 172.58 1067.43 174.93 1065.25 175.81C1051.25 181.44 1049.56 209.97 1056.59 229.17C1064.48 250.67 1083.48 260.77 1089.76 263.77" stroke="#CCCCCC" stroke-width="1.5" stroke-linecap="round" stroke-linejoin="round"/>
<path d="M1039.51 156.311C1039.51 156.311 1005.28 202.851 1029.73 232.471C1054.18 262.091 1071.29 312.861 1056.62 349.881C1041.95 386.901 1012.62 433.451 1044.4 464.121C1076.18 494.791 1089.62 518.121 1089.62 518.121" stroke="#CCCCCC" stroke-width="1.5" stroke-linecap="round" stroke-linejoin="round"/>
<path d="M1088.66 335.311C1084.95 338.691 1067.74 355.031 1066.09 381.861C1064.09 413.741 1085.74 434.201 1088.66 436.861" stroke="#CCCCCC" stroke-width="1.5" stroke-linecap="round" stroke-linejoin="round"/>
<path d="M989.29 424.551C998.64 429.551 1011.22 438.111 1019.86 452.551C1036.46 480.321 1024.05 505.641 1030.05 539.161C1033.51 558.491 1057.25 593.831 1088.05 622.221" stroke="#CCCCCC" stroke-width="1.5" stroke-linecap="round" stroke-linejoin="round"/>
<path d="M988.51 780.03C997.282 762.162 1004.37 743.514 1009.68 724.33C1020.82 684.16 1017.8 665.06 1030.85 649.48C1039.29 639.39 1055.5 629.55 1089.85 633.81" stroke="#CCCCCC" stroke-width="1.5" stroke-linecap="round" stroke-linejoin="round"/>
<path d="M1087.11 680.12C1082.33 680.32 1077.52 681.34 1068.5 686.77C1054.01 695.49 1049.05 709.5 1047.21 714.7C1039.94 735.27 1046.6 753.51 1048.54 758.6C1058.9 785.7 1083.54 796.45 1088.45 798.5" stroke="#CCCCCC" stroke-width="1.5" stroke-linecap="round" stroke-linejoin="round"/>
<path d="M967.03 155H989.45" stroke="#CCCCCC" stroke-width="1.5" stroke-linecap="round" stroke-linejoin="round"/>
<path d="M967.03 838.881H989.45" stroke="#CCCCCC" stroke-width="1.5" stroke-linecap="round" stroke-linejoin="round"/>
<path d="M350.89 557.89V833.89C350.837 834.983 350.366 836.013 349.573 836.768C348.781 837.522 347.729 837.943 346.635 837.943C345.541 837.943 344.489 837.522 343.697 836.768C342.904 836.013 342.433 834.983 342.38 833.89V557.89C342.352 557.314 342.441 556.738 342.643 556.197C342.844 555.657 343.153 555.163 343.551 554.745C343.949 554.327 344.427 553.995 344.957 553.768C345.487 553.541 346.058 553.423 346.635 553.423C347.212 553.423 347.783 553.541 348.313 553.768C348.843 553.995 349.322 554.327 349.719 554.745C350.117 555.163 350.426 555.657 350.627 556.197C350.829 556.738 350.918 557.314 350.89 557.89Z" fill="#D88B6D" stroke="black" stroke-width="1.5" stroke-miterlimit="10" stroke-linecap="round"/>
<path d="M460.24 725.63H204.06V691.23H444.89C448.953 691.23 452.85 692.844 455.723 695.717C458.596 698.59 460.21 702.487 460.21 706.55L460.24 725.63Z" fill="#D88B6D"/>
<path d="M460.24 725.63H204.06V691.23H444.89C448.953 691.23 452.85 692.844 455.723 695.717C458.596 698.59 460.21 702.487 460.21 706.55L460.24 725.63Z" fill="#D88B6D" stroke="black" stroke-width="1.5" stroke-miterlimit="10" stroke-linecap="round"/>
<path d="M286.005 594H285.995C283.789 594 282 595.632 282 597.645V834.355C282 836.368 283.789 838 285.995 838H286.005C288.211 838 290 836.368 290 834.355V597.645C290 595.632 288.211 594 286.005 594Z" fill="#D88B6D" stroke="black" stroke-width="1.5" stroke-miterlimit="10" stroke-linecap="round"/>
<path d="M350.25 492H198.14C181.494 492 168 505.494 168 522.14V539.82C168 556.466 181.494 569.96 198.14 569.96H350.25C366.896 569.96 380.39 556.466 380.39 539.82V522.14C380.39 505.494 366.896 492 350.25 492Z" fill="#D88B6D"/>
<path d="M350.25 492H198.14C181.494 492 168 505.494 168 522.14V539.82C168 556.466 181.494 569.96 198.14 569.96H350.25C366.896 569.96 380.39 556.466 380.39 539.82V522.14C380.39 505.494 366.896 492 350.25 492Z" fill="#D88B6D" stroke="black" stroke-width="1.5" stroke-miterlimit="10" stroke-linecap="round"/>
<path d="M201.6 553.63H201.59C199.243 553.63 197.34 555.533 197.34 557.88V833.89C197.34 836.237 199.243 838.14 201.59 838.14H201.6C203.947 838.14 205.85 836.237 205.85 833.89V557.88C205.85 555.533 203.947 553.63 201.6 553.63Z" fill="#D88B6D" stroke="black" stroke-width="1.5" stroke-miterlimit="10" stroke-linecap="round"/>
<path d="M443.46 602.46V833.89C443.46 835.017 443.012 836.098 442.215 836.895C441.418 837.692 440.337 838.14 439.21 838.14C438.083 838.14 437.002 837.692 436.205 836.895C435.408 836.098 434.96 835.017 434.96 833.89V602.46H443.46Z" fill="#D88B6D" stroke="black" stroke-width="1.5" stroke-miterlimit="10" stroke-linecap="round"/>
<path d="M301.02 593.64H196.13C191.899 593.64 188.47 597.069 188.47 601.3V602.78C188.47 607.01 191.899 610.44 196.13 610.44H301.02C305.25 610.44 308.68 607.01 308.68 602.78V601.3C308.68 597.069 305.25 593.64 301.02 593.64Z" fill="#D88B6D"/>
<path d="M301.02 593.64H196.13C191.899 593.64 188.47 597.069 188.47 601.3V602.78C188.47 607.01 191.899 610.44 196.13 610.44H301.02C305.25 610.44 308.68 607.01 308.68 602.78V601.3C308.68 597.069 305.25 593.64 301.02 593.64Z" fill="#D88B6D" stroke="black" stroke-width="1.5" stroke-miterlimit="10" stroke-linecap="round"/>
<path d="M456.26 593.64H327.07C322.84 593.64 319.41 597.069 319.41 601.3V602.78C319.41 607.01 322.84 610.44 327.07 610.44H456.26C460.491 610.44 463.92 607.01 463.92 602.78V601.3C463.92 597.069 460.491 593.64 456.26 593.64Z" fill="#D88B6D"/>
<path d="M456.26 593.64H327.07C322.84 593.64 319.41 597.069 319.41 601.3V602.78C319.41 607.01 322.84 610.44 327.07 610.44H456.26C460.491 610.44 463.92 607.01 463.92 602.78V601.3C463.92 597.069 460.491 593.64 456.26 593.64Z" fill="#D88B6D" stroke="black" stroke-width="1.5" stroke-miterlimit="10" stroke-linecap="round"/>
<path d="M301.73 610.11C306.474 610.11 310.32 606.6 310.32 602.27C310.32 597.94 306.474 594.43 301.73 594.43C296.986 594.43 293.14 597.94 293.14 602.27C293.14 606.6 296.986 610.11 301.73 610.11Z" fill="#D88B6D"/>
<path d="M301.73 610.11C306.474 610.11 310.32 606.6 310.32 602.27C310.32 597.94 306.474 594.43 301.73 594.43C296.986 594.43 293.14 597.94 293.14 602.27C293.14 606.6 296.986 610.11 301.73 610.11Z" fill="#D88B6D" stroke="black" stroke-width="1.5" stroke-miterlimit="10" stroke-linecap="round"/>
<path d="M456.09 610.11C460.834 610.11 464.68 606.6 464.68 602.27C464.68 597.94 460.834 594.43 456.09 594.43C451.346 594.43 447.5 597.94 447.5 602.27C447.5 606.6 451.346 610.11 456.09 610.11Z" fill="#D88B6D"/>
<path d="M456.09 610.11C460.834 610.11 464.68 606.6 464.68 602.27C464.68 597.94 460.834 594.43 456.09 594.43C451.346 594.43 447.5 597.94 447.5 602.27C447.5 606.6 451.346 610.11 456.09 610.11Z" fill="#D88B6D" stroke="black" stroke-width="1.5" stroke-miterlimit="10" stroke-linecap="round"/>
<path fill-rule="evenodd" clip-rule="evenodd" d="M228.08 492C228.08 491.586 227.744 491.25 227.33 491.25C226.916 491.25 226.58 491.586 226.58 492V525.16C226.58 525.574 226.916 525.91 227.33 525.91C227.744 525.91 228.08 525.574 228.08 525.16V492ZM235.23 492C235.23 491.586 234.894 491.25 234.48 491.25C234.066 491.25 233.73 491.586 233.73 492V513.59C233.73 514.004 234.066 514.34 234.48 514.34C234.894 514.34 235.23 514.004 235.23 513.59V492Z" fill="black"/>
<path d="M537.252 804.991C545.662 803.991 558.022 800.991 569.252 792.101C571.169 790.583 572.989 788.946 574.702 787.201L562.422 768.951L534.912 781.951L537.252 804.991Z" fill="white" stroke="black" stroke-width="1.5" stroke-linecap="round" stroke-linejoin="round"/>
<path fill-rule="evenodd" clip-rule="evenodd" d="M607.452 782.521C596.466 783.377 585.547 784.94 574.762 787.201L562.512 769.001L535.002 782.001L537.002 801.511L540.622 831.191C540.78 832.48 541.242 833.712 541.97 834.787C542.698 835.862 543.67 836.749 544.808 837.375C545.945 838.001 547.215 838.348 548.513 838.387C549.81 838.426 551.099 838.157 552.272 837.601L628.732 801.311C630.121 800.661 631.326 799.674 632.237 798.439C633.147 797.204 633.734 795.762 633.945 794.242C634.156 792.722 633.983 791.174 633.443 789.739C632.903 788.303 632.012 787.025 630.852 786.021L630.732 785.921C626.052 782.061 620.212 781.521 607.452 782.521ZM494.332 812.471C484.029 808.564 473.483 805.327 462.762 802.781C461.616 795.528 460.502 788.285 459.422 781.051L428.972 781.141L422.502 799.651L413.142 828.051C412.735 829.284 412.626 830.595 412.825 831.878C413.025 833.161 413.526 834.377 414.288 835.428C415.049 836.479 416.05 837.334 417.207 837.922C418.364 838.51 419.644 838.815 420.942 838.811L505.582 838.551C507.117 838.555 508.629 838.174 509.979 837.444C511.33 836.715 512.477 835.659 513.315 834.373C514.154 833.087 514.658 831.612 514.782 830.082C514.905 828.552 514.644 827.015 514.022 825.611L513.952 825.471C511.332 819.971 506.332 817.011 494.332 812.471Z" fill="#FFCD88"/>
<path d="M574.762 787.201L574.14 787.62C574.31 787.873 574.617 787.998 574.916 787.935L574.762 787.201ZM607.452 782.521L607.51 783.269H607.511L607.452 782.521ZM562.512 769.001L563.134 768.582C562.927 768.275 562.527 768.165 562.192 768.323L562.512 769.001ZM535.002 782.001L534.682 781.323C534.394 781.459 534.223 781.761 534.256 782.078L535.002 782.001ZM537.002 801.511L536.256 801.588C536.256 801.592 536.257 801.597 536.257 801.602L537.002 801.511ZM540.622 831.191L539.877 831.282L539.878 831.283L540.622 831.191ZM552.272 837.601L552.593 838.279H552.594L552.272 837.601ZM628.732 801.311L628.414 800.632L628.41 800.634L628.732 801.311ZM630.852 786.021L631.343 785.454L631.332 785.445L630.852 786.021ZM630.732 785.921L631.212 785.345L631.209 785.343L630.732 785.921ZM462.762 802.781L462.021 802.899C462.069 803.199 462.293 803.441 462.589 803.511L462.762 802.781ZM494.332 812.471L494.066 813.173H494.067L494.332 812.471ZM459.422 781.051L460.164 780.941C460.109 780.572 459.792 780.3 459.42 780.301L459.422 781.051ZM428.972 781.141L428.97 780.391C428.652 780.392 428.369 780.594 428.264 780.894L428.972 781.141ZM422.502 799.651L421.794 799.404L421.79 799.417L422.502 799.651ZM413.142 828.051L413.854 828.287L413.855 828.286L413.142 828.051ZM412.825 831.878L412.084 831.993L412.825 831.878ZM417.207 837.922L417.547 837.254L417.207 837.922ZM420.942 838.811L420.944 839.561H420.945L420.942 838.811ZM505.582 838.551L505.584 837.801H505.58L505.582 838.551ZM514.782 830.082L514.034 830.022L514.782 830.082ZM514.022 825.611L514.708 825.308C514.703 825.297 514.698 825.286 514.693 825.276L514.022 825.611ZM513.952 825.471L513.275 825.794C513.277 825.798 513.279 825.803 513.281 825.807L513.952 825.471ZM574.916 787.935C585.669 785.681 596.556 784.122 607.51 783.269L607.394 781.773C596.376 782.632 585.424 784.2 574.608 786.467L574.916 787.935ZM561.89 769.42L574.14 787.62L575.384 786.782L563.134 768.582L561.89 769.42ZM535.322 782.679L562.832 769.679L562.192 768.323L534.682 781.323L535.322 782.679ZM537.748 801.435L535.748 781.925L534.256 782.078L536.256 801.588L537.748 801.435ZM541.366 831.1L537.746 801.42L536.257 801.602L539.877 831.282L541.366 831.1ZM542.591 834.367C541.93 833.39 541.51 832.27 541.366 831.1L539.878 831.283C540.05 832.689 540.555 834.034 541.349 835.208L542.591 834.367ZM545.169 836.718C544.136 836.15 543.252 835.344 542.591 834.367L541.349 835.208C542.143 836.381 543.205 837.349 544.446 838.032L545.169 836.718ZM548.535 837.638C547.356 837.602 546.203 837.287 545.169 836.718L544.446 838.032C545.688 838.715 547.074 839.094 548.49 839.137L548.535 837.638ZM551.951 836.923C550.885 837.428 549.714 837.673 548.535 837.638L548.49 839.137C549.906 839.18 551.313 838.886 552.593 838.279L551.951 836.923ZM628.41 800.634L551.95 836.924L552.594 838.279L629.054 801.989L628.41 800.634ZM631.633 797.994C630.797 799.128 629.69 800.035 628.414 800.632L629.05 801.99C630.553 801.287 631.856 800.219 632.84 798.884L631.633 797.994ZM633.202 794.139C633.009 795.535 632.469 796.86 631.633 797.994L632.84 798.884C633.825 797.549 634.46 795.988 634.688 794.345L633.202 794.139ZM632.741 790.003C633.237 791.321 633.396 792.743 633.202 794.139L634.688 794.345C634.916 792.702 634.729 791.027 634.145 789.474L632.741 790.003ZM630.361 786.588C631.427 787.51 632.245 788.684 632.741 790.003L634.145 789.474C633.561 787.922 632.597 786.54 631.343 785.454L630.361 786.588ZM630.252 786.497L630.372 786.597L631.332 785.445L631.212 785.345L630.252 786.497ZM607.511 783.269C620.299 782.267 625.836 782.856 630.255 786.5L631.209 785.343C626.268 781.267 620.125 780.776 607.393 781.773L607.511 783.269ZM462.589 803.511C473.279 806.05 483.793 809.277 494.066 813.173L494.598 811.77C484.265 807.851 473.688 804.605 462.935 802.052L462.589 803.511ZM458.68 781.162C459.761 788.398 460.874 795.643 462.021 802.899L463.503 802.664C462.357 795.413 461.244 788.172 460.164 780.941L458.68 781.162ZM428.974 781.891L459.424 781.801L459.42 780.301L428.97 780.391L428.974 781.891ZM423.21 799.899L429.68 781.389L428.264 780.894L421.794 799.404L423.21 799.899ZM413.855 828.286L423.215 799.886L421.79 799.417L412.43 827.817L413.855 828.286ZM413.567 831.763C413.386 830.598 413.484 829.406 413.854 828.287L412.43 827.816C411.986 829.161 411.867 830.593 412.084 831.993L413.567 831.763ZM414.895 834.988C414.203 834.034 413.747 832.928 413.567 831.763L412.084 831.993C412.302 833.393 412.849 834.721 413.68 835.869L414.895 834.988ZM417.547 837.254C416.496 836.719 415.587 835.943 414.895 834.988L413.68 835.869C414.512 837.016 415.604 837.949 416.867 838.591L417.547 837.254ZM420.94 838.061C419.761 838.065 418.598 837.788 417.547 837.254L416.867 838.591C418.13 839.233 419.528 839.566 420.944 839.561L420.94 838.061ZM505.58 837.801L420.94 838.061L420.945 839.561L505.585 839.301L505.58 837.801ZM509.623 836.785C508.382 837.455 506.994 837.804 505.584 837.801L505.581 839.301C507.241 839.305 508.875 838.893 510.336 838.104L509.623 836.785ZM512.687 833.963C511.917 835.144 510.864 836.114 509.623 836.785L510.336 838.104C511.797 837.315 513.037 836.173 513.944 834.783L512.687 833.963ZM514.034 830.022C513.921 831.427 513.458 832.782 512.687 833.963L513.944 834.783C514.851 833.392 515.396 831.797 515.529 830.142L514.034 830.022ZM513.336 825.915C513.908 827.204 514.147 828.616 514.034 830.022L515.529 830.142C515.663 828.488 515.38 826.826 514.708 825.308L513.336 825.915ZM513.281 825.807L513.351 825.947L514.693 825.276L514.623 825.136L513.281 825.807ZM494.067 813.173C506.091 817.722 510.8 820.598 513.275 825.794L514.629 825.149C511.865 819.345 506.574 816.301 494.598 811.77L494.067 813.173Z" fill="black"/>
<path d="M539.191 817.401C539.191 817.401 556.011 809.981 564.191 827.281" stroke="black" stroke-width="1.5" stroke-linecap="round" stroke-linejoin="round"/>
<path d="M633.581 793.131L545.191 836.131" stroke="black" stroke-width="1.5" stroke-linecap="round" stroke-linejoin="round"/>
<path fill-rule="evenodd" clip-rule="evenodd" d="M569.422 791.401C558.252 800.431 545.922 803.492 537.512 804.602L534.982 781.691L562.372 768.271L574.822 786.401C573.135 788.185 571.331 789.855 569.422 791.401ZM455.703 804.911C441.713 808.161 429.273 805.561 421.223 802.911L428.913 781.151L459.363 781.061L462.703 802.802C460.416 803.651 458.078 804.355 455.703 804.911Z" fill="white"/>
<path d="M537.512 804.601L536.767 804.683C536.789 804.884 536.891 805.067 537.05 805.191C537.208 805.316 537.411 805.371 537.611 805.345L537.512 804.601ZM569.422 791.401L569.894 791.984H569.895L569.422 791.401ZM534.982 781.691L534.652 781.018C534.368 781.157 534.202 781.459 534.237 781.773L534.982 781.691ZM562.372 768.271L562.991 767.847C562.78 767.54 562.376 767.434 562.042 767.598L562.372 768.271ZM574.822 786.401L575.367 786.917C575.61 786.66 575.641 786.268 575.441 785.977L574.822 786.401ZM421.223 802.911L420.516 802.661C420.448 802.851 420.461 803.061 420.549 803.242C420.638 803.423 420.797 803.561 420.988 803.624L421.223 802.911ZM455.703 804.911L455.872 805.642L455.874 805.641L455.703 804.911ZM428.913 781.151L428.91 780.401C428.593 780.402 428.311 780.602 428.206 780.901L428.913 781.151ZM459.363 781.061L460.104 780.947C460.048 780.581 459.732 780.31 459.36 780.311L459.363 781.061ZM462.703 802.801L462.964 803.504C463.297 803.381 463.498 803.039 463.444 802.687L462.703 802.801ZM537.611 805.345C546.097 804.225 558.578 801.133 569.894 791.984L568.951 790.818C557.927 799.73 545.748 802.758 537.414 803.858L537.611 805.345ZM534.237 781.773L536.767 804.683L538.258 804.519L535.728 781.609L534.237 781.773ZM562.042 767.598L534.652 781.018L535.312 782.365L562.702 768.945L562.042 767.598ZM575.441 785.977L562.991 767.847L561.754 768.696L574.204 786.826L575.441 785.977ZM569.895 791.984C571.828 790.417 573.657 788.725 575.367 786.917L574.278 785.886C572.613 787.646 570.833 789.293 568.95 790.818L569.895 791.984ZM420.988 803.624C429.112 806.298 441.7 808.934 455.872 805.642L455.533 804.181C441.725 807.388 429.434 804.825 421.457 802.199L420.988 803.624ZM428.206 780.901L420.516 802.661L421.93 803.161L429.62 781.401L428.206 780.901ZM459.36 780.311L428.91 780.401L428.915 781.901L459.365 781.811L459.36 780.311ZM463.444 802.687L460.104 780.947L458.621 781.175L461.961 802.915L463.444 802.687ZM455.874 805.641C458.279 805.078 460.647 804.364 462.964 803.504L462.442 802.098C460.184 802.936 457.876 803.632 455.532 804.181L455.874 805.641Z" fill="black"/>
<path d="M417.691 814.971C417.691 814.971 436.071 815.421 436.131 834.571" stroke="black" stroke-width="1.5" stroke-linecap="round" stroke-linejoin="round"/>
<path d="M571.492 752.471C570.29 743.045 566.963 734.014 561.762 726.061C554.902 715.581 544.532 694.301 528.062 649.221C527.254 644.872 525.551 640.738 523.062 637.081C519.622 631.373 514.462 626.902 508.322 624.311C505.342 622.822 502.192 621.7 498.942 620.971L407.532 611.781L317.832 610.901H290.772C289.841 622.124 290.012 633.411 291.282 644.601C292.462 654.991 294.402 664.761 301.472 674.661C303.828 677.987 306.585 681.01 309.682 683.661C317.623 690.168 327.367 694.087 337.602 694.891L422.082 693.981C422.155 706.75 421.561 719.514 420.302 732.221C419.302 741.361 419.462 750.641 417.832 759.691C417.127 763.55 417.05 767.497 417.602 771.381C418.714 778.972 422.144 786.033 427.422 791.601C432.693 794.976 438.868 796.662 445.122 796.433C451.376 796.204 457.412 794.072 462.422 790.321C469.292 785.141 471.332 777.031 474.532 764.781C476.912 755.674 478.083 746.294 478.012 736.881C480.732 725.048 483.455 713.218 486.182 701.391V702.921C498.302 720.861 502.902 733.691 504.762 742.251C505.813 746.933 507.176 751.54 508.842 756.041C513.062 767.501 517.002 772.341 519.842 775.181C521.425 776.763 523.134 778.215 524.952 779.521C529.482 782.811 537.272 788.461 544.482 786.831C551.222 785.301 554.822 778.001 556.302 779.051C558.062 780.301 554.362 787.741 557.902 785.811C562.559 782.837 566.315 778.646 568.762 773.691C569.842 771.471 572.972 764.691 571.492 752.471Z" fill="#AD85AD" stroke="black" stroke-width="1.5" stroke-linecap="round" stroke-linejoin="round"/>
<path d="M486.142 701.401C486.142 688.291 493.262 668.401 493.242 655.271C493.242 645.031 486.912 635.871 469.802 633.571L376.182 621.141" fill="#AD85AD"/>
<path d="M486.142 701.401C486.142 688.291 493.262 668.401 493.242 655.271C493.242 645.031 486.912 635.871 469.802 633.571L376.182 621.141" stroke="black" stroke-width="1.5" stroke-linecap="round" stroke-linejoin="round"/>
<path d="M537.921 796.421L572.081 780.101C572.939 778.016 573.387 775.786 573.401 773.531C573.423 770.759 572.797 768.019 571.571 765.531L531.191 783.251C530.854 785.873 531.316 788.536 532.517 790.891C533.717 793.247 535.601 795.184 537.921 796.451V796.421Z" fill="#AD85AD" stroke="black" stroke-width="1.5" stroke-linecap="round" stroke-linejoin="round"/>
<path d="M563.111 769.551C563.111 769.551 567.021 779.401 566.501 783.201L563.111 769.551Z" fill="#AD85AD"/>
<path d="M563.111 769.551C563.111 769.551 567.021 779.401 566.501 783.201" stroke="black" stroke-width="1.5" stroke-linecap="round" stroke-linejoin="round"/>
<path d="M550.492 774.851L555.062 788.371" stroke="black" stroke-width="1.5" stroke-linecap="round" stroke-linejoin="round"/>
<path d="M538 780L542.57 793.52" stroke="black" stroke-width="1.5" stroke-linecap="round" stroke-linejoin="round"/>
<path d="M423.682 797.871L461.542 798.151C463.418 796.469 464.916 794.409 465.939 792.106C466.961 789.804 467.483 787.311 467.472 784.791L423.402 783.061C421.951 785.27 421.2 787.867 421.25 790.51C421.3 793.153 422.148 795.719 423.682 797.871Z" fill="#AD85AD" stroke="black" stroke-width="1.5" stroke-linecap="round" stroke-linejoin="round"/>
<path d="M432.101 783.112C432.101 783.112 429.101 794.772 430.571 797.512L432.101 783.112Z" fill="#AD85AD"/>
<path d="M432.101 783.112C432.101 783.112 429.101 794.772 430.571 797.512" stroke="black" stroke-width="1.5" stroke-linecap="round" stroke-linejoin="round"/>
<path d="M458.092 784.741C458.092 784.741 457.302 795.311 455.172 798.491L458.092 784.741Z" fill="#AD85AD"/>
<path d="M458.092 784.741C458.092 784.741 457.302 795.311 455.172 798.491" stroke="black" stroke-width="1.5" stroke-linecap="round" stroke-linejoin="round"/>
<path d="M477.92 736L474.5 749.5L477.92 736Z" fill="#AD85AD"/>
<path d="M477.92 736L474.5 749.5" stroke="black" stroke-width="1.5" stroke-linecap="round" stroke-linejoin="round"/>
<path d="M419 750L421 763.5L419 750Z" fill="#AD85AD"/>
<path d="M419 750L421 763.5" stroke="black" stroke-width="1.5" stroke-linecap="round" stroke-linejoin="round"/>
<path d="M561 725L563 738.5L561 725Z" fill="#AD85AD"/>
<path d="M561 725L563 738.5" stroke="black" stroke-width="1.5" stroke-linecap="round" stroke-linejoin="round"/>
<path d="M507 739L508.5 753.5L507 739Z" fill="#AD85AD"/>
<path d="M507 739L508.5 753.5" stroke="black" stroke-width="1.5" stroke-linecap="round" stroke-linejoin="round"/>
<path d="M444.421 783.981L442.621 798.141" stroke="black" stroke-width="1.5" stroke-linecap="round" stroke-linejoin="round"/>
<path d="M422.051 693.991L425.371 668.971" stroke="black" stroke-width="1.5" stroke-linecap="round" stroke-linejoin="round"/>
<path d="M461.531 803.291L479.411 791.051C479.828 790.762 480.305 790.572 480.806 790.497C481.308 790.421 481.82 790.462 482.303 790.615C482.786 790.769 483.227 791.032 483.593 791.383C483.958 791.734 484.238 792.165 484.411 792.641C484.567 793.064 484.635 793.514 484.61 793.964C484.586 794.414 484.47 794.854 484.27 795.257C484.07 795.661 483.789 796.019 483.445 796.31C483.102 796.602 482.702 796.82 482.271 796.951L461.531 803.291Z" stroke="black" stroke-width="1.5" stroke-linecap="round" stroke-linejoin="round"/>
<path d="M462.102 803.261L479.252 810.931C479.65 811.11 480.002 811.377 480.282 811.713C480.562 812.048 480.762 812.442 480.867 812.866C480.972 813.29 480.98 813.732 480.888 814.159C480.797 814.586 480.61 814.987 480.342 815.331C480.1 815.639 479.797 815.893 479.453 816.079C479.109 816.265 478.731 816.379 478.341 816.414C477.952 816.449 477.559 816.403 477.188 816.281C476.816 816.158 476.474 815.961 476.182 815.701L462.102 803.261Z" stroke="black" stroke-width="1.5" stroke-linecap="round" stroke-linejoin="round"/>
<path d="M574.191 787.211L587.191 769.851C587.494 769.45 587.885 769.123 588.333 768.895C588.78 768.666 589.274 768.543 589.777 768.533C590.28 768.523 590.778 768.628 591.234 768.839C591.691 769.05 592.093 769.362 592.411 769.751C592.698 770.1 592.91 770.504 593.035 770.937C593.159 771.371 593.192 771.826 593.133 772.273C593.074 772.721 592.924 773.151 592.691 773.538C592.458 773.925 592.149 774.26 591.781 774.521L574.191 787.211Z" stroke="black" stroke-width="1.5" stroke-linecap="round" stroke-linejoin="round"/>
<path d="M574.762 787.001L593.432 788.691C593.867 788.73 594.287 788.868 594.661 789.095C595.035 789.321 595.352 789.63 595.588 789.997C595.824 790.365 595.974 790.781 596.025 791.215C596.075 791.649 596.027 792.089 595.882 792.501C595.753 792.871 595.549 793.21 595.284 793.499C595.018 793.787 594.697 794.018 594.339 794.177C593.981 794.336 593.595 794.42 593.203 794.425C592.811 794.429 592.423 794.353 592.062 794.201L574.762 787.001Z" stroke="black" stroke-width="1.5" stroke-linecap="round" stroke-linejoin="round"/>
<path d="M512.331 834.531L414.031 834.841" stroke="black" stroke-width="1.5" stroke-linecap="round" stroke-linejoin="round"/>
<path d="M413.141 566.561L395.531 523.921L435.611 520.351C440.038 531.238 444.465 542.131 448.891 553.031L486.681 567.581L526.681 572.531H545.681C546.928 572.522 548.134 572.978 549.061 573.811C549.439 574.169 549.733 574.605 549.925 575.089C550.117 575.572 550.201 576.092 550.171 576.611C550.136 577.224 549.976 577.823 549.701 578.371C548.641 580.371 545.601 580.681 545.701 581.021C545.701 581.191 546.481 580.971 547.531 581.341C548.113 581.56 548.642 581.901 549.081 582.341C549.459 582.699 549.754 583.135 549.946 583.618C550.138 584.102 550.221 584.622 550.191 585.141C550.154 585.75 549.994 586.346 549.721 586.891C549.306 587.549 548.734 588.093 548.057 588.475C547.38 588.857 546.619 589.066 545.841 589.081C536.261 589.681 526.652 589.681 517.071 589.081C508.38 587.755 499.544 587.677 490.831 588.851H490.681C471.035 588.765 451.411 588.945 431.811 589.391L413.141 566.561Z" fill="#F7CCB9" stroke="black" stroke-width="1.5" stroke-linecap="round" stroke-linejoin="round"/>
<path d="M496.671 575.161L520.031 586.021C521.11 586.172 522.088 586.735 522.761 587.591C523.038 587.948 523.233 588.362 523.332 588.802C523.43 589.243 523.43 589.701 523.331 590.141C523.236 590.605 523.049 591.046 522.783 591.437C522.516 591.829 522.174 592.163 521.776 592.421C521.379 592.679 520.934 592.855 520.468 592.939C520.002 593.023 519.523 593.014 519.061 592.911C511.841 591.731 502.771 589.531 495.551 588.351" fill="#F7CCB9"/>
<path d="M496.671 575.161L520.031 586.021C521.11 586.172 522.088 586.735 522.761 587.591C523.038 587.948 523.233 588.362 523.332 588.802C523.43 589.243 523.43 589.701 523.331 590.141C523.236 590.605 523.049 591.046 522.783 591.437C522.516 591.829 522.174 592.163 521.776 592.421C521.379 592.679 520.934 592.855 520.468 592.939C520.002 593.023 519.523 593.014 519.061 592.911C511.841 591.731 502.771 589.531 495.551 588.351" stroke="black" stroke-width="1.5" stroke-linecap="round" stroke-linejoin="round"/>
<path d="M545.671 580.991L519.621 577.201L545.671 580.991Z" fill="#F7CCB9"/>
<path d="M545.671 580.991L519.621 577.201" stroke="black" stroke-width="1.5" stroke-linecap="round" stroke-linejoin="round"/>
<path d="M375.982 452.691C378.702 451.511 396.612 444.041 415.482 453.101C439.162 464.471 445.662 514.601 445.772 515.901C430.222 521.691 414.122 518.691 400.162 531.761C393.896 518.915 387.609 506.065 381.302 493.211" fill="white"/>
<path d="M375.982 452.691C378.702 451.511 396.612 444.041 415.482 453.101C439.162 464.471 445.662 514.601 445.772 515.901C430.222 521.691 414.122 518.691 400.162 531.761C393.896 518.915 387.609 506.065 381.302 493.211" stroke="black" stroke-width="1.5" stroke-linecap="round" stroke-linejoin="round"/>
<path d="M411.082 525.741L416.442 559.441L406.482 558.421L411.082 525.741Z" fill="black" stroke="black" stroke-width="1.5" stroke-linecap="round" stroke-linejoin="round"/>
<path d="M389.762 527.391C390.412 526.181 391.062 524.981 391.762 523.781L445.762 515.921C446.078 516.039 446.352 516.246 446.551 516.518C446.749 516.79 446.864 517.115 446.88 517.452C446.896 517.788 446.813 518.122 446.641 518.412C446.468 518.701 446.215 518.934 445.912 519.081L389.762 527.391Z" fill="#F25A33" stroke="black" stroke-width="1.5" stroke-linecap="round" stroke-linejoin="round"/>
<path d="M410.382 502.691C409.909 516.738 409.475 530.848 409.081 545.021C408.455 567.428 407.928 589.691 407.501 611.811L379.251 613.691L329.401 616.691L290.501 616.341L289.271 542.341C297.191 511.891 304.271 480.811 312.181 450.341C315.451 450.691 318.312 450.341 321.072 450.821C321.072 450.821 324.742 451.341 327.852 451.741C333.652 452.491 351.701 452.961 375.981 452.741L389.981 449.101" fill="white"/>
<path d="M410.382 502.691C409.909 516.738 409.475 530.848 409.081 545.021C408.455 567.428 407.928 589.691 407.501 611.811L379.251 613.691L329.401 616.691L290.501 616.341L289.271 542.341C297.191 511.891 304.271 480.811 312.181 450.341C315.451 450.691 318.312 450.341 321.072 450.821C321.072 450.821 324.742 451.341 327.852 451.741C333.652 452.491 351.701 452.961 375.981 452.741L389.981 449.101" stroke="black" stroke-width="1.5" stroke-linecap="round" stroke-linejoin="round"/>
<path d="M304.922 512.811C302.278 525.59 304.633 538.896 311.502 549.991L286.502 544.701L304.922 512.811Z" fill="black" stroke="black" stroke-width="1.5" stroke-linecap="round" stroke-linejoin="round"/>
<path d="M394.012 590.591H444.962C446.397 590.591 447.802 590.177 449.008 589.4C450.214 588.622 451.171 587.514 451.764 586.207C452.357 584.9 452.56 583.45 452.351 582.03C452.141 580.61 451.527 579.281 450.582 578.201L448.632 575.981C445.911 572.873 442.558 570.382 438.797 568.674C435.035 566.967 430.952 566.083 426.822 566.081H422.652C415.74 566.084 409.057 568.554 403.806 573.048C398.555 577.542 395.082 583.763 394.012 590.591Z" fill="#82AAD3" stroke="black" stroke-width="1.5" stroke-linecap="round" stroke-linejoin="round"/>
<path d="M321.051 450.631C313.814 449.476 306.452 449.314 299.171 450.151C291.621 451.031 272.581 453.801 255.911 469.151C237.911 485.691 235.171 507.391 234.621 513.461L287.761 542.211L304.181 513.061" fill="white"/>
<path d="M321.051 450.631C313.814 449.476 306.452 449.314 299.171 450.151C291.621 451.031 272.581 453.801 255.911 469.151C237.911 485.691 235.171 507.391 234.621 513.461L287.761 542.211L304.181 513.061" stroke="black" stroke-width="1.5" stroke-linecap="round" stroke-linejoin="round"/>
<path d="M321.051 450.631C327.728 456.795 335.972 461.005 344.881 462.801C351.508 464.29 358.411 464.009 364.895 461.985C371.38 459.961 377.217 456.266 381.821 451.271C380.919 450.675 379.834 450.42 378.761 450.551C378.14 450.641 377.543 450.857 377.009 451.185C376.474 451.514 376.012 451.948 375.651 452.461L327.851 451.691C326.879 450.763 325.627 450.183 324.291 450.041C323.177 449.928 322.054 450.133 321.051 450.631Z" fill="#F25A33" stroke="black" stroke-width="1.5" stroke-linecap="round" stroke-linejoin="round"/>
<path d="M233.891 517.401C233.571 517.332 233.268 517.197 233.002 517.006C232.735 516.815 232.511 516.572 232.342 516.291C232.173 516.01 232.064 515.697 232.021 515.372C231.978 515.047 232.002 514.717 232.091 514.401C232.29 513.972 232.617 513.614 233.026 513.376C233.436 513.138 233.909 513.032 234.381 513.071L289.681 540.321C289.889 540.61 290.008 540.953 290.022 541.309C290.036 541.664 289.945 542.016 289.76 542.32C289.576 542.624 289.306 542.867 288.984 543.018C288.662 543.17 288.303 543.223 287.951 543.171L233.891 517.401Z" fill="#F25A33" stroke="black" stroke-width="1.5" stroke-linecap="round" stroke-linejoin="round"/>
<path d="M444.831 565.551C444.802 565.031 444.658 564.523 444.409 564.064C444.16 563.606 443.812 563.209 443.391 562.901C442.905 562.534 442.345 562.275 441.751 562.141C440.651 561.891 439.951 562.201 439.891 562.031C439.771 561.701 442.751 561.031 443.561 558.921C443.769 558.345 443.858 557.733 443.821 557.121C443.791 556.602 443.646 556.096 443.397 555.64C443.148 555.183 442.801 554.788 442.381 554.481C441.367 553.749 440.109 553.437 438.871 553.611L420.011 555.911L387.431 555.801C382.3 555.789 377.183 556.335 372.171 557.431L360.391 560.021C330.261 554.961 291.311 545.741 286.311 544.551C286.491 543.891 286.681 543.241 286.861 542.551L235.081 517.781C234.311 520.051 225.341 549.631 242.611 571.781C254.021 586.401 269.881 590.141 274.611 591.071L377.021 589.891C381.998 589.791 386.798 588.031 390.661 584.891C394.956 581.456 399.699 578.623 404.761 576.471C408.091 575.05 411.546 573.938 415.081 573.151C417.167 573.011 419.294 572.835 421.461 572.621C428.461 571.951 435.161 570.971 441.461 569.801C442.478 569.657 443.4 569.127 444.037 568.321C444.674 567.514 444.976 566.494 444.881 565.471L444.831 565.551Z" fill="#F7CCB9" stroke="black" stroke-width="1.5" stroke-linecap="round" stroke-linejoin="round"/>
<path d="M390.941 569.421L416.491 572.781C417.541 572.621 418.613 572.864 419.491 573.461C419.863 573.718 420.172 574.054 420.399 574.445C420.625 574.835 420.763 575.271 420.801 575.721C420.85 576.192 420.804 576.669 420.667 577.122C420.53 577.576 420.304 577.997 420.002 578.363C419.701 578.728 419.33 579.03 418.911 579.252C418.492 579.473 418.033 579.609 417.561 579.651C410.311 580.651 401.011 581.311 393.761 582.351" fill="#F7CCB9"/>
<path d="M390.941 569.421L416.491 572.781C417.541 572.621 418.613 572.864 419.491 573.461C419.863 573.718 420.172 574.054 420.399 574.445C420.625 574.835 420.763 575.271 420.801 575.721C420.85 576.192 420.804 576.669 420.667 577.122C420.53 577.576 420.304 577.997 420.002 578.363C419.701 578.728 419.33 579.03 418.911 579.252C418.492 579.473 418.033 579.609 417.561 579.651C410.311 580.651 401.011 581.311 393.761 582.351" stroke="black" stroke-width="1.5" stroke-linecap="round" stroke-linejoin="round"/>
<path d="M439.892 562.031L413.572 561.391L439.892 562.031Z" fill="#F7CCB9"/>
<path d="M439.892 562.031L413.572 561.391" stroke="black" stroke-width="1.5" stroke-linecap="round" stroke-linejoin="round"/>
<path d="M367.541 429.19C370.411 438.08 372.471 443.26 375.351 452.19C367.57 457.753 358.078 460.398 348.541 459.66C340.891 458.973 333.601 456.099 327.541 451.38C330.321 440.12 333.098 428.86 335.871 417.6" fill="#F7CCB9"/>
<path d="M367.541 429.19C370.411 438.08 372.471 443.26 375.351 452.19C367.57 457.753 358.078 460.398 348.541 459.66C340.891 458.973 333.601 456.099 327.541 451.38C330.321 440.12 333.098 428.86 335.871 417.6" stroke="black" stroke-width="1.5" stroke-linecap="round" stroke-linejoin="round"/>
<path d="M389.061 374.82C389.291 380.12 387.941 381.18 387.731 390.11C387.731 391.47 387.651 395.11 387.991 399.69C388.661 408.86 389.991 409.69 389.551 413.52C389.157 416.432 388.117 419.219 386.506 421.676C384.895 424.133 382.754 426.198 380.241 427.72C376.241 429.99 370 431.001 357.241 426.72C350.651 425.45 342.801 426.72 333.801 424.72C337.561 403.82 341.241 380.07 345.001 359.17C360.001 349.83 376.561 351.01 384.181 359.66C388.681 364.77 388.911 371.46 389.061 374.82Z" fill="#F7CCB9"/>
<path d="M388.882 370.84C382.995 370.92 377.038 370.96 371.012 370.96C364.078 370.96 357.235 370.914 350.482 370.82L341.482 417.11C341.206 418.524 340.576 419.845 339.652 420.95C338.728 422.055 337.539 422.907 336.196 423.428C334.853 423.95 333.4 424.122 331.972 423.93C330.545 423.738 329.189 423.188 328.032 422.33C324.282 419.47 326.332 408.42 326.892 403.86C327.696 396.664 326.974 389.379 324.772 382.48C323.175 376.336 324.078 369.81 327.282 364.33C333.842 353.66 346.472 353.33 347.282 353.33C350.841 352.937 354.42 352.743 358.002 352.75C369.612 352.75 378.272 352.75 383.782 358.34C385.392 359.93 388.302 363.57 388.882 370.84Z" fill="black" stroke="black" stroke-width="1.5" stroke-linecap="round" stroke-linejoin="round"/>
<path d="M373.441 401.209H375.101C375.727 401.209 376.34 401.037 376.874 400.712C377.409 400.388 377.844 399.923 378.132 399.368C378.421 398.813 378.552 398.19 378.511 397.566C378.471 396.942 378.26 396.342 377.901 395.829L373.441 389.449" stroke="black" stroke-width="1.5" stroke-linecap="round" stroke-linejoin="round"/>
<path d="M379.03 405.06C378.54 406.11 377.734 406.98 376.724 407.548C375.715 408.117 374.552 408.355 373.4 408.23C372.578 408.078 371.8 407.745 371.122 407.256C370.444 406.766 369.883 406.132 369.48 405.4L379.03 405.06Z" fill="black"/>
<path d="M361.4 394.45C362.179 394.45 362.81 393.246 362.81 391.76C362.81 390.275 362.179 389.07 361.4 389.07C360.621 389.07 359.99 390.275 359.99 391.76C359.99 393.246 360.621 394.45 361.4 394.45Z" fill="black"/>
<path d="M383.932 394.45C384.71 394.45 385.341 393.246 385.341 391.76C385.341 390.275 384.71 389.07 383.932 389.07C383.153 389.07 382.521 390.275 382.521 391.76C382.521 393.246 383.153 394.45 383.932 394.45Z" fill="black"/>
<path d="M334.722 406.17L341.422 383.33H339.542C337.461 383.264 335.436 384.011 333.898 385.413C332.359 386.816 331.428 388.762 331.302 390.84C331.201 392.64 331.711 394.422 332.749 395.895C333.787 397.369 335.293 398.449 337.022 398.96" fill="#F7CCB9"/>
<path d="M334.722 406.17L341.422 383.33H339.542C337.461 383.264 335.436 384.011 333.898 385.413C332.359 386.816 331.428 388.762 331.302 390.84C331.201 392.64 331.711 394.422 332.749 395.895C333.787 397.369 335.293 398.449 337.022 398.96" stroke="black" stroke-width="1.5" stroke-linecap="round" stroke-linejoin="round"/>
<path d="M356.4 387.11C357.174 385.735 358.422 384.69 359.91 384.17L356.4 387.11Z" fill="white"/>
<path d="M356.4 387.11C357.174 385.735 358.422 384.69 359.91 384.17" stroke="black" stroke-width="1.5" stroke-linecap="round" stroke-linejoin="round"/>
<path d="M387.951 387.11C387.175 385.738 385.928 384.694 384.441 384.17L387.951 387.11Z" fill="white"/>
<path d="M387.951 387.11C387.175 385.738 385.928 384.694 384.441 384.17" stroke="black" stroke-width="1.5" stroke-linecap="round" stroke-linejoin="round"/>
<path d="M358.901 352.94H364.741C366.741 352.82 379.301 352.25 385.551 360.67C388.091 364.09 388.721 367.84 389.211 370.67C390.731 379.67 387.011 385.19 387.931 395.31C388.361 399.96 388.701 402.38 389.421 409.08C389.637 410.815 389.604 412.573 389.321 414.3C389.261 414.67 389.181 415.03 389.101 415.39C386.591 426.04 375.251 432.06 364.811 428.81L355.811 426.02" stroke="black" stroke-width="1.5" stroke-linecap="round" stroke-linejoin="round"/>
<path d="M373.459 401.219H375.119C375.744 401.219 376.357 401.047 376.892 400.722C377.426 400.397 377.861 399.933 378.15 399.378C378.439 398.823 378.57 398.2 378.529 397.576C378.488 396.952 378.277 396.351 377.919 395.839L373.459 389.459" stroke="black" stroke-width="1.5" stroke-linecap="round" stroke-linejoin="round"/>
<path d="M379.05 405.069C378.56 406.119 377.753 406.99 376.744 407.558C375.734 408.127 374.572 408.365 373.42 408.239C372.598 408.088 371.819 407.755 371.141 407.266C370.463 406.776 369.903 406.142 369.5 405.409L379.05 405.069Z" fill="black"/>
<path fill-rule="evenodd" clip-rule="evenodd" d="M362.828 391.769C362.828 393.255 362.197 394.459 361.418 394.459C360.639 394.459 360.008 393.255 360.008 391.769C360.008 390.283 360.639 389.079 361.418 389.079C362.197 389.079 362.828 390.283 362.828 391.769ZM385.359 391.769C385.359 393.255 384.728 394.459 383.949 394.459C383.17 394.459 382.539 393.255 382.539 391.769C382.539 390.283 383.17 389.079 383.949 389.079C384.728 389.079 385.359 390.283 385.359 391.769Z" fill="black"/>
<path d="M390.2 401.609C396.06 401.609 400.81 396.858 400.81 390.999C400.81 385.139 396.06 380.389 390.2 380.389C384.34 380.389 379.59 385.139 379.59 390.999C379.59 396.858 384.34 401.609 390.2 401.609Z" stroke="black" stroke-width="1.5" stroke-linecap="round" stroke-linejoin="round"/>
<path fill-rule="evenodd" clip-rule="evenodd" d="M356.418 387.119C357.191 385.744 358.439 384.699 359.928 384.179L356.418 387.119ZM387.969 387.119C387.192 385.747 385.945 384.703 384.459 384.179L387.969 387.119Z" fill="white"/>
<path fill-rule="evenodd" clip-rule="evenodd" d="M383.807 383.807C383.987 383.492 384.366 383.351 384.708 383.471C386.366 384.056 387.756 385.22 388.622 386.749C388.8 387.065 388.728 387.463 388.449 387.695C388.17 387.927 387.765 387.927 387.487 387.694L383.977 384.754C383.699 384.521 383.628 384.122 383.807 383.807ZM360.58 383.808C360.759 384.123 360.687 384.521 360.41 384.754L356.9 387.694C356.622 387.926 356.218 387.927 355.939 387.696C355.66 387.464 355.587 387.067 355.764 386.751C356.627 385.217 358.02 384.051 359.681 383.471C360.023 383.351 360.401 383.493 360.58 383.808Z" fill="black"/>
<path opacity="0.17" fill-rule="evenodd" clip-rule="evenodd" d="M370.788 390.999C370.788 396.858 366.038 401.609 360.178 401.609C354.319 401.609 349.568 396.858 349.568 390.999C349.568 385.139 354.319 380.389 360.178 380.389C366.038 380.389 370.788 385.139 370.788 390.999ZM401.22 390.999C401.22 396.858 396.47 401.609 390.61 401.609C384.75 401.609 380 396.858 380 390.999C380 385.139 384.75 380.389 390.61 380.389C396.47 380.389 401.22 385.139 401.22 390.999Z" fill="white"/>
<path d="M360.178 401.609C366.038 401.609 370.788 396.858 370.788 390.999C370.788 385.139 366.038 380.389 360.178 380.389C354.319 380.389 349.568 385.139 349.568 390.999C349.568 396.858 354.319 401.609 360.178 401.609Z" stroke="black" stroke-width="1.5" stroke-linecap="round" stroke-linejoin="round"/>
<path d="M379.26 389.359H370.77" stroke="black" stroke-width="1.5" stroke-linecap="round" stroke-linejoin="round"/>
<path d="M281.56 595.94H268.06V838.82H281.56V595.94Z" fill="#FFE1B8" stroke="black" stroke-width="1.5" stroke-linecap="round" stroke-linejoin="round"/>
<path d="M273.06 595.94V836.83" stroke="black" stroke-width="1.5" stroke-linecap="round" stroke-linejoin="round"/>
<path d="M623.13 595.73H788.05V738.55H639.54C635.177 738.55 630.993 736.817 627.908 733.732C624.823 730.647 623.09 726.463 623.09 722.1V595.73H623.13Z" fill="#FFCD88" stroke="black" stroke-width="1.5" stroke-linecap="round" stroke-linejoin="round"/>
<path d="M798.479 595.73H722.77V738.55H798.479V595.73Z" fill="#FFE1B8" stroke="black" stroke-width="1.5" stroke-linecap="round" stroke-linejoin="round"/>
<path d="M798.35 590H268V596.45H798.35V590Z" fill="#FFCD88" stroke="black" stroke-width="1.5" stroke-linecap="round" stroke-linejoin="round"/>
<path d="M798.47 738.55H784.97V838.81H798.47V738.55Z" fill="#FFE1B8" stroke="black" stroke-width="1.5" stroke-linecap="round" stroke-linejoin="round"/>
<path d="M789.98 738.55V837.99" stroke="black" stroke-width="1.5" stroke-linecap="round" stroke-linejoin="round"/>
<path d="M737.09 738.55H723.59V838.81H737.09V738.55Z" fill="#FFE1B8" stroke="black" stroke-width="1.5" stroke-linecap="round" stroke-linejoin="round"/>
<path d="M728.59 738.55V837.99" stroke="black" stroke-width="1.5" stroke-linecap="round" stroke-linejoin="round"/>
<path d="M736.9 596.11C736.9 596.11 757.33 631.51 723.63 644.11" stroke="black" stroke-width="1.5" stroke-linecap="round" stroke-linejoin="round"/>
<path d="M766.18 596.79C772.91 644.96 767.26 658.51 760.39 661.47C754.01 664.22 747.28 657.52 738.94 660.79C728.29 664.96 723.88 681.55 722.63 694.49" stroke="black" stroke-width="1.5" stroke-linecap="round" stroke-linejoin="round"/>
<path d="M756.83 631.1C754.32 629.46 746.89 634.43 744.74 640.78C744.4 641.78 743.06 645.78 745.02 647.67C746.6 649.21 749.61 648.67 751.37 647.94C757.78 645.08 759.75 633.01 756.83 631.1Z" stroke="black" stroke-width="1.5" stroke-linecap="round" stroke-linejoin="round"/>
<path d="M752.39 737.89C752.39 737.89 742.39 717.21 752.39 698.83C762.39 680.45 797.54 659 797.54 659" stroke="black" stroke-width="1.5" stroke-linecap="round" stroke-linejoin="round"/>
<path d="M797.54 685.04C785.25 689.54 781.7 694.87 780.69 698.83C778.47 707.52 787.35 714.03 785.29 724.11C783.93 730.74 778.59 735.23 774.56 737.89" stroke="black" stroke-width="1.5" stroke-linecap="round" stroke-linejoin="round"/>
<path d="M342.94 595.94H329.44V838.82H342.94V595.94Z" fill="#FFE1B8" stroke="black" stroke-width="1.5" stroke-linecap="round" stroke-linejoin="round"/>
<path d="M334.45 595.94V836.83" stroke="black" stroke-width="1.5" stroke-linecap="round" stroke-linejoin="round"/>
<path d="M895.899 839.45L904.899 770.76C898.279 768.815 892.283 765.169 887.509 760.187C882.736 755.204 879.35 749.058 877.689 742.36L983 742.95C982.491 749.671 979.772 756.034 975.265 761.045C970.758 766.057 964.719 769.434 958.089 770.65C965.669 793.37 973.246 816.094 980.819 838.82L969 839.32C963.26 820.654 957.523 802.004 951.789 783.37C951.4 782.103 950.63 780.985 949.583 780.171C948.536 779.357 947.264 778.885 945.939 778.82C944.984 778.776 944.031 778.945 943.149 779.315C942.267 779.685 941.478 780.246 940.839 780.958C940.201 781.67 939.729 782.515 939.457 783.432C939.186 784.349 939.122 785.315 939.269 786.26C942.079 804.04 942.009 821.81 944.819 839.59H933.24L930.75 788.43C930.644 786.093 929.656 783.883 927.985 782.245C926.314 780.608 924.083 779.666 921.744 779.609C919.405 779.552 917.132 780.384 915.383 781.938C913.633 783.492 912.539 785.651 912.319 787.98L907.319 839.45H895.899Z" fill="#AD85AD" stroke="black" stroke-width="1.5" stroke-linecap="round" stroke-linejoin="round"/>
<path d="M941.08 742.05L893.59 685.37" stroke="black" stroke-width="1.5" stroke-linecap="round" stroke-linejoin="round"/>
<path d="M930.36 729.03L957.93 652.44" stroke="black" stroke-width="1.5" stroke-linecap="round" stroke-linejoin="round"/>
<path d="M942.62 693.8L900.56 578.48L942.62 693.8Z" fill="white"/>
<path d="M942.62 693.8L900.56 578.48" stroke="black" stroke-width="1.5" stroke-linecap="round" stroke-linejoin="round"/>
<path d="M913.609 655.39C916.779 661.18 913.339 668.18 912.039 670.84C908.529 677.99 902.71 681.39 895.5 685.61C888.11 689.94 882.03 693.5 873.64 693.21C870.64 693.11 860.73 692.78 857.21 686.34C853.13 678.89 860.519 668.64 862.469 665.94C867.059 659.57 872.71 656.63 877.75 654C883.64 650.93 890.42 647.39 899.12 648.32C902.54 648.69 910.419 649.53 913.609 655.39Z" fill="#C8B571" stroke="black" stroke-width="1.5" stroke-linecap="round" stroke-linejoin="round"/>
<path d="M895.33 665.89C896.33 668.29 894.46 670.81 893.96 671.51C892.87 672.874 891.443 673.929 889.82 674.57C887.4 675.78 885.24 676.86 883.02 675.99C881.775 675.464 880.763 674.505 880.17 673.29C879.829 672.501 879.654 671.65 879.654 670.79C879.654 669.93 879.829 669.08 880.17 668.29C880.922 666.397 882.346 664.848 884.17 663.94C885.979 662.88 888.096 662.471 890.17 662.78C891.13 662.92 894.33 663.44 895.33 665.89Z" fill="white" stroke="black" stroke-width="1.5" stroke-linecap="round" stroke-linejoin="round"/>
<path d="M998.12 644.47C996.42 650.84 989.12 653.55 986.33 654.58C978.86 657.34 972.33 655.79 964.16 653.88C955.83 651.88 948.97 650.31 943.09 644.32C940.96 642.16 934.03 635.11 935.92 628.02C938.1 619.8 950.52 617.47 953.79 616.86C961.5 615.41 967.63 617.17 973.09 618.74C979.48 620.58 986.82 622.69 992.48 629.36C994.71 631.98 999.84 638.02 998.12 644.47Z" fill="#C8B571" stroke="black" stroke-width="1.5" stroke-linecap="round" stroke-linejoin="round"/>
<path d="M977.61 639.451C976.61 641.851 973.61 642.451 972.75 642.581C971.02 642.817 969.26 642.6 967.64 641.951C965.05 641.151 962.74 640.451 961.73 638.291C961.188 637.052 961.116 635.658 961.529 634.371C961.818 633.556 962.271 632.81 962.859 632.177C963.447 631.544 964.158 631.038 964.949 630.691C966.804 629.838 968.909 629.7 970.86 630.301C972.888 630.779 974.693 631.932 975.98 633.571C976.63 634.421 978.59 637.001 977.61 639.451Z" fill="white" stroke="black" stroke-width="1.5" stroke-linecap="round" stroke-linejoin="round"/>
<path d="M924.87 549.31C927.04 555.55 922.5 561.89 920.78 564.31C916.14 570.78 909.85 573.18 902.04 576.16C894.04 579.21 887.45 581.72 879.23 580.06C876.23 579.46 866.56 577.51 864.15 570.58C861.35 562.58 870.32 553.67 872.69 551.32C878.26 545.8 884.32 543.82 889.69 542.06C896 540 903.27 537.63 911.69 539.97C915.06 540.92 922.68 543.04 924.87 549.31Z" fill="#C8B571" stroke="black" stroke-width="1.5" stroke-linecap="round" stroke-linejoin="round"/>
<path d="M905.08 556.69C905.64 559.22 903.42 561.41 902.81 562.01C901.507 563.174 899.926 563.98 898.22 564.35C895.64 565.14 893.33 565.85 891.28 564.63C890.138 563.906 889.297 562.795 888.91 561.5C888.691 560.658 888.647 559.781 888.78 558.921C888.912 558.061 889.218 557.238 889.68 556.5C890.741 554.757 892.407 553.464 894.36 552.87C896.309 552.128 898.454 552.072 900.44 552.71C901.45 553.08 904.51 554.11 905.08 556.69Z" fill="white" stroke="black" stroke-width="1.5" stroke-linecap="round" stroke-linejoin="round"/>
<path d="M902.86 769.761H909.04" stroke="black" stroke-width="1.5" stroke-linecap="round" stroke-linejoin="round"/>
<path d="M956.05 769.65H951.55" stroke="black" stroke-width="1.5" stroke-linecap="round" stroke-linejoin="round"/>
<path d="M1047.6 840H296.87" stroke="black" stroke-width="1.5" stroke-linecap="round" stroke-linejoin="round"/>
<path d="M716.7 850.21H179" stroke="black" stroke-width="1.5" stroke-linecap="round" stroke-linejoin="round"/>
<path d="M760.62 850.21H729.47" stroke="black" stroke-width="1.5" stroke-linecap="round" stroke-linejoin="round"/>
<path d="M529.16 550.43H768.46C776.833 550.43 783.62 543.643 783.62 535.27V377.16C783.62 368.787 776.833 362 768.46 362H529.16C520.787 362 514 368.787 514 377.16V535.27C514 543.643 520.787 550.43 529.16 550.43Z" fill="#82AAD3" stroke="black" stroke-width="1.5" stroke-linecap="round" stroke-linejoin="round"/>
<path d="M637.51 588.72H691.13L678.11 490.68H624.49L637.51 588.72Z" fill="#62809E" stroke="black" stroke-width="1.5" stroke-linecap="round" stroke-linejoin="round"/>
<path d="M592.72 590H700.69C703.871 590 706.45 587.422 706.45 584.24V583.16C706.45 579.979 703.871 577.4 700.69 577.4H592.72C589.539 577.4 586.96 579.979 586.96 583.16V584.24C586.96 587.422 589.539 590 592.72 590Z" fill="#82AAD3" stroke="black" stroke-width="1.5" stroke-linecap="round" stroke-linejoin="round"/>
</svg>
