<svg width="1220" height="920" viewBox="0 0 1220 920" fill="none" xmlns="http://www.w3.org/2000/svg">
<path d="M866.55 276.38V167.68H1076.26V320.33H1053.23" stroke="#CCCCCC" stroke-width="1.5" stroke-linecap="round" stroke-linejoin="round"/>
<path d="M1058.21 197.97H1041.53V303.99H1058.21V197.97Z" stroke="#CCCCCC" stroke-width="1.5" stroke-linecap="round" stroke-linejoin="round"/>
<path d="M1003.06 276.25V197.98H1019.74V276.25" stroke="#CCCCCC" stroke-width="1.5" stroke-linecap="round" stroke-linejoin="round"/>
<path d="M964.59 276.25V197.98H981.28V276.25" stroke="#CCCCCC" stroke-width="1.5" stroke-linecap="round" stroke-linejoin="round"/>
<path d="M926.13 276.25V197.98H942.81V276.25" stroke="#CCCCCC" stroke-width="1.5" stroke-linecap="round" stroke-linejoin="round"/>
<path d="M887.66 276.25V197.98H904.34V276.25" stroke="#CCCCCC" stroke-width="1.5" stroke-linecap="round" stroke-linejoin="round"/>
<path d="M888.34 224.68H904" stroke="#CCCCCC" stroke-width="1.5" stroke-linecap="round" stroke-linejoin="round"/>
<path d="M888 249.19H903.66" stroke="#CCCCCC" stroke-width="1.5" stroke-linecap="round" stroke-linejoin="round"/>
<path d="M926.81 255.65H942.47" stroke="#CCCCCC" stroke-width="1.5" stroke-linecap="round" stroke-linejoin="round"/>
<path d="M965.62 209.36H981.28" stroke="#CCCCCC" stroke-width="1.5" stroke-linecap="round" stroke-linejoin="round"/>
<path d="M1004.09 251.91H1019.74" stroke="#CCCCCC" stroke-width="1.5" stroke-linecap="round" stroke-linejoin="round"/>
<path d="M884.98 458.04H760V276.25H1026.55V316.72" stroke="#CCCCCC" stroke-width="1.5" stroke-linecap="round" stroke-linejoin="round"/>
<path d="M1042.55 213.1H1058.21" stroke="#CCCCCC" stroke-width="1.5" stroke-linecap="round" stroke-linejoin="round"/>
<path d="M866.55 167.68L972.43 96L1076.26 167.68" stroke="#CCCCCC" stroke-width="1.5" stroke-linecap="round" stroke-linejoin="round"/>
<path d="M786.19 418.48L798.45 397.04L812.74 421.55L833.17 323.5L858.7 389.89L884.01 357.83" stroke="#CCCCCC" stroke-width="1.5" stroke-linecap="round" stroke-linejoin="round"/>
<path d="M1052.72 317.1H884.72V571.4H1052.72V317.1Z" stroke="#CCCCCC" stroke-width="1.5" stroke-linecap="round" stroke-linejoin="round"/>
<path d="M972.72 526.12C1002.62 526.12 1026.85 501.886 1026.85 471.99C1026.85 442.095 1002.62 417.86 972.72 417.86C942.825 417.86 918.59 442.095 918.59 471.99C918.59 501.886 942.825 526.12 972.72 526.12Z" stroke="#CCCCCC" stroke-width="1.5" stroke-linecap="round" stroke-linejoin="round"/>
<path d="M972.87 417.87V470.93L1022.23 450.21" stroke="#CCCCCC" stroke-width="1.5" stroke-linecap="round" stroke-linejoin="round"/>
<path d="M975.911 356.59H909.021V360.68H975.911V356.59Z" stroke="#CCCCCC" stroke-width="1.5" stroke-linecap="round" stroke-linejoin="round"/>
<path d="M935.911 368.34H909.021V372.43H935.911V368.34Z" stroke="#CCCCCC" stroke-width="1.5" stroke-linecap="round" stroke-linejoin="round"/>
<path d="M644.138 539.035H633.862V801.632H644.138V539.035Z" fill="#FFE1B8" stroke="black" stroke-width="1.5" stroke-linecap="round" stroke-linejoin="round"/>
<path d="M580.466 790.386H697.543C699.083 790.386 700.56 790.998 701.649 792.087C702.738 793.176 703.35 794.653 703.35 796.193V802H574.668V796.158C574.677 794.625 575.292 793.159 576.378 792.077C577.464 790.996 578.933 790.388 580.466 790.386Z" fill="#FFCD88" stroke="black" stroke-width="1.5" stroke-linecap="round" stroke-linejoin="round"/>
<path d="M644.138 548.06V557.978L633.862 557.636V546.118L644.138 548.06Z" fill="black"/>
<path d="M828 276H450V547.894H828V276Z" fill="white" stroke="black" stroke-width="1.5" stroke-linecap="round" stroke-linejoin="round"/>
<path d="M828 276H450V285.305H828V276Z" fill="#82AAD3" stroke="black" stroke-width="1.5" stroke-linecap="round" stroke-linejoin="round"/>
<path d="M565.844 333.608C555.661 333.61 545.707 336.631 537.241 342.29C528.775 347.949 522.177 355.991 518.281 365.4C514.385 374.809 513.366 385.163 515.353 395.151C517.34 405.139 522.243 414.313 529.444 421.515C536.644 428.716 545.818 433.62 555.806 435.607C565.793 437.594 576.145 436.575 585.553 432.679C594.962 428.782 603.003 422.184 608.662 413.717C614.32 405.25 617.342 395.295 617.343 385.111C617.344 378.347 616.013 371.65 613.425 365.4C610.838 359.151 607.044 353.473 602.262 348.69C597.48 343.908 591.802 340.114 585.553 337.526C579.305 334.938 572.608 333.607 565.844 333.608ZM565.844 403.678C562.169 403.677 558.576 402.585 555.521 400.541C552.465 398.497 550.085 395.593 548.68 392.196C547.276 388.799 546.91 385.061 547.629 381.456C548.349 377.851 550.121 374.541 552.722 371.943C555.323 369.346 558.636 367.578 562.242 366.863C565.847 366.149 569.584 366.52 572.979 367.93C576.373 369.339 579.274 371.724 581.313 374.782C583.353 377.841 584.439 381.435 584.436 385.111C584.435 387.551 583.953 389.967 583.018 392.221C582.083 394.475 580.713 396.523 578.986 398.247C577.26 399.971 575.211 401.338 572.956 402.27C570.701 403.202 568.284 403.681 565.844 403.678Z" fill="white" stroke="black" stroke-width="1.5" stroke-linecap="round" stroke-linejoin="round"/>
<path d="M565.661 333.608V366.518C570.587 366.518 575.311 368.475 578.795 371.959C582.278 375.442 584.235 380.167 584.235 385.094C584.235 390.02 582.278 394.745 578.795 398.229C575.311 401.712 570.587 403.67 565.661 403.67V436.588C579.199 436.412 592.124 430.909 601.635 421.272C611.147 411.635 616.48 398.639 616.48 385.098C616.48 371.557 611.147 358.561 601.635 348.924C592.124 339.287 579.199 333.784 565.661 333.608Z" fill="#82AAD3" stroke="black" stroke-width="1.5" stroke-linecap="round" stroke-linejoin="round"/>
<path d="M712.147 333.608C701.963 333.608 692.009 336.628 683.541 342.286C675.074 347.944 668.474 355.985 664.577 365.394C660.68 374.803 659.659 385.157 661.645 395.145C663.632 405.134 668.535 414.309 675.735 421.511C682.935 428.713 692.109 433.619 702.096 435.606C712.084 437.594 722.437 436.576 731.845 432.68C741.254 428.784 749.296 422.185 754.955 413.718C760.614 405.251 763.635 395.295 763.637 385.111C763.639 378.348 762.309 371.65 759.723 365.401C757.136 359.152 753.343 353.474 748.562 348.691C743.78 343.908 738.103 340.114 731.855 337.526C725.607 334.938 718.91 333.607 712.147 333.608ZM712.147 403.678C708.471 403.678 704.877 402.588 701.821 400.545C698.765 398.502 696.383 395.599 694.977 392.202C693.571 388.805 693.204 385.067 693.922 381.462C694.641 377.856 696.412 374.545 699.013 371.946C701.614 369.348 704.926 367.579 708.532 366.864C712.138 366.149 715.875 366.52 719.27 367.929C722.666 369.338 725.567 371.723 727.607 374.781C729.646 377.84 730.733 381.435 730.73 385.111C730.729 387.551 730.247 389.966 729.313 392.219C728.378 394.472 727.009 396.52 725.283 398.244C723.558 399.968 721.51 401.335 719.256 402.268C717.002 403.2 714.586 403.679 712.147 403.678Z" fill="white" stroke="black" stroke-width="1.5" stroke-linecap="round" stroke-linejoin="round"/>
<path d="M730.459 385.111C730.459 385.294 730.459 385.469 730.459 385.644H763.384C763.384 385.469 763.384 385.294 763.384 385.111C763.384 371.466 757.968 358.38 748.327 348.726C738.685 339.073 725.607 333.641 711.963 333.625V366.535C716.875 366.558 721.578 368.525 725.044 372.006C728.51 375.487 730.457 380.198 730.459 385.111Z" fill="#8CA45B" stroke="black" stroke-width="1.5" stroke-miterlimit="10"/>
<path d="M526.404 465.457H514.415V476.932H526.404V465.457Z" fill="white" stroke="black" stroke-width="1.5" stroke-linecap="round" stroke-linejoin="round"/>
<path d="M526.404 500.729H514.415V512.203H526.404V500.729Z" fill="#82AAD3" stroke="black" stroke-width="1.5" stroke-linecap="round" stroke-linejoin="round"/>
<path d="M539.863 471.579H586.753" stroke="black" stroke-width="1.5" stroke-linecap="round" stroke-linejoin="round"/>
<path d="M594.344 471.579H608.633" stroke="black" stroke-width="1.5" stroke-linecap="round" stroke-linejoin="round"/>
<path d="M539.863 506.396H553.706" stroke="black" stroke-width="1.5" stroke-linecap="round" stroke-linejoin="round"/>
<path d="M562.189 506.396H608.633" stroke="black" stroke-width="1.5" stroke-linecap="round" stroke-linejoin="round"/>
<path d="M672.2 465.457H660.211V476.932H672.2V465.457Z" fill="white" stroke="black" stroke-width="1.5" stroke-linecap="round" stroke-linejoin="round"/>
<path d="M672.2 500.729H660.211V512.203H672.2V500.729Z" fill="#8CA45B" stroke="black" stroke-width="1.5" stroke-miterlimit="10"/>
<path d="M685.667 471.579H732.549" stroke="black" stroke-width="1.5" stroke-linecap="round" stroke-linejoin="round"/>
<path d="M740.14 471.579H754.429" stroke="black" stroke-width="1.5" stroke-linecap="round" stroke-linejoin="round"/>
<path d="M685.667 506.396H699.511" stroke="black" stroke-width="1.5" stroke-linecap="round" stroke-linejoin="round"/>
<path d="M707.993 506.396H754.429" stroke="black" stroke-width="1.5" stroke-linecap="round" stroke-linejoin="round"/>
<path d="M249.36 269.72C285.457 269.72 314.72 240.457 314.72 204.36C314.72 168.263 285.457 139 249.36 139C213.263 139 184 168.263 184 204.36C184 240.457 213.263 269.72 249.36 269.72Z" fill="#8CA45B" stroke="black" stroke-width="1.5" stroke-linecap="round" stroke-linejoin="round"/>
<path d="M249.36 263.59C282.072 263.59 308.59 237.072 308.59 204.36C308.59 171.648 282.072 145.13 249.36 145.13C216.648 145.13 190.13 171.648 190.13 204.36C190.13 237.072 216.648 263.59 249.36 263.59Z" fill="white" stroke="black" stroke-width="1.5" stroke-linecap="round" stroke-linejoin="round"/>
<path d="M249.36 211.76C253.447 211.76 256.76 208.447 256.76 204.36C256.76 200.273 253.447 196.96 249.36 196.96C245.273 196.96 241.96 200.273 241.96 204.36C241.96 208.447 245.273 211.76 249.36 211.76Z" fill="#FFCD88" stroke="black" stroke-width="1.5" stroke-linecap="round" stroke-linejoin="round"/>
<path d="M215.4 174.75L243.49 198.49" stroke="black" stroke-width="1.5" stroke-linecap="round" stroke-linejoin="round"/>
<path d="M275.15 186.49L256 199.51" stroke="black" stroke-width="1.5" stroke-linecap="round" stroke-linejoin="round"/>
<path d="M1027.6 803H276.87" stroke="black" stroke-width="1.5" stroke-linecap="round" stroke-linejoin="round"/>
<path d="M696.7 813.21H159" stroke="black" stroke-width="1.5" stroke-linecap="round" stroke-linejoin="round"/>
<path d="M740.62 813.21H709.47" stroke="black" stroke-width="1.5" stroke-linecap="round" stroke-linejoin="round"/>
<path d="M695.64 513.04H185V786.74H695.64V513.04Z" stroke="#CCCCCC" stroke-width="1.5" stroke-linecap="round" stroke-linejoin="round"/>
<path d="M516.41 513.04V789.81" stroke="#CCCCCC" stroke-width="1.5" stroke-linecap="round" stroke-linejoin="round"/>
<path d="M516.41 550.319H695.64" stroke="#CCCCCC" stroke-width="1.5" stroke-linecap="round" stroke-linejoin="round"/>
<path d="M516.41 589.13H695.64" stroke="#CCCCCC" stroke-width="1.5" stroke-linecap="round" stroke-linejoin="round"/>
<path d="M606.789 535.519C609.33 535.519 611.389 533.46 611.389 530.919C611.389 528.379 609.33 526.319 606.789 526.319C604.249 526.319 602.189 528.379 602.189 530.919C602.189 533.46 604.249 535.519 606.789 535.519Z" stroke="#CCCCCC" stroke-width="1.5" stroke-linecap="round" stroke-linejoin="round"/>
<path d="M606.789 574.33C609.33 574.33 611.389 572.27 611.389 569.73C611.389 567.189 609.33 565.13 606.789 565.13C604.249 565.13 602.189 567.189 602.189 569.73C602.189 572.27 604.249 574.33 606.789 574.33Z" stroke="#CCCCCC" stroke-width="1.5" stroke-linecap="round" stroke-linejoin="round"/>
<path d="M606.789 613.13C609.33 613.13 611.389 611.07 611.389 608.53C611.389 605.989 609.33 603.93 606.789 603.93C604.249 603.93 602.189 605.989 602.189 608.53C602.189 611.07 604.249 613.13 606.789 613.13Z" stroke="#CCCCCC" stroke-width="1.5" stroke-linecap="round" stroke-linejoin="round"/>
<path d="M278.71 467.07H186.02V320H435.21V467.07H345.34" stroke="#CCCCCC" stroke-width="1.5" stroke-linecap="round" stroke-linejoin="round"/>
<path d="M388.24 505.02H236.07V513.19H388.24V505.02Z" stroke="#CCCCCC" stroke-width="1.5" stroke-linecap="round" stroke-linejoin="round"/>
<path d="M297.51 390.3L270.11 504.85H354.71L326.45 390.47L297.51 390.3Z" stroke="#CCCCCC" stroke-width="1.5" stroke-linecap="round" stroke-linejoin="round"/>
<path d="M311.64 432.51C317.279 432.51 321.85 427.939 321.85 422.3C321.85 416.661 317.279 412.09 311.64 412.09C306.001 412.09 301.43 416.661 301.43 422.3C301.43 427.939 306.001 432.51 311.64 432.51Z" stroke="#CCCCCC" stroke-width="1.5" stroke-linecap="round" stroke-linejoin="round"/>
<path d="M416.32 786.83H326.7V802.15H416.32V786.83Z" stroke="#CCCCCC" stroke-width="1.5" stroke-linecap="round" stroke-linejoin="round"/>
<path d="M573.6 786.83H483.98V802.15H573.6V786.83Z" stroke="#CCCCCC" stroke-width="1.5" stroke-linecap="round" stroke-linejoin="round"/>
<path d="M219.72 786.83H193.17V802.15H219.72V786.83Z" stroke="#CCCCCC" stroke-width="1.5" stroke-linecap="round" stroke-linejoin="round"/>
<path d="M478 137.81H559.47" stroke="#CCCCCC" stroke-width="1.5" stroke-linecap="round" stroke-linejoin="round"/>
<path d="M501.61 163.79H583.09" stroke="#CCCCCC" stroke-width="1.5" stroke-linecap="round" stroke-linejoin="round"/>
<path d="M512.24 126V174.42" stroke="#CCCCCC" stroke-width="1.5" stroke-linecap="round" stroke-linejoin="round"/>
<path d="M555.931 126V174.42" stroke="#CCCCCC" stroke-width="1.5" stroke-linecap="round" stroke-linejoin="round"/>
<path d="M595 188.81H676.47" stroke="#CCCCCC" stroke-width="1.5" stroke-linecap="round" stroke-linejoin="round"/>
<path d="M618.61 214.79H700.09" stroke="#CCCCCC" stroke-width="1.5" stroke-linecap="round" stroke-linejoin="round"/>
<path d="M629.24 177V225.42" stroke="#CCCCCC" stroke-width="1.5" stroke-linecap="round" stroke-linejoin="round"/>
<path d="M672.931 177V225.42" stroke="#CCCCCC" stroke-width="1.5" stroke-linecap="round" stroke-linejoin="round"/>
<path d="M467.445 321.199C470.315 330.089 472.375 335.269 475.255 344.199C467.487 349.771 458.006 352.429 448.475 351.709C440.825 351.023 433.535 348.148 427.475 343.429C430.255 332.169 433.031 320.909 435.805 309.649" fill="#F7CCB9"/>
<path d="M467.445 321.199C470.315 330.089 472.375 335.269 475.255 344.199C467.487 349.771 458.006 352.429 448.475 351.709C440.825 351.023 433.535 348.148 427.475 343.429C430.255 332.169 433.031 320.909 435.805 309.649" stroke="black" stroke-width="1.5" stroke-linecap="round" stroke-linejoin="round"/>
<path d="M489.014 266.8C489.244 272.09 487.894 273.16 487.684 282.09C487.684 283.45 487.604 287.09 487.944 291.67C488.614 300.84 489.944 301.67 489.504 305.5C489.111 308.411 488.07 311.198 486.459 313.655C484.848 316.112 482.707 318.178 480.194 319.7C476.194 321.97 472.194 321.63 457.194 318.7C450.604 317.43 442.754 318.7 433.754 316.7C437.514 295.8 441.194 272.05 444.954 251.15C459.954 241.81 476.514 242.99 484.134 251.64C488.634 256.8 488.864 263.47 489.014 266.8Z" fill="#F7CCB9"/>
<path d="M488.833 262.85C482.94 262.93 476.983 262.97 470.963 262.97C464.037 262.97 457.193 262.923 450.433 262.83L441.433 309.12C441.16 310.532 440.535 311.852 439.615 312.958C438.695 314.063 437.51 314.918 436.171 315.443C434.832 315.968 433.382 316.146 431.956 315.96C430.529 315.774 429.173 315.23 428.013 314.38C424.263 311.52 426.313 300.47 426.873 295.91C427.678 288.71 426.955 281.421 424.753 274.52C423.176 268.382 424.097 261.87 427.313 256.41C433.873 245.74 446.503 245.41 447.313 245.41C450.873 245.011 454.452 244.817 458.033 244.83C469.643 244.83 478.303 244.83 483.813 250.41C485.343 251.94 488.253 255.58 488.833 262.85Z" fill="black" stroke="black" stroke-width="1.5" stroke-linecap="round" stroke-linejoin="round"/>
<path d="M473.393 293.22H475.053C475.678 293.219 476.291 293.048 476.825 292.723C477.36 292.398 477.795 291.933 478.084 291.379C478.372 290.824 478.504 290.201 478.463 289.577C478.422 288.953 478.211 288.352 477.853 287.84L473.393 281.46" stroke="black" stroke-width="1.5" stroke-linecap="round" stroke-linejoin="round"/>
<path d="M478.984 298.069C478.494 299.119 477.687 299.99 476.677 300.558C475.668 301.127 474.506 301.365 473.354 301.239C472.531 301.088 471.753 300.755 471.075 300.266C470.397 299.776 469.836 299.142 469.434 298.409L478.984 298.069Z" stroke="black" stroke-width="1.5" stroke-linecap="round" stroke-linejoin="round"/>
<path fill-rule="evenodd" clip-rule="evenodd" d="M462.763 283.77C462.763 285.256 462.132 286.46 461.354 286.46C460.575 286.46 459.943 285.256 459.943 283.77C459.943 282.284 460.575 281.08 461.354 281.08C462.132 281.08 462.763 282.284 462.763 283.77ZM485.295 283.77C485.295 285.256 484.663 286.46 483.885 286.46C483.106 286.46 482.475 285.256 482.475 283.77C482.475 282.284 483.106 281.08 483.885 281.08C484.663 281.08 485.295 282.284 485.295 283.77Z" fill="black"/>
<path d="M434.674 298.18L441.374 275.36L439.524 275.3C437.443 275.234 435.419 275.981 433.88 277.383C432.342 278.785 431.41 280.732 431.284 282.81C431.183 284.61 431.693 286.391 432.731 287.865C433.77 289.339 435.275 290.419 437.004 290.93" fill="#F7CCB9"/>
<path d="M434.674 298.18L441.374 275.36L439.524 275.3C437.443 275.234 435.419 275.981 433.88 277.383C432.342 278.785 431.41 280.732 431.284 282.81C431.183 284.61 431.693 286.391 432.731 287.865C433.77 289.339 435.275 290.419 437.004 290.93" stroke="black" stroke-width="1.5" stroke-linecap="round" stroke-linejoin="round"/>
<path fill-rule="evenodd" clip-rule="evenodd" d="M456.354 279.12C457.127 277.745 458.375 276.7 459.864 276.18L456.354 279.12ZM487.903 279.12C487.126 277.748 485.879 276.704 484.393 276.18L487.903 279.12Z" fill="white"/>
<path fill-rule="evenodd" clip-rule="evenodd" d="M483.741 275.808C483.921 275.493 484.3 275.352 484.642 275.472C486.299 276.057 487.689 277.221 488.555 278.75C488.734 279.066 488.661 279.464 488.383 279.696C488.104 279.928 487.699 279.928 487.421 279.695L483.911 276.755C483.633 276.522 483.561 276.123 483.741 275.808ZM460.516 275.809C460.695 276.124 460.623 276.522 460.345 276.755L456.835 279.695C456.557 279.927 456.153 279.928 455.874 279.697C455.596 279.465 455.522 279.068 455.7 278.752C456.563 277.218 457.955 276.052 459.616 275.472C459.958 275.352 460.337 275.494 460.516 275.809Z" fill="black"/>
<path d="M458.854 244.949H464.694C466.694 244.829 479.254 244.259 485.504 252.679C488.044 256.099 488.674 259.849 489.164 262.679C490.684 271.679 486.964 277.199 487.884 287.309C488.314 291.969 488.654 294.389 489.374 301.089C489.591 302.825 489.557 304.583 489.274 306.309C489.214 306.679 489.134 307.039 489.054 307.399C486.544 318.039 475.204 324.069 464.764 320.819L455.764 318.029" stroke="black" stroke-width="1.5" stroke-linecap="round" stroke-linejoin="round"/>
<path d="M450.764 262.329C450.874 265.909 494.274 274.049 501.064 260.329C503.284 255.819 501.514 249.069 497.744 245.779C492.984 241.629 484.744 242.659 479.874 245.399C478.804 245.989 477.604 246.839 477.604 246.839C475.734 248.249 474.714 249.689 472.084 251.909C461.134 261.109 450.764 260.609 450.764 262.329Z" fill="black" stroke="black" stroke-width="1.5" stroke-linecap="round" stroke-linejoin="round"/>
<path d="M488.424 299.369C488.065 299.415 487.705 299.438 487.344 299.439C485.724 299.439 483.954 296.039 480.114 294.509C477.274 293.369 475.574 294.279 474.874 294.839C474.074 294.279 472.104 293.369 468.874 294.509C464.454 296.039 462.404 299.439 460.534 299.439C460.119 299.438 459.705 299.415 459.294 299.369C459.147 299.352 458.998 299.382 458.869 299.455C458.74 299.529 458.639 299.642 458.58 299.778C458.52 299.913 458.506 300.065 458.539 300.209C458.572 300.353 458.651 300.483 458.764 300.579C460.584 302.169 464.184 304.069 469.934 302.049C471.095 301.634 472.149 300.961 473.014 300.081C473.88 299.202 474.536 298.138 474.934 296.969C475.234 298.084 475.778 299.118 476.527 299.997C477.276 300.875 478.211 301.576 479.264 302.049C484.264 304.049 487.364 302.169 488.944 300.579C489.324 300.129 489.014 299.289 488.424 299.369Z" fill="black"/>
<path fill-rule="evenodd" clip-rule="evenodd" d="M361.812 818.406C372.152 814.595 382.727 811.456 393.472 809.006C394.645 801.766 395.818 794.516 396.992 787.256L427.442 787.626L433.752 806.196L442.862 834.676C443.258 835.913 443.355 837.227 443.144 838.509C442.932 839.791 442.419 841.004 441.646 842.048C440.874 843.093 439.863 843.938 438.699 844.515C437.535 845.092 436.251 845.383 434.952 845.366L350.322 844.366C348.789 844.354 347.283 843.959 345.942 843.218C344.6 842.476 343.465 841.412 342.638 840.121C341.812 838.83 341.321 837.353 341.21 835.824C341.099 834.295 341.371 832.763 342.002 831.366L342.072 831.226C344.722 825.766 349.812 822.846 361.812 818.406ZM472.961 835.606C474.621 827.319 476.321 818.986 478.061 810.606C479.561 803.406 481.075 796.233 482.601 789.086H513.001L519.531 807.576C522.678 817.029 525.831 826.486 528.991 835.946C529.407 837.79 529.275 839.716 528.611 841.486V841.586C528.092 842.852 527.201 843.931 526.058 844.682C524.914 845.434 523.57 845.822 522.201 845.796L479.611 845.506C478.01 845.511 476.457 844.953 475.225 843.929C473.993 842.906 473.16 841.482 472.871 839.906V839.826C472.654 838.425 472.685 836.996 472.961 835.606Z" fill="#FFCD88"/>
<path d="M393.472 809.006L393.638 809.737C393.936 809.669 394.163 809.427 394.212 809.126L393.472 809.006ZM361.812 818.406L361.552 817.702H361.551L361.812 818.406ZM396.992 787.256L397.001 786.506C396.629 786.501 396.311 786.769 396.251 787.136L396.992 787.256ZM427.442 787.626L428.152 787.385C428.049 787.084 427.769 786.88 427.451 786.876L427.442 787.626ZM433.752 806.196L434.466 805.967L434.462 805.955L433.752 806.196ZM442.862 834.676L442.147 834.904V834.905L442.862 834.676ZM434.952 845.366L434.962 844.616H434.96L434.952 845.366ZM350.322 844.366L350.33 843.616H350.328L350.322 844.366ZM345.942 843.218L345.579 843.874L345.942 843.218ZM342.638 840.121L342.007 840.525L342.638 840.121ZM341.21 835.824L341.958 835.77L341.21 835.824ZM342.002 831.366L341.331 831.03C341.326 831.039 341.322 831.048 341.318 831.057L342.002 831.366ZM342.072 831.226L342.743 831.561L342.746 831.553L342.072 831.226ZM478.061 810.606L477.327 810.453L478.061 810.606ZM472.961 835.606L472.226 835.459V835.46L472.961 835.606ZM482.601 789.086V788.336C482.248 788.336 481.942 788.583 481.868 788.929L482.601 789.086ZM513.001 789.086L513.709 788.836C513.603 788.536 513.319 788.336 513.001 788.336V789.086ZM519.531 807.576L520.243 807.339L520.239 807.326L519.531 807.576ZM528.991 835.946L529.723 835.781C529.717 835.756 529.711 835.732 529.703 835.708L528.991 835.946ZM528.611 841.486L527.909 841.223C527.878 841.307 527.861 841.396 527.861 841.486H528.611ZM528.611 841.586L529.305 841.871C529.342 841.78 529.361 841.684 529.361 841.586H528.611ZM522.201 845.796L522.216 845.046H522.206L522.201 845.796ZM479.611 845.506L479.617 844.756H479.609L479.611 845.506ZM475.225 843.929L475.704 843.352L475.225 843.929ZM472.871 839.906H472.121C472.121 839.951 472.126 839.996 472.134 840.041L472.871 839.906ZM472.871 839.826H473.621C473.621 839.787 473.618 839.749 473.613 839.711L472.871 839.826ZM393.305 808.275C382.529 810.731 371.923 813.88 361.552 817.702L362.071 819.11C372.381 815.31 382.925 812.18 393.638 809.737L393.305 808.275ZM396.251 787.136C395.078 794.396 393.905 801.646 392.731 808.886L394.212 809.126C395.385 801.886 396.559 794.636 397.732 787.376L396.251 787.136ZM427.451 786.876L397.001 786.506L396.983 788.006L427.433 788.376L427.451 786.876ZM434.462 805.955L428.152 787.385L426.732 787.867L433.042 806.437L434.462 805.955ZM443.576 834.447L434.466 805.967L433.037 806.424L442.147 834.904L443.576 834.447ZM443.884 838.631C444.114 837.231 444.009 835.797 443.576 834.447L442.147 834.905C442.508 836.029 442.596 837.222 442.404 838.387L443.884 838.631ZM442.249 842.494C443.093 841.354 443.653 840.03 443.884 838.631L442.404 838.387C442.212 839.551 441.746 840.653 441.044 841.602L442.249 842.494ZM439.032 845.187C440.303 844.557 441.406 843.634 442.249 842.494L441.044 841.602C440.342 842.551 439.424 843.319 438.366 843.843L439.032 845.187ZM434.941 846.116C436.359 846.135 437.762 845.817 439.032 845.187L438.366 843.843C437.309 844.367 436.142 844.632 434.962 844.616L434.941 846.116ZM350.313 845.116L434.943 846.116L434.96 844.616L350.33 843.616L350.313 845.116ZM345.579 843.874C347.03 844.676 348.658 845.103 350.316 845.116L350.328 843.616C348.92 843.605 347.537 843.242 346.304 842.561L345.579 843.874ZM342.007 840.525C342.9 841.921 344.128 843.072 345.579 843.874L346.304 842.561C345.072 841.88 344.029 840.902 343.27 839.717L342.007 840.525ZM340.462 835.878C340.582 837.532 341.113 839.129 342.007 840.525L343.27 839.717C342.511 838.531 342.06 837.174 341.958 835.77L340.462 835.878ZM341.318 831.057C340.636 832.568 340.342 834.225 340.462 835.878L341.958 835.77C341.856 834.365 342.106 832.958 342.685 831.674L341.318 831.057ZM341.401 830.89L341.331 831.03L342.672 831.701L342.742 831.561L341.401 830.89ZM361.551 817.702C349.58 822.132 344.195 825.134 341.397 830.898L342.746 831.553C345.249 826.398 350.044 823.56 362.072 819.109L361.551 817.702ZM477.327 810.453C475.587 818.835 473.886 827.17 472.226 835.459L473.697 835.753C475.356 827.468 477.056 819.137 478.796 810.758L477.327 810.453ZM481.868 788.929C480.341 796.077 478.827 803.252 477.327 810.453L478.796 810.759C480.295 803.56 481.808 796.388 483.335 789.243L481.868 788.929ZM513.001 788.336H482.601V789.836H513.001V788.336ZM520.239 807.326L513.709 788.836L512.294 789.336L518.824 807.826L520.239 807.326ZM529.703 835.708C526.543 826.249 523.39 816.792 520.243 807.339L518.82 807.813C521.967 817.266 525.12 826.723 528.28 836.184L529.703 835.708ZM529.314 841.749C530.029 839.842 530.171 837.768 529.723 835.781L528.26 836.111C528.644 837.813 528.522 839.589 527.909 841.223L529.314 841.749ZM529.361 841.586V841.486H527.861V841.586H529.361ZM526.469 845.309C527.74 844.475 528.728 843.277 529.305 841.871L527.918 841.301C527.455 842.427 526.663 843.387 525.646 844.056L526.469 845.309ZM522.187 846.546C523.707 846.575 525.199 846.144 526.469 845.309L525.646 844.056C524.628 844.724 523.433 845.069 522.216 845.046L522.187 846.546ZM479.606 846.256L522.196 846.546L522.206 845.046L479.617 844.756L479.606 846.256ZM474.746 844.506C476.113 845.642 477.836 846.262 479.614 846.256L479.609 844.756C478.183 844.76 476.801 844.264 475.704 843.352L474.746 844.506ZM472.134 840.041C472.454 841.79 473.378 843.37 474.746 844.506L475.704 843.352C474.607 842.441 473.866 841.173 473.609 839.771L472.134 840.041ZM472.121 839.826V839.906H473.621V839.826H472.121ZM472.226 835.46C471.932 836.936 471.9 838.453 472.13 839.941L473.613 839.711C473.409 838.397 473.438 837.057 473.697 835.752L472.226 835.46Z" fill="black"/>
<path fill-rule="evenodd" clip-rule="evenodd" d="M400.461 811.176C414.421 814.576 426.871 812.086 434.951 809.506L427.431 787.656L396.981 787.286L393.461 809.006C395.745 809.879 398.083 810.604 400.461 811.176ZM485.652 812.616C500.173 816.196 513.013 812.586 520.283 809.756C517.783 802.502 515.286 795.239 512.792 787.966L481.902 788.766L478.062 810.096C480.522 811.134 483.06 811.977 485.652 812.616Z" fill="white"/>
<path d="M434.951 809.506L435.179 810.22C435.371 810.159 435.531 810.023 435.621 809.842C435.712 809.662 435.726 809.453 435.66 809.262L434.951 809.506ZM400.461 811.176L400.638 810.447H400.636L400.461 811.176ZM427.431 787.656L428.14 787.412C428.037 787.112 427.757 786.91 427.44 786.906L427.431 787.656ZM396.981 787.286L396.99 786.536C396.619 786.531 396.3 786.799 396.241 787.166L396.981 787.286ZM393.461 809.006L392.721 808.886C392.664 809.237 392.861 809.58 393.193 809.706L393.461 809.006ZM520.283 809.756L520.555 810.455C520.93 810.309 521.123 809.892 520.992 809.511L520.283 809.756ZM485.652 812.616L485.832 811.888L485.652 812.616ZM512.792 787.966L513.502 787.723C513.396 787.413 513.101 787.208 512.773 787.216L512.792 787.966ZM481.902 788.766L481.883 788.016C481.528 788.025 481.227 788.283 481.164 788.633L481.902 788.766ZM478.062 810.096L477.324 809.963C477.262 810.308 477.448 810.65 477.771 810.787L478.062 810.096ZM434.723 808.791C426.716 811.348 414.416 813.803 400.638 810.447L400.283 811.905C414.426 815.349 427.025 812.824 435.179 810.22L434.723 808.791ZM426.722 787.9L434.242 809.75L435.66 809.262L428.14 787.412L426.722 787.9ZM396.972 788.036L427.422 788.406L427.44 786.906L396.99 786.536L396.972 788.036ZM394.201 809.126L397.721 787.406L396.241 787.166L392.721 808.886L394.201 809.126ZM400.636 810.447C398.29 809.882 395.983 809.167 393.729 808.305L393.193 809.706C395.508 810.591 397.877 811.325 400.285 811.905L400.636 810.447ZM520.01 809.057C512.808 811.861 500.138 815.415 485.832 811.888L485.473 813.344C500.207 816.977 513.217 813.311 520.555 810.455L520.01 809.057ZM512.083 788.209C514.576 795.483 517.073 802.746 519.573 810L520.992 809.511C518.492 802.258 515.995 794.996 513.502 787.723L512.083 788.209ZM481.922 789.516L512.812 788.716L512.773 787.216L481.883 788.016L481.922 789.516ZM478.801 810.229L482.641 788.899L481.164 788.633L477.324 809.963L478.801 810.229ZM485.832 811.888C483.278 811.258 480.778 810.428 478.354 809.405L477.771 810.787C480.267 811.84 482.842 812.695 485.473 813.344L485.832 811.888Z" fill="black"/>
<path d="M437.862 821.566C437.862 821.566 419.482 822.076 419.482 841.226" stroke="black" stroke-width="1.5" stroke-linecap="round" stroke-linejoin="round"/>
<path d="M439.092 529.606L469.552 797.196C477.924 800.987 487.008 802.948 496.197 802.948C505.387 802.948 514.471 800.987 522.842 797.196C521.036 695.196 519.222 593.196 517.402 491.196C496.216 494.837 474.719 496.347 453.232 495.706C432.358 495.09 411.594 492.444 391.232 487.806L439.092 529.606Z" fill="black" stroke="black" stroke-width="1.5" stroke-linecap="round" stroke-linejoin="round"/>
<path d="M343.172 840.106L441.462 841.296" stroke="black" stroke-width="1.5" stroke-linecap="round" stroke-linejoin="round"/>
<path d="M472.621 840.106L529.041 841.226" stroke="black" stroke-width="1.5" stroke-linecap="round" stroke-linejoin="round"/>
<path d="M391.942 500.136C390.462 511.766 388.532 528.506 386.942 548.776C386.942 548.776 385.602 565.996 384.782 584.906C383.452 615.466 383.782 693.566 387.342 797.466C394.895 801.451 403.298 803.558 411.838 803.606C420.378 803.655 428.804 801.645 436.402 797.746C446.042 699.806 455.679 601.872 465.312 503.946L391.942 500.136Z" fill="black"/>
<path d="M396.531 547.626C394.221 585.446 392.701 624.976 392.201 666.086C391.631 713.386 392.471 756.646 394.361 799.676" stroke="white" stroke-width="1.5" stroke-linecap="round" stroke-linejoin="round"/>
<path d="M482.682 535.346C483.902 574.459 485.658 614.409 487.952 655.196C490.578 701.429 493.802 758.516 497.622 802.456" stroke="white" stroke-width="1.5" stroke-linecap="round" stroke-linejoin="round"/>
<path d="M451.511 646.626C446.061 602.886 445.381 588.816 439.941 545.076L428.191 533.326" stroke="white" stroke-width="1.5" stroke-linecap="round" stroke-linejoin="round"/>
<path d="M517.621 564.476H504.621C499.419 564.474 494.412 562.495 490.614 558.939C486.817 555.383 484.514 550.517 484.171 545.326L483.121 537.246" stroke="white" stroke-width="1.5" stroke-linecap="round" stroke-linejoin="round"/>
<path d="M394.571 809.326L376.461 797.426C376.041 797.15 375.563 796.974 375.064 796.911C374.564 796.847 374.058 796.899 373.581 797.061C373.105 797.223 372.672 797.491 372.315 797.845C371.958 798.2 371.687 798.631 371.521 799.106C371.372 799.531 371.311 799.982 371.342 800.431C371.373 800.88 371.496 801.318 371.703 801.718C371.91 802.118 372.197 802.472 372.546 802.757C372.895 803.042 373.298 803.252 373.731 803.376L394.571 809.326Z" stroke="black" stroke-width="1.5" stroke-linecap="round" stroke-linejoin="round"/>
<path d="M394.002 809.316L377.002 817.316C376.607 817.502 376.261 817.775 375.988 818.115C375.715 818.455 375.523 818.852 375.427 819.277C375.33 819.702 375.332 820.144 375.431 820.568C375.531 820.992 375.726 821.388 376.002 821.726C376.248 822.029 376.554 822.279 376.9 822.46C377.247 822.641 377.627 822.748 378.017 822.776C378.406 822.804 378.798 822.752 379.167 822.623C379.536 822.494 379.874 822.291 380.161 822.026L394.002 809.316Z" stroke="black" stroke-width="1.5" stroke-linecap="round" stroke-linejoin="round"/>
<path d="M287.682 355.076L298.172 374.586L330.242 355.246C329.036 353.665 328.103 351.894 327.482 350.006C326.112 345.816 326.892 342.886 326.652 338.386C326.532 336.216 321.962 324.096 320.722 320.476C320.388 319.527 319.956 318.615 319.432 317.756L310.552 303.006C309.222 300.816 306.062 300.226 303.392 301.736L303.102 301.906C302.231 302.471 301.455 303.169 300.802 303.976C296.622 297.143 292.445 290.316 288.272 283.496C286.872 281.226 283.622 280.496 280.802 281.976L280.312 282.256L279.902 282.526C277.322 284.336 276.502 287.526 277.902 289.786L295.902 319.656C293.81 319.704 291.778 320.369 290.062 321.566C288.754 322.477 287.676 323.678 286.912 325.076C285.159 324.978 283.424 325.46 281.972 326.446C280.755 327.261 279.792 328.401 279.192 329.736C277.341 329.997 275.575 330.681 274.032 331.736C273.139 332.241 272.474 333.069 272.175 334.05C271.875 335.03 271.963 336.089 272.422 337.006L282.812 354.226L287.682 355.076Z" fill="#F7CCB9" stroke="black" stroke-width="1.5" stroke-linecap="round" stroke-linejoin="round"/>
<path d="M308.271 335.636C307.565 334.44 307.129 333.104 306.994 331.722C306.859 330.34 307.029 328.945 307.491 327.636C308.289 325.4 309.67 323.418 311.491 321.896" fill="#F7CCB9"/>
<path d="M308.271 335.636C307.565 334.44 307.129 333.104 306.994 331.722C306.859 330.34 307.029 328.945 307.491 327.636C308.289 325.4 309.67 323.418 311.491 321.896" stroke="black" stroke-width="1.5" stroke-linecap="round" stroke-linejoin="round"/>
<path d="M309.482 323.376L300.792 309.006C300.365 308.242 300.141 307.381 300.141 306.506C300.141 305.631 300.365 304.77 300.792 304.006" fill="#F7CCB9"/>
<path d="M309.482 323.376L300.792 309.006C300.365 308.242 300.141 307.381 300.141 306.506C300.141 305.631 300.365 304.77 300.792 304.006" stroke="black" stroke-width="1.5" stroke-linecap="round" stroke-linejoin="round"/>
<path d="M295.033 320.566L306.973 340.676C307.3 341.382 307.34 342.188 307.084 342.923C306.829 343.658 306.297 344.265 305.603 344.616L302.773 346.326C302.135 346.78 301.346 346.968 300.572 346.848C299.799 346.729 299.103 346.312 298.633 345.686L287.503 327.226L286.893 325.046" fill="#F7CCB9"/>
<path d="M295.033 320.566L306.973 340.676C307.3 341.382 307.34 342.188 307.084 342.923C306.829 343.658 306.297 344.265 305.603 344.616L302.773 346.326C302.135 346.78 301.346 346.968 300.572 346.848C299.799 346.729 299.103 346.312 298.633 345.686L287.503 327.226L286.893 325.046" stroke="black" stroke-width="1.5" stroke-linecap="round" stroke-linejoin="round"/>
<path d="M279.171 329.706C278.987 330.431 279.057 331.197 279.371 331.876C279.781 332.696 287.471 344.956 290.721 350.126C291.196 350.755 291.9 351.172 292.681 351.286C293.461 351.401 294.255 351.203 294.891 350.736L297.101 349.406C297.755 349.067 298.268 348.508 298.548 347.826C298.828 347.145 298.858 346.387 298.631 345.686" fill="#F7CCB9"/>
<path d="M279.171 329.706C278.987 330.431 279.057 331.197 279.371 331.876C279.781 332.696 287.471 344.956 290.721 350.126C291.196 350.755 291.9 351.172 292.681 351.286C293.461 351.401 294.255 351.203 294.891 350.736L297.101 349.406C297.755 349.067 298.268 348.508 298.548 347.826C298.828 347.145 298.858 346.387 298.631 345.686" stroke="black" stroke-width="1.5" stroke-linecap="round" stroke-linejoin="round"/>
<path d="M287.682 355.076C288.816 354.812 289.817 354.148 290.502 353.206C290.849 352.724 291.067 352.162 291.137 351.573C291.207 350.983 291.126 350.385 290.902 349.836" fill="#F7CCB9"/>
<path d="M287.682 355.076C288.816 354.812 289.817 354.148 290.502 353.206C290.849 352.724 291.067 352.162 291.137 351.573C291.207 350.983 291.126 350.385 290.902 349.836" stroke="black" stroke-width="1.5" stroke-linecap="round" stroke-linejoin="round"/>
<path d="M506.592 505.296L556.732 504.726C559.252 504.636 561.132 507.466 561.032 509.726C560.982 510.259 560.827 510.776 560.575 511.249C560.324 511.721 559.982 512.139 559.568 512.479C559.154 512.818 558.677 513.072 558.165 513.226C557.652 513.38 557.114 513.431 556.582 513.376C550.392 513.376 544.192 513.786 538.002 513.746V530.346C538.365 531.074 538.883 531.715 539.521 532.221C540.159 532.727 540.9 533.087 541.692 533.276L542.132 533.356C543.316 533.531 544.521 533.229 545.482 532.516C546.444 531.804 547.084 530.739 547.262 529.556L547.772 525.616C547.816 524.787 548.183 524.009 548.794 523.448C549.406 522.887 550.213 522.588 551.042 522.616C552.121 522.565 553.184 522.898 554.042 523.556C554.632 524.066 555.352 525.066 555.142 529.466C555.028 531.711 554.72 533.943 554.222 536.136L558.292 533.986C559.08 533.572 559.964 533.372 560.854 533.407C561.743 533.443 562.608 533.711 563.362 534.186C563.544 534.29 563.704 534.429 563.832 534.596C564.338 535.26 564.647 536.054 564.722 536.886C564.773 537.534 564.641 538.184 564.341 538.76C564.04 539.337 563.583 539.817 563.022 540.146C559.574 542.288 555.881 544.007 552.022 545.266C549.158 546.305 546.201 547.065 543.192 547.536L555.322 548.216C556.618 548.266 557.845 548.818 558.742 549.756C559.122 550.149 559.409 550.623 559.583 551.142C559.756 551.661 559.81 552.213 559.742 552.756C559.681 553.39 559.476 554.003 559.142 554.546C558.7 555.225 558.081 555.771 557.351 556.123C556.621 556.476 555.809 556.622 555.002 556.546L533.272 555.196L545.352 560.036C546.288 560.38 547.067 561.056 547.54 561.934C548.013 562.813 548.149 563.834 547.922 564.806V564.866C547.679 565.781 547.231 566.629 546.612 567.346C545.909 568.117 544.97 568.633 543.942 568.814C542.915 568.995 541.856 568.83 540.932 568.346L529.522 562.546C519.842 557.616 522.5 560.506 519.5 556.546C517.47 553.828 524.5 533.276 507.822 541.946L506.592 505.296Z" fill="#F7CCB9" stroke="black" stroke-width="1.5" stroke-linecap="round" stroke-linejoin="round"/>
<path d="M554.221 536.066C552.694 537.902 550.753 539.351 548.558 540.293C546.364 541.236 543.977 541.646 541.594 541.49C539.21 541.334 536.898 540.616 534.845 539.396C532.792 538.175 531.057 536.485 529.781 534.466" fill="#F7CCB9"/>
<path d="M554.221 536.066C552.694 537.902 550.753 539.351 548.558 540.293C546.364 541.236 543.977 541.646 541.594 541.49C539.21 541.334 536.898 540.616 534.845 539.396C532.792 538.175 531.057 536.485 529.781 534.466" stroke="black" stroke-width="1.5" stroke-linecap="round" stroke-linejoin="round"/>
<path d="M524.482 540.826C526.02 543.046 528.081 544.852 530.482 546.086C534.42 548.019 538.911 548.508 543.172 547.466" fill="#F7CCB9"/>
<path d="M524.482 540.826C526.02 543.046 528.081 544.852 530.482 546.086C534.42 548.019 538.911 548.508 543.172 547.466" stroke="black" stroke-width="1.5" stroke-linecap="round" stroke-linejoin="round"/>
<path d="M518.861 548.336C520.58 549.747 522.44 550.977 524.411 552.006C527.189 553.446 530.154 554.49 533.221 555.106" fill="#F7CCB9"/>
<path d="M518.861 548.336C520.58 549.747 522.44 550.977 524.411 552.006C527.189 553.446 530.154 554.49 533.221 555.106" stroke="black" stroke-width="1.5" stroke-linecap="round" stroke-linejoin="round"/>
<path d="M290.682 374.186C292.015 379.966 293.378 385.753 294.772 391.546L332.952 358.166L333.572 344.566L290.682 374.186Z" fill="white" stroke="black" stroke-width="1.5" stroke-linecap="round" stroke-linejoin="round"/>
<path d="M417.431 362.346C415.091 361.116 406.131 366.256 404.631 367.026C402.811 367.966 402.191 369.306 401.521 369.026C399.021 367.966 406.741 351.666 402.471 348.026C398.711 344.846 386.341 352.096 378.281 359.216C370.971 365.676 355.861 382.076 352.811 417.446C347.084 396.986 341.358 376.532 335.631 356.086L290.631 382.326C291.861 387.696 300.561 425.226 310.631 450.466C312.811 455.916 316.061 463.466 323.361 470.276C327.847 474.405 333.036 477.7 338.681 480.006C343.93 481.413 349.426 481.635 354.771 480.656C369.971 477.656 378.161 464.206 387.981 444.146C416.341 382.006 420.811 364.106 417.431 362.346Z" fill="#AD85AD" stroke="black" stroke-width="1.5" stroke-linecap="round" stroke-linejoin="round"/>
<path d="M351.682 414.286L356.482 429.606" stroke="black" stroke-width="1.5" stroke-linecap="round" stroke-linejoin="round"/>
<path d="M518.151 430.516L478.151 349.936C469.39 350.575 460.583 349.973 451.991 348.146C437.451 345.046 429 342.001 427.5 342C415.32 343.55 407.661 354.076 399.131 354.016C398.391 354.016 395.821 353.916 394.041 355.586C392.743 357.003 392.06 358.876 392.141 360.796C393.088 365.116 393.965 369.516 394.771 373.996C402.871 419.296 400.771 461.646 393.951 498.846C421.427 510.825 452.063 513.504 481.201 506.476L520.041 504.476C519.408 479.842 518.778 455.189 518.151 430.516Z" fill="white" stroke="black" stroke-width="1.5" stroke-linecap="round" stroke-linejoin="round"/>
<path d="M462.191 359.186L455.681 366.516C457.341 396.416 459.007 426.319 460.681 456.226C460.742 457.273 460.499 458.315 459.981 459.226L447.041 482.006L434.921 457.316C434.439 456.341 434.261 455.243 434.411 454.166C438.411 424.646 442.437 395.126 446.491 365.606L439.971 358.256C443.471 354.469 446.964 350.676 450.451 346.876C454.371 350.963 458.284 355.066 462.191 359.186Z" fill="black"/>
<path fill-rule="evenodd" clip-rule="evenodd" d="M421.902 343.296L428 341.5C428 341.5 446.796 345.636 451 347.5C450.7 347.63 442.612 355.416 441.812 361.306C441.533 363.384 441.881 365.498 442.812 367.376C442.934 367.626 442.978 367.907 442.939 368.182C442.901 368.457 442.781 368.715 442.595 368.922C442.41 369.129 442.167 369.276 441.897 369.344C441.628 369.413 441.344 369.399 441.082 369.306C435.195 367.234 430.128 363.329 426.622 358.166C423.711 353.738 422.078 348.592 421.902 343.296ZM477.083 348.07C477.053 347.534 477.024 347.009 477.001 346.5C464.294 346.714 452.991 347.786 452.991 347.786C452.752 348.92 452.871 349.036 454.777 350.895C455.415 351.516 456.251 352.332 457.341 353.446C459.522 356.477 460.618 360.155 460.451 363.886C460.376 365.287 460.117 366.672 459.681 368.006C459.582 368.322 459.572 368.66 459.655 368.981C459.737 369.303 459.907 369.595 460.146 369.824C460.385 370.054 460.684 370.213 461.008 370.282C461.332 370.351 461.669 370.328 461.981 370.216C465.901 368.736 471.571 365.746 475.341 360.216C477.58 356.994 477.313 352.199 477.083 348.07Z" fill="white"/>
<path d="M428 341.5L428.161 340.768C428.038 340.741 427.909 340.745 427.788 340.781L428 341.5ZM421.902 343.296L421.69 342.576C421.363 342.673 421.141 342.979 421.153 343.321L421.902 343.296ZM451 347.5L451.298 348.188C451.571 348.07 451.749 347.801 451.75 347.503C451.751 347.205 451.576 346.935 451.304 346.814L451 347.5ZM441.812 361.306L441.069 361.205V361.206L441.812 361.306ZM442.812 367.376L443.487 367.048L443.484 367.043L442.812 367.376ZM441.082 369.306L441.334 368.599L441.331 368.598L441.082 369.306ZM426.622 358.166L425.996 358.578L426.002 358.587L426.622 358.166ZM477.001 346.5L477.75 346.466C477.732 346.061 477.394 345.744 476.988 345.75L477.001 346.5ZM477.083 348.07L476.334 348.111L477.083 348.07ZM452.991 347.786L452.921 347.039C452.594 347.07 452.326 347.31 452.258 347.631L452.991 347.786ZM454.777 350.895L455.301 350.358L454.777 350.895ZM457.341 353.446L457.95 353.008C457.928 352.977 457.904 352.948 457.877 352.921L457.341 353.446ZM460.451 363.886L461.2 363.926L461.201 363.919L460.451 363.886ZM459.681 368.006L458.968 367.773L458.966 367.78L459.681 368.006ZM459.655 368.981L458.928 369.167L459.655 368.981ZM460.146 369.824L459.626 370.365L460.146 369.824ZM461.981 370.216L462.235 370.922L462.246 370.918L461.981 370.216ZM475.341 360.216L474.726 359.788L474.722 359.793L475.341 360.216ZM427.788 340.781L421.69 342.576L422.114 344.015L428.212 342.22L427.788 340.781ZM451.304 346.814C450.194 346.322 448.179 345.701 445.832 345.053C443.468 344.4 440.716 343.706 438.1 343.072C435.484 342.438 432.999 341.862 431.169 341.444C430.254 341.236 429.503 341.067 428.979 340.95C428.718 340.891 428.514 340.846 428.374 340.815C428.305 340.8 428.252 340.788 428.216 340.78C428.198 340.776 428.184 340.773 428.175 340.771C428.171 340.77 428.167 340.769 428.165 340.769C428.164 340.768 428.163 340.768 428.162 340.768C428.162 340.768 428.162 340.768 428.161 340.768C428.161 340.768 428.161 340.768 428 341.5C427.839 342.233 427.839 342.233 427.839 342.233C427.839 342.233 427.839 342.233 427.84 342.233C427.84 342.233 427.841 342.233 427.842 342.233C427.844 342.234 427.848 342.235 427.852 342.236C427.861 342.238 427.875 342.241 427.892 342.245C427.928 342.252 427.981 342.264 428.05 342.279C428.188 342.31 428.392 342.355 428.652 342.414C429.173 342.53 429.923 342.699 430.836 342.907C432.661 343.323 435.139 343.898 437.747 344.53C440.355 345.163 443.09 345.852 445.433 346.499C447.793 347.151 449.703 347.745 450.696 348.186L451.304 346.814ZM442.556 361.407C442.738 360.067 443.344 358.57 444.197 357.049C445.046 355.536 446.116 354.041 447.179 352.711C448.242 351.384 449.29 350.232 450.089 349.405C450.489 348.992 450.825 348.662 451.066 348.435C451.188 348.321 451.282 348.235 451.347 348.179C451.38 348.151 451.4 348.134 451.409 348.127C451.446 348.098 451.39 348.148 451.298 348.188L450.702 346.812C450.591 346.86 450.501 346.933 450.49 346.942C450.451 346.972 450.409 347.007 450.366 347.044C450.279 347.119 450.168 347.221 450.038 347.343C449.776 347.589 449.424 347.935 449.011 348.362C448.185 349.216 447.105 350.403 446.008 351.774C444.912 353.144 443.791 354.708 442.889 356.315C441.992 357.915 441.287 359.6 441.069 361.205L442.556 361.407ZM443.484 367.043C442.619 365.298 442.296 363.335 442.556 361.406L441.069 361.206C440.77 363.432 441.143 365.697 442.14 367.709L443.484 367.043ZM443.682 368.286C443.741 367.863 443.674 367.432 443.487 367.048L442.138 367.703C442.194 367.82 442.215 367.95 442.197 368.078L443.682 368.286ZM443.154 369.422C443.439 369.104 443.623 368.709 443.682 368.286L442.197 368.078C442.179 368.205 442.123 368.325 442.037 368.421L443.154 369.422ZM442.082 370.071C442.496 369.966 442.869 369.74 443.154 369.422L442.037 368.421C441.951 368.517 441.838 368.586 441.713 368.617L442.082 370.071ZM440.83 370.012C441.232 370.156 441.668 370.176 442.082 370.071L441.713 368.617C441.588 368.649 441.456 368.643 441.334 368.599L440.83 370.012ZM426.002 358.587C429.597 363.883 434.795 367.888 440.833 370.013L441.331 368.598C435.596 366.58 430.658 362.776 427.243 357.745L426.002 358.587ZM421.153 343.321C421.333 348.755 423.008 354.035 425.996 358.578L427.249 357.754C424.413 353.441 422.823 348.43 422.652 343.271L421.153 343.321ZM476.252 346.534C476.275 347.047 476.304 347.576 476.334 348.111L477.832 348.028C477.802 347.491 477.773 346.97 477.75 346.466L476.252 346.534ZM452.991 347.786C453.062 348.533 453.062 348.533 453.062 348.533L453.063 348.532C453.063 348.532 453.063 348.532 453.064 348.532C453.065 348.532 453.067 348.532 453.07 348.532C453.075 348.531 453.083 348.531 453.094 348.53C453.116 348.528 453.148 348.525 453.19 348.521C453.275 348.513 453.402 348.501 453.568 348.486C453.901 348.457 454.39 348.414 455.018 348.362C456.273 348.259 458.079 348.118 460.281 347.971C464.687 347.677 470.676 347.357 477.013 347.25L476.988 345.75C470.619 345.857 464.603 346.179 460.181 346.475C457.97 346.622 456.156 346.763 454.894 346.868C454.264 346.92 453.771 346.962 453.435 346.992C453.268 347.007 453.139 347.019 453.053 347.027C453.009 347.031 452.977 347.034 452.954 347.036C452.943 347.037 452.935 347.038 452.929 347.038C452.927 347.039 452.924 347.039 452.923 347.039C452.922 347.039 452.922 347.039 452.921 347.039C452.921 347.039 452.921 347.039 452.991 347.786ZM455.301 350.358C454.82 349.889 454.467 349.545 454.204 349.268C453.937 348.987 453.799 348.813 453.725 348.687C453.665 348.585 453.653 348.526 453.651 348.462C453.647 348.364 453.665 348.226 453.725 347.941L452.258 347.631C452.198 347.913 452.141 348.214 452.152 348.516C452.164 348.85 452.256 349.15 452.434 349.45C452.598 349.728 452.832 350.002 453.117 350.301C453.404 350.604 453.781 350.971 454.254 351.432L455.301 350.358ZM457.877 352.921C456.781 351.801 455.939 350.98 455.301 350.358L454.254 351.432C454.89 352.052 455.722 352.863 456.805 353.97L457.877 352.921ZM461.201 363.919C461.375 360.02 460.23 356.176 457.95 353.008L456.733 353.884C458.815 356.778 459.861 360.29 459.702 363.852L461.201 363.919ZM460.394 368.239C460.85 366.843 461.121 365.393 461.2 363.926L459.703 363.845C459.63 365.181 459.384 366.502 458.968 367.773L460.394 368.239ZM460.381 368.796C460.334 368.61 460.339 368.414 460.397 368.231L458.966 367.78C458.824 368.23 458.811 368.71 458.928 369.167L460.381 368.796ZM460.666 369.284C460.527 369.151 460.429 368.982 460.381 368.796L458.928 369.167C459.044 369.624 459.286 370.039 459.626 370.365L460.666 369.284ZM461.164 369.548C460.977 369.508 460.804 369.417 460.666 369.284L459.626 370.365C459.966 370.692 460.39 370.917 460.851 371.015L461.164 369.548ZM461.728 369.51C461.547 369.575 461.352 369.588 461.164 369.548L460.851 371.015C461.312 371.114 461.792 371.081 462.235 370.922L461.728 369.51ZM474.722 359.793C471.074 365.144 465.566 368.061 461.717 369.514L462.246 370.918C466.237 369.411 472.069 366.348 475.961 360.638L474.722 359.793ZM476.334 348.111C476.45 350.186 476.57 352.363 476.391 354.418C476.212 356.473 475.739 358.329 474.726 359.788L475.957 360.644C477.182 358.88 477.695 356.728 477.885 354.548C478.075 352.368 477.946 350.083 477.832 348.028L476.334 348.111Z" fill="black"/>
<path d="M471.512 418.886L463.772 446.766C463.632 451.786 463.485 456.806 463.332 461.826C464.65 472.104 466.496 482.307 468.862 492.396C474.552 516.696 477.402 528.856 486.332 537.606C489.692 540.896 502.102 551.836 528.632 550.306C524.529 523.532 522.031 496.538 521.152 469.466C520.859 460.766 520.742 452.256 520.802 443.936L519.052 402.936V380.406L517.682 357.516L499.222 348.756C490.002 372.129 480.765 395.506 471.512 418.886Z" fill="#AD85AD" stroke="black" stroke-width="1.5" stroke-linecap="round" stroke-linejoin="round"/>
<path d="M500.102 404.126L533.932 452.006L516.232 484.006L526.402 536.526L580.262 469.716C584.5 464.424 586.957 457.927 587.283 451.154C587.608 444.382 585.784 437.68 582.072 432.006L581.932 431.796C572.792 418.038 562.205 405.299 550.352 393.796C547.581 384.891 543.228 376.557 537.502 369.196C531.388 361.392 523.758 354.905 515.072 350.126C508.642 346.598 501.324 345.017 494.012 345.576C486.932 346.086 480.75 344.716 476.5 345.576" fill="#AD85AD"/>
<path d="M500.102 404.126L533.932 452.006L516.232 484.006L526.402 536.526L580.262 469.716C584.5 464.424 586.957 457.927 587.283 451.154C587.608 444.382 585.784 437.68 582.072 432.006L581.932 431.796C572.792 418.038 562.205 405.299 550.352 393.796C547.581 384.891 543.228 376.557 537.502 369.196C531.388 361.392 523.758 354.905 515.072 350.126C508.642 346.598 501.324 345.017 494.012 345.576C486.932 346.086 480.75 344.716 476.5 345.576" stroke="black" stroke-width="1.5" stroke-linecap="round" stroke-linejoin="round"/>
<path d="M519.071 487.926L520.601 502.066L485.441 506.136L483.941 492.876L519.071 487.926Z" fill="#826482" stroke="black" stroke-width="1.5" stroke-linecap="round" stroke-linejoin="round"/>
<path d="M549.182 388.236L552.302 398.506L549.182 388.236Z" fill="white"/>
<path d="M549.182 388.236L552.302 398.506" stroke="black" stroke-width="1.5" stroke-linecap="round" stroke-linejoin="round"/>
<path d="M384.361 356.306C395.016 346.397 409.136 341.068 423.681 341.466C420.025 366.021 420.525 391.017 425.161 415.406C427.268 426.413 430.22 437.242 433.991 447.796C433.681 451.206 433.381 454.616 433.071 458.026C432.651 465.386 431.831 476.026 430.071 488.766C426.711 513.256 425.071 525.506 418.601 534.566C416.171 537.976 407.181 549.356 386.971 548.776C388.881 523.776 389.891 496.636 389.461 467.776C389.335 459.109 389.085 450.603 388.711 442.256C387.898 426.109 387.085 409.956 386.271 393.796" fill="#AD85AD"/>
<path d="M384.361 356.306C395.016 346.397 409.136 341.068 423.681 341.466C420.025 366.021 420.525 391.017 425.161 415.406C427.268 426.413 430.22 437.242 433.991 447.796C433.681 451.206 433.381 454.616 433.071 458.026C432.651 465.386 431.831 476.026 430.071 488.766C426.711 513.256 425.071 525.506 418.601 534.566C416.171 537.976 407.181 549.356 386.971 548.776C388.881 523.776 389.891 496.636 389.461 467.776C389.335 459.109 389.085 450.603 388.711 442.256C387.898 426.109 387.085 409.956 386.271 393.796" stroke="black" stroke-width="1.5" stroke-linecap="round" stroke-linejoin="round"/>
<path fill-rule="evenodd" clip-rule="evenodd" d="M422.941 343.006C424.601 342.459 426.181 341.893 427.681 341.306C427.915 354.593 428.311 368.089 428.871 381.796C429.831 404.489 431.141 426.559 432.801 448.006C428.498 428.009 423.104 408.263 416.641 388.856C413.275 378.823 409.791 369.246 406.191 360.126L416.051 356.006L410.941 345.956C415.009 345.274 419.021 344.288 422.941 343.006ZM481.352 348.846C479.745 348.173 478.215 347.483 476.762 346.776C475.475 359.996 474.019 373.423 472.392 387.056C469.685 409.609 466.665 431.509 463.332 452.756C469.18 433.153 476.093 413.885 484.042 395.036C488.152 385.296 492.392 376.016 496.692 367.216L487.182 362.336L493.072 352.706C489.075 351.713 485.157 350.422 481.352 348.846Z" fill="#826482"/>
<path d="M427.681 341.306L428.431 341.293C428.427 341.047 428.303 340.819 428.099 340.683C427.895 340.546 427.637 340.518 427.408 340.607L427.681 341.306ZM422.941 343.006L423.174 343.719L423.176 343.718L422.941 343.006ZM428.871 381.796L428.122 381.827V381.828L428.871 381.796ZM432.801 448.006L432.068 448.164C432.151 448.549 432.519 448.805 432.909 448.748C433.3 448.691 433.58 448.341 433.549 447.948L432.801 448.006ZM416.641 388.856L417.353 388.619L417.352 388.617L416.641 388.856ZM406.191 360.126L405.902 359.434C405.525 359.591 405.344 360.021 405.494 360.401L406.191 360.126ZM416.051 356.006L416.341 356.698C416.533 356.617 416.683 356.461 416.755 356.265C416.827 356.069 416.815 355.852 416.72 355.666L416.051 356.006ZM410.941 345.956L410.817 345.216C410.582 345.256 410.379 345.405 410.272 345.618C410.164 345.831 410.165 346.083 410.273 346.296L410.941 345.956ZM476.762 346.776L477.09 346.101C476.869 345.994 476.61 346.002 476.396 346.122C476.181 346.242 476.039 346.459 476.016 346.703L476.762 346.776ZM481.352 348.846L481.062 349.538L481.065 349.539L481.352 348.846ZM472.392 387.056L473.137 387.145L472.392 387.056ZM463.332 452.756L462.591 452.64C462.53 453.03 462.781 453.4 463.166 453.487C463.551 453.575 463.938 453.348 464.051 452.97L463.332 452.756ZM484.042 395.036L483.351 394.744L484.042 395.036ZM496.692 367.216L497.366 367.545C497.545 367.178 497.398 366.735 497.034 366.549L496.692 367.216ZM487.182 362.336L486.542 361.945C486.433 362.123 486.404 362.338 486.46 362.539C486.516 362.74 486.654 362.908 486.84 363.003L487.182 362.336ZM493.072 352.706L493.712 353.097C493.837 352.893 493.857 352.642 493.766 352.421C493.675 352.2 493.485 352.036 493.253 351.978L493.072 352.706ZM427.408 340.607C425.922 341.189 424.355 341.751 422.707 342.294L423.176 343.718C424.848 343.168 426.441 342.596 427.955 342.004L427.408 340.607ZM429.621 381.765C429.061 368.064 428.665 354.573 428.431 341.293L426.932 341.319C427.165 354.612 427.562 368.114 428.122 381.827L429.621 381.765ZM433.549 447.948C431.89 426.511 430.58 404.449 429.621 381.764L428.122 381.828C429.082 404.529 430.393 426.608 432.054 448.064L433.549 447.948ZM415.93 389.093C422.383 408.474 427.771 428.194 432.068 448.164L433.535 447.848C429.226 427.825 423.824 408.052 417.353 388.619L415.93 389.093ZM405.494 360.401C409.089 369.508 412.568 379.073 415.93 389.094L417.352 388.617C413.982 378.573 410.494 368.984 406.889 359.851L405.494 360.401ZM415.762 355.314L405.902 359.434L406.481 360.818L416.341 356.698L415.762 355.314ZM410.273 346.296L415.383 356.346L416.72 355.666L411.61 345.616L410.273 346.296ZM422.708 342.293C418.823 343.563 414.848 344.54 410.817 345.216L411.065 346.696C415.17 346.007 419.218 345.012 423.174 343.719L422.708 342.293ZM476.434 347.45C477.901 348.164 479.444 348.859 481.062 349.538L481.642 348.154C480.047 347.486 478.53 346.802 477.09 346.101L476.434 347.45ZM473.137 387.145C474.764 373.506 476.221 360.074 477.508 346.849L476.016 346.703C474.729 359.918 473.273 373.339 471.647 386.967L473.137 387.145ZM464.073 452.872C467.408 431.616 470.429 409.707 473.137 387.145L471.647 386.967C468.942 409.511 465.923 431.402 462.591 452.64L464.073 452.872ZM483.351 394.744C475.391 413.618 468.469 432.913 462.613 452.541L464.051 452.97C469.89 433.394 476.795 414.151 484.733 395.327L483.351 394.744ZM496.018 366.887C491.712 375.699 487.467 384.991 483.351 394.744L484.733 395.327C488.838 385.6 493.072 376.333 497.366 367.545L496.018 366.887ZM486.84 363.003L496.35 367.883L497.034 366.549L487.524 361.669L486.84 363.003ZM492.432 352.315L486.542 361.945L487.822 362.727L493.712 353.097L492.432 352.315ZM481.065 349.539C484.905 351.13 488.858 352.432 492.891 353.434L493.253 351.978C489.292 350.994 485.41 349.715 481.639 348.153L481.065 349.539Z" fill="black"/>
<path d="M506.121 410.566C506.121 410.746 506.121 410.916 506.121 411.096C506.701 425.906 511.121 442.506 522.121 460.426L519.571 430.656L506.121 410.566Z" fill="black"/>
<path d="M820.41 398.709L783.36 398.789C780.994 419.555 778.617 440.329 776.23 461.109L733.23 454.649C728.972 454.039 724.905 452.486 721.325 450.102C717.745 447.717 714.744 444.563 712.54 440.869L712.43 440.689C710.589 437.512 709.167 434.111 708.2 430.569L709.68 422.339C709.901 421.306 709.84 420.233 709.504 419.232C709.168 418.231 708.569 417.339 707.77 416.649C707.05 416.096 706.192 415.751 705.29 415.649C704.879 415.594 704.462 415.594 704.05 415.649C702.859 415.872 701.768 416.465 700.932 417.342C700.095 418.22 699.556 419.338 699.39 420.539L697.47 431.249C697.235 432.752 697.259 434.284 697.54 435.779C697.709 436.718 697.988 437.634 698.37 438.509L674.29 434.179C669.54 433.329 664.94 437.029 664.35 442.279V442.399C664.107 444.128 664.325 445.89 664.98 447.509C664.215 447.901 663.543 448.453 663.01 449.128C662.477 449.802 662.095 450.584 661.89 451.419C661.69 452.246 661.661 453.106 661.805 453.946C661.95 454.785 662.265 455.586 662.73 456.299C661.616 457.036 660.806 458.151 660.45 459.439C660.249 460.236 660.223 461.067 660.375 461.876C660.527 462.684 660.853 463.449 661.33 464.119C660.805 464.953 660.394 465.855 660.11 466.799V466.869C659.911 467.486 659.842 468.137 659.907 468.782C659.973 469.428 660.172 470.052 660.491 470.616C660.811 471.18 661.245 471.672 661.764 472.059C662.284 472.447 662.878 472.723 663.51 472.869L682.92 476.359C684.319 476.608 685.759 476.477 687.09 475.979L701.24 478.519L715.5 480.689L799.21 502.469L820.41 398.709Z" fill="#D88B6D" stroke="black" stroke-width="1.5" stroke-linecap="round" stroke-linejoin="round"/>
<path d="M838.24 771.499C828.342 776.28 817.74 779.444 806.84 780.869C777.91 784.609 754.93 774.869 744.62 769.619C744.589 769.6 744.565 769.572 744.55 769.539C744.535 769.506 744.531 769.469 744.537 769.433C744.544 769.398 744.561 769.365 744.587 769.339C744.612 769.313 744.645 769.296 744.68 769.289L830.26 757.609L838.24 771.499Z" fill="black" stroke="black" stroke-width="1.5" stroke-linecap="round" stroke-linejoin="round"/>
<path d="M795 445L792 423.5L781.5 418.5L781.215 419.64C780.782 421.373 781.429 423.197 782.859 424.269C786.547 427.035 789.395 430.771 791.085 435.061L795 445Z" fill="black" stroke="black" stroke-linecap="round" stroke-linejoin="round"/>
<path d="M812.641 368.339C809.74 366.924 806.63 365.985 803.431 365.559C798.602 364.692 793.624 365.306 789.151 367.319C786.288 368.721 783.764 370.727 781.751 373.199C774.041 382.309 775.751 394.809 776.131 397.449L766.531 412.059L798.601 427.059L812.641 368.339Z" fill="#AD85AD" stroke="black" stroke-width="1.5" stroke-linecap="round" stroke-linejoin="round"/>
<path d="M801.41 382.129C800.775 413.971 796.664 445.649 789.15 476.599L797.57 485.279L825.94 421.959C817.754 408.679 809.577 395.402 801.41 382.129Z" fill="#AD85AD" stroke="black" stroke-width="1.5" stroke-linecap="round" stroke-linejoin="round"/>
<path d="M808.58 367.929C805.125 369.847 802.032 372.355 799.44 375.339C793.44 382.249 789.54 392.789 791.44 420.339C793.29 430.139 797.36 448.769 799.27 455.449C801.644 464.064 802.196 473.079 800.89 481.919C811.36 485.919 817.16 487.509 823.16 488.239C825.83 488.569 830.8 489.069 848.77 488.749C859.07 488.569 867.61 488.229 873.62 487.939C873.934 478.772 874.414 469.415 875.06 459.869C875.74 449.999 873.9 412.589 880.5 367.929" fill="white"/>
<path d="M808.58 367.929C805.125 369.847 802.032 372.355 799.44 375.339C793.44 382.249 789.54 392.789 791.44 420.339C793.29 430.139 797.36 448.769 799.27 455.449C801.644 464.064 802.196 473.079 800.89 481.919C811.36 485.919 817.16 487.509 823.16 488.239C825.83 488.569 830.8 489.069 848.77 488.749C859.07 488.569 867.61 488.229 873.62 487.939C873.934 478.772 874.414 469.415 875.06 459.869C875.74 449.999 873.9 412.589 880.5 367.929H808.58Z" stroke="black" stroke-width="1.5" stroke-linecap="round" stroke-linejoin="round"/>
<path d="M794.06 739.919C801.06 739.279 808.06 740.259 814.99 740.289C813.99 754.619 812.99 764.989 813.35 780.289C813.59 791.919 814.48 801.479 815.23 807.919C812.95 810.819 793.56 834.679 767.49 831.779C762.311 831.186 757.288 829.629 752.68 827.189C764.732 816.301 773.575 802.323 778.25 786.769L774.86 742.629C781.23 741.769 787.63 740.769 794.06 739.919Z" fill="#D88B6D" stroke="black" stroke-width="1.5" stroke-linecap="round" stroke-linejoin="round"/>
<path d="M801.721 465.959C806.501 466.889 810.612 467.679 816.042 468.259C826.897 469.411 837.834 469.582 848.721 468.769C847.69 482.374 845.907 495.911 843.381 509.319C841.661 518.419 839.691 526.999 837.571 535.039C837.131 567.852 836.764 600.655 836.471 633.449C836.051 680.682 835.794 727.915 835.701 775.149C823.951 781.009 814.601 781.829 808.511 781.619C793.901 781.129 787.092 774.349 768.682 770.729C760.235 769.073 751.612 768.501 743.021 769.029C754.471 729.801 763.462 689.897 769.941 649.549C776.091 611.139 772.761 585.779 781.341 539.999C787.251 508.339 795.941 482.859 801.721 465.959Z" fill="#F25A33" stroke="black" stroke-width="1.5" stroke-linecap="round" stroke-linejoin="round"/>
<path d="M810.941 790.139C811.357 789.671 811.891 789.323 812.487 789.131C813.083 788.938 813.719 788.908 814.331 789.044C814.942 789.179 815.506 789.475 815.965 789.902C816.424 790.328 816.761 790.869 816.941 791.469C820.601 801.279 820.671 808.469 819.821 813.619C819.521 815.399 819.091 817.049 818.031 821.779C817.031 826.069 816.751 827.519 816.591 828.259C815.472 833.545 814.631 838.885 814.071 844.259L808.201 844.169L806.371 821.049L774.171 843.379C773.417 843.897 772.526 844.179 771.611 844.189L736.461 844.359C733.361 844.289 730.971 841.009 731.081 837.009C731.171 833.729 732.931 830.869 735.381 830.009L750.551 824.609C751.624 824.219 752.759 824.029 753.901 824.049H755.111C754.944 824.533 754.969 825.063 755.181 825.529C756.181 827.459 761.591 826.389 763.641 825.979C770.43 824.659 776.933 822.15 782.851 818.569C784.896 817.304 786.766 815.774 788.411 814.019L810.941 790.139Z" fill="#FFCD88" stroke="black" stroke-width="1.5" stroke-linecap="round" stroke-linejoin="round"/>
<path d="M808.511 815.449L820.431 810.859C819.051 817.069 818.371 820.139 818.001 821.779C817.871 822.319 817.421 824.289 816.851 826.939C816.711 827.579 816.631 827.939 816.561 828.259C815.442 833.545 814.601 838.885 814.041 844.259L808.171 844.169L806.341 821.049L774.141 843.379C773.387 843.897 772.496 844.179 771.581 844.189L768.511 844.089L808.511 815.449Z" fill="black"/>
<path d="M819.601 810.859C817.191 811.859 815.771 812.859 813.361 813.859C809.519 815.442 805.869 817.454 802.481 819.859L768.481 844.059" stroke="black" stroke-width="1.5" stroke-linecap="round" stroke-linejoin="round"/>
<path fill-rule="evenodd" clip-rule="evenodd" d="M875.77 364.949C898.59 388.283 921.404 411.616 944.21 434.949C946.904 438.569 948.126 443.075 947.63 447.559C947.142 451.66 945.21 455.453 942.18 458.259L912.712 482.559H912.733L911.21 491.579V508.179C911.576 508.904 912.096 509.542 912.733 510.046C913.37 510.55 914.11 510.91 914.9 511.099L915.34 511.189C916.524 511.361 917.727 511.058 918.688 510.346C919.649 509.634 920.29 508.571 920.47 507.389C920.64 506.069 920.81 504.759 920.99 503.439C921.029 502.61 921.393 501.83 922.004 501.269C922.614 500.707 923.421 500.409 924.25 500.439C925.328 500.39 926.389 500.719 927.25 501.369C927.84 501.879 928.56 502.889 928.35 507.279C928.235 509.528 927.928 511.763 927.43 513.959L931.46 511.769C932.249 511.355 933.132 511.155 934.022 511.19C934.912 511.226 935.777 511.494 936.53 511.969C936.715 512.07 936.875 512.21 937 512.379C937.507 513.043 937.815 513.837 937.89 514.669C937.942 515.316 937.81 515.964 937.51 516.539C937.209 517.114 936.751 517.593 936.19 517.919C932.745 520.068 929.051 521.791 925.19 523.049C922.324 524.078 919.368 524.838 916.36 525.319L928.49 525.989C929.785 526.048 931.008 526.599 931.91 527.529C932.289 527.923 932.575 528.397 932.748 528.916C932.921 529.435 932.976 529.986 932.91 530.529C932.848 531.162 932.647 531.773 932.32 532.319C931.872 532.994 931.25 533.537 930.52 533.889C929.79 534.241 928.978 534.389 928.17 534.319L906.44 532.959L918.47 537.769C919.409 538.114 920.189 538.79 920.662 539.671C921.136 540.552 921.27 541.576 921.04 542.549C920.799 543.468 920.351 544.319 919.73 545.039C919.026 545.808 918.088 546.324 917.06 546.505C916.033 546.685 914.975 546.522 914.05 546.039C911.51 544.759 907.52 542.729 902.64 540.239C892.96 535.319 888.06 532.779 885.06 528.819C883.047 526.137 881.641 523.049 880.94 519.769L880.333 500.922L879.07 500.309L870.82 480.109L908.9 444.399C894.98 430.099 882.09 416.139 870.09 402.549C866.56 398.569 862.32 393.679 859.09 387.109C865.079 380.055 870.649 372.656 875.77 364.949Z" fill="#D88B6D"/>
<path d="M944.21 434.949L944.747 434.425C944.77 434.449 944.792 434.475 944.812 434.501L944.21 434.949ZM875.77 364.949L875.146 364.534C875.271 364.346 875.475 364.224 875.7 364.203C875.925 364.181 876.148 364.263 876.306 364.425L875.77 364.949ZM947.63 447.559L948.376 447.642L948.375 447.648L947.63 447.559ZM942.18 458.259L942.69 458.809C942.679 458.819 942.669 458.829 942.657 458.838L942.18 458.259ZM912.712 482.559L912.725 483.309C912.406 483.315 912.119 483.118 912.009 482.819C911.898 482.52 911.989 482.183 912.235 481.98L912.712 482.559ZM912.733 482.559L912.72 481.809C912.943 481.805 913.156 481.901 913.302 482.07C913.447 482.239 913.51 482.464 913.473 482.684L912.733 482.559ZM911.21 491.579H910.46C910.46 491.537 910.464 491.495 910.471 491.454L911.21 491.579ZM911.21 508.179L910.541 508.516C910.488 508.412 910.46 508.296 910.46 508.179H911.21ZM914.9 511.099L914.75 511.833C914.742 511.832 914.734 511.83 914.726 511.828L914.9 511.099ZM915.34 511.189L915.232 511.931C915.218 511.929 915.204 511.926 915.19 511.924L915.34 511.189ZM920.47 507.389L921.214 507.485C921.213 507.49 921.213 507.496 921.212 507.502L920.47 507.389ZM920.99 503.439L921.739 503.474C921.738 503.496 921.736 503.518 921.733 503.54L920.99 503.439ZM922.004 501.269L922.512 501.821L922.004 501.269ZM924.25 500.439L924.284 501.188C924.264 501.189 924.244 501.189 924.223 501.188L924.25 500.439ZM927.25 501.369L927.702 500.77C927.715 500.78 927.728 500.791 927.741 500.801L927.25 501.369ZM928.35 507.279L929.099 507.315V507.317L928.35 507.279ZM927.43 513.959L927.788 514.618C927.53 514.758 927.212 514.734 926.978 514.557C926.743 514.379 926.634 514.08 926.699 513.793L927.43 513.959ZM931.46 511.769L931.102 511.11L931.112 511.105L931.46 511.769ZM934.022 511.19L933.992 511.94L934.022 511.19ZM936.53 511.969L936.17 512.627C936.157 512.619 936.143 512.611 936.13 512.603L936.53 511.969ZM937 512.379L936.404 512.834L936.397 512.825L937 512.379ZM937.89 514.669L938.637 514.602L938.638 514.609L937.89 514.669ZM937.51 516.539L936.845 516.192L937.51 516.539ZM936.19 517.919L935.793 517.282C935.8 517.278 935.807 517.274 935.813 517.27L936.19 517.919ZM925.19 523.049L924.937 522.343C924.944 522.34 924.951 522.338 924.958 522.336L925.19 523.049ZM916.36 525.319L916.319 526.068C915.936 526.046 915.631 525.74 915.611 525.357C915.591 524.975 915.863 524.639 916.242 524.578L916.36 525.319ZM928.49 525.989L928.456 526.738H928.449L928.49 525.989ZM931.91 527.529L932.448 527.006L932.451 527.01L931.91 527.529ZM932.748 528.916L933.459 528.679L932.748 528.916ZM932.91 530.529L932.164 530.455C932.164 530.45 932.165 530.444 932.166 530.438L932.91 530.529ZM932.32 532.319L932.964 532.704C932.958 532.714 932.952 532.724 932.945 532.733L932.32 532.319ZM930.52 533.889L930.846 534.564L930.52 533.889ZM928.17 534.319L928.217 533.57C928.223 533.571 928.229 533.571 928.235 533.572L928.17 534.319ZM906.44 532.959L906.162 533.655C905.82 533.518 905.628 533.153 905.709 532.794C905.789 532.435 906.119 532.187 906.487 532.21L906.44 532.959ZM918.47 537.769L918.212 538.473C918.205 538.47 918.198 538.468 918.192 538.465L918.47 537.769ZM920.662 539.671L920.002 540.026L920.662 539.671ZM921.04 542.549L921.77 542.721C921.769 542.727 921.767 542.733 921.766 542.739L921.04 542.549ZM919.73 545.039L920.298 545.529C920.293 545.534 920.288 545.54 920.284 545.545L919.73 545.039ZM914.05 546.039L914.388 545.369L914.397 545.374L914.05 546.039ZM902.64 540.239L902.98 539.57L902.981 539.571L902.64 540.239ZM885.06 528.819L884.462 529.272L884.461 529.269L885.06 528.819ZM880.94 519.769L880.207 519.925C880.197 519.882 880.192 519.837 880.191 519.793L880.94 519.769ZM880.333 500.922L880.661 500.247C880.911 500.368 881.074 500.619 881.083 500.898L880.333 500.922ZM879.07 500.309L878.743 500.984C878.577 500.903 878.446 500.764 878.376 500.593L879.07 500.309ZM870.82 480.109L870.126 480.393C870.008 480.105 870.081 479.775 870.307 479.562L870.82 480.109ZM908.9 444.399L909.438 443.876C909.578 444.02 909.655 444.215 909.65 444.416C909.646 444.618 909.56 444.809 909.413 444.946L908.9 444.399ZM870.09 402.549L870.651 402.052L870.652 402.053L870.09 402.549ZM859.09 387.109L858.417 387.44C858.285 387.172 858.325 386.851 858.519 386.624L859.09 387.109ZM943.674 435.473C920.867 412.14 898.054 388.807 875.234 365.474L876.306 364.425C899.127 387.758 921.94 411.092 944.747 434.425L943.674 435.473ZM946.885 447.477C947.36 443.181 946.189 438.864 943.609 435.397L944.812 434.501C947.619 438.273 948.892 442.969 948.376 447.642L946.885 447.477ZM941.671 457.709C944.569 455.024 946.418 451.394 946.886 447.471L948.375 447.648C947.865 451.925 945.85 455.882 942.69 458.809L941.671 457.709ZM912.235 481.98L941.703 457.681L942.657 458.838L913.189 483.138L912.235 481.98ZM912.699 481.809H912.72L912.746 483.309H912.725L912.699 481.809ZM913.473 482.684L911.95 491.704L910.471 491.454L911.994 482.434L913.473 482.684ZM911.96 491.579V508.179H910.46V491.579H911.96ZM911.88 507.841C912.197 508.469 912.647 509.021 913.198 509.458L912.268 510.634C911.545 510.062 910.955 509.339 910.541 508.516L911.88 507.841ZM913.198 509.458C913.75 509.894 914.391 510.206 915.075 510.369L914.726 511.828C913.829 511.613 912.99 511.206 912.268 510.634L913.198 509.458ZM915.051 510.364L915.491 510.454L915.19 511.924L914.75 511.833L915.051 510.364ZM915.448 510.447C916.436 510.59 917.44 510.337 918.242 509.743L919.135 510.949C918.015 511.778 916.612 512.132 915.232 511.931L915.448 510.447ZM918.242 509.743C919.044 509.149 919.578 508.262 919.729 507.276L921.212 507.502C921.002 508.88 920.255 510.119 919.135 510.949L918.242 509.743ZM919.726 507.293C919.896 505.973 920.067 504.66 920.247 503.337L921.733 503.54C921.554 504.857 921.384 506.165 921.214 507.485L919.726 507.293ZM920.241 503.404C920.289 502.378 920.74 501.412 921.496 500.717L922.512 501.821C922.047 502.249 921.769 502.843 921.739 503.474L920.241 503.404ZM921.496 500.717C922.252 500.021 923.251 499.652 924.277 499.689L924.223 501.188C923.592 501.165 922.977 501.393 922.512 501.821L921.496 500.717ZM924.216 499.69C925.469 499.633 926.702 500.015 927.702 500.77L926.798 501.967C926.077 501.423 925.188 501.147 924.284 501.188L924.216 499.69ZM927.741 500.801C928.149 501.154 928.559 501.665 928.826 502.678C929.081 503.65 929.206 505.088 929.099 507.315L927.601 507.243C927.705 505.079 927.574 503.817 927.375 503.06C927.186 502.343 926.942 502.094 926.76 501.936L927.741 500.801ZM929.099 507.317C928.982 509.609 928.669 511.886 928.162 514.124L926.699 513.793C927.187 511.639 927.489 509.447 927.601 507.241L929.099 507.317ZM927.072 513.3L931.102 511.11L931.818 512.428L927.788 514.618L927.072 513.3ZM931.112 511.105C932.017 510.63 933.03 510.401 934.052 510.441L933.992 511.94C933.234 511.91 932.481 512.08 931.809 512.433L931.112 511.105ZM934.052 510.441C935.073 510.481 936.066 510.789 936.93 511.334L936.13 512.603C935.488 512.199 934.751 511.97 933.992 511.94L934.052 510.441ZM936.89 511.311C937.17 511.464 937.414 511.676 937.603 511.933L936.397 512.825C936.337 512.743 936.259 512.675 936.17 512.627L936.89 511.311ZM937.597 511.924C938.189 512.7 938.55 513.629 938.637 514.602L937.143 514.736C937.081 514.045 936.825 513.385 936.404 512.834L937.597 511.924ZM938.638 514.609C938.701 515.396 938.541 516.186 938.174 516.887L936.845 516.192C937.08 515.742 937.183 515.235 937.143 514.729L938.638 514.609ZM938.174 516.887C937.808 517.587 937.251 518.17 936.567 518.567L935.813 517.27C936.252 517.015 936.61 516.641 936.845 516.192L938.174 516.887ZM936.587 518.555C933.091 520.737 929.341 522.485 925.423 523.762L924.958 522.336C928.761 521.097 932.4 519.4 935.793 517.282L936.587 518.555ZM925.444 523.755C922.533 524.8 919.532 525.571 916.479 526.059L916.242 524.578C919.203 524.105 922.114 523.357 924.937 522.343L925.444 523.755ZM916.402 524.57L928.532 525.24L928.449 526.738L916.319 526.068L916.402 524.57ZM928.525 525.24C930.01 525.308 931.413 525.939 932.448 527.006L931.372 528.051C930.603 527.258 929.56 526.788 928.456 526.738L928.525 525.24ZM932.451 527.01C932.907 527.484 933.251 528.055 933.459 528.679L932.036 529.153C931.899 528.74 931.671 528.362 931.369 528.048L932.451 527.01ZM933.459 528.679C933.668 529.303 933.734 529.966 933.655 530.619L932.166 530.438C932.218 530.006 932.174 529.567 932.036 529.153L933.459 528.679ZM933.657 530.602C933.584 531.345 933.347 532.063 932.964 532.704L931.677 531.934C931.946 531.483 932.112 530.978 932.164 530.455L933.657 530.602ZM932.945 532.733C932.423 533.521 931.697 534.154 930.846 534.564L930.194 533.213C930.803 532.92 931.322 532.467 931.695 531.904L932.945 532.733ZM930.846 534.564C929.994 534.975 929.047 535.148 928.105 535.066L928.235 533.572C928.909 533.63 929.585 533.506 930.194 533.213L930.846 534.564ZM928.123 535.067L906.393 533.707L906.487 532.21L928.217 533.57L928.123 535.067ZM906.719 532.262L918.749 537.072L918.192 538.465L906.162 533.655L906.719 532.262ZM918.729 537.065C919.84 537.473 920.763 538.274 921.323 539.316L920.002 540.026C919.615 539.307 918.978 538.754 918.212 538.473L918.729 537.065ZM921.323 539.316C921.883 540.358 922.042 541.57 921.77 542.721L920.31 542.376C920.498 541.581 920.388 540.745 920.002 540.026L921.323 539.316ZM921.766 542.739C921.496 543.769 920.994 544.723 920.298 545.529L919.162 544.549C919.709 543.916 920.103 543.167 920.315 542.358L921.766 542.739ZM920.284 545.545C919.468 546.437 918.381 547.034 917.19 547.243L916.93 545.766C917.795 545.614 918.584 545.18 919.177 544.533L920.284 545.545ZM917.19 547.243C916 547.453 914.774 547.263 913.703 546.704L914.397 545.374C915.175 545.78 916.066 545.918 916.93 545.766L917.19 547.243ZM913.713 546.708C911.171 545.428 907.179 543.397 902.299 540.907L902.981 539.571C907.861 542.061 911.85 544.09 914.388 545.369L913.713 546.708ZM902.3 540.907C897.47 538.452 893.793 536.571 890.95 534.806C888.098 533.035 886.039 531.352 884.462 529.272L885.658 528.366C887.082 530.245 888.973 531.813 891.741 533.532C894.518 535.256 898.131 537.105 902.98 539.57L902.3 540.907ZM884.461 529.269C882.381 526.5 880.93 523.312 880.207 519.925L881.674 519.612C882.351 522.786 883.712 525.773 885.66 528.368L884.461 529.269ZM880.191 519.793L879.584 500.946L881.083 500.898L881.69 519.745L880.191 519.793ZM879.398 499.634L880.661 500.247L880.006 501.597L878.743 500.984L879.398 499.634ZM871.515 479.826L879.765 500.026L878.376 500.593L870.126 480.393L871.515 479.826ZM909.413 444.946L871.333 480.656L870.307 479.562L908.387 443.852L909.413 444.946ZM870.652 402.053C882.645 415.634 895.527 429.585 909.438 443.876L908.363 444.922C894.434 430.613 881.536 416.644 869.528 403.046L870.652 402.053ZM859.763 386.778C862.945 393.25 867.125 398.075 870.651 402.052L869.529 403.047C865.996 399.063 861.696 394.108 858.417 387.44L859.763 386.778ZM876.395 365.364C871.257 373.096 865.67 380.519 859.662 387.595L858.519 386.624C864.489 379.592 870.041 372.217 875.146 364.534L876.395 365.364Z" fill="black"/>
<path d="M927.391 513.909C925.855 515.69 923.939 517.104 921.785 518.045C919.63 518.987 917.291 519.432 914.941 519.349C912.534 519.197 910.195 518.485 908.112 517.27C906.029 516.054 904.258 514.369 902.941 512.349" stroke="black" stroke-width="1.5" stroke-linecap="round" stroke-linejoin="round"/>
<path d="M897.651 518.659C899.19 520.88 901.25 522.689 903.651 523.929C907.591 525.852 912.079 526.34 916.341 525.309" stroke="black" stroke-width="1.5" stroke-linecap="round" stroke-linejoin="round"/>
<path d="M892.031 526.179C893.75 527.586 895.61 528.813 897.581 529.839C900.356 531.283 903.322 532.327 906.391 532.939" stroke="black" stroke-width="1.5" stroke-linecap="round" stroke-linejoin="round"/>
<path d="M905.75 775.929C895.851 780.707 885.25 783.867 874.35 785.289C844.96 789.099 821.7 778.969 811.64 773.789L897.77 762.039L905.75 775.929Z" fill="black" stroke="black" stroke-width="1.5" stroke-linecap="round" stroke-linejoin="round"/>
<path d="M844.77 805.769C848.232 799.776 850.984 793.399 852.97 786.769C851.99 773.895 850.99 761.022 849.97 748.149C861.34 744.929 872.68 741.469 883.97 737.909C885.892 737.552 887.847 737.408 889.8 737.479C889.75 738.259 889.71 739.038 889.66 739.818C888.66 754.388 887.66 764.819 887.98 780.289C888.22 791.919 889.12 801.479 889.86 807.919C887.58 810.819 868.19 834.679 842.12 831.779C836.941 831.185 831.918 829.628 827.31 827.189C834.206 820.997 840.096 813.771 844.77 805.769Z" fill="#D88B6D" stroke="black" stroke-width="1.5" stroke-linecap="round" stroke-linejoin="round"/>
<path d="M885.69 790.139C886.109 789.687 886.639 789.352 887.227 789.169C887.815 788.985 888.441 788.96 889.043 789.095C889.644 789.229 890.2 789.519 890.654 789.936C891.108 790.353 891.444 790.881 891.63 791.469C895.29 801.279 895.36 808.469 894.51 813.619C894.22 815.399 893.79 817.049 892.72 821.779C891.72 826.069 891.45 827.519 891.29 828.259C890.167 833.544 889.325 838.885 888.77 844.259L882.89 844.169C882.283 836.469 881.677 828.762 881.07 821.049L848.86 843.379C848.107 843.899 847.215 844.181 846.3 844.189L811.15 844.359C808.06 844.289 805.66 841.009 805.77 837.009C805.86 833.729 807.62 830.869 810.08 830.009L825.24 824.609C826.317 824.219 827.455 824.029 828.6 824.049H829.8C829.633 824.533 829.658 825.063 829.87 825.529C830.92 827.459 836.29 826.389 838.33 825.979C845.123 824.661 851.63 822.152 857.55 818.569C859.592 817.298 861.461 815.769 863.11 814.019L885.69 790.139Z" fill="#FFCD88" stroke="black" stroke-width="1.5" stroke-linecap="round" stroke-linejoin="round"/>
<path d="M883.23 815.449L895.151 810.859C893.781 817.069 893.09 820.139 892.72 821.779C892.6 822.319 892.14 824.289 891.57 826.939C891.43 827.579 891.35 827.939 891.29 828.259C890.167 833.544 889.327 838.885 888.771 844.259L882.891 844.169C882.285 836.469 881.677 828.762 881.07 821.049L848.86 843.379C848.107 843.899 847.216 844.181 846.3 844.189L843.23 844.089L883.23 815.449Z" fill="black"/>
<path d="M894.32 810.859C891.91 811.859 890.5 812.859 888.09 813.859C884.245 815.441 880.592 817.454 877.2 819.859L843.2 844.059" stroke="black" stroke-width="1.5" stroke-linecap="round" stroke-linejoin="round"/>
<path d="M827.35 505.829L835.26 516.009C834.82 523.089 834.17 534.139 833.47 547.659C829.68 620.949 830.96 643.849 828.11 677.109C825.221 710.006 819.323 742.568 810.49 774.389C818.805 773.869 827.153 774.332 835.36 775.769C855.97 779.359 863.36 786.229 877.95 786.599C884.28 786.759 893.8 785.189 905.75 775.969C901.51 732.789 897.273 689.609 893.04 646.429C893.86 613.709 895.44 587.429 896.73 569.429C898.94 538.869 901.04 521.769 894.74 498.769C891.222 486.037 885.855 473.891 878.81 462.719C873.45 464.109 867.63 465.409 861.36 466.509C855.36 467.509 848.78 468.5 843.5 469" fill="#F25A33"/>
<path d="M827.35 505.829L835.26 516.009C834.82 523.089 834.17 534.139 833.47 547.659C829.68 620.949 830.96 643.849 828.11 677.109C825.221 710.006 819.323 742.568 810.49 774.389C818.805 773.869 827.153 774.332 835.36 775.769C855.97 779.359 863.36 786.229 877.95 786.599C884.28 786.759 893.8 785.189 905.75 775.969C901.51 732.789 897.273 689.609 893.04 646.429C893.86 613.709 895.44 587.429 896.73 569.429C898.94 538.869 901.04 521.769 894.74 498.769C891.222 486.037 885.855 473.891 878.81 462.719C873.45 464.109 867.63 465.409 861.36 466.509C855.36 467.509 848.78 468.5 843.5 469" stroke="black" stroke-width="1.5" stroke-linecap="round" stroke-linejoin="round"/>
<path d="M862.94 481.309C865.21 490.269 869.499 498.591 875.48 505.639C885.75 517.719 892.98 520.639 898.12 522.299" stroke="black" stroke-width="1.5" stroke-linecap="round" stroke-linejoin="round"/>
<path d="M845.611 423.569C846.511 439.509 848.191 444.049 849.191 460.659C849.191 460.769 849.191 460.879 849.191 460.979C849.738 469.811 853.742 478.072 860.336 483.973C866.929 489.875 875.582 492.941 884.421 492.509L903.421 491.589L898.711 481.019C892.411 469.412 889.9 456.124 891.531 443.019C892.681 433.786 893.016 424.47 892.531 415.179C891.741 399.249 888.58 383.526 883.151 368.529C879.501 368.099 875.641 367.749 871.581 367.529C866.691 367.259 862.071 367.199 857.741 367.279C855.951 370.579 854.361 373.579 852.991 376.279C849.691 382.659 848.081 386.169 846.761 390.839C846.091 393.359 844.291 400.329 845.611 423.569Z" fill="#AD85AD" stroke="black" stroke-width="1.5" stroke-linecap="round" stroke-linejoin="round"/>
<path d="M890.5 448.5L892 433.5L878 418.5L885 438L890.5 448.5Z" fill="black" stroke="black" stroke-linecap="round" stroke-linejoin="round"/>
<path d="M876.02 414.859C878.06 418.579 880.462 422.089 883.19 425.339C888.147 431.228 894.101 436.2 900.78 440.029L948 398.119L905.6 380.119C899.6 368.569 888.6 361.689 877.88 362.719C872.727 363.315 867.886 365.499 864.03 368.969" fill="#AD85AD"/>
<path d="M876.02 414.859C878.06 418.579 880.462 422.089 883.19 425.339C888.147 431.228 894.101 436.2 900.78 440.029L948 398.119L905.6 380.119C899.6 368.569 888.6 361.689 877.88 362.719C872.727 363.315 867.886 365.499 864.03 368.969" stroke="black" stroke-width="1.5" stroke-linecap="round" stroke-linejoin="round"/>
<path d="M906 380.5C906 382 910.5 386.5 910.5 386.5" stroke="black" stroke-width="1.5" stroke-linecap="round" stroke-linejoin="round"/>
<path d="M776 398C776 399.5 776.5 404.5 776.5 404.5" stroke="black" stroke-width="1.5" stroke-linecap="round" stroke-linejoin="round"/>
<path d="M908.891 444.369L914.261 438.249" stroke="black" stroke-width="1.5" stroke-linecap="round" stroke-linejoin="round"/>
<path d="M674.72 441.649L689.94 444.389C690.508 444.513 691.046 444.748 691.522 445.082C691.998 445.415 692.403 445.84 692.714 446.331C693.024 446.822 693.234 447.37 693.332 447.943C693.429 448.516 693.411 449.102 693.28 449.669V449.739C692.951 451.259 692.107 452.619 690.89 453.589C691.407 454.156 691.786 454.834 691.999 455.571C692.211 456.308 692.252 457.084 692.116 457.839C691.981 458.594 691.674 459.308 691.218 459.925C690.763 460.542 690.172 461.047 689.49 461.399C689.946 462.072 690.247 462.839 690.37 463.644C690.492 464.448 690.434 465.269 690.2 466.049C689.844 467.1 689.138 467.996 688.2 468.589C688.774 469.66 689.033 470.872 688.946 472.085C688.86 473.297 688.431 474.46 687.71 475.439L687.1 475.979" stroke="black" stroke-width="1.5" stroke-linecap="round" stroke-linejoin="round"/>
<path d="M688.16 468.589L661.32 464.089" stroke="black" stroke-width="1.5" stroke-linecap="round" stroke-linejoin="round"/>
<path d="M664.94 447.479L665.5 447.889C666.879 448.893 668.464 449.576 670.14 449.889L690.83 453.609" stroke="black" stroke-width="1.5" stroke-linecap="round" stroke-linejoin="round"/>
<path d="M689.46 461.399L662.67 456.589" stroke="black" stroke-width="1.5" stroke-linecap="round" stroke-linejoin="round"/>
<path d="M896.5 505L892.5 492H888.625C883.229 492 877.853 491.338 872.618 490.029L866.5 488.5L876.578 492.279C883.134 494.738 889.172 498.405 894.377 503.089L896.5 505Z" fill="black" stroke="black" stroke-linecap="round" stroke-linejoin="round"/>
<path d="M846.451 339.433L819.511 340.323C816.211 341.107 812.761 341 809.516 340.012C806.27 339.025 803.346 337.193 801.041 334.703C798.607 331.99 796.98 328.651 796.341 325.063C796.066 323.333 796.036 321.572 796.251 319.833C796.971 313.133 797.311 310.723 797.741 306.063C798.651 295.953 794.941 294.803 796.461 285.853C796.951 282.973 797.581 279.233 800.121 275.803C805.811 268.183 817.491 268.083 820.931 268.083C825.866 268.121 830.736 269.204 835.221 271.263L846.451 339.433Z" fill="#D88B6D"/>
<path d="M860.951 297.613C862.519 291.474 861.595 284.964 858.381 279.503C851.831 268.833 839.201 268.503 838.381 268.503L827.671 267.923C814.971 265.483 803.351 267.923 797.881 274.733C795.744 277.389 794.337 280.557 793.801 283.923C793.452 287.683 794.348 291.453 796.351 294.653L826.811 292.443C827.551 289.373 828.301 286.293 829.041 283.213L835.041 291.853C836.341 300.263 838.111 309.333 840.511 318.923C842.341 326.223 844.361 333.063 846.451 339.433C851.278 325.493 856.111 311.553 860.951 297.613Z" fill="black" stroke="black" stroke-width="1.5" stroke-miterlimit="10" stroke-linecap="round" stroke-linejoin="round"/>
<path d="M819 340.363C816.13 349.253 813.25 358.363 810.37 367.283C818.138 372.854 827.619 375.513 837.15 374.793C844.798 374.103 852.086 371.233 858.15 366.523L846.3 338.923" fill="#D88B6D"/>
<path d="M819 340.363C816.13 349.253 813.25 358.363 810.37 367.283C818.138 372.854 827.619 375.513 837.15 374.793C844.798 374.103 852.086 371.233 858.15 366.523L846.3 338.923" stroke="black" stroke-width="1.5" stroke-miterlimit="10" stroke-linecap="round" stroke-linejoin="round"/>
<path d="M811.271 316.343H809.612C808.986 316.342 808.373 316.17 807.839 315.846C807.304 315.521 806.869 315.056 806.58 314.502C806.292 313.947 806.161 313.324 806.201 312.7C806.242 312.076 806.453 311.475 806.812 310.963L811 305" stroke="black" stroke-width="1.5" stroke-linecap="round" stroke-linejoin="round"/>
<path d="M806.05 320.383C806.006 320.381 805.963 320.392 805.924 320.413C805.886 320.435 805.854 320.466 805.833 320.504C805.811 320.542 805.8 320.586 805.802 320.63C805.803 320.673 805.816 320.716 805.84 320.753C806.292 321.568 806.953 322.247 807.756 322.719C808.559 323.192 809.473 323.441 810.405 323.441C811.336 323.441 812.251 323.192 813.054 322.719C813.856 322.247 814.518 321.568 814.97 320.753C814.991 320.716 815.002 320.675 815.002 320.632C815.002 320.59 814.991 320.549 814.969 320.512C814.948 320.475 814.917 320.445 814.881 320.424C814.844 320.403 814.802 320.393 814.76 320.393L806.05 320.383Z" fill="black"/>
<path d="M823.311 309.583C822.532 309.583 821.901 308.379 821.901 306.893C821.901 305.407 822.532 304.203 823.311 304.203C824.09 304.203 824.721 305.407 824.721 306.893C824.721 308.379 824.09 309.583 823.311 309.583Z" fill="black"/>
<path d="M801.74 309.583C800.962 309.583 800.33 308.379 800.33 306.893C800.33 305.407 800.962 304.203 801.74 304.203C802.519 304.203 803.15 305.407 803.15 306.893C803.15 308.379 802.519 309.583 801.74 309.583Z" fill="black"/>
<path d="M849.681 318.233L844.251 298.483L846.101 298.423C848.18 298.359 850.202 299.108 851.738 300.51C853.275 301.911 854.205 303.857 854.331 305.933C854.433 307.731 853.924 309.512 852.888 310.985C851.851 312.459 850.348 313.54 848.621 314.053" fill="#D88B6D"/>
<path d="M849.681 318.233L844.251 298.483L846.101 298.423C848.18 298.359 850.202 299.108 851.738 300.51C853.275 301.911 854.205 303.857 854.331 305.933C854.433 307.731 853.924 309.512 852.888 310.985C851.851 312.459 850.348 313.54 848.621 314.053" stroke="black" stroke-width="1.5" stroke-miterlimit="10" stroke-linecap="round" stroke-linejoin="round"/>
<path fill-rule="evenodd" clip-rule="evenodd" d="M824.093 299.054C823.955 299.445 824.161 299.873 824.551 300.01C825.867 300.474 826.971 301.398 827.658 302.612C827.862 302.973 828.319 303.1 828.68 302.896C829.04 302.692 829.167 302.234 828.963 301.874C828.098 300.344 826.707 299.179 825.049 298.595C824.659 298.458 824.231 298.663 824.093 299.054Z" fill="black"/>
<path fill-rule="evenodd" clip-rule="evenodd" d="M828.311 302.243C827.534 300.871 826.287 299.826 824.801 299.303L828.311 302.243ZM797.72 302.243C798.497 300.871 799.744 299.826 801.23 299.303L797.72 302.243Z" fill="white"/>
<path fill-rule="evenodd" clip-rule="evenodd" d="M801.938 299.054C801.8 298.663 801.372 298.458 800.981 298.595C799.323 299.179 797.933 300.344 797.067 301.874C796.864 302.234 796.99 302.692 797.351 302.896C797.712 303.1 798.169 302.973 798.373 302.612C799.06 301.398 800.163 300.474 801.479 300.01C801.87 299.873 802.075 299.445 801.938 299.054Z" fill="black"/>
<path d="M827.271 338.573L819.511 340.323C816.211 341.107 812.762 340.999 809.516 340.012C806.271 339.024 803.346 337.192 801.042 334.703C798.608 331.99 796.98 328.651 796.342 325.063C796.067 323.332 796.036 321.571 796.251 319.833C796.971 313.133 797.311 310.723 797.741 306.063C798.651 295.953 794.941 294.803 796.461 285.853C796.951 282.973 797.582 279.233 800.122 275.803C806.372 267.383 818.902 267.953 820.932 268.083C823.412 268.223 825.451 267.993 826.771 268.083" stroke="black" stroke-width="1.5" stroke-miterlimit="10" stroke-linecap="round" stroke-linejoin="round"/>
<path d="M849.43 272.153C853.128 269.904 857.353 268.669 861.68 268.573C872.76 268.483 882.78 276.723 886.96 285.683C892.96 298.623 883.96 307.183 889.51 318.363C894.08 327.563 904.69 331.663 913 333.683C911.55 334.263 890.38 342.333 872.66 329.603C857.75 318.873 851.75 298.083 858.87 279.083L849.43 272.153Z" fill="black" stroke="black" stroke-width="1.5" stroke-miterlimit="10" stroke-linecap="round" stroke-linejoin="round"/>
<path opacity="0.17" d="M794.39 317.148C788.53 317.148 783.78 312.397 783.78 306.538C783.78 300.678 788.53 295.928 794.39 295.928C800.25 295.928 805 300.678 805 306.538C805 312.397 800.25 317.148 794.39 317.148Z" fill="white"/>
<path d="M794.275 317.148C788.415 317.148 783.665 312.397 783.665 306.538C783.665 300.678 788.415 295.928 794.275 295.928C800.135 295.928 804.885 300.678 804.885 306.538C804.885 312.397 800.135 317.148 794.275 317.148Z" stroke="black" stroke-width="1.5" stroke-linecap="round" stroke-linejoin="round"/>
<path opacity="0.17" d="M824.294 317.148C818.435 317.148 813.684 312.397 813.684 306.538C813.684 300.678 818.435 295.928 824.294 295.928C830.154 295.928 834.904 300.678 834.904 306.538C834.904 312.397 830.154 317.148 824.294 317.148Z" fill="white"/>
<path d="M824.294 317.148C818.435 317.148 813.684 312.397 813.684 306.538C813.684 300.678 818.435 295.928 824.294 295.928C830.154 295.928 834.904 300.678 834.904 306.538C834.904 312.397 830.154 317.148 824.294 317.148Z" stroke="black" stroke-width="1.5" stroke-linecap="round" stroke-linejoin="round"/>
<path d="M805.205 304.908H813.695" stroke="black" stroke-width="1.5" stroke-linecap="round" stroke-linejoin="round"/>
<path d="M824.294 317.148C818.435 317.148 813.684 312.397 813.684 306.538C813.684 300.678 818.435 295.928 824.294 295.928C830.154 295.928 834.904 300.678 834.904 306.538C834.904 312.397 830.154 317.148 824.294 317.148Z" stroke="black" stroke-width="1.5" stroke-linecap="round" stroke-linejoin="round"/>
</svg>
