<svg width="1220" height="920" viewBox="0 0 1220 920" fill="none" xmlns="http://www.w3.org/2000/svg">
<path d="M924.29 579.79H734L751.87 422H903.53L924.29 579.79Z" stroke="#CCCCCC" stroke-width="1.5" stroke-linecap="round" stroke-linejoin="round"/>
<path d="M833.74 579.62V769.06H824.55V579.62" stroke="#CCCCCC" stroke-width="1.5" stroke-linecap="round" stroke-linejoin="round"/>
<path d="M796.3 769.061H862.04C870.978 769.061 879.549 772.611 885.869 778.931C892.189 785.251 895.74 793.823 895.74 802.761H762.59C762.59 798.334 763.462 793.951 765.156 789.862C766.85 785.772 769.333 782.057 772.464 778.928C775.594 775.798 779.311 773.316 783.4 771.623C787.49 769.93 791.873 769.059 796.3 769.061Z" stroke="#CCCCCC" stroke-width="1.5" stroke-linecap="round" stroke-linejoin="round"/>
<path d="M772.81 580.47V655.36" stroke="#CCCCCC" stroke-width="1.5" stroke-linecap="round" stroke-linejoin="round"/>
<path d="M772.81 679.88C779.581 679.88 785.07 674.391 785.07 667.62C785.07 660.849 779.581 655.36 772.81 655.36C766.039 655.36 760.55 660.849 760.55 667.62C760.55 674.391 766.039 679.88 772.81 679.88Z" stroke="#CCCCCC" stroke-width="1.5" stroke-linecap="round" stroke-linejoin="round"/>
<path d="M614.95 602.95H159V753.88H614.95V602.95Z" stroke="#CCCCCC" stroke-width="1.5" stroke-linecap="round" stroke-linejoin="round"/>
<path d="M386.66 603.57V753.91" stroke="#CCCCCC" stroke-width="1.5" stroke-linecap="round" stroke-linejoin="round"/>
<path d="M358.98 696.02C364.188 696.02 368.41 691.798 368.41 686.59C368.41 681.382 364.188 677.16 358.98 677.16C353.772 677.16 349.55 681.382 349.55 686.59C349.55 691.798 353.772 696.02 358.98 696.02Z" stroke="#CCCCCC" stroke-width="1.5" stroke-linecap="round" stroke-linejoin="round"/>
<path d="M414.539 696.02C419.747 696.02 423.969 691.798 423.969 686.59C423.969 681.382 419.747 677.16 414.539 677.16C409.331 677.16 405.109 681.382 405.109 686.59C405.109 691.798 409.331 696.02 414.539 696.02Z" stroke="#CCCCCC" stroke-width="1.5" stroke-linecap="round" stroke-linejoin="round"/>
<path d="M193.58 754.19L200.58 794.31C200.911 796.194 201.894 797.901 203.356 799.133C204.819 800.365 206.668 801.044 208.58 801.05C210.467 801.054 212.297 800.401 213.756 799.205C215.216 798.008 216.214 796.342 216.58 794.49L224.72 753.57" stroke="#CCCCCC" stroke-width="1.5" stroke-linecap="round" stroke-linejoin="round"/>
<path d="M581.609 754.19L574.609 794.31C574.281 796.195 573.298 797.903 571.835 799.135C570.373 800.368 568.522 801.046 566.609 801.05C564.723 801.052 562.894 800.399 561.435 799.202C559.976 798.006 558.978 796.341 558.609 794.49L550.479 753.57" stroke="#CCCCCC" stroke-width="1.5" stroke-linecap="round" stroke-linejoin="round"/>
<path d="M308.529 588.69H463.419C464.794 588.69 466.156 588.961 467.426 589.487C468.696 590.014 469.851 590.785 470.823 591.757C471.795 592.729 472.566 593.883 473.092 595.154C473.619 596.424 473.889 597.785 473.889 599.16V602.69H298.069V599.19C298.065 597.814 298.333 596.45 298.857 595.177C299.381 593.904 300.15 592.746 301.122 591.771C302.093 590.796 303.248 590.022 304.519 589.493C305.79 588.965 307.153 588.692 308.529 588.69Z" stroke="#CCCCCC" stroke-width="1.5" stroke-linecap="round" stroke-linejoin="round"/>
<path d="M399.239 546.78H375.729V588.35H399.239V546.78Z" stroke="#CCCCCC" stroke-width="1.5" stroke-linecap="round" stroke-linejoin="round"/>
<path d="M563.13 342H211.83V546.78H563.13V342Z" stroke="#CCCCCC" stroke-width="1.5" stroke-linecap="round" stroke-linejoin="round"/>
<path d="M546.44 360.4H228.53V528.38H546.44V360.4Z" stroke="#CCCCCC" stroke-width="1.5" stroke-linecap="round" stroke-linejoin="round"/>
<path d="M1034.6 803H283.87" stroke="black" stroke-width="1.5" stroke-linecap="round" stroke-linejoin="round"/>
<path d="M703.7 813.21H166" stroke="black" stroke-width="1.5" stroke-linecap="round" stroke-linejoin="round"/>
<path d="M747.62 813.21H716.47" stroke="black" stroke-width="1.5" stroke-linecap="round" stroke-linejoin="round"/>
<path d="M982.72 150H605V597.55H982.72V150Z" fill="white" stroke="black" stroke-width="1.5" stroke-linecap="round" stroke-linejoin="round"/>
<path d="M982.72 150H605V198.74H982.72V150Z" fill="#82AAD3" stroke="black" stroke-width="1.5" stroke-linecap="round" stroke-linejoin="round"/>
<path d="M784.2 166.5H657.15V171.45H784.2V166.5Z" fill="white" stroke="black" stroke-width="1.5" stroke-linecap="round" stroke-linejoin="round"/>
<path d="M784.2 176.4H657.15V181.35H784.2V176.4Z" fill="white" stroke="black" stroke-width="1.5" stroke-linecap="round" stroke-linejoin="round"/>
<path d="M905.05 445.01H686.15V452.07H905.05V445.01Z" fill="white" stroke="black" stroke-width="1.5" stroke-linecap="round" stroke-linejoin="round"/>
<path d="M653.86 468.83H709.73" stroke="black" stroke-width="1.5" stroke-linecap="round" stroke-linejoin="round"/>
<path d="M720.87 468.83H753.87" stroke="black" stroke-width="1.5" stroke-linecap="round" stroke-linejoin="round"/>
<path d="M762.53 468.83H824.61" stroke="black" stroke-width="1.5" stroke-linecap="round" stroke-linejoin="round"/>
<path d="M835.54 468.83H925.67" stroke="black" stroke-width="1.5" stroke-linecap="round" stroke-linejoin="round"/>
<path d="M874.73 333.04C874.727 347.913 870.736 362.514 863.173 375.321C855.61 388.129 844.752 398.674 831.73 405.86C830.13 406.747 828.5 407.58 826.84 408.36C806.831 417.706 783.931 418.727 763.17 411.2L761.86 410.72C760.57 410.22 759.29 409.72 758.03 409.14C757.13 408.74 756.26 408.33 755.38 407.91C743.38 402.093 732.951 393.482 724.97 382.8C724.31 381.93 723.67 381.04 723.05 380.14C717.632 372.295 713.619 363.569 711.19 354.35C710.58 352.06 710.07 349.72 709.66 347.35C709.49 346.35 709.34 345.42 709.21 344.45C708.827 341.694 708.587 338.92 708.49 336.14C708.49 335.14 708.43 334.07 708.43 333.03V332.59C708.43 331.27 708.43 329.96 708.54 328.66C708.653 326.62 708.833 324.6 709.08 322.6L709.23 321.48C709.5 319.54 709.84 317.61 710.23 315.71C710.29 315.47 710.34 315.22 710.39 314.98C711.567 309.668 713.268 304.486 715.47 299.51C724.302 279.49 740.652 263.744 760.99 255.67L761.4 255.51C763.27 254.78 765.18 254.11 767.11 253.51C775.041 251.088 783.287 249.854 791.58 249.85C793.47 249.85 795.34 249.91 797.2 250.04C798.87 250.15 800.53 250.31 802.2 250.52C809.653 251.464 816.944 253.418 823.87 256.33C824.74 256.71 825.61 257.09 826.47 257.5L826.78 257.64C841.121 264.339 853.253 274.993 861.747 288.35C870.241 301.706 874.745 317.211 874.73 333.04Z" fill="#82AAD3" stroke="black" stroke-width="1.5" stroke-linecap="round" stroke-linejoin="round"/>
<path d="M858.3 352.34C855.46 365.673 852.627 379.03 849.8 392.41C844.418 397.691 838.342 402.216 831.74 405.86C830.14 406.747 828.51 407.58 826.85 408.36C806.842 417.706 783.941 418.727 763.18 411.2L761.88 410.9C761.88 410.84 761.88 410.78 761.88 410.72C760.59 410.22 759.31 409.72 758.05 409.14C757.15 408.74 756.28 408.33 755.4 407.91C743.401 402.093 732.972 393.482 724.99 382.8C725.139 379.406 725.813 376.056 726.99 372.87C729.71 365.45 735.94 352.09 749.45 342.58C753.45 339.79 758.84 336.04 766.65 334.91C769.637 334.461 772.676 334.498 775.65 335.02C780.29 335.81 784.37 337.54 789.65 338.61C796.93 340.08 807.45 340.47 821.41 335.49C821.93 335.31 822.46 335.12 822.99 334.91L823.25 334.82L823.48 334.93L858.3 352.34Z" fill="white" stroke="black" stroke-width="1.5" stroke-linecap="round" stroke-linejoin="round"/>
<path d="M821.48 335.49L821.38 334.87H823.06H823.55C831.272 335.239 838.82 337.287 845.67 340.87C857.41 347.05 863.37 356.03 866.67 360.97C867.39 362.04 868.06 363.12 868.67 364.2C861.489 381.899 848.449 396.595 831.73 405.83C830.13 406.717 828.5 407.55 826.84 408.33C825.98 408.24 825.11 409.16 824.25 409.08L826.86 370.08" fill="white"/>
<path d="M821.48 335.49L821.38 334.87H823.06H823.55C831.272 335.239 838.82 337.287 845.67 340.87C857.41 347.05 863.37 356.03 866.67 360.97C867.39 362.04 868.06 363.12 868.67 364.2C861.489 381.899 848.449 396.595 831.73 405.83C830.13 406.717 828.5 407.55 826.84 408.33C825.98 408.24 825.11 409.16 824.25 409.08L826.86 370.08" stroke="black" stroke-width="1.5" stroke-linecap="round" stroke-linejoin="round"/>
<path d="M759.77 364.98C760.436 380.233 761.136 395.48 761.87 410.72C761.87 410.78 761.87 410.84 761.87 410.9" fill="white"/>
<path d="M759.77 364.98C760.436 380.233 761.136 395.48 761.87 410.72C761.87 410.78 761.87 410.84 761.87 410.9" stroke="black" stroke-width="1.5" stroke-linecap="round" stroke-linejoin="round"/>
<path d="M840.86 515.45H745.26V537.8H840.86V515.45Z" fill="#8CA45B" stroke="black" stroke-width="1.5" stroke-linecap="round" stroke-linejoin="round"/>
<path d="M629.88 185.07C636.033 185.07 641.02 180.082 641.02 173.93C641.02 167.778 636.033 162.79 629.88 162.79C623.728 162.79 618.74 167.778 618.74 173.93C618.74 180.082 623.728 185.07 629.88 185.07Z" fill="white" stroke="black" stroke-width="1.5" stroke-linecap="round" stroke-linejoin="round"/>
<path d="M824.72 330.523C828.56 326.153 839 327.623 850.72 333.673L831.72 352.553L809.97 340.763L823.26 333.373C823.506 332.318 824.007 331.339 824.72 330.523Z" fill="black" stroke="black" stroke-width="1.5" stroke-miterlimit="10"/>
<path d="M772.97 330.523C769.13 326.153 758.69 327.623 746.97 333.673L765.97 352.553L787.72 340.763L774.43 333.373C774.184 332.318 773.682 331.339 772.97 330.523Z" fill="black" stroke="black" stroke-width="1.5" stroke-miterlimit="10"/>
<path d="M794.72 341.033C794.72 341.033 787.42 365.313 790.06 381.573" stroke="black" stroke-width="1.5" stroke-miterlimit="10"/>
<path d="M789 352.483C788.98 351.976 789.111 351.476 789.377 351.044C789.642 350.612 790.029 350.269 790.489 350.058C790.95 349.846 791.462 349.776 791.963 349.856C792.463 349.937 792.928 350.163 793.299 350.508C793.671 350.853 793.931 351.3 794.048 351.793C794.165 352.286 794.134 352.802 793.957 353.277C793.78 353.752 793.467 354.163 793.056 354.46C792.645 354.756 792.156 354.924 791.65 354.943C791.314 354.956 790.979 354.903 790.664 354.786C790.348 354.67 790.059 354.492 789.813 354.263C789.567 354.035 789.368 353.76 789.229 353.454C789.089 353.149 789.011 352.818 789 352.483Z" fill="white" stroke="black" stroke-width="1.5" stroke-miterlimit="10"/>
<path d="M789.39 363.203C789.893 363.185 790.391 363.318 790.82 363.583C791.249 363.848 791.589 364.235 791.798 364.694C792.007 365.152 792.076 365.663 791.995 366.161C791.914 366.658 791.687 367.121 791.344 367.49C791 367.858 790.554 368.117 790.064 368.233C789.573 368.349 789.059 368.317 788.586 368.14C788.114 367.964 787.704 367.652 787.41 367.243C787.115 366.834 786.948 366.347 786.93 365.843C786.908 365.167 787.154 364.51 787.615 364.016C788.076 363.521 788.714 363.229 789.39 363.203Z" fill="white" stroke="black" stroke-width="1.5" stroke-miterlimit="10"/>
<path d="M826.165 265.598C835.965 286.918 832.415 310.508 818.525 322.868C796.825 342.198 761.365 323.868 757.245 321.678C755.912 320.958 754.629 320.218 753.395 319.458C749.799 317.199 747.209 313.644 746.161 309.528C745.113 305.413 745.688 301.052 747.765 297.348C749.694 293.891 751.385 290.306 752.825 286.618C760.825 266.028 756.225 254.458 762.445 248.408C768.275 242.728 783.575 241.958 826.165 265.598Z" fill="black" stroke="black" stroke-width="1.5" stroke-linecap="round" stroke-linejoin="round"/>
<path d="M811.675 307.418L784.735 308.308C781.435 309.093 777.986 308.987 774.741 308.001C771.496 307.015 768.571 305.185 766.265 302.698C763.827 299.984 762.198 296.641 761.565 293.048C761.286 291.318 761.253 289.558 761.465 287.818C762.195 281.118 762.535 278.708 762.955 274.048C763.875 263.938 760.165 262.788 761.675 253.848C762.165 250.958 762.805 247.218 765.345 243.848C771.005 236.218 782.715 236.098 786.155 236.118C791.086 236.161 795.952 237.244 800.435 239.298L811.675 307.418Z" fill="#F7CCB9"/>
<path d="M826.165 265.598C826.95 262.559 827.127 259.396 826.688 256.288C826.248 253.181 825.201 250.19 823.605 247.488C817.045 236.818 804.425 236.488 803.605 236.488L792.895 235.918C791.115 235.498 775.105 231.988 764.425 242.218C762.941 243.651 761.64 245.263 760.555 247.018C760.191 247.744 759.945 248.524 759.825 249.328C759.183 252.771 759.129 256.297 759.665 259.758L789.785 251.758C791.867 253.882 793.644 256.285 795.065 258.898C801.395 270.588 796.065 279.988 800.685 291.588C803.157 297.61 806.911 303.022 811.685 307.448L826.165 265.598Z" fill="black" stroke="black" stroke-width="1.5" stroke-linecap="round" stroke-linejoin="round"/>
<path d="M784.224 308.358C781.344 317.238 778.474 326.358 775.594 335.268C783.36 340.841 792.842 343.5 802.374 342.778C810.021 342.086 817.309 339.215 823.374 334.508L811.084 307.228" fill="#F7CCB9"/>
<path d="M784.224 308.358C781.344 317.238 778.474 326.358 775.594 335.268C783.36 340.841 792.842 343.5 802.374 342.778C810.021 342.086 817.309 339.215 823.374 334.508L811.084 307.228" stroke="black" stroke-width="1.5" stroke-linecap="round" stroke-linejoin="round"/>
<path d="M776.495 284.338H774.845C774.218 284.339 773.603 284.167 773.067 283.842C772.531 283.517 772.095 283.051 771.806 282.495C771.517 281.938 771.387 281.313 771.429 280.688C771.471 280.062 771.684 279.461 772.045 278.948C773.787 276.46 774.478 275.488 776.22 273" stroke="black" stroke-width="1.5" stroke-linecap="round" stroke-linejoin="round"/>
<path d="M771.265 288.368C771.222 288.368 771.18 288.38 771.144 288.402C771.107 288.425 771.077 288.456 771.056 288.494C771.036 288.532 771.026 288.574 771.027 288.617C771.029 288.66 771.042 288.702 771.065 288.738C771.517 289.553 772.179 290.232 772.981 290.704C773.784 291.177 774.699 291.427 775.63 291.427C776.562 291.427 777.477 291.177 778.279 290.704C779.082 290.232 779.744 289.553 780.196 288.738C780.217 288.702 780.228 288.66 780.228 288.618C780.227 288.575 780.216 288.534 780.195 288.497C780.174 288.461 780.143 288.43 780.106 288.41C780.069 288.389 780.028 288.378 779.985 288.378L771.265 288.368Z" fill="black"/>
<path d="M788.534 277.578C787.755 277.578 787.124 276.374 787.124 274.888C787.124 273.403 787.755 272.198 788.534 272.198C789.313 272.198 789.944 273.403 789.944 274.888C789.944 276.374 789.313 277.578 788.534 277.578Z" fill="black"/>
<path d="M766.964 277.578C766.185 277.578 765.554 276.374 765.554 274.888C765.554 273.403 766.185 272.198 766.964 272.198C767.743 272.198 768.374 273.403 768.374 274.888C768.374 276.374 767.743 277.578 766.964 277.578Z" fill="black"/>
<path d="M809.475 266.468L811.315 266.408C813.397 266.342 815.423 267.091 816.962 268.495C818.501 269.9 819.431 271.849 819.555 273.928C819.656 275.728 819.146 277.51 818.108 278.984C817.069 280.457 815.564 281.537 813.835 282.048" fill="#F7CCB9"/>
<path d="M793.534 270.228C792.758 268.856 791.511 267.812 790.024 267.288L793.534 270.228Z" fill="white"/>
<path d="M793.534 270.228C792.758 268.856 791.511 267.812 790.024 267.288" stroke="black" stroke-width="1.5" stroke-linecap="round" stroke-linejoin="round"/>
<path d="M762.944 270.228C763.72 268.856 764.967 267.812 766.454 267.288L762.944 270.228Z" fill="white"/>
<path d="M762.944 270.228C763.72 268.856 764.967 267.812 766.454 267.288" stroke="black" stroke-width="1.5" stroke-linecap="round" stroke-linejoin="round"/>
<path d="M792.495 306.558L784.735 308.308C781.435 309.093 777.985 308.987 774.739 307.999C771.494 307.012 768.569 305.179 766.265 302.688C763.826 299.979 762.197 296.639 761.565 293.048C761.287 291.318 761.253 289.558 761.465 287.818C762.195 281.118 762.535 278.708 762.955 274.048C763.875 263.938 760.165 262.788 761.675 253.848C762.165 250.958 762.805 247.218 765.345 243.848C771.595 235.428 784.125 235.998 786.155 236.118C788.635 236.268 790.675 236.028 791.995 236.118" stroke="black" stroke-width="1.5" stroke-linecap="round" stroke-linejoin="round"/>
<path fill-rule="evenodd" clip-rule="evenodd" d="M209.698 533.946C209.309 533.804 208.878 534.003 208.736 534.392C208.593 534.781 208.793 535.212 209.182 535.354V535.355H209.183L209.19 535.358L209.225 535.371C209.257 535.383 209.307 535.403 209.374 535.429C209.507 535.483 209.708 535.567 209.973 535.684C210.503 535.917 211.286 536.284 212.287 536.812C214.289 537.867 217.16 539.564 220.608 542.122C227.503 547.238 236.712 555.803 245.896 569.572C264.262 597.106 282.559 645.507 281.98 728.875C281.977 729.289 282.311 729.628 282.725 729.63C283.139 729.633 283.477 729.3 283.48 728.886C283.761 688.421 279.607 656.129 273.139 630.422L386.723 547.346C387.057 547.101 387.13 546.632 386.886 546.297C386.641 545.963 386.172 545.89 385.838 546.135L272.74 628.855C265.881 602.261 256.541 582.828 247.144 568.739C237.86 554.821 228.53 546.132 221.502 540.918C217.988 538.311 215.052 536.573 212.987 535.485C211.954 534.94 211.139 534.558 210.579 534.311C210.299 534.188 210.082 534.098 209.934 534.038C209.86 534.008 209.803 533.986 209.763 533.971L209.717 533.953L209.704 533.948L209.7 533.947C209.699 533.946 209.698 533.946 209.44 534.65L209.698 533.946Z" fill="black"/>
<path d="M167.29 563.58C192.855 563.58 213.58 542.855 213.58 517.29C213.58 491.725 192.855 471 167.29 471C141.725 471 121 491.725 121 517.29C121 542.855 141.725 563.58 167.29 563.58Z" fill="#F25A33" stroke="black" stroke-width="1.5" stroke-linecap="round" stroke-linejoin="round"/>
<path d="M259.41 591.68C284.621 564.073 301.924 530.181 309.5 493.57C310.394 489.484 309.749 485.211 307.69 481.57C305.817 478.349 302.867 475.891 299.36 474.63C297.607 474.021 295.754 473.753 293.9 473.84C291.53 473.972 289.221 474.646 287.153 475.812C285.084 476.977 283.311 478.601 281.97 480.56C274.829 490.714 269.525 502.043 266.3 514.03C264.76 519.83 263.79 525.51 262.16 546.27C261.27 557.54 260.21 573.03 259.41 591.68Z" fill="#C8B571" stroke="black" stroke-width="1.5" stroke-linecap="round" stroke-linejoin="round"/>
<path d="M223.05 621.169C217.336 624.655 210.741 626.424 204.05 626.268C199.29 626.118 194.23 624.888 190.7 621.208C189.82 620.278 187.42 617.77 187.4 614.32C187.4 609.32 192.34 604.259 200.07 601.919L258.2 591.729C251.36 599.596 243.696 606.707 235.34 612.94C231.387 615.892 227.285 618.639 223.05 621.169Z" fill="#C8B571" stroke="black" stroke-width="1.5" stroke-linecap="round" stroke-linejoin="round"/>
<path fill-rule="evenodd" clip-rule="evenodd" d="M297.039 497.144C297.174 496.752 296.965 496.326 296.574 496.191C296.182 496.056 295.755 496.265 295.621 496.657C291.743 507.936 287.612 519.409 283.228 531.076C275.318 552.077 267.176 572.117 258.803 591.196C258.56 590.907 258.132 590.841 257.811 591.057C241.298 602.159 222.896 610.15 203.511 614.639C203.107 614.732 202.856 615.135 202.949 615.539C203.043 615.942 203.446 616.194 203.849 616.1C223.412 611.571 241.983 603.505 258.648 592.302C258.715 592.257 258.772 592.203 258.82 592.143C258.893 592.238 258.991 592.316 259.108 592.367C259.488 592.534 259.93 592.361 260.097 591.982C268.509 572.822 276.687 552.696 284.632 531.605V531.604C289.021 519.925 293.157 508.438 297.039 497.144Z" fill="black"/>
<path d="M404.65 557.34C415.756 557.34 424.76 548.337 424.76 537.23C424.76 526.124 415.756 517.12 404.65 517.12C393.544 517.12 384.54 526.124 384.54 537.23C384.54 548.337 393.544 557.34 404.65 557.34Z" fill="#F25A33" stroke="black" stroke-width="1.5" stroke-linecap="round" stroke-linejoin="round"/>
<path d="M367.17 496.17C367.09 489.44 362.17 484.57 357.25 484.6C352.19 484.6 349.11 489.89 348.98 490.11C344.46 497.472 341.625 505.743 340.68 514.33C340.01 520.86 340.68 525.97 341.78 532.51C344.086 546.162 347.12 559.681 350.87 573.01C361.482 548.775 367.029 522.626 367.17 496.17Z" fill="#C8B571" stroke="black" stroke-width="1.5" stroke-linecap="round" stroke-linejoin="round"/>
<path d="M233.68 644.27C225.68 639.87 216.54 643.27 213.85 649.5C211.85 654.14 213.46 660.26 217.98 664.38C232.4 679.08 243.92 689.52 252.14 696.62C257.71 701.42 266.14 708.49 275.01 720.31C277.783 724.029 280.36 727.891 282.73 731.88C282.812 712.059 277.165 692.637 266.47 675.95C258.081 663.042 246.869 652.209 233.68 644.27Z" fill="#C8B571" stroke="black" stroke-width="1.5" stroke-linecap="round" stroke-linejoin="round"/>
<path fill-rule="evenodd" clip-rule="evenodd" d="M361.027 502.825C361.063 502.412 360.757 502.048 360.345 502.013C359.932 501.977 359.569 502.282 359.533 502.695C358.667 512.684 357.565 522.958 356.226 533.515C354.478 547.232 352.43 560.369 350.172 572.877C350.098 573.284 350.369 573.674 350.777 573.748C351.184 573.821 351.575 573.551 351.648 573.143C353.91 560.611 355.962 547.448 357.714 533.705V533.704C359.055 523.128 360.16 512.835 361.027 502.825ZM225.779 654.082C225.415 653.883 224.959 654.018 224.761 654.382C224.563 654.745 224.698 655.201 225.061 655.399C236.797 661.789 261.979 677.786 275.151 708.485C278.373 716.018 280.67 723.915 281.99 732.001C282.057 732.41 282.442 732.687 282.851 732.62C283.26 732.554 283.537 732.168 283.47 731.759C282.131 723.553 279.8 715.54 276.53 707.895H276.529C263.16 676.734 237.623 660.531 225.779 654.082Z" fill="black"/>
<path d="M242.02 728.39H324.32L306.81 784.66C305.2 789.829 301.979 794.349 297.618 797.559C293.257 800.768 287.985 802.499 282.57 802.5C277.07 802.497 271.72 800.709 267.325 797.403C262.93 794.097 259.728 789.453 258.2 784.17L242.02 728.39Z" fill="white" stroke="black" stroke-width="1.5" stroke-linecap="round" stroke-linejoin="round"/>
<path d="M145.84 505.22C152.992 505.22 158.79 499.422 158.79 492.27C158.79 485.118 152.992 479.32 145.84 479.32C138.688 479.32 132.89 485.118 132.89 492.27C132.89 499.422 138.688 505.22 145.84 505.22Z" fill="black" stroke="black" stroke-width="1.5" stroke-linecap="round" stroke-linejoin="round"/>
<path d="M411.53 534.9C415.761 534.9 419.19 531.698 419.19 527.75C419.19 523.801 415.761 520.6 411.53 520.6C407.3 520.6 403.87 523.801 403.87 527.75C403.87 531.698 407.3 534.9 411.53 534.9Z" fill="black" stroke="black" stroke-width="1.5" stroke-linecap="round" stroke-linejoin="round"/>
<path d="M320.17 742.01H246.62" stroke="black" stroke-width="1.5" stroke-linecap="round" stroke-linejoin="round"/>
<path d="M915.79 761.76L913.75 801.59H922.94L934.17 761.76" fill="#FFCD88"/>
<path d="M915.79 761.76L913.75 801.59H922.94L934.17 761.76" stroke="black" stroke-width="1.5" stroke-linecap="round" stroke-linejoin="round"/>
<path d="M1067.24 761.76L1069.28 801.59H1060.09L1048.86 761.76" fill="#FFCD88"/>
<path d="M1067.24 761.76L1069.28 801.59H1060.09L1048.86 761.76" stroke="black" stroke-width="1.5" stroke-linecap="round" stroke-linejoin="round"/>
<path d="M1075.62 485H902V761.77H1075.62V485Z" fill="#FFE1B8" stroke="black" stroke-width="1.5" stroke-linecap="round" stroke-linejoin="round"/>
<path d="M1064.9 494.77H912.73V752H1064.9V494.77Z" fill="#FFE1B8" stroke="black" stroke-width="1.5" stroke-linecap="round" stroke-linejoin="round"/>
<path d="M913.24 693.59H1064.9" stroke="black" stroke-width="1.5" stroke-linecap="round" stroke-linejoin="round"/>
<path d="M913.24 627.21H1064.9" stroke="black" stroke-width="1.5" stroke-linecap="round" stroke-linejoin="round"/>
<path d="M913.24 560.83H1064.9" stroke="black" stroke-width="1.5" stroke-linecap="round" stroke-linejoin="round"/>
<path fill-rule="evenodd" clip-rule="evenodd" d="M968.39 494.93H1012.82V501.29H968.39V494.93ZM1012.82 560.83H968.39V567.19H1012.82V560.83ZM968.39 627.21H1012.82V633.57H968.39V627.21ZM968.39 693.59H1012.82V699.95H968.39V693.59Z" fill="#FFCD88"/>
<path d="M1012.82 494.93H1013.57C1013.57 494.516 1013.23 494.18 1012.82 494.18V494.93ZM968.39 494.93V494.18C967.976 494.18 967.64 494.516 967.64 494.93H968.39ZM1012.82 501.29V502.04C1013.23 502.04 1013.57 501.704 1013.57 501.29H1012.82ZM968.39 501.29H967.64C967.64 501.704 967.976 502.04 968.39 502.04V501.29ZM968.39 560.83V560.08C967.976 560.08 967.64 560.416 967.64 560.83H968.39ZM1012.82 560.83H1013.57C1013.57 560.416 1013.23 560.08 1012.82 560.08V560.83ZM968.39 567.19H967.64C967.64 567.604 967.976 567.94 968.39 567.94V567.19ZM1012.82 567.19V567.94C1013.23 567.94 1013.57 567.604 1013.57 567.19H1012.82ZM1012.82 627.21H1013.57C1013.57 626.796 1013.23 626.46 1012.82 626.46V627.21ZM968.39 627.21V626.46C967.976 626.46 967.64 626.796 967.64 627.21H968.39ZM1012.82 633.57V634.32C1013.23 634.32 1013.57 633.984 1013.57 633.57H1012.82ZM968.39 633.57H967.64C967.64 633.984 967.976 634.32 968.39 634.32V633.57ZM1012.82 693.59H1013.57C1013.57 693.176 1013.23 692.84 1012.82 692.84V693.59ZM968.39 693.59V692.84C967.976 692.84 967.64 693.176 967.64 693.59H968.39ZM1012.82 699.95V700.7C1013.23 700.7 1013.57 700.364 1013.57 699.95H1012.82ZM968.39 699.95H967.64C967.64 700.364 967.976 700.7 968.39 700.7V699.95ZM1012.82 494.18H968.39V495.68H1012.82V494.18ZM1013.57 501.29V494.93H1012.07V501.29H1013.57ZM968.39 502.04H1012.82V500.54H968.39V502.04ZM967.64 494.93V501.29H969.14V494.93H967.64ZM968.39 561.58H1012.82V560.08H968.39V561.58ZM969.14 567.19V560.83H967.64V567.19H969.14ZM1012.82 566.44H968.39V567.94H1012.82V566.44ZM1012.07 560.83V567.19H1013.57V560.83H1012.07ZM1012.82 626.46H968.39V627.96H1012.82V626.46ZM1013.57 633.57V627.21H1012.07V633.57H1013.57ZM968.39 634.32H1012.82V632.82H968.39V634.32ZM967.64 627.21V633.57H969.14V627.21H967.64ZM1012.82 692.84H968.39V694.34H1012.82V692.84ZM1013.57 699.95V693.59H1012.07V699.95H1013.57ZM968.39 700.7H1012.82V699.2H968.39V700.7ZM967.64 693.59V699.95H969.14V693.59H967.64Z" fill="black"/>
<path d="M915.77 761.76C915.71 763.23 915.64 764.7 915.58 766.17L932.69 766.36C933.18 764.83 933.69 763.3 934.15 761.76H915.77Z" fill="black"/>
<path d="M1048.77 761.76L1050.3 766.87L1067.41 766.36C1067.33 764.83 1067.24 763.3 1067.16 761.76H1048.77Z" fill="black"/>
<path d="M150 124.81H231.47" stroke="#CCCCCC" stroke-width="1.5" stroke-linecap="round" stroke-linejoin="round"/>
<path d="M173.61 150.79H255.09" stroke="#CCCCCC" stroke-width="1.5" stroke-linecap="round" stroke-linejoin="round"/>
<path d="M184.24 113V161.42" stroke="#CCCCCC" stroke-width="1.5" stroke-linecap="round" stroke-linejoin="round"/>
<path d="M227.931 113V161.42" stroke="#CCCCCC" stroke-width="1.5" stroke-linecap="round" stroke-linejoin="round"/>
<path d="M287 223.81H368.47" stroke="#CCCCCC" stroke-width="1.5" stroke-linecap="round" stroke-linejoin="round"/>
<path d="M310.61 249.79H392.09" stroke="#CCCCCC" stroke-width="1.5" stroke-linecap="round" stroke-linejoin="round"/>
<path d="M321.24 212V260.42" stroke="#CCCCCC" stroke-width="1.5" stroke-linecap="round" stroke-linejoin="round"/>
<path d="M364.931 212V260.42" stroke="#CCCCCC" stroke-width="1.5" stroke-linecap="round" stroke-linejoin="round"/>
<path d="M426 126.81H507.47" stroke="#CCCCCC" stroke-width="1.5" stroke-linecap="round" stroke-linejoin="round"/>
<path d="M449.61 152.79H531.09" stroke="#CCCCCC" stroke-width="1.5" stroke-linecap="round" stroke-linejoin="round"/>
<path d="M460.24 115V163.42" stroke="#CCCCCC" stroke-width="1.5" stroke-linecap="round" stroke-linejoin="round"/>
<path d="M503.931 115V163.42" stroke="#CCCCCC" stroke-width="1.5" stroke-linecap="round" stroke-linejoin="round"/>
<path d="M438.321 511.118C437.093 522.092 433.226 532.604 427.051 541.758C418.681 553.838 413.231 554.598 409.051 556.248" stroke="black" stroke-width="1.5" stroke-linecap="round" stroke-linejoin="round"/>
<path d="M502.751 434.159L501.051 426.479L502.751 434.159Z" fill="white"/>
<path d="M502.751 434.159L501.051 426.479" stroke="black" stroke-width="1.5" stroke-linecap="round" stroke-linejoin="round"/>
<path d="M423.9 436.948L429.52 432.608" stroke="black" stroke-width="1.5" stroke-linecap="round" stroke-linejoin="round"/>
<path d="M412.641 442.799L410.111 428.019" stroke="black" stroke-width="1.5" stroke-linecap="round" stroke-linejoin="round"/>
<path d="M429.52 392.948C429.697 401.31 429.182 409.672 427.98 417.948C427.086 424.122 425.807 430.234 424.15 436.248L421.09 418.248L429.52 392.948Z" fill="black" stroke="black" stroke-width="1.5" stroke-linecap="round" stroke-linejoin="round"/>
<path d="M511.561 405.718C510.811 410.438 510.191 415.568 509.821 421.068C509.561 424.928 509.441 428.608 509.431 432.068C509.431 432.068 509.581 449.508 512.861 463.068C512.981 463.578 513.041 463.798 513.001 463.698C509.774 453.485 506.541 443.272 503.301 433.058L511.561 405.718Z" fill="black" stroke="black" stroke-width="1.5" stroke-linecap="round" stroke-linejoin="round"/>
<path d="M582.15 359.898C588.27 365.818 594.28 372.118 600.4 378.038L582.15 359.898Z" fill="#D88B6D"/>
<path d="M582.15 359.898C588.27 365.818 594.28 372.118 600.4 378.038" stroke="black" stroke-width="1.5" stroke-linecap="round" stroke-linejoin="round"/>
<path d="M628.78 363.618C628.728 363.513 628.668 363.414 628.6 363.319C628.403 363.016 628.168 362.741 627.9 362.499C627.392 362.02 626.742 361.719 626.048 361.64C625.355 361.56 624.654 361.707 624.05 362.059C615.58 367.319 608.45 372.169 599.98 377.439C606.93 370.989 616.56 362.889 623.5 356.439C624.154 355.762 624.541 354.873 624.591 353.934C624.64 352.995 624.349 352.07 623.77 351.329L623.72 351.259C622.26 349.129 619.44 348.559 617.72 350.029C602.63 362.959 593.46 370.719 593.22 370.449C592.98 370.179 601.74 361.809 616.5 348.189C617.264 347.378 617.679 346.3 617.655 345.187C617.63 344.074 617.169 343.015 616.37 342.239L616.31 342.169C615.604 341.286 614.58 340.716 613.458 340.581C612.335 340.446 611.205 340.758 610.31 341.449C602.77 348.209 593.4 356.679 585.86 363.449C593.1 356.109 602.16 347.069 609.41 339.739C610.143 338.896 610.526 337.805 610.479 336.689C610.433 335.573 609.961 334.517 609.16 333.739L609.1 333.669C607.997 332.899 606.685 332.484 605.34 332.479C604.099 332.585 602.929 333.106 602.02 333.959C600.77 335.049 587.62 348.239 569.76 366.499C569.837 366.14 569.934 365.786 570.05 365.439C570.385 364.414 570.856 363.438 571.45 362.539L574.11 358.539C575.6 356.319 574.74 353.128 572.19 351.428C569.64 349.718 566.37 350.148 564.88 352.368L557.79 362.979C556.641 364.704 555.854 366.645 555.477 368.684C555.101 370.722 555.143 372.816 555.6 374.839V374.949C556.345 377.94 557.578 380.789 559.25 383.379C561.02 386.379 561.56 386.779 561.63 388.129C561.64 388.292 561.64 388.454 561.63 388.618L561.47 388.549L541.47 441.789C530.47 396.469 522.85 385.789 517.7 386.069C512.26 386.399 507.51 399.139 501.08 397.709C498.94 397.229 499 395.319 494.67 392.829C493.34 392.069 485.33 386.999 483.3 388.109C478.1 390.929 505.55 429.329 511.13 466.279C511.13 466.279 514 485.209 524.57 494.339C526.76 496.176 529.227 497.655 531.88 498.719C535.997 500.193 540.434 500.539 544.73 499.719C549.693 497.666 554.215 494.679 558.05 490.919C563.074 485.722 566.763 479.384 568.8 472.449C573.91 456.969 581.88 432.679 591.19 401.999L598.88 391.279C604.33 385.279 610 382.279 613.51 379.349C617.75 375.829 622 372.348 628.13 367.428C628.67 366.971 629.032 366.339 629.151 365.642C629.27 364.945 629.138 364.227 628.78 363.618Z" fill="#D88B6D" stroke="black" stroke-width="1.5" stroke-linecap="round" stroke-linejoin="round"/>
<path d="M496.961 369.739C499.856 368.317 502.963 367.374 506.161 366.949C509.071 366.569 514.621 365.899 520.451 368.719C523.312 370.118 525.837 372.121 527.851 374.589C535.561 383.699 533.851 396.199 533.471 398.839C536.671 403.712 539.868 408.582 543.061 413.449L511.001 428.449L496.961 369.739Z" fill="#AD85AD" stroke="black" stroke-width="1.5" stroke-linecap="round" stroke-linejoin="round"/>
<path d="M508.921 386.398C509.531 420.362 513.724 454.166 521.431 487.248L511 489L483.691 423.308C487.611 416.16 491.91 409.227 496.571 402.538C500.711 396.608 504.881 391.218 508.921 386.398Z" fill="#AD85AD" stroke="black" stroke-width="1.5" stroke-linecap="round" stroke-linejoin="round"/>
<path d="M489.961 760.329C477.641 760.409 465.261 759.859 452.961 759.619C454.414 773.259 455.868 786.899 457.321 800.539L454.501 816.039C457.841 826.399 467.501 833.189 477.771 832.669C482.153 832.379 486.365 830.862 489.925 828.291C493.485 825.719 496.249 822.198 497.901 818.129L487.461 798.129L489.961 760.329Z" fill="#D88B6D" stroke="black" stroke-width="1.5" stroke-linecap="round" stroke-linejoin="round"/>
<path d="M434.98 792.309C436.76 785.628 439.314 779.177 442.59 773.089L461.93 756.509C453.381 747.487 444.368 738.916 434.93 730.829C431.19 734.919 427.21 739.059 422.39 743.689C413.99 751.689 406.6 757.869 401.51 761.899C401.08 765.559 397.92 796.149 418.4 812.529C422.464 815.76 427.093 818.208 432.05 819.749C431.598 810.505 432.587 801.248 434.98 792.309Z" fill="#D88B6D" stroke="black" stroke-width="1.5" stroke-linecap="round" stroke-linejoin="round"/>
<path fill-rule="evenodd" clip-rule="evenodd" d="M416.65 750.556C416.936 751.102 417.074 751.713 417.051 752.329C416.777 763.275 416.481 774.215 416.161 785.149C416.089 787.553 416.331 789.957 416.881 792.299C418.535 799.016 421.358 805.389 425.221 811.129L425.236 811.151C426.407 812.897 429.43 817.406 431.521 816.789C432.002 816.609 432.396 816.251 432.621 815.789L433.481 816.629C434.311 817.422 434.989 818.361 435.481 819.399L442.381 833.939C443.461 836.299 442.711 839.559 440.461 841.939C437.711 844.859 433.691 845.479 431.461 843.339L406.721 818.339C406.08 817.688 405.651 816.858 405.491 815.959L398.491 777.399L380.851 792.459L376.641 788.369C380.028 784.177 383.199 779.814 386.141 775.299C386.551 774.699 387.361 773.419 389.711 769.699C390.601 768.302 391.288 767.212 391.847 766.323C392.915 764.627 393.522 763.663 394.211 762.699C397.221 758.489 402.381 753.419 411.911 749.069C412.457 748.785 413.069 748.649 413.685 748.676C414.3 748.702 414.898 748.89 415.419 749.22C415.939 749.55 416.363 750.011 416.65 750.556ZM457.87 836.969C454.898 830.418 453.724 823.193 454.47 816.039C456.51 817.919 465.12 825.419 477.96 825.179C485.143 825.013 492.087 822.561 497.78 818.179C504.88 827.129 507.83 835.769 504.69 840.309C503.38 842.219 500.9 843.559 489.54 844.399C482.886 844.899 476.207 845.006 469.54 844.719C467.08 844.633 464.691 843.873 462.633 842.522C460.575 841.172 458.927 839.282 457.87 837.059V836.969Z" fill="#FFCD88"/>
<path d="M417.051 752.329L416.301 752.3V752.31L417.051 752.329ZM416.161 785.149L416.91 785.171L416.161 785.149ZM416.881 792.299L416.15 792.47L416.152 792.478L416.881 792.299ZM425.221 811.129L425.844 810.711L425.843 810.71L425.221 811.129ZM425.236 811.151L425.858 810.733L425.236 811.151ZM431.521 816.789L431.733 817.508C431.75 817.503 431.766 817.497 431.783 817.491L431.521 816.789ZM432.621 815.789L433.145 815.252C432.972 815.084 432.729 815.008 432.492 815.05C432.254 815.091 432.051 815.244 431.946 815.461L432.621 815.789ZM433.481 816.629L432.957 817.165L432.962 817.171L433.481 816.629ZM435.481 819.399L434.803 819.72L435.481 819.399ZM442.381 833.939L443.063 833.627L443.058 833.617L442.381 833.939ZM440.461 841.939L439.916 841.423L439.915 841.424L440.461 841.939ZM431.461 843.339L430.928 843.866C430.932 843.871 430.937 843.875 430.941 843.88L431.461 843.339ZM406.721 818.339L406.186 818.865L406.188 818.866L406.721 818.339ZM405.491 815.959L406.229 815.827V815.825L405.491 815.959ZM398.491 777.399L399.229 777.265C399.181 777.001 398.995 776.782 398.742 776.692C398.49 776.602 398.208 776.654 398.004 776.828L398.491 777.399ZM380.851 792.459L380.328 792.997C380.606 793.266 381.043 793.28 381.338 793.029L380.851 792.459ZM376.641 788.369L376.057 787.897C375.814 788.199 375.84 788.636 376.118 788.907L376.641 788.369ZM386.141 775.299L385.521 774.876C385.518 774.88 385.515 774.885 385.512 774.889L386.141 775.299ZM389.711 769.699L389.078 769.295L389.077 769.298L389.711 769.699ZM391.847 766.323L392.482 766.723L391.847 766.323ZM394.211 762.699L393.601 762.262L393.6 762.263L394.211 762.699ZM411.911 749.069L412.222 749.751C412.234 749.746 412.245 749.74 412.256 749.734L411.911 749.069ZM415.419 749.22L415.82 748.586L415.419 749.22ZM454.47 816.039L454.979 815.487C454.77 815.295 454.471 815.237 454.205 815.337C453.94 815.437 453.754 815.679 453.724 815.961L454.47 816.039ZM457.87 836.969H458.62C458.62 836.862 458.597 836.756 458.553 836.659L457.87 836.969ZM477.96 825.179L477.974 825.928H477.978L477.96 825.179ZM497.78 818.179L498.368 817.712C498.113 817.391 497.648 817.334 497.323 817.584L497.78 818.179ZM504.69 840.309L504.073 839.882L504.072 839.884L504.69 840.309ZM489.54 844.399L489.485 843.651H489.484L489.54 844.399ZM469.54 844.719L469.573 843.969H469.566L469.54 844.719ZM462.633 842.522L463.044 841.895L462.633 842.522ZM457.87 837.059H457.12C457.12 837.17 457.145 837.28 457.193 837.381L457.87 837.059ZM417.8 752.358C417.829 751.611 417.661 750.869 417.314 750.208L415.986 750.905C416.211 751.334 416.32 751.815 416.301 752.3L417.8 752.358ZM416.91 785.171C417.23 774.236 417.527 763.295 417.8 752.347L416.301 752.31C416.028 763.256 415.731 774.194 415.411 785.127L416.91 785.171ZM417.611 792.127C417.076 789.849 416.841 787.51 416.91 785.171L415.411 785.126C415.338 787.596 415.586 790.065 416.15 792.47L417.611 792.127ZM425.843 810.71C422.03 805.044 419.242 798.751 417.609 792.119L416.152 792.478C417.828 799.281 420.687 805.735 424.598 811.547L425.843 810.71ZM425.858 810.733L425.844 810.711L424.598 811.546L424.613 811.569L425.858 810.733ZM431.308 816.069C431.084 816.136 430.733 816.092 430.211 815.773C429.702 815.463 429.147 814.961 428.586 814.349C427.466 813.129 426.448 811.612 425.858 810.733L424.613 811.569C425.194 812.436 426.273 814.047 427.48 815.363C428.083 816.02 428.748 816.638 429.431 817.054C430.1 817.462 430.912 817.75 431.733 817.508L431.308 816.069ZM431.946 815.461C431.806 815.75 431.559 815.974 431.259 816.086L431.783 817.491C432.445 817.244 432.986 816.752 433.295 816.116L431.946 815.461ZM434.005 816.092L433.145 815.252L432.097 816.325L432.957 817.165L434.005 816.092ZM436.158 819.077C435.627 817.957 434.895 816.943 433.999 816.086L432.962 817.171C433.726 817.901 434.35 818.765 434.803 819.72L436.158 819.077ZM443.058 833.617L436.158 819.077L434.803 819.72L441.703 834.26L443.058 833.617ZM441.006 842.454C443.406 839.915 444.303 836.336 443.063 833.627L441.699 834.251C442.619 836.261 442.015 839.202 439.916 841.423L441.006 842.454ZM430.941 843.88C433.595 846.427 438.104 845.535 441.007 842.453L439.915 841.424C437.318 844.182 433.786 844.531 431.98 842.798L430.941 843.88ZM406.188 818.866L430.928 843.866L431.994 842.811L407.254 817.811L406.188 818.866ZM404.752 816.09C404.939 817.139 405.439 818.106 406.186 818.865L407.255 817.812C406.72 817.27 406.363 816.577 406.229 815.827L404.752 816.09ZM397.753 777.533L404.753 816.093L406.229 815.825L399.229 777.265L397.753 777.533ZM381.338 793.029L398.978 777.969L398.004 776.828L380.364 791.888L381.338 793.029ZM376.118 788.907L380.328 792.997L381.373 791.921L377.163 787.831L376.118 788.907ZM385.512 774.889C382.584 779.384 379.429 783.725 376.057 787.897L377.224 788.84C380.627 784.628 383.813 780.245 386.769 775.708L385.512 774.889ZM389.077 769.298C386.72 773.028 385.921 774.29 385.521 774.876L386.76 775.722C387.18 775.107 388.001 773.81 390.345 770.099L389.077 769.298ZM391.213 765.924C390.653 766.812 389.968 767.901 389.078 769.295L390.343 770.102C391.235 768.703 391.922 767.612 392.482 766.723L391.213 765.924ZM393.6 762.263C392.896 763.249 392.276 764.233 391.213 765.924L392.482 766.723C393.553 765.021 394.147 764.077 394.821 763.135L393.6 762.263ZM411.599 748.386C401.953 752.789 396.689 757.943 393.601 762.262L394.821 763.135C397.752 759.035 402.808 754.048 412.222 749.751L411.599 748.386ZM413.717 747.926C412.97 747.894 412.228 748.058 411.565 748.403L412.256 749.734C412.687 749.511 413.168 749.404 413.653 749.425L413.717 747.926ZM415.82 748.586C415.189 748.186 414.464 747.958 413.717 747.926L413.653 749.425C414.137 749.446 414.607 749.593 415.017 749.853L415.82 748.586ZM417.314 750.208C416.967 749.546 416.451 748.987 415.82 748.586L415.017 749.853C415.426 750.113 415.76 750.475 415.986 750.905L417.314 750.208ZM453.724 815.961C452.964 823.248 454.16 830.606 457.187 837.278L458.553 836.659C455.636 830.229 454.484 823.139 455.216 816.116L453.724 815.961ZM477.946 824.429C465.406 824.663 456.981 817.332 454.979 815.487L453.962 816.59C456.04 818.505 464.835 826.174 477.974 825.928L477.946 824.429ZM497.323 817.584C491.756 821.869 484.967 824.267 477.943 824.429L477.978 825.928C485.32 825.759 492.418 823.253 498.238 818.773L497.323 817.584ZM505.307 840.735C507.073 838.182 507.05 834.602 505.79 830.668C504.521 826.71 501.954 822.232 498.368 817.712L497.193 818.645C500.707 823.075 503.165 827.393 504.361 831.126C505.565 834.885 505.448 837.895 504.073 839.882L505.307 840.735ZM489.596 845.147C495.285 844.726 498.816 844.177 501.105 843.472C503.435 842.754 504.539 841.855 505.309 840.733L504.072 839.884C503.532 840.672 502.741 841.398 500.663 842.038C498.545 842.691 495.155 843.231 489.485 843.651L489.596 845.147ZM469.508 845.468C476.205 845.756 482.913 845.649 489.597 845.146L489.484 843.651C482.859 844.149 476.21 844.255 469.573 843.969L469.508 845.468ZM462.221 843.149C464.394 844.576 466.917 845.378 469.514 845.468L469.566 843.969C467.244 843.888 464.987 843.171 463.044 841.895L462.221 843.149ZM457.193 837.381C458.309 839.728 460.049 841.723 462.221 843.149L463.044 841.895C461.101 840.62 459.546 838.835 458.548 836.736L457.193 837.381ZM457.12 836.969V837.059H458.62V836.969H457.12Z" fill="black"/>
<path d="M400.92 771.969C399.187 768.069 397.46 764.175 395.74 760.289C392.32 765.659 390.64 768.289 389.74 769.729C389.44 770.199 388.37 771.919 386.9 774.199L386.17 775.329C383.228 779.844 380.057 784.207 376.67 788.399L380.88 792.489L398.52 777.429L405.52 815.989C405.68 816.888 406.109 817.718 406.75 818.369L408.99 820.469C406.303 804.302 403.613 788.135 400.92 771.969Z" fill="black"/>
<path d="M545.572 662.718C549.481 658.847 552.56 654.219 554.622 649.118C559.922 635.398 558.872 626.118 556.222 617.968C547.372 590.918 538.792 563.338 529.472 536.868C524.882 523.868 516.702 504.688 507.642 480.608C482.442 485.465 456.539 485.38 431.372 480.358C422.052 495.658 411.212 515.178 409.252 545.838C408.862 551.838 408.462 556.398 409.092 560.738C414.972 601.508 417.812 605.348 422.562 623.578C424.472 630.918 425.672 636.578 425.942 637.848C430.092 656.848 431.222 681.968 431.562 691.468L401.432 718.528C402.172 719.998 403.292 722.078 404.782 724.528C407.602 729.061 410.879 733.293 414.562 737.158C418.652 741.498 426.072 751.018 440.562 773.088C439.272 777.088 436.642 787.808 435.362 791.848C448.212 797.947 462.538 800.246 476.651 798.475C490.765 796.703 504.078 790.934 515.022 781.848C508.288 760.742 501.565 739.635 494.852 718.528C518.242 692.948 535.922 673.238 545.572 662.718ZM496.412 620.528L481.052 638.138C480.232 626.805 479.422 615.472 478.622 604.138C477.675 590.498 476.738 576.858 475.812 563.218C480.032 573.678 484.162 584.625 488.202 596.058C491.162 604.358 493.898 612.515 496.412 620.528Z" fill="#F25A33" stroke="black" stroke-width="1.5" stroke-linecap="round" stroke-linejoin="round"/>
<path d="M427.5 645.5L431.5 655.5" stroke="black" stroke-width="1.5" stroke-linecap="round" stroke-linejoin="round"/>
<path d="M475.85 563.178C474.85 552.298 473.94 535.408 472.98 524.528L485.24 514.528" fill="#F25A33"/>
<path d="M475.85 563.178C474.85 552.298 473.94 535.408 472.98 524.528L485.24 514.528" stroke="black" stroke-width="1.5" stroke-linecap="round" stroke-linejoin="round"/>
<path d="M431.561 691.508L481.051 638.138L431.561 691.508Z" fill="#F25A33"/>
<path d="M431.561 691.508L481.051 638.138" stroke="black" stroke-width="1.5" stroke-linecap="round" stroke-linejoin="round"/>
<path d="M494.88 718.568L446.37 781.888L440.59 773.088" fill="#F25A33"/>
<path d="M494.88 718.568L446.37 781.888L440.59 773.088" stroke="black" stroke-width="1.5" stroke-linecap="round" stroke-linejoin="round"/>
<path d="M495 719L498 731L467 756L495 719Z" fill="black" stroke="black" stroke-linecap="round" stroke-linejoin="round"/>
<path d="M497 369.5C500.453 371.417 503.477 372.449 506.071 375.428C512.071 382.348 515.981 392.878 514.121 420.428C513.711 426.428 513.191 430.928 512.621 434.608C511.991 438.788 511.441 442.288 510.961 445.278C510.061 450.898 509.411 454.788 509.281 455.538C508.441 460.668 507.611 468.818 507.671 482.008C499.532 485.134 491.043 487.256 482.391 488.328C479.731 488.648 474.761 489.148 456.781 488.838C446.491 488.658 437.951 488.318 431.941 488.028C431.634 478.862 431.154 469.505 430.501 459.958C428.476 430.604 442.229 398.455 437 369.5" fill="white"/>
<path d="M497 369.5C500.453 371.417 503.477 372.449 506.071 375.428C512.071 382.348 515.981 392.878 514.121 420.428C513.711 426.428 513.191 430.928 512.621 434.608C511.991 438.788 511.441 442.288 510.961 445.278C510.061 450.898 509.411 454.788 509.281 455.538C508.441 460.668 507.611 468.818 507.671 482.008C499.532 485.134 491.043 487.256 482.391 488.328C479.731 488.648 474.761 489.148 456.781 488.838C446.491 488.658 437.951 488.318 431.941 488.028C431.634 478.862 431.154 469.505 430.501 459.958C428.476 430.604 442.229 398.455 437 369.5H497Z" stroke="black" stroke-width="1.5" stroke-linecap="round" stroke-linejoin="round"/>
<path d="M463.99 424.968C462.79 440.878 461.4 445.448 460.4 462.048C459.75 472.888 458.08 489.588 458.06 495.498L409.06 484.948C408.802 485.062 408.522 485.115 408.24 485.101C407.959 485.087 407.685 485.007 407.44 484.868C403.95 482.398 416.77 461.238 418.04 444.428C418.34 440.428 418.23 436.258 418.23 436.258C418.02 431.718 417.23 428.668 416.99 423.938C416.99 423.938 416.83 421.008 416.99 416.588C417.24 409.538 419.99 392.758 425.41 370.818C429.53 369.839 433.724 369.207 437.95 368.928C441.767 368.669 445.598 368.706 449.41 369.038C455.816 375.444 460.421 383.426 462.76 392.178C462.91 392.648 466.05 397.888 463.99 424.968Z" fill="#AD85AD" stroke="black" stroke-width="1.5" stroke-linecap="round" stroke-linejoin="round"/>
<path d="M431.052 515.078L408.832 482.838C412.165 472.558 415.785 462.018 419.692 451.218C423.598 440.418 427.555 430.085 431.562 420.218C423.781 407.149 412.601 396.435 399.212 389.218C390.852 418.945 382.485 448.675 374.112 478.408C373.358 482.47 373.474 486.645 374.452 490.658C375.158 493.54 376.305 496.296 377.852 498.828L407.802 541.488C409.022 546.155 410.245 550.802 411.472 555.428C414.256 554.188 416.873 552.602 419.262 550.708C422.494 548.052 425.291 544.908 427.552 541.388C431.952 534.667 435.124 527.218 436.922 519.388L431.052 515.078Z" fill="#D88B6D" stroke="black" stroke-width="1.5" stroke-linecap="round" stroke-linejoin="round"/>
<path d="M436.05 417.649C432.303 428.809 428.557 439.965 424.81 451.119L364 434.119L394.26 399.399C394.61 386.399 401.47 375.399 411.55 371.609C416.443 369.881 421.753 369.724 426.74 371.159" fill="#AD85AD"/>
<path d="M436.05 417.649C432.303 428.809 428.557 439.965 424.81 451.119L364 434.119L394.26 399.399C394.61 386.399 401.47 375.399 411.55 371.609C416.443 369.881 421.753 369.724 426.74 371.159" stroke="black" stroke-width="1.5" stroke-linecap="round" stroke-linejoin="round"/>
<path d="M569.851 365.968C569.29 367.364 569.092 368.88 569.276 370.374C569.459 371.867 570.018 373.29 570.901 374.508" stroke="black" stroke-width="1.5" stroke-linecap="round" stroke-linejoin="round"/>
<path d="M541.52 441.809L536.32 456.359" stroke="black" stroke-width="1.5" stroke-linecap="round" stroke-linejoin="round"/>
<path d="M394.251 399.408L391.811 406.908" stroke="black" stroke-width="1.5" stroke-linecap="round" stroke-linejoin="round"/>
<path d="M533.472 398.838L533.432 405.888" stroke="black" stroke-width="1.5" stroke-linecap="round" stroke-linejoin="round"/>
<path d="M426.5 488.5L454.5 494.5L452.656 495.019C443.288 497.653 434.441 501.875 426.5 507.5L421.5 499L426.5 488.5Z" fill="black" stroke="black" stroke-linecap="round" stroke-linejoin="round"/>
<path d="M445.433 298.598C437.583 323.268 440.173 346.378 453.083 355.868C458.963 360.198 466.253 360.618 480.833 361.448C490.573 361.998 515.273 363.448 519.303 353.278C520.483 350.278 519.653 347.008 518.303 344.088C525.223 343.758 530.693 339.708 531.923 334.508C533.233 328.938 529.143 324.278 528.853 323.958C523.143 317.648 512.253 318.868 509.273 319.108C497.803 320.038 478.793 316.698 445.433 298.598Z" fill="black" stroke="black" stroke-width="1.5" stroke-linecap="round" stroke-linejoin="round"/>
<path d="M459.973 342.416L486.913 343.307C490.212 344.091 493.661 343.983 496.906 342.997C500.151 342.012 503.076 340.183 505.383 337.696C507.817 334.98 509.445 331.638 510.083 328.046C510.358 326.316 510.388 324.555 510.173 322.816C509.453 316.116 509.113 313.706 508.683 309.046C507.773 298.936 511.483 297.786 509.963 288.846C509.473 285.956 508.843 282.216 506.303 278.846C500.643 271.216 488.933 271.097 485.493 271.117C480.559 271.16 475.689 272.242 471.203 274.296L459.973 342.416Z" fill="#D88B6D"/>
<path d="M445.433 300.598C443.856 294.463 444.769 287.953 447.973 282.488C454.523 271.818 467.153 271.488 467.973 271.488L478.683 270.918C480.453 270.498 496.473 266.988 507.143 277.218C508.617 278.66 509.916 280.271 511.013 282.018C511.663 283.018 515.183 288.488 513.113 293.948C512.871 294.619 512.534 295.252 512.113 295.828C511.195 296.944 510.04 297.842 508.733 298.458C506.333 299.578 491.073 296.858 470.603 290.968C471.903 294.248 471.863 304.488 470.503 317.498C469.834 324.343 467.673 330.958 464.173 336.878C463.01 338.918 461.577 340.791 459.913 342.448C455.1 328.488 450.273 314.538 445.433 300.598Z" fill="black" stroke="black" stroke-width="1.5" stroke-linecap="round" stroke-linejoin="round"/>
<path d="M487.382 343.358C490.252 352.238 493.132 361.358 496.012 370.268C488.245 375.839 478.764 378.497 469.232 377.778C461.585 377.088 454.297 374.217 448.232 369.508L460.512 342.228" fill="#D88B6D"/>
<path d="M487.382 343.358C490.252 352.238 493.132 361.358 496.012 370.268C488.245 375.839 478.764 378.497 469.232 377.778C461.585 377.088 454.297 374.217 448.232 369.508L460.512 342.228" stroke="black" stroke-width="1.5" stroke-linecap="round" stroke-linejoin="round"/>
<path d="M495.113 319.337H496.773C497.399 319.334 498.012 319.161 498.546 318.835C499.08 318.509 499.514 318.043 499.802 317.488C500.091 316.933 500.222 316.31 500.181 315.686C500.141 315.062 499.931 314.46 499.573 313.947L495.113 307.577" stroke="black" stroke-width="1.5" stroke-linecap="round" stroke-linejoin="round"/>
<path d="M500.333 323.367C500.377 323.366 500.42 323.376 500.458 323.398C500.497 323.419 500.528 323.451 500.55 323.489C500.572 323.527 500.582 323.57 500.581 323.614C500.58 323.658 500.567 323.7 500.543 323.737C500.091 324.552 499.429 325.231 498.627 325.704C497.824 326.176 496.909 326.426 495.978 326.426C495.046 326.426 494.132 326.176 493.329 325.704C492.526 325.231 491.865 324.552 491.413 323.737C491.392 323.701 491.381 323.659 491.381 323.617C491.381 323.574 491.392 323.533 491.413 323.496C491.435 323.46 491.465 323.43 491.502 323.409C491.539 323.388 491.58 323.377 491.623 323.377L500.333 323.367Z" fill="black"/>
<path fill-rule="evenodd" clip-rule="evenodd" d="M484.482 309.887C484.482 311.373 483.851 312.577 483.072 312.577C482.294 312.577 481.662 311.373 481.662 309.887C481.662 308.402 482.294 307.197 483.072 307.197C483.851 307.197 484.482 308.402 484.482 309.887ZM506.052 309.887C506.052 311.373 505.421 312.577 504.642 312.577C503.864 312.577 503.232 311.373 503.232 309.887C503.232 308.402 503.864 307.197 504.642 307.197C505.421 307.197 506.052 308.402 506.052 309.887Z" fill="black"/>
<path d="M462.132 301.467L460.282 301.407C458.201 301.344 456.178 302.093 454.641 303.497C453.105 304.902 452.176 306.849 452.052 308.927C451.95 310.726 452.459 312.506 453.495 313.98C454.531 315.453 456.035 316.534 457.762 317.047" fill="#D88B6D"/>
<path d="M462.132 301.467L460.282 301.407C458.201 301.344 456.178 302.093 454.641 303.497C453.105 304.902 452.176 306.849 452.052 308.927C451.95 310.726 452.459 312.506 453.495 313.98C454.531 315.453 456.035 316.534 457.762 317.047" stroke="black" stroke-width="1.5" stroke-linecap="round" stroke-linejoin="round"/>
<path fill-rule="evenodd" clip-rule="evenodd" d="M478.072 305.227C478.848 303.855 480.095 302.811 481.582 302.287L478.072 305.227ZM508.662 305.227C507.886 303.855 506.639 302.811 505.152 302.287L508.662 305.227Z" fill="white"/>
<path fill-rule="evenodd" clip-rule="evenodd" d="M482.234 301.916C482.413 302.231 482.342 302.629 482.064 302.862L478.554 305.802C478.276 306.035 477.871 306.036 477.593 305.804C477.314 305.572 477.241 305.173 477.42 304.858C478.285 303.328 479.675 302.163 481.333 301.58C481.675 301.459 482.054 301.601 482.234 301.916ZM504.501 301.916C504.68 301.601 505.059 301.459 505.401 301.58C507.059 302.163 508.45 303.328 509.315 304.858C509.494 305.173 509.421 305.572 509.142 305.804C508.864 306.036 508.459 306.035 508.181 305.802L504.671 302.862C504.393 302.629 504.321 302.231 504.501 301.916Z" fill="black"/>
<path d="M479.113 341.557L486.873 343.307C490.173 344.09 493.621 343.984 496.866 342.998C500.111 342.013 503.037 340.183 505.344 337.697C507.778 334.982 509.403 331.639 510.033 328.047C510.317 326.318 510.35 324.556 510.133 322.817C509.413 316.117 509.073 313.707 508.643 309.047C507.733 298.937 511.443 297.787 509.923 288.847C509.433 285.957 508.803 282.217 506.263 278.847C500.013 270.427 487.483 270.997 485.453 271.117C482.973 271.267 480.933 271.027 479.613 271.117" stroke="black" stroke-width="1.5" stroke-linecap="round" stroke-linejoin="round"/>
</svg>
