<svg width="1220" height="920" viewBox="0 0 1220 920" fill="none" xmlns="http://www.w3.org/2000/svg">
<path d="M965.55 607.72C1005.82 607.72 1038.47 540.849 1038.47 458.36C1038.47 375.871 1005.82 309 965.55 309C925.277 309 892.63 375.871 892.63 458.36C892.63 540.849 925.277 607.72 965.55 607.72Z" stroke="#CCCCCC" stroke-width="1.5" stroke-linecap="round" stroke-linejoin="round"/>
<path d="M965.55 588.568C1000.66 588.568 1029.12 530.271 1029.12 458.358C1029.12 386.445 1000.66 328.148 965.55 328.148C930.442 328.148 901.98 386.445 901.98 458.358C901.98 530.271 930.442 588.568 965.55 588.568Z" stroke="#CCCCCC" stroke-width="1.5" stroke-linecap="round" stroke-linejoin="round"/>
<path d="M1052.11 622.278H879V757.848H1052.11V622.278Z" stroke="#CCCCCC" stroke-width="1.5" stroke-linecap="round" stroke-linejoin="round"/>
<path d="M879 694.278H1052.1" stroke="#CCCCCC" stroke-width="1.5" stroke-linecap="round" stroke-linejoin="round"/>
<path d="M965.571 666.699C966.936 666.701 968.272 666.298 969.408 665.541C970.544 664.783 971.43 663.706 971.954 662.445C972.477 661.183 972.614 659.795 972.349 658.456C972.083 657.116 971.425 655.886 970.46 654.92C969.494 653.955 968.264 653.297 966.924 653.032C965.585 652.766 964.197 652.903 962.936 653.427C961.674 653.95 960.597 654.836 959.839 655.972C959.082 657.108 958.679 658.444 958.681 659.809C958.679 660.715 958.857 661.611 959.202 662.448C959.548 663.284 960.056 664.044 960.696 664.684C961.336 665.324 962.096 665.832 962.932 666.178C963.769 666.523 964.666 666.701 965.571 666.699Z" stroke="#CCCCCC" stroke-width="1.5" stroke-linecap="round" stroke-linejoin="round"/>
<path d="M965.57 719.549C964.205 719.547 962.87 719.95 961.734 720.707C960.598 721.464 959.712 722.541 959.188 723.801C958.664 725.062 958.526 726.45 958.792 727.789C959.057 729.128 959.713 730.358 960.678 731.324C961.642 732.29 962.872 732.948 964.21 733.216C965.549 733.483 966.937 733.347 968.198 732.825C969.46 732.303 970.538 731.418 971.297 730.283C972.055 729.148 972.46 727.814 972.46 726.449C972.461 725.543 972.284 724.646 971.939 723.809C971.593 722.972 971.086 722.211 970.446 721.57C969.806 720.93 969.046 720.421 968.209 720.074C967.373 719.727 966.476 719.549 965.57 719.549Z" stroke="#CCCCCC" stroke-width="1.5" stroke-linecap="round" stroke-linejoin="round"/>
<path d="M893.17 791.17C893.17 793.506 894.098 795.747 895.75 797.399C897.403 799.051 899.643 799.98 901.98 799.98H907.64C909.624 799.979 911.551 799.31 913.107 798.08C914.664 796.85 915.761 795.13 916.22 793.2L924.57 757.85L893.17 758.38V791.17Z" stroke="#CCCCCC" stroke-width="1.5" stroke-linecap="round" stroke-linejoin="round"/>
<path d="M1006.57 757.85L1014.92 793.2C1015.38 795.129 1016.47 796.848 1018.03 798.079C1019.58 799.309 1021.51 799.979 1023.49 799.98H1029.16C1031.5 799.98 1033.74 799.051 1035.39 797.399C1037.04 795.747 1037.97 793.506 1037.97 791.17V758.38L1006.57 757.85Z" stroke="#CCCCCC" stroke-width="1.5" stroke-linecap="round" stroke-linejoin="round"/>
<path d="M543 538H154V563.323H543V538Z" stroke="#CCCCCC" stroke-width="1.5" stroke-linecap="round" stroke-linejoin="round"/>
<path d="M510.723 563.322H186.267V632.349H510.723V563.322Z" stroke="#CCCCCC" stroke-width="1.5" stroke-linecap="round" stroke-linejoin="round"/>
<path d="M198.64 632.463H186.267V801H198.64V632.463Z" stroke="#CCCCCC" stroke-width="1.5" stroke-linecap="round" stroke-linejoin="round"/>
<path d="M510.558 632.463H498.186V801H510.558V632.463Z" stroke="#CCCCCC" stroke-width="1.5" stroke-linecap="round" stroke-linejoin="round"/>
<path d="M348.5 563.105V631.88" stroke="#CCCCCC" stroke-width="1.5" stroke-linecap="round" stroke-linejoin="round"/>
<path d="M266.073 591.251C264.533 591.26 263.029 591.725 261.751 592.587C260.474 593.449 259.48 594.671 258.894 596.098C258.309 597.525 258.158 599.093 258.46 600.605C258.763 602.118 259.506 603.507 260.595 604.598C261.685 605.689 263.072 606.432 264.583 606.735C266.093 607.039 267.66 606.887 269.085 606.301C270.51 605.715 271.73 604.719 272.591 603.44C273.453 602.161 273.917 600.656 273.926 599.113C273.931 598.079 273.732 597.054 273.34 596.098C272.947 595.141 272.369 594.272 271.639 593.541C270.908 592.81 270.04 592.231 269.085 591.838C268.13 591.445 267.106 591.246 266.073 591.251Z" stroke="#CCCCCC" stroke-width="1.5" stroke-linecap="round" stroke-linejoin="round"/>
<path d="M430.917 591.251C429.377 591.26 427.873 591.725 426.596 592.587C425.318 593.449 424.324 594.671 423.738 596.098C423.153 597.525 423.002 599.093 423.304 600.605C423.607 602.118 424.35 603.507 425.439 604.598C426.529 605.689 427.916 606.432 429.427 606.735C430.938 607.039 432.504 606.887 433.929 606.301C435.354 605.715 436.574 604.719 437.436 603.44C438.297 602.161 438.761 600.656 438.77 599.113C438.775 598.079 438.576 597.054 438.184 596.098C437.791 595.141 437.213 594.272 436.483 593.541C435.752 592.81 434.884 592.231 433.929 591.838C432.974 591.445 431.95 591.246 430.917 591.251Z" stroke="#CCCCCC" stroke-width="1.5" stroke-linecap="round" stroke-linejoin="round"/>
<path fill-rule="evenodd" clip-rule="evenodd" d="M118.762 258.838L478.916 186.484L501.313 297.966L141.159 370.32L118.762 258.838ZM143.203 380.512L503.358 308.158L525.754 419.641L165.6 491.995L143.203 380.512Z" fill="white"/>
<path d="M478.916 186.485L479.652 186.337C479.613 186.142 479.497 185.971 479.332 185.86C479.166 185.75 478.964 185.71 478.769 185.75L478.916 186.485ZM118.762 258.839L118.615 258.103C118.208 258.185 117.945 258.58 118.027 258.986L118.762 258.839ZM501.313 297.967L501.461 298.703C501.867 298.621 502.13 298.226 502.048 297.82L501.313 297.967ZM141.159 370.321L140.423 370.469C140.463 370.664 140.578 370.835 140.743 370.946C140.909 371.056 141.111 371.096 141.307 371.057L141.159 370.321ZM503.358 308.159L504.093 308.011C504.054 307.816 503.939 307.645 503.773 307.535C503.607 307.425 503.405 307.385 503.21 307.424L503.358 308.159ZM143.203 380.513L143.056 379.778C142.65 379.859 142.387 380.255 142.468 380.661L143.203 380.513ZM525.754 419.642L525.902 420.377C526.308 420.295 526.571 419.9 526.489 419.494L525.754 419.642ZM165.6 491.996L164.865 492.143C164.904 492.338 165.019 492.51 165.184 492.62C165.35 492.73 165.553 492.77 165.748 492.731L165.6 491.996ZM478.769 185.75L118.615 258.103L118.91 259.574L479.064 187.22L478.769 185.75ZM502.048 297.82L479.652 186.337L478.181 186.633L500.578 298.115L502.048 297.82ZM141.307 371.057L501.461 298.703L501.165 297.232L141.011 369.586L141.307 371.057ZM118.027 258.986L140.423 370.469L141.894 370.173L119.498 258.691L118.027 258.986ZM503.21 307.424L143.056 379.778L143.351 381.248L503.505 308.894L503.21 307.424ZM526.489 419.494L504.093 308.011L502.622 308.307L525.019 419.789L526.489 419.494ZM165.748 492.731L525.902 420.377L525.606 418.906L165.452 491.26L165.748 492.731ZM142.468 380.661L164.865 492.143L166.335 491.848L143.939 380.365L142.468 380.661Z" fill="black"/>
<path fill-rule="evenodd" clip-rule="evenodd" d="M211.697 313.39C213.763 308.38 214.298 302.871 213.233 297.557C212.528 294.028 211.133 290.673 209.13 287.683C207.127 284.693 204.554 282.128 201.559 280.133C198.564 278.138 195.205 276.752 191.674 276.056C188.143 275.36 184.509 275.367 180.981 276.075C175.668 277.141 170.79 279.758 166.963 283.595C163.137 287.433 160.535 292.319 159.486 297.636C158.437 302.952 158.988 308.46 161.069 313.464C163.15 318.467 166.668 322.741 171.178 325.745C175.689 328.749 180.988 330.349 186.407 330.341C191.827 330.333 197.122 328.718 201.623 325.701C206.124 322.684 209.63 318.4 211.697 313.39ZM236.138 435.059C238.203 430.049 238.736 424.538 237.67 419.225C236.964 415.696 235.57 412.341 233.566 409.352C231.563 406.362 228.99 403.797 225.994 401.803C222.999 399.809 219.64 398.425 216.109 397.73C212.578 397.035 208.945 397.043 205.417 397.753C200.104 398.819 195.225 401.436 191.4 405.275C187.574 409.113 184.972 414 183.923 419.317C182.875 424.634 183.427 430.142 185.509 435.146C187.591 440.149 191.11 444.423 195.621 447.426C200.133 450.429 205.433 452.027 210.852 452.018C216.272 452.009 221.567 450.392 226.068 447.374C230.569 444.355 234.073 440.07 236.138 435.059Z" fill="#82AAD3"/>
<path d="M213.233 297.557L212.498 297.704V297.705L213.233 297.557ZM211.697 313.39L211.003 313.104L211.697 313.39ZM209.13 287.683L209.753 287.266L209.13 287.683ZM201.559 280.133L201.143 280.757L201.559 280.133ZM191.674 276.056L191.819 275.32L191.674 276.056ZM180.981 276.075L181.128 276.811H181.129L180.981 276.075ZM166.963 283.595L167.495 284.125L166.963 283.595ZM159.486 297.636L158.75 297.49L159.486 297.636ZM161.069 313.464L161.761 313.176L161.069 313.464ZM171.178 325.745L170.763 326.37L171.178 325.745ZM186.407 330.341L186.406 329.591L186.407 330.341ZM237.67 419.225L236.934 419.372L237.67 419.225ZM236.138 435.059L236.832 435.345L236.138 435.059ZM233.566 409.352L232.943 409.769L233.566 409.352ZM225.994 401.803L226.41 401.179L225.994 401.803ZM205.417 397.753L205.565 398.488L205.417 397.753ZM191.4 405.275L191.931 405.804L191.4 405.275ZM183.923 419.317L184.659 419.462L183.923 419.317ZM185.509 435.146L184.816 435.434L185.509 435.146ZM195.621 447.426L195.206 448.05L195.621 447.426ZM210.852 452.018L210.854 452.768L210.852 452.018ZM226.068 447.374L225.65 446.751L226.068 447.374ZM212.498 297.705C213.534 302.873 213.014 308.232 211.003 313.104L212.39 313.676C214.513 308.529 215.063 302.869 213.969 297.41L212.498 297.705ZM208.507 288.101C210.455 291.009 211.812 294.272 212.498 297.704L213.969 297.41C213.244 293.785 211.811 290.337 209.753 287.266L208.507 288.101ZM201.143 280.757C204.056 282.697 206.559 285.193 208.507 288.101L209.753 287.266C207.695 284.194 205.052 281.558 201.975 279.508L201.143 280.757ZM191.529 276.792C194.963 277.469 198.23 278.816 201.143 280.757L201.975 279.508C198.897 277.459 195.446 276.036 191.819 275.32L191.529 276.792ZM181.129 276.811C184.56 276.121 188.094 276.115 191.529 276.792L191.819 275.32C188.191 274.605 184.458 274.612 180.833 275.34L181.129 276.811ZM167.495 284.125C171.216 280.392 175.961 277.847 181.128 276.811L180.834 275.34C175.375 276.435 170.363 279.123 166.432 283.066L167.495 284.125ZM160.222 297.781C161.242 292.61 163.773 287.857 167.495 284.125L166.432 283.066C162.502 287.009 159.828 292.028 158.75 297.49L160.222 297.781ZM161.761 313.176C159.737 308.309 159.201 302.952 160.222 297.781L158.75 297.49C157.672 302.952 158.238 308.611 160.376 313.752L161.761 313.176ZM171.594 325.121C167.207 322.199 163.786 318.042 161.761 313.176L160.376 313.752C162.515 318.892 166.129 323.283 170.763 326.37L171.594 325.121ZM186.406 329.591C181.136 329.598 175.981 328.043 171.594 325.121L170.763 326.37C175.396 329.456 180.841 331.099 186.409 331.091L186.406 329.591ZM201.205 325.078C196.827 328.013 191.677 329.583 186.406 329.591L186.409 331.091C191.976 331.083 197.416 329.424 202.041 326.324L201.205 325.078ZM211.003 313.104C208.993 317.976 205.584 322.143 201.205 325.078L202.041 326.324C206.665 323.224 210.267 318.823 212.39 313.676L211.003 313.104ZM236.934 419.372C237.972 424.54 237.453 429.9 235.445 434.773L236.832 435.345C238.953 430.197 239.501 424.536 238.405 419.077L236.934 419.372ZM232.943 409.769C234.892 412.677 236.248 415.94 236.934 419.372L238.405 419.078C237.68 415.452 236.247 412.006 234.189 408.934L232.943 409.769ZM225.579 402.427C228.492 404.367 230.995 406.862 232.943 409.769L234.189 408.934C232.131 405.863 229.488 403.228 226.41 401.179L225.579 402.427ZM215.964 398.466C219.398 399.142 222.665 400.488 225.579 402.427L226.41 401.179C223.333 399.13 219.881 397.708 216.254 396.994L215.964 398.466ZM205.565 398.488C208.996 397.797 212.53 397.79 215.964 398.466L216.254 396.994C212.626 396.28 208.894 396.288 205.269 397.018L205.565 398.488ZM191.931 405.804C195.652 402.071 200.397 399.525 205.565 398.488L205.27 397.018C199.811 398.113 194.799 400.802 190.868 404.745L191.931 405.804ZM184.659 419.462C185.679 414.29 188.21 409.537 191.931 405.804L190.868 404.745C186.938 408.689 184.265 413.709 183.188 419.172L184.659 419.462ZM186.201 434.857C184.176 429.991 183.639 424.633 184.659 419.462L183.188 419.172C182.11 424.634 182.677 430.293 184.816 435.434L186.201 434.857ZM196.037 446.802C191.649 443.88 188.227 439.724 186.201 434.857L184.816 435.434C186.956 440.574 190.571 444.965 195.206 448.05L196.037 446.802ZM210.851 451.268C205.58 451.277 200.425 449.723 196.037 446.802L195.206 448.05C199.84 451.136 205.286 452.777 210.854 452.768L210.851 451.268ZM225.65 446.751C221.272 449.687 216.122 451.259 210.851 451.268L210.854 452.768C216.421 452.758 221.861 451.098 226.485 447.997L225.65 446.751ZM235.445 434.773C233.436 439.647 230.028 443.815 225.65 446.751L226.485 447.997C231.109 444.895 234.71 440.493 236.832 435.345L235.445 434.773Z" fill="black"/>
<path d="M184.979 308.218C191.601 308.239 196.986 302.887 197.007 296.266C197.028 289.644 191.677 284.259 185.055 284.238C178.433 284.217 173.048 289.568 173.027 296.19C173.006 302.812 178.357 308.197 184.979 308.218Z" fill="white" stroke="black" stroke-width="1.5" stroke-linecap="round" stroke-linejoin="round"/>
<path d="M205.151 314.163C205.807 317.414 205.448 320.789 204.121 323.829C200.581 326.832 196.337 328.886 191.786 329.799C187.236 330.712 182.527 330.453 178.104 329.047C175.316 326.376 173.574 322.795 173.194 318.952C172.814 315.109 173.82 311.257 176.03 308.091C177.625 309.609 179.562 310.72 181.677 311.331C183.793 311.943 186.024 312.036 188.183 311.604C190.342 311.171 192.365 310.225 194.081 308.846C195.798 307.467 197.157 305.695 198.044 303.68C199.875 304.857 201.449 306.393 202.67 308.194C203.892 309.996 204.736 312.026 205.151 314.163Z" fill="white" stroke="black" stroke-width="1.5" stroke-linecap="round" stroke-linejoin="round"/>
<path d="M462.692 247.453C463.204 249.988 462.952 252.618 461.969 255.009C460.986 257.401 459.316 259.447 457.169 260.889C455.023 262.331 452.497 263.104 449.911 263.11C447.325 263.116 444.795 262.355 442.642 260.923C440.489 259.491 438.809 257.452 437.815 255.065C436.821 252.678 436.557 250.049 437.058 247.512C437.558 244.975 438.799 242.643 440.625 240.812C442.451 238.981 444.779 237.732 447.314 237.225C448.996 236.878 450.73 236.869 452.416 237.196C454.102 237.524 455.706 238.182 457.135 239.133C458.565 240.084 459.792 241.309 460.746 242.737C461.7 244.165 462.361 245.768 462.692 247.453Z" fill="#8CA45B" stroke="black" stroke-width="1.5" stroke-linecap="round" stroke-linejoin="round"/>
<path d="M357.916 242.363L230.139 268.033L230.968 272.161L358.745 246.491L357.916 242.363Z" fill="#FFCD88" stroke="black" stroke-width="1.5" stroke-linecap="round" stroke-linejoin="round"/>
<path d="M238.233 297.627L281.771 288.884" stroke="black" stroke-width="1.5" stroke-linecap="round" stroke-linejoin="round"/>
<path d="M240.094 306.873L256.204 303.634" stroke="black" stroke-width="1.5" stroke-linecap="round" stroke-linejoin="round"/>
<path d="M241.944 316.107L283.701 307.729" stroke="black" stroke-width="1.5" stroke-linecap="round" stroke-linejoin="round"/>
<path d="M287.254 307.01L308.137 302.816" stroke="black" stroke-width="1.5" stroke-linecap="round" stroke-linejoin="round"/>
<path d="M312.59 301.92L344.8 295.452" stroke="black" stroke-width="1.5" stroke-linecap="round" stroke-linejoin="round"/>
<path d="M260.657 302.737L306.286 293.581" stroke="black" stroke-width="1.5" stroke-linecap="round" stroke-linejoin="round"/>
<path d="M310.739 292.685L356.358 283.519" stroke="black" stroke-width="1.5" stroke-linecap="round" stroke-linejoin="round"/>
<path d="M359.92 282.809L392.431 276.282" stroke="black" stroke-width="1.5" stroke-linecap="round" stroke-linejoin="round"/>
<path d="M288.015 287.632L305.326 284.157" stroke="black" stroke-width="1.5" stroke-linecap="round" stroke-linejoin="round"/>
<path d="M310.669 283.084L342.289 276.733" stroke="black" stroke-width="1.5" stroke-linecap="round" stroke-linejoin="round"/>
<path d="M346.732 275.839L391.171 266.919" stroke="black" stroke-width="1.5" stroke-linecap="round" stroke-linejoin="round"/>
<path d="M448.756 243.18L451.522 256.969" stroke="black" stroke-width="1.5" stroke-linecap="round" stroke-linejoin="round"/>
<path d="M443.25 251.453L457.028 248.686" stroke="black" stroke-width="1.5" stroke-linecap="round" stroke-linejoin="round"/>
<path d="M209.416 429.886C216.038 429.907 221.423 424.555 221.444 417.934C221.465 411.312 216.114 405.927 209.492 405.906C202.87 405.885 197.485 411.236 197.464 417.858C197.443 424.48 202.794 429.865 209.416 429.886Z" fill="white" stroke="black" stroke-width="1.5" stroke-linecap="round" stroke-linejoin="round"/>
<path d="M229.577 435.84C230.233 439.089 229.873 442.46 228.546 445.497C225.006 448.498 220.763 450.552 216.212 451.466C211.662 452.381 206.955 452.126 202.53 450.725C199.727 448.052 197.976 444.462 197.594 440.608C197.211 436.754 198.223 432.89 200.446 429.718C202.041 431.236 203.978 432.348 206.093 432.959C208.209 433.57 210.44 433.664 212.599 433.231C214.758 432.799 216.781 431.853 218.497 430.474C220.214 429.095 221.573 427.323 222.46 425.308C224.298 426.489 225.877 428.032 227.101 429.843C228.324 431.653 229.166 433.694 229.577 435.84Z" fill="white" stroke="black" stroke-width="1.5" stroke-linecap="round" stroke-linejoin="round"/>
<path d="M487.129 369.132C487.639 371.668 487.384 374.299 486.399 376.691C485.413 379.082 483.74 381.128 481.592 382.57C479.443 384.011 476.916 384.783 474.329 384.787C471.742 384.792 469.211 384.029 467.058 382.596C464.904 381.162 463.224 379.123 462.23 376.734C461.235 374.346 460.972 371.716 461.472 369.178C461.972 366.64 463.214 364.307 465.04 362.474C466.866 360.642 469.195 359.392 471.731 358.883C475.132 358.2 478.665 358.897 481.553 360.819C484.44 362.741 486.446 365.731 487.129 369.132Z" fill="white" stroke="black" stroke-width="1.5" stroke-linecap="round" stroke-linejoin="round"/>
<path d="M382.347 364.039L254.57 389.709L255.399 393.837L383.176 368.167L382.347 364.039Z" fill="#FFCD88" stroke="black" stroke-width="1.5" stroke-linecap="round" stroke-linejoin="round"/>
<path d="M262.67 419.303L306.208 410.562" stroke="black" stroke-width="1.5" stroke-linecap="round" stroke-linejoin="round"/>
<path d="M264.52 428.55L280.641 425.311" stroke="black" stroke-width="1.5" stroke-linecap="round" stroke-linejoin="round"/>
<path d="M266.381 437.785L308.128 429.407" stroke="black" stroke-width="1.5" stroke-linecap="round" stroke-linejoin="round"/>
<path d="M311.69 428.688L332.573 424.494" stroke="black" stroke-width="1.5" stroke-linecap="round" stroke-linejoin="round"/>
<path d="M337.026 423.599L369.237 417.13" stroke="black" stroke-width="1.5" stroke-linecap="round" stroke-linejoin="round"/>
<path d="M285.093 424.414L330.723 415.248" stroke="black" stroke-width="1.5" stroke-linecap="round" stroke-linejoin="round"/>
<path d="M335.166 414.362L380.795 405.196" stroke="black" stroke-width="1.5" stroke-linecap="round" stroke-linejoin="round"/>
<path d="M384.357 404.477L416.867 397.95" stroke="black" stroke-width="1.5" stroke-linecap="round" stroke-linejoin="round"/>
<path d="M312.451 409.311L329.763 405.836" stroke="black" stroke-width="1.5" stroke-linecap="round" stroke-linejoin="round"/>
<path d="M335.105 404.762L366.716 398.411" stroke="black" stroke-width="1.5" stroke-linecap="round" stroke-linejoin="round"/>
<path d="M371.169 397.517L415.607 388.597" stroke="black" stroke-width="1.5" stroke-linecap="round" stroke-linejoin="round"/>
<path d="M473.192 364.857L475.959 378.636" stroke="black" stroke-width="1.5" stroke-linecap="round" stroke-linejoin="round"/>
<path d="M467.676 373.13L481.465 370.363" stroke="black" stroke-width="1.5" stroke-linecap="round" stroke-linejoin="round"/>
<path d="M848.919 498.04H663.449V112H848.919V498.04Z" stroke="#CCCCCC" stroke-width="1.5" stroke-linecap="round" stroke-linejoin="round"/>
<path d="M849 511.829H525V503.399H574.94H849" stroke="#CCCCCC" stroke-width="1.5" stroke-linecap="round" stroke-linejoin="round"/>
<path d="M592.32 498.04H640.2V112H525.01V498.04H557.94" stroke="#CCCCCC" stroke-width="1.5" stroke-linecap="round" stroke-linejoin="round"/>
<path d="M574.95 503.399C567.171 503.399 559.711 500.309 554.21 494.809C548.71 489.308 545.62 481.848 545.62 474.069V416.739H604.27V474.079C604.27 481.858 601.179 489.318 595.679 494.819C590.179 500.319 582.718 503.409 574.94 503.409L574.95 503.399Z" stroke="#CCCCCC" stroke-width="1.5" stroke-linecap="round" stroke-linejoin="round"/>
<path d="M573.089 416.57H577.319V269.85H573.089V416.57Z" stroke="#CCCCCC" stroke-width="1.5" stroke-linecap="round" stroke-linejoin="round"/>
<path d="M597.503 378.439C606.8 372.454 612.9 365.37 611.127 362.617C609.355 359.863 600.381 362.482 591.084 368.467C581.787 374.451 575.687 381.535 577.46 384.289C579.232 387.043 588.206 384.424 597.503 378.439Z" stroke="#CCCCCC" stroke-width="1.5" stroke-linecap="round" stroke-linejoin="round"/>
<path d="M591.405 348.642C597.846 344.495 602.071 339.587 600.843 337.678C599.614 335.77 593.397 337.584 586.956 341.73C580.514 345.876 576.289 350.785 577.518 352.693C578.746 354.602 584.964 352.788 591.405 348.642Z" stroke="#CCCCCC" stroke-width="1.5" stroke-linecap="round" stroke-linejoin="round"/>
<path d="M586.202 325.194C589.768 322.899 591.804 319.709 590.749 318.069C589.694 316.43 585.946 316.962 582.38 319.258C578.813 321.554 576.778 324.744 577.834 326.383C578.889 328.023 582.635 327.49 586.202 325.194Z" stroke="#CCCCCC" stroke-width="1.5" stroke-linecap="round" stroke-linejoin="round"/>
<path d="M572.597 378.959C574.488 375.683 567.053 367.849 555.991 361.462C544.928 355.075 534.426 352.553 532.534 355.829C530.643 359.106 538.078 366.94 549.141 373.327C560.203 379.714 570.705 382.236 572.597 378.959Z" stroke="#CCCCCC" stroke-width="1.5" stroke-linecap="round" stroke-linejoin="round"/>
<path d="M574.008 349.965C575.234 347.831 570.382 342.742 563.17 338.597C555.957 334.452 549.117 332.821 547.891 334.955C546.665 337.088 551.517 342.177 558.73 346.322C565.942 350.467 572.782 352.098 574.008 349.965Z" stroke="#CCCCCC" stroke-width="1.50517" stroke-linecap="round" stroke-linejoin="round"/>
<path d="M591.41 299.676C597.851 295.53 602.076 290.621 600.848 288.713C599.619 286.804 593.402 288.618 586.96 292.764C580.519 296.91 576.294 301.819 577.522 303.727C578.751 305.636 584.969 303.822 591.41 299.676Z" stroke="#CCCCCC" stroke-width="1.5" stroke-linecap="round" stroke-linejoin="round"/>
<path d="M572.582 303.664C573.808 301.54 568.982 296.459 561.803 292.314C554.624 288.169 547.81 286.53 546.584 288.654C545.358 290.777 550.184 295.859 557.363 300.004C564.542 304.149 571.356 305.787 572.582 303.664Z" stroke="#CCCCCC" stroke-width="1.5" stroke-linecap="round" stroke-linejoin="round"/>
<path d="M572.581 325.364C573.807 323.24 570.699 319.15 565.639 316.229C560.578 313.307 555.482 312.66 554.256 314.784C553.03 316.907 556.138 320.997 561.199 323.919C566.259 326.841 571.355 327.487 572.581 325.364Z" stroke="#CCCCCC" stroke-width="1.5" stroke-linecap="round" stroke-linejoin="round"/>
<path d="M586.205 270.146C589.771 267.85 591.807 264.66 590.752 263.021C589.697 261.381 585.95 261.913 582.384 264.209C578.817 266.505 576.781 269.695 577.836 271.334C578.892 272.974 582.638 272.441 586.205 270.146Z" stroke="#CCCCCC" stroke-width="1.5" stroke-linecap="round" stroke-linejoin="round"/>
<path d="M572.587 270.319C573.813 268.195 570.705 264.105 565.645 261.184C560.584 258.262 555.488 257.615 554.262 259.739C553.036 261.862 556.144 265.952 561.205 268.874C566.265 271.796 571.361 272.442 572.587 270.319Z" stroke="#CCCCCC" stroke-width="1.5" stroke-linecap="round" stroke-linejoin="round"/>
<path d="M1039.6 801H288.87" stroke="black" stroke-width="1.5" stroke-linecap="round" stroke-linejoin="round"/>
<path d="M708.7 811.21H171" stroke="black" stroke-width="1.5" stroke-linecap="round" stroke-linejoin="round"/>
<path d="M752.62 811.21H721.47" stroke="black" stroke-width="1.5" stroke-linecap="round" stroke-linejoin="round"/>
<path d="M516.289 790.295C511.867 805.923 503.253 820.043 491.379 831.125C496.025 833.49 501.072 834.966 506.26 835.475C532.37 837.955 551.369 813.775 553.609 810.845C552.749 804.415 551.71 794.845 551.27 783.235C550.72 768.395 551.469 758.175 552.189 744.485C538.479 744.485 524.889 744.025 511.319 746.085C513.099 760.885 514.756 775.622 516.289 790.295Z" fill="#F7CCB9" stroke="black" stroke-width="1.5" stroke-linecap="round" stroke-linejoin="round"/>
<path d="M549.051 793.125C549.459 792.653 549.985 792.299 550.576 792.098C551.166 791.897 551.8 791.857 552.411 791.982C553.022 792.107 553.589 792.393 554.053 792.81C554.517 793.228 554.861 793.761 555.051 794.355C558.881 804.105 559.051 811.355 558.301 816.445C558.031 818.235 557.631 819.895 556.641 824.635C555.741 828.945 555.461 830.405 555.311 831.145C554.276 836.435 553.522 841.776 553.051 847.145H547.181C546.441 839.452 545.704 831.759 544.971 824.065L513.101 846.945C512.355 847.478 511.467 847.775 510.551 847.795L475.411 848.545C472.321 848.545 469.861 845.285 469.911 841.275C469.911 838.005 471.661 835.105 474.101 834.195L489.171 828.535C490.243 828.139 491.377 827.932 492.521 827.925H493.721C493.567 828.417 493.602 828.949 493.821 829.415C494.901 831.325 500.251 830.165 502.291 829.725C509.059 828.29 515.521 825.673 521.381 821.995C523.404 820.697 525.246 819.137 526.861 817.355C534.227 809.262 541.624 801.185 549.051 793.125Z" fill="#8CA45B" stroke="black" stroke-width="1.5" stroke-linecap="round" stroke-linejoin="round"/>
<path d="M547.01 818.466L558.85 813.676C557.58 819.916 556.94 822.986 556.6 824.676C556.48 825.226 556.06 827.206 555.53 829.866C555.41 830.496 555.33 830.866 555.27 831.186C554.235 836.476 553.481 841.817 553.01 847.186H547.14C546.4 839.493 545.663 831.8 544.93 824.106L513.1 846.946C512.354 847.479 511.466 847.776 510.55 847.796L507.48 847.746L547.01 818.466Z" fill="black"/>
<path d="M760.91 782.456C758.243 775.83 755.803 769.363 753.59 763.056C756.33 770.466 755.42 773.496 754.08 774.896C752.15 776.896 748.89 775.576 740.22 776.816L732.32 777.936C732.85 781.346 733.39 784.746 733.93 788.156C729.968 803.904 721.78 818.271 710.25 829.706C714.809 832.33 719.99 833.681 725.25 833.616C734.51 833.346 739.8 828.156 762.6 813.436C766.6 810.866 769.84 808.816 771.83 807.576C768.19 799.686 764.52 791.306 760.91 782.456Z" fill="#F7CCB9" stroke="black" stroke-width="1.5" stroke-linecap="round" stroke-linejoin="round"/>
<path d="M771.59 815.946C771.84 811.106 771.98 809.416 771.97 807.606C771.97 802.436 770.65 795.316 765.38 786.266C765.097 785.719 764.675 785.255 764.157 784.922C763.639 784.588 763.042 784.397 762.427 784.367C761.811 784.336 761.198 784.468 760.65 784.749C760.101 785.029 759.636 785.449 759.3 785.966L741.08 813.286C739.755 815.292 738.171 817.114 736.37 818.706C731.463 822.967 725.88 826.381 719.85 828.806C719.846 828.753 719.846 828.7 719.85 828.646C717.47 829.106 713.08 829.776 712.15 828.056C711.935 827.591 711.906 827.062 712.07 826.576H710.87C709.726 826.567 708.589 826.757 707.51 827.136L692.36 832.556C689.9 833.436 688.15 836.306 688.06 839.556C687.95 843.556 690.35 846.846 693.45 846.906L727.87 846.696L728.91 845.946L729.63 845.816C730.532 845.66 731.365 845.235 732.02 844.596L760.02 817.126C761.933 824.626 763.84 832.12 765.74 839.606L771.54 838.696C771.189 833.32 771.116 827.93 771.32 822.546C771.31 821.826 771.36 820.346 771.59 815.946Z" fill="#8CA45B" stroke="black" stroke-width="1.5" stroke-linecap="round" stroke-linejoin="round"/>
<path d="M760.829 811.797L771.779 805.227C771.499 811.587 771.349 814.727 771.259 816.407C771.259 816.957 771.129 818.977 771.019 821.687C771.019 822.337 771.019 822.747 770.959 823.037C770.763 828.421 770.85 833.811 771.219 839.187L765.419 840.117C763.499 832.623 761.576 825.133 759.649 817.647L731.749 845.167C731.099 845.807 730.529 845.697 729.629 845.857L726.629 846.287C738.089 834.607 749.329 823.477 760.829 811.797Z" fill="black"/>
<path d="M558.02 813.687C555.63 814.687 554.229 815.686 551.839 816.776C548.017 818.418 544.397 820.495 541.049 822.966L507.479 847.716" stroke="black" stroke-width="1.5" stroke-linecap="round" stroke-linejoin="round"/>
<path d="M586.071 486.716C580.461 505.266 573.951 524.716 566.381 544.786C557.313 568.879 547.723 591.304 538.001 612.041C533.031 622.641 528.835 633.595 525.765 644.893L483.911 798.946L506.702 803.301C518.208 805.5 529.896 806.606 541.61 806.606H558.461L583.971 649.346L645.971 531.646C629.386 512.62 608.971 497.309 586.061 486.716H586.071Z" fill="#AD85AD" stroke="black" stroke-width="1.5" stroke-linecap="round" stroke-linejoin="round"/>
<path d="M613.29 547.856L612.1 546.776L613.29 547.856ZM573.25 504.376C601.801 506.919 630.553 502.812 657.25 492.376C661.535 498.616 665.246 505.229 668.34 512.136C674.72 526.631 678.485 542.14 679.46 557.946C681.27 578.816 685.88 608.836 695.8 654.946C720.67 698.696 741.54 742.456 766.41 786.216C762.68 787.866 757.18 790.286 750.49 793.106C738.82 798.036 730.95 801.346 723.69 803.826C712.027 807.765 699.946 810.336 687.69 811.486C686.632 792.013 683.276 772.732 677.69 754.046C674.41 743.146 668.14 727.916 655.3 697.596C652.13 690.116 643.48 669.596 636.58 648.206C629.905 627.412 624.935 606.108 621.72 584.506C622.994 576.013 624.26 567.523 625.52 559.036L613.25 547.866" fill="#AD85AD"/>
<path d="M573.25 504.376C601.801 506.919 630.553 502.812 657.25 492.376C661.535 498.616 665.246 505.229 668.34 512.136C674.72 526.631 678.485 542.14 679.46 557.946C681.27 578.816 685.88 608.836 695.8 654.946C720.67 698.696 741.54 742.456 766.41 786.216C762.68 787.866 757.18 790.286 750.49 793.106C738.82 798.036 730.95 801.346 723.69 803.826C712.027 807.765 699.946 810.336 687.69 811.486C686.632 792.013 683.276 772.732 677.69 754.046C674.41 743.146 668.14 727.916 655.3 697.596C652.13 690.116 643.48 669.596 636.58 648.206C629.905 627.412 624.935 606.108 621.72 584.506C622.994 576.013 624.26 567.523 625.52 559.036L613.25 547.866L573.25 504.376ZM613.29 547.856L612.1 546.776L613.29 547.856Z" stroke="black" stroke-width="1.5" stroke-linecap="round" stroke-linejoin="round"/>
<path d="M695.5 653.5L697.5 663.5" stroke="black" stroke-width="1.5" stroke-linecap="round" stroke-linejoin="round"/>
<path d="M583.5 649.5L579.5 658" stroke="black" stroke-width="1.5" stroke-linecap="round" stroke-linejoin="round"/>
<path d="M684 596.5L682.5 587.5L623.5 596C644.5 594 645.5 592.5 684 596.5Z" fill="black" stroke="black"/>
<path d="M433.399 337.016L466.199 326.126" stroke="black" stroke-width="1.5" stroke-linecap="round" stroke-linejoin="round"/>
<path d="M437.98 344.265C428.71 333.765 425.25 329.265 415.98 318.725C415.576 318.241 415.354 317.631 415.354 317C415.354 316.37 415.576 315.759 415.98 315.275L416.18 315.035C416.398 314.8 416.647 314.595 416.92 314.425C417.445 314.085 418.065 313.922 418.689 313.96C419.314 313.998 419.91 314.234 420.39 314.635C427.01 320.635 432.53 325.965 439.15 331.915C434.05 325.165 426.84 316.535 421.74 309.785C421.273 309.087 421.073 308.245 421.176 307.411C421.278 306.578 421.676 305.809 422.299 305.245L422.359 305.185C423.969 303.555 426.55 303.485 427.82 305.045C439.08 318.765 445.93 327.045 446.19 326.825C446.45 326.605 440.04 317.905 429.19 303.625C428.646 302.791 428.451 301.777 428.648 300.801C428.844 299.824 429.416 298.964 430.24 298.405H430.299C431.058 297.74 432.05 297.399 433.058 297.457C434.067 297.515 435.012 297.967 435.69 298.715C441.27 305.835 448.18 314.715 453.76 321.855C448.54 314.275 441.98 304.915 436.76 297.335C436.257 296.484 436.096 295.474 436.309 294.508C436.523 293.543 437.095 292.695 437.91 292.135H437.97C439.058 291.627 440.276 291.463 441.46 291.665C442.007 291.775 442.526 291.993 442.988 292.305C443.449 292.618 443.844 293.019 444.15 293.485C451.79 304.615 463.78 322.485 471.42 333.605" fill="#F7CCB9"/>
<path d="M437.98 344.265C428.71 333.765 425.25 329.265 415.98 318.725C415.576 318.241 415.354 317.631 415.354 317C415.354 316.37 415.576 315.759 415.98 315.275L416.18 315.035C416.398 314.8 416.647 314.595 416.92 314.425C417.445 314.085 418.065 313.922 418.689 313.96C419.314 313.998 419.91 314.234 420.39 314.635C427.01 320.635 432.53 325.965 439.15 331.915C434.05 325.165 426.84 316.535 421.74 309.785C421.273 309.087 421.073 308.245 421.176 307.411C421.278 306.578 421.676 305.809 422.299 305.245L422.359 305.185C423.969 303.555 426.55 303.485 427.82 305.045C439.08 318.765 445.93 327.045 446.19 326.825C446.45 326.605 440.04 317.905 429.19 303.625C428.646 302.791 428.451 301.777 428.648 300.801C428.844 299.824 429.416 298.964 430.24 298.405H430.299C431.058 297.74 432.05 297.399 433.058 297.457C434.067 297.515 435.012 297.967 435.69 298.715C441.27 305.835 448.18 314.715 453.76 321.855C448.54 314.275 441.98 304.915 436.76 297.335C436.257 296.484 436.096 295.474 436.309 294.508C436.523 293.543 437.095 292.695 437.91 292.135H437.97C439.058 291.627 440.276 291.463 441.46 291.665C442.007 291.775 442.526 291.993 442.988 292.305C443.449 292.618 443.844 293.019 444.15 293.485C451.79 304.615 463.78 322.485 471.42 333.605" stroke="black" stroke-width="1.5" stroke-linecap="round" stroke-linejoin="round"/>
<path d="M457.561 319.275C451.261 323.525 444.991 328.125 438.691 332.375L457.561 319.275Z" fill="#F7CCB9"/>
<path d="M457.561 319.275C451.261 323.525 444.991 328.125 438.691 332.375" stroke="black" stroke-width="1.5" stroke-linecap="round" stroke-linejoin="round"/>
<path d="M588.09 509.435L553.88 501.265C556.161 497.651 558.1 493.831 559.67 489.855C565.28 475.625 563.67 463.645 564.09 452.755C564.82 435.555 565.23 419.925 565.45 406.115C571.237 418.829 577.023 431.539 582.81 444.245L588.09 509.435Z" fill="#FFCD88" stroke="black" stroke-width="1.5" stroke-linecap="round" stroke-linejoin="round"/>
<path d="M433.399 339.016C437.489 346.806 441.569 352.606 445.659 360.396L472.449 428.246C481.029 449.976 497.929 462.836 519.649 454.246C544.319 444.466 567.269 429.876 591.939 420.096C582.409 406.096 584.069 399.776 574.539 385.816C553.539 394.146 527.069 406.086 506.109 414.416C496.279 395.116 482.609 369.536 472.709 350.136H472.78C472.407 349.441 472.208 348.665 472.199 347.876C472.251 346.261 472.9 344.722 474.02 343.556C475.929 341.569 477.46 339.251 478.539 336.716V336.616C479.255 334.917 479.619 333.09 479.61 331.246C479.602 329.402 479.221 327.579 478.49 325.886L473.899 315.446C472.899 313.256 470.129 312.376 467.619 313.446C465.119 314.546 463.859 317.216 464.829 319.446L466.549 323.356C467.379 326.686 467.549 330.546 465.639 333.716C465.549 333.846 465.469 333.976 465.389 334.106L464.849 334.156" fill="#F7CCB9"/>
<path d="M433.399 339.016C437.489 346.806 441.569 352.606 445.659 360.396L472.449 428.246C481.029 449.976 497.929 462.836 519.649 454.246C544.319 444.466 567.269 429.876 591.939 420.096C582.409 406.096 584.069 399.776 574.539 385.816C553.539 394.146 527.069 406.086 506.109 414.416C496.279 395.116 482.609 369.536 472.709 350.136H472.78C472.407 349.441 472.208 348.665 472.199 347.876C472.251 346.261 472.9 344.722 474.02 343.556C475.929 341.569 477.46 339.251 478.539 336.716V336.616C479.255 334.917 479.619 333.09 479.61 331.246C479.602 329.402 479.221 327.579 478.49 325.886L473.899 315.446C472.899 313.256 470.129 312.376 467.619 313.446C465.119 314.546 463.859 317.216 464.829 319.446L466.549 323.356C467.379 326.686 467.549 330.546 465.639 333.716C465.549 333.846 465.469 333.976 465.389 334.106L464.849 334.156" stroke="black" stroke-width="1.5" stroke-linecap="round" stroke-linejoin="round"/>
<path d="M598.25 405.165L593.33 399.345C593.64 398.035 595.57 389.145 590.08 383.125C587.834 380.819 584.951 379.235 581.8 378.575C570.92 375.575 560.85 380.735 557.26 382.805L538.07 385.535C534.717 407.555 540.017 430.018 552.86 448.215L598.25 405.165Z" fill="#FFCD88" stroke="black" stroke-width="1.5" stroke-linecap="round" stroke-linejoin="round"/>
<path d="M587.11 381.266C584.7 382.197 582.452 383.503 580.45 385.136C578.2 386.976 567.52 396.136 568.87 426.086C570.24 456.236 581.8 463.086 580.71 487.986C580.255 497.462 578.182 506.79 574.58 515.566C589.594 522.09 606.115 524.35 622.33 522.097C638.544 519.844 653.824 513.166 666.49 502.796L645.83 479.416C651.657 450.603 660.65 410.086 666.49 381.266" fill="white"/>
<path d="M587.11 381.266C584.7 382.197 582.452 383.503 580.45 385.136C578.2 386.976 567.52 396.136 568.87 426.086C570.24 456.236 581.8 463.086 580.71 487.986C580.255 497.462 578.182 506.79 574.58 515.566C589.594 522.09 606.115 524.35 622.33 522.097C638.544 519.844 653.824 513.166 666.49 502.796L645.83 479.416C651.657 450.603 660.65 410.086 666.49 381.266H587.11Z" stroke="black" stroke-width="1.5" stroke-linecap="round" stroke-linejoin="round"/>
<path d="M624.399 434.216C626.019 446.636 630.759 450.326 636.619 469.416C639.809 479.796 645.37 495.626 646.78 501.366L696.609 486.706L689.539 477.536C680.684 467.744 675.117 455.424 673.619 442.306C670.758 417.132 661.968 392.995 647.969 371.876L631.549 385.116C631.549 385.116 627.299 397.576 625.549 405.246C623.392 414.751 623.002 424.571 624.399 434.216Z" fill="#FFCD88" stroke="black" stroke-width="1.5" stroke-linecap="round" stroke-linejoin="round"/>
<path d="M543.67 418.846L565.37 603.846C565.37 603.846 832 567.666 832 564.566C832 561.466 805.13 383.716 805.13 383.716L543.67 418.846Z" fill="white" stroke="black" stroke-width="1.5" stroke-linecap="round" stroke-linejoin="round"/>
<path d="M544 419.499L633.481 504.125C666.841 532.625 712.211 524.625 737.871 485.705L805.131 383.705" stroke="black" stroke-width="1.5" stroke-linecap="round" stroke-linejoin="round"/>
<path d="M565.37 603.846L633.48 504.126" stroke="black" stroke-width="1.5" stroke-linecap="round" stroke-linejoin="round"/>
<path d="M832 564.565L737.87 485.705" stroke="black" stroke-width="1.5" stroke-linecap="round" stroke-linejoin="round"/>
<path d="M683.389 549.786L715.179 547.396L716.049 502.526C716.415 485.521 713.295 468.62 706.879 452.866C703.319 444.2 699.429 435.27 695.209 426.076C687.549 409.526 679.649 394.296 671.819 380.396L648.369 384.976C647.649 390.816 646.926 396.653 646.199 402.486C654.519 416.736 662.679 438.236 670.909 456.986C678.213 473.645 682.187 491.572 682.609 509.756C682.909 521.946 683.199 533.296 683.389 549.786Z" fill="#F7CCB9" stroke="black" stroke-width="1.5" stroke-linecap="round" stroke-linejoin="round"/>
<path d="M715.52 538.375C715.347 545.855 715.173 553.342 715 560.835L714.63 570.685C714.998 571.411 715.52 572.048 716.159 572.552C716.798 573.056 717.539 573.416 718.33 573.605L718.77 573.695C719.948 573.871 721.147 573.577 722.109 572.875C723.071 572.173 723.718 571.121 723.91 569.945L724.42 566.005C724.461 565.176 724.828 564.396 725.44 563.835C726.052 563.273 726.86 562.976 727.69 563.005C728.768 562.956 729.829 563.285 730.69 563.935C731.28 564.455 732 565.455 731.79 569.855C731.676 572.101 731.368 574.333 730.87 576.525L734.93 574.375C735.72 573.961 736.605 573.761 737.497 573.796C738.388 573.831 739.255 574.1 740.01 574.575C740.19 574.679 740.347 574.818 740.47 574.985C740.979 575.649 741.291 576.443 741.37 577.275C741.422 577.924 741.29 578.573 740.989 579.15C740.688 579.727 740.231 580.207 739.67 580.535C736.222 582.677 732.529 584.397 728.67 585.655C725.802 586.69 722.842 587.45 719.83 587.925L731.97 588.605C733.267 588.656 734.493 589.208 735.39 590.145C735.77 590.539 736.058 591.013 736.231 591.532C736.404 592.051 736.458 592.602 736.39 593.145C736.329 593.78 736.124 594.392 735.79 594.935C735.343 595.612 734.721 596.155 733.99 596.507C733.26 596.859 732.448 597.007 731.64 596.935L709.91 595.585L721.91 600.315C722.847 600.662 723.626 601.339 724.099 602.219C724.572 603.1 724.708 604.122 724.48 605.095V605.145C724.239 606.065 723.791 606.916 723.17 607.635C722.466 608.405 721.527 608.92 720.5 609.101C719.473 609.282 718.414 609.118 717.49 608.635L706.08 602.845C696.4 597.915 691.49 595.375 688.5 591.415C686.47 588.698 685.064 585.567 684.38 582.245L683.2 545.655" fill="#F7CCB9"/>
<path d="M715.52 538.375C715.347 545.855 715.173 553.342 715 560.835L714.63 570.685C714.998 571.411 715.52 572.048 716.159 572.552C716.798 573.056 717.539 573.416 718.33 573.605L718.77 573.695C719.948 573.871 721.147 573.577 722.109 572.875C723.071 572.173 723.718 571.121 723.91 569.945L724.42 566.005C724.461 565.176 724.828 564.396 725.44 563.835C726.052 563.273 726.86 562.976 727.69 563.005C728.768 562.956 729.829 563.285 730.69 563.935C731.28 564.455 732 565.455 731.79 569.855C731.676 572.101 731.368 574.333 730.87 576.525L734.93 574.375C735.72 573.961 736.605 573.761 737.497 573.796C738.388 573.831 739.255 574.1 740.01 574.575C740.19 574.679 740.347 574.818 740.47 574.985C740.979 575.649 741.291 576.443 741.37 577.275C741.422 577.924 741.29 578.573 740.989 579.15C740.688 579.727 740.231 580.207 739.67 580.535C736.222 582.677 732.529 584.397 728.67 585.655C725.802 586.69 722.842 587.45 719.83 587.925L731.97 588.605C733.267 588.656 734.493 589.208 735.39 590.145C735.77 590.539 736.058 591.013 736.231 591.532C736.404 592.051 736.458 592.602 736.39 593.145C736.329 593.78 736.124 594.392 735.79 594.935C735.343 595.612 734.721 596.155 733.99 596.507C733.26 596.859 732.448 597.007 731.64 596.935L709.91 595.585L721.91 600.315C722.847 600.662 723.626 601.339 724.099 602.219C724.572 603.1 724.708 604.122 724.48 605.095V605.145C724.239 606.065 723.791 606.916 723.17 607.635C722.466 608.405 721.527 608.92 720.5 609.101C719.473 609.282 718.414 609.118 717.49 608.635L706.08 602.845C696.4 597.915 691.49 595.375 688.5 591.415C686.47 588.698 685.064 585.567 684.38 582.245L683.2 545.655" stroke="black" stroke-width="1.5" stroke-linecap="round" stroke-linejoin="round"/>
<path d="M730.85 576.446C729.32 578.224 727.411 579.635 725.263 580.577C723.115 581.518 720.783 581.966 718.44 581.886C716.033 581.734 713.694 581.022 711.611 579.807C709.528 578.592 707.757 576.907 706.44 574.886" fill="#F7CCB9"/>
<path d="M730.85 576.446C729.32 578.224 727.411 579.635 725.263 580.577C723.115 581.518 720.783 581.966 718.44 581.886C716.033 581.734 713.694 581.022 711.611 579.807C709.528 578.592 707.757 576.907 706.44 574.886" stroke="black" stroke-width="1.5" stroke-linecap="round" stroke-linejoin="round"/>
<path d="M701.111 581.205C702.654 583.42 704.713 585.225 707.111 586.465C711.048 588.388 715.533 588.876 719.791 587.845" fill="#F7CCB9"/>
<path d="M701.111 581.205C702.654 583.42 704.713 585.225 707.111 586.465C711.048 588.388 715.533 588.876 719.791 587.845" stroke="black" stroke-width="1.5" stroke-linecap="round" stroke-linejoin="round"/>
<path d="M695.49 588.716C697.206 590.128 699.066 591.355 701.04 592.376C703.814 593.817 706.776 594.864 709.84 595.486" fill="#F7CCB9"/>
<path d="M695.49 588.716C697.206 590.128 699.066 591.355 701.04 592.376C703.814 593.817 706.776 594.864 709.84 595.486" stroke="black" stroke-width="1.5" stroke-linecap="round" stroke-linejoin="round"/>
<path d="M631.581 384.245C632.311 382.855 640.781 372.445 653.221 370.545C665.291 368.685 682.301 378.465 687.431 391.985L720.041 413.645L666.691 447.395C659.586 441.814 653.784 434.75 649.691 426.695C646.238 419.785 642.207 413.178 637.641 406.945L637.561 406.835" fill="#FFCD88"/>
<path d="M631.581 384.245C632.311 382.855 640.781 372.445 653.221 370.545C665.291 368.685 682.301 378.465 687.431 391.985L720.041 413.645L666.691 447.395C659.586 441.814 653.784 434.75 649.691 426.695C646.238 419.785 642.207 413.178 637.641 406.945L637.561 406.835" stroke="black" stroke-width="1.5" stroke-linecap="round" stroke-linejoin="round"/>
<path d="M687.42 392L691 398.12" stroke="black" stroke-width="1.5" stroke-linecap="round" stroke-linejoin="round"/>
<path d="M557 383L550.5 386.5" stroke="black" stroke-width="1.5" stroke-linecap="round" stroke-linejoin="round"/>
<path d="M505.109 412.396L508.689 418.516" stroke="black" stroke-width="1.5" stroke-linecap="round" stroke-linejoin="round"/>
<path d="M636.567 311.598C644.417 336.268 641.827 359.378 628.917 368.868C623.037 373.198 615.747 373.618 601.167 374.448C591.427 374.998 566.727 376.448 562.697 366.278C561.517 363.278 562.347 360.008 563.697 357.088C556.777 356.758 551.307 352.708 550.077 347.508C548.767 341.938 552.857 337.278 553.147 336.958C558.857 330.648 569.747 331.868 572.727 332.108C584.197 333.038 603.207 329.698 636.567 311.598Z" fill="black" stroke="black" stroke-width="1.5" stroke-linecap="round" stroke-linejoin="round"/>
<path d="M622.027 355.416L595.087 356.307C591.788 357.091 588.339 356.983 585.094 355.997C581.849 355.012 578.924 353.183 576.617 350.696C574.183 347.98 572.555 344.638 571.917 341.046C571.642 339.316 571.612 337.555 571.827 335.816C572.547 329.116 572.887 326.706 573.317 322.046C574.227 311.936 570.517 310.786 572.037 301.846C572.527 298.956 573.157 295.216 575.697 291.846C581.357 284.216 593.067 284.097 596.507 284.117C601.441 284.16 606.311 285.242 610.797 287.296L622.027 355.416Z" fill="#F7CCB9"/>
<path d="M636.567 313.598C638.144 307.463 637.231 300.953 634.027 295.488C627.477 284.818 614.847 284.488 614.027 284.488L603.317 283.918C601.547 283.498 585.527 279.988 574.857 290.218C573.383 291.66 572.084 293.271 570.987 295.018C570.337 296.018 566.817 301.488 568.887 306.948C569.129 307.619 569.466 308.252 569.887 308.828C570.805 309.944 571.96 310.842 573.267 311.458C575.667 312.578 590.927 309.858 611.397 303.968C610.097 307.248 610.137 317.488 611.497 330.498C612.166 337.343 614.327 343.958 617.827 349.878C618.99 351.918 620.423 353.791 622.087 355.448C626.9 341.488 631.727 327.538 636.567 313.598Z" fill="black" stroke="black" stroke-width="1.5" stroke-linecap="round" stroke-linejoin="round"/>
<path d="M594.618 356.358C591.748 365.238 588.868 374.358 585.988 383.268C593.755 388.839 603.236 391.497 612.768 390.778C620.415 390.088 627.703 387.217 633.768 382.508L621.488 355.228" fill="#F7CCB9"/>
<path d="M594.618 356.358C591.748 365.238 588.868 374.358 585.988 383.268C593.755 388.839 603.236 391.497 612.768 390.778C620.415 390.088 627.703 387.217 633.768 382.508L621.488 355.228" stroke="black" stroke-width="1.5" stroke-linecap="round" stroke-linejoin="round"/>
<path d="M586.887 332.336H585.227C584.601 332.333 583.988 332.16 583.454 331.834C582.92 331.508 582.486 331.042 582.198 330.487C581.909 329.932 581.778 329.309 581.819 328.685C581.859 328.061 582.069 327.459 582.427 326.946L586.887 320.576" stroke="black" stroke-width="1.5" stroke-linecap="round" stroke-linejoin="round"/>
<path d="M581.667 336.366C581.623 336.365 581.58 336.375 581.542 336.397C581.503 336.418 581.472 336.45 581.45 336.488C581.428 336.526 581.418 336.569 581.419 336.613C581.42 336.657 581.433 336.699 581.457 336.736C581.909 337.551 582.571 338.23 583.373 338.703C584.176 339.175 585.091 339.425 586.022 339.425C586.954 339.425 587.868 339.175 588.671 338.703C589.474 338.23 590.135 337.551 590.587 336.736C590.608 336.7 590.619 336.658 590.619 336.616C590.619 336.573 590.608 336.532 590.587 336.495C590.565 336.459 590.535 336.429 590.498 336.408C590.461 336.387 590.42 336.376 590.377 336.376L581.667 336.366Z" fill="black"/>
<path fill-rule="evenodd" clip-rule="evenodd" d="M597.518 322.886C597.518 324.372 598.149 325.576 598.928 325.576C599.706 325.576 600.338 324.372 600.338 322.886C600.338 321.401 599.706 320.196 598.928 320.196C598.149 320.196 597.518 321.401 597.518 322.886ZM575.948 322.886C575.948 324.372 576.579 325.576 577.358 325.576C578.136 325.576 578.768 324.372 578.768 322.886C578.768 321.401 578.136 320.196 577.358 320.196C576.579 320.196 575.948 321.401 575.948 322.886Z" fill="black"/>
<path d="M619.868 314.467L621.718 314.407C623.799 314.344 625.822 315.093 627.359 316.497C628.895 317.902 629.824 319.849 629.948 321.927C630.05 323.726 629.541 325.506 628.505 326.98C627.469 328.453 625.965 329.534 624.238 330.047" fill="#F7CCB9"/>
<path d="M619.868 314.467L621.718 314.407C623.799 314.344 625.822 315.093 627.359 316.497C628.895 317.902 629.824 319.849 629.948 321.927C630.05 323.726 629.541 325.506 628.505 326.98C627.469 328.453 625.965 329.534 624.238 330.047" stroke="black" stroke-width="1.5" stroke-linecap="round" stroke-linejoin="round"/>
<path fill-rule="evenodd" clip-rule="evenodd" d="M603.928 318.226C603.152 316.854 601.905 315.81 600.418 315.286L603.928 318.226ZM573.338 318.226C574.114 316.854 575.361 315.81 576.848 315.286L573.338 318.226Z" fill="white"/>
<path fill-rule="evenodd" clip-rule="evenodd" d="M599.766 314.915C599.587 315.23 599.658 315.628 599.936 315.861L603.446 318.801C603.724 319.034 604.129 319.034 604.408 318.803C604.686 318.571 604.759 318.172 604.581 317.857C603.715 316.327 602.325 315.162 600.667 314.579C600.325 314.458 599.946 314.6 599.766 314.915ZM577.499 314.915C577.32 314.6 576.941 314.458 576.599 314.579C574.941 315.162 573.55 316.327 572.685 317.857C572.506 318.172 572.579 318.571 572.858 318.803C573.137 319.034 573.541 319.034 573.819 318.801L577.329 315.861C577.607 315.628 577.679 315.23 577.499 314.915Z" fill="black"/>
<path d="M602.887 354.556L595.127 356.306C591.827 357.089 588.379 356.983 585.134 355.997C581.889 355.012 578.963 353.182 576.656 350.696C574.222 347.981 572.597 344.638 571.967 341.046C571.683 339.317 571.65 337.555 571.867 335.816C572.587 329.116 572.927 326.706 573.357 322.046C574.267 311.936 570.557 310.786 572.077 301.846C572.567 298.956 573.197 295.216 575.737 291.846C581.987 283.426 594.517 283.996 596.547 284.116C599.027 284.266 601.067 284.026 602.387 284.116" stroke="black" stroke-width="1.5" stroke-linecap="round" stroke-linejoin="round"/>
<path d="M1022.79 187.499L778.055 146.357L750.882 307.999L995.618 349.14L1022.79 187.499Z" fill="white" stroke="black" stroke-width="1.5" stroke-linecap="round" stroke-linejoin="round"/>
<path d="M888.628 244.613C888.55 245.284 888.452 245.964 888.334 246.614C886.635 256.773 881.962 266.2 874.905 273.703C867.849 281.206 858.726 286.448 848.69 288.766C838.655 291.084 828.157 290.375 818.524 286.727C808.892 283.08 800.557 276.658 794.575 268.274C788.592 259.889 785.23 249.919 784.913 239.624C784.596 229.329 787.339 219.171 792.795 210.435C798.251 201.699 806.175 194.777 815.565 190.544C824.955 186.311 835.389 184.957 845.548 186.654H845.598C858.871 188.879 870.767 196.159 878.79 206.965C886.812 217.771 890.338 231.264 888.628 244.613Z" fill="#AD85AD" stroke="black" stroke-width="1.5" stroke-linecap="round" stroke-linejoin="round"/>
<path d="M845.608 186.635L837.309 235.992L866.806 280.816L981.62 300.1" stroke="black" stroke-width="1.5" stroke-linecap="round" stroke-linejoin="round"/>
<path d="M991.469 213.689L975.789 211.049L961.41 296.461L977.09 299.101L991.469 213.689Z" fill="#8CA45B" stroke="black" stroke-width="1.5" stroke-linecap="round" stroke-linejoin="round"/>
<path d="M952.042 232.536L936.432 229.912L926.188 290.847L941.798 293.471L952.042 232.536Z" fill="#FFCD88" stroke="black" stroke-width="1.5" stroke-linecap="round" stroke-linejoin="round"/>
<path d="M919.701 252.476L904.09 249.852L897.994 286.113L913.605 288.737L919.701 252.476Z" fill="#FFCD88" stroke="black" stroke-width="1.5" stroke-linecap="round" stroke-linejoin="round"/>
<path d="M888.628 244.614L837.309 235.992C840.055 219.536 842.802 203.084 845.548 186.635H845.598C858.875 188.86 870.774 196.142 878.797 206.953C886.82 217.763 890.344 231.262 888.628 244.614Z" fill="#8CA45B" stroke="black" stroke-width="1.5" stroke-linecap="round" stroke-linejoin="round"/>
<path d="M888.627 244.613C888.55 245.284 888.452 245.964 888.334 246.614C887.192 253.447 884.693 259.982 880.986 265.833C877.278 271.685 872.436 276.735 866.745 280.685L837.309 235.941L888.627 244.613Z" fill="#FFCD88" stroke="black" stroke-width="1.5" stroke-linecap="round" stroke-linejoin="round"/>
<path d="M919.441 650.918L906.329 646.097L899.899 663.582L913.011 668.404L919.441 650.918Z" fill="#82AAD3" stroke="black" stroke-width="1.5" stroke-linecap="round" stroke-linejoin="round"/>
<path d="M1017.04 581.918C1016.75 581.341 1016.35 580.835 1015.84 580.439C1015.33 580.042 1014.75 579.765 1014.12 579.628L987.488 573.808C986.398 573.601 985.27 573.827 984.345 574.439C983.419 575.05 982.768 575.999 982.531 577.083C982.294 578.166 982.489 579.3 983.075 580.242C983.661 581.184 984.591 581.861 985.668 582.128L999.518 585.128L923.158 615.638L896.468 563.318C895.967 562.34 895.108 561.593 894.07 561.234C893.033 560.874 891.896 560.929 890.898 561.388L845.468 582.388C844.961 582.622 844.505 582.954 844.126 583.365C843.748 583.775 843.454 584.256 843.261 584.781C843.068 585.305 842.981 585.862 843.003 586.42C843.026 586.978 843.158 587.526 843.393 588.033C843.627 588.54 843.959 588.995 844.37 589.374C844.78 589.753 845.261 590.047 845.786 590.239C846.31 590.432 846.867 590.52 847.425 590.497C847.983 590.474 848.531 590.342 849.038 590.108L890.748 570.828L917.338 622.948C917.824 623.889 918.643 624.616 919.636 624.986C920.629 625.355 921.724 625.342 922.708 624.948L1004.39 592.398L997.938 605.888C997.45 606.906 997.387 608.077 997.762 609.142C998.137 610.207 998.92 611.079 999.938 611.568L1000.31 611.728C1001.3 612.091 1002.4 612.07 1003.38 611.671C1004.36 611.272 1005.16 610.522 1005.62 609.568L1017.05 585.658C1017.33 585.075 1017.48 584.435 1017.47 583.787C1017.47 583.139 1017.32 582.5 1017.04 581.918Z" fill="#8CA45B" stroke="black" stroke-width="1.5" stroke-linecap="round" stroke-linejoin="round"/>
<path d="M938.768 578.248C931.391 575.533 923.374 575.068 915.733 576.91C908.091 578.752 901.167 582.819 895.837 588.597C890.507 594.374 887.01 601.603 885.788 609.368C884.567 617.133 885.676 625.086 888.975 632.221C892.273 639.356 897.614 645.352 904.321 649.452C911.028 653.551 918.801 655.569 926.655 655.251C934.509 654.933 942.092 652.292 948.446 647.664C954.799 643.035 959.637 636.626 962.348 629.248C965.981 619.358 965.539 608.43 961.117 598.866C956.695 589.302 948.656 581.886 938.768 578.248ZM913.908 645.848C907.914 643.644 902.708 639.711 898.949 634.549C895.19 629.386 893.046 623.224 892.789 616.843C892.532 610.462 894.172 604.147 897.504 598.699C900.835 593.25 905.707 588.911 911.504 586.232C917.301 583.552 923.763 582.652 930.071 583.644C936.38 584.637 942.253 587.478 946.947 591.809C951.641 596.139 954.946 601.764 956.443 607.972C957.94 614.181 957.562 620.694 955.358 626.688C952.4 634.723 946.372 641.256 938.599 644.848C930.827 648.441 921.946 648.801 913.908 645.848Z" fill="#82AAD3" stroke="black" stroke-width="1.5" stroke-linecap="round" stroke-linejoin="round"/>
<path d="M892.102 666.711L916.909 675.948L901.859 716.368C900.631 719.651 898.15 722.313 894.961 723.768C891.772 725.224 888.136 725.354 884.851 724.131C881.563 722.907 878.895 720.426 877.436 717.235C875.976 714.044 875.844 710.404 877.069 707.116L892.119 666.696L892.102 666.711Z" fill="#D88B6D" stroke="black" stroke-width="1.5" stroke-linecap="round" stroke-linejoin="round"/>
<path d="M297.498 588.479L318.985 660.692" stroke="black" stroke-width="1.5" stroke-linecap="round" stroke-linejoin="round"/>
<path d="M312.076 600.787L292.419 606.39L297.784 625.21L317.441 619.607L312.076 600.787Z" fill="#82AAD3" stroke="black" stroke-width="1.5" stroke-linecap="round" stroke-linejoin="round"/>
<path d="M336.391 577.388L357.878 649.61" stroke="black" stroke-width="1.5" stroke-linecap="round" stroke-linejoin="round"/>
<path d="M353.885 599.945L334.228 605.548L345.553 645.275L365.21 639.672L353.885 599.945Z" fill="#82AAD3" stroke="black" stroke-width="1.5" stroke-linecap="round" stroke-linejoin="round"/>
<path d="M368.698 543.189L396.77 638.517" stroke="black" stroke-width="1.5" stroke-linecap="round" stroke-linejoin="round"/>
<path d="M388.486 573.777L368.829 579.38L374.63 599.73L394.287 594.126L388.486 573.777Z" fill="#82AAD3" stroke="black" stroke-width="1.5" stroke-linecap="round" stroke-linejoin="round"/>
<path d="M454.084 546.078L474.977 616.22" stroke="black" stroke-width="1.5" stroke-linecap="round" stroke-linejoin="round"/>
<path d="M475.675 583.034L456.018 588.637L461.819 608.987L481.476 603.383L475.675 583.034Z" fill="#82AAD3" stroke="black" stroke-width="1.5" stroke-linecap="round" stroke-linejoin="round"/>
<path d="M407.041 532.25L435.114 627.588" stroke="black" stroke-width="1.5" stroke-linecap="round" stroke-linejoin="round"/>
<path d="M420.866 541.947L401.209 547.551L412.967 588.797L432.624 583.194L420.866 541.947Z" fill="#F25A33" stroke="black" stroke-width="1.5" stroke-linecap="round" stroke-linejoin="round"/>
</svg>
