<svg width="1220" height="920" viewBox="0 0 1220 920" fill="none" xmlns="http://www.w3.org/2000/svg">
<path d="M663 160.81H744.47" stroke="#CCCCCC" stroke-width="1.5" stroke-linecap="round" stroke-linejoin="round"/>
<path d="M686.61 186.789H768.09" stroke="#CCCCCC" stroke-width="1.5" stroke-linecap="round" stroke-linejoin="round"/>
<path d="M697.24 149V197.42" stroke="#CCCCCC" stroke-width="1.5" stroke-linecap="round" stroke-linejoin="round"/>
<path d="M740.931 149V197.42" stroke="#CCCCCC" stroke-width="1.5" stroke-linecap="round" stroke-linejoin="round"/>
<path d="M395 236.81H476.47" stroke="#CCCCCC" stroke-width="1.5" stroke-linecap="round" stroke-linejoin="round"/>
<path d="M418.61 262.789H500.09" stroke="#CCCCCC" stroke-width="1.5" stroke-linecap="round" stroke-linejoin="round"/>
<path d="M429.24 225V273.42" stroke="#CCCCCC" stroke-width="1.5" stroke-linecap="round" stroke-linejoin="round"/>
<path d="M472.931 225V273.42" stroke="#CCCCCC" stroke-width="1.5" stroke-linecap="round" stroke-linejoin="round"/>
<path d="M876 517.81H957.47" stroke="#CCCCCC" stroke-width="1.5" stroke-linecap="round" stroke-linejoin="round"/>
<path d="M899.61 543.789H981.09" stroke="#CCCCCC" stroke-width="1.5" stroke-linecap="round" stroke-linejoin="round"/>
<path d="M910.24 506V554.42" stroke="#CCCCCC" stroke-width="1.5" stroke-linecap="round" stroke-linejoin="round"/>
<path d="M953.931 506V554.42" stroke="#CCCCCC" stroke-width="1.5" stroke-linecap="round" stroke-linejoin="round"/>
<path d="M806.416 115.508L774.856 389.436L1018.36 417.49L1049.91 143.562L806.416 115.508Z" fill="white"/>
<path d="M806.416 115.508L774.856 389.436L1018.36 417.49L1049.91 143.562L806.416 115.508Z" stroke="black" stroke-width="1.5" stroke-linecap="round" stroke-linejoin="round"/>
<path d="M806.412 115.502L802.292 151.266L1045.79 179.319L1049.91 143.556L806.412 115.502Z" fill="#82AAD3"/>
<path d="M806.412 115.502L802.292 151.266L1045.79 179.319L1049.91 143.556L806.412 115.502Z" stroke="black" stroke-width="1.5" stroke-linecap="round" stroke-linejoin="round"/>
<path fill-rule="evenodd" clip-rule="evenodd" d="M822.595 182.953L819.433 210.341L998.992 230.984L1002.15 203.596L822.595 182.953ZM818.033 222.521L814.872 249.909L994.43 270.552L997.592 243.164L818.033 222.521ZM810.3 289.478L813.462 262.089L993.02 282.733L989.859 310.121L810.3 289.478Z" fill="white"/>
<path d="M819.433 210.341L818.688 210.255C818.666 210.452 818.722 210.651 818.846 210.807C818.97 210.963 819.15 211.063 819.348 211.086L819.433 210.341ZM822.595 182.953L822.682 182.208C822.27 182.16 821.897 182.455 821.85 182.867L822.595 182.953ZM998.992 230.984L998.906 231.729C999.318 231.777 999.69 231.482 999.737 231.07L998.992 230.984ZM1002.15 203.596L1002.9 203.682C1002.92 203.485 1002.86 203.286 1002.74 203.13C1002.62 202.974 1002.44 202.874 1002.24 202.851L1002.15 203.596ZM814.872 249.909L814.127 249.823C814.104 250.021 814.16 250.219 814.284 250.375C814.408 250.531 814.588 250.631 814.786 250.654L814.872 249.909ZM818.033 222.521L818.119 221.776C817.708 221.729 817.336 222.024 817.288 222.435L818.033 222.521ZM994.43 270.552L994.345 271.298C994.756 271.345 995.128 271.05 995.175 270.638L994.43 270.552ZM997.592 243.164L998.337 243.25C998.36 243.053 998.303 242.854 998.179 242.698C998.056 242.542 997.875 242.442 997.677 242.419L997.592 243.164ZM813.462 262.089L813.548 261.344C813.136 261.297 812.764 261.592 812.717 262.003L813.462 262.089ZM810.3 289.478L809.555 289.392C809.533 289.589 809.589 289.788 809.713 289.944C809.837 290.1 810.017 290.2 810.215 290.223L810.3 289.478ZM993.02 282.733L993.766 282.819C993.788 282.621 993.732 282.423 993.608 282.267C993.484 282.111 993.304 282.01 993.106 281.988L993.02 282.733ZM989.859 310.121L989.773 310.866C990.185 310.913 990.557 310.618 990.604 310.207L989.859 310.121ZM820.179 210.427L823.34 183.039L821.85 182.867L818.688 210.255L820.179 210.427ZM999.078 230.239L819.519 209.596L819.348 211.086L998.906 231.729L999.078 230.239ZM1001.41 203.51L998.247 230.898L999.737 231.07L1002.9 203.682L1001.41 203.51ZM822.509 183.698L1002.07 204.341L1002.24 202.851L822.682 182.208L822.509 183.698ZM815.617 249.995L818.778 222.607L817.288 222.435L814.127 249.823L815.617 249.995ZM994.516 269.807L814.957 249.164L814.786 250.654L994.345 271.298L994.516 269.807ZM996.847 243.078L993.685 270.466L995.175 270.638L998.337 243.25L996.847 243.078ZM817.948 223.266L997.506 243.909L997.677 242.419L818.119 221.776L817.948 223.266ZM812.717 262.003L809.555 289.392L811.045 289.564L814.207 262.175L812.717 262.003ZM993.106 281.988L813.548 261.344L813.376 262.835L992.935 283.478L993.106 281.988ZM990.604 310.207L993.766 282.819L992.275 282.647L989.114 310.035L990.604 310.207ZM810.215 290.223L989.773 310.866L989.945 309.376L810.386 288.732L810.215 290.223Z" fill="black"/>
<path d="M835.121 341.644L831.264 375.122L937.035 387.308L940.892 353.829L835.121 341.644Z" fill="#F25A33"/>
<path d="M835.121 341.644L831.264 375.122L937.035 387.308L940.892 353.829L835.121 341.644Z" stroke="black" stroke-width="1.5" stroke-linecap="round" stroke-linejoin="round"/>
<path d="M794.572 305.361L792.994 319.061L806.693 320.639L808.272 306.939L794.572 305.361Z" fill="white"/>
<path d="M807.917 306.941L806.339 320.64L820.039 322.219L821.617 308.519L807.917 306.941Z" stroke="black" stroke-width="1.5" stroke-linecap="round" stroke-linejoin="round"/>
<path d="M339.431 514.43H257.251C255.259 514.43 253.287 514.038 251.447 513.275C249.607 512.513 247.935 511.395 246.528 509.986C245.12 508.577 244.003 506.905 243.242 505.065C242.481 503.224 242.09 501.252 242.091 499.26V341.16C242.091 337.139 243.688 333.283 246.531 330.44C249.374 327.597 253.23 326 257.251 326H496.551C500.571 326 504.428 327.597 507.271 330.44C510.114 333.283 511.711 337.139 511.711 341.16V499.26C511.711 503.281 510.114 507.137 507.271 509.98C504.428 512.823 500.571 514.42 496.551 514.42H393.551" stroke="#CCCCCC" stroke-width="1.5" stroke-linecap="round" stroke-linejoin="round"/>
<path d="M336.08 541.398L347.6 454.688H401.22L389.76 540.939" stroke="#CCCCCC" stroke-width="1.5" stroke-linecap="round" stroke-linejoin="round"/>
<path d="M432.991 541.409H325.021C321.84 541.409 319.261 543.988 319.261 547.169V548.249C319.261 551.43 321.84 554.009 325.021 554.009H432.991C436.172 554.009 438.751 551.43 438.751 548.249V547.169C438.751 543.988 436.172 541.409 432.991 541.409Z" stroke="#CCCCCC" stroke-width="1.5" stroke-linecap="round" stroke-linejoin="round"/>
<path d="M211.94 560.868H198.44V803.748H211.94V560.868Z" stroke="#CCCCCC" stroke-width="1.5" stroke-linecap="round" stroke-linejoin="round"/>
<path d="M203.44 560.868V803.758" stroke="#CCCCCC" stroke-width="1.5" stroke-linecap="round" stroke-linejoin="round"/>
<path d="M150.561 560.868H137.061V803.748H150.561V560.868Z" stroke="#CCCCCC" stroke-width="1.5" stroke-linecap="round" stroke-linejoin="round"/>
<path d="M142.061 560.868V803.758" stroke="#CCCCCC" stroke-width="1.5" stroke-linecap="round" stroke-linejoin="round"/>
<path d="M492.131 560.67H657.041V703.49H508.581C506.421 703.49 504.282 703.064 502.286 702.238C500.29 701.411 498.476 700.199 496.949 698.672C495.421 697.144 494.21 695.331 493.383 693.335C492.556 691.339 492.131 689.2 492.131 687.04V560.67Z" stroke="#CCCCCC" stroke-width="1.5" stroke-linecap="round" stroke-linejoin="round"/>
<path d="M667.48 560.67H591.771V703.49H667.48V560.67Z" stroke="#CCCCCC" stroke-width="1.5" stroke-linecap="round" stroke-linejoin="round"/>
<path d="M667.35 553.938H137V560.388H667.35V553.938Z" stroke="#CCCCCC" stroke-width="1.5" stroke-linecap="round" stroke-linejoin="round"/>
<path d="M667.471 703.489H653.971V803.749H667.471V703.489Z" stroke="#CCCCCC" stroke-width="1.5" stroke-linecap="round" stroke-linejoin="round"/>
<path d="M658.971 703.489V802.929" stroke="#CCCCCC" stroke-width="1.5" stroke-linecap="round" stroke-linejoin="round"/>
<path d="M606.091 703.489H592.591V803.749H606.091V703.489Z" stroke="#CCCCCC" stroke-width="1.5" stroke-linecap="round" stroke-linejoin="round"/>
<path d="M597.591 703.489V802.929" stroke="#CCCCCC" stroke-width="1.5" stroke-linecap="round" stroke-linejoin="round"/>
<path d="M605.94 561.039C605.94 561.039 626.36 596.449 592.66 609.039" stroke="#CCCCCC" stroke-width="1.5" stroke-linecap="round" stroke-linejoin="round"/>
<path d="M635.17 561.72C641.9 609.9 636.25 623.45 629.39 626.4C623.01 629.15 616.27 622.45 607.94 625.72C597.29 629.9 592.87 646.49 591.62 659.42" stroke="#CCCCCC" stroke-width="1.5" stroke-linecap="round" stroke-linejoin="round"/>
<path d="M625.82 596.03C623.32 594.4 615.89 599.36 613.74 605.72C613.4 606.72 612.06 610.72 614.01 612.6C615.59 614.15 618.6 613.66 620.37 612.87C626.78 610.02 628.74 597.94 625.82 596.03Z" stroke="#CCCCCC" stroke-width="1.5" stroke-linecap="round" stroke-linejoin="round"/>
<path d="M621.391 702.828C621.391 702.828 611.391 682.148 621.391 663.768C631.391 645.388 666.581 623.938 666.581 623.938" stroke="#CCCCCC" stroke-width="1.5" stroke-linecap="round" stroke-linejoin="round"/>
<path d="M666.581 649.979C654.291 654.479 650.741 659.8 649.731 663.77C647.511 672.46 656.381 678.969 654.321 689.039C652.971 695.669 647.621 700.17 643.601 702.83" stroke="#CCCCCC" stroke-width="1.5" stroke-linecap="round" stroke-linejoin="round"/>
<path d="M1078.6 803H327.87" stroke="black" stroke-width="1.5" stroke-linecap="round" stroke-linejoin="round"/>
<path d="M747.7 813.21H210" stroke="black" stroke-width="1.5" stroke-linecap="round" stroke-linejoin="round"/>
<path d="M791.62 813.21H760.47" stroke="black" stroke-width="1.5" stroke-linecap="round" stroke-linejoin="round"/>
<path d="M548.584 809.7C559.346 812.075 569.944 815.138 580.314 818.87C592.314 823.22 597.464 826.1 600.144 831.54C600.144 831.54 600.194 831.63 600.214 831.68C600.86 833.072 601.147 834.604 601.05 836.135C600.952 837.667 600.473 839.149 599.656 840.449C598.839 841.748 597.71 842.822 596.372 843.573C595.034 844.324 593.529 844.729 591.994 844.75L507.374 846.41C506.075 846.435 504.788 846.151 503.62 845.582C502.451 845.013 501.435 844.174 500.654 843.135C499.873 842.096 499.349 840.887 499.127 839.607C498.905 838.326 498.989 837.011 499.374 835.77L508.274 807.22L514.444 788.61L544.884 788.01L548.584 809.7Z" fill="#FFCD88" stroke="black" stroke-width="1.5" stroke-linecap="round" stroke-linejoin="round"/>
<path d="M507.064 810.51C515.154 813.03 527.624 815.43 541.564 811.93C543.942 811.333 546.28 810.588 548.564 809.7L544.874 788.01L514.434 788.61L507.064 810.51Z" fill="white" stroke="black" stroke-width="1.5" stroke-linecap="round" stroke-linejoin="round"/>
<path d="M599.063 840.43L500.783 842.35" stroke="black" stroke-width="1.5" stroke-linecap="round" stroke-linejoin="round"/>
<path d="M502.953 822.629C502.953 822.629 521.343 822.779 521.723 841.919" stroke="black" stroke-width="1.5" stroke-linecap="round" stroke-linejoin="round"/>
<path d="M616.584 506.259C595.997 603.459 575.404 700.662 554.804 797.869C546.689 800.523 538.054 801.182 529.63 799.789C521.207 798.396 513.243 794.994 506.414 789.869L515.014 660.969C517.234 640.209 519.447 619.445 521.654 598.679C523.614 564.252 525.571 529.829 527.524 495.409L616.584 506.259Z" fill="black" stroke="black" stroke-width="1.5" stroke-linecap="round" stroke-linejoin="round"/>
<path d="M651.063 765.45C659.604 772.412 667.685 779.921 675.253 787.93C684.043 797.23 687.303 802.11 687.253 808.17V808.33C687.206 809.866 686.775 811.366 685.999 812.693C685.224 814.02 684.129 815.131 682.813 815.927C681.498 816.722 680.005 817.175 678.47 817.246C676.934 817.316 675.406 817.001 674.023 816.33L597.733 779.67C596.563 779.107 595.544 778.274 594.758 777.241C593.973 776.207 593.444 775.001 593.216 773.723C592.987 772.445 593.066 771.131 593.444 769.889C593.823 768.647 594.491 767.513 595.393 766.58L616.213 745.1L630.103 731.26L657.583 744.43C655.403 751.43 653.23 758.436 651.063 765.45Z" fill="#FFCD88" stroke="black" stroke-width="1.5" stroke-linecap="round" stroke-linejoin="round"/>
<path d="M682.324 815.649L593.734 773.069" stroke="black" stroke-width="1.5" stroke-linecap="round" stroke-linejoin="round"/>
<path d="M605.584 756.619C605.584 756.619 621.934 765.049 613.634 782.309" stroke="black" stroke-width="1.5" stroke-linecap="round" stroke-linejoin="round"/>
<path d="M721.445 595.459C717.645 564.459 691.445 552.289 663.885 509.099C658.284 500.326 653.224 491.219 648.735 481.829C647.935 482.269 647.125 482.699 646.295 483.119C637.793 487.446 628.693 490.48 619.295 492.119C608.628 507.219 597.962 522.312 587.295 537.399L610.445 539.779L651.565 620.779C639.085 659.145 626.602 697.525 614.115 735.919L668.515 757.519C701.135 691.949 713.695 646.639 719.115 621.459C721.585 609.859 722.415 603.329 721.445 595.459Z" fill="black" stroke="black" stroke-width="1.5" stroke-linecap="round" stroke-linejoin="round"/>
<path d="M609.584 539.959L622.904 530.039" stroke="white" stroke-width="1.5" stroke-linecap="round" stroke-linejoin="round"/>
<path d="M547.934 809.77L566.044 797.87C566.466 797.584 566.949 797.4 567.455 797.331C567.961 797.263 568.475 797.312 568.959 797.474C569.442 797.637 569.882 797.908 570.244 798.268C570.605 798.628 570.879 799.067 571.044 799.55C571.191 799.975 571.251 800.427 571.218 800.876C571.186 801.325 571.062 801.763 570.854 802.163C570.646 802.563 570.359 802.916 570.01 803.201C569.661 803.486 569.257 803.696 568.824 803.82L547.934 809.77Z" stroke="black" stroke-width="1.5" stroke-linecap="round" stroke-linejoin="round"/>
<path d="M548.514 809.76L565.514 817.76C565.908 817.947 566.255 818.221 566.528 818.562C566.801 818.902 566.992 819.301 567.089 819.727C567.185 820.152 567.183 820.594 567.084 821.019C566.984 821.444 566.789 821.841 566.514 822.18C566.266 822.482 565.959 822.731 565.611 822.911C565.264 823.091 564.883 823.198 564.493 823.226C564.103 823.254 563.711 823.203 563.342 823.074C562.972 822.946 562.632 822.744 562.344 822.48L548.514 809.76Z" stroke="black" stroke-width="1.5" stroke-linecap="round" stroke-linejoin="round"/>
<path d="M655.054 391.009C663.474 409.369 672.924 428.479 683.554 448.139C699.934 478.429 716.823 505.809 733.393 530.319L778.273 501.449L727.393 427.749C727.393 427.749 727.144 427.209 726.724 426.409L705.013 394.539C704.139 390.751 702.972 387.036 701.523 383.429C699.558 378.742 697.165 374.246 694.374 369.999C690.704 364.549 682.493 352.359 667.133 345.899C660.731 343.318 653.954 341.795 647.064 341.389C642.583 341.014 638.079 341.041 633.604 341.469L640.604 353.929" fill="white"/>
<path d="M655.054 391.009C663.474 409.369 672.924 428.479 683.554 448.139C699.934 478.429 716.823 505.809 733.393 530.319L778.273 501.449L727.393 427.749C727.393 427.749 727.144 427.209 726.724 426.409L705.013 394.539C704.139 390.751 702.972 387.036 701.523 383.429C699.558 378.741 697.165 374.246 694.374 369.999C690.704 364.549 682.493 352.359 667.133 345.899C660.731 343.318 653.954 341.795 647.064 341.389C642.583 341.014 638.079 341.041 633.604 341.469L640.604 353.929" stroke="black" stroke-width="1.5" stroke-linecap="round" stroke-linejoin="round"/>
<path d="M787.274 524.649L784.314 515.699L752.774 523.999L752.244 541.669L758.394 553.119L787.274 524.649Z" fill="#D88B6D" stroke="black" stroke-width="1.5" stroke-linecap="round" stroke-linejoin="round"/>
<path d="M753.264 544.469L739.664 526.669L765.734 504.979C766.259 505.744 766.963 506.369 767.784 506.799C769.5 507.601 771.45 507.744 773.264 507.199C776.361 506.257 779.605 505.894 782.834 506.129H782.954C785.115 506.284 787.222 506.877 789.147 507.87C791.072 508.864 792.776 510.238 794.154 511.909L802.584 522.27C804.364 524.44 803.784 527.848 801.294 529.888C798.804 531.888 795.354 531.809 793.574 529.629L790.404 525.75C789.037 524.117 787.289 522.845 785.315 522.047C783.341 521.248 781.202 520.947 779.084 521.169L778.554 521.229" fill="#D88B6D"/>
<path d="M753.264 544.469L739.664 526.669L765.734 504.979C766.259 505.744 766.963 506.369 767.784 506.799C769.5 507.601 771.45 507.744 773.264 507.199C776.361 506.257 779.605 505.894 782.834 506.129H782.954C785.115 506.284 787.222 506.877 789.147 507.87C791.072 508.864 792.776 510.238 794.154 511.909L802.584 522.27C804.364 524.44 803.784 527.848 801.294 529.888C798.804 531.888 795.354 531.809 793.574 529.629L790.404 525.75C789.037 524.117 787.289 522.845 785.315 522.047C783.341 521.248 781.202 520.947 779.084 521.169L778.554 521.229" stroke="black" stroke-width="1.5" stroke-linecap="round" stroke-linejoin="round"/>
<path d="M753.264 544.47C759.264 559.76 762.194 565.8 768.264 581.09C768.549 581.773 769.068 582.332 769.727 582.669C770.386 583.006 771.143 583.098 771.864 582.93L772.224 582.84C772.577 582.739 772.914 582.587 773.224 582.39C773.863 582.028 774.367 581.469 774.661 580.797C774.955 580.124 775.022 579.374 774.854 578.66C772.164 568.57 769.484 559.93 766.804 549.84C771.134 558.77 776.314 570.9 780.654 579.84C781.134 580.688 781.901 581.339 782.817 581.674C783.733 582.009 784.739 582.008 785.654 581.67H785.744C788.314 580.86 789.744 578.2 788.814 576.03C780.464 556.95 775.494 545.38 775.814 545.22C776.134 545.06 781.864 556.41 791.004 575.37C791.583 576.381 792.536 577.125 793.658 577.441C794.78 577.757 795.982 577.62 797.004 577.06H797.084C799.464 575.94 800.604 573.35 799.644 571.27C795.174 561.64 789.554 549.66 785.084 540.03C790.224 549.53 796.514 561.38 801.654 570.89C802.272 571.86 803.232 572.561 804.344 572.854C805.457 573.147 806.638 573.01 807.654 572.47L807.744 572.42C808.856 571.554 809.677 570.367 810.094 569.02C810.442 567.747 810.273 566.388 809.624 565.24C802.064 551.306 794.5 537.383 786.934 523.47" fill="#D88B6D"/>
<path d="M753.264 544.47C759.264 559.76 762.194 565.8 768.264 581.09C768.549 581.773 769.068 582.332 769.727 582.669C770.386 583.006 771.143 583.098 771.864 582.93L772.224 582.84C772.577 582.739 772.914 582.587 773.224 582.39C773.863 582.028 774.367 581.469 774.661 580.797C774.955 580.124 775.022 579.374 774.854 578.66C772.164 568.57 769.484 559.93 766.804 549.84C771.134 558.77 776.314 570.9 780.654 579.84C781.134 580.688 781.901 581.339 782.817 581.674C783.733 582.009 784.739 582.008 785.654 581.67H785.744C788.314 580.86 789.744 578.2 788.814 576.03C780.464 556.95 775.494 545.38 775.814 545.22C776.134 545.06 781.864 556.41 791.004 575.37C791.583 576.381 792.536 577.125 793.658 577.441C794.78 577.757 795.982 577.62 797.004 577.06H797.084C799.464 575.94 800.604 573.35 799.644 571.27C795.174 561.64 789.554 549.66 785.084 540.03C790.224 549.53 796.514 561.38 801.654 570.89C802.272 571.86 803.232 572.561 804.344 572.854C805.457 573.147 806.638 573.01 807.654 572.47L807.744 572.42C808.856 571.554 809.677 570.367 810.094 569.02C810.442 567.747 810.273 566.388 809.624 565.24C802.064 551.306 794.5 537.383 786.934 523.47" stroke="black" stroke-width="1.5" stroke-linecap="round" stroke-linejoin="round"/>
<path d="M789.825 537.329C782.025 541.649 773.825 545.749 766.055 550.069L789.825 537.329Z" fill="#D88B6D"/>
<path d="M789.825 537.329C782.025 541.649 773.825 545.749 766.055 550.069" stroke="black" stroke-width="1.5" stroke-linecap="round" stroke-linejoin="round"/>
<path d="M552.203 476.398L638.923 489.128" stroke="black" stroke-width="1.5" stroke-linecap="round" stroke-linejoin="round"/>
<path d="M511.454 340.329C517.92 335.875 525.357 333.03 533.144 332.029C536.432 331.628 539.754 331.571 543.054 331.859C545.778 338.008 547.613 344.513 548.504 351.179C549.889 361.946 548.812 372.888 545.354 383.179C536.781 387.679 527.901 392.159 518.714 396.619C511.607 400.072 504.607 403.355 497.714 406.469C503.885 418.012 509.261 429.963 513.804 442.239C517.479 452.159 520.604 462.274 523.164 472.539C525.164 477.039 527.127 481.542 529.054 486.049L500.054 500.289L493.544 486.289C484.846 479.7 476.978 472.081 470.114 463.599C466.674 459.349 450.334 438.599 445.264 410.279C441.484 389.139 447.154 381.529 449.594 378.919L449.684 378.819C456.964 371.119 474.194 359.229 511.454 340.329Z" fill="white" stroke="black" stroke-width="1.5" stroke-linecap="round" stroke-linejoin="round"/>
<path d="M530.793 419.939C531.523 411.309 530.583 401.679 533.963 389.219C537.153 377.489 540.663 373.769 543.053 363.219C545.314 352.874 545.314 342.163 543.053 331.819C549.951 331.215 556.898 331.471 563.733 332.579C570.533 333.688 577.172 335.623 583.503 338.339L631.293 339.109C643.296 338.988 655.208 341.192 666.373 345.599C669.475 364.146 669.099 383.109 665.263 401.519C662.213 417.089 658.753 443.619 654.803 488.979C654.589 491.41 653.629 493.715 652.053 495.579C650.478 497.442 648.365 498.773 646.003 499.389C635.7 502.125 625.192 504.021 614.583 505.059C585.287 507.79 555.746 504.174 527.973 494.459C527.763 471.489 528.583 446.549 530.793 419.939Z" fill="#F25A33" stroke="black" stroke-width="1.5" stroke-linecap="round" stroke-linejoin="round"/>
<path d="M631.295 339.149C628.52 342.795 626.396 346.891 625.015 351.259C620.395 366.049 627.015 376.969 628.845 392.369C630.355 405.169 625.565 411.479 623.735 429.129L615.905 504.759C611.771 505.793 607.555 506.462 603.305 506.759C595.581 507.303 587.819 506.628 580.305 504.759C585.593 491.945 589.782 478.704 592.825 465.179C596.385 449.309 602.315 420.009 596.655 383.179C594.236 367.736 589.808 352.675 583.485 338.379L631.295 339.149Z" fill="white" stroke="black" stroke-width="1.5" stroke-linecap="round" stroke-linejoin="round"/>
<path d="M580.203 505.86C581.344 504.251 582.246 502.486 582.883 500.62C583.402 499.078 583.737 497.48 583.883 495.86C564.784 495.27 545.963 491.111 528.393 483.6C528.08 487.526 527.766 491.46 527.453 495.4C530.93 497.036 534.496 498.479 538.133 499.72C542.641 501.215 547.241 502.421 551.903 503.33C561.227 505.123 570.709 505.97 580.203 505.86Z" fill="#F25A33" stroke="black" stroke-width="1.5" stroke-linecap="round" stroke-linejoin="round"/>
<path d="M529.023 486.05L559.233 545.83C559.616 546.632 559.711 547.541 559.502 548.404C559.292 549.268 558.791 550.033 558.083 550.57L557.783 550.79C557.097 551.248 556.312 551.536 555.493 551.63C554.748 551.725 553.991 551.596 553.32 551.259C552.649 550.923 552.093 550.394 551.723 549.74L540.993 530.2L543.673 557.95C543.732 558.575 543.65 559.206 543.434 559.796C543.217 560.386 542.872 560.92 542.423 561.36C541.808 561.973 541.053 562.426 540.223 562.68L539.823 562.78C539.287 562.916 538.728 562.939 538.182 562.849C537.636 562.758 537.115 562.554 536.651 562.252C536.188 561.949 535.792 561.554 535.49 561.09C535.187 560.627 534.984 560.106 534.893 559.56L531.773 538.43L525.953 567.59C525.81 568.291 525.516 568.952 525.091 569.527C524.666 570.102 524.121 570.577 523.493 570.92C522.53 571.439 521.427 571.639 520.343 571.49C519.743 571.402 519.168 571.191 518.653 570.87C517.969 570.412 517.442 569.755 517.145 568.987C516.848 568.22 516.795 567.379 516.993 566.58L520.413 551.16L517.523 552.62C512.633 555.09 506.863 553.62 504.413 549.36L502.583 546.13C502.145 545.294 502.051 544.321 502.32 543.417C502.589 542.513 503.2 541.75 504.023 541.29C504.823 540.773 505.792 540.589 506.726 540.776C507.659 540.963 508.483 541.506 509.023 542.29L509.883 543.7C510.443 544.548 511.293 545.164 512.274 545.431C513.255 545.698 514.3 545.598 515.213 545.15C515.723 544.943 516.185 544.635 516.573 544.245C516.961 543.855 517.267 543.391 517.471 542.88C517.676 542.37 517.775 541.823 517.763 541.273C517.752 540.723 517.629 540.181 517.403 539.68L507.903 521.53C507.342 520.638 506.47 519.985 505.456 519.698C504.442 519.412 503.357 519.511 502.412 519.977C501.467 520.444 500.728 521.244 500.338 522.223C499.949 523.203 499.936 524.292 500.303 525.28L500.403 525.48C500.785 526.409 500.809 527.447 500.471 528.394C500.134 529.34 499.458 530.128 498.574 530.606C497.69 531.084 496.661 531.218 495.684 530.982C494.707 530.747 493.852 530.158 493.283 529.33L491.053 525.17C488.933 521.17 490.373 516.17 494.443 513.29C495.173 512.78 495.833 512.29 496.443 511.86C500.513 508.77 501.233 507.38 501.523 506.28C501.737 505.232 501.714 504.149 501.456 503.111C501.198 502.074 500.712 501.106 500.033 500.28L529.023 486.05Z" fill="#D88B6D" stroke="black" stroke-width="1.5" stroke-linecap="round" stroke-linejoin="round"/>
<path d="M523.343 530.479L526.163 536.049C528.843 541.359 526.243 548.049 520.363 551.049" fill="#D88B6D"/>
<path d="M523.343 530.479L526.163 536.049C528.843 541.359 526.243 548.049 520.363 551.049" stroke="black" stroke-width="1.5" stroke-linecap="round" stroke-linejoin="round"/>
<path d="M533.153 525.52L531.773 538.43" stroke="black" stroke-width="1.5" stroke-linecap="round" stroke-linejoin="round"/>
<path d="M539.604 521.438L540.994 530.198" stroke="black" stroke-width="1.5" stroke-linecap="round" stroke-linejoin="round"/>
<path d="M500.033 500.329C497.041 496.09 494.836 491.348 493.523 486.329L523.133 472.539C524.962 475.177 526.451 478.037 527.563 481.049C528.167 482.679 528.655 484.35 529.023 486.049L500.033 500.329Z" fill="#F25A33" stroke="black" stroke-width="1.5" stroke-linecap="round" stroke-linejoin="round"/>
<path d="M583.143 338L577.143 331.56C576.404 330.765 575.507 330.133 574.51 329.704C573.512 329.275 572.437 329.058 571.351 329.068C570.266 329.077 569.194 329.312 568.205 329.759C567.215 330.205 566.329 330.852 565.603 331.66L565.193 332.11L589.783 354.11C589.153 351.97 588.393 349.7 587.483 347.34C586.381 344.461 585.133 341.641 583.743 338.89C583.589 338.565 583.387 338.265 583.143 338Z" fill="#F25A33" stroke="black" stroke-width="1.5" stroke-linecap="round" stroke-linejoin="round"/>
<path d="M632.974 337.51L640.554 332.05C641.434 331.415 642.437 330.971 643.498 330.745C644.559 330.519 645.656 330.515 646.718 330.735C647.781 330.955 648.786 331.394 649.67 332.023C650.554 332.652 651.298 333.458 651.854 334.39L652.164 334.92C642.704 340.51 634.234 346.09 624.764 351.67C625.764 349.67 625.994 346.62 627.344 344.48C629.214 341.5 631.134 339.84 632.974 337.51Z" fill="#F25A33" stroke="black" stroke-width="1.5" stroke-linecap="round" stroke-linejoin="round"/>
<path d="M496.584 494.498L526.714 479.858" stroke="black" stroke-width="1.5" stroke-linecap="round" stroke-linejoin="round"/>
<path d="M567.904 329.729L587.224 346.79L567.904 329.729Z" fill="white"/>
<path d="M567.904 329.729L587.224 346.79" stroke="black" stroke-width="1.5" stroke-linecap="round" stroke-linejoin="round"/>
<path d="M649.524 332.239L626.674 346.279" stroke="black" stroke-width="1.5" stroke-linecap="round" stroke-linejoin="round"/>
<path d="M497.683 406.47L493.773 399.52" stroke="black" stroke-width="1.5" stroke-linecap="round" stroke-linejoin="round"/>
<path fill-rule="evenodd" clip-rule="evenodd" d="M540.707 474.558C540.224 474.393 539.783 474.124 539.414 473.77L539.364 473.73C538.84 473.223 538.489 472.564 538.36 471.846C538.231 471.128 538.33 470.388 538.644 469.73C540.128 466.643 542.011 463.766 544.244 461.17C552.044 452.15 562.164 448.96 568.164 447.77C568.618 447.681 569.084 447.684 569.536 447.776C569.988 447.869 570.418 448.05 570.8 448.309C571.182 448.569 571.509 448.901 571.762 449.287C572.015 449.673 572.189 450.106 572.274 450.56L572.544 451.98C572.698 452.859 572.509 453.763 572.016 454.507C571.523 455.251 570.764 455.778 569.894 455.98C559.642 458.348 550.66 464.497 544.744 473.2C544.459 473.624 544.085 473.98 543.647 474.244C543.21 474.508 542.72 474.672 542.212 474.727C541.704 474.781 541.191 474.724 540.707 474.558ZM651.584 477.28C652.364 479.08 653.954 479.37 654.954 477.86L654.984 477.81C655.327 477.208 655.544 476.544 655.621 475.856C655.699 475.168 655.635 474.472 655.434 473.81C654.549 470.845 653.359 467.979 651.884 465.26C646.954 456.24 640.524 453.04 636.744 451.86C635.534 451.48 634.374 452.73 634.144 454.64L633.974 456.06C633.754 457.86 634.494 459.64 635.644 460.06C639.568 461.593 643.018 464.135 645.644 467.43C648.088 470.41 650.088 473.728 651.584 477.28Z" fill="white"/>
<path d="M539.414 473.769L539.934 473.228C539.918 473.212 539.901 473.197 539.883 473.183L539.414 473.769ZM540.707 474.557L540.464 475.267L540.707 474.557ZM539.364 473.729L538.843 474.268C538.86 474.284 538.877 474.3 538.896 474.314L539.364 473.729ZM538.644 469.729L537.968 469.404V469.406L538.644 469.729ZM544.244 461.169L543.677 460.678L543.676 460.68L544.244 461.169ZM568.164 447.769L568.021 447.033H568.018L568.164 447.769ZM569.536 447.775L569.687 447.04L569.536 447.775ZM570.8 448.308L570.379 448.929L570.8 448.308ZM572.274 450.559L571.537 450.697L571.538 450.699L572.274 450.559ZM572.544 451.979L573.283 451.85L573.281 451.839L572.544 451.979ZM572.016 454.506L571.391 454.092L572.016 454.506ZM569.894 455.979L570.063 456.71L570.064 456.709L569.894 455.979ZM544.744 473.199L544.124 472.777L544.122 472.78L544.744 473.199ZM543.647 474.243L543.26 473.601L543.647 474.243ZM654.954 477.859L655.58 478.273C655.586 478.263 655.592 478.254 655.597 478.244L654.954 477.859ZM651.584 477.279L650.893 477.57L650.896 477.577L651.584 477.279ZM654.984 477.809L655.627 478.195C655.63 478.19 655.633 478.185 655.636 478.18L654.984 477.809ZM655.621 475.855L654.876 475.771L655.621 475.855ZM655.434 473.809L654.716 474.023L654.717 474.026L655.434 473.809ZM651.884 465.259L652.543 464.901L652.542 464.899L651.884 465.259ZM636.744 451.859L636.52 452.574H636.521L636.744 451.859ZM634.144 454.639L633.4 454.549L634.144 454.639ZM633.974 456.059L634.719 456.15V456.148L633.974 456.059ZM635.644 460.059L635.917 459.36C635.912 459.358 635.907 459.356 635.902 459.354L635.644 460.059ZM645.644 467.429L645.058 467.896L645.064 467.904L645.644 467.429ZM538.895 474.309C539.342 474.739 539.878 475.066 540.464 475.267L540.95 473.848C540.57 473.718 540.223 473.506 539.934 473.228L538.895 474.309ZM538.896 474.314L538.946 474.354L539.883 473.183L539.833 473.143L538.896 474.314ZM537.622 471.978C537.779 472.85 538.206 473.651 538.843 474.268L539.886 473.19C539.475 472.792 539.199 472.275 539.098 471.712L537.622 471.978ZM537.968 469.406C537.586 470.206 537.465 471.105 537.622 471.978L539.098 471.712C538.997 471.149 539.075 470.568 539.321 470.052L537.968 469.406ZM543.676 460.68C541.399 463.325 539.481 466.258 537.968 469.404L539.32 470.054C540.775 467.027 542.622 464.204 544.813 461.658L543.676 460.68ZM568.018 447.033C561.939 448.239 551.632 451.48 543.677 460.678L544.812 461.659C552.457 452.818 562.39 449.679 568.31 448.504L568.018 447.033ZM569.687 447.04C569.137 446.928 568.571 446.925 568.021 447.033L568.308 448.505C568.664 448.435 569.03 448.437 569.386 448.51L569.687 447.04ZM571.221 447.688C570.757 447.373 570.236 447.153 569.687 447.04L569.386 448.51C569.741 448.583 570.079 448.725 570.379 448.929L571.221 447.688ZM572.389 448.875C572.082 448.406 571.685 448.003 571.221 447.688L570.379 448.929C570.679 449.133 570.936 449.394 571.135 449.697L572.389 448.875ZM573.011 450.421C572.908 449.869 572.697 449.344 572.389 448.875L571.135 449.697C571.334 450.001 571.47 450.341 571.537 450.697L573.011 450.421ZM573.281 451.839L573.011 450.419L571.538 450.699L571.808 452.119L573.281 451.839ZM572.641 454.921C573.24 454.017 573.47 452.918 573.283 451.85L571.806 452.108C571.926 452.798 571.777 453.508 571.391 454.092L572.641 454.921ZM570.064 456.709C571.12 456.465 572.042 455.825 572.641 454.921L571.391 454.092C571.004 454.676 570.408 455.09 569.725 455.248L570.064 456.709ZM545.365 473.62C551.174 465.074 559.994 459.035 570.063 456.71L569.726 455.248C559.289 457.659 550.146 463.919 544.124 472.777L545.365 473.62ZM544.035 474.885C544.566 474.565 545.021 474.132 545.367 473.617L544.122 472.78C543.898 473.113 543.604 473.393 543.26 473.601L544.035 474.885ZM542.292 475.472C542.909 475.406 543.504 475.205 544.035 474.885L543.26 473.601C542.916 473.808 542.532 473.937 542.132 473.98L542.292 475.472ZM540.464 475.267C541.051 475.468 541.675 475.538 542.292 475.472L542.132 473.98C541.733 474.023 541.33 473.978 540.95 473.848L540.464 475.267ZM654.329 477.444C653.942 478.028 653.561 478.114 653.316 478.071C653.032 478.021 652.603 477.744 652.272 476.98L650.896 477.577C651.345 478.613 652.102 479.381 653.057 479.549C654.053 479.723 654.966 479.199 655.58 478.273L654.329 477.444ZM654.341 477.423L654.311 477.473L655.597 478.244L655.627 478.195L654.341 477.423ZM654.876 475.771C654.81 476.358 654.625 476.924 654.333 477.437L655.636 478.18C656.029 477.491 656.278 476.728 656.367 475.939L654.876 475.771ZM654.717 474.026C654.888 474.591 654.942 475.185 654.876 475.771L656.367 475.939C656.455 475.15 656.382 474.351 656.152 473.591L654.717 474.026ZM651.225 465.616C652.675 468.291 653.845 471.108 654.716 474.023L656.153 473.594C655.253 470.58 654.043 467.666 652.543 464.901L651.225 465.616ZM636.521 452.574C640.148 453.707 646.405 456.797 651.226 465.618L652.542 464.899C647.504 455.68 640.901 452.37 636.968 451.143L636.521 452.574ZM634.889 454.728C634.99 453.891 635.288 453.262 635.625 452.901C635.951 452.553 636.256 452.491 636.52 452.574L636.969 451.143C636.022 450.846 635.143 451.22 634.528 451.878C633.925 452.525 633.529 453.476 633.4 454.549L634.889 454.728ZM634.719 456.148L634.889 454.728L633.4 454.549L633.23 455.969L634.719 456.148ZM635.902 459.354C635.595 459.242 635.244 458.901 634.988 458.287C634.739 457.69 634.624 456.926 634.719 456.15L633.23 455.968C633.105 456.991 633.25 458.017 633.603 458.865C633.95 459.696 634.543 460.455 635.387 460.763L635.902 459.354ZM646.231 466.961C643.522 463.563 639.964 460.941 635.917 459.36L635.371 460.757C639.172 462.242 642.514 464.705 645.058 467.896L646.231 466.961ZM652.275 476.987C650.752 473.369 648.713 469.989 646.224 466.953L645.064 467.904C647.462 470.829 649.425 474.084 650.893 477.57L652.275 476.987Z" fill="black"/>
<path d="M582.755 501.259C564.894 500.922 547.282 497.002 530.965 489.729L582.755 501.259Z" fill="#F25A33"/>
<path d="M582.755 501.259C564.894 500.922 547.282 497.002 530.965 489.729" stroke="black" stroke-width="1.5" stroke-linecap="round" stroke-linejoin="round"/>
<path d="M616.204 504.07C615.916 502.327 615.876 500.553 616.084 498.8C616.266 497.237 616.649 495.704 617.224 494.24C630.485 493.828 643.52 490.7 655.524 485.05C656.07 487.693 655.848 490.438 654.884 492.96C653.03 494.768 650.973 496.355 648.754 497.69C643.394 500.91 638.554 501.75 632.154 502.79C626.881 503.654 621.547 504.082 616.204 504.07Z" fill="#F25A33" stroke="black" stroke-width="1.5" stroke-linecap="round" stroke-linejoin="round"/>
<path d="M616.145 499.439C621.944 499.621 627.744 499.115 633.424 497.929C640.873 496.342 648.064 493.716 654.784 490.129" fill="#F25A33"/>
<path d="M616.145 499.439C621.944 499.621 627.744 499.115 633.424 497.929C640.873 496.342 648.064 493.716 654.784 490.129" stroke="black" stroke-width="1.5" stroke-linecap="round" stroke-linejoin="round"/>
<path d="M814.524 392.909L709.224 738.329L622.634 840.869C622.415 841.13 622.122 841.319 621.794 841.412C621.466 841.505 621.118 841.497 620.794 841.389C620.471 841.281 620.187 841.078 619.98 840.807C619.773 840.536 619.653 840.209 619.634 839.869L609.074 705.529L715.524 362.479C718.757 352.074 725.982 343.375 735.616 338.286C745.25 333.197 756.508 332.134 766.924 335.329L787.214 341.559C797.64 344.754 806.371 351.957 811.492 361.584C816.612 371.212 817.703 382.478 814.524 392.909Z" fill="#8CA45B" stroke="black" stroke-width="1.5" stroke-miterlimit="10" stroke-linecap="round" stroke-linejoin="round"/>
<path d="M704.023 399.539L689.604 446.539L789.013 476.999L803.643 428.659L704.023 399.539Z" fill="white" stroke="black" stroke-width="1.5" stroke-miterlimit="10" stroke-linecap="round" stroke-linejoin="round"/>
<path d="M795.553 454.289L696.943 423.669" stroke="black" stroke-width="1.5" stroke-miterlimit="10" stroke-linecap="round" stroke-linejoin="round"/>
<path d="M690.434 447.01L787.994 476.93L686.744 459.05L690.434 447.01Z" fill="black" stroke="black" stroke-width="1.5" stroke-linecap="round" stroke-linejoin="round"/>
<path d="M709.224 738.329L622.634 840.869C622.415 841.13 622.122 841.319 621.794 841.412C621.466 841.505 621.118 841.497 620.794 841.389C620.471 841.281 620.187 841.078 619.98 840.807C619.773 840.536 619.653 840.209 619.634 839.869L609.074 705.529L650.644 664.909C653.531 683.509 656.418 702.109 659.304 720.709L698.184 680.529L709.224 738.329Z" fill="white" stroke="black" stroke-width="1.5" stroke-miterlimit="10" stroke-linecap="round" stroke-linejoin="round"/>
<path d="M698.184 680.53L762.294 471.47" stroke="black" stroke-width="1.5" stroke-miterlimit="10" stroke-linecap="round" stroke-linejoin="round"/>
<path d="M650.645 664.909L713.174 459.869" stroke="black" stroke-width="1.5" stroke-miterlimit="10" stroke-linecap="round" stroke-linejoin="round"/>
<path d="M657.244 799.329L615.854 786.329L619.773 841.329C619.779 841.559 619.858 841.782 619.997 841.965C620.136 842.149 620.329 842.285 620.549 842.355C620.768 842.424 621.004 842.423 621.224 842.352C621.443 842.281 621.635 842.144 621.773 841.959L657.244 799.329Z" fill="black" stroke="black" stroke-width="1.5" stroke-linecap="round" stroke-linejoin="round"/>
<path d="M787.213 341.539L766.923 335.329C756.504 332.135 745.244 333.202 735.61 338.294C725.975 343.387 718.752 352.091 715.523 362.499L704.023 399.559L803.193 430.109C806.973 417.723 810.75 405.329 814.523 392.929C817.714 382.493 816.63 371.217 811.508 361.58C806.387 351.943 797.648 344.735 787.213 341.539Z" fill="#AD85AD"/>
<path d="M787.213 341.539L766.923 335.329C756.504 332.135 745.244 333.202 735.61 338.294C725.975 343.387 718.752 352.091 715.523 362.499L704.023 399.559L803.193 430.109C806.973 417.723 810.75 405.329 814.523 392.929C817.714 382.493 816.63 371.217 811.508 361.58C806.387 351.943 797.648 344.735 787.213 341.539Z" stroke="black" stroke-width="1.5" stroke-linecap="round" stroke-linejoin="round"/>
<path d="M622.914 316.488C625.794 325.378 627.854 330.558 630.724 339.488C622.961 345.06 613.483 347.719 603.954 346.998C596.307 346.311 589.017 343.44 582.954 338.728L590.304 308.918C590.937 306.33 590.741 303.609 589.745 301.138L580.414 278.138" fill="#D88B6D"/>
<path d="M622.914 316.488C625.794 325.378 627.854 330.558 630.724 339.488C622.961 345.06 613.483 347.719 603.954 346.998C596.307 346.311 589.017 343.44 582.954 338.728L590.304 308.918C590.937 306.33 590.741 303.609 589.745 301.138L580.414 278.138" stroke="black" stroke-width="1.5" stroke-miterlimit="10"/>
<path d="M644.495 262.118C644.495 263.588 644.495 265.168 644.415 266.578C644.125 272.688 643.415 274.828 643.045 278.578C642.525 284.348 643.875 284.018 644.045 293.388C644.155 298.768 644.215 301.458 643.285 304.388C642.935 305.468 640.955 311.958 635.665 315.058C630.375 318.158 623.745 316.948 612.665 314.058C606.207 312.388 599.912 310.142 593.855 307.348L579.985 275.518L600.415 246.518C615.465 237.178 631.985 238.358 639.605 247.008C643.855 251.768 644.555 258.038 644.495 262.118Z" fill="#D88B6D"/>
<path d="M649.29 252.995C648.725 256.387 644.5 256.336 643.146 253.175C641.637 249.654 637.732 247.821 634.059 248.908L601.674 258.501C601.674 258.501 601.674 269.503 601.674 279.577L596 268.501L591.5 285.503L581 293.001L578.576 280.341C577.203 273.175 577.008 265.786 578.688 258.687C578.765 258.361 578.842 258.041 578.92 257.728C579.719 254.511 581.848 251.992 584.5 250.003C585.461 245.198 588.197 240.756 592.672 238.761C610.537 230.795 623.737 241.517 646.5 237.501C646.5 237.501 650.798 243.949 649.29 252.995Z" fill="black" stroke="black" stroke-width="1.5" stroke-linecap="round" stroke-linejoin="round"/>
<path d="M628.914 288.508H630.574C631.2 288.51 631.815 288.339 632.351 288.015C632.887 287.691 633.323 287.227 633.613 286.672C633.903 286.117 634.035 285.493 633.995 284.868C633.954 284.243 633.743 283.642 633.384 283.128L628.914 276.758" stroke="black" stroke-width="1.5" stroke-linecap="round" stroke-linejoin="round"/>
<path d="M634.464 292.357C633.975 293.408 633.169 294.279 632.159 294.848C631.149 295.416 629.986 295.654 628.834 295.527C628.014 295.374 627.237 295.041 626.561 294.551C625.885 294.062 625.326 293.429 624.924 292.697L634.464 292.357Z" fill="black"/>
<path d="M596.854 270.648L595.015 270.588C592.934 270.521 590.909 271.269 589.371 272.671C587.832 274.073 586.901 276.02 586.775 278.098C586.674 279.898 587.183 281.679 588.222 283.153C589.26 284.627 590.766 285.707 592.495 286.218" fill="#D88B6D"/>
<path d="M596.854 270.648L595.015 270.588C592.934 270.521 590.909 271.269 589.371 272.671C587.832 274.073 586.901 276.02 586.775 278.098C586.674 279.898 587.183 281.679 588.222 283.153C589.26 284.627 590.766 285.707 592.495 286.218" stroke="black" stroke-width="1.5" stroke-miterlimit="10"/>
<path d="M614.334 240.208H620.174C622.174 240.088 634.744 239.518 640.984 247.938C643.524 251.368 644.164 255.108 644.654 257.988C646.174 266.938 642.454 272.518 643.374 282.628C643.794 287.278 644.144 289.698 644.864 296.398C645.076 298.137 645.042 299.898 644.764 301.628C644.704 301.988 644.624 302.358 644.544 302.718C642.034 313.358 630.684 319.378 620.254 316.128L611.254 313.338" stroke="black" stroke-width="1.5" stroke-linecap="round" stroke-linejoin="round"/>
<path fill-rule="evenodd" clip-rule="evenodd" d="M618.828 278.771C618.828 280.256 618.197 281.461 617.418 281.461C616.64 281.461 616.008 280.256 616.008 278.771C616.008 277.285 616.64 276.081 617.418 276.081C618.197 276.081 618.828 277.285 618.828 278.771ZM641.359 278.771C641.359 280.256 640.728 281.461 639.95 281.461C639.171 281.461 638.539 280.256 638.539 278.771C638.539 277.285 639.171 276.081 639.95 276.081C640.728 276.081 641.359 277.285 641.359 278.771Z" fill="black"/>
<path d="M646.2 288.611C652.06 288.611 656.81 283.861 656.81 278.001C656.81 272.142 652.06 267.391 646.2 267.391C640.341 267.391 635.59 272.142 635.59 278.001C635.59 283.861 640.341 288.611 646.2 288.611Z" stroke="black" stroke-width="1.5" stroke-linecap="round" stroke-linejoin="round"/>
<path fill-rule="evenodd" clip-rule="evenodd" d="M612.418 274.121C613.192 272.747 614.44 271.702 615.928 271.181L612.418 274.121ZM643.969 274.121C643.193 272.75 641.946 271.706 640.459 271.181L643.969 274.121Z" fill="white"/>
<path fill-rule="evenodd" clip-rule="evenodd" d="M639.808 270.81C639.987 270.495 640.367 270.353 640.709 270.474C642.366 271.058 643.756 272.223 644.622 273.752C644.801 274.067 644.728 274.465 644.449 274.698C644.171 274.93 643.766 274.929 643.488 274.696L639.978 271.756C639.7 271.523 639.628 271.125 639.808 270.81ZM616.58 270.811C616.759 271.126 616.688 271.524 616.41 271.756L612.9 274.696C612.622 274.929 612.218 274.93 611.939 274.698C611.661 274.467 611.587 274.069 611.765 273.754C612.627 272.22 614.02 271.054 615.681 270.473C616.023 270.354 616.402 270.496 616.58 270.811Z" fill="black"/>
<path opacity="0.17" fill-rule="evenodd" clip-rule="evenodd" d="M626.789 278.001C626.789 283.861 622.039 288.611 616.179 288.611C610.319 288.611 605.569 283.861 605.569 278.001C605.569 272.142 610.319 267.391 616.179 267.391C622.039 267.391 626.789 272.142 626.789 278.001ZM657.22 278.001C657.22 283.861 652.47 288.611 646.61 288.611C640.751 288.611 636 283.861 636 278.001C636 272.142 640.751 267.391 646.61 267.391C652.47 267.391 657.22 272.142 657.22 278.001Z" fill="white"/>
<path d="M616.179 288.611C622.039 288.611 626.789 283.861 626.789 278.001C626.789 272.142 622.039 267.391 616.179 267.391C610.319 267.391 605.569 272.142 605.569 278.001C605.569 283.861 610.319 288.611 616.179 288.611Z" stroke="black" stroke-width="1.5" stroke-linecap="round" stroke-linejoin="round"/>
<path d="M635.26 276.361H626.77" stroke="black" stroke-width="1.5" stroke-linecap="round" stroke-linejoin="round"/>
<path d="M358.359 216.714L363.35 267.49L221.898 281.392L211.054 171.031L278.669 164.378" fill="#82AAD3"/>
<path d="M358.359 216.714L363.35 267.49L221.898 281.392L211.054 171.031L278.669 164.378" stroke="black" stroke-width="1.5" stroke-linecap="round" stroke-linejoin="round"/>
<path d="M415.702 97.5771L275.029 111.396L286.253 225.646L426.926 211.827L415.702 97.5771Z" fill="#FFE1B8" stroke="black" stroke-width="1.5" stroke-linecap="round" stroke-linejoin="round"/>
<path d="M317.119 159.776C324.453 159.675 330.316 153.648 330.215 146.314C330.114 138.98 324.087 133.117 316.753 133.218C309.419 133.32 303.556 139.347 303.658 146.68C303.759 154.014 309.786 159.877 317.119 159.776Z" fill="white" stroke="black" stroke-width="1.5" stroke-linecap="round" stroke-linejoin="round"/>
<path d="M252.371 216.884C259.704 216.783 265.568 210.756 265.466 203.422C265.365 196.089 259.338 190.226 252.004 190.327C244.671 190.428 238.808 196.455 238.909 203.789C239.01 211.122 245.037 216.985 252.371 216.884Z" fill="white" stroke="black" stroke-width="1.5" stroke-linecap="round" stroke-linejoin="round"/>
<path d="M423.599 181.519L376.153 142.24L352.158 177.575L339.372 193.192L359.909 218.912L403.08 214.316L426.978 211.836L423.599 181.519Z" fill="#82AAD3" stroke="black" stroke-width="1.5" stroke-linecap="round" stroke-linejoin="round"/>
<path d="M395.319 215.034L336.873 165.725L286.255 225.629" fill="#82AAD3"/>
<path d="M395.319 215.034L336.873 165.725L286.255 225.629" stroke="black" stroke-width="1.5" stroke-linecap="round" stroke-linejoin="round"/>
<path d="M221.898 281.391L283.748 210.701" stroke="black" stroke-width="1.5" stroke-linecap="round" stroke-linejoin="round"/>
<path d="M300.045 224.799L347.55 269.038" stroke="black" stroke-width="1.5" stroke-linecap="round" stroke-linejoin="round"/>
<path d="M415.702 97.5771L275.029 111.396L286.253 225.646L426.926 211.827L415.702 97.5771Z" stroke="black" stroke-width="1.5" stroke-linecap="round" stroke-linejoin="round"/>
<path d="M1026.24 587.013L788.892 669.91L812.8 738.365L1050.15 655.468L1026.24 587.013Z" fill="white" stroke="black" stroke-width="1.5" stroke-linecap="round" stroke-linejoin="round"/>
<path d="M831.78 675.394L841.332 681.99L852.941 681.761L849.623 692.886L853.425 703.857L841.818 704.136L832.554 711.137L828.703 700.188L819.18 693.551L828.412 686.501L831.78 675.394Z" fill="#AD85AD" stroke="black" stroke-width="1.5" stroke-linecap="round" stroke-linejoin="round"/>
<path d="M872.837 661.054L882.39 667.65L893.999 667.431L890.681 678.546L894.483 689.516L882.876 689.795L873.612 696.807L869.761 685.848L860.237 679.211L869.47 672.17L872.837 661.054Z" fill="#AD85AD" stroke="black" stroke-width="1.5" stroke-linecap="round" stroke-linejoin="round"/>
<path d="M913.895 646.724L923.448 653.32L935.056 653.091L931.739 664.215L935.54 675.186L923.933 675.465L914.68 682.466L910.819 671.517L901.295 664.881L910.527 657.83L913.895 646.724Z" fill="#AD85AD" stroke="black" stroke-width="1.5" stroke-linecap="round" stroke-linejoin="round"/>
<path d="M954.953 632.383L964.505 638.979L976.114 638.75L972.796 649.875L976.598 660.846L964.991 661.125L955.727 668.126L951.876 657.177L942.363 650.54L951.585 643.489L954.953 632.383Z" fill="white" stroke="black" stroke-width="1.5" stroke-linecap="round" stroke-linejoin="round"/>
<path d="M996.01 618.043L1005.56 624.639L1017.17 624.42L1013.85 635.544L1017.66 646.505L1006.05 646.784L996.795 653.795L992.944 642.836L983.41 636.2L992.643 629.159L996.01 618.043Z" fill="white" stroke="black" stroke-width="1.5" stroke-linecap="round" stroke-linejoin="round"/>
<path d="M330.921 502.239L197.137 542.877L267.038 773.004L400.823 732.367L330.921 502.239Z" fill="white" stroke="black" stroke-width="1.5" stroke-linecap="round" stroke-linejoin="round"/>
<path d="M330.93 502.227L197.145 542.864L209.352 583.051L343.136 542.414L330.93 502.227Z" fill="#8CA45B" stroke="black" stroke-width="1.5" stroke-linecap="round" stroke-linejoin="round"/>
<path d="M299.205 587.849L258.74 600.14L259.996 604.274L300.46 591.982L299.205 587.849Z" fill="white" stroke="black" stroke-width="1.5" stroke-linecap="round" stroke-linejoin="round"/>
<path d="M321.39 582.38L305.017 587.377L306.282 591.521L322.655 586.523L321.39 582.38Z" fill="white" stroke="black" stroke-width="1.5" stroke-linecap="round" stroke-linejoin="round"/>
<path d="M309.651 622.262L269.186 634.553L270.442 638.686L310.906 626.395L309.651 622.262Z" fill="white" stroke="black" stroke-width="1.5" stroke-linecap="round" stroke-linejoin="round"/>
<path d="M329.838 616.131L313.505 621.092L314.76 625.226L331.094 620.265L329.838 616.131Z" fill="white" stroke="black" stroke-width="1.5" stroke-linecap="round" stroke-linejoin="round"/>
<path d="M320.106 656.671L279.641 668.962L280.897 673.096L321.361 660.805L320.106 656.671Z" fill="white" stroke="black" stroke-width="1.5" stroke-linecap="round" stroke-linejoin="round"/>
<path d="M340.301 650.53L323.968 655.492L325.223 659.625L341.556 654.664L340.301 650.53Z" fill="white" stroke="black" stroke-width="1.5" stroke-linecap="round" stroke-linejoin="round"/>
<path fill-rule="evenodd" clip-rule="evenodd" d="M245.138 608.755C245.15 612.886 241.811 616.245 237.68 616.256C233.549 616.268 230.19 612.929 230.178 608.798C230.166 604.667 233.505 601.309 237.636 601.297C241.767 601.285 245.126 604.624 245.138 608.755ZM255.588 643.165C255.6 647.296 252.261 650.654 248.13 650.666C243.999 650.678 240.64 647.339 240.628 643.208C240.616 639.077 243.955 635.718 248.086 635.706C252.217 635.694 255.576 639.034 255.588 643.165ZM258.589 685.076C262.72 685.064 266.06 681.706 266.048 677.575C266.036 673.444 262.677 670.104 258.546 670.116C254.415 670.128 251.076 673.487 251.088 677.618C251.1 681.749 254.458 685.088 258.589 685.076ZM276.497 711.985C276.509 716.116 273.17 719.474 269.039 719.486C264.908 719.498 261.549 716.159 261.537 712.028C261.525 707.897 264.865 704.538 268.996 704.526C273.127 704.514 276.485 707.853 276.497 711.985Z" fill="white"/>
<path d="M237.68 616.256L237.682 617.006L237.68 616.256ZM245.138 608.755L245.888 608.753L245.138 608.755ZM230.178 608.798L230.928 608.796L230.178 608.798ZM237.636 601.297L237.638 602.047L237.636 601.297ZM248.13 650.666L248.132 651.416L248.13 650.666ZM255.588 643.165L256.338 643.162L255.588 643.165ZM248.086 635.706L248.088 636.456L248.086 635.706ZM266.048 677.575L265.298 677.577L266.048 677.575ZM258.589 685.076L258.591 685.826L258.589 685.076ZM258.546 670.116L258.548 670.866L258.546 670.116ZM251.088 677.618L251.838 677.616L251.088 677.618ZM269.039 719.486L269.041 720.236L269.039 719.486ZM276.497 711.985L275.747 711.987L276.497 711.985ZM261.537 712.028L262.287 712.026L261.537 712.028ZM268.996 704.526L268.998 705.276L268.996 704.526ZM237.682 617.006C242.227 616.993 245.901 613.298 245.888 608.753L244.388 608.757C244.399 612.474 241.394 615.496 237.677 615.506L237.682 617.006ZM229.428 608.8C229.441 613.346 233.137 617.02 237.682 617.006L237.677 615.506C233.961 615.517 230.939 612.513 230.928 608.796L229.428 608.8ZM237.634 600.547C233.089 600.56 229.415 604.255 229.428 608.8L230.928 608.796C230.917 605.079 233.922 602.057 237.638 602.047L237.634 600.547ZM245.888 608.753C245.875 604.207 242.179 600.533 237.634 600.547L237.638 602.047C241.355 602.036 244.377 605.04 244.388 608.757L245.888 608.753ZM248.132 651.416C252.677 651.403 256.351 647.708 256.338 643.162L254.838 643.167C254.849 646.884 251.844 649.906 248.127 649.916L248.132 651.416ZM239.878 643.21C239.891 647.756 243.586 651.429 248.132 651.416L248.127 649.916C244.411 649.927 241.389 646.923 241.378 643.206L239.878 643.21ZM248.084 634.956C243.539 634.97 239.865 638.665 239.878 643.21L241.378 643.206C241.367 639.489 244.372 636.467 248.088 636.456L248.084 634.956ZM256.338 643.162C256.325 638.617 252.629 634.943 248.084 634.956L248.088 636.456C251.805 636.446 254.827 639.45 254.838 643.167L256.338 643.162ZM265.298 677.577C265.308 681.294 262.304 684.316 258.587 684.326L258.591 685.826C263.137 685.813 266.811 682.118 266.798 677.572L265.298 677.577ZM258.548 670.866C262.265 670.856 265.287 673.86 265.298 677.577L266.798 677.572C266.784 673.027 263.089 669.353 258.544 669.366L258.548 670.866ZM251.838 677.616C251.827 673.899 254.831 670.877 258.548 670.866L258.544 669.366C253.998 669.38 250.324 673.075 250.338 677.62L251.838 677.616ZM258.587 684.326C254.87 684.337 251.848 681.333 251.838 677.616L250.338 677.62C250.351 682.165 254.046 685.839 258.591 685.826L258.587 684.326ZM269.041 720.236C273.586 720.223 277.26 716.528 277.247 711.982L275.747 711.987C275.758 715.704 272.754 718.725 269.037 718.736L269.041 720.236ZM260.787 712.03C260.801 716.575 264.496 720.249 269.041 720.236L269.037 718.736C265.32 718.747 262.298 715.743 262.287 712.026L260.787 712.03ZM268.993 703.776C264.448 703.789 260.774 707.485 260.787 712.03L262.287 712.026C262.277 708.309 265.281 705.287 268.998 705.276L268.993 703.776ZM277.247 711.982C277.234 707.437 273.539 703.763 268.993 703.776L268.998 705.276C272.715 705.265 275.737 708.27 275.747 711.987L277.247 711.982Z" fill="black"/>
<path d="M330.562 691.084L290.097 703.375L291.353 707.509L331.817 695.217L330.562 691.084Z" fill="white" stroke="black" stroke-width="1.5" stroke-linecap="round" stroke-linejoin="round"/>
<path d="M350.746 684.943L334.413 689.904L335.669 694.038L352.002 689.077L350.746 684.943Z" fill="white" stroke="black" stroke-width="1.5" stroke-linecap="round" stroke-linejoin="round"/>
<path d="M400.258 365.055L318.636 344.136L297.337 427.24L378.959 448.159L400.258 365.055Z" fill="white" stroke="black" stroke-width="1.5" stroke-linecap="round" stroke-linejoin="round"/>
<path d="M318.64 344.138L378.962 448.152" stroke="black" stroke-width="1.5" stroke-linecap="round" stroke-linejoin="round"/>
<path d="M297.344 427.238L400.258 365.052" stroke="black" stroke-width="1.5" stroke-linecap="round" stroke-linejoin="round"/>
</svg>
