<svg width="1220" height="920" viewBox="0 0 1220 920" fill="none" xmlns="http://www.w3.org/2000/svg">
<path d="M1097.04 166H824V330.07H1097.04V166Z" stroke="#CCCCCC" stroke-width="1.5" stroke-linecap="round" stroke-linejoin="round"/>
<path d="M1082.09 180.311H838.95V315.761H1082.09V180.311Z" stroke="#CCCCCC" stroke-width="1.5" stroke-linecap="round" stroke-linejoin="round"/>
<path d="M907.79 227.429C917.599 227.429 925.55 219.478 925.55 209.669C925.55 199.861 917.599 191.909 907.79 191.909C897.982 191.909 890.03 199.861 890.03 209.669C890.03 219.478 897.982 227.429 907.79 227.429Z" stroke="#CCCCCC" stroke-width="1.5" stroke-linecap="round" stroke-linejoin="round"/>
<path d="M900.63 315.27L961.08 210.17L999.57 272.59" stroke="#CCCCCC" stroke-width="1.5" stroke-linecap="round" stroke-linejoin="round"/>
<path d="M975.63 316.01L1020.29 235.09L1067.42 315.02" stroke="#CCCCCC" stroke-width="1.5" stroke-linecap="round" stroke-linejoin="round"/>
<path d="M944.79 239.279H979.34" stroke="#CCCCCC" stroke-width="1.5" stroke-linecap="round" stroke-linejoin="round"/>
<path d="M1008.63 256.3H1032.69" stroke="#CCCCCC" stroke-width="1.5" stroke-linecap="round" stroke-linejoin="round"/>
<path d="M857.09 548.779C852.833 531.858 844.037 516.419 831.65 504.129C831.262 503.741 830.955 503.279 830.748 502.77C830.541 502.26 830.439 501.715 830.448 501.165C830.456 500.616 830.575 500.074 830.797 499.571C831.019 499.069 831.34 498.616 831.74 498.24L831.8 498.189C832.193 497.816 832.656 497.525 833.163 497.333C833.669 497.14 834.209 497.05 834.75 497.068C835.292 497.085 835.824 497.21 836.317 497.436C836.81 497.661 837.253 497.982 837.62 498.379C844.128 505.437 849.87 513.163 854.75 521.43C860.75 531.54 863.83 540.999 866.3 548.659" stroke="#CCCCCC" stroke-width="1.5" stroke-linecap="round" stroke-linejoin="round"/>
<path d="M862.42 548.228C860.86 542.028 856.61 519.588 851.26 506.228C847.14 495.968 839.08 486.228 833.87 481.068C833.481 480.68 833.174 480.218 832.968 479.709C832.761 479.199 832.659 478.654 832.667 478.104C832.676 477.555 832.795 477.013 833.017 476.51C833.239 476.007 833.56 475.555 833.96 475.178L834.02 475.118C834.414 474.746 834.877 474.455 835.384 474.264C835.891 474.072 836.43 473.983 836.972 474.001C837.513 474.02 838.046 474.146 838.538 474.372C839.031 474.598 839.473 474.92 839.84 475.318C845.24 481.178 854.5 492.238 858.63 502.548C863.03 513.498 869.12 540.428 871.63 548.088" stroke="#CCCCCC" stroke-width="1.5" stroke-linecap="round" stroke-linejoin="round"/>
<path d="M873.651 548.78C877.921 531.856 886.727 516.419 899.121 504.13C899.509 503.741 899.815 503.279 900.022 502.77C900.229 502.262 900.331 501.717 900.324 501.168C900.317 500.619 900.199 500.077 899.979 499.574C899.758 499.071 899.439 498.617 899.041 498.24L898.971 498.19C898.579 497.816 898.117 497.523 897.612 497.33C897.106 497.137 896.567 497.046 896.026 497.064C895.485 497.082 894.953 497.207 894.461 497.433C893.969 497.659 893.527 497.981 893.161 498.38C886.646 505.433 880.901 513.16 876.021 521.43C870.021 531.54 866.951 541 864.471 548.66" stroke="#CCCCCC" stroke-width="1.5" stroke-linecap="round" stroke-linejoin="round"/>
<path d="M868.271 548.229C869.831 542.029 874.081 519.589 879.431 506.229C883.551 495.969 891.611 486.229 896.821 481.069C897.209 480.68 897.515 480.218 897.722 479.709C897.929 479.201 898.031 478.656 898.024 478.107C898.016 477.558 897.899 477.016 897.679 476.513C897.458 476.01 897.139 475.556 896.741 475.179L896.671 475.119C896.278 474.746 895.815 474.456 895.309 474.264C894.803 474.073 894.264 473.984 893.724 474.002C893.183 474.021 892.652 474.147 892.16 474.373C891.668 474.599 891.227 474.92 890.861 475.319C885.451 481.179 876.201 492.239 872.061 502.549C867.661 513.499 861.571 540.429 859.061 548.089" stroke="#CCCCCC" stroke-width="1.5" stroke-linecap="round" stroke-linejoin="round"/>
<path d="M683.23 704.939L648.92 793.279C648.531 794.287 648.392 795.375 648.517 796.448C648.642 797.522 649.026 798.549 649.636 799.441C650.247 800.332 651.065 801.062 652.02 801.567C652.976 802.072 654.039 802.337 655.12 802.339C656.196 802.338 657.255 802.077 658.208 801.577C659.161 801.077 659.978 800.354 660.59 799.469L725.92 704.879" stroke="#CCCCCC" stroke-width="1.5" stroke-linecap="round" stroke-linejoin="round"/>
<path d="M1040.07 704.939L1074.38 793.279C1074.77 794.287 1074.91 795.375 1074.78 796.448C1074.66 797.522 1074.27 798.549 1073.66 799.441C1073.05 800.332 1072.24 801.062 1071.28 801.567C1070.33 802.072 1069.26 802.337 1068.18 802.339C1067.11 802.338 1066.05 802.077 1065.09 801.577C1064.14 801.077 1063.32 800.354 1062.71 799.469L997.381 704.879" stroke="#CCCCCC" stroke-width="1.5" stroke-linecap="round" stroke-linejoin="round"/>
<path d="M624 615.39V704.76H1101.35V615.39H624ZM1088 694.06H637.38V626.06H1087.97L1088 694.06Z" stroke="#CCCCCC" stroke-width="1.5" stroke-linecap="round" stroke-linejoin="round"/>
<path d="M680.37 668.229H818.8V693.919H680.37C678.684 693.919 677.014 693.587 675.457 692.942C673.899 692.297 672.483 691.351 671.291 690.159C670.099 688.966 669.153 687.55 668.508 685.992C667.862 684.434 667.53 682.765 667.53 681.078C667.529 679.391 667.86 677.722 668.505 676.163C669.149 674.604 670.095 673.187 671.287 671.994C672.48 670.8 673.896 669.854 675.454 669.208C677.013 668.562 678.683 668.229 680.37 668.229Z" stroke="#CCCCCC" stroke-width="1.5" stroke-linecap="round" stroke-linejoin="round"/>
<path d="M680.491 674.97H818.801V687.1H680.491C678.883 687.1 677.342 686.461 676.206 685.325C675.069 684.188 674.431 682.647 674.431 681.04C674.429 680.243 674.585 679.454 674.889 678.718C675.193 677.981 675.639 677.312 676.202 676.748C676.765 676.184 677.433 675.737 678.169 675.432C678.905 675.127 679.694 674.97 680.491 674.97Z" stroke="#CCCCCC" stroke-width="1.5" stroke-linecap="round" stroke-linejoin="round"/>
<path d="M689.651 642.858H828.071V668.548H689.651C686.245 668.548 682.979 667.196 680.571 664.788C678.163 662.38 676.811 659.114 676.811 655.708C676.809 654.021 677.14 652.351 677.785 650.792C678.43 649.233 679.375 647.816 680.568 646.623C681.76 645.429 683.176 644.483 684.735 643.837C686.293 643.191 687.964 642.858 689.651 642.858Z" stroke="#CCCCCC" stroke-width="1.5" stroke-linecap="round" stroke-linejoin="round"/>
<path d="M689.77 649.64H828.07V661.77H689.77C688.163 661.77 686.621 661.131 685.485 659.995C684.348 658.858 683.71 657.317 683.71 655.71C683.709 654.913 683.864 654.124 684.168 653.388C684.472 652.651 684.919 651.982 685.481 651.418C686.044 650.854 686.713 650.407 687.449 650.102C688.185 649.797 688.973 649.64 689.77 649.64Z" stroke="#CCCCCC" stroke-width="1.5" stroke-linecap="round" stroke-linejoin="round"/>
<path d="M874.45 668.229H1012.87V693.919H874.45C872.764 693.914 871.096 693.577 869.54 692.927C867.984 692.277 866.571 691.327 865.383 690.13C864.194 688.934 863.253 687.516 862.612 685.956C861.972 684.396 861.645 682.726 861.65 681.039C861.658 677.646 863.009 674.394 865.408 671.994C867.806 669.593 871.057 668.24 874.45 668.229Z" stroke="#CCCCCC" stroke-width="1.5" stroke-linecap="round" stroke-linejoin="round"/>
<path d="M874.571 674.97H1012.88V687.1H874.571C872.964 687.1 871.422 686.461 870.286 685.325C869.149 684.188 868.511 682.647 868.511 681.04C868.509 680.243 868.665 679.454 868.969 678.718C869.273 677.981 869.719 677.312 870.282 676.748C870.845 676.184 871.514 675.737 872.249 675.432C872.985 675.127 873.774 674.97 874.571 674.97Z" stroke="#CCCCCC" stroke-width="1.5" stroke-linecap="round" stroke-linejoin="round"/>
<path d="M883.731 642.858H1022.15V668.548H883.731C880.325 668.548 877.059 667.196 874.651 664.788C872.243 662.38 870.891 659.114 870.891 655.708C870.891 654.022 871.223 652.353 871.868 650.795C872.513 649.237 873.459 647.821 874.651 646.629C875.844 645.437 877.259 644.491 878.817 643.846C880.375 643.2 882.044 642.868 883.731 642.868V642.858Z" stroke="#CCCCCC" stroke-width="1.5" stroke-linecap="round" stroke-linejoin="round"/>
<path d="M883.85 649.64H1022.15V661.77H883.85C882.243 661.77 880.701 661.131 879.565 659.995C878.428 658.858 877.79 657.317 877.79 655.71C877.79 654.102 878.428 652.561 879.565 651.425C880.701 650.288 882.243 649.65 883.85 649.65V649.64Z" stroke="#CCCCCC" stroke-width="1.5" stroke-linecap="round" stroke-linejoin="round"/>
<path d="M902.81 615.228H829.5L853.65 548.558L874.82 548.318C884.147 570.638 893.477 592.942 902.81 615.228Z" stroke="#CCCCCC" stroke-width="1.5" stroke-linecap="round" stroke-linejoin="round"/>
<path d="M287.82 383H291.39C308.793 383 325.484 389.914 337.79 402.22C350.096 414.526 357.01 431.216 357.01 448.62V608.22H222.21V448.61C222.213 431.21 229.126 414.523 241.43 402.22C253.733 389.916 270.42 383.003 287.82 383Z" stroke="#CCCCCC" stroke-width="1.5" stroke-linecap="round" stroke-linejoin="round"/>
<path d="M203.32 513.22H210.13C211.762 513.218 213.379 513.537 214.888 514.159C216.397 514.781 217.769 515.694 218.925 516.847C220.081 517.999 220.999 519.368 221.626 520.875C222.253 522.382 222.577 523.998 222.58 525.63V608.22C214.183 608.22 206.13 604.885 200.193 598.947C194.256 593.01 190.92 584.957 190.92 576.56V525.63C190.925 522.342 192.233 519.19 194.557 516.864C196.881 514.539 200.032 513.228 203.32 513.22Z" stroke="#CCCCCC" stroke-width="1.5" stroke-linecap="round" stroke-linejoin="round"/>
<path d="M223.48 569.38H355.74" stroke="#CCCCCC" stroke-width="1.5" stroke-linecap="round" stroke-linejoin="round"/>
<path d="M245.53 608.46H333.7C333.703 611.055 333.194 613.625 332.202 616.023C331.211 618.421 329.756 620.6 327.922 622.435C326.088 624.271 323.91 625.726 321.512 626.719C319.115 627.712 316.545 628.222 313.95 628.22H265.27C260.035 628.22 255.014 626.141 251.312 622.439C247.61 618.737 245.53 613.716 245.53 608.48V608.46Z" stroke="#CCCCCC" stroke-width="1.5" stroke-linecap="round" stroke-linejoin="round"/>
<path d="M391.911 761.119V747.079V739.589V730.399H301.021V628.039H278.551V730.399H187.311V747.079H187.331V760.119" stroke="#CCCCCC" stroke-width="1.5" stroke-linecap="round" stroke-linejoin="round"/>
<path d="M301.021 761.119V747.079H370.801V761.119" stroke="#CCCCCC" stroke-width="1.5" stroke-linecap="round" stroke-linejoin="round"/>
<path d="M208.44 761.119V747.079H278.55V761.119" stroke="#CCCCCC" stroke-width="1.5" stroke-linecap="round" stroke-linejoin="round"/>
<path d="M208.18 522.399C205.897 522.405 203.71 523.315 202.098 524.931C200.486 526.547 199.58 528.737 199.58 531.019L199.77 565.289C199.77 582.779 207.49 596.949 217 596.949L216.81 531.019C216.81 529.887 216.587 528.765 216.153 527.718C215.719 526.672 215.083 525.721 214.282 524.921C213.48 524.12 212.529 523.485 211.482 523.053C210.435 522.62 209.313 522.398 208.18 522.399Z" stroke="#CCCCCC" stroke-width="1.5" stroke-linecap="round" stroke-linejoin="round"/>
<path d="M357.24 608.18V525.63C357.238 523.996 357.557 522.378 358.181 520.867C358.804 519.357 359.719 517.984 360.874 516.828C362.028 515.672 363.399 514.754 364.909 514.128C366.418 513.502 368.036 513.18 369.67 513.18H376.48C379.777 513.18 382.938 514.49 385.27 516.821C387.601 519.152 388.91 522.314 388.91 525.61V576.53C388.909 580.688 388.089 584.805 386.496 588.645C384.904 592.486 382.571 595.975 379.63 598.914C376.689 601.853 373.198 604.184 369.357 605.774C365.515 607.364 361.398 608.181 357.24 608.18Z" stroke="#CCCCCC" stroke-width="1.5" stroke-linecap="round" stroke-linejoin="round"/>
<path d="M371.581 522.399C373.867 522.399 376.059 523.308 377.676 524.924C379.292 526.541 380.201 528.733 380.201 531.019L380.01 565.289C380.01 582.779 372.291 596.949 362.771 596.949L362.971 531.019C362.969 529.888 363.191 528.767 363.623 527.721C364.055 526.676 364.689 525.725 365.489 524.925C366.288 524.124 367.238 523.489 368.283 523.056C369.329 522.622 370.449 522.399 371.581 522.399Z" stroke="#CCCCCC" stroke-width="1.5" stroke-linecap="round" stroke-linejoin="round"/>
<path d="M197.11 800.33C208.769 800.33 218.22 790.933 218.22 779.34C218.22 767.748 208.769 758.35 197.11 758.35C185.451 758.35 176 767.748 176 779.34C176 790.933 185.451 800.33 197.11 800.33Z" stroke="#CCCCCC" stroke-width="1.5" stroke-linecap="round" stroke-linejoin="round"/>
<path d="M197.11 788.479C202.185 788.479 206.3 784.387 206.3 779.339C206.3 774.291 202.185 770.199 197.11 770.199C192.034 770.199 187.92 774.291 187.92 779.339C187.92 784.387 192.034 788.479 197.11 788.479Z" stroke="#CCCCCC" stroke-width="1.5" stroke-linecap="round" stroke-linejoin="round"/>
<path d="M290.03 800.33C301.689 800.33 311.14 790.933 311.14 779.34C311.14 767.748 301.689 758.35 290.03 758.35C278.371 758.35 268.92 767.748 268.92 779.34C268.92 790.933 278.371 800.33 290.03 800.33Z" stroke="#CCCCCC" stroke-width="1.5" stroke-linecap="round" stroke-linejoin="round"/>
<path d="M290.03 788.479C295.105 788.479 299.22 784.387 299.22 779.339C299.22 774.291 295.105 770.199 290.03 770.199C284.954 770.199 280.84 774.291 280.84 779.339C280.84 784.387 284.954 788.479 290.03 788.479Z" stroke="#CCCCCC" stroke-width="1.5" stroke-linecap="round" stroke-linejoin="round"/>
<path d="M381.28 800.33C392.939 800.33 402.39 790.933 402.39 779.34C402.39 767.748 392.939 758.35 381.28 758.35C369.621 758.35 360.17 767.748 360.17 779.34C360.17 790.933 369.621 800.33 381.28 800.33Z" stroke="#CCCCCC" stroke-width="1.5" stroke-linecap="round" stroke-linejoin="round"/>
<path d="M381.28 788.479C386.355 788.479 390.47 784.387 390.47 779.339C390.47 774.291 386.355 770.199 381.28 770.199C376.204 770.199 372.09 774.291 372.09 779.339C372.09 784.387 376.204 788.479 381.28 788.479Z" stroke="#CCCCCC" stroke-width="1.5" stroke-linecap="round" stroke-linejoin="round"/>
<path d="M524.926 730.076L561.386 676.436C564.067 672.308 565.077 667.315 564.211 662.47C563.345 657.625 560.668 653.291 556.723 650.347C552.778 647.404 547.861 646.072 542.97 646.621C538.079 647.171 533.58 649.561 530.386 653.306C511.266 675.304 498.129 701.852 492.236 730.396L524.926 730.076Z" fill="#C8B571" stroke="black" stroke-width="1.5" stroke-linecap="round" stroke-linejoin="round"/>
<path d="M464.466 729.427C461.173 721.84 457.506 714.08 453.466 706.147C444.273 688.178 433.757 670.918 422.007 654.507C420.144 651.906 418.831 648.953 418.147 645.829C417.463 642.704 417.422 639.473 418.028 636.332C418.633 633.191 419.872 630.206 421.668 627.559C423.464 624.912 425.781 622.659 428.476 620.937L428.856 620.697C433.695 617.613 439.491 616.399 445.16 617.28C450.83 618.162 455.983 621.08 459.656 625.487C484.317 655.021 499.708 691.179 503.897 729.427H464.466Z" fill="#C8B571" stroke="black" stroke-width="1.5" stroke-linecap="round" stroke-linejoin="round"/>
<path d="M398.096 711.817C400.576 714.655 403.962 716.548 407.679 717.173C411.396 717.798 415.214 717.118 418.486 715.247C435.006 705.65 454.309 701.984 473.196 704.857C454.535 693.502 433.5 686.62 411.736 684.747C397.096 683.477 388.406 700.757 398.096 711.817Z" fill="#C8B571" stroke="black" stroke-width="1.5" stroke-linecap="round" stroke-linejoin="round"/>
<path d="M473.196 704.855C473.196 704.855 494.196 720.345 500.676 730.045" stroke="black" stroke-width="1.5" stroke-linecap="round" stroke-linejoin="round"/>
<path fill-rule="evenodd" clip-rule="evenodd" d="M439.153 636.453C438.869 636.151 438.394 636.137 438.092 636.421C437.791 636.704 437.776 637.179 438.06 637.481C448.634 648.72 457.723 661.27 465.105 674.821C471.068 686.113 475.915 697.959 479.578 710.192C479.697 710.589 480.115 710.814 480.511 710.695C480.908 710.576 481.134 710.158 481.015 709.762C477.323 697.434 472.439 685.496 466.43 674.117L466.425 674.108C458.981 660.442 449.816 647.787 439.153 636.453ZM542.294 670.118C542.571 669.81 542.546 669.336 542.238 669.059C541.93 668.782 541.456 668.807 541.179 669.115C525.699 686.317 514.46 706.904 508.363 729.229C508.254 729.628 508.489 730.041 508.889 730.15C509.288 730.259 509.701 730.023 509.81 729.624C515.845 707.525 526.97 687.146 542.294 670.118ZM402.333 700.711C402.333 700.711 402.333 700.711 402.076 700.006C401.82 699.301 401.82 699.301 401.821 699.301H401.822L401.826 699.299L401.841 699.294L401.903 699.271L402.145 699.184C402.356 699.108 402.667 698.997 403.066 698.856C403.864 698.573 405.013 698.17 406.42 697.687C409.233 696.721 413.08 695.436 417.212 694.162C421.342 692.888 425.765 691.622 429.728 690.695C433.668 689.773 437.231 689.168 439.605 689.257C440.018 689.272 440.341 689.62 440.326 690.034C440.31 690.448 439.962 690.771 439.548 690.756C437.397 690.675 434.009 691.234 430.07 692.156C426.154 693.072 421.767 694.327 417.654 695.595C413.542 696.864 409.71 698.143 406.907 699.105C405.505 699.586 404.361 699.988 403.567 700.27C403.17 700.41 402.861 700.521 402.652 700.596L402.413 700.682L402.353 700.704L402.337 700.709L402.334 700.711H402.333ZM401.371 700.262C401.23 699.873 401.431 699.443 401.82 699.301L402.076 700.006L402.333 700.711C401.943 700.853 401.513 700.652 401.371 700.262ZM453.952 703.647C453.632 703.384 453.16 703.431 452.897 703.751L453.001 704.806L453.002 704.807L453.008 704.812L453.034 704.833C453.056 704.853 453.091 704.881 453.137 704.92C453.229 704.997 453.366 705.114 453.543 705.267C453.899 705.575 454.417 706.032 455.066 706.628C456.362 707.82 458.178 709.565 460.244 711.773C464.38 716.191 469.508 722.444 473.508 729.805C473.705 730.169 474.161 730.303 474.525 730.106C474.889 729.908 475.023 729.452 474.826 729.088C470.745 721.579 465.528 715.222 461.339 710.748C459.243 708.509 457.401 706.737 456.081 705.524C455.421 704.917 454.891 704.45 454.525 704.133C454.342 703.975 454.2 703.854 454.103 703.773C454.055 703.732 454.018 703.701 453.992 703.68L453.963 703.656L453.956 703.649L453.953 703.648V703.647C453.953 703.647 453.952 703.647 453.477 704.227L453.952 703.647Z" fill="black"/>
<path d="M439.906 728.807H550.466V737.857C550.466 752.518 544.642 766.578 534.275 776.945C523.908 787.313 509.847 793.137 495.186 793.137C480.525 793.137 466.464 787.313 456.097 776.945C445.73 766.578 439.906 752.518 439.906 737.857V728.807Z" fill="#F25A33" stroke="black" stroke-width="1.5" stroke-linecap="round" stroke-linejoin="round"/>
<path d="M450.576 755.956H427.296V801.856H450.576V755.956Z" fill="#FFE1B8" stroke="black" stroke-width="1.5" stroke-linecap="round" stroke-linejoin="round"/>
<path d="M557.896 755.956H534.616V801.856H557.896V755.956Z" fill="#FFE1B8" stroke="black" stroke-width="1.5" stroke-linecap="round" stroke-linejoin="round"/>
<path fill-rule="evenodd" clip-rule="evenodd" d="M431.886 756.042C431.878 755.627 431.536 755.298 431.121 755.307C430.707 755.315 430.378 755.658 430.387 756.072C430.476 760.539 431.789 764.896 434.183 768.668C434.189 768.678 434.196 768.688 434.203 768.698C435.706 770.835 437.547 772.713 439.653 774.257C441.292 775.636 443.083 778.024 444.836 781.371C446.589 784.719 448.282 788.982 449.735 794.053C449.85 794.451 450.265 794.682 450.663 794.568C451.061 794.453 451.292 794.038 451.177 793.64C449.701 788.491 447.974 784.13 446.165 780.675C444.361 777.231 442.454 774.645 440.598 773.092C440.585 773.081 440.572 773.071 440.559 773.061C438.581 771.614 436.852 769.854 435.44 767.85C433.2 764.312 431.97 760.228 431.886 756.042ZM427.705 778.336C429.229 778.299 430.745 778.572 432.16 779.138C433.575 779.705 434.861 780.553 435.938 781.631C437.016 782.71 437.863 783.996 438.428 785.412C438.994 786.828 439.265 788.344 439.227 789.868V789.872C439.147 793.871 439.063 797.871 438.977 801.87C438.968 802.284 439.296 802.627 439.71 802.636C440.124 802.645 440.467 802.317 440.476 801.903C440.563 797.903 440.646 793.903 440.726 789.903C440.77 788.177 440.462 786.46 439.821 784.856C439.181 783.251 438.221 781.793 437 780.571C435.778 779.349 434.321 778.388 432.717 777.746C431.116 777.105 429.401 776.796 427.677 776.837H427.556C427.142 776.837 426.806 777.172 426.806 777.587C426.806 778.001 427.142 778.337 427.556 778.337H427.686L427.705 778.336Z" fill="black"/>
<path fill-rule="evenodd" clip-rule="evenodd" d="M549.819 755.994C549.878 755.584 549.594 755.203 549.184 755.143C548.774 755.084 548.393 755.369 548.334 755.778L544.614 781.539C544.343 783.422 544.485 785.342 545.029 787.166C545.573 788.989 546.507 790.672 547.766 792.099C549.024 793.526 550.578 794.663 552.319 795.431C554.06 796.198 555.947 796.579 557.849 796.546C558.264 796.538 558.593 796.197 558.586 795.783C558.579 795.369 558.237 795.039 557.823 795.046C556.138 795.075 554.466 794.739 552.924 794.059C551.382 793.379 550.006 792.371 548.891 791.107C547.776 789.843 546.949 788.352 546.467 786.737C545.985 785.122 545.859 783.422 546.099 781.754V781.752L549.819 755.994ZM534.707 788.945C534.292 788.945 533.957 789.281 533.957 789.695C533.957 790.096 534.272 790.424 534.668 790.444C537.057 791.211 539.142 792.718 540.622 794.747C542.123 796.805 542.92 799.291 542.897 801.838C542.893 802.252 543.225 802.592 543.64 802.596C544.054 802.6 544.393 802.267 544.397 801.853C544.423 798.984 543.525 796.181 541.834 793.862C540.143 791.543 537.75 789.831 535.009 788.979C534.937 788.957 534.862 788.945 534.786 788.945H534.707Z" fill="black"/>
<path d="M453.517 703.607C460.947 706.707 468.817 710.307 477.007 714.507C485.357 718.777 493.007 723.147 500.007 727.437C497.873 725.137 495.603 722.804 493.197 720.437C487.12 714.543 480.637 709.083 473.797 704.097C467.105 702.933 460.278 702.762 453.536 703.587L453.517 703.607Z" fill="black"/>
<path d="M376.07 208.1L424.75 159.42L471.73 206.4" stroke="black" stroke-width="1.5" stroke-linecap="round" stroke-linejoin="round"/>
<path d="M429.18 159.425C429.18 156.981 427.199 155 424.755 155C422.311 155 420.33 156.981 420.33 159.425C420.33 161.869 422.311 163.85 424.755 163.85C427.199 163.85 429.18 161.869 429.18 159.425Z" fill="#82AAD3" stroke="black" stroke-width="1.5" stroke-linecap="round" stroke-linejoin="round"/>
<path d="M638.18 430.92H192V206.6H381.86H638.18V430.92Z" fill="white" stroke="black" stroke-width="1.5" stroke-linecap="round" stroke-linejoin="round"/>
<path fill-rule="evenodd" clip-rule="evenodd" d="M308.24 238.819H523.58V244.939H308.24V238.819ZM308.24 257.619H355.35V263.739H308.24V257.619ZM523.37 257.619H360.44V263.739H523.37V257.619ZM341.89 276.189H487.9V282.309H341.89V276.189Z" fill="#82AAD3"/>
<path d="M523.58 238.819H524.33C524.33 238.405 523.994 238.069 523.58 238.069V238.819ZM308.24 238.819V238.069C307.826 238.069 307.49 238.405 307.49 238.819H308.24ZM523.58 244.939V245.689C523.994 245.689 524.33 245.354 524.33 244.939H523.58ZM308.24 244.939H307.49C307.49 245.354 307.826 245.689 308.24 245.689V244.939ZM355.35 257.619H356.1C356.1 257.205 355.764 256.869 355.35 256.869V257.619ZM308.24 257.619V256.869C307.826 256.869 307.49 257.205 307.49 257.619H308.24ZM355.35 263.739V264.489C355.764 264.489 356.1 264.153 356.1 263.739H355.35ZM308.24 263.739H307.49C307.49 264.153 307.826 264.489 308.24 264.489V263.739ZM360.44 257.619V256.869C360.026 256.869 359.69 257.205 359.69 257.619H360.44ZM523.37 257.619H524.12C524.12 257.205 523.784 256.869 523.37 256.869V257.619ZM360.44 263.739H359.69C359.69 264.153 360.026 264.489 360.44 264.489V263.739ZM523.37 263.739V264.489C523.784 264.489 524.12 264.153 524.12 263.739H523.37ZM487.9 276.189H488.65C488.65 275.775 488.314 275.439 487.9 275.439V276.189ZM341.89 276.189V275.439C341.476 275.439 341.14 275.775 341.14 276.189H341.89ZM487.9 282.309V283.059C488.314 283.059 488.65 282.724 488.65 282.309H487.9ZM341.89 282.309H341.14C341.14 282.724 341.476 283.059 341.89 283.059V282.309ZM523.58 238.069H308.24V239.569H523.58V238.069ZM524.33 244.939V238.819H522.83V244.939H524.33ZM308.24 245.689H523.58V244.189H308.24V245.689ZM307.49 238.819V244.939H308.99V238.819H307.49ZM355.35 256.869H308.24V258.369H355.35V256.869ZM356.1 263.739V257.619H354.6V263.739H356.1ZM308.24 264.489H355.35V262.989H308.24V264.489ZM307.49 257.619V263.739H308.99V257.619H307.49ZM360.44 258.369H523.37V256.869H360.44V258.369ZM361.19 263.739V257.619H359.69V263.739H361.19ZM523.37 262.989H360.44V264.489H523.37V262.989ZM522.62 257.619V263.739H524.12V257.619H522.62ZM487.9 275.439H341.89V276.939H487.9V275.439ZM488.65 282.309V276.189H487.15V282.309H488.65ZM341.89 283.059H487.9V281.559H341.89V283.059ZM341.14 276.189V282.309H342.64V276.189H341.14Z" fill="black"/>
<path fill-rule="evenodd" clip-rule="evenodd" d="M268.27 415.419C278.631 415.419 287.03 407.02 287.03 396.659C287.03 386.299 278.631 377.899 268.27 377.899C257.909 377.899 249.51 386.299 249.51 396.659C249.51 407.02 257.909 415.419 268.27 415.419ZM416.72 415.419C427.081 415.419 435.48 407.02 435.48 396.659C435.48 386.299 427.081 377.899 416.72 377.899C406.359 377.899 397.96 386.299 397.96 396.659C397.96 407.02 406.359 415.419 416.72 415.419ZM583.12 396.659C583.12 407.02 574.721 415.419 564.36 415.419C553.999 415.419 545.6 407.02 545.6 396.659C545.6 386.299 553.999 377.899 564.36 377.899C574.721 377.899 583.12 386.299 583.12 396.659Z" fill="white"/>
<path d="M286.28 396.659C286.28 406.606 278.217 414.669 268.27 414.669V416.169C279.045 416.169 287.78 407.434 287.78 396.659H286.28ZM268.27 378.649C278.217 378.649 286.28 386.713 286.28 396.659H287.78C287.78 385.884 279.045 377.149 268.27 377.149V378.649ZM250.26 396.659C250.26 386.713 258.324 378.649 268.27 378.649V377.149C257.495 377.149 248.76 385.884 248.76 396.659H250.26ZM268.27 414.669C258.324 414.669 250.26 406.606 250.26 396.659H248.76C248.76 407.434 257.495 416.169 268.27 416.169V414.669ZM434.73 396.659C434.73 406.606 426.667 414.669 416.72 414.669V416.169C427.495 416.169 436.23 407.434 436.23 396.659H434.73ZM416.72 378.649C426.667 378.649 434.73 386.713 434.73 396.659H436.23C436.23 385.884 427.495 377.149 416.72 377.149V378.649ZM398.71 396.659C398.71 386.713 406.773 378.649 416.72 378.649V377.149C405.945 377.149 397.21 385.884 397.21 396.659H398.71ZM416.72 414.669C406.773 414.669 398.71 406.606 398.71 396.659H397.21C397.21 407.434 405.945 416.169 416.72 416.169V414.669ZM564.36 416.169C575.135 416.169 583.87 407.434 583.87 396.659H582.37C582.37 406.606 574.307 414.669 564.36 414.669V416.169ZM544.85 396.659C544.85 407.434 553.585 416.169 564.36 416.169V414.669C554.413 414.669 546.35 406.606 546.35 396.659H544.85ZM564.36 377.149C553.585 377.149 544.85 385.884 544.85 396.659H546.35C546.35 386.713 554.413 378.649 564.36 378.649V377.149ZM583.87 396.659C583.87 385.884 575.135 377.149 564.36 377.149V378.649C574.307 378.649 582.37 386.713 582.37 396.659H583.87Z" fill="black"/>
<path fill-rule="evenodd" clip-rule="evenodd" d="M268.27 406.449C273.677 406.449 278.06 402.066 278.06 396.659C278.06 391.252 273.677 386.869 268.27 386.869C262.863 386.869 258.48 391.252 258.48 396.659C258.48 402.066 262.863 406.449 268.27 406.449ZM416.72 406.449C422.127 406.449 426.51 402.066 426.51 396.659C426.51 391.252 422.127 386.869 416.72 386.869C411.313 386.869 406.93 391.252 406.93 396.659C406.93 402.066 411.313 406.449 416.72 406.449ZM574.15 396.659C574.15 402.066 569.767 406.449 564.36 406.449C558.953 406.449 554.57 402.066 554.57 396.659C554.57 391.252 558.953 386.869 564.36 386.869C569.767 386.869 574.15 391.252 574.15 396.659Z" fill="#82AAD3"/>
<path d="M277.31 396.659C277.31 401.652 273.263 405.699 268.27 405.699V407.199C274.091 407.199 278.81 402.48 278.81 396.659H277.31ZM268.27 387.619C273.263 387.619 277.31 391.666 277.31 396.659H278.81C278.81 390.838 274.091 386.119 268.27 386.119V387.619ZM259.23 396.659C259.23 391.666 263.277 387.619 268.27 387.619V386.119C262.449 386.119 257.73 390.838 257.73 396.659H259.23ZM268.27 405.699C263.277 405.699 259.23 401.652 259.23 396.659H257.73C257.73 402.48 262.449 407.199 268.27 407.199V405.699ZM425.76 396.659C425.76 401.652 421.713 405.699 416.72 405.699V407.199C422.541 407.199 427.26 402.48 427.26 396.659H425.76ZM416.72 387.619C421.713 387.619 425.76 391.666 425.76 396.659H427.26C427.26 390.838 422.541 386.119 416.72 386.119V387.619ZM407.68 396.659C407.68 391.666 411.728 387.619 416.72 387.619V386.119C410.899 386.119 406.18 390.838 406.18 396.659H407.68ZM416.72 405.699C411.728 405.699 407.68 401.652 407.68 396.659H406.18C406.18 402.48 410.899 407.199 416.72 407.199V405.699ZM564.36 407.199C570.181 407.199 574.9 402.48 574.9 396.659H573.4C573.4 401.652 569.353 405.699 564.36 405.699V407.199ZM553.82 396.659C553.82 402.48 558.539 407.199 564.36 407.199V405.699C559.368 405.699 555.32 401.652 555.32 396.659H553.82ZM564.36 386.119C558.539 386.119 553.82 390.838 553.82 396.659H555.32C555.32 391.666 559.368 387.619 564.36 387.619V386.119ZM574.9 396.659C574.9 390.838 570.181 386.119 564.36 386.119V387.619C569.353 387.619 573.4 391.666 573.4 396.659H574.9Z" fill="black"/>
<path fill-rule="evenodd" clip-rule="evenodd" d="M318.85 317.13H217.7V326.51H318.85V317.13ZM467.85 317.13H366.7V326.51H467.85V317.13ZM513.52 317.13H614.67V326.51H513.52V317.13Z" fill="#8CA45B"/>
<path d="M217.7 317.13V316.38C217.286 316.38 216.95 316.716 216.95 317.13H217.7ZM318.85 317.13H319.6C319.6 316.716 319.264 316.38 318.85 316.38V317.13ZM217.7 326.51H216.95C216.95 326.925 217.286 327.26 217.7 327.26V326.51ZM318.85 326.51V327.26C319.264 327.26 319.6 326.925 319.6 326.51H318.85ZM366.7 317.13V316.38C366.286 316.38 365.95 316.716 365.95 317.13H366.7ZM467.85 317.13H468.6C468.6 316.716 468.264 316.38 467.85 316.38V317.13ZM366.7 326.51H365.95C365.95 326.925 366.286 327.26 366.7 327.26V326.51ZM467.85 326.51V327.26C468.264 327.26 468.6 326.925 468.6 326.51H467.85ZM614.67 317.13H615.42C615.42 316.716 615.084 316.38 614.67 316.38V317.13ZM513.52 317.13V316.38C513.106 316.38 512.77 316.716 512.77 317.13H513.52ZM614.67 326.51V327.26C615.084 327.26 615.42 326.925 615.42 326.51H614.67ZM513.52 326.51H512.77C512.77 326.925 513.106 327.26 513.52 327.26V326.51ZM217.7 317.88H318.85V316.38H217.7V317.88ZM218.45 326.51V317.13H216.95V326.51H218.45ZM318.85 325.76H217.7V327.26H318.85V325.76ZM318.1 317.13V326.51H319.6V317.13H318.1ZM366.7 317.88H467.85V316.38H366.7V317.88ZM367.45 326.51V317.13H365.95V326.51H367.45ZM467.85 325.76H366.7V327.26H467.85V325.76ZM467.1 317.13V326.51H468.6V317.13H467.1ZM614.67 316.38H513.52V317.88H614.67V316.38ZM615.42 326.51V317.13H613.92V326.51H615.42ZM513.52 327.26H614.67V325.76H513.52V327.26ZM512.77 317.13V326.51H514.27V317.13H512.77Z" fill="black"/>
<path fill-rule="evenodd" clip-rule="evenodd" d="M219.33 345.34C218.916 345.34 218.58 345.676 218.58 346.09C218.58 346.505 218.916 346.84 219.33 346.84H253.99C254.404 346.84 254.74 346.505 254.74 346.09C254.74 345.676 254.404 345.34 253.99 345.34H219.33ZM258.89 345.34C258.476 345.34 258.14 345.676 258.14 346.09C258.14 346.505 258.476 346.84 258.89 346.84H317.75C318.164 346.84 318.5 346.505 318.5 346.09C318.5 345.676 318.164 345.34 317.75 345.34H258.89ZM218.17 356.83C218.17 356.416 218.506 356.08 218.92 356.08H317.75C318.164 356.08 318.5 356.416 318.5 356.83C318.5 357.244 318.164 357.58 317.75 357.58H218.92C218.506 357.58 218.17 357.244 218.17 356.83ZM368.24 345.34C367.826 345.34 367.49 345.676 367.49 346.09C367.49 346.505 367.826 346.84 368.24 346.84H454.14C454.554 346.84 454.89 346.505 454.89 346.09C454.89 345.676 454.554 345.34 454.14 345.34H368.24ZM456.96 346.09C456.96 345.676 457.296 345.34 457.71 345.34H467.18C467.594 345.34 467.93 345.676 467.93 346.09C467.93 346.505 467.594 346.84 467.18 346.84H457.71C457.296 346.84 456.96 346.505 456.96 346.09ZM367.92 356.08C367.506 356.08 367.17 356.416 367.17 356.83C367.17 357.244 367.506 357.58 367.92 357.58H466.75C467.164 357.58 467.5 357.244 467.5 356.83C467.5 356.416 467.164 356.08 466.75 356.08H367.92ZM514.32 346.09C514.32 345.676 514.656 345.34 515.07 345.34H561C561.415 345.34 561.75 345.676 561.75 346.09C561.75 346.505 561.415 346.84 561 346.84H515.07C514.656 346.84 514.32 346.505 514.32 346.09ZM564.41 345.34C563.996 345.34 563.66 345.676 563.66 346.09C563.66 346.505 563.996 346.84 564.41 346.84H613.41C613.824 346.84 614.16 346.505 614.16 346.09C614.16 345.676 613.824 345.34 613.41 345.34H564.41ZM513.99 356.83C513.99 356.416 514.326 356.08 514.74 356.08H530.61C531.024 356.08 531.36 356.416 531.36 356.83C531.36 357.244 531.024 357.58 530.61 357.58H514.74C514.326 357.58 513.99 357.244 513.99 356.83ZM535.03 356.08C534.616 356.08 534.28 356.416 534.28 356.83C534.28 357.244 534.616 357.58 535.03 357.58H612.9C613.314 357.58 613.65 357.244 613.65 356.83C613.65 356.416 613.314 356.08 612.9 356.08H535.03Z" fill="black"/>
<path d="M1009.6 802H258.87" stroke="black" stroke-width="1.5" stroke-linecap="round" stroke-linejoin="round"/>
<path d="M678.7 812.21H141" stroke="black" stroke-width="1.5" stroke-linecap="round" stroke-linejoin="round"/>
<path d="M722.62 812.21H691.47" stroke="black" stroke-width="1.5" stroke-linecap="round" stroke-linejoin="round"/>
<path fill-rule="evenodd" clip-rule="evenodd" d="M674.207 817.656C684.498 813.715 695.033 810.444 705.747 807.866L725.177 780.176L739.457 786.066L745.987 804.556L755.447 832.926C755.858 834.158 755.969 835.47 755.773 836.753C755.577 838.037 755.078 839.256 754.318 840.309C753.558 841.362 752.559 842.219 751.402 842.81C750.246 843.4 748.965 843.707 747.667 843.706H663.037C661.502 843.713 659.99 843.337 658.638 842.612C657.285 841.887 656.136 840.835 655.293 839.552C654.451 838.27 653.942 836.797 653.813 835.267C653.685 833.738 653.94 832.201 654.557 830.796L654.627 830.656C657.207 825.216 662.207 822.236 674.207 817.656ZM808.348 832.956C810.008 824.669 811.708 816.336 813.448 807.956C814.941 800.749 816.434 793.572 817.928 786.426H848.378L854.908 804.916C858.054 814.376 861.208 823.832 864.368 833.286C864.784 835.13 864.652 837.056 863.988 838.826V838.936C863.468 840.202 862.578 841.281 861.434 842.032C860.29 842.784 858.946 843.172 857.578 843.146L814.988 842.856C813.386 842.86 811.833 842.3 810.603 841.274C809.372 840.249 808.542 838.822 808.258 837.246V837.166C808.041 835.768 808.071 834.343 808.348 832.956Z" fill="#FFCD88"/>
<path d="M705.747 807.866L706.361 808.297C706.256 808.446 706.1 808.552 705.922 808.595L705.747 807.866ZM674.207 817.656L674.475 818.356H674.474L674.207 817.656ZM725.177 780.176L724.563 779.745C724.765 779.458 725.138 779.349 725.463 779.482L725.177 780.176ZM739.457 786.066L739.743 785.372C739.94 785.454 740.093 785.615 740.164 785.816L739.457 786.066ZM745.987 804.556L746.694 804.306L746.698 804.318L745.987 804.556ZM755.447 832.926L756.158 832.689L755.447 832.926ZM755.773 836.753L756.515 836.867L755.773 836.753ZM751.402 842.81L751.743 843.477V843.478L751.402 842.81ZM747.667 843.706V842.956H747.668L747.667 843.706ZM663.037 843.706L663.033 842.956H663.037V843.706ZM654.557 830.796L653.87 830.494C653.875 830.483 653.88 830.472 653.886 830.46L654.557 830.796ZM654.627 830.656L655.305 830.977C655.302 830.982 655.3 830.987 655.298 830.991L654.627 830.656ZM813.448 807.956L814.182 808.108L813.448 807.956ZM808.348 832.956L807.612 832.809V832.808L808.348 832.956ZM817.928 786.426L817.194 786.272C817.266 785.925 817.573 785.676 817.928 785.676V786.426ZM848.378 786.426V785.676C848.696 785.676 848.979 785.876 849.085 786.176L848.378 786.426ZM854.908 804.916L855.615 804.666L855.619 804.679L854.908 804.916ZM864.368 833.286L865.079 833.048C865.087 833.072 865.094 833.096 865.099 833.121L864.368 833.286ZM863.988 838.826H863.238C863.238 838.736 863.254 838.647 863.286 838.562L863.988 838.826ZM863.988 838.936H864.738C864.738 839.033 864.719 839.13 864.682 839.221L863.988 838.936ZM857.578 843.146L857.583 842.396H857.592L857.578 843.146ZM814.988 842.856L814.986 842.106H814.993L814.988 842.856ZM808.258 837.246L807.52 837.379C807.512 837.335 807.508 837.29 807.508 837.246H808.258ZM808.258 837.166L808.999 837.051C809.005 837.089 809.008 837.127 809.008 837.166H808.258ZM705.922 808.595C695.24 811.166 684.736 814.427 674.475 818.356L673.939 816.955C684.26 813.003 694.826 809.723 705.571 807.137L705.922 808.595ZM725.791 780.607L706.361 808.297L705.133 807.435L724.563 779.745L725.791 780.607ZM739.171 786.759L724.891 780.869L725.463 779.482L739.743 785.372L739.171 786.759ZM745.28 804.805L738.75 786.315L740.164 785.816L746.694 804.306L745.28 804.805ZM754.735 833.163L745.275 804.793L746.698 804.318L756.158 832.689L754.735 833.163ZM755.032 836.64C755.21 835.474 755.108 834.282 754.735 833.163L756.158 832.689C756.607 834.033 756.729 835.465 756.515 836.867L755.032 836.64ZM753.71 839.87C754.4 838.913 754.853 837.806 755.032 836.64L756.515 836.867C756.3 838.268 755.756 839.598 754.926 840.748L753.71 839.87ZM751.061 842.142C752.112 841.605 753.02 840.826 753.71 839.87L754.926 840.748C754.097 841.897 753.006 842.833 751.743 843.477L751.061 842.142ZM747.668 842.956C748.847 842.957 750.011 842.678 751.061 842.142L751.743 843.478C750.481 844.122 749.083 844.458 747.666 844.456L747.668 842.956ZM663.037 842.956H747.667V844.456H663.037V842.956ZM658.992 841.951C660.234 842.617 661.623 842.963 663.033 842.956L663.041 844.456C661.381 844.464 659.746 844.057 658.283 843.273L658.992 841.951ZM655.92 839.14C656.694 840.319 657.75 841.285 658.992 841.951L658.283 843.273C656.821 842.489 655.577 841.351 654.666 839.964L655.92 839.14ZM654.561 835.205C654.679 836.609 655.146 837.962 655.92 839.14L654.666 839.964C653.755 838.577 653.205 836.984 653.066 835.33L654.561 835.205ZM655.244 831.097C654.677 832.388 654.443 833.8 654.561 835.205L653.066 835.33C652.927 833.677 653.203 832.014 653.87 830.494L655.244 831.097ZM655.298 830.991L655.228 831.131L653.886 830.46L653.956 830.32L655.298 830.991ZM674.474 818.356C662.449 822.946 657.74 825.841 655.305 830.977L653.949 830.334C656.673 824.59 661.965 821.525 673.939 816.955L674.474 818.356ZM814.182 808.108C812.443 816.487 810.743 824.818 809.083 833.103L807.612 832.808C809.273 824.52 810.973 816.185 812.713 807.803L814.182 808.108ZM818.662 786.579C817.169 793.725 815.675 800.902 814.182 808.108L812.713 807.804C814.207 800.596 815.7 793.419 817.194 786.272L818.662 786.579ZM848.378 787.176H817.928V785.676H848.378V787.176ZM854.201 805.166L847.671 786.676L849.085 786.176L855.615 804.666L854.201 805.166ZM863.657 833.524C860.496 824.07 857.343 814.613 854.196 805.152L855.619 804.679C858.766 814.139 861.919 823.595 865.079 833.048L863.657 833.524ZM863.286 838.562C863.898 836.929 864.02 835.152 863.636 833.451L865.099 833.121C865.548 835.108 865.405 837.182 864.69 839.089L863.286 838.562ZM863.238 838.936V838.826H864.738V838.936H863.238ZM861.022 841.405C862.04 840.737 862.832 839.777 863.294 838.651L864.682 839.221C864.104 840.626 863.116 841.825 861.846 842.659L861.022 841.405ZM857.592 842.396C858.809 842.419 860.005 842.074 861.022 841.405L861.846 842.659C860.576 843.493 859.083 843.924 857.564 843.896L857.592 842.396ZM814.993 842.106L857.583 842.396L857.573 843.896L814.983 843.606L814.993 842.106ZM811.083 840.698C812.178 841.611 813.56 842.11 814.986 842.106L814.99 843.606C813.212 843.611 811.488 842.989 810.123 841.851L811.083 840.698ZM808.996 837.113C809.249 838.516 809.988 839.785 811.083 840.698L810.123 841.851C808.757 840.712 807.835 839.129 807.52 837.379L808.996 837.113ZM809.008 837.166V837.246H807.508V837.166H809.008ZM809.083 833.102C808.824 834.403 808.795 835.74 808.999 837.051L807.517 837.281C807.286 835.796 807.318 834.283 807.612 832.809L809.083 833.102Z" fill="black"/>
<path d="M706 807.128L685.17 801.128C684.686 800.989 684.177 800.963 683.682 801.051C683.187 801.138 682.718 801.337 682.311 801.633C681.904 801.929 681.57 802.314 681.334 802.759C681.098 803.203 680.967 803.695 680.95 804.198C680.933 804.649 681.009 805.098 681.173 805.518C681.336 805.939 681.584 806.321 681.9 806.642C682.217 806.963 682.595 807.216 683.013 807.386C683.431 807.555 683.879 807.638 684.33 807.628L706 807.128Z" stroke="black" stroke-width="1.5" stroke-linecap="round" stroke-linejoin="round"/>
<path d="M705.449 807.298L691.579 819.978C691.258 820.273 691.008 820.637 690.849 821.043C690.689 821.449 690.624 821.886 690.659 822.321C690.694 822.756 690.827 823.177 691.049 823.552C691.271 823.928 691.575 824.248 691.939 824.488C692.265 824.704 692.631 824.852 693.015 824.921C693.4 824.991 693.794 824.981 694.175 824.892C694.555 824.803 694.913 824.637 695.227 824.404C695.541 824.171 695.804 823.876 695.999 823.538L705.449 807.298Z" stroke="black" stroke-width="1.5" stroke-linecap="round" stroke-linejoin="round"/>
<path fill-rule="evenodd" clip-rule="evenodd" d="M712.758 809.955C726.758 813.185 739.228 810.535 747.228 807.865L753.258 779.205L722.618 780.735L705.758 807.865C708.045 808.707 710.383 809.405 712.758 809.955ZM821.038 809.955C835.558 813.535 848.398 809.925 855.668 807.095C853.135 799.835 850.638 792.581 848.178 785.335L817.288 786.105L813.448 807.435C815.908 808.473 818.446 809.316 821.038 809.955Z" fill="white"/>
<path d="M747.228 807.865L747.962 808.019C747.907 808.28 747.718 808.492 747.465 808.576L747.228 807.865ZM712.758 809.955L712.589 810.686V810.685L712.758 809.955ZM753.258 779.205L753.22 778.456C753.453 778.444 753.677 778.541 753.828 778.718C753.979 778.895 754.04 779.132 753.992 779.359L753.258 779.205ZM722.618 780.735L721.981 780.339C722.111 780.13 722.335 779.998 722.58 779.986L722.618 780.735ZM705.758 807.865L705.499 808.569C705.287 808.491 705.122 808.322 705.049 808.109C704.975 807.895 705.002 807.66 705.121 807.469L705.758 807.865ZM855.668 807.095L856.376 806.848C856.509 807.229 856.316 807.647 855.94 807.794L855.668 807.095ZM821.038 809.955L821.217 809.226H821.218L821.038 809.955ZM848.178 785.335L848.159 784.585C848.487 784.577 848.783 784.783 848.888 785.094L848.178 785.335ZM817.288 786.105L816.55 785.972C816.613 785.622 816.913 785.364 817.269 785.355L817.288 786.105ZM813.448 807.435L813.156 808.126C812.833 807.989 812.648 807.647 812.71 807.302L813.448 807.435ZM747.465 808.576C739.391 811.271 726.772 813.958 712.589 810.686L712.926 809.224C726.743 812.412 739.064 809.799 746.99 807.153L747.465 808.576ZM753.992 779.359L747.962 808.019L746.494 807.71L752.524 779.05L753.992 779.359ZM722.58 779.986L753.22 778.456L753.295 779.954L722.655 781.484L722.58 779.986ZM705.121 807.469L721.981 780.339L723.255 781.131L706.395 808.261L705.121 807.469ZM712.589 810.685C710.183 810.128 707.816 809.421 705.499 808.569L706.017 807.161C708.275 807.992 710.583 808.681 712.927 809.224L712.589 810.685ZM855.94 807.794C848.603 810.65 835.592 814.316 820.858 810.683L821.218 809.226C835.524 812.754 848.193 809.2 855.396 806.396L855.94 807.794ZM848.888 785.094C851.347 792.338 853.843 799.59 856.376 806.848L854.96 807.342C852.426 800.08 849.928 792.824 847.468 785.576L848.888 785.094ZM817.269 785.355L848.159 784.585L848.197 786.084L817.307 786.854L817.269 785.355ZM812.71 807.302L816.55 785.972L818.026 786.238L814.186 807.568L812.71 807.302ZM820.858 810.683C818.228 810.034 815.652 809.179 813.156 808.126L813.74 806.744C816.163 807.767 818.663 808.597 821.217 809.226L820.858 810.683Z" fill="black"/>
<path d="M655.827 839.575H754.127" stroke="black" stroke-width="1.5" stroke-linecap="round" stroke-linejoin="round"/>
<path d="M750.807 819.916C750.807 819.916 732.417 820.426 732.417 839.576" stroke="black" stroke-width="1.5" stroke-linecap="round" stroke-linejoin="round"/>
<path d="M762.486 478.926C745.686 577.339 728.883 675.746 712.076 774.146C718.799 779.413 726.694 782.982 735.09 784.549C743.486 786.116 752.136 785.634 760.306 783.146L840.736 499.146L762.486 478.926Z" fill="black" stroke="black" stroke-width="1.5" stroke-linecap="round" stroke-linejoin="round"/>
<path d="M805.327 524.466L805.527 784.036C813.451 788.647 822.24 791.579 831.346 792.647C840.452 793.715 849.681 792.898 858.457 790.246C868.104 692.459 877.77 594.666 887.457 496.866C865.992 497.879 844.48 496.825 823.217 493.716C802.57 490.691 782.251 485.739 762.527 478.926L805.327 524.466Z" fill="black" stroke="black" stroke-width="1.5" stroke-linecap="round" stroke-linejoin="round"/>
<path d="M809.028 839.266H863.838" stroke="black" stroke-width="1.5" stroke-linecap="round" stroke-linejoin="round"/>
<path d="M805.518 627.545L803.868 535.275L793.448 523.275" stroke="white" stroke-width="1.5" stroke-linecap="round" stroke-linejoin="round"/>
<path d="M837.677 537.556C836.717 576.676 836.257 616.676 836.297 657.556C836.357 703.856 837.074 749.052 838.447 793.146" stroke="white" stroke-width="1.5" stroke-linecap="round" stroke-linejoin="round"/>
<path d="M722.618 780.735L765.008 534.605" stroke="white" stroke-width="1.5" stroke-linecap="round" stroke-linejoin="round"/>
<path d="M604.367 338.336L614.767 346.716L624.387 342.136L611.107 330.336C610.301 329.613 609.289 329.161 608.214 329.041C607.138 328.921 606.052 329.139 605.107 329.666C604.351 330.079 603.709 330.673 603.238 331.395C602.767 332.116 602.483 332.943 602.41 333.802C602.336 334.66 602.477 335.524 602.818 336.315C603.16 337.106 603.692 337.8 604.367 338.336Z" fill="#D88B6D" stroke="black" stroke-width="1.5" stroke-linecap="round" stroke-linejoin="round"/>
<path d="M620.156 359.335L622.076 359.785C629.121 361.401 635.766 364.427 641.609 368.68C647.453 372.934 652.374 378.327 656.076 384.535L657.956 387.695L684.816 377.595L674.486 356.595C674.286 356.195 674.076 355.795 673.866 355.405C667.866 344.405 655.066 339.015 642.866 341.645C639.136 342.445 639.796 344.565 635.016 344.645C622.286 344.895 607.196 339.935 601.156 337.275C600.419 336.924 599.586 336.825 598.786 336.995C598.061 337.168 597.384 337.501 596.805 337.97C596.225 338.439 595.757 339.032 595.436 339.705C594.995 340.599 594.834 341.605 594.975 342.592C595.116 343.579 595.552 344.5 596.226 345.235C602.57 352.275 610.924 357.197 620.156 359.335Z" fill="#D88B6D" stroke="black" stroke-width="1.5" stroke-linecap="round" stroke-linejoin="round"/>
<path d="M645.646 341.336L628.376 337.266C627.331 337.021 626.236 337.104 625.24 337.503C624.243 337.902 623.394 338.597 622.806 339.496C622.334 340.215 622.046 341.04 621.969 341.898C621.892 342.755 622.029 343.618 622.366 344.41C622.704 345.202 623.232 345.898 623.904 346.437C624.576 346.975 625.37 347.339 626.216 347.496L637.216 351.356L645.456 360.056" fill="#D88B6D"/>
<path d="M645.646 341.336L628.376 337.266C627.331 337.021 626.236 337.104 625.24 337.503C624.243 337.902 623.394 338.597 622.806 339.496C622.334 340.215 622.046 341.04 621.969 341.898C621.892 342.755 622.029 343.618 622.366 344.41C622.704 345.202 623.232 345.898 623.904 346.437C624.576 346.975 625.37 347.339 626.216 347.496L637.216 351.356L645.456 360.056" stroke="black" stroke-width="1.5" stroke-linecap="round" stroke-linejoin="round"/>
<path d="M713.906 423.415L723.486 442.565" stroke="black" stroke-width="1.5" stroke-linecap="round" stroke-linejoin="round"/>
<path d="M757.196 350.125C754.706 349.635 747.996 357.535 746.856 358.775C744.853 360.941 743.139 363.358 741.756 365.965C734.436 379.665 727.266 394.295 720.446 409.865C718.186 415.031 716.026 420.148 713.966 425.215C702.893 406.615 691.83 388.015 680.776 369.415L641.166 400.015L684.866 471.335C689.109 478.04 695.068 483.489 702.126 487.115C707.344 489.795 713.026 491.452 718.866 491.995C722.606 491.775 730.486 490.765 735.686 486.995C755.346 472.745 757.296 462.385 760.536 439.335C768.736 368.545 760.776 350.825 757.196 350.125Z" fill="#AD85AD" stroke="black" stroke-width="1.5" stroke-linecap="round" stroke-linejoin="round"/>
<path d="M713.968 425.216L723.748 439.486" stroke="black" stroke-width="1.5" stroke-linecap="round" stroke-linejoin="round"/>
<path d="M603.777 338.445C610.733 344.395 619.465 347.873 628.607 348.335" stroke="black" stroke-width="1.5" stroke-linecap="round" stroke-linejoin="round"/>
<path d="M884.947 424.705L844.947 344.125C836.254 343.07 827.512 342.472 818.757 342.335C785.667 341.825 775.757 348.335 765.907 348.235C764.974 348.09 764.022 348.164 763.123 348.45C762.224 348.735 761.403 349.225 760.725 349.881C760.047 350.537 759.53 351.34 759.215 352.229C758.899 353.118 758.794 354.068 758.907 355.005C759.867 359.331 760.747 363.735 761.547 368.215C769.637 413.515 767.547 455.855 760.727 493.055C788.199 505.031 818.83 507.714 847.967 500.695L886.807 498.695L884.947 424.705Z" fill="white" stroke="black" stroke-width="1.5" stroke-linecap="round" stroke-linejoin="round"/>
<path d="M828.977 353.386L822.457 360.706C824.103 390.619 825.77 420.522 827.457 450.416C827.519 451.462 827.276 452.505 826.757 453.416L813.867 476.236C809.813 468.009 805.77 459.779 801.737 451.546C801.256 450.57 801.078 449.473 801.227 448.396L813.287 359.836L806.767 352.486L817.247 341.096L825 346.5L828.977 353.386Z" fill="black"/>
<path fill-rule="evenodd" clip-rule="evenodd" d="M845.728 344.966L839.728 340.466C832.5 341 818.5 342 818.5 342C818.267 343.08 819.695 344.91 821.622 347.38C822.395 348.371 823.249 349.465 824.108 350.656C826.295 353.685 827.394 357.363 827.228 361.096C827.15 362.494 826.888 363.876 826.448 365.206C826.339 365.527 826.323 365.873 826.403 366.203C826.483 366.533 826.655 366.834 826.899 367.07C827.144 367.306 827.45 367.467 827.783 367.536C828.115 367.604 828.461 367.576 828.778 367.456C832.698 365.936 838.368 362.936 842.128 357.406C844.66 353.766 845.925 349.395 845.728 344.966ZM793.407 355.336C790.504 350.911 788.871 345.775 788.687 340.486C793.407 340.486 816.5 342.5 816.5 342.5C820.446 344.862 816.499 342.5 816.499 342.5C816.199 342.63 809.407 352.596 808.607 358.486C808.331 360.564 808.679 362.676 809.607 364.556C809.73 364.807 809.775 365.089 809.736 365.366C809.697 365.643 809.577 365.902 809.389 366.109C809.202 366.317 808.957 366.464 808.686 366.531C808.414 366.598 808.129 366.582 807.867 366.486C801.978 364.411 796.91 360.503 793.407 355.336Z" fill="white"/>
<path d="M839.728 340.465L839.673 339.717C839.854 339.703 840.033 339.756 840.178 339.865L839.728 340.465ZM845.728 344.965L846.178 344.365C846.358 344.499 846.467 344.707 846.477 344.931L845.728 344.965ZM818.5 341.999L817.767 341.841C817.837 341.515 818.114 341.275 818.447 341.251L818.5 341.999ZM821.622 347.379L822.213 346.918L821.622 347.379ZM824.108 350.655L823.5 351.094L824.108 350.655ZM827.228 361.095L827.977 361.128V361.136L827.228 361.095ZM826.448 365.205L827.16 365.44L827.158 365.446L826.448 365.205ZM826.403 366.202L825.674 366.379L826.403 366.202ZM826.899 367.069L826.378 367.608L826.899 367.069ZM827.783 367.535L827.632 368.269L827.783 367.535ZM828.778 367.455L829.049 368.154L829.044 368.156L828.778 367.455ZM842.128 357.405L841.508 356.983L841.512 356.976L842.128 357.405ZM788.687 340.485L787.937 340.511C787.93 340.308 788.006 340.111 788.147 339.964C788.289 339.818 788.483 339.735 788.687 339.735V340.485ZM793.407 355.335L792.786 355.756L792.78 355.746L793.407 355.335ZM816.5 342.499L816.566 341.751C816.679 341.761 816.788 341.797 816.886 341.855L816.5 342.499ZM816.499 342.499L816.201 341.81C816.423 341.714 816.677 341.731 816.885 341.855L816.499 342.499ZM808.607 358.485L807.863 358.386L807.864 358.384L808.607 358.485ZM809.607 364.555L810.279 364.223L810.28 364.225L809.607 364.555ZM809.736 365.365L808.993 365.261L809.736 365.365ZM807.867 366.485L808.116 365.777L808.125 365.781L807.867 366.485ZM840.178 339.865L846.178 344.365L845.278 345.565L839.278 341.065L840.178 339.865ZM818.5 341.999C818.447 341.251 818.447 341.251 818.447 341.251C818.448 341.251 818.448 341.251 818.449 341.251C818.451 341.251 818.453 341.25 818.457 341.25C818.463 341.25 818.474 341.249 818.487 341.248C818.514 341.246 818.553 341.243 818.606 341.239C818.71 341.232 818.864 341.221 819.062 341.207C819.459 341.178 820.034 341.137 820.747 341.086C822.172 340.984 824.148 340.842 826.35 340.684C830.753 340.367 836.06 339.984 839.673 339.717L839.783 341.213C836.169 341.48 830.861 341.863 826.457 342.18C824.255 342.339 822.28 342.48 820.854 342.582C820.141 342.633 819.566 342.675 819.169 342.703C818.971 342.717 818.817 342.728 818.712 342.736C818.66 342.739 818.621 342.742 818.594 342.744C818.58 342.745 818.57 342.746 818.564 342.746C818.56 342.747 818.558 342.747 818.556 342.747C818.555 342.747 818.555 342.747 818.554 342.747C818.553 342.747 818.553 342.747 818.5 341.999ZM821.031 347.84C820.076 346.617 819.21 345.508 818.617 344.568C818.319 344.096 818.071 343.638 817.913 343.203C817.758 342.775 817.667 342.304 817.767 341.841L819.233 342.157C819.217 342.234 819.216 342.397 819.324 342.692C819.429 342.982 819.614 343.338 819.885 343.768C820.429 344.63 821.241 345.672 822.213 346.918L821.031 347.84ZM823.5 351.094C822.65 349.916 821.805 348.833 821.031 347.84L822.213 346.918C822.986 347.908 823.848 349.013 824.716 350.216L823.5 351.094ZM826.479 361.061C826.637 357.498 825.588 353.986 823.5 351.094L824.716 350.216C827.002 353.382 828.151 357.227 827.977 361.128L826.479 361.061ZM825.736 364.969C826.155 363.702 826.405 362.385 826.479 361.053L827.977 361.136C827.896 362.601 827.621 364.048 827.16 365.44L825.736 364.969ZM825.674 366.379C825.561 365.91 825.583 365.419 825.738 364.963L827.158 365.446C827.095 365.633 827.085 365.834 827.132 366.026L825.674 366.379ZM826.378 367.608C826.032 367.274 825.787 366.847 825.674 366.379L827.132 366.026C827.178 366.218 827.278 366.392 827.42 366.529L826.378 367.608ZM827.632 368.269C827.16 368.172 826.725 367.943 826.378 367.608L827.42 366.529C827.562 366.666 827.74 366.76 827.933 366.8L827.632 368.269ZM829.044 368.156C828.594 368.327 828.104 368.366 827.632 368.269L827.933 366.8C828.127 366.84 828.327 366.823 828.512 366.753L829.044 368.156ZM842.748 357.826C838.866 363.536 833.035 366.609 829.049 368.154L828.507 366.755C832.362 365.261 837.87 362.333 841.508 356.983L842.748 357.826ZM846.477 344.931C846.682 349.525 845.37 354.058 842.744 357.833L841.512 356.976C843.95 353.472 845.169 349.263 844.979 344.998L846.477 344.931ZM789.436 340.459C789.616 345.611 791.206 350.614 794.034 354.923L792.78 355.746C789.801 351.207 788.126 345.937 787.937 340.511L789.436 340.459ZM816.5 342.499C816.435 343.246 816.435 343.246 816.435 343.246C816.435 343.246 816.435 343.246 816.434 343.246C816.434 343.246 816.433 343.246 816.431 343.245C816.428 343.245 816.424 343.245 816.419 343.244C816.408 343.243 816.391 343.242 816.369 343.24C816.325 343.236 816.26 343.231 816.175 343.223C816.005 343.208 815.755 343.187 815.435 343.159C814.794 343.104 813.874 343.026 812.755 342.931C810.517 342.743 807.484 342.491 804.304 342.24C797.924 341.735 791.009 341.235 788.687 341.235V339.735C791.084 339.735 798.076 340.242 804.423 340.744C807.606 340.996 810.642 341.248 812.881 341.437C814.001 341.531 814.922 341.61 815.563 341.665C815.884 341.692 816.134 341.714 816.305 341.729C816.39 341.736 816.455 341.742 816.499 341.746C816.521 341.748 816.538 341.749 816.549 341.75C816.554 341.75 816.558 341.751 816.561 341.751C816.563 341.751 816.564 341.751 816.564 341.751C816.565 341.751 816.565 341.751 816.565 341.751C816.565 341.751 816.566 341.751 816.5 342.499ZM816.499 342.499C816.885 341.855 816.885 341.855 816.885 341.855C816.885 341.855 816.885 341.855 816.885 341.856C816.886 341.856 816.887 341.856 816.887 341.857C816.889 341.858 816.892 341.86 816.896 341.862C816.903 341.866 816.914 341.873 816.928 341.881C816.956 341.898 816.996 341.922 817.046 341.952C817.147 342.012 817.285 342.095 817.44 342.187C817.748 342.372 818.118 342.593 818.365 342.741C818.488 342.815 818.581 342.87 818.619 342.893C818.629 342.899 818.634 342.902 818.636 342.903C818.638 342.904 818.636 342.903 818.633 342.901C818.631 342.9 818.623 342.896 818.616 342.892C817.621 343.147 817.834 344.17 817.856 344.184C817.859 344.186 817.862 344.188 817.864 344.189L817.865 344.19C817.866 344.191 817.866 344.19 817.863 344.189C817.852 344.182 817.826 344.166 817.78 344.139C817.595 344.028 817.102 343.733 816.115 343.142L816.886 341.855C817.872 342.446 818.365 342.741 818.55 342.852C818.596 342.88 818.624 342.896 818.635 342.902C818.637 342.904 818.64 342.906 818.642 342.907C818.642 342.907 818.643 342.908 818.644 342.908C818.645 342.909 818.649 342.911 818.652 342.913C818.673 342.927 818.887 343.951 817.892 344.206C817.885 344.202 817.877 344.197 817.875 344.196C817.873 344.195 817.871 344.193 817.871 344.193C817.87 344.193 817.869 344.193 817.869 344.192C817.866 344.19 817.859 344.186 817.849 344.181C817.811 344.157 817.718 344.102 817.595 344.028C817.348 343.88 816.978 343.659 816.669 343.474C816.515 343.382 816.376 343.299 816.276 343.239C816.226 343.209 816.186 343.185 816.158 343.168C816.144 343.16 816.133 343.153 816.125 343.149C816.122 343.147 816.119 343.145 816.117 343.144C816.116 343.143 816.115 343.143 816.115 343.143C816.115 343.142 816.114 343.142 816.114 343.142C816.114 343.142 816.114 343.142 816.499 342.499ZM807.864 358.384C808.285 355.281 810.253 351.205 812.088 347.962C813.015 346.324 813.926 344.867 814.627 343.809C814.977 343.281 815.276 342.848 815.501 342.54C815.612 342.387 815.71 342.258 815.789 342.161C815.827 342.114 815.868 342.066 815.909 342.023C815.928 342.002 815.956 341.974 815.989 341.946C816.007 341.929 816.086 341.861 816.201 341.81L816.798 343.187C816.904 343.141 816.969 343.081 816.972 343.078C816.982 343.07 816.989 343.064 816.992 343.06C816.994 343.059 816.995 343.057 816.996 343.057C816.996 343.057 816.997 343.055 816.996 343.056L816.997 343.055L816.996 343.056C816.995 343.057 816.994 343.058 816.993 343.059C816.991 343.062 816.988 343.065 816.984 343.07C816.975 343.08 816.965 343.092 816.952 343.108C816.897 343.175 816.818 343.28 816.713 343.423C816.506 343.708 816.219 344.121 815.878 344.637C815.195 345.668 814.302 347.096 813.393 348.701C811.557 351.946 809.729 355.798 809.35 358.586L807.864 358.384ZM808.934 364.887C807.941 362.874 807.568 360.611 807.863 358.386L809.35 358.584C809.094 360.514 809.417 362.477 810.279 364.223L808.934 364.887ZM808.993 365.261C809.011 365.132 808.99 365.001 808.933 364.885L810.28 364.225C810.469 364.61 810.538 365.044 810.479 365.469L808.993 365.261ZM808.832 365.606C808.919 365.51 808.975 365.389 808.993 365.261L810.479 365.469C810.419 365.894 810.234 366.292 809.946 366.61L808.832 365.606ZM808.506 365.802C808.632 365.771 808.745 365.702 808.832 365.606L809.946 366.61C809.659 366.929 809.283 367.155 808.866 367.258L808.506 365.802ZM808.125 365.781C808.247 365.826 808.38 365.833 808.506 365.802L808.866 367.258C808.449 367.361 808.011 367.337 807.608 367.189L808.125 365.781ZM794.028 354.914C797.441 359.949 802.379 363.756 808.116 365.778L807.618 367.192C801.578 365.064 796.38 361.056 792.786 355.756L794.028 354.914Z" fill="black"/>
<path d="M838.308 413.076C835.948 421.542 833.594 430.016 831.248 438.496L830.028 455.276C831.354 465.803 833.229 476.254 835.648 486.586C841.348 510.896 844.188 523.046 853.118 531.796C856.488 535.096 868.888 546.036 895.428 544.496C891.321 517.722 888.82 490.728 887.938 463.656C887.658 454.989 887.541 446.479 887.588 438.126L885.848 397.126V374.586L884.588 352.906L863.468 349.506L838.308 413.076Z" fill="#AD85AD" stroke="black" stroke-width="1.5" stroke-linecap="round" stroke-linejoin="round"/>
<path d="M885.866 482.115L887.406 496.255L852.226 500.335L850.736 487.085L885.866 482.115Z" fill="#826482" stroke="black" stroke-width="1.5" stroke-linecap="round" stroke-linejoin="round"/>
<path d="M752.406 353.206C755.956 349.906 761.326 346.096 771.896 343.076C778.067 341.321 784.508 340.721 790.896 341.306C787.414 363.968 787.752 387.055 791.896 409.606C793.936 420.626 796.893 431.457 800.736 441.986L799.806 452.216C799.386 459.576 798.566 470.216 796.806 482.956C793.446 507.456 789.98 519.44 783.5 528.5C781.08 531.92 772.21 542.08 752 541.5C753.91 516.5 756.616 490.836 756.186 461.966C756.086 455.456 755.776 445.746 755.436 436.446C754.706 416.446 753.766 399.816 752.996 387.976" fill="#AD85AD"/>
<path d="M752.406 353.206C755.956 349.906 761.326 346.096 771.896 343.076C778.067 341.321 784.508 340.721 790.896 341.306C787.414 363.968 787.752 387.055 791.896 409.606C793.936 420.626 796.893 431.457 800.736 441.986L799.806 452.216C799.386 459.576 798.566 470.216 796.806 482.956C793.446 507.456 789.98 519.44 783.5 528.5C781.08 531.92 772.21 542.08 752 541.5C753.91 516.5 756.616 490.836 756.186 461.966C756.086 455.456 755.776 445.746 755.436 436.446C754.706 416.446 753.766 399.816 752.996 387.976" stroke="black" stroke-width="1.5" stroke-linecap="round" stroke-linejoin="round"/>
<path d="M790.447 339.495C788.947 340.085 787.367 340.665 785.707 341.205C781.785 342.477 777.774 343.46 773.707 344.145L778.867 354.205L768.997 358.325C772.597 367.435 776.107 377.015 779.447 387.045C785.914 406.45 791.309 426.197 795.607 446.195C793.947 424.755 792.641 402.688 791.687 379.995C791.101 366.275 790.687 352.775 790.447 339.495Z" fill="#826482" stroke="black" stroke-width="1.5" stroke-linecap="round" stroke-linejoin="round"/>
<path d="M871.796 399.995C871.796 400.165 871.796 400.345 871.796 400.515C873.026 415.295 878.136 431.685 889.986 449.095L886.116 419.465L871.796 399.995Z" fill="black"/>
<path d="M901.676 457.336L919.566 446.966L901.676 457.336Z" fill="white"/>
<path d="M901.676 457.336L919.566 446.966" stroke="black" stroke-width="1.5" stroke-linecap="round" stroke-linejoin="round"/>
<path d="M833.278 441.005C831.306 441.005 829.708 439.406 829.708 437.435C829.708 435.463 831.306 433.865 833.278 433.865C835.249 433.865 836.848 435.463 836.848 437.435C836.848 439.406 835.249 441.005 833.278 441.005Z" fill="white" stroke="black" stroke-width="1.5" stroke-linecap="round" stroke-linejoin="round"/>
<path d="M832.258 463.986C830.286 463.986 828.688 462.387 828.688 460.416C828.688 458.444 830.286 456.846 832.258 456.846C834.23 456.846 835.828 458.444 835.828 460.416C835.828 462.387 834.23 463.986 832.258 463.986Z" fill="white" stroke="black" stroke-width="1.5" stroke-linecap="round" stroke-linejoin="round"/>
<path d="M831.237 482.885C829.265 482.885 827.667 481.286 827.667 479.315C827.667 477.343 829.265 475.745 831.237 475.745C833.208 475.745 834.807 477.343 834.807 479.315C834.807 481.286 833.208 482.885 831.237 482.885Z" fill="white" stroke="black" stroke-width="1.5" stroke-linecap="round" stroke-linejoin="round"/>
<path d="M912.688 385.605C913.788 389.011 914.894 392.418 916.008 395.825L912.688 385.605Z" fill="white"/>
<path d="M912.688 385.605C913.788 389.011 914.894 392.418 916.008 395.825" stroke="black" stroke-width="1.5" stroke-linecap="round" stroke-linejoin="round"/>
<path d="M870.175 476.15L788.338 504.073L751.857 397.156L833.694 369.232L870.175 476.15Z" fill="#82AAD3" stroke="black" stroke-width="1.5" stroke-linecap="round" stroke-linejoin="round"/>
<path d="M858.947 507.225L858.587 507.445C858.147 508.105 857.707 508.775 857.217 509.445C852.56 515.821 846.658 521.185 839.867 525.215C826.797 532.885 821.237 535.595 808.167 543.215C807.557 543.547 806.848 543.649 806.169 543.502C805.49 543.355 804.886 542.969 804.467 542.415C804.389 542.325 804.316 542.232 804.247 542.135C804.04 541.841 803.872 541.522 803.747 541.185C803.48 540.547 803.424 539.842 803.588 539.171C803.752 538.5 804.127 537.897 804.657 537.455C812.337 531.625 819.187 526.855 826.867 521.025C818.627 525.025 807.957 530.855 799.717 534.845C798.857 535.185 797.903 535.204 797.03 534.897C796.158 534.59 795.425 533.98 794.967 533.176V533.106C793.527 530.966 793.967 528.106 795.887 527.106C812.817 518.036 823.007 512.485 822.887 512.155C822.767 511.825 812.117 516.786 794.667 525.296C792.797 526.206 790.397 525.155 789.287 522.935V522.856C788.167 520.606 788.787 518.006 790.677 517.056C799.407 512.626 810.307 507.165 819.037 502.735C809.887 506.665 798.557 511.635 789.407 515.565C787.507 516.385 785.157 515.306 784.067 513.106V513.025C782.917 510.725 783.547 508.025 785.477 507.105C797.297 501.105 804.877 497.205 816.677 491.265L816.397 490.865C815.077 488.085 815.907 484.935 818.237 483.865L829.377 478.565C831.176 477.748 833.123 477.307 835.099 477.267C837.074 477.228 839.037 477.591 840.867 478.335H840.967C842.711 479.052 844.368 479.965 845.907 481.055L845.557 479.985L846.867 478.755C851.817 486.575 855.937 494.895 857.647 504.825C857.965 505.682 858.403 506.49 858.947 507.225Z" fill="#D88B6D" stroke="black" stroke-width="1.5" stroke-linecap="round" stroke-linejoin="round"/>
<path d="M816.197 490.906L831.207 483.426" stroke="black" stroke-width="1.5" stroke-linecap="round" stroke-linejoin="round"/>
<path d="M863.867 399.656L893.127 433.206L837.467 476.436C839.847 481.036 842.344 485.702 844.957 490.436C849.787 499.156 854.687 507.436 859.587 515.286C872.197 507.726 900.797 490.286 927.857 470.666C933.797 466.336 942.427 459.936 945.087 449.206C946.952 440.595 945.943 431.61 942.217 423.626C941.543 422.177 940.775 420.774 939.917 419.426C939.917 419.426 939.607 418.916 939.107 418.166L938.507 417.306C938.507 417.306 937.847 416.376 937.127 415.426C936.407 414.476 926.957 403.626 913.957 388.926C910.958 380.455 906.449 372.598 900.647 365.736C892.607 356.483 882.424 349.338 870.987 344.926C868.124 343.825 865.128 343.105 862.077 342.786L838.867 340.336L845.377 355.786" fill="#AD85AD"/>
<path d="M863.867 399.656L893.127 433.206L837.467 476.436C839.847 481.036 842.344 485.702 844.957 490.436C849.787 499.156 854.687 507.436 859.587 515.286C872.197 507.726 900.797 490.286 927.857 470.666C933.797 466.336 942.427 459.936 945.087 449.206C946.952 440.595 945.943 431.61 942.217 423.626C941.543 422.177 940.775 420.774 939.917 419.426C939.917 419.426 939.607 418.916 939.107 418.166L938.507 417.306C938.507 417.306 937.847 416.376 937.127 415.426C936.407 414.476 926.957 403.626 913.957 388.926C910.958 380.455 906.449 372.598 900.647 365.736C892.607 356.483 882.424 349.338 870.987 344.926C868.124 343.825 865.128 343.105 862.077 342.786L838.867 340.336L845.377 355.786" stroke="black" stroke-width="1.5" stroke-linecap="round" stroke-linejoin="round"/>
<path d="M839.427 340.025C840.887 340.695 842.427 341.365 844.057 342.025C847.895 343.519 851.839 344.726 855.857 345.635L850.177 355.385L859.797 360.055C855.677 368.985 851.637 378.355 847.747 388.145C846.3 391.791 844.91 395.408 843.577 398.995C841.437 392.701 839.304 386.411 837.177 380.125L839.427 340.025Z" fill="#826482" stroke="black" stroke-width="1.5" stroke-linecap="round" stroke-linejoin="round"/>
<path d="M914.436 389.556L917.566 399.826L914.436 389.556Z" fill="white"/>
<path d="M914.436 389.556L917.566 399.826" stroke="black" stroke-width="1.5" stroke-linecap="round" stroke-linejoin="round"/>
<path d="M831.188 306.761C829.559 289.206 824.611 272.12 816.608 256.411C814.071 251.483 811.236 246.714 808.118 242.131H802.278C800.278 242.011 787.718 241.441 781.468 249.861C778.928 253.281 778.298 257.021 777.808 259.861C776.288 268.801 779.998 274.381 779.088 284.491C778.658 289.151 778.318 291.561 777.588 298.261C777.381 300.001 777.415 301.761 777.688 303.491C777.758 303.861 777.828 304.221 777.918 304.581C780.198 314.281 789.838 320.121 799.438 318.581C796.608 327.291 794.568 332.471 791.718 341.251C799.486 346.822 808.966 349.481 818.498 348.761C826.145 348.071 833.434 345.201 839.498 340.491C836.731 329.271 833.961 318.028 831.188 306.761Z" fill="#D88B6D" stroke="black" stroke-width="1.5" stroke-linecap="round" stroke-linejoin="round"/>
<path d="M777.977 261.701C778.837 262.221 781.037 259.981 783.037 257.951C787.321 253.555 790.755 248.405 793.167 242.761C793.704 247.828 796.154 252.499 800.017 255.821C807.017 261.711 815.427 260.211 816.537 259.991L825.537 306.271C825.809 307.684 826.433 309.005 827.353 310.112C828.272 311.219 829.457 312.075 830.796 312.601C832.136 313.127 833.586 313.306 835.013 313.12C836.44 312.935 837.797 312.392 838.957 311.541C847.897 304.801 849.957 288.441 842.217 271.681C843.785 265.542 842.861 259.032 839.647 253.571C833.097 242.901 820.467 242.571 819.647 242.571C816.091 242.176 812.515 241.986 808.937 242.001C797.387 242.001 788.837 242.061 783.147 247.581C777.997 252.571 776.607 260.881 777.977 261.701Z" fill="black" stroke="black" stroke-width="1.5" stroke-linecap="round" stroke-linejoin="round"/>
<path d="M793.578 290.41H791.918C791.291 290.411 790.676 290.24 790.14 289.915C789.604 289.589 789.168 289.123 788.879 288.567C788.59 288.011 788.459 287.386 788.501 286.76C788.544 286.135 788.757 285.533 789.118 285.02L793.578 278.65" stroke="black" stroke-width="1.5" stroke-linecap="round" stroke-linejoin="round"/>
<path d="M787.987 294.23C788.478 295.279 789.285 296.149 790.294 296.717C791.304 297.285 792.465 297.524 793.617 297.4C794.439 297.249 795.218 296.916 795.896 296.427C796.574 295.937 797.134 295.303 797.537 294.57L787.987 294.23Z" fill="black"/>
<path fill-rule="evenodd" clip-rule="evenodd" d="M804.207 280.93C804.207 282.416 804.839 283.62 805.617 283.62C806.396 283.62 807.027 282.416 807.027 280.93C807.027 279.445 806.396 278.24 805.617 278.24C804.839 278.24 804.207 279.445 804.207 280.93ZM781.678 280.93C781.678 282.416 782.309 283.62 783.088 283.62C783.867 283.62 784.498 282.416 784.498 280.93C784.498 279.445 783.867 278.24 783.088 278.24C782.309 278.24 781.678 279.445 781.678 280.93Z" fill="black"/>
<path d="M832.297 295.33L825.598 272.51L827.417 272.41C829.498 272.346 831.521 273.096 833.058 274.5C834.595 275.904 835.524 277.852 835.647 279.93C835.749 281.729 835.24 283.509 834.204 284.983C833.168 286.456 831.665 287.537 829.937 288.05" fill="#D88B6D"/>
<path d="M832.297 295.33L825.598 272.51L827.417 272.41C829.498 272.346 831.521 273.096 833.058 274.5C834.595 275.904 835.524 277.852 835.647 279.93C835.749 281.729 835.24 283.509 834.204 284.983C833.168 286.456 831.665 287.537 829.937 288.05" stroke="black" stroke-width="1.5" stroke-linecap="round" stroke-linejoin="round"/>
<path fill-rule="evenodd" clip-rule="evenodd" d="M810.617 276.27C809.841 274.898 808.594 273.854 807.107 273.33L810.617 276.27ZM779.068 276.27C779.844 274.898 781.091 273.854 782.578 273.33L779.068 276.27Z" fill="white"/>
<path fill-rule="evenodd" clip-rule="evenodd" d="M806.455 272.96C806.276 273.275 806.348 273.673 806.626 273.906L810.136 276.846C810.414 277.079 810.818 277.079 811.097 276.847C811.376 276.616 811.448 276.217 811.27 275.902C810.405 274.372 809.014 273.207 807.356 272.624C807.014 272.503 806.635 272.645 806.455 272.96ZM783.23 272.96C783.05 272.645 782.671 272.503 782.329 272.624C780.671 273.207 779.281 274.372 778.415 275.902C778.237 276.217 778.31 276.616 778.588 276.847C778.867 277.079 779.272 277.079 779.55 276.846L783.06 273.906C783.338 273.673 783.409 273.275 783.23 272.96Z" fill="black"/>
<path d="M799.328 318.69L811.168 315.23" stroke="black" stroke-width="1.5" stroke-linecap="round" stroke-linejoin="round"/>
</svg>
