<svg width="1220" height="920" viewBox="0 0 1220 920" fill="none" xmlns="http://www.w3.org/2000/svg">
<g opacity="0.9">
<path opacity="0.9" d="M1098.79 235.51H619V809.91H1098.79V235.51Z" stroke="#CCCCCC" stroke-width="1.5" stroke-linecap="round" stroke-linejoin="round"/>
<path opacity="0.9" d="M858.05 235.51H619V809.91H858.05V235.51Z" stroke="#CCCCCC" stroke-width="1.5" stroke-linecap="round" stroke-linejoin="round"/>
<path opacity="0.9" d="M1098.42 383.34H858.34V397.7H1098.42V383.34Z" stroke="#CCCCCC" stroke-width="1.5" stroke-linecap="round" stroke-linejoin="round"/>
<path opacity="0.9" d="M1098.42 645.76H858.34V660.12H1098.42V645.76Z" stroke="#CCCCCC" stroke-width="1.5" stroke-linecap="round" stroke-linejoin="round"/>
<path opacity="0.9" d="M820.89 537.079C828.357 537.079 834.41 531.026 834.41 523.559C834.41 516.092 828.357 510.039 820.89 510.039C813.423 510.039 807.37 516.092 807.37 523.559C807.37 531.026 813.423 537.079 820.89 537.079Z" stroke="#CCCCCC" stroke-width="1.5" stroke-linecap="round" stroke-linejoin="round"/>
<path opacity="0.9" d="M1066.13 660.26V781.75H858.899" stroke="#CCCCCC" stroke-width="1.5" stroke-linecap="round" stroke-linejoin="round"/>
<path opacity="0.9" d="M1066.13 413.46V626.33" stroke="#CCCCCC" stroke-width="1.5" stroke-linecap="round" stroke-linejoin="round"/>
<path opacity="0.9" d="M857.77 267.05H1066.13V383.05" stroke="#CCCCCC" stroke-width="1.5" stroke-linecap="round" stroke-linejoin="round"/>
<path opacity="0.9" d="M1098.79 809.91L1066.13 781.75" stroke="#CCCCCC" stroke-width="1.5" stroke-linecap="round" stroke-linejoin="round"/>
<path opacity="0.9" d="M1098.79 235.51L1066.13 267.05" stroke="#CCCCCC" stroke-width="1.5" stroke-linecap="round" stroke-linejoin="round"/>
<path opacity="0.9" d="M857.21 413.459H1065.57L1098.42 397.699H858.34L857.21 413.459Z" stroke="#CCCCCC" stroke-width="1.5" stroke-linecap="round" stroke-linejoin="round"/>
<path opacity="0.9" d="M857.77 626.329H1066.7L1098.43 645.759" stroke="#CCCCCC" stroke-width="1.5" stroke-linecap="round" stroke-linejoin="round"/>
<path opacity="0.9" d="M726.36 235C703.47 257.88 673.47 295.16 669.29 343C660.21 447.05 782 498.59 774.29 585.17C770.93 622.88 742.22 676.17 619.06 736.06" stroke="#CCCCCC" stroke-width="1.5" stroke-linecap="round" stroke-linejoin="round"/>
<path opacity="0.9" d="M620.92 479.38C625.68 480.75 673.22 495.18 685.41 532.71C697.17 568.92 671.14 611.57 620.25 630.29" stroke="#CCCCCC" stroke-width="1.5" stroke-linecap="round" stroke-linejoin="round"/>
<path opacity="0.9" d="M858.759 704.43C836.519 745.91 808.889 763.28 787.989 771.5C760.679 782.24 739.839 779.33 682.989 791.99C656.119 797.99 634.789 804.4 621.359 808.75" stroke="#CCCCCC" stroke-width="1.5" stroke-linecap="round" stroke-linejoin="round"/>
<path opacity="0.9" d="M384.66 513.25H132V147H453.01V359.72" stroke="#CCCCCC" stroke-width="1.5" stroke-linecap="round" stroke-linejoin="round"/>
<path opacity="0.9" d="M365.62 480.22H162.17V172.14H424.29V295.25C424.274 302.743 425.853 310.153 428.92 316.99C437.404 335.62 447.893 353.271 460.2 369.63C473.713 387.746 489.39 404.145 506.88 418.46C494.192 426.032 483.56 436.607 475.92 449.255C468.28 461.903 463.868 476.235 463.07 490.99C462.35 495.99 458.68 517.55 439.37 532.65C430.009 539.876 418.815 544.344 407.05 545.55C397.61 533.02 388.46 519.64 379.76 505.34C307.1 385.87 299.82 261.71 305.76 173.47" stroke="#CCCCCC" stroke-width="1.5" stroke-linecap="round" stroke-linejoin="round"/>
<path opacity="0.9" d="M246.19 173.55L246.75 375.73C246.847 411.816 238.273 447.398 221.75 479.48" stroke="#CCCCCC" stroke-width="1.5" stroke-linecap="round" stroke-linejoin="round"/>
<path opacity="0.9" d="M204.54 339.46L205.1 375.75C205.207 411.851 196.64 447.45 180.12 479.55" stroke="#CCCCCC" stroke-width="1.5" stroke-linecap="round" stroke-linejoin="round"/>
<path opacity="0.9" d="M386.94 322.949C393.986 385.571 420.63 444.367 463.07 490.949" stroke="#CCCCCC" stroke-width="1.5" stroke-linecap="round" stroke-linejoin="round"/>
<path opacity="0.9" d="M496.695 609.37L441.295 582.37C431.812 577.761 423.835 570.551 418.295 561.58L357.565 463.24C351.991 454.257 343.975 447.046 334.455 442.45L322.285 436.56C311.973 431.567 300.371 429.88 289.065 431.73L266.445 435.42C256.132 437.095 246.501 441.642 238.655 448.54C230.809 455.438 225.066 464.407 222.085 474.42C206.849 525.708 198.114 578.706 196.085 632.17C193.905 689.1 195.415 706.99 197.085 715.5C203.765 749.2 214.955 763.26 219.085 768.06C222.305 771.79 233.235 783.78 258.005 794.3C271.945 800.22 286.915 803.72 341.645 807.39C381.204 810.027 420.937 807.774 459.945 800.68C466.415 799.5 475.385 795.15 481.045 791.81C489.045 787.07 494.325 784.36 502.345 779.62C509.639 775.307 515.854 769.387 520.515 762.31C525.177 755.233 528.162 747.185 529.245 738.78C533.069 709.145 532.357 679.101 527.135 649.68C525.603 641.035 522.046 632.876 516.755 625.87C511.465 618.863 504.59 613.209 496.695 609.37Z" fill="#82AAD3" stroke="black" stroke-width="1.5" stroke-linecap="round" stroke-linejoin="round"/>
<path opacity="0.9" d="M347.385 452.55C347.385 452.55 294.945 463.66 238.185 449.47L347.385 452.55Z" fill="#82AAD3"/>
<path opacity="0.9" d="M347.385 452.55C347.385 452.55 294.945 463.66 238.185 449.47" stroke="black" stroke-width="1.5" stroke-linecap="round" stroke-linejoin="round"/>
<path opacity="0.9" d="M246.624 452.939C237.194 500.169 229.764 535.619 222.914 566.539C218.384 587.179 212.384 613.089 226.704 632.449C231.314 638.558 237.295 643.497 244.164 646.869L276.864 654.269C286.623 647.409 298.217 643.64 310.144 643.449C314.271 643.374 318.394 643.736 322.444 644.529C335.244 646.999 369.314 650.769 449.614 656.799" fill="#82AAD3"/>
<path opacity="0.9" d="M246.624 452.939C237.194 500.169 229.764 535.619 222.914 566.539C218.384 587.179 212.384 613.089 226.704 632.449C231.314 638.558 237.295 643.497 244.164 646.869L276.864 654.269C286.623 647.409 298.217 643.64 310.144 643.449C314.271 643.374 318.394 643.736 322.444 644.529C335.244 646.999 369.314 650.769 449.614 656.799" stroke="black" stroke-width="1.5" stroke-linecap="round" stroke-linejoin="round"/>
<path opacity="0.9" d="M427.385 578.449C427.385 578.449 400.855 625.959 399.625 643.229L427.385 578.449Z" fill="#82AAD3"/>
<path opacity="0.9" d="M427.385 578.449C427.385 578.449 400.855 625.959 399.625 643.229" stroke="black" stroke-width="1.5" stroke-linecap="round" stroke-linejoin="round"/>
<path opacity="0.9" d="M444.064 588.289C444.064 588.289 418.764 603.709 407.064 621.599L444.064 588.289Z" fill="#82AAD3"/>
<path opacity="0.9" d="M444.064 588.289C444.064 588.289 418.764 603.709 407.064 621.599" stroke="black" stroke-width="1.5" stroke-linecap="round" stroke-linejoin="round"/>
<path opacity="0.9" d="M473.055 627.15C473.055 627.15 421.855 624.69 408.895 650.6L473.055 627.15Z" fill="#82AAD3"/>
<path opacity="0.9" d="M473.055 627.15C473.055 627.15 421.855 624.69 408.895 650.6" stroke="black" stroke-width="1.5" stroke-linecap="round" stroke-linejoin="round"/>
<path opacity="0.9" d="M459.944 800.6C460.444 799.6 461.154 798.04 461.944 796.2C479.164 756.6 473.134 719.34 471.844 712.07C468.294 692.309 460.724 673.487 449.604 656.77L467.244 649.26" fill="#82AAD3"/>
<path opacity="0.9" d="M459.944 800.6C460.444 799.6 461.154 798.04 461.944 796.2C479.164 756.6 473.134 719.34 471.844 712.07C468.294 692.309 460.724 673.487 449.604 656.77L467.244 649.26" stroke="black" stroke-width="1.5" stroke-linecap="round" stroke-linejoin="round"/>
<path opacity="0.9" d="M263.605 797.279C253.84 749.347 258.453 699.599 276.865 654.279L263.605 797.279Z" fill="#82AAD3"/>
<path opacity="0.9" d="M263.605 797.279C253.84 749.347 258.453 699.599 276.865 654.279" stroke="black" stroke-width="1.5" stroke-linecap="round" stroke-linejoin="round"/>
<path opacity="0.9" d="M854.97 681H841.46V809.29H854.97V681Z" fill="#FFE1B8" stroke="black" stroke-width="1.5" stroke-linecap="round" stroke-linejoin="round"/>
<path opacity="0.9" d="M846.47 809.31V809.29V687.44V681" stroke="black" stroke-width="1.5" stroke-linecap="round" stroke-linejoin="round"/>
<path opacity="0.9" d="M816.56 681H803.06V809.29H816.56V681Z" fill="#FFE1B8" stroke="black" stroke-width="1.5" stroke-linecap="round" stroke-linejoin="round"/>
<path opacity="0.9" d="M808.06 809.31V809.29V687.44V681" stroke="black" stroke-width="1.5" stroke-linecap="round" stroke-linejoin="round"/>
<path opacity="0.9" d="M1003.56 681V809.29H990.06V681H995.06H1003.56Z" fill="#FFE1B8" stroke="black" stroke-width="1.5" stroke-linecap="round" stroke-linejoin="round"/>
<path opacity="0.9" d="M995.06 809.31V809.29V687.44V681" stroke="black" stroke-width="1.5" stroke-linecap="round" stroke-linejoin="round"/>
<path opacity="0.9" d="M965.16 681H951.65V809.29H965.16V681Z" fill="#FFE1B8" stroke="black" stroke-width="1.5" stroke-linecap="round" stroke-linejoin="round"/>
<path opacity="0.9" d="M956.66 809.31V809.29V687.44V681" stroke="black" stroke-width="1.5" stroke-linecap="round" stroke-linejoin="round"/>
<path opacity="0.9" d="M1003.47 681H803V687.44H1003.47V681Z" fill="#FFCD88" stroke="black" stroke-width="1.5" stroke-linecap="round" stroke-linejoin="round"/>
<path opacity="0.9" d="M879.933 587.057H903.933C907.134 587.057 910.28 587.892 913.06 589.479C915.839 591.066 918.157 593.35 919.785 596.106C921.412 598.862 922.293 601.995 922.34 605.196C922.387 608.396 921.599 611.554 920.053 614.357L919.383 615.577C919.433 615.867 919.473 616.067 919.523 616.357C934.093 628.917 935.673 651.917 923.383 666.127L922.383 667.247C918.492 671.55 913.748 674.995 908.452 677.365C903.156 679.734 897.425 680.974 891.623 681.007C885.55 680.956 879.561 679.588 874.067 676.999C868.574 674.409 863.707 670.659 859.803 666.007C848.713 653.147 848.803 633.147 859.743 620.097L864.133 614.857C864.074 614.767 864.021 614.673 863.973 614.577C862.377 611.78 861.543 608.613 861.554 605.393C861.566 602.172 862.422 599.011 864.037 596.226C865.653 593.44 867.971 591.127 870.761 589.518C873.55 587.909 876.713 587.06 879.933 587.057Z" fill="#F25A33" stroke="black" stroke-width="1.5" stroke-linecap="round" stroke-linejoin="round"/>
<path opacity="0.9" d="M869.903 590.116C869.903 592.116 879.733 593.686 891.903 593.686C904.073 593.686 913.903 592.086 913.903 590.116C913.903 588.146 904.073 586.546 891.903 586.546C879.733 586.546 869.903 588.146 869.903 590.116Z" fill="black"/>
<path opacity="0.9" d="M897.583 592.946C896.093 593.136 894.973 593.216 894.683 593.236C894.073 593.236 893.313 593.306 892.433 593.306C892.64 589.306 892.853 585.329 893.073 581.376C892.835 558.527 893.857 535.682 896.133 512.946C902.253 452.086 907.783 403.516 942.963 370.616C950.088 363.954 958.044 358.24 966.633 353.616C974.606 349.687 983.119 346.968 991.893 345.546C1006.59 342.056 1021.15 347.136 1027.36 357.176C1035.87 370.896 1029.21 394.596 1007.89 403.946C1007.89 403.946 995.123 410.796 980.103 424.946C959.713 444.106 949.823 464.426 938.823 489.516C927.063 516.306 913.173 550.926 899.533 592.656C899.023 592.736 898.363 592.846 897.583 592.946Z" fill="#C8B571" stroke="black" stroke-width="1.5" stroke-linecap="round" stroke-linejoin="round"/>
<path opacity="0.9" d="M814.723 479.816C812.603 480.186 811.633 481.566 807.653 485.746C805.413 488.096 803.553 489.936 802.413 491.036C797.593 484.866 791.163 474.306 791.003 460.806C790.913 453.346 792.653 438.256 799.803 436.586C803.133 435.806 806.663 438.176 809.233 440.586C804.643 444.866 803.573 450.166 805.583 452.876C806.136 453.511 806.816 454.022 807.579 454.377C808.342 454.732 809.172 454.922 810.013 454.936C813.683 454.936 817.413 451.436 818.593 445.936C831.891 457.577 842.415 472.048 849.393 488.286C845.393 473.466 841.393 458.639 837.393 443.806C837.763 443.926 846.233 446.446 850.883 441.566C851.68 440.802 852.308 439.88 852.727 438.858C853.145 437.837 853.345 436.739 853.313 435.636C852.983 431.976 849.453 429.986 848.743 429.636C843.323 426.636 837.043 430.156 836.563 430.436L838.843 412.436C846.053 417.016 852.933 419.096 855.073 416.886C857.403 414.466 854.593 406.386 847.073 397.656C847.441 393.933 849.167 390.476 851.923 387.946C857.373 383.196 864.683 384.776 866.023 385.066C877.203 387.486 882.653 400.736 884.893 406.156C890.303 419.316 889.163 429.156 888.983 448.286C888.843 462.536 889.983 476.766 890.283 491.006C891.203 534.266 891.603 548.536 892.943 560.196C893.383 564.056 893.943 567.676 893.943 567.676C895.53 576.096 897.123 584.513 898.723 592.926H895.823C894.323 593.036 893.283 592.926 891.823 593.056C880.642 584.573 869.958 575.454 859.823 565.746C846.973 553.086 830.083 535.106 814.493 510.896C812.56 507.896 810.627 504.896 808.693 501.896C809.873 501.726 817.033 500.566 820.573 494.386C822.183 491.566 824.303 485.506 821.103 481.996C820.298 481.14 819.296 480.494 818.184 480.114C817.072 479.734 815.884 479.632 814.723 479.816Z" fill="#C8B571" stroke="black" stroke-width="1.5" stroke-linecap="round" stroke-linejoin="round"/>
<path opacity="0.9" fill-rule="evenodd" clip-rule="evenodd" d="M992.833 375.316C992.982 375.702 992.789 376.136 992.403 376.285C979.966 381.066 968.519 388.103 958.638 397.04C941.852 412.338 934.624 428.997 926.905 447.365V447.366C924.249 453.678 917.592 470.516 909.21 514.296C905.821 531.952 901.215 556.688 898.019 585.707C897.973 586.119 897.603 586.416 897.191 586.37C896.78 586.325 896.483 585.954 896.528 585.543C899.731 556.462 904.346 531.678 907.737 514.014C916.134 470.154 922.818 453.212 925.522 446.784C933.242 428.413 940.575 411.472 957.628 395.931L957.63 395.929C967.649 386.867 979.255 379.733 991.864 374.885C992.251 374.736 992.685 374.929 992.833 375.316ZM867.571 452.282C867.982 452.336 868.271 452.712 868.217 453.123C861.99 500.465 873.348 550.608 897.72 592.136C897.93 592.493 897.81 592.952 897.453 593.162C897.096 593.372 896.636 593.252 896.427 592.895C896.384 592.823 896.342 592.751 896.3 592.68C896.149 592.648 896.006 592.57 895.894 592.445C876.311 570.565 859.625 546.256 846.246 520.117C846.057 519.748 846.203 519.296 846.572 519.108C846.94 518.919 847.392 519.065 847.581 519.434C859.991 543.679 875.259 566.343 893.054 586.944C870.862 546.363 860.751 498.384 866.73 452.928C866.784 452.517 867.16 452.228 867.571 452.282Z" fill="black"/>
<path opacity="0.9" d="M1138.56 252.217C1138.91 256.217 1136.18 259.447 1134.93 260.897C1119.31 278.897 1080.59 255.097 1019.17 254.327C1005.51 254.162 991.856 255.135 978.354 257.237C989.858 246.62 1003.32 238.349 1017.99 232.887C1070.78 213.507 1136.94 233.677 1138.56 252.217Z" fill="#C8B571" stroke="black" stroke-width="1.5" stroke-linecap="round" stroke-linejoin="round"/>
<path opacity="0.9" d="M866.463 230.837C861.723 231.997 860.253 241.317 859.863 243.837C856.413 265.697 872.153 280.587 890.043 315.837C895.359 326.315 900.103 337.074 904.253 348.067C903.874 333.942 902.766 319.847 900.933 305.837C896.873 274.837 891.643 262.737 888.833 256.947C887.723 254.617 874.973 228.757 866.463 230.837Z" fill="#C8B571" stroke="black" stroke-width="1.5" stroke-linecap="round" stroke-linejoin="round"/>
<path opacity="0.9" d="M879.854 260.247C891.957 288.255 900.166 317.79 904.254 348.027C911.174 399.877 904.604 446.027 904.814 446.027C905.622 414.419 909.816 382.99 917.323 352.277C924.323 324.197 930.933 311.517 934.943 304.427C941.443 292.927 954.144 274.427 978.354 257.207C1009.21 241.396 1044.79 237.454 1078.35 246.127" stroke="black" stroke-width="1.5" stroke-linecap="round" stroke-linejoin="round"/>
<path opacity="0.9" d="M974.6 810H223.87" stroke="black" stroke-width="1.5" stroke-linecap="round" stroke-linejoin="round"/>
<path opacity="0.9" d="M643.7 820.21H106" stroke="black" stroke-width="1.5" stroke-linecap="round" stroke-linejoin="round"/>
<path opacity="0.9" d="M687.62 820.21H656.47" stroke="black" stroke-width="1.5" stroke-linecap="round" stroke-linejoin="round"/>
<path opacity="0.9" fill-rule="evenodd" clip-rule="evenodd" d="M541.077 712.65C529.919 700.851 522.198 686.228 518.747 670.36C496.217 648.93 488.147 645.87 485.227 647.96C484.084 648.811 484.172 650.484 484.313 653.193C484.42 655.227 484.557 657.846 484.227 661.14C483.117 672.71 481.477 682.18 480.227 688.54C482.277 691.61 499.737 716.92 525.957 716.07C531.165 715.88 536.293 714.72 541.077 712.65ZM595.777 787.11C579.666 785.075 564.419 778.67 551.687 768.59C520.687 766.33 512.517 769.11 511.627 772.51C511.248 773.931 512.39 775.179 514.243 777.205C515.612 778.702 517.369 780.623 519.187 783.35C525.647 793.03 530.387 801.38 533.457 807.09C536.987 808.16 566.537 816.65 586.257 799.36C590.168 795.907 593.397 791.752 595.777 787.11Z" fill="#D88B6D"/>
<path opacity="0.9" d="M518.747 670.36L519.479 670.2C519.448 670.054 519.372 669.92 519.263 669.816L518.747 670.36ZM541.077 712.65L541.374 713.338C541.599 713.241 541.762 713.04 541.811 712.801C541.86 712.561 541.79 712.312 541.622 712.135L541.077 712.65ZM485.227 647.96L484.79 647.35C484.786 647.353 484.782 647.355 484.778 647.358L485.227 647.96ZM484.313 653.193L485.062 653.154L484.313 653.193ZM484.227 661.14L483.48 661.065V661.068L484.227 661.14ZM480.227 688.54L479.491 688.395C479.452 688.59 479.493 688.791 479.603 688.956L480.227 688.54ZM525.957 716.07L525.981 716.819H525.984L525.957 716.07ZM551.687 768.59L552.153 768.002C552.035 767.909 551.892 767.853 551.742 767.842L551.687 768.59ZM595.777 787.11L596.445 787.452C596.556 787.235 596.555 786.976 596.441 786.76C596.326 786.544 596.114 786.397 595.871 786.366L595.777 787.11ZM511.627 772.51L512.352 772.704L512.353 772.7L511.627 772.51ZM514.243 777.205L513.69 777.712L514.243 777.205ZM519.187 783.35L518.563 783.766H518.564L519.187 783.35ZM533.457 807.09L532.797 807.445C532.891 807.62 533.05 807.75 533.24 807.808L533.457 807.09ZM586.257 799.36L586.752 799.924L586.754 799.922L586.257 799.36ZM518.014 670.519C521.494 686.521 529.281 701.267 540.532 713.165L541.622 712.135C530.558 700.435 522.902 685.935 519.479 670.2L518.014 670.519ZM485.663 648.57C486.165 648.21 486.978 647.997 488.369 648.298C489.77 648.6 491.674 649.408 494.241 650.979C499.371 654.119 506.974 660.197 518.23 670.903L519.263 669.816C507.989 659.092 500.293 652.925 495.024 649.7C492.393 648.089 490.323 647.185 488.686 646.831C487.038 646.476 485.748 646.664 484.79 647.35L485.663 648.57ZM485.062 653.154C484.99 651.774 484.939 650.753 485.033 649.969C485.124 649.209 485.335 648.814 485.675 648.561L484.778 647.358C483.976 647.956 483.659 648.823 483.544 649.791C483.431 650.732 483.495 651.903 483.564 653.232L485.062 653.154ZM484.973 661.215C485.309 657.86 485.169 655.192 485.062 653.154L483.564 653.232C483.671 655.263 483.804 657.832 483.48 661.065L484.973 661.215ZM480.962 688.684C482.216 682.308 483.86 672.812 484.973 661.211L483.48 661.068C482.373 672.607 480.737 682.052 479.491 688.395L480.962 688.684ZM525.932 715.32C513.078 715.737 502.333 709.742 494.509 703.199C486.689 696.66 481.858 689.632 480.85 688.123L479.603 688.956C480.646 690.518 485.569 697.679 493.547 704.35C501.52 711.018 512.615 717.253 525.981 716.819L525.932 715.32ZM540.779 711.962C536.081 713.995 531.045 715.134 525.929 715.32L525.984 716.819C531.286 716.626 536.505 715.445 541.374 713.338L540.779 711.962ZM551.222 769.178C564.061 779.343 579.437 785.802 595.683 787.854L595.871 786.366C579.896 784.348 564.777 777.997 552.153 768.002L551.222 769.178ZM512.353 772.7C512.503 772.127 512.983 771.458 514.244 770.813C515.513 770.164 517.492 769.584 520.469 769.17C526.418 768.344 536.147 768.209 551.633 769.338L551.742 767.842C536.228 766.711 526.372 766.836 520.263 767.685C517.211 768.109 515.044 768.719 513.561 769.478C512.071 770.24 511.197 771.193 510.902 772.32L512.353 772.7ZM514.797 776.699C513.852 775.667 513.158 774.904 512.732 774.23C512.322 773.582 512.237 773.134 512.352 772.704L510.903 772.316C510.638 773.307 510.934 774.194 511.464 775.032C511.978 775.844 512.781 776.718 513.69 777.712L514.797 776.699ZM519.811 782.934C517.959 780.155 516.168 778.199 514.797 776.699L513.69 777.712C515.056 779.205 516.779 781.09 518.563 783.766L519.811 782.934ZM534.118 806.735C531.04 801.01 526.288 792.638 519.811 782.934L518.564 783.766C525.007 793.422 529.735 801.75 532.797 807.445L534.118 806.735ZM585.763 798.796C576.095 807.273 563.989 809.454 553.793 809.36C543.602 809.266 535.41 806.898 533.675 806.372L533.24 807.808C535.035 808.352 543.383 810.764 553.779 810.86C564.171 810.956 576.7 808.737 586.752 799.924L585.763 798.796ZM595.11 786.768C592.773 791.327 589.602 795.407 585.761 798.798L586.754 799.922C590.735 796.408 594.022 792.178 596.445 787.452L595.11 786.768Z" fill="black"/>
<path opacity="0.9" d="M507.306 507.46C507.759 506.719 508.036 505.884 508.116 505.02C508.182 504.068 507.932 503.122 507.404 502.328C506.875 501.534 506.099 500.937 505.196 500.63L494.146 496.76C484.776 493.49 479.996 491.87 475.486 492.4C472.408 492.776 469.451 493.828 466.826 495.48L441.966 517.87L410.966 544.55C406.14 523.37 401.313 502.187 396.486 481L371.906 514.17C377.02 538.337 382.123 562.507 387.216 586.68L420.326 582.97L461.796 538.97L473.316 551.27C474.856 552.99 477.916 552.45 479.316 550.97C479.636 550.599 479.879 550.169 480.031 549.703C480.183 549.238 480.242 548.748 480.204 548.26C480.166 547.772 480.032 547.296 479.809 546.86C479.586 546.424 479.279 546.037 478.906 545.72C474.966 541.66 471.336 537.29 467.396 533.23L478.396 522.73C479.108 522.51 479.859 522.45 480.597 522.552C481.334 522.654 482.041 522.916 482.666 523.32C482.782 523.388 482.892 523.465 482.996 523.55C483.859 524.222 484.422 525.207 484.56 526.292C484.699 527.377 484.403 528.473 483.736 529.34L481.456 532.18C480.929 532.73 480.64 533.467 480.653 534.229C480.666 534.992 480.98 535.718 481.526 536.25C482.18 536.985 483.066 537.472 484.036 537.63C484.746 537.69 485.866 537.54 488.636 534.63C490.049 533.136 491.328 531.519 492.456 529.8C492.846 531.15 493.226 532.5 493.616 533.8C493.84 534.584 494.266 535.296 494.853 535.863C495.439 536.43 496.165 536.833 496.956 537.03C497.137 537.085 497.328 537.102 497.516 537.08C498.276 536.994 498.997 536.696 499.596 536.22C500.055 535.843 500.399 535.346 500.59 534.784C500.781 534.222 500.811 533.618 500.676 533.04C499.904 529.401 498.695 525.869 497.076 522.52C495.943 519.974 494.574 517.54 492.986 515.25L501.116 522.84C501.972 523.652 503.106 524.106 504.286 524.11C504.781 524.109 505.268 523.997 505.714 523.785C506.161 523.572 506.554 523.263 506.866 522.88C507.203 522.486 507.457 522.028 507.614 521.535C507.771 521.041 507.828 520.521 507.782 520.005C507.735 519.489 507.586 518.987 507.343 518.529C507.1 518.072 506.768 517.667 506.366 517.34L491.686 503.87L502.526 508.79C503.348 509.188 504.288 509.273 505.168 509.028C506.048 508.784 506.808 508.226 507.306 507.46Z" fill="#D88B6D" stroke="black" stroke-width="1.5" stroke-linecap="round" stroke-linejoin="round"/>
<path opacity="0.9" d="M492.416 529.779C492.622 527.645 492.346 525.492 491.609 523.48C490.872 521.467 489.692 519.645 488.156 518.149C486.528 516.65 484.57 515.555 482.44 514.951C480.311 514.346 478.07 514.25 475.896 514.669" fill="#D88B6D"/>
<path opacity="0.9" d="M492.416 529.779C492.622 527.645 492.346 525.492 491.609 523.48C490.872 521.467 489.692 519.645 488.156 518.149C486.528 516.65 484.57 515.555 482.44 514.951C480.311 514.346 478.07 514.25 475.896 514.669" stroke="black" stroke-width="1.5" stroke-miterlimit="10" stroke-linecap="round" stroke-linejoin="round"/>
<path opacity="0.9" d="M476.736 507.149C479.174 506.752 481.673 506.969 484.006 507.779C487.77 509.155 490.933 511.805 492.946 515.269" fill="#D88B6D"/>
<path opacity="0.9" d="M476.736 507.149C479.174 506.752 481.673 506.969 484.006 507.779C487.77 509.155 490.933 511.805 492.946 515.269" stroke="black" stroke-width="1.5" stroke-miterlimit="10" stroke-linecap="round" stroke-linejoin="round"/>
<path opacity="0.9" fill-rule="evenodd" clip-rule="evenodd" d="M483.416 670.06C483.985 670.287 484.486 670.659 484.867 671.139C491.754 679.625 498.644 688.125 505.537 696.639C507.039 698.527 508.784 700.208 510.727 701.639C516.345 705.675 522.631 708.688 529.297 710.539C531.307 711.109 536.577 712.589 537.767 710.749C538.016 710.301 538.084 709.775 537.957 709.279L539.157 709.359C540.296 709.431 541.414 709.705 542.457 710.169L557.157 716.749C559.537 717.809 561.067 720.809 560.897 724.079C560.697 728.079 558.047 731.169 554.957 730.989L519.957 728.059C519.044 727.988 518.175 727.639 517.467 727.059L487.117 702.279C485.897 709.919 484.684 717.552 483.477 725.179L477.617 724.809C477.47 719.42 477.04 714.042 476.327 708.699C476.313 708.599 476.298 708.486 476.281 708.355C476.168 707.508 475.952 705.893 475.407 702.129C475.218 700.835 475.059 699.768 474.925 698.864C474.56 696.414 474.374 695.164 474.257 693.849C473.817 688.699 474.447 681.489 478.867 671.999C479.098 671.431 479.474 670.933 479.957 670.556C480.44 670.178 481.013 669.934 481.62 669.847C482.227 669.76 482.846 669.833 483.416 670.06ZM523.961 790.143C524.548 789.956 525.174 789.927 525.776 790.059L557.916 796.679C560.27 797.167 562.676 797.351 565.076 797.229C571.98 796.783 578.751 795.121 585.076 792.319L585.12 792.3C587.062 791.446 592.005 789.272 591.756 787.109C591.665 786.603 591.382 786.152 590.966 785.849L591.966 785.149C592.894 784.479 593.933 783.981 595.036 783.679L610.566 779.439C613.106 778.729 616.166 780.099 618.106 782.729C620.496 785.959 620.406 790.019 617.906 791.839L588.966 811.839C588.218 812.359 587.328 812.638 586.416 812.639L547.226 812.749C551.14 819.416 555.046 826.082 558.946 832.749C557.353 833.889 555.766 835.032 554.186 836.179C550.659 832.102 546.921 828.214 542.986 824.529C542.579 824.159 541.881 823.514 540.227 821.987C539.647 821.451 538.95 820.807 538.106 820.029C537.086 819.1 536.251 818.345 535.549 817.711C533.789 816.121 532.867 815.288 531.966 814.359C528.356 810.659 524.266 804.689 521.666 794.549C521.482 793.961 521.456 793.335 521.59 792.733C521.724 792.132 522.013 791.576 522.429 791.121C522.845 790.667 523.374 790.329 523.961 790.143Z" fill="#FFCD88"/>
<path opacity="0.9" d="M484.867 671.139L484.28 671.605L484.285 671.611L484.867 671.139ZM483.416 670.06L483.138 670.757L483.416 670.06ZM505.537 696.639L506.124 696.172L506.12 696.167L505.537 696.639ZM510.727 701.639L510.282 702.243L510.289 702.248L510.727 701.639ZM529.297 710.539L529.502 709.817L529.498 709.816L529.297 710.539ZM537.767 710.749L538.397 711.156C538.406 711.142 538.414 711.128 538.422 711.114L537.767 710.749ZM537.957 709.279L538.007 708.53C537.767 708.514 537.534 708.614 537.38 708.799C537.226 708.984 537.171 709.232 537.23 709.465L537.957 709.279ZM539.157 709.359L539.107 710.107H539.109L539.157 709.359ZM542.457 710.169L542.763 709.484L542.761 709.483L542.457 710.169ZM557.157 716.749L556.85 717.433L556.852 717.434L557.157 716.749ZM560.897 724.079L560.148 724.04V724.041L560.897 724.079ZM554.957 730.989L554.894 731.736C554.901 731.737 554.907 731.737 554.913 731.737L554.957 730.989ZM519.957 728.059L520.019 727.311H520.015L519.957 728.059ZM517.467 727.059L517.942 726.478H517.941L517.467 727.059ZM487.117 702.279L487.591 701.698C487.383 701.528 487.101 701.482 486.85 701.578C486.599 701.673 486.419 701.895 486.376 702.16L487.117 702.279ZM483.477 725.179L483.43 725.927C483.816 725.952 484.157 725.678 484.218 725.296L483.477 725.179ZM477.617 724.809L476.867 724.829C476.878 725.217 477.182 725.533 477.57 725.557L477.617 724.809ZM476.327 708.699L477.07 708.599V708.598L476.327 708.699ZM476.281 708.355L475.537 708.454L476.281 708.355ZM475.407 702.129L476.149 702.021V702.02L475.407 702.129ZM474.925 698.864L475.667 698.754L474.925 698.864ZM474.257 693.849L473.51 693.913V693.915L474.257 693.849ZM478.867 671.999L479.547 672.315C479.552 672.304 479.557 672.293 479.562 672.281L478.867 671.999ZM479.957 670.556L480.419 671.147L479.957 670.556ZM481.62 669.847L481.514 669.104L481.62 669.847ZM525.776 790.059L525.616 790.792L525.625 790.793L525.776 790.059ZM557.916 796.679L558.069 795.944H558.068L557.916 796.679ZM565.076 797.229L565.115 797.978L565.125 797.977L565.076 797.229ZM585.076 792.319L584.775 791.632L584.773 791.633L585.076 792.319ZM585.12 792.3L585.422 792.986L585.12 792.3ZM591.756 787.109L592.502 787.023C592.5 787.007 592.497 786.991 592.494 786.975L591.756 787.109ZM590.966 785.849L590.536 785.234C590.338 785.373 590.219 785.599 590.216 785.842C590.214 786.084 590.329 786.312 590.525 786.455L590.966 785.849ZM591.966 785.149L592.397 785.763L592.406 785.757L591.966 785.149ZM595.036 783.679L594.839 782.955L594.838 782.956L595.036 783.679ZM610.566 779.439L610.764 780.162L610.768 780.161L610.566 779.439ZM618.106 782.729L617.503 783.174L617.504 783.175L618.106 782.729ZM617.906 791.839L618.333 792.456C618.338 792.452 618.343 792.449 618.348 792.445L617.906 791.839ZM588.966 811.839L588.54 811.222L588.539 811.223L588.966 811.839ZM586.416 812.639V811.889H586.414L586.416 812.639ZM547.226 812.749L547.224 811.999C546.956 812 546.708 812.144 546.575 812.377C546.442 812.61 546.444 812.897 546.58 813.129L547.226 812.749ZM558.946 832.749L559.383 833.359C559.698 833.133 559.79 832.705 559.594 832.37L558.946 832.749ZM554.186 836.179L553.619 836.67C553.874 836.964 554.312 837.015 554.627 836.786L554.186 836.179ZM542.986 824.529L543.499 823.981L543.491 823.974L542.986 824.529ZM540.227 821.987L540.736 821.436L540.227 821.987ZM538.106 820.029L538.615 819.478L538.611 819.474L538.106 820.029ZM535.549 817.711L536.052 817.154L535.549 817.711ZM531.966 814.359L532.505 813.837L532.503 813.835L531.966 814.359ZM521.666 794.549L522.393 794.363C522.39 794.35 522.386 794.337 522.382 794.325L521.666 794.549ZM522.429 791.121L522.983 791.628L522.429 791.121ZM485.454 670.672C484.992 670.09 484.384 669.638 483.693 669.363L483.138 670.757C483.586 670.935 483.98 671.228 484.28 671.605L485.454 670.672ZM506.12 696.167C499.226 687.653 492.336 679.153 485.449 670.666L484.285 671.611C491.171 680.098 498.061 688.597 504.954 697.111L506.12 696.167ZM511.172 701.035C509.282 699.643 507.585 698.008 506.124 696.172L504.95 697.106C506.494 699.045 508.286 700.772 510.282 702.242L511.172 701.035ZM529.498 709.816C522.917 707.989 516.711 705.014 511.165 701.03L510.289 702.248C515.979 706.336 522.346 709.387 529.096 711.261L529.498 709.816ZM537.137 710.341C537.009 710.539 536.713 710.734 536.105 710.832C535.513 710.927 534.76 710.905 533.931 710.803C532.279 710.6 530.511 710.103 529.502 709.817L529.092 711.26C530.092 711.544 531.965 712.072 533.748 712.292C534.637 712.401 535.55 712.44 536.343 712.313C537.121 712.188 537.93 711.878 538.397 711.156L537.137 710.341ZM537.23 709.465C537.31 709.775 537.268 710.104 537.112 710.384L538.422 711.114C538.765 710.498 538.858 709.775 538.683 709.092L537.23 709.465ZM539.207 708.61L538.007 708.53L537.907 710.027L539.107 710.107L539.207 708.61ZM542.761 709.483C541.637 708.984 540.432 708.688 539.205 708.61L539.109 710.107C540.16 710.174 541.19 710.427 542.153 710.854L542.761 709.483ZM557.463 716.064L542.763 709.484L542.151 710.853L556.85 717.433L557.463 716.064ZM561.646 724.118C561.827 720.638 560.207 717.286 557.462 716.064L556.852 717.434C558.867 718.331 560.307 720.98 560.148 724.04L561.646 724.118ZM554.913 731.737C558.591 731.952 561.435 728.337 561.646 724.116L560.148 724.041C559.959 727.82 557.503 730.386 555.001 730.24L554.913 731.737ZM519.894 728.806L554.894 731.736L555.02 730.241L520.019 727.311L519.894 728.806ZM516.992 727.639C517.819 728.316 518.833 728.723 519.899 728.806L520.015 727.311C519.255 727.252 518.532 726.961 517.942 726.478L516.992 727.639ZM486.643 702.86L516.993 727.64L517.941 726.478L487.591 701.698L486.643 702.86ZM484.218 725.296C485.424 717.67 486.638 710.037 487.858 702.397L486.376 702.16C485.156 709.801 483.943 717.434 482.736 725.061L484.218 725.296ZM477.57 725.557L483.43 725.927L483.524 724.43L477.664 724.06L477.57 725.557ZM475.584 708.798C476.293 714.115 476.721 719.466 476.867 724.829L478.367 724.788C478.219 719.373 477.787 713.969 477.07 708.599L475.584 708.798ZM475.537 708.454C475.555 708.585 475.57 708.699 475.584 708.799L477.07 708.598C477.057 708.499 477.042 708.387 477.024 708.255L475.537 708.454ZM474.665 702.236C475.209 705.998 475.425 707.61 475.537 708.454L477.024 708.255C476.911 707.407 476.695 705.789 476.149 702.021L474.665 702.236ZM474.183 698.975C474.318 699.879 474.476 700.945 474.665 702.237L476.149 702.02C475.96 700.726 475.801 699.658 475.667 698.754L474.183 698.975ZM473.51 693.915C473.629 695.257 473.819 696.532 474.183 698.975L475.667 698.754C475.301 696.297 475.118 695.07 475.004 693.782L473.51 693.915ZM478.187 671.682C473.713 681.288 473.058 688.629 473.51 693.913L475.004 693.785C474.576 688.769 475.181 681.689 479.547 672.315L478.187 671.682ZM479.495 669.965C478.909 670.423 478.453 671.027 478.172 671.716L479.562 672.281C479.743 671.835 480.039 671.444 480.419 671.147L479.495 669.965ZM481.514 669.104C480.777 669.21 480.081 669.507 479.495 669.965L480.419 671.147C480.798 670.85 481.249 670.658 481.727 670.589L481.514 669.104ZM483.693 669.363C483.002 669.088 482.25 668.999 481.514 669.104L481.727 670.589C482.204 670.521 482.691 670.579 483.138 670.757L483.693 669.363ZM525.936 789.326C525.206 789.167 524.447 789.202 523.734 789.428L524.188 790.858C524.65 790.711 525.143 790.688 525.617 790.792L525.936 789.326ZM558.068 795.944L525.928 789.324L525.625 790.793L557.765 797.413L558.068 795.944ZM565.038 796.48C562.702 796.599 560.359 796.419 558.069 795.944L557.764 797.413C560.18 797.914 562.65 798.104 565.115 797.978L565.038 796.48ZM584.773 791.633C578.528 794.399 571.844 796.04 565.028 796.48L565.125 797.977C572.117 797.526 578.974 795.842 585.38 793.005L584.773 791.633ZM584.818 791.613L584.775 791.632L585.378 793.005L585.422 792.986L584.818 791.613ZM591.011 787.194C591.038 787.427 590.935 787.762 590.534 788.217C590.143 788.662 589.555 789.119 588.857 789.563C587.465 790.448 585.795 791.183 584.818 791.613L585.422 792.986C586.386 792.562 588.159 791.784 589.662 790.828C590.411 790.352 591.134 789.806 591.66 789.208C592.177 788.621 592.599 787.873 592.502 787.023L591.011 787.194ZM590.525 786.455C590.784 786.644 590.961 786.926 591.018 787.242L592.494 786.975C592.368 786.28 591.979 785.659 591.408 785.243L590.525 786.455ZM591.536 784.534L590.536 785.234L591.396 786.463L592.396 785.763L591.536 784.534ZM594.838 782.956C593.649 783.282 592.527 783.819 591.527 784.541L592.406 785.757C593.26 785.14 594.218 784.681 595.235 784.402L594.838 782.956ZM610.369 778.715L594.839 782.955L595.234 784.402L610.764 780.162L610.369 778.715ZM618.71 782.284C616.648 779.489 613.296 777.897 610.365 778.717L610.768 780.161C612.917 779.56 615.684 780.709 617.503 783.174L618.71 782.284ZM618.348 792.445C621.324 790.279 621.23 785.69 618.709 782.283L617.504 783.175C619.763 786.228 619.489 789.759 617.465 791.232L618.348 792.445ZM589.393 812.456L618.333 792.456L617.48 791.222L588.54 811.222L589.393 812.456ZM586.417 813.389C587.481 813.388 588.52 813.062 589.394 812.455L588.539 811.223C587.915 811.656 587.175 811.888 586.416 811.889L586.417 813.389ZM547.229 813.499L586.419 813.389L586.414 811.889L547.224 811.999L547.229 813.499ZM559.594 832.37C555.694 825.703 551.787 819.036 547.873 812.369L546.58 813.129C550.493 819.795 554.399 826.461 558.299 833.128L559.594 832.37ZM554.627 836.786C556.206 835.64 557.791 834.498 559.383 833.359L558.51 832.139C556.915 833.28 555.327 834.424 553.746 835.572L554.627 836.786ZM542.474 825.076C546.389 828.743 550.109 832.613 553.619 836.67L554.754 835.688C551.209 831.592 547.453 827.684 543.499 823.981L542.474 825.076ZM539.718 822.538C541.371 824.064 542.072 824.711 542.482 825.084L543.491 823.974C543.086 823.606 542.392 822.965 540.736 821.436L539.718 822.538ZM537.598 820.58C538.441 821.358 539.138 822.002 539.718 822.538L540.736 821.436C540.156 820.9 539.459 820.256 538.615 819.478L537.598 820.58ZM535.046 818.267C535.748 818.901 536.582 819.655 537.601 820.583L538.611 819.474C537.59 818.544 536.753 817.788 536.052 817.154L535.046 818.267ZM531.428 814.881C532.35 815.832 533.292 816.683 535.046 818.267L536.052 817.154C534.285 815.559 533.385 814.745 532.505 813.837L531.428 814.881ZM520.94 794.735C523.572 804.999 527.726 811.086 531.43 814.883L532.503 813.835C528.987 810.231 524.961 804.378 522.393 794.363L520.94 794.735ZM520.858 792.57C520.695 793.3 520.727 794.059 520.951 794.773L522.382 794.325C522.237 793.862 522.217 793.369 522.322 792.896L520.858 792.57ZM521.876 790.615C521.371 791.166 521.02 791.84 520.858 792.57L522.322 792.896C522.427 792.423 522.655 791.985 522.983 791.628L521.876 790.615ZM523.734 789.428C523.022 789.654 522.381 790.063 521.876 790.615L522.983 791.628C523.31 791.27 523.726 791.004 524.188 790.858L523.734 789.428Z" fill="black"/>
<path opacity="0.9" d="M478.137 498.68C480.155 498.924 482.142 499.376 484.067 500.03C486.774 500.946 489.339 502.239 491.687 503.87" fill="#D88B6D"/>
<path opacity="0.9" d="M478.137 498.68C480.155 498.924 482.142 499.376 484.067 500.03C486.774 500.946 489.339 502.239 491.687 503.87" stroke="black" stroke-width="1.5" stroke-miterlimit="10" stroke-linecap="round" stroke-linejoin="round"/>
<path opacity="0.9" d="M321.5 466C313.046 466.048 305.041 466.694 297.537 470.59C285.787 476.77 279.827 485.75 276.537 490.69C262.257 512.09 264.977 535.87 266.037 542.87L318.937 537.82L325.477 515.73" fill="#F25A33"/>
<path opacity="0.9" d="M321.5 466C313.046 466.048 305.041 466.694 297.537 470.59C285.787 476.77 279.827 485.75 276.537 490.69C262.257 512.09 264.977 535.87 266.037 542.87L318.937 537.82L325.477 515.73" stroke="black" stroke-width="1.5" stroke-linecap="round" stroke-linejoin="round"/>
<path opacity="0.9" d="M468.207 569.25L488.967 575.13C490.499 575.564 491.863 576.451 492.881 577.676C493.898 578.9 494.521 580.404 494.667 581.99" stroke="black" stroke-width="1.5" stroke-linecap="round" stroke-linejoin="round"/>
<path opacity="0.9" d="M378.447 512.68L379.447 495.68L378.447 512.68Z" fill="white"/>
<path opacity="0.9" d="M378.447 512.68L379.447 495.68" stroke="black" stroke-width="1.5" stroke-linecap="round" stroke-linejoin="round"/>
<path opacity="0.9" fill-rule="evenodd" clip-rule="evenodd" d="M474.816 691.05L486.336 696.56L524.026 728.2L520.956 728.06C520.044 727.989 519.175 727.64 518.466 727.06L488.116 702.28C486.896 709.92 485.683 717.553 484.476 725.18L478.616 724.81C478.463 719.42 478.026 714.043 477.306 708.7C477.266 708.37 477.216 708.01 477.126 707.37C476.756 704.68 476.466 702.68 476.386 702.13C476.365 701.982 476.342 701.822 476.317 701.65C476.063 699.883 475.618 696.791 474.816 691.05ZM530.867 812.42L543.267 809.42L592.447 809.96L589.977 811.8C589.228 812.32 588.339 812.599 587.427 812.6L548.237 812.71C552.151 819.377 556.057 826.043 559.957 832.71C558.364 833.85 556.777 834.993 555.197 836.14C551.67 832.063 547.932 828.175 543.997 824.49L542.997 823.57C541.598 822.27 540.438 821.209 539.734 820.564C539.441 820.297 539.227 820.101 539.107 819.99C537.867 818.86 535.547 816.74 530.867 812.42Z" fill="black"/>
<path opacity="0.9" d="M408.618 638.809L469.098 609.979C469.151 609.932 469.217 609.901 469.286 609.889C469.356 609.878 469.428 609.886 469.494 609.913C469.559 609.94 469.616 609.985 469.657 610.043C469.699 610.1 469.723 610.168 469.728 610.239L473.498 672.399C473.503 672.498 473.547 672.591 473.62 672.658C473.693 672.726 473.789 672.762 473.888 672.759L473.318 679.149C482.548 679.849 489.958 680.839 494.818 681.579C513.818 684.479 522.398 687.699 535.818 685.859C540.102 685.268 544.31 684.215 548.368 682.719C543.486 664.382 539.564 645.804 536.618 627.059C534.308 612.239 531.378 597.509 529.468 582.639C527.888 570.249 527.908 561.779 522.318 551.489C519.408 546.109 514.538 537.439 504.168 533.109C494.238 528.949 484.908 531.109 481.408 532.179L386.048 577.699L384.768 574.979L372.858 582.129L310.218 587.569C307.598 601.574 307.628 615.945 310.308 629.939C311.518 636.099 313.188 644.249 318.308 653.539C323.428 662.829 329.568 668.639 334.378 673.019C355.228 692.019 367.608 698.329 383.908 711.829C395.026 720.737 405.13 730.841 414.038 741.959C431.958 764.579 434.038 778.559 452.848 794.549C459.494 800.191 466.838 804.957 474.698 808.729C494.522 803.265 513.353 794.688 530.488 783.319C534.898 777.529 550.488 775.829 554.868 770.039C525.738 745.879 485.488 717.639 456.368 693.469L408.618 638.809Z" fill="black"/>
<path opacity="0.9" d="M367.428 465.97C369.832 463.061 373.027 460.911 376.628 459.78C377.138 459.63 385.188 457.26 392.228 461.73C392.578 461.96 392.928 462.19 393.228 462.44C401.228 468.27 404.638 479.73 402.028 491.59L413.488 506.28L385.768 518.48C379.668 500.98 373.554 483.477 367.428 465.97Z" fill="#AD85AD" stroke="black" stroke-width="1.5" stroke-linecap="round" stroke-linejoin="round"/>
<path opacity="0.9" d="M383.277 483.869C384.708 502.227 387.719 520.428 392.277 538.269C395.043 549.105 398.381 559.786 402.277 570.269L386.107 577.759C378.527 560.959 370.953 544.162 363.387 527.369L383.277 483.869Z" fill="#AD85AD" stroke="black" stroke-width="1.5" stroke-linecap="round" stroke-linejoin="round"/>
<path opacity="0.9" d="M368.507 464.609C372.068 466.32 375.303 468.638 378.067 471.459C384.447 477.999 389.007 488.279 388.797 515.849C388.797 521.849 388.497 526.389 388.157 530.099C387.777 534.299 387.437 537.829 387.157 540.849C386.597 546.499 386.157 550.429 386.097 551.189C385.567 556.359 385.227 564.539 386.097 577.699C378.164 581.31 369.818 583.94 361.247 585.529C358.607 586.009 353.677 586.809 335.707 587.529C325.417 587.969 316.877 588.139 310.857 588.209C310.011 579.082 308.974 569.772 307.747 560.279C303.96 531.112 327.959 493.185 321 464.609H368.507Z" fill="white" stroke="black" stroke-width="1.5" stroke-linecap="round" stroke-linejoin="round"/>
<path opacity="0.9" d="M336.347 521.429C335.807 537.379 334.227 541.97 333.607 558.59C333.197 569.44 331.907 586.169 332.017 592.079L288.517 590.249C286.712 587.075 285.397 583.646 284.617 580.079C281.547 566.139 293.237 557.439 290.927 541.929C287.207 516.867 289.482 491.281 297.567 467.269C305.207 466.359 313.017 465.639 320.657 464.729C326.979 471.606 331.689 479.804 334.447 488.729C335.177 491.239 337.137 498.169 336.347 521.429Z" fill="#AD85AD" stroke="black" stroke-width="1.5" stroke-linecap="round" stroke-linejoin="round"/>
<path opacity="0.9" d="M316.796 507.569L275.906 511.189C274.92 528.482 273.97 545.772 273.056 563.059C271.523 591.899 270.086 620.742 268.746 649.589C268.536 650.239 268.296 650.859 268.046 651.459C263.386 662.159 250.416 666.259 243.516 667.839H224.516C223.27 667.818 222.064 668.276 221.146 669.119C220.765 669.474 220.467 669.91 220.273 670.394C220.08 670.878 219.995 671.399 220.026 671.919C220.067 672.53 220.227 673.128 220.496 673.679C221.556 675.679 224.596 675.979 224.496 676.319C224.496 676.499 223.726 676.319 222.666 676.649C222.083 676.861 221.557 677.203 221.126 677.649C220.745 678.002 220.447 678.436 220.253 678.918C220.06 679.401 219.975 679.92 220.006 680.439C220.027 680.986 220.156 681.523 220.387 682.02C220.618 682.516 220.945 682.961 221.35 683.329C221.756 683.697 222.23 683.98 222.746 684.162C223.263 684.344 223.81 684.421 224.356 684.389C233.94 684.983 243.552 684.983 253.136 684.389C261.824 683.058 270.657 682.98 279.366 684.159H279.516C283.712 684.142 287.756 682.591 290.887 679.799C294.019 677.006 296.021 673.165 296.516 668.999C297.136 663.799 297.753 658.596 298.366 653.389V650.809C304.533 603.036 310.676 555.289 316.796 507.569Z" fill="#D88B6D" stroke="black" stroke-width="1.5" stroke-linecap="round" stroke-linejoin="round"/>
<path opacity="0.9" d="M314.777 495.689L323.027 541.179L258.467 549.619C261.52 532.879 264.567 516.142 267.607 499.409C266.22 494.127 266.453 488.55 268.275 483.402C270.098 478.254 273.426 473.772 277.827 470.539C287.517 463.479 301.417 463.749 309.337 470.259C310.983 471.629 312.392 473.261 313.507 475.089" fill="#AD85AD"/>
<path opacity="0.9" d="M314.777 495.689L323.027 541.179L258.467 549.619C261.52 532.879 264.567 516.142 267.607 499.409C266.22 494.127 266.453 488.55 268.275 483.402C270.098 478.254 273.426 473.772 277.827 470.539C287.517 463.479 301.417 463.749 309.337 470.259C310.983 471.629 312.392 473.261 313.507 475.089" stroke="black" stroke-width="1.5" stroke-linecap="round" stroke-linejoin="round"/>
<path opacity="0.9" d="M407.618 639.319L395.078 627.569L400.178 625.569" stroke="white" stroke-width="1.5" stroke-linecap="round" stroke-linejoin="round"/>
<path opacity="0.9" d="M267.607 499.409L269.457 505.789" stroke="black" stroke-width="1.5" stroke-linecap="round" stroke-linejoin="round"/>
<path opacity="0.9" d="M470.137 607.999C469.917 599.259 469.69 590.522 469.457 581.789" stroke="white" stroke-width="1.5" stroke-linecap="round" stroke-linejoin="round"/>
<path opacity="0.9" d="M271.618 670.72L248.258 681.59C247.189 681.746 246.219 682.304 245.548 683.15C245.273 683.508 245.079 683.922 244.981 684.362C244.882 684.802 244.881 685.259 244.978 685.7C245.096 686.218 245.317 686.708 245.628 687.14C246.075 687.643 246.639 688.028 247.271 688.26C247.902 688.492 248.581 688.564 249.248 688.47C256.468 687.3 265.538 685.09 272.758 683.91" fill="#D88B6D"/>
<path opacity="0.9" d="M271.618 670.72L248.258 681.59C247.189 681.746 246.219 682.304 245.548 683.15C245.273 683.508 245.079 683.922 244.981 684.362C244.882 684.802 244.881 685.259 244.978 685.7C245.096 686.218 245.317 686.708 245.628 687.14C246.075 687.643 246.639 688.028 247.271 688.26C247.902 688.492 248.581 688.564 249.248 688.47C256.468 687.3 265.538 685.09 272.758 683.91" stroke="black" stroke-width="1.5" stroke-linecap="round" stroke-linejoin="round"/>
<path opacity="0.9" d="M222.617 676.55L248.677 672.76L222.617 676.55Z" fill="#D88B6D"/>
<path opacity="0.9" d="M222.617 676.55L248.677 672.76" stroke="black" stroke-width="1.5" stroke-linecap="round" stroke-linejoin="round"/>
<path opacity="0.9" d="M307 592L322.5 541.5L312 543L307 592Z" fill="black" stroke="black" stroke-linecap="round" stroke-linejoin="round"/>
<path opacity="0.9" d="M355.346 385.567L352.916 424.477C352.266 434.927 359.856 444.067 369.726 444.737L374.876 445.077C376.612 445.19 378.35 444.9 379.956 444.231C381.562 443.562 382.991 442.531 384.133 441.219C385.275 439.906 386.099 438.348 386.54 436.665C386.981 434.983 387.027 433.221 386.676 431.517C386.672 431.45 386.672 431.384 386.676 431.317C385.126 423.317 386.246 417.817 386.586 412.157C387.006 405.157 386.406 394.937 381.426 381.747L355.346 385.567Z" fill="black" stroke="black" stroke-width="1.5" stroke-miterlimit="10"/>
<path opacity="0.9" d="M331.814 436.676L358.754 437.566C362.054 438.353 365.503 438.248 368.749 437.262C371.995 436.276 374.92 434.445 377.224 431.956C379.663 429.242 381.291 425.899 381.924 422.306C382.203 420.576 382.236 418.816 382.024 417.076C381.294 410.376 380.954 407.966 380.534 403.306C379.614 393.196 383.324 392.046 381.814 383.106C381.324 380.216 380.684 376.476 378.144 373.056C372.484 365.426 360.774 365.306 357.334 365.326C352.404 365.374 347.539 366.458 343.054 368.506C339.314 391.226 335.568 413.95 331.814 436.676Z" fill="#D88B6D"/>
<path opacity="0.9" d="M317.325 394.856C316.542 391.818 316.364 388.654 316.804 385.547C317.243 382.439 318.29 379.449 319.885 376.746C326.445 366.076 339.065 365.746 339.885 365.746L350.595 365.176C360.925 362.296 371.295 364.786 377.085 371.696C379.741 374.966 381.376 378.944 381.785 383.136C379.334 381.835 377.087 380.18 375.115 378.226C372.572 375.644 369.744 373.36 366.685 371.416C364.629 376.134 361.388 380.239 357.278 383.335C353.167 386.431 348.327 388.412 343.225 389.086C341.925 397.496 340.165 406.556 337.755 416.146C335.925 423.446 333.915 430.286 331.815 436.656L317.325 394.856Z" fill="black" stroke="black" stroke-width="1.5" stroke-miterlimit="10"/>
<path opacity="0.9" d="M359.265 437.617C362.145 446.507 365.015 455.617 367.895 464.537C360.134 470.125 350.652 472.798 341.115 472.087C333.466 471.398 326.177 468.524 320.115 463.807L332.405 436.537" fill="#D88B6D"/>
<path opacity="0.9" d="M359.265 437.617C362.145 446.507 365.015 455.617 367.895 464.537C360.134 470.125 350.652 472.798 341.115 472.087C333.466 471.398 326.177 468.524 320.115 463.807L332.405 436.537" stroke="black" stroke-width="1.5" stroke-miterlimit="10"/>
<path opacity="0.9" d="M366.996 413.598H368.656C369.283 413.599 369.898 413.427 370.434 413.102C370.97 412.777 371.406 412.311 371.695 411.754C371.984 411.198 372.115 410.573 372.073 409.948C372.031 409.322 371.817 408.72 371.456 408.208L366.996 401.838" stroke="black" stroke-width="1.5" stroke-linecap="round" stroke-linejoin="round"/>
<path opacity="0.9" d="M372.226 417.628C372.269 417.628 372.311 417.64 372.348 417.662C372.385 417.684 372.415 417.716 372.435 417.754C372.456 417.792 372.466 417.834 372.464 417.877C372.462 417.92 372.449 417.962 372.426 417.998C371.974 418.813 371.312 419.492 370.51 419.964C369.707 420.437 368.792 420.686 367.861 420.686C366.929 420.686 366.015 420.437 365.212 419.964C364.409 419.492 363.748 418.813 363.296 417.998C363.275 417.961 363.264 417.92 363.264 417.877C363.264 417.835 363.275 417.794 363.296 417.757C363.318 417.72 363.348 417.69 363.385 417.669C363.422 417.648 363.464 417.638 363.506 417.638L372.226 417.628Z" fill="black"/>
<path opacity="0.9" fill-rule="evenodd" clip-rule="evenodd" d="M356.365 404.147C356.365 405.633 355.734 406.837 354.955 406.837C354.176 406.837 353.545 405.633 353.545 404.147C353.545 402.661 354.176 401.457 354.955 401.457C355.734 401.457 356.365 402.661 356.365 404.147ZM377.935 404.147C377.935 405.633 377.304 406.837 376.525 406.837C375.746 406.837 375.115 405.633 375.115 404.147C375.115 402.661 375.746 401.457 376.525 401.457C377.304 401.457 377.935 402.661 377.935 404.147Z" fill="black"/>
<path opacity="0.9" d="M328.584 415.487L334.014 395.737L332.174 395.667C330.092 395.601 328.066 396.35 326.527 397.754C324.989 399.158 324.058 401.108 323.934 403.187C323.833 404.987 324.343 406.768 325.382 408.242C326.42 409.716 327.926 410.796 329.654 411.307" fill="#D88B6D"/>
<path opacity="0.9" d="M328.584 415.487L334.014 395.737L332.174 395.667C330.092 395.601 328.066 396.35 326.527 397.754C324.989 399.158 324.058 401.108 323.934 403.187C323.833 404.987 324.343 406.768 325.382 408.242C326.42 409.716 327.926 410.796 329.654 411.307" stroke="black" stroke-width="1.5" stroke-miterlimit="10"/>
<path opacity="0.9" fill-rule="evenodd" clip-rule="evenodd" d="M349.955 399.499C350.728 398.124 351.976 397.079 353.465 396.559L349.955 399.499ZM380.545 399.499C379.772 398.124 378.524 397.079 377.035 396.559L380.545 399.499Z" fill="white"/>
<path opacity="0.9" fill-rule="evenodd" clip-rule="evenodd" d="M354.117 396.188C354.296 396.503 354.224 396.901 353.947 397.134L350.437 400.074C350.159 400.306 349.755 400.307 349.476 400.076C349.197 399.844 349.124 399.447 349.301 399.131C350.164 397.597 351.557 396.431 353.218 395.851C353.56 395.731 353.938 395.873 354.117 396.188ZM376.383 396.188C376.562 395.873 376.941 395.731 377.283 395.851C378.944 396.431 380.336 397.597 381.199 399.131C381.376 399.447 381.303 399.844 381.024 400.076C380.746 400.307 380.341 400.306 380.064 400.074L376.554 397.134C376.276 396.901 376.204 396.503 376.383 396.188Z" fill="black"/>
<path opacity="0.9" d="M350.996 435.816L358.756 437.566C362.056 438.353 365.505 438.247 368.751 437.262C371.996 436.276 374.921 434.445 377.226 431.956C379.664 429.242 381.293 425.899 381.926 422.306C382.204 420.576 382.238 418.816 382.026 417.076C381.296 410.376 380.956 407.966 380.536 403.306C379.616 393.196 383.326 392.046 381.816 383.106C381.326 380.216 380.686 376.476 378.146 373.056C371.896 364.636 359.366 365.206 357.336 365.326C354.856 365.476 352.816 365.236 351.496 365.326" stroke="black" stroke-width="1.5" stroke-miterlimit="10"/>
<path opacity="0.9" d="M343.555 388.838L345.985 427.748C346.635 438.188 339.045 447.338 329.175 447.998L324.025 448.348C322.289 448.459 320.55 448.168 318.945 447.498C317.34 446.828 315.911 445.795 314.77 444.482C313.629 443.169 312.806 441.61 312.367 439.926C311.927 438.243 311.882 436.481 312.235 434.778C312.23 434.714 312.23 434.651 312.235 434.588C313.775 426.588 312.655 421.088 312.315 415.428C311.905 408.428 312.495 398.208 317.475 385.018L343.555 388.838Z" fill="black" stroke="black" stroke-width="1.5" stroke-miterlimit="10"/>
<path opacity="0.9" d="M383.725 414.148C389.585 414.148 394.335 409.397 394.335 403.538C394.335 397.678 389.585 392.928 383.725 392.928C377.865 392.928 373.115 397.678 373.115 403.538C373.115 409.397 377.865 414.148 383.725 414.148Z" stroke="black" stroke-width="1.5" stroke-linecap="round" stroke-linejoin="round"/>
<path opacity="0.17" fill-rule="evenodd" clip-rule="evenodd" d="M364.316 403.538C364.316 409.397 359.565 414.148 353.706 414.148C347.846 414.148 343.096 409.397 343.096 403.538C343.096 397.678 347.846 392.928 353.706 392.928C359.565 392.928 364.316 397.678 364.316 403.538ZM394.22 403.538C394.22 409.397 389.47 414.148 383.61 414.148C377.75 414.148 373 409.397 373 403.538C373 397.678 377.75 392.928 383.61 392.928C389.47 392.928 394.22 397.678 394.22 403.538Z" fill="white"/>
<path opacity="0.9" d="M353.706 414.148C359.565 414.148 364.316 409.397 364.316 403.538C364.316 397.678 359.565 392.928 353.706 392.928C347.846 392.928 343.096 397.678 343.096 403.538C343.096 409.397 347.846 414.148 353.706 414.148Z" stroke="black" stroke-width="1.5" stroke-linecap="round" stroke-linejoin="round"/>
<path opacity="0.9" d="M372.795 401.907H364.305" stroke="black" stroke-width="1.5" stroke-linecap="round" stroke-linejoin="round"/>
<path opacity="0.9" d="M353.706 414.148C359.565 414.148 364.316 409.397 364.316 403.538C364.316 397.678 359.565 392.928 353.706 392.928C347.846 392.928 343.096 397.678 343.096 403.538C343.096 409.397 347.846 414.148 353.706 414.148Z" stroke="black" stroke-width="1.5" stroke-linecap="round" stroke-linejoin="round"/>
<path opacity="0.9" d="M778.825 801.076C777.085 809.463 775.385 817.796 773.725 826.076C773.448 827.466 773.418 828.895 773.635 830.296V830.376C773.921 831.952 774.752 833.377 775.982 834.402C777.212 835.428 778.763 835.988 780.365 835.986L822.955 836.276C824.323 836.297 825.666 835.906 826.81 835.153C827.953 834.4 828.843 833.321 829.365 832.056V831.956C830.029 830.186 830.161 828.26 829.745 826.416C826.585 816.963 823.431 807.506 820.285 798.046L813.755 779.556H783.305C781.811 786.703 780.318 793.876 778.825 801.076Z" fill="#FFCD88" stroke="black" stroke-width="1.5" stroke-linecap="round" stroke-linejoin="round"/>
<path opacity="0.9" d="M723.164 800.176C712.436 802.697 701.881 805.903 691.564 809.776C679.564 814.276 674.514 817.236 671.904 822.706L671.834 822.846C671.198 824.249 670.924 825.789 671.038 827.325C671.152 828.862 671.649 830.345 672.485 831.639C673.322 832.933 674.469 833.996 675.823 834.731C677.177 835.466 678.694 835.849 680.234 835.846L764.864 836.366C766.163 836.375 767.446 836.075 768.606 835.49C769.766 834.906 770.77 834.054 771.536 833.005C772.302 831.956 772.808 830.739 773.011 829.456C773.214 828.173 773.109 826.86 772.704 825.626L763.424 797.206L757.014 778.676L742.764 772.676L723.164 800.176Z" fill="#FFCD88" stroke="black" stroke-width="1.5" stroke-linecap="round" stroke-linejoin="round"/>
<path opacity="0.9" d="M764.645 800.475C756.585 803.095 744.145 805.665 730.165 802.355C727.787 801.795 725.449 801.08 723.165 800.215C721.571 791.355 719.978 782.495 718.385 773.635L747.635 753.945L764.645 800.475Z" fill="white" stroke="black" stroke-width="1.5" stroke-linecap="round" stroke-linejoin="round"/>
<path opacity="0.9" d="M821.045 800.226C813.775 803.056 800.935 806.666 786.415 803.086C783.823 802.447 781.285 801.604 778.825 800.566L782.665 779.236L813.555 778.436C816.055 785.709 818.552 792.972 821.045 800.226Z" fill="white" stroke="black" stroke-width="1.5" stroke-linecap="round" stroke-linejoin="round"/>
<path opacity="0.9" d="M673.044 831.586L771.344 832.186" stroke="black" stroke-width="1.5" stroke-linecap="round" stroke-linejoin="round"/>
<path opacity="0.9" d="M774.405 832.396H829.215" stroke="black" stroke-width="1.5" stroke-linecap="round" stroke-linejoin="round"/>
<path opacity="0.9" d="M691.635 487.926C691.325 536.386 693.395 577.926 695.885 610.526C698.705 647.436 702.245 675.366 703.545 685.286C708.445 722.766 714.295 755.106 719.615 780.986C736.156 783.73 753.023 783.899 769.615 781.486C766.242 685.632 762.879 589.789 759.525 493.956L691.635 487.926Z" fill="#82AAD3" stroke="black" stroke-width="1.5" stroke-linecap="round" stroke-linejoin="round"/>
<path opacity="0.9" d="M724.304 513.655L733.634 530.395C745.634 614.088 757.634 697.785 769.634 781.485C774.784 781.725 780.174 781.815 785.764 781.735C798.283 781.537 810.764 780.286 823.074 777.995C824.284 735.535 823.994 690.055 821.544 641.925C818.994 591.765 816.844 562.495 812.544 533.165C809.904 515.245 810.134 500.375 808.044 489.915C801.314 489.415 791.334 488.575 779.214 487.255C766.114 485.815 761.264 484.725 755.624 484.435C740.226 483.644 724.789 484.651 709.624 487.435L710.894 489.705" fill="#82AAD3"/>
<path opacity="0.9" d="M724.304 513.655L733.634 530.395C745.634 614.088 757.634 697.785 769.634 781.485C774.784 781.725 780.174 781.815 785.764 781.735C798.283 781.537 810.764 780.286 823.074 777.995C824.284 735.535 823.994 690.055 821.544 641.925C818.994 591.765 816.844 562.495 812.544 533.165C809.904 515.245 810.134 500.375 808.044 489.915C801.314 489.415 791.334 488.575 779.214 487.255C766.114 485.815 761.264 484.725 755.624 484.435C740.226 483.644 724.789 484.651 709.624 487.435L710.894 489.705" stroke="black" stroke-width="1.5" stroke-linecap="round" stroke-linejoin="round"/>
<path opacity="0.9" d="M723.895 800.476L705.785 788.576C705.364 788.3 704.886 788.124 704.387 788.061C703.888 787.997 703.381 788.049 702.905 788.211C702.428 788.373 701.995 788.641 701.638 788.995C701.281 789.35 701.01 789.781 700.845 790.256C700.695 790.681 700.634 791.132 700.665 791.581C700.697 792.03 700.819 792.468 701.027 792.869C701.234 793.269 701.52 793.622 701.869 793.907C702.218 794.192 702.621 794.403 703.055 794.526L723.895 800.476Z" stroke="black" stroke-width="1.5" stroke-linecap="round" stroke-linejoin="round"/>
<path opacity="0.9" d="M723.305 800.476L706.305 808.476C705.91 808.662 705.564 808.935 705.291 809.275C705.018 809.615 704.826 810.012 704.73 810.437C704.633 810.862 704.635 811.303 704.735 811.728C704.834 812.152 705.029 812.548 705.305 812.886C705.551 813.189 705.857 813.439 706.203 813.62C706.55 813.8 706.93 813.908 707.32 813.936C707.71 813.964 708.101 813.912 708.47 813.783C708.839 813.654 709.177 813.451 709.465 813.186L723.305 800.476Z" stroke="black" stroke-width="1.5" stroke-linecap="round" stroke-linejoin="round"/>
<path opacity="0.9" d="M767.305 813.056C767.305 813.056 748.915 813.346 748.685 832.496" stroke="black" stroke-width="1.5" stroke-linecap="round" stroke-linejoin="round"/>
<path opacity="0.9" d="M567.695 361.286L579.305 370.636L590.035 365.526L575.215 352.406C574.322 351.61 573.203 351.111 572.014 350.976C570.825 350.842 569.624 351.079 568.575 351.656C567.734 352.112 567.018 352.768 566.492 353.567C565.965 354.366 565.644 355.282 565.557 356.235C565.47 357.188 565.62 358.148 565.993 359.029C566.366 359.91 566.951 360.685 567.695 361.286Z" fill="#F7CCB9" stroke="black" stroke-width="1.5" stroke-linecap="round" stroke-linejoin="round"/>
<path opacity="0.9" d="M585.304 384.736L612.304 390.946L629.524 412.246L657.404 405.096L645.884 381.656C645.664 381.206 645.434 380.766 645.194 380.326C638.484 368.086 624.194 362.046 610.584 364.976C605.889 365.989 601.107 366.548 596.304 366.646C581.374 366.936 572.464 363.546 565.864 360.536C564.755 360.468 563.65 360.731 562.691 361.292C561.731 361.853 560.96 362.686 560.474 363.686C559.98 364.685 559.801 365.811 559.959 366.914C560.118 368.018 560.608 369.047 561.364 369.866C568.424 377.726 574.984 382.356 585.304 384.736Z" fill="#F7CCB9" stroke="black" stroke-width="1.5" stroke-linecap="round" stroke-linejoin="round"/>
<path opacity="0.9" d="M613.725 364.615L594.465 360.075C593.299 359.801 592.077 359.893 590.966 360.338C589.855 360.784 588.908 361.561 588.255 362.565C587.734 363.367 587.419 364.285 587.337 365.237C587.256 366.19 587.41 367.148 587.786 368.027C588.163 368.906 588.75 369.678 589.497 370.276C590.243 370.874 591.125 371.279 592.065 371.455L604.365 375.755L609.365 378.805" fill="#F7CCB9"/>
<path opacity="0.9" d="M613.725 364.615L594.465 360.075C593.299 359.801 592.077 359.893 590.966 360.338C589.855 360.784 588.908 361.561 588.255 362.565C587.734 363.367 587.419 364.285 587.337 365.237C587.256 366.19 587.41 367.148 587.786 368.027C588.163 368.906 588.75 369.678 589.497 370.276C590.243 370.874 591.125 371.279 592.065 371.455L604.365 375.755L609.365 378.805" stroke="black" stroke-width="1.5" stroke-linecap="round" stroke-linejoin="round"/>
<path opacity="0.9" d="M655.554 391.755L677.504 427.055C676.954 424.055 676.154 419.505 675.204 414.055C672.204 396.865 670.734 388.265 670.354 384.695C668.354 365.875 675.124 339.915 685.164 338.225C693.784 336.775 705.694 353.085 714.284 376.125C717.604 402.795 718.524 429.815 719.884 456.695C719.905 457.597 720.235 458.465 720.819 459.153C721.404 459.841 722.207 460.308 723.094 460.475C720.004 480.405 715.434 483.315 703.544 490.395C699.012 493.022 693.916 494.521 688.684 494.765C682.846 494.206 677.17 492.532 671.964 489.835C667.744 487.625 661.664 483.575 654.694 474.055C639.494 453.295 630.214 420.485 628.464 414.185L655.554 391.755Z" fill="white" stroke="black" stroke-width="1.5" stroke-linecap="round" stroke-linejoin="round"/>
<path opacity="0.9" d="M567.044 361.476C575.622 368.169 585.856 372.406 596.654 373.736L567.044 361.476Z" fill="#F7CCB9"/>
<path opacity="0.9" d="M567.044 361.476C575.622 368.169 585.856 372.406 596.654 373.736" stroke="black" stroke-width="1.5" stroke-linecap="round" stroke-linejoin="round"/>
<path opacity="0.9" d="M507.064 364.155H617.574L595.724 277.735C595.424 276.544 594.734 275.487 593.765 274.731C592.796 273.976 591.603 273.565 590.374 273.565H491.254C490.41 273.564 489.577 273.756 488.819 274.127C488.061 274.498 487.398 275.038 486.882 275.706C486.365 276.373 486.008 277.15 485.839 277.977C485.669 278.803 485.692 279.658 485.904 280.475L507.064 364.155Z" fill="black" stroke="black" stroke-width="1.5" stroke-linecap="round" stroke-linejoin="round"/>
<path opacity="0.9" d="M509.745 359.785H657.695C659.175 359.785 660.375 360.985 660.375 362.465V364.075C660.375 365.555 659.175 366.755 657.695 366.755H509.745C508.265 366.755 507.065 365.555 507.065 364.075V362.465C507.065 360.985 508.265 359.785 509.745 359.785Z" fill="#82AAD3" stroke="black" stroke-width="1.5" stroke-linecap="round" stroke-linejoin="round"/>
<path opacity="0.9" d="M617.915 401.376C619.09 403.477 620.427 405.483 621.915 407.376C623.859 409.84 626.043 412.104 628.435 414.136L655.525 391.726C653.809 388.73 651.719 385.965 649.305 383.496C647.998 382.156 646.602 380.906 645.125 379.756L617.915 401.376Z" fill="#F25A33" stroke="black" stroke-width="1.5" stroke-linecap="round" stroke-linejoin="round"/>
<path opacity="0.9" d="M621.945 407.406L650.105 384.896" stroke="black" stroke-width="1.5" stroke-linecap="round" stroke-linejoin="round"/>
<path opacity="0.9" d="M781.674 477.945H694.014" stroke="black" stroke-width="1.5" stroke-linecap="round" stroke-linejoin="round"/>
<path opacity="0.9" d="M686.504 448.676L696.074 467.816" stroke="black" stroke-width="1.5" stroke-linecap="round" stroke-linejoin="round"/>
<path opacity="0.9" d="M686.554 450.476L696.334 464.736" stroke="black" stroke-width="1.5" stroke-linecap="round" stroke-linejoin="round"/>
<path opacity="0.9" d="M806.935 407.375C804.551 403.196 802.469 398.851 800.705 394.375C798.706 387.905 797.451 381.229 796.965 374.475C796.545 367.075 797.625 352.985 804.325 336.695C803.155 334.955 796.875 330.245 782.195 329.085C772.755 328.335 764.345 333.445 761.715 335.145C738.335 338.975 724.525 337.935 716.055 336.045C706.906 333.808 697.321 334.099 688.325 336.885C686.39 337.51 684.669 338.665 683.358 340.219C682.046 341.773 681.197 343.663 680.905 345.675C680.355 349.175 679.835 353.315 679.485 357.945C678.553 370.364 679.08 382.849 681.055 395.145C683.405 410.825 685.745 437.465 687.865 482.935C687.947 485.335 688.763 487.651 690.202 489.573C691.642 491.495 693.635 492.93 695.915 493.685C705.687 496.784 715.702 499.055 725.855 500.475C753.839 504.32 782.329 501.836 809.225 493.205C809.425 480.725 809.385 467.815 809.105 454.475C808.745 438.145 807.985 422.475 806.935 407.375Z" fill="#F25A33" stroke="black" stroke-width="1.5" stroke-linecap="round" stroke-linejoin="round"/>
<path opacity="0.9" d="M759.094 502.715C758.269 502.692 757.467 502.442 756.775 501.992C756.084 501.542 755.53 500.91 755.174 500.165C754.733 499.234 754.362 498.271 754.064 497.285C753.593 495.725 753.311 494.113 753.224 492.485C772.333 492.632 791.299 489.199 809.144 482.365C809.264 485.365 809.394 488.365 809.514 491.365C809.547 492.189 809.325 493.003 808.877 493.696C808.43 494.389 807.779 494.926 807.014 495.235C804.554 496.235 801.804 497.175 798.794 498.075C794.239 499.404 789.603 500.44 784.914 501.175C776.375 502.494 767.73 503.009 759.094 502.715Z" fill="#F25A33" stroke="black" stroke-width="1.5" stroke-linecap="round" stroke-linejoin="round"/>
<path opacity="0.9" d="M761.734 332.045L767.984 325.835C768.754 325.069 769.675 324.472 770.689 324.082C771.702 323.692 772.786 323.517 773.87 323.569C774.955 323.621 776.017 323.898 776.989 324.383C777.96 324.868 778.82 325.549 779.514 326.385L779.914 326.855L754.494 347.855C755.214 345.735 756.054 343.505 757.044 341.175C758.261 338.338 759.619 335.565 761.114 332.865C761.286 332.567 761.494 332.291 761.734 332.045Z" fill="#F25A33" stroke="black" stroke-width="1.5" stroke-linecap="round" stroke-linejoin="round"/>
<path opacity="0.9" d="M708.244 331.396L700.884 325.646C700.027 324.979 699.041 324.498 697.988 324.232C696.935 323.967 695.838 323.923 694.767 324.103C693.697 324.284 692.675 324.685 691.767 325.281C690.859 325.877 690.085 326.655 689.494 327.566L689.164 328.076C698.414 334.016 706.654 339.926 715.904 345.866C714.904 343.866 714.904 340.766 713.604 338.576C711.844 335.526 709.994 333.806 708.244 331.396Z" fill="#F25A33" stroke="black" stroke-width="1.5" stroke-linecap="round" stroke-linejoin="round"/>
<path opacity="0.9" d="M777.305 324.365L757.305 340.675L777.305 324.365Z" fill="white"/>
<path opacity="0.9" d="M777.305 324.365L757.305 340.675" stroke="black" stroke-width="1.5" stroke-linecap="round" stroke-linejoin="round"/>
<path opacity="0.9" d="M691.915 325.495L714.215 340.405" stroke="black" stroke-width="1.5" stroke-linecap="round" stroke-linejoin="round"/>
<path opacity="0.9" d="M754.164 497.926C772.884 497.894 791.478 494.872 809.244 488.976L754.164 497.926Z" fill="#F25A33"/>
<path opacity="0.9" d="M754.164 497.926C772.884 497.894 791.478 494.872 809.244 488.976" stroke="black" stroke-width="1.5" stroke-linecap="round" stroke-linejoin="round"/>
<path opacity="0.9" d="M712.044 336.036C713.73 339.334 715.003 342.827 715.834 346.436C719.454 362.296 712.504 373.186 710.174 387.366C708.084 400.106 712.824 406.586 714.014 424.306C715.727 449.586 717.434 474.872 719.134 500.166C723.41 501.356 727.779 502.183 732.194 502.636C740.227 503.467 748.339 503.076 756.254 501.476C751.262 488.507 747.427 475.121 744.794 461.476C741.714 445.476 736.714 415.976 744.114 379.476C747.27 364.086 752.501 349.197 759.664 335.216L712.044 336.036Z" fill="white" stroke="black" stroke-width="1.5" stroke-linecap="round" stroke-linejoin="round"/>
<path opacity="0.9" d="M799.035 389.265C802.035 397.475 806.825 407.375 806.825 407.375C809.135 412.185 810.605 414.835 814.355 422.465C817.015 427.865 819.125 432.315 820.485 435.225L779.125 426.545L772.615 462.385C808.485 487.525 845.275 489.325 857.835 475.015C862.245 470.015 866.925 459.185 867.835 447.625C868.575 438.715 866.665 431.625 865.225 426.175C862.66 416.666 858.468 407.673 852.835 399.595C850.447 396.131 848.467 392.403 846.935 388.485C844.295 381.705 845.385 379.905 842.655 372.915C840.559 367.466 837.827 362.283 834.515 357.475C832.218 353.957 829.535 350.707 826.515 347.785C823.295 344.785 816.235 339.165 804.135 336.655C800.055 348.475 792.965 372.905 799.035 389.265Z" fill="white" stroke="black" stroke-width="1.5" stroke-linecap="round" stroke-linejoin="round"/>
<path opacity="0.9" d="M845.644 384.525L845.984 392.695" stroke="black" stroke-width="1.5" stroke-linecap="round" stroke-linejoin="round"/>
<path opacity="0.9" d="M682.914 471.775C683.844 473.325 685.464 473.095 686.304 471.325C687.936 467.836 690.061 464.599 692.614 461.715C695.357 458.513 698.901 456.097 702.884 454.715C704.054 454.325 704.884 452.585 704.704 450.715L704.594 449.295C704.444 447.375 703.324 446.075 702.104 446.415C698.284 447.415 691.734 450.415 686.454 459.225C684.883 461.887 683.586 464.701 682.584 467.625C682.351 468.286 682.257 468.988 682.309 469.686C682.36 470.385 682.556 471.066 682.884 471.685L682.914 471.775Z" fill="white" stroke="black" stroke-width="1.5" stroke-linecap="round" stroke-linejoin="round"/>
<path opacity="0.9" d="M719.634 500.206C720.016 498.23 720.18 496.218 720.124 494.206C720.124 493.556 720.014 492.946 719.924 492.366C719.797 491.593 719.422 490.882 718.856 490.341C718.289 489.8 717.562 489.458 716.784 489.366C706.441 488.155 696.505 484.628 687.714 479.046C687.26 480.29 686.991 481.594 686.914 482.916C687.033 485.365 688.072 487.68 689.824 489.396C690.689 490.252 691.604 491.057 692.564 491.806C696.984 495.226 701.054 496.256 706.424 497.546C709.744 498.366 714.084 499.966 719.634 500.206Z" fill="#F25A33" stroke="black" stroke-width="1.5" stroke-linecap="round" stroke-linejoin="round"/>
<path opacity="0.9" d="M820.484 435.226L833.244 438.296L820.484 435.226Z" fill="white"/>
<path opacity="0.9" d="M820.484 435.226L833.244 438.296" stroke="black" stroke-width="1.5" stroke-linecap="round" stroke-linejoin="round"/>
<path opacity="0.9" d="M767.516 426.825C766.678 426.507 765.925 426.001 765.316 425.345C764.152 423.945 763.546 422.164 763.616 420.345C763.737 417.222 763.283 414.103 762.276 411.145V411.035C761.602 409.053 760.533 407.228 759.134 405.671C757.735 404.113 756.035 402.856 754.136 401.975L742.396 396.585C739.936 395.455 736.886 396.825 735.586 399.655C734.296 402.475 735.246 405.655 737.706 406.805L742.116 408.805L750.306 413.915L745.136 411.375L700.556 400.375C699.322 400.051 698.01 400.227 696.906 400.865C695.755 401.578 694.848 402.624 694.306 403.865V403.955C694.037 405.043 694.192 406.194 694.74 407.172C695.288 408.151 696.187 408.884 697.256 409.225C707.386 411.705 720.006 414.705 730.136 417.225C720.046 415.395 707.476 413.055 697.386 411.225C695.206 410.825 693.056 412.535 692.596 415.025V415.115C692.319 416.202 692.478 417.353 693.038 418.325C693.598 419.296 694.516 420.01 695.596 420.315C715.596 424.235 727.596 426.805 727.486 427.165C727.376 427.525 715.386 425.695 695.486 422.545C693.226 422.185 691.096 424.185 690.966 426.795V426.875C690.869 427.821 691.113 428.771 691.654 429.553C692.195 430.336 692.997 430.9 693.916 431.145C703.316 433.025 715.916 434.905 725.336 436.775C715.246 436.725 706.516 436.335 696.426 436.275C695.716 436.296 695.032 436.545 694.474 436.984C693.916 437.423 693.513 438.03 693.326 438.715C693.228 439.064 693.171 439.423 693.156 439.785C693.156 439.905 693.156 440.025 693.156 440.145C693.179 440.86 693.453 441.545 693.93 442.079C694.407 442.613 695.057 442.962 695.766 443.065C711.526 444.965 717.886 446.215 733.636 448.115L757.526 453.875C760.866 444.861 764.196 435.845 767.516 426.825Z" fill="#F7CCB9" stroke="black" stroke-width="1.5" stroke-linecap="round" stroke-linejoin="round"/>
<path opacity="0.9" d="M720.225 495.366C715.092 495.16 710.009 494.265 705.115 492.706C697.715 490.366 691.685 486.226 686.915 482.886" fill="#F25A33"/>
<path opacity="0.9" d="M720.225 495.366C715.092 495.16 710.009 494.265 705.115 492.706C697.715 490.366 691.685 486.226 686.915 482.886" stroke="black" stroke-width="1.5" stroke-linecap="round" stroke-linejoin="round"/>
<path opacity="0.9" d="M756.785 456.926C758.693 458.639 760.895 459.994 763.285 460.926C766.251 462.086 769.436 462.581 772.615 462.376C775.015 450.442 777.411 438.516 779.805 426.596C776.589 425.272 773.234 424.313 769.805 423.736C768.295 423.476 766.805 423.316 765.495 423.216L761.495 440.066C759.921 445.672 758.351 451.293 756.785 456.926Z" fill="#F25A33" stroke="black" stroke-width="1.5" stroke-linecap="round" stroke-linejoin="round"/>
<path opacity="0.9" d="M763.284 460.936L771.234 424.396" stroke="black" stroke-width="1.5" stroke-linecap="round" stroke-linejoin="round"/>
<path opacity="0.9" d="M717.086 312.486C714.206 321.376 712.146 326.556 709.276 335.486C717.039 341.058 726.517 343.717 736.046 342.996C743.694 342.308 750.983 339.438 757.046 334.726L749.696 304.916C749.063 302.328 749.259 299.606 750.256 297.136L759.586 274.136" fill="#F7CCB9"/>
<path opacity="0.9" d="M717.086 312.486C714.206 321.376 712.146 326.556 709.276 335.486C717.039 341.058 726.517 343.717 736.046 342.996C743.694 342.308 750.983 339.438 757.046 334.726L749.696 304.916C749.063 302.328 749.259 299.606 750.256 297.136L759.586 274.136" stroke="black" stroke-width="1.5" stroke-miterlimit="10"/>
<path opacity="0.9" d="M695.506 258.116C695.506 259.586 695.506 261.166 695.586 262.576C695.876 268.686 696.586 270.826 696.956 274.576C697.476 280.346 696.126 280.016 695.956 289.386C695.846 294.766 695.786 297.456 696.716 300.386C697.066 301.466 699.046 307.956 704.336 311.056C709.626 314.156 716.256 312.946 727.336 310.056C733.794 308.385 740.089 306.14 746.146 303.346L760.016 271.516L739.586 242.516C724.536 233.176 708.016 234.356 700.396 243.006C696.146 247.766 695.446 254.036 695.506 258.116Z" fill="#F7CCB9"/>
<path opacity="0.9" d="M693.5 261.5L704.5 247.666L720 261.5C720.43 262.6 720 252.5 720 247.666L726.576 255C726.576 255 736.92 268.429 738.326 275.576L743.5 264.856L753 287.5L759 289C759 289 760.885 267.963 760.966 264.856C761.056 261.266 761.246 253.926 757.286 247.666C751.226 238.076 739.136 236.806 737.286 236.666C733.73 236.273 730.154 236.079 726.576 236.086C714.976 236.086 702.03 235.47 696.5 241C694.95 242.53 688 251.5 693.5 261.5Z" fill="black" stroke="black" stroke-width="1.5" stroke-linecap="round" stroke-linejoin="round"/>
<path opacity="0.9" d="M711.086 284.506H709.426C708.8 284.507 708.185 284.337 707.649 284.013C707.114 283.689 706.677 283.224 706.387 282.669C706.097 282.114 705.965 281.49 706.006 280.866C706.046 280.241 706.257 279.639 706.616 279.126L711.086 272.756" stroke="black" stroke-width="1.5" stroke-linecap="round" stroke-linejoin="round"/>
<path opacity="0.9" d="M705.536 288.354C706.025 289.405 706.831 290.277 707.841 290.845C708.851 291.414 710.014 291.651 711.166 291.524C711.987 291.371 712.763 291.038 713.439 290.549C714.115 290.059 714.674 289.426 715.076 288.694L705.536 288.354Z" fill="black"/>
<path opacity="0.9" fill-rule="evenodd" clip-rule="evenodd" d="M721.756 275.054C721.756 276.54 722.388 277.744 723.166 277.744C723.945 277.744 724.576 276.54 724.576 275.054C724.576 273.569 723.945 272.364 723.166 272.364C722.388 272.364 721.756 273.569 721.756 275.054ZM699.227 275.054C699.227 276.54 699.858 277.744 700.637 277.744C701.416 277.744 702.047 276.54 702.047 275.054C702.047 273.569 701.416 272.364 700.637 272.364C699.858 272.364 699.227 273.569 699.227 275.054Z" fill="black"/>
<path opacity="0.9" d="M743.146 266.645L744.986 266.585C747.066 266.519 749.091 267.266 750.63 268.668C752.168 270.071 753.099 272.017 753.226 274.095C753.327 275.895 752.817 277.676 751.779 279.15C750.74 280.624 749.235 281.704 747.506 282.215" fill="#F7CCB9"/>
<path opacity="0.9" d="M743.146 266.645L744.986 266.585C747.066 266.519 749.091 267.266 750.63 268.668C752.168 270.071 753.099 272.017 753.226 274.095C753.327 275.895 752.817 277.676 751.779 279.15C750.74 280.624 749.235 281.704 747.506 282.215" stroke="black" stroke-width="1.5" stroke-miterlimit="10"/>
<path opacity="0.9" fill-rule="evenodd" clip-rule="evenodd" d="M728.166 270.405C727.39 269.033 726.143 267.988 724.656 267.465L728.166 270.405ZM696.615 270.405C697.391 269.033 698.638 267.988 700.125 267.465L696.615 270.405Z" fill="white"/>
<path opacity="0.9" fill-rule="evenodd" clip-rule="evenodd" d="M724.004 267.093C723.825 267.408 723.896 267.806 724.174 268.039L727.684 270.979C727.962 271.212 728.367 271.212 728.646 270.98C728.924 270.748 728.997 270.35 728.819 270.035C727.953 268.505 726.563 267.34 724.905 266.756C724.563 266.636 724.184 266.777 724.004 267.093ZM700.777 267.093C700.597 266.777 700.218 266.636 699.876 266.756C698.218 267.34 696.828 268.505 695.962 270.035C695.784 270.35 695.856 270.748 696.135 270.98C696.414 271.212 696.819 271.212 697.097 270.979L700.607 268.039C700.885 267.806 700.956 267.408 700.777 267.093Z" fill="black"/>
<path opacity="0.9" d="M725.666 236.205H719.826C717.826 236.085 705.256 235.515 699.016 243.935C696.476 247.365 695.836 251.105 695.346 253.985C693.826 262.935 697.546 268.515 696.626 278.625C696.206 283.275 695.856 285.695 695.136 292.395C694.924 294.135 694.958 295.895 695.236 297.625C695.296 297.985 695.376 298.355 695.456 298.715C697.966 309.355 709.316 315.375 719.746 312.125L728.746 309.335" stroke="black" stroke-width="1.5" stroke-linecap="round" stroke-linejoin="round"/>
</g>
</svg>
