<svg width="616" height="211" viewBox="0 0 616 211" fill="none" xmlns="http://www.w3.org/2000/svg">
<path d="M52.8 130.5C23.7 130.5 5.55 113.85 5.55 79.2V75.45C5.55 38.25 27.45 24.3 54.45 24.3C66.3 24.3 74.55 26.1 80.7 29.4V45.45C73.35 43.05 66.6 40.95 57.15 40.95C39.6 40.95 28.35 50.55 28.35 73.5V78.6C28.35 100.8 36.45 113.55 57.3 113.55C68.7 113.55 75.75 110.85 81.45 108.3V124.35C74.7 128.1 65.4 130.5 52.8 130.5ZM107.426 128.85L144.026 25.95H166.226L202.376 128.85H180.476L171.926 104.25H135.326L126.926 128.85H107.426ZM153.026 50.1L140.126 89.1H166.976L153.626 50.1H153.026ZM260.474 130.5C246.674 130.5 236.174 127.95 228.974 124.2V107.85C237.374 111.45 247.124 114.15 258.524 114.15C271.574 114.15 277.274 108.75 277.274 100.65C277.274 92.55 273.824 89.55 262.874 86.7L253.574 84.3C238.724 80.4 229.274 73.2 229.274 54.15C229.274 36.45 240.824 24.3 264.524 24.3C278.924 24.3 286.724 26.85 292.724 29.85V45.9C285.824 43.5 277.424 40.65 265.874 40.65C255.374 40.65 249.674 44.85 249.674 52.65C249.674 59.85 252.974 63 262.724 65.55L271.724 67.95C288.524 72.45 298.274 79.35 298.274 98.4C298.274 118.5 285.824 130.5 260.474 130.5ZM333.115 68.1V48.9H353.215V68.1H333.115ZM333.115 123V103.8H353.215V123H333.115ZM400.571 128.85V42H371.921V25.95H450.671V42H421.721V128.85H400.571ZM484.329 128.85V25.95H505.779V128.85H484.329ZM573.435 130.5C559.635 130.5 549.135 127.95 541.935 124.2V107.85C550.335 111.45 560.085 114.15 571.485 114.15C584.535 114.15 590.235 108.75 590.235 100.65C590.235 92.55 586.785 89.55 575.835 86.7L566.535 84.3C551.685 80.4 542.235 73.2 542.235 54.15C542.235 36.45 553.785 24.3 577.485 24.3C591.885 24.3 599.685 26.85 605.685 29.85V45.9C598.785 43.5 590.385 40.65 578.835 40.65C568.335 40.65 562.635 44.85 562.635 52.65C562.635 59.85 565.935 63 575.685 65.55L584.685 67.95C601.485 72.45 611.235 79.35 611.235 98.4C611.235 118.5 598.785 130.5 573.435 130.5Z" fill="black"/>
<path d="M126.779 202.592H104.711V193.988H121.595V191.756H104.531V188.444H125.771V197.012H108.923V199.208H126.779V202.592ZM125.771 186.824H121.595V170.768H125.771V186.824ZM100.211 179.3C100.211 175.016 103.811 171.848 108.743 171.848C113.639 171.848 117.203 174.944 117.203 179.3C117.203 183.584 113.639 186.464 108.743 186.464C103.991 186.464 100.211 183.692 100.211 179.3ZM104.387 179.264C104.387 181.424 106.259 182.972 108.743 182.972C111.371 182.972 113.027 181.244 113.027 179.264C113.027 177.068 111.443 175.304 108.743 175.304C106.367 175.304 104.387 177.104 104.387 179.264ZM135.643 180.488C135.643 182.864 137.371 184.7 140.251 184.7C143.167 184.7 144.895 182.864 144.895 180.488C144.895 178.22 143.167 176.384 140.251 176.384C137.371 176.384 135.643 178.22 135.643 180.488ZM157.135 170.768V202.844H152.959V170.768H157.135ZM131.323 180.524C131.323 176.024 134.851 172.82 140.251 172.82C145.687 172.82 149.143 176.024 149.143 180.524C149.143 184.988 145.687 188.228 140.251 188.228C134.851 188.228 131.323 184.988 131.323 180.524ZM151.627 194.636C148.567 195.032 144.211 195.392 140.791 195.572C137.227 195.716 133.411 195.86 130.711 195.824L130.099 192.224C133.807 192.224 136.903 192.188 140.539 192.044C144.535 191.9 148.423 191.612 151.267 191.252L151.627 194.636ZM199.649 186.572H195.005V202.844H190.829V170.768H195.005V183.08H199.649V186.572ZM186.581 174.044C186.293 183.728 182.045 191.72 172.217 197.048L169.661 193.88C176.645 190.676 181.433 183.944 182.009 177.536H171.605V174.044H186.581ZM220.933 193.592L218.737 196.868C215.677 195.392 211.933 191.756 210.961 188.66C210.169 191.9 206.893 195.716 203.149 197.552L200.629 194.456C205.777 192.008 208.441 187.868 208.693 181.712H202.285V178.4H219.385V181.712H213.085C213.409 187.904 216.721 191.756 220.933 193.592ZM227.269 202.844H223.057V170.768H227.269V202.844ZM205.993 176.06V172.712H215.641V176.06H205.993Z" fill="black"/>
<path d="M443.532 184.988L441.552 188.3C437.16 187.292 431.688 183.944 429.852 179.732C428.196 184.052 422.58 187.328 418.188 188.3L416.28 184.88C421.5 184.124 427.692 180.092 427.692 174.368V172.424H432.084V174.368C432.084 180.02 438.672 184.196 443.532 184.988ZM444.36 198.848H415.38V195.536H427.656V187.904H431.904V195.536H444.36V198.848ZM471.801 185.24H462.693V187.292H475.149V190.676H446.169V187.292H458.481V185.24H449.985V171.956H471.513V175.232H454.197V177.032H470.433V180.2H454.197V181.964H471.801V185.24ZM471.873 197.516C471.873 200.792 468.453 203.168 460.677 203.168C452.901 203.168 449.481 200.792 449.481 197.516C449.481 194.204 452.901 191.864 460.641 191.864C468.453 191.864 471.873 194.204 471.873 197.516ZM467.517 197.516C467.517 196.04 464.889 195.14 460.641 195.14C456.501 195.14 453.837 196.04 453.837 197.516C453.837 198.992 456.501 199.82 460.641 199.82C464.889 199.82 467.517 198.992 467.517 197.516ZM482.537 180.488C482.537 182.864 484.265 184.7 487.145 184.7C490.061 184.7 491.789 182.864 491.789 180.488C491.789 178.22 490.061 176.384 487.145 176.384C484.265 176.384 482.537 178.22 482.537 180.488ZM504.029 170.768V202.844H499.853V170.768H504.029ZM478.217 180.524C478.217 176.024 481.745 172.82 487.145 172.82C492.581 172.82 496.037 176.024 496.037 180.524C496.037 184.988 492.581 188.228 487.145 188.228C481.745 188.228 478.217 184.988 478.217 180.524ZM498.521 194.636C495.461 195.032 491.105 195.392 487.685 195.572C484.121 195.716 480.305 195.86 477.605 195.824L476.993 192.224C480.701 192.224 483.797 192.188 487.433 192.044C491.429 191.9 495.317 191.612 498.161 191.252L498.521 194.636ZM546.543 186.572H541.899V202.844H537.723V170.768H541.899V183.08H546.543V186.572ZM533.475 174.044C533.187 183.728 528.939 191.72 519.111 197.048L516.555 193.88C523.539 190.676 528.327 183.944 528.903 177.536H518.499V174.044H533.475ZM567.827 193.592L565.631 196.868C562.571 195.392 558.827 191.756 557.855 188.66C557.063 191.9 553.787 195.716 550.043 197.552L547.523 194.456C552.671 192.008 555.335 187.868 555.587 181.712H549.179V178.4H566.279V181.712H559.979C560.303 187.904 563.615 191.756 567.827 193.592ZM574.163 202.844H569.951V170.768H574.163V202.844ZM552.887 176.06V172.712H562.535V176.06H552.887Z" fill="black"/>
</svg>
